<svg width="240" height="80" viewBox="0 0 240 80" fill="none" xmlns="http://www.w3.org/2000/svg">
<rect x="0.5" y="0.5" width="239" height="79" fill="#17171A"/>
<path fill-rule="evenodd" clip-rule="evenodd" d="M41.6233 33.5393L45.293 37.2091C45.3051 37.2216 45.3196 37.2315 45.3357 37.2383C45.3517 37.2451 45.3689 37.2486 45.3863 37.2486C45.4037 37.2486 45.4209 37.2451 45.4369 37.2383C45.4529 37.2315 45.4674 37.2216 45.4795 37.2091L51.9133 30.6887C51.9254 30.6762 51.9399 30.6663 51.9559 30.6595C51.9719 30.6528 51.9891 30.6493 52.0065 30.6493C52.0239 30.6493 52.0411 30.6528 52.0572 30.6595C52.0732 30.6663 52.0877 30.6762 52.0998 30.6887L58.5935 37.1824C58.6056 37.1949 58.6201 37.2049 58.6361 37.2116C58.6521 37.2184 58.6693 37.2219 58.6867 37.2219C58.7041 37.2219 58.7213 37.2184 58.7374 37.2116C58.7534 37.2049 58.7679 37.1949 58.78 37.1824L62.3765 33.5626C62.3997 33.5384 62.4127 33.5062 62.4127 33.4727C62.4127 33.4392 62.3997 33.407 62.3765 33.3828L52.1164 23.0395C52.1043 23.027 52.0898 23.0171 52.0738 23.0103C52.0578 23.0035 52.0406 23 52.0232 23C52.0058 23 51.9886 23.0035 51.9726 23.0103C51.9565 23.0171 51.9421 23.027 51.9299 23.0395L41.6233 33.3528C41.6108 33.3649 41.6008 33.3794 41.5941 33.3954C41.5873 33.4115 41.5838 33.4287 41.5838 33.4461C41.5838 33.4635 41.5873 33.4807 41.5941 33.4967C41.6008 33.5127 41.6108 33.5272 41.6233 33.5393ZM182.027 45.4511C174.751 48.4249 171.125 37.8185 177.275 34.6583C179.69 33.4161 182.364 34.4218 184.265 36.1302C184.361 36.2168 184.45 36.2112 184.532 36.1135L186.916 33.3229C187 33.223 186.995 33.1308 186.899 33.0465C183.869 30.378 180.496 29.5943 176.779 30.6954C167.045 33.5826 167.808 47.972 178.091 49.5139C181.619 50.0423 184.587 49.0632 186.996 46.5767C187.087 46.4835 187.087 46.3902 186.996 46.297L184.665 43.9293C184.587 43.8516 184.505 43.8449 184.418 43.9093C184.334 43.9726 184.249 44.0362 184.165 44.0998L184.164 44.1006L184.16 44.1035L184.16 44.1036C183.468 44.6251 182.777 45.1461 182.027 45.4511ZM89.49 39.7166C93.5427 41.3884 93.9357 46.5767 89.9096 48.5514C88.8306 49.0798 87.6828 49.3562 86.4663 49.3806C83.2671 49.4428 80.0647 49.4528 76.8589 49.4106C76.8183 49.4106 76.7793 49.3945 76.7506 49.3657C76.7218 49.337 76.7057 49.298 76.7057 49.2574V30.782C76.7057 30.6776 76.759 30.6243 76.8655 30.6221C79.7605 30.5932 82.6455 30.5988 85.5205 30.6388C88.0247 30.6721 90.7022 31.6111 91.4381 34.2053C92.0309 36.2877 91.3704 38.0416 89.4567 39.4669C89.319 39.569 89.3301 39.6523 89.49 39.7166ZM80.6985 34.4318L80.7052 38.1015C80.7052 38.1439 80.722 38.1846 80.752 38.2146C80.782 38.2445 80.8226 38.2614 80.865 38.2614L85.0077 38.2547C85.3403 38.2541 85.6695 38.2068 85.9766 38.1154C86.2837 38.024 86.5626 37.8904 86.7973 37.7221C87.0321 37.5539 87.2181 37.3543 87.3447 37.1348C87.4713 36.9154 87.536 36.6803 87.5352 36.4431V36.0635C87.5336 35.5852 87.2657 35.1271 86.7905 34.7899C86.3154 34.4528 85.6717 34.264 85.001 34.2652L80.8583 34.2719C80.816 34.2719 80.7753 34.2887 80.7453 34.3187C80.7153 34.3487 80.6985 34.3894 80.6985 34.4318ZM80.6952 41.788L80.7018 45.6176C80.7018 45.6618 80.7194 45.7041 80.7506 45.7353C80.7818 45.7666 80.8242 45.7841 80.8683 45.7841L85.9234 45.7741C86.6173 45.7729 87.2824 45.5786 87.7726 45.2339C88.2628 44.8892 88.538 44.4223 88.5376 43.9359V43.443C88.5374 43.202 88.4694 42.9633 88.3376 42.7408C88.2058 42.5183 88.0126 42.3162 87.7693 42.1461C87.5259 41.976 87.237 41.8412 86.9191 41.7495C86.6013 41.6578 86.2607 41.6109 85.9168 41.6115L80.8617 41.6215C80.8175 41.6215 80.7752 41.639 80.7439 41.6702C80.7127 41.7015 80.6952 41.7438 80.6952 41.788ZM97.3262 30.6123H101.209C101.286 30.6123 101.349 30.6749 101.349 30.7521V49.2875C101.349 49.3648 101.286 49.4274 101.209 49.4274H97.3262C97.249 49.4274 97.1863 49.3648 97.1863 49.2875V30.7521C97.1863 30.6749 97.249 30.6123 97.3262 30.6123ZM110.839 37.722V49.3275C110.839 49.354 110.829 49.3794 110.81 49.3981C110.791 49.4169 110.766 49.4274 110.739 49.4274H106.943C106.93 49.4274 106.917 49.4248 106.905 49.4198C106.893 49.4148 106.882 49.4074 106.872 49.3981C106.863 49.3888 106.856 49.3778 106.851 49.3657C106.846 49.3536 106.843 49.3406 106.843 49.3275V30.7155C106.843 30.7024 106.846 30.6894 106.851 30.6773C106.856 30.6651 106.863 30.6541 106.872 30.6448C106.882 30.6356 106.893 30.6282 106.905 30.6232C106.917 30.6182 106.93 30.6156 106.943 30.6156L110.52 30.6123C110.535 30.6123 110.55 30.6159 110.564 30.6228C110.578 30.6297 110.59 30.6398 110.6 30.6522L119.151 41.8813C119.164 41.8981 119.181 41.9105 119.201 41.9168C119.221 41.923 119.243 41.9228 119.263 41.9162C119.283 41.9096 119.3 41.8968 119.312 41.8798C119.325 41.8628 119.331 41.8424 119.331 41.8214V30.7122C119.331 30.699 119.334 30.686 119.339 30.6739C119.344 30.6618 119.351 30.6508 119.36 30.6415C119.37 30.6322 119.381 30.6249 119.393 30.6199C119.405 30.6148 119.418 30.6123 119.431 30.6123H123.394C123.407 30.6123 123.42 30.6148 123.432 30.6199C123.444 30.6249 123.455 30.6322 123.465 30.6415C123.474 30.6508 123.481 30.6618 123.486 30.6739C123.491 30.686 123.494 30.699 123.494 30.7122V49.3241C123.494 49.3373 123.491 49.3503 123.486 49.3624C123.481 49.3745 123.474 49.3855 123.465 49.3948C123.455 49.4041 123.444 49.4114 123.432 49.4164C123.42 49.4215 123.407 49.424 123.394 49.424L120.027 49.4274C120.012 49.4274 119.996 49.4238 119.982 49.4168C119.969 49.4099 119.957 49.3998 119.947 49.3874L111.019 37.6621C111.007 37.6453 110.989 37.6329 110.969 37.6267C110.949 37.6204 110.928 37.6206 110.908 37.6273C110.888 37.6339 110.87 37.6466 110.858 37.6636C110.846 37.6806 110.839 37.7011 110.839 37.722ZM130.631 49.3608L132.302 45.3314C132.311 45.3118 132.325 45.295 132.342 45.2832C132.36 45.2714 132.381 45.265 132.402 45.2648H140.211C140.233 45.2653 140.254 45.2722 140.272 45.2846C140.29 45.297 140.303 45.3145 140.311 45.3347L141.91 49.3541C141.918 49.3744 141.931 49.3918 141.949 49.4042C141.967 49.4167 141.988 49.4236 142.01 49.4241L146.129 49.4341C146.147 49.4339 146.165 49.4292 146.181 49.4205C146.197 49.4118 146.21 49.3994 146.22 49.3842C146.23 49.369 146.236 49.3517 146.237 49.3337C146.239 49.3156 146.236 49.2975 146.229 49.2809L138.293 30.6789C138.285 30.6588 138.27 30.6417 138.252 30.6298C138.233 30.6179 138.212 30.6118 138.19 30.6123H134.49C134.468 30.6118 134.447 30.6179 134.428 30.6298C134.41 30.6417 134.396 30.6588 134.387 30.6789L126.455 49.2742C126.448 49.2908 126.445 49.309 126.446 49.327C126.448 49.345 126.454 49.3624 126.464 49.3775C126.473 49.3927 126.487 49.4052 126.503 49.4139C126.519 49.4226 126.536 49.4272 126.555 49.4274H130.531C130.552 49.4272 130.573 49.4208 130.591 49.4089C130.608 49.3971 130.622 49.3804 130.631 49.3608ZM133.866 41.4959C133.864 41.4775 133.867 41.4589 133.874 41.4418L136.209 35.744C136.217 35.7241 136.232 35.7072 136.25 35.6954C136.269 35.6835 136.29 35.6773 136.312 35.6773C136.334 35.6773 136.355 35.6835 136.373 35.6954C136.392 35.7072 136.406 35.7241 136.415 35.744L138.729 41.4485C138.737 41.4658 138.739 41.4847 138.737 41.5034C138.736 41.522 138.729 41.54 138.718 41.5555C138.708 41.571 138.694 41.5837 138.677 41.5923C138.66 41.6009 138.642 41.6053 138.623 41.605L133.977 41.5983C133.959 41.5981 133.941 41.5933 133.924 41.5845C133.908 41.5756 133.894 41.5629 133.884 41.5474C133.874 41.532 133.868 41.5143 133.866 41.4959ZM161.63 41.898C161.642 41.9123 161.657 41.9227 161.675 41.9278C161.692 41.933 161.711 41.9326 161.729 41.9269C161.746 41.9211 161.761 41.9101 161.772 41.8954C161.783 41.8807 161.789 41.863 161.79 41.8447V30.7788C161.79 30.6678 161.846 30.6123 161.957 30.6123H165.786C165.83 30.6123 165.873 30.6298 165.904 30.661C165.935 30.6922 165.953 30.7346 165.953 30.7788V49.2609C165.953 49.3719 165.897 49.4274 165.786 49.4274H162.792C162.681 49.4274 162.583 49.393 162.496 49.3241C162.232 49.1088 161.997 48.8657 161.79 48.5949C159.057 44.9872 156.313 41.3763 153.558 37.762C153.54 37.737 153.515 37.7185 153.486 37.709C153.457 37.6995 153.425 37.6996 153.396 37.7093C153.367 37.719 153.342 37.7377 153.324 37.7628C153.307 37.7879 153.298 37.8179 153.298 37.8486V49.2609C153.298 49.3719 153.243 49.4274 153.132 49.4274H149.469C149.424 49.4274 149.382 49.4098 149.351 49.3786C149.32 49.3474 149.302 49.305 149.302 49.2609V30.7788C149.302 30.6678 149.358 30.6123 149.469 30.6123H152.875C152.986 30.6123 153.075 30.6567 153.142 30.7455L161.63 41.898ZM204.749 49.3641V45.8675L194.782 45.7876C194.655 45.7876 194.592 45.7243 194.592 45.5978V41.9346C194.592 41.8236 194.648 41.7681 194.759 41.7681H203.167C203.334 41.7681 203.417 41.6849 203.417 41.5184V38.3148C203.417 38.1749 203.348 38.105 203.21 38.105H194.759C194.648 38.105 194.592 38.0495 194.592 37.9385V34.5251C194.592 34.4589 194.618 34.3954 194.665 34.3485C194.712 34.3017 194.776 34.2754 194.842 34.2754H204.376C204.514 34.2754 204.582 34.2054 204.582 34.0656L204.579 30.7455C204.579 30.7101 204.565 30.6762 204.54 30.6513C204.515 30.6263 204.481 30.6123 204.446 30.6123H190.596C190.485 30.6123 190.429 30.6678 190.429 30.7788V49.2675C190.429 49.3046 190.444 49.3402 190.47 49.3664C190.497 49.3927 190.532 49.4074 190.569 49.4074L204.749 49.3641ZM51.8781 36.2341L48.1983 39.9011C48.1423 39.9569 48.1421 40.0476 48.1979 40.1036L51.9119 43.8306C51.9677 43.8866 52.0584 43.8868 52.1144 43.8309L55.7942 40.164C55.8502 40.1081 55.8504 40.0175 55.7946 39.9615L52.0806 36.2345C52.0248 36.1785 51.9341 36.1783 51.8781 36.2341ZM38.8417 36.3296L42.4696 39.9449C42.5269 40.002 42.5271 40.0948 42.47 40.1521L38.8782 43.7564C38.8211 43.8138 38.7283 43.8139 38.671 43.7568L35.0431 40.1415C34.9858 40.0844 34.9856 39.9916 35.0427 39.9343L38.6345 36.33C38.6916 36.2727 38.7844 36.2725 38.8417 36.3296ZM65.1435 36.2957L61.5077 39.8936C61.4554 39.9454 61.455 40.0297 61.5067 40.082L65.1093 43.7225C65.1611 43.7748 65.2454 43.7753 65.2977 43.7235L68.9335 40.1256C68.9858 40.0739 68.9862 39.9895 68.9345 39.9372L65.3319 36.2967C65.2801 36.2444 65.1958 36.244 65.1435 36.2957ZM62.3098 46.4938L58.7599 42.8906C58.7456 42.8759 58.7285 42.8642 58.7096 42.8562C58.6908 42.8482 58.6705 42.8441 58.65 42.8441C58.6295 42.8441 58.6092 42.8482 58.5903 42.8562C58.5715 42.8642 58.5544 42.8759 58.5401 42.8906L52.0797 49.3543C52.0654 49.369 52.0483 49.3807 52.0294 49.3887C52.0106 49.3967 51.9903 49.4008 51.9698 49.4008C51.9493 49.4008 51.929 49.3967 51.9101 49.3887C51.8913 49.3807 51.8742 49.369 51.8599 49.3543L45.4428 42.9039C45.4141 42.8752 45.3751 42.8591 45.3345 42.8591C45.294 42.8591 45.255 42.8752 45.2263 42.9039L41.5765 46.4804C41.5618 46.4947 41.5501 46.5118 41.5421 46.5307C41.5342 46.5495 41.53 46.5698 41.53 46.5903C41.53 46.6108 41.5342 46.6311 41.5421 46.65C41.5501 46.6689 41.5618 46.6859 41.5765 46.7002L51.8599 56.957C51.8891 56.9852 51.9282 57.0007 51.9688 57.0001C52.0094 56.9995 52.0481 56.9827 52.0764 56.9536L62.3098 46.7102C62.3385 46.6815 62.3546 46.6426 62.3546 46.602C62.3546 46.5614 62.3385 46.5225 62.3098 46.4938Z" fill="#9D9DA6"/>
<rect x="0.5" y="0.5" width="239" height="79" stroke="#2E2E33"/>
</svg>
