<svg width="240" height="80" viewBox="0 0 240 80" fill="none" xmlns="http://www.w3.org/2000/svg">
<rect x="0.5" y="0.5" width="239" height="79" fill="#17171A"/>
<g clip-path="url(#clip0_33149_130506)">
<path fill-rule="evenodd" clip-rule="evenodd" d="M96.1284 40.1474L81.058 25.0068V36.101L66.0928 47.2022L81.058 47.2092V55.2949L96.1284 40.1474Z" fill="#9D9DA6"/>
<path fill-rule="evenodd" clip-rule="evenodd" d="M43 40.1475L58.0704 55.2951V44.3131L72.9304 33.2049L58.0774 33.1979V25L43 40.1475Z" fill="#9D9DA6"/>
<path d="M119.334 49.068H107.77V45.7299L114.39 38.3035H107.938V35.0215H119.214V38.1912L112.398 45.758H119.334V49.068Z" fill="#9D9DA6"/>
<path d="M135.112 35.0214L129.516 40.9331L135.224 49.0679H130.596L126.9 43.7032L125.337 45.3582V49.0679H121.557V28.4014H125.337V40.2529L130.168 35.0284H135.112V35.0214Z" fill="#9D9DA6"/>
<path d="M151.551 33.6536L148.03 34.7405C147.897 34.0182 147.539 33.359 146.95 32.77C146.361 32.1809 145.499 31.8863 144.362 31.8863C143.437 31.8863 142.679 32.1458 142.09 32.6578C141.501 33.1557 141.207 33.7517 141.207 34.453C141.207 35.6873 141.936 36.4516 143.395 36.7392L146.207 37.2792C147.988 37.6228 149.37 38.3381 150.358 39.418C151.347 40.505 151.838 41.7813 151.838 43.247C151.838 44.923 151.179 46.3887 149.846 47.644C148.542 48.8782 146.775 49.5024 144.559 49.5024C143.29 49.5024 142.146 49.313 141.123 48.9343C140.099 48.5556 139.278 48.0507 138.654 47.4196C138.03 46.7744 137.539 46.0942 137.174 45.3929C136.831 44.6706 136.627 43.9272 136.55 43.1628L140.19 42.1951C140.281 43.2821 140.702 44.1867 141.438 44.909C142.196 45.6313 143.247 45.996 144.594 45.996C145.618 45.996 146.41 45.7646 146.978 45.3087C147.567 44.8529 147.862 44.2498 147.862 43.5135C147.862 42.9244 147.644 42.4195 147.21 41.9987C146.796 41.5639 146.193 41.2694 145.421 41.1151L142.609 40.5471C140.982 40.2035 139.692 39.5302 138.745 38.5204C137.799 37.5106 137.329 36.2553 137.329 34.7546C137.329 32.9663 138.009 31.4586 139.376 30.2454C140.758 29.0251 142.413 28.415 144.348 28.415C145.506 28.415 146.536 28.5763 147.448 28.8989C148.36 29.2215 149.089 29.6633 149.636 30.2103C150.183 30.7433 150.611 31.2973 150.912 31.8653C151.2 32.4263 151.417 33.0224 151.551 33.6536Z" fill="#9D9DA6"/>
<path d="M158.198 54.6081H154.194L157.49 47.3008L151.55 35.0215H155.786L159.51 43.2404L162.946 35.0215H166.978L158.198 54.6081Z" fill="#9D9DA6"/>
<path d="M172.196 40.9894V49.0681H168.416V35.0216H172.084V36.7607C172.483 36.0735 173.051 35.5545 173.788 35.1899C174.524 34.8252 175.303 34.6499 176.116 34.6499C177.764 34.6499 179.012 35.1759 179.868 36.2208C180.737 37.2516 181.172 38.5841 181.172 40.218V49.0681H177.392V40.8772C177.392 40.0427 177.175 39.3625 176.74 38.8505C176.326 38.3386 175.681 38.0791 174.805 38.0791C174.012 38.0791 173.374 38.3526 172.904 38.9066C172.434 39.4606 172.196 40.1549 172.196 40.9894Z" fill="#9D9DA6"/>
<path d="M190.436 38.1065C189.433 38.1065 188.592 38.4571 187.904 39.1654C187.224 39.8667 186.88 40.8274 186.88 42.0476C186.88 43.2679 187.224 44.2356 187.904 44.9579C188.606 45.6592 189.454 46.0169 190.464 46.0169C191.355 46.0169 192.063 45.7854 192.596 45.3296C193.129 44.8527 193.486 44.2917 193.676 43.6465L197 44.7616C196.656 46.0589 195.92 47.1669 194.784 48.0996C193.648 49.0323 192.21 49.4952 190.464 49.4952C188.381 49.4952 186.628 48.7939 185.204 47.3843C183.802 45.9537 183.101 44.1795 183.101 42.0476C183.101 39.8947 183.795 38.1205 185.176 36.7109C186.579 35.3014 188.304 34.6001 190.345 34.6001C192.126 34.6001 193.585 35.0629 194.721 35.9956C195.857 36.9073 196.586 38.0223 196.909 39.3337L193.529 40.4768C193.08 38.8919 192.049 38.1065 190.436 38.1065Z" fill="#9D9DA6"/>
</g>
<rect x="0.5" y="0.5" width="239" height="79" stroke="#2E2E33"/>
<defs>
<clipPath id="clip0_33149_130506">
<rect width="154" height="30.3652" fill="white" transform="translate(43 25)"/>
</clipPath>
</defs>
</svg>
