<svg width="240" height="120" viewBox="0 0 240 120" fill="none" xmlns="http://www.w3.org/2000/svg">
<rect x="0.5" y="0.5" width="239" height="119" fill="#17171A"/>
<path d="M93.406 51.6592H96.7303V65.9257H104.902V69.1116H93.406V51.6592Z" fill="#9D9DA6"/>
<path d="M119.434 51.6592H122.758V69.1116H119.434V51.6592Z" fill="#9D9DA6"/>
<path d="M138.671 51.6592H144.212C145.357 51.6592 146.446 51.8993 147.48 52.3794C148.515 52.8411 149.429 53.469 150.223 54.2632C151.017 55.0573 151.645 55.9807 152.107 57.0334C152.568 58.0861 152.799 59.2033 152.799 60.3853C152.799 61.5674 152.568 62.6847 152.107 63.7373C151.645 64.7899 151.017 65.7134 150.223 66.5073C149.429 67.3017 148.515 67.9388 147.48 68.419C146.446 68.8807 145.357 69.1116 144.212 69.1116H138.671V51.6592ZM144.212 65.9257C144.895 65.9257 145.55 65.7781 146.178 65.4825C146.825 65.1869 147.388 64.7899 147.868 64.2912C148.367 63.7928 148.755 63.2108 149.032 62.546C149.327 61.8626 149.475 61.1425 149.475 60.3853C149.475 59.6281 149.327 58.9171 149.032 58.2522C148.755 57.5689 148.367 56.978 147.868 56.4793C147.388 55.9807 146.825 55.5836 146.178 55.2881C145.55 54.9926 144.895 54.8449 144.212 54.8449H141.995V65.9257H144.212Z" fill="#9D9DA6"/>
<path d="M175.236 69.2498C174.091 69.2498 173.001 69.0282 171.967 68.585C170.951 68.1232 170.055 67.4954 169.28 66.7014C168.523 65.8886 167.913 64.9466 167.451 63.8755C167.008 62.8044 166.787 61.6409 166.787 60.3852C166.787 59.1478 167.008 57.9936 167.451 56.9224C167.913 55.8328 168.523 54.8909 169.28 54.0968C170.055 53.2842 170.951 52.6563 171.967 52.2131C173.001 51.7514 174.091 51.5205 175.236 51.5205C176.381 51.5205 177.461 51.7514 178.477 52.2131C179.511 52.6563 180.407 53.2842 181.164 54.0968C181.94 54.8909 182.549 55.8328 182.992 56.9224C183.454 57.9936 183.685 59.1478 183.685 60.3852C183.685 61.6409 183.454 62.8044 182.992 63.8755C182.549 64.9466 181.94 65.8886 181.164 66.7014C180.407 67.4954 179.511 68.1232 178.477 68.585C177.461 69.0282 176.381 69.2498 175.236 69.2498ZM175.236 66.0639C175.919 66.0639 176.575 65.9256 177.203 65.6485C177.83 65.3717 178.375 64.9836 178.837 64.4849C179.299 63.968 179.668 63.3679 179.945 62.6846C180.222 61.9827 180.361 61.2162 180.361 60.3852C180.361 59.5541 180.222 58.7969 179.945 58.1136C179.668 57.4118 179.299 56.8116 178.837 56.313C178.375 55.7959 177.83 55.3988 177.203 55.1218C176.575 54.8448 175.919 54.7062 175.236 54.7062C174.534 54.7062 173.869 54.8448 173.241 55.1218C172.632 55.3988 172.096 55.7959 171.634 56.313C171.173 56.8116 170.803 57.4118 170.526 58.1136C170.249 58.7969 170.111 59.5541 170.111 60.3852C170.111 61.2162 170.249 61.9827 170.526 62.6846C170.803 63.3679 171.173 63.968 171.634 64.4849C172.096 64.9836 172.632 65.3717 173.241 65.6485C173.869 65.9256 174.534 66.0639 175.236 66.0639Z" fill="#9D9DA6"/>
<path fill-rule="evenodd" clip-rule="evenodd" d="M67.2075 44.583L74.8383 56.5275L67.2071 60.9747L59.5769 56.5274L67.2075 44.583ZM61.9128 55.9625L67.2075 47.6746L72.5022 55.9626L67.2071 59.0484L61.9128 55.9625Z" fill="#9D9DA6"/>
<path d="M67.1961 63.6003L58.3443 58.441L58.1026 58.8194C55.3763 63.0869 55.9851 68.6759 59.5665 72.2568C63.7809 76.4702 70.6137 76.4702 74.8282 72.2568C78.4095 68.6759 79.0181 63.0869 76.292 58.8194L76.05 58.4409L67.1965 63.6007L67.1961 63.6003Z" fill="#9D9DA6"/>
<rect x="0.5" y="0.5" width="239" height="119" stroke="#2E2E33"/>
</svg>
