<svg width="240" height="80" viewBox="0 0 240 80" fill="none" xmlns="http://www.w3.org/2000/svg">
<rect x="0.5" y="0.5" width="239" height="79" fill="#17171A"/>
<path d="M90.752 50.0398C88.9375 50.0398 87.244 49.6366 85.7118 48.8301C84.2199 48.0237 83.0102 46.8947 82.0828 45.4028C81.1957 43.9109 80.7522 42.2577 80.7522 40.4432C80.7522 38.6287 81.1957 36.9755 82.0828 35.5239C82.9699 34.0723 84.1796 32.9433 85.7118 32.0966C87.244 31.2901 88.8972 30.8869 90.752 30.8869C92.5665 30.8869 94.26 31.2901 95.7519 32.0966C97.2842 32.903 98.4938 34.032 99.3406 35.5239C100.228 36.9755 100.671 38.6287 100.671 40.4432C100.671 42.2577 100.228 43.9109 99.3406 45.4028C98.4535 46.8544 97.2438 47.9834 95.7519 48.8301C94.26 49.6366 92.5665 50.0398 90.752 50.0398ZM90.752 45.8866C92.2842 45.8866 93.5342 45.4028 94.4616 44.3947C95.389 43.3867 95.8729 42.0964 95.8729 40.4432C95.8729 38.79 95.389 37.4594 94.4616 36.4916C93.5342 35.4836 92.3246 34.9997 90.752 34.9997C89.1795 34.9997 87.9295 35.4836 87.0021 36.4513C86.0747 37.4191 85.6311 38.7497 85.6311 40.4029C85.6311 42.0561 86.0747 43.3867 87.0021 44.3544C87.9295 45.4028 89.1795 45.8866 90.752 45.8866ZM108.01 37.0965C108.453 36.411 109.098 35.8465 109.905 35.403C110.711 34.9594 111.679 34.7578 112.768 34.7578C114.018 34.7578 115.187 35.0804 116.235 35.6852C117.284 36.29 118.09 37.1771 118.655 38.3465C119.26 39.5158 119.582 40.8464 119.582 42.3786C119.582 43.9109 119.26 45.2415 118.655 46.4108C118.05 47.5802 117.243 48.4672 116.235 49.1124C115.187 49.7172 114.058 50.0398 112.768 50.0398C111.719 50.0398 110.752 49.8382 109.905 49.3946C109.098 48.9511 108.453 48.4269 108.01 47.7415V54.2736H103.292V34.9997H108.01V37.0965ZM114.744 42.3786C114.744 41.2496 114.421 40.3625 113.735 39.7174C113.09 39.0722 112.284 38.7497 111.316 38.7497C110.389 38.7497 109.582 39.0722 108.897 39.7174C108.252 40.3625 107.929 41.29 107.929 42.419C107.929 43.548 108.252 44.4351 108.897 45.1205C109.542 45.7657 110.348 46.0883 111.316 46.0883C112.244 46.0883 113.05 45.7657 113.735 45.1205C114.421 44.4351 114.744 43.548 114.744 42.3786ZM136.558 42.177C136.558 42.6206 136.517 43.0641 136.477 43.5077H125.792C125.872 44.4351 126.155 45.1609 126.719 45.6447C127.284 46.1286 127.929 46.3705 128.735 46.3705C129.905 46.3705 130.751 45.8866 131.195 44.9189H136.235C135.993 45.8866 135.509 46.7737 134.824 47.5398C134.179 48.306 133.332 48.9511 132.324 49.3946C131.316 49.8382 130.187 50.0801 128.937 50.0801C127.445 50.0801 126.074 49.7575 124.905 49.1527C123.735 48.5479 122.808 47.6608 122.163 46.4915C121.518 45.3221 121.155 43.9915 121.155 42.4593C121.155 40.9271 121.477 39.5561 122.122 38.4271C122.768 37.2578 123.695 36.3707 124.864 35.7659C126.034 35.161 127.405 34.8385 128.937 34.8385C130.429 34.8385 131.759 35.1207 132.929 35.7255C134.098 36.3304 134.985 37.1771 135.63 38.3061C136.235 39.3948 136.558 40.6851 136.558 42.177ZM131.719 40.9674C131.719 40.2013 131.437 39.5561 130.872 39.1126C130.308 38.669 129.622 38.4271 128.816 38.4271C128.009 38.4271 127.364 38.669 126.8 39.1126C126.276 39.5561 125.953 40.2013 125.792 41.0077H131.719V40.9674ZM148.453 34.8385C150.267 34.8385 151.678 35.403 152.767 36.532C153.856 37.661 154.38 39.1932 154.38 41.169V49.8382H149.703V41.7738C149.703 40.7658 149.42 39.9997 148.896 39.4755C148.372 38.911 147.646 38.669 146.759 38.669C145.872 38.669 145.146 38.9513 144.622 39.4755C144.098 40.04 143.816 40.8061 143.816 41.7738V49.8382H139.098V34.9997H143.816V36.9755C144.299 36.3304 144.945 35.8062 145.751 35.4433C146.517 35.0401 147.445 34.8385 148.453 34.8385ZM164.662 50.0398C163.251 50.0398 161.96 49.7979 160.831 49.3543C159.702 48.9108 158.815 48.2656 158.13 47.3786C157.485 46.4915 157.122 45.4431 157.082 44.2334H162.122C162.202 44.9189 162.444 45.4431 162.888 45.8463C163.291 46.2092 163.856 46.3705 164.541 46.3705C165.227 46.3705 165.791 46.2092 166.194 45.927C166.597 45.6044 166.799 45.1609 166.799 44.6367C166.799 44.1931 166.638 43.7899 166.315 43.5077C165.993 43.2254 165.589 42.9431 165.146 42.7819C164.702 42.5803 164.017 42.3786 163.17 42.0964C161.92 41.7335 160.912 41.3706 160.106 40.9674C159.299 40.6045 158.614 40.04 158.049 39.3142C157.485 38.5884 157.202 37.6207 157.202 36.4513C157.202 34.7175 157.848 33.3465 159.178 32.3788C160.469 31.3708 162.202 30.8869 164.299 30.8869C166.436 30.8869 168.17 31.3708 169.46 32.3788C170.751 33.3465 171.476 34.7175 171.557 36.4916H166.436C166.396 35.8868 166.154 35.403 165.751 35.0804C165.307 34.7175 164.783 34.5562 164.138 34.5562C163.573 34.5562 163.089 34.7175 162.767 34.9997C162.404 35.282 162.243 35.6852 162.243 36.2497C162.243 36.8545 162.525 37.3384 163.13 37.661C163.735 37.9836 164.622 38.3465 165.872 38.7497C167.122 39.1529 168.13 39.5561 168.896 39.919C169.702 40.2819 170.388 40.8464 170.952 41.5319C171.517 42.2577 171.799 43.1448 171.799 44.2738C171.799 45.3221 171.517 46.2899 170.952 47.1769C170.388 48.064 169.581 48.7495 168.533 49.2737C167.404 49.7979 166.154 50.0398 164.662 50.0398ZM189.178 42.177C189.178 42.6206 189.137 43.0641 189.097 43.5077H178.412C178.492 44.4351 178.775 45.1609 179.339 45.6447C179.904 46.1286 180.549 46.3705 181.355 46.3705C182.525 46.3705 183.371 45.8866 183.815 44.9189H188.855C188.613 45.8866 188.129 46.7737 187.444 47.5398C186.799 48.306 185.952 48.9511 184.944 49.3946C183.936 49.8382 182.807 50.0801 181.557 50.0801C180.065 50.0801 178.694 49.7575 177.525 49.1527C176.355 48.5479 175.428 47.6608 174.783 46.4915C174.138 45.3221 173.775 43.9915 173.775 42.4593C173.775 40.9271 174.097 39.5561 174.742 38.4271C175.388 37.2578 176.315 36.3707 177.484 35.7659C178.654 35.161 180.025 34.8385 181.557 34.8385C183.049 34.8385 184.379 35.1207 185.549 35.7255C186.718 36.3304 187.605 37.1771 188.25 38.3061C188.855 39.3948 189.178 40.6851 189.178 42.177ZM184.339 40.9674C184.339 40.2013 184.057 39.5561 183.492 39.1126C182.928 38.669 182.242 38.4271 181.436 38.4271C180.629 38.4271 179.984 38.669 179.42 39.1126C178.896 39.5561 178.573 40.2013 178.412 41.0077H184.339V40.9674ZM190.75 42.3786C190.75 40.8464 191.033 39.5158 191.637 38.3465C192.242 37.1771 193.049 36.29 194.097 35.6852C195.145 35.0804 196.274 34.7578 197.565 34.7578C198.653 34.7578 199.581 34.9594 200.428 35.403C201.274 35.8465 201.879 36.3707 202.323 37.0965V34.9997H207V49.8382H202.282V47.7415C201.839 48.4269 201.194 48.9914 200.347 49.435C199.54 49.8785 198.573 50.0801 197.484 50.0801C196.234 50.0801 195.105 49.7575 194.057 49.1527C193.008 48.5076 192.202 47.6205 191.597 46.4512C191.033 45.2818 190.75 43.9109 190.75 42.3786ZM202.282 42.419C202.282 41.29 201.96 40.4029 201.274 39.7174C200.629 39.0722 199.823 38.7497 198.895 38.7497C197.968 38.7497 197.161 39.0722 196.476 39.7174C195.831 40.3625 195.508 41.2496 195.508 42.3786C195.508 43.5077 195.831 44.4351 196.476 45.0802C197.121 45.7254 197.928 46.0479 198.895 46.0479C199.823 46.0479 200.629 45.7254 201.274 45.0802C201.96 44.4351 202.282 43.548 202.282 42.419ZM52.164 20C48.1721 20 44.2609 21.1693 40.9545 23.387C37.6481 25.6047 35.0675 28.7498 33.5353 32.4595C32.003 36.1288 31.5998 40.2013 32.4063 44.1125C33.1724 48.0237 35.1078 51.6124 37.9304 54.4349C40.7529 57.2574 44.3415 59.1929 48.2528 59.959C52.164 60.7251 56.2365 60.3219 59.9058 58.83C63.5751 57.3381 66.7202 54.6768 68.9379 51.3704C71.1556 48.064 72.3249 44.1528 72.3249 40.1609C72.3249 34.7981 70.1879 29.6773 66.4379 25.887C62.6477 22.1371 57.5268 20 52.164 20ZM41.9625 40.8464L42.0432 40.7254L47.285 32.4998C47.285 32.4595 47.3254 32.4595 47.3657 32.4191C47.406 32.4191 47.4463 32.3788 47.4463 32.4191C47.4866 32.4191 47.527 32.4191 47.527 32.4595C47.5673 32.4595 47.5673 32.4998 47.6076 32.5401C48.4947 34.5159 49.2608 36.9352 48.8979 38.4674C48.656 39.2739 48.2931 39.9997 47.8495 40.7254C47.8092 40.8464 47.7286 40.9674 47.6479 41.048C47.6479 41.0883 47.6076 41.0883 47.5673 41.0883C47.527 41.0883 47.527 41.1287 47.4866 41.1287H42.0432C42.0029 41.1287 42.0029 41.0883 41.9625 41.048C41.9625 41.0077 41.9222 41.0077 41.9222 40.9674C41.9222 40.8867 41.9222 40.8464 41.9625 40.8464ZM65.3089 43.6689C65.3089 43.7093 65.3089 43.7496 65.2686 43.7899C65.2686 43.8302 65.2283 43.8302 65.1879 43.8706C64.7847 44.0318 63.4138 44.677 62.809 45.4834C61.317 47.5398 60.188 50.4833 57.6881 50.4833H47.2044C46.3173 50.4833 45.4302 50.3221 44.6238 49.9592C43.8173 49.6366 43.0512 49.1124 42.4464 48.5076C41.8013 47.8624 41.3174 47.1366 40.9948 46.3302C40.6722 45.5238 40.4706 44.6367 40.4706 43.7496V43.6286C40.4706 43.5883 40.4706 43.548 40.511 43.5077C40.5513 43.4673 40.5916 43.4673 40.6319 43.4673H46.5996C46.6399 43.4673 46.6399 43.5077 46.6802 43.5077C46.6802 43.548 46.7205 43.548 46.7205 43.5883V43.6689C46.6802 44.0722 46.7608 44.4351 46.9221 44.798C47.0834 45.1609 47.3657 45.4431 47.6882 45.6447C48.0108 45.8463 48.3737 45.9673 48.7769 45.9673H51.6801V43.7093H48.8173C48.7769 43.7093 48.7366 43.7093 48.7366 43.6689C48.6963 43.6689 48.6963 43.6286 48.656 43.5883C48.656 43.548 48.6157 43.5077 48.6157 43.5077C48.6157 43.4673 48.6157 43.427 48.656 43.427C48.6963 43.3867 48.7366 43.3464 48.7769 43.2657C49.0592 42.8625 49.4221 42.298 49.8253 41.6125C50.1076 41.1287 50.3495 40.6448 50.5511 40.1609C50.5914 40.0803 50.6317 39.9593 50.6721 39.8787C50.7124 39.798 50.793 39.5964 50.8334 39.4351C50.8737 39.2739 50.914 39.1932 50.9543 39.0722C51.035 38.6287 51.1156 38.1852 51.0753 37.7416C51.0753 37.54 51.0753 37.3787 51.035 37.1771C50.9946 37.0158 50.9946 36.7739 50.9946 36.5723C50.9543 36.3707 50.9543 36.2094 50.914 36.0481C50.8737 35.7659 50.8334 35.5239 50.7527 35.2417L50.7124 35.161C50.6721 34.9997 50.6317 34.7981 50.5511 34.6368C50.3898 34.0723 50.1882 33.5482 49.9866 33.024L49.7447 32.4191C49.6237 32.1369 49.5027 31.8546 49.3818 31.6127C49.3414 31.4917 49.2608 31.4111 49.2205 31.2901C49.1802 31.1692 49.0995 31.0482 49.0592 30.9272C49.0189 30.8063 48.9785 30.7659 48.9382 30.6853L48.6157 30.0401V29.9595C48.6157 29.9192 48.6157 29.9192 48.656 29.9192L48.6963 29.8789H48.7769L51.035 30.4837L51.3172 30.5643L51.6398 30.645L51.7608 30.6853V29.3547C51.7608 29.1127 51.8414 28.9111 51.9624 28.7095C52.0833 28.5079 52.2446 28.387 52.4866 28.266C52.6882 28.1853 52.9301 28.145 53.1317 28.1853C53.3736 28.2257 53.5752 28.3466 53.7365 28.5079C53.9381 28.7095 54.0591 29.0321 54.0591 29.3144V31.2498L54.301 31.3304L54.3414 31.3708L54.5833 31.5724C54.6639 31.653 54.7446 31.7337 54.8655 31.8143C55.0672 31.9756 55.3091 32.2175 55.6317 32.4595C55.7123 32.5401 55.7929 32.5804 55.8333 32.6611C56.1962 32.9836 56.5994 33.3869 56.9623 33.8304C57.0832 33.9514 57.1639 34.0723 57.2849 34.1933C57.4058 34.3143 57.5268 34.4756 57.6074 34.5965C57.6881 34.7175 57.8897 34.9594 58.0106 35.1207L58.1719 35.403C58.3332 35.6449 58.4542 35.8868 58.6155 36.1288C58.6558 36.2497 58.7364 36.3707 58.7768 36.4916C58.9381 36.8142 59.0187 37.1368 59.0993 37.4997C59.1397 37.5803 59.1397 37.661 59.1397 37.7013C59.18 37.8223 59.18 37.9029 59.18 38.0239C59.2203 38.3868 59.18 38.7094 59.1397 39.0722C59.0993 39.2335 59.059 39.3545 59.0187 39.5158C58.9784 39.6771 58.9381 39.798 58.8574 39.9593C58.7364 40.2416 58.5752 40.5238 58.4139 40.8061C58.3735 40.8867 58.2929 41.0077 58.2123 41.1287C58.1316 41.2093 58.051 41.3303 58.0106 41.4512C57.93 41.5319 57.809 41.6932 57.7284 41.8141C57.6478 41.9351 57.5671 42.0561 57.4461 42.177C57.3252 42.3383 57.1639 42.4996 57.0429 42.6206C56.922 42.7415 56.8816 42.8222 56.801 42.9028L56.5187 43.1851C56.4381 43.2657 56.2768 43.427 56.1558 43.5077L55.9139 43.7093C55.8736 43.7496 55.8333 43.7496 55.7929 43.7496H54.0188V46.0076H56.1962C56.68 46.0076 57.1639 45.8463 57.5268 45.5237C58.0107 45.1205 58.4542 44.6367 58.8977 44.1931C58.9381 44.1528 58.9381 44.1528 58.9784 44.1528L65.1073 42.3786H65.1879C65.2283 42.3786 65.2283 42.3786 65.2686 42.419C65.3089 42.419 65.3089 42.4593 65.3089 42.4996V43.6689Z" fill="#9D9DA6"/>
<rect x="0.5" y="0.5" width="239" height="79" stroke="#2E2E33"/>
</svg>
