<svg width="240" height="120" viewBox="0 0 240 120" fill="none" xmlns="http://www.w3.org/2000/svg">
<rect x="0.5" y="0.5" width="239" height="119" fill="#17171A"/>
<g clip-path="url(#clip0_33124_128196)">
<mask id="mask0_33124_128196" style="mask-type:luminance" maskUnits="userSpaceOnUse" x="33" y="47" width="173" height="27">
<path d="M33.8545 47.709H206V73.291H33.8545V47.709Z" fill="white"/>
</mask>
<g mask="url(#mask0_33124_128196)">
<path d="M62.7756 67.8789L58.0536 72.942C57.9515 73.052 57.8278 73.1398 57.6903 73.1998C57.5527 73.2599 57.4043 73.291 57.2542 73.2911H34.8699C34.7632 73.291 34.6587 73.2598 34.5694 73.2013C34.4801 73.1428 34.4098 73.0596 34.3671 72.9617C34.3244 72.8639 34.3112 72.7557 34.329 72.6504C34.3468 72.5452 34.395 72.4474 34.4675 72.3691L39.1842 67.306C39.2864 67.196 39.41 67.1082 39.5476 67.0482C39.6851 66.9881 39.8336 66.957 39.9837 66.9569H62.3679C62.4756 66.9547 62.5816 66.9844 62.6726 67.0422C62.7635 67.1001 62.8352 67.1836 62.8788 67.2821C62.9224 67.3807 62.9358 67.4899 62.9175 67.5961C62.8991 67.7023 62.8498 67.8007 62.7756 67.8789ZM58.0536 57.6807C57.9511 57.5713 57.8273 57.4839 57.6899 57.4238C57.5524 57.3638 57.4042 57.3324 57.2542 57.3317H34.8699C34.7632 57.3317 34.6587 57.3629 34.5694 57.4214C34.4801 57.4799 34.4098 57.5632 34.3671 57.661C34.3244 57.7589 34.3112 57.8671 34.329 57.9723C34.3468 58.0776 34.395 58.1754 34.4675 58.2537L39.1842 63.3194C39.2867 63.4289 39.4105 63.5163 39.548 63.5764C39.6854 63.6364 39.8337 63.6677 39.9837 63.6685H62.3679C62.4744 63.668 62.5785 63.6364 62.6674 63.5777C62.7563 63.519 62.8262 63.4357 62.8686 63.3379C62.911 63.2402 62.924 63.1322 62.9061 63.0272C62.8881 62.9222 62.84 62.8247 62.7676 62.7465L58.0536 57.6807ZM34.8699 54.0433H57.2542C57.4043 54.0432 57.5527 54.0121 57.6903 53.9521C57.8278 53.892 57.9515 53.8042 58.0536 53.6942L62.7756 48.6311C62.831 48.5726 62.8727 48.5026 62.8979 48.4261C62.923 48.3495 62.9309 48.2684 62.9211 48.1885C62.9112 48.1085 62.8838 48.0317 62.8409 47.9636C62.7979 47.8955 62.7404 47.8377 62.6725 47.7944C62.5816 47.7365 62.4756 47.7069 62.3679 47.7091H39.9837C39.8336 47.7093 39.6851 47.7403 39.5476 47.8004C39.41 47.8605 39.2864 47.9482 39.1842 48.0582L34.4675 53.1213C34.395 53.1996 34.3468 53.2974 34.329 53.4026C34.3112 53.5079 34.3244 53.6161 34.3671 53.7139C34.4098 53.8118 34.4801 53.8951 34.5694 53.9536C34.6587 54.0121 34.7632 54.0433 34.8699 54.0433Z" fill="#9D9DA6"/>
<path d="M90.065 58.5277H78.0895V54.5838H93.1775V50.64H78.0495C77.5326 50.6371 77.0202 50.7361 76.5416 50.9312C76.063 51.1264 75.6275 51.414 75.26 51.7775C74.8925 52.141 74.6002 52.5734 74.3999 53.0499C74.1995 53.5263 74.095 54.0376 74.0923 54.5545V58.5517C74.0943 59.0691 74.1983 59.5809 74.3984 60.058C74.5984 60.5351 74.8906 60.9681 75.2581 61.3322C75.6257 61.6963 76.0614 61.9843 76.5404 62.1798C77.0193 62.3753 77.5322 62.4745 78.0495 62.4716H90.0411V66.4155H74.3774V70.3594H90.065C90.8435 70.3638 91.6058 70.1371 92.2554 69.7081C92.905 69.2791 93.4128 68.667 93.7145 67.9494C93.9149 67.473 94.0195 66.9617 94.0223 66.4448V62.4476C94.0202 61.9303 93.9162 61.4185 93.7161 60.9414C93.5161 60.4643 93.2239 60.0313 92.8564 59.6672C92.4888 59.3032 92.0531 59.0151 91.5741 58.8196C91.0952 58.6241 90.5824 58.5249 90.065 58.5277ZM113.265 50.64H101.244C100.464 50.6337 99.7 50.8593 99.0486 51.2879C98.3971 51.7165 97.8877 52.329 97.5848 53.0476C97.3836 53.5247 97.2787 54.0368 97.276 54.5545V66.4448C97.2786 66.9626 97.3836 67.4748 97.5848 67.952C97.8876 68.6706 98.3971 69.2831 99.0485 69.7117C99.7 70.1403 100.464 70.3657 101.244 70.3594H113.265C113.782 70.3623 114.294 70.2633 114.773 70.0681C115.251 69.8729 115.687 69.5854 116.054 69.2219C116.422 68.8583 116.714 68.426 116.914 67.9495C117.115 67.473 117.219 66.9617 117.222 66.4448V54.5545C117.219 54.0377 117.115 53.5264 116.914 53.0499C116.714 52.5735 116.422 52.1412 116.054 51.7778C115.687 51.4142 115.251 51.1265 114.773 50.9313C114.294 50.736 113.782 50.637 113.265 50.64ZM113.235 66.4155H101.273V54.5838H113.23L113.235 66.4155ZM155.368 50.64H143.643C143.126 50.6371 142.614 50.7361 142.135 50.9312C141.657 51.1264 141.221 51.414 140.854 51.7775C140.486 52.141 140.194 52.5734 139.994 53.0499C139.793 53.5263 139.689 54.0376 139.686 54.5545V70.3594H143.683V63.8813H155.355V70.3594H159.352V54.5545C159.35 54.0354 159.244 53.5218 159.042 53.0436C158.84 52.5653 158.546 52.1317 158.175 51.7678C157.805 51.404 157.366 51.117 156.885 50.9234C156.403 50.7298 155.888 50.6335 155.368 50.64ZM155.339 59.9374H143.667V54.5838H155.339V59.9374ZM202.042 50.64H190.317C189.8 50.6371 189.288 50.7361 188.809 50.9312C188.331 51.1264 187.895 51.414 187.528 51.7775C187.16 52.141 186.868 52.5734 186.668 53.0499C186.467 53.5263 186.363 54.0376 186.36 54.5545V70.3594H190.357V63.8813H202.002V70.3594H205.999V54.5545C205.997 54.0377 205.892 53.5264 205.692 53.0499C205.491 52.5735 205.199 52.1412 204.831 51.7778C204.089 51.0437 203.086 50.6344 202.042 50.64ZM202.002 59.9374H190.33V54.5838H202.002V59.9374ZM178.819 66.4155H177.22L171.504 52.2921C171.308 51.8048 170.971 51.3871 170.536 51.0928C170.101 50.7984 169.588 50.6407 169.063 50.64H165.516C164.997 50.6372 164.488 50.7885 164.055 51.0748C163.622 51.361 163.284 51.7694 163.083 52.2482C162.949 52.5659 162.88 52.9068 162.878 53.2514V70.3594H166.875V54.5838H168.474L174.187 68.7072C174.386 69.1937 174.726 69.6097 175.163 69.9021C175.599 70.1945 176.113 70.35 176.639 70.3487H180.186C180.53 70.3506 180.872 70.2845 181.191 70.1542C181.51 70.0239 181.801 69.8319 182.046 69.5893C182.54 69.0995 182.82 68.4333 182.824 67.7373V50.64H178.819V66.4155ZM124.75 50.64H120.753V66.4448C120.755 66.9628 120.86 67.4752 121.062 67.9525C121.263 68.4298 121.556 68.8627 121.925 69.2263C122.294 69.59 122.731 69.8773 123.211 70.0717C123.692 70.2661 124.205 70.3639 124.723 70.3594H136.715V66.4155H124.75V50.64Z" fill="#9D9DA6"/>
</g>
</g>
<rect x="0.5" y="0.5" width="239" height="119" stroke="#2E2E33"/>
<defs>
<clipPath id="clip0_33124_128196">
<rect width="172.146" height="25.582" fill="white" transform="translate(33.8545 47.709)"/>
</clipPath>
</defs>
</svg>
