<svg width="240" height="80" viewBox="0 0 240 80" fill="none" xmlns="http://www.w3.org/2000/svg">
<rect x="0.5" y="0.5" width="239" height="79" fill="#17171A"/>
<path d="M61.4547 26.5483L31.7607 21.0864L47.3819 60.404L69.151 33.8722L61.4547 26.5483ZM60.9778 28.9591L65.5185 33.2776L53.0986 35.5251L60.9778 28.9591ZM50.3938 35.0808L37.301 24.2159L58.7042 28.1555L50.3938 35.0808ZM49.4661 36.9951L47.3362 54.6482L35.8245 25.6794L49.4661 36.9951ZM51.4391 37.9294L65.1918 35.4402L49.4138 54.6612L51.4391 37.9294Z" fill="#9D9DA6"/>
<path d="M85.9222 33.0288H83.5571V50.6884H85.9222V33.0288Z" fill="#9D9DA6"/>
<path d="M81.7212 31.0103H79.3496V34.7343H81.7212V31.0103Z" fill="#9D9DA6"/>
<path d="M81.7207 36.7793H79.3491V41.2808H81.7207V36.7793Z" fill="#9D9DA6"/>
<path d="M79.3364 50.695H81.7146V43.541H79.3495L79.3364 50.695Z" fill="#9D9DA6"/>
<path d="M97.5055 39.3731V37.8574H92.4748V34.5907H95.0816V36.0607H97.5055V32.99H92.4748V31.0039H90.1097V32.99H87.4964V34.5907H90.1097V39.4515H94.6308L91.6973 44.0118L90.1424 42.2674H87.3657L90.5279 45.8215L87.3984 50.6954H90.2012L92.1677 47.6639L94.8529 50.6954H97.6296L93.3307 45.8542L97.5055 39.3731Z" fill="#9D9DA6"/>
<path d="M106.28 46.6512L107.286 45.2662H104.797V36.8708H106.587V35.2767H104.797V31.0039H102.412V35.2767H100.635V36.8708H102.412L102.406 46.6512H106.28Z" fill="#9D9DA6"/>
<path d="M107.371 40.3529H110.03L108.409 45.8409L103.692 50.6691H106.672L110.631 46.6249L112.473 40.3529H113.558L112.356 46.1937L108.566 50.6691H111.434L114.629 46.8732L115.969 40.3529H116.419V49.284H114.91V50.6691H118.797V38.7588H107.371V40.3529Z" fill="#9D9DA6"/>
<path d="M107.528 37.6026H110.723L117.452 32.3367V31.0039H107.371V32.598H113.911L107.528 37.6026Z" fill="#9D9DA6"/>
<path d="M133.302 36.8706H131.205V50.5971H133.302V36.8706Z" fill="#9D9DA6"/>
<path d="M142.717 31.0693H125.58V33.1665H142.717V31.0693Z" fill="#9D9DA6"/>
<path d="M137.098 36.8706H135.001V50.5971H137.098V36.8706Z" fill="#9D9DA6"/>
<path d="M195.172 50.6168H197.296V42.3522L195.172 39.9937V50.6168Z" fill="#9D9DA6"/>
<path d="M206.344 31.0694V46.39L191.331 29.7104V50.6171H193.454V35.2834L208.468 51.963V31.0694H206.344Z" fill="#9D9DA6"/>
<path d="M177.604 31.0566C172.214 31.0566 167.831 35.4405 167.831 40.8305C167.831 46.2205 172.214 50.6044 177.604 50.6044C182.994 50.6044 187.378 46.2205 187.378 40.8305C187.378 35.4405 182.994 31.0566 177.604 31.0566ZM177.604 48.5006C173.377 48.5006 169.934 45.0576 169.934 40.8305C169.934 36.6034 173.377 33.1604 177.604 33.1604C181.831 33.1604 185.275 36.6034 185.275 40.8305C185.275 45.0576 181.831 48.5006 177.604 48.5006Z" fill="#9D9DA6"/>
<path d="M177.605 39.4258C176.827 39.4258 176.2 40.0595 176.2 40.8304C176.2 41.6014 176.834 42.2351 177.605 42.2351C178.376 42.2351 179.01 41.6014 179.01 40.8304C179.01 40.0595 178.382 39.4258 177.605 39.4258Z" fill="#9D9DA6"/>
<path d="M164.145 37.0604C164.145 33.7545 161.473 31.0693 158.193 31.0693H147.008V50.6171H149.092V33.1927H158.187C160.291 33.1927 162.009 34.9305 162.009 37.0604C162.009 39.1837 160.317 40.9151 158.233 40.9347L150.811 40.9281V50.6105H152.895V43.0515H157.788L161.787 50.6105H164.217L160.049 42.7444C162.466 41.9539 164.145 39.628 164.145 37.0604Z" fill="#9D9DA6"/>
<rect x="0.5" y="0.5" width="239" height="79" stroke="#2E2E33"/>
</svg>
