<svg width="240" height="80" viewBox="0 0 240 80" fill="none" xmlns="http://www.w3.org/2000/svg">
<rect x="0.5" y="0.5" width="239" height="79" fill="#17171A"/>
<g clip-path="url(#clip0_33149_130467)">
<path d="M57.2607 42.787L55.1746 48.4995C55.113 48.658 55.113 48.834 55.1746 48.9924L58.7571 58.8244L62.9029 56.4302L57.9297 42.787C57.8153 42.4701 57.3751 42.4701 57.2607 42.787Z" fill="#9D9DA6"/>
<path d="M61.4326 33.1747C61.3182 32.8578 60.8781 32.8578 60.7637 33.1747L58.6776 38.8872C58.6159 39.0457 58.6159 39.2217 58.6776 39.3801L64.5485 55.4791L68.6943 53.085L61.4326 33.1747Z" fill="#9D9DA6"/>
<path d="M54.0653 20.667C54.1709 20.667 54.2678 20.6934 54.3646 20.7463L70.1731 29.874C70.358 29.9796 70.4724 30.1733 70.4724 30.3845V48.6401C70.4724 48.8513 70.358 49.0449 70.1731 49.1506L54.3646 58.2871C54.2766 58.34 54.1709 58.3664 54.0653 58.3664C53.9597 58.3664 53.8629 58.34 53.766 58.2871L37.9663 49.1594C37.7815 49.0538 37.667 48.8601 37.667 48.6489V30.3845C37.667 30.1733 37.7815 29.9796 37.9663 29.874L53.7748 20.7463C53.8629 20.6934 53.9685 20.667 54.0653 20.667ZM54.0653 18C53.502 18 52.9386 18.1496 52.4369 18.4401L36.6284 27.5679C35.6249 28.1488 35 29.2227 35 30.3845V48.6401C35 49.8019 35.6249 50.8846 36.6284 51.4655L52.4369 60.5933C52.9386 60.8838 53.502 61.0334 54.0653 61.0334C54.6286 61.0334 55.192 60.8838 55.6937 60.5933L71.5022 51.4655C72.5145 50.8846 73.1306 49.8107 73.1306 48.6401V30.3845C73.1306 29.2227 72.5057 28.14 71.5022 27.5591L55.7025 18.4401C55.192 18.1496 54.6286 18 54.0653 18Z" fill="#9D9DA6"/>
<path d="M43.6172 55.4971L45.0695 51.5186L47.9918 53.9479L45.2632 56.4477L43.6172 55.4971Z" fill="#17171A"/>
<path d="M52.7359 29.0815H48.731C48.4317 29.0815 48.1588 29.2664 48.062 29.5481L39.4712 53.1024L43.617 55.4966L53.0792 29.5569C53.1584 29.328 52.9912 29.0815 52.7359 29.0815Z" fill="#9D9DA6"/>
<path d="M59.7509 29.0815H55.746C55.4467 29.0815 55.1738 29.2664 55.077 29.5481L45.2627 56.4472L49.4085 58.8414L60.0854 29.5657C60.1734 29.328 59.9974 29.0815 59.7509 29.0815Z" fill="#9D9DA6"/>
<path d="M90.1978 33.9844C90.5939 33.9844 90.9372 34.0636 91.2101 34.2308C91.4829 34.3981 91.7558 34.7149 92.0199 35.1903L97.2483 44.6789C97.3011 44.7845 97.3099 44.8726 97.2835 44.943C97.2571 45.0134 97.1779 45.0486 97.0547 45.0486H95.0478C94.8717 45.0486 94.7485 44.9782 94.6869 44.8461L93.569 42.8129H86.1489L85.0574 44.8461C84.987 44.987 84.8638 45.0486 84.6965 45.0486H82.6456C82.5048 45.0486 82.4256 45.0134 82.3992 44.943C82.3728 44.8726 82.3816 44.7845 82.4344 44.6789L87.6188 35.1903C87.8829 34.7149 88.1381 34.3981 88.3934 34.2308C88.6487 34.0636 88.9391 33.9844 89.2736 33.9844H90.1978ZM87.1259 40.9644H92.5656L90.057 36.3345C90.013 36.2641 89.9602 36.2201 89.881 36.2201H89.7841C89.7137 36.2201 89.6521 36.2553 89.6081 36.3345L87.1259 40.9644Z" fill="#9D9DA6"/>
<path d="M108.735 33.9844C109.95 33.9844 110.812 34.2572 111.34 34.803C111.868 35.3487 112.133 36.1585 112.133 37.2323V38.1302C112.133 39.0368 111.948 39.7497 111.578 40.2779C111.208 40.806 110.61 41.1405 109.774 41.2901L112.476 44.6349C112.529 44.6877 112.546 44.7669 112.52 44.8726C112.502 44.9782 112.414 45.031 112.265 45.031H110.231C110.09 45.031 110.002 45.0134 109.95 44.987C109.897 44.9518 109.844 44.899 109.791 44.8285L107.291 41.5454H102.186V44.6877C102.186 44.9166 102.072 45.031 101.843 45.031H100.135C99.8888 45.031 99.7744 44.9166 99.7744 44.6877V34.4597C99.7744 34.1428 99.9328 33.9844 100.25 33.9844H108.735ZM102.195 39.6265H108.242C108.779 39.6265 109.157 39.5121 109.377 39.2832C109.598 39.0544 109.712 38.7023 109.712 38.227V37.5668C109.712 37.0915 109.598 36.7394 109.377 36.5106C109.157 36.2817 108.779 36.1673 108.242 36.1673H102.397C102.257 36.1673 102.195 36.2289 102.195 36.3609V39.6265Z" fill="#9D9DA6"/>
<path d="M125.345 33.9844C126.427 33.9844 127.202 34.2044 127.66 34.6357C128.117 35.067 128.346 35.7184 128.346 36.5898V37.3468C128.346 38.227 128.012 38.8959 127.334 39.3536C128.056 39.7761 128.425 40.4539 128.425 41.3869V42.3023C128.425 42.7248 128.381 43.1033 128.285 43.4378C128.188 43.7723 128.038 44.0628 127.818 44.3004C127.598 44.5381 127.316 44.7229 126.956 44.8461C126.595 44.9694 126.155 45.0398 125.626 45.0398H116.243C115.927 45.0398 115.768 44.8814 115.768 44.5645V34.4597C115.768 34.1428 115.927 33.9844 116.243 33.9844H125.345ZM118.189 38.5791H124.667C125.195 38.5791 125.547 38.4998 125.741 38.3414C125.934 38.183 126.022 37.9541 126.022 37.646V37.1091C126.022 36.7834 125.934 36.5458 125.75 36.3873C125.565 36.2377 125.266 36.1585 124.861 36.1585H118.4C118.259 36.1585 118.197 36.2289 118.197 36.3609V38.5791H118.189ZM118.189 40.3043V42.6544C118.189 42.7953 118.259 42.8569 118.391 42.8569H124.869C125.292 42.8569 125.591 42.7777 125.767 42.628C125.943 42.4784 126.04 42.2319 126.04 41.8974V41.2989C126.04 40.9732 125.943 40.7268 125.75 40.5595C125.556 40.3923 125.195 40.3043 124.667 40.3043H118.189Z" fill="#9D9DA6"/>
<path d="M134.314 33.9844C134.542 33.9844 134.657 34.0988 134.657 34.3277V44.6877C134.657 44.9166 134.542 45.031 134.314 45.031H132.606C132.36 45.031 132.245 44.9166 132.245 44.6877V34.3365C132.245 34.1076 132.368 33.9932 132.606 33.9932L134.314 33.9844Z" fill="#9D9DA6"/>
<path d="M150.862 33.9844C151.108 33.9844 151.222 34.0988 151.222 34.3277V35.8768C151.222 36.1233 151.099 36.2377 150.862 36.2377H145.906V44.6877C145.906 44.9166 145.792 45.031 145.563 45.031H143.837C143.609 45.031 143.494 44.9166 143.494 44.6877V36.2377H138.539C138.292 36.2377 138.178 36.1145 138.178 35.8768V34.3277C138.178 34.0988 138.301 33.9844 138.539 33.9844H150.862Z" fill="#9D9DA6"/>
<path d="M163.352 33.9844C164.567 33.9844 165.429 34.2572 165.958 34.803C166.486 35.3487 166.75 36.1585 166.75 37.2323V38.1302C166.75 39.0368 166.565 39.7497 166.195 40.2779C165.826 40.806 165.227 41.1405 164.391 41.2901L167.093 44.6349C167.146 44.6877 167.163 44.7669 167.137 44.8726C167.119 44.9782 167.031 45.031 166.882 45.031H164.848C164.708 45.031 164.62 45.0134 164.567 44.987C164.514 44.9518 164.461 44.899 164.408 44.8285L161.909 41.5454H156.803V44.6877C156.803 44.9166 156.689 45.031 156.46 45.031H154.752C154.506 45.031 154.392 44.9166 154.392 44.6877V34.4597C154.392 34.1428 154.55 33.9844 154.867 33.9844H163.352ZM156.821 39.6265H162.868C163.405 39.6265 163.783 39.5121 164.003 39.2832C164.224 39.0544 164.338 38.7023 164.338 38.227V37.5668C164.338 37.0915 164.224 36.7394 164.003 36.5106C163.783 36.2817 163.405 36.1673 162.868 36.1673H157.023C156.883 36.1673 156.821 36.2289 156.821 36.3609V39.6265Z" fill="#9D9DA6"/>
<path d="M172.233 33.9844C172.462 33.9844 172.577 34.0988 172.577 34.3277V40.6299C172.577 41.0524 172.612 41.4045 172.682 41.6774C172.753 41.9591 172.867 42.1791 173.026 42.3376C173.184 42.5048 173.395 42.6192 173.668 42.6808C173.941 42.7512 174.276 42.7865 174.689 42.7865H179.064C179.478 42.7865 179.812 42.7512 180.085 42.6808C180.358 42.6104 180.569 42.496 180.728 42.3376C180.886 42.1703 181 41.9503 181.062 41.6774C181.124 41.3957 181.159 41.0524 181.159 40.6299V34.3277C181.159 34.0988 181.273 33.9844 181.502 33.9844H183.227C183.456 33.9844 183.571 34.0988 183.571 34.3277V40.8676C183.571 41.6246 183.491 42.2671 183.333 42.8041C183.174 43.3322 182.919 43.7635 182.567 44.098C182.215 44.4324 181.757 44.6701 181.194 44.8197C180.631 44.9694 179.953 45.0398 179.152 45.0398H174.601C173.8 45.0398 173.123 44.9694 172.568 44.8197C172.013 44.6701 171.556 44.4324 171.204 44.098C170.852 43.7635 170.596 43.3322 170.429 42.8041C170.262 42.2759 170.183 41.6246 170.183 40.8676V34.3277C170.183 34.0988 170.306 33.9844 170.544 33.9844H172.233Z" fill="#9D9DA6"/>
<path d="M190.357 33.9844C190.585 33.9844 190.788 34.002 190.955 34.0284C191.122 34.0636 191.272 34.1164 191.395 34.2132C191.518 34.3012 191.633 34.4245 191.739 34.5741C191.835 34.7237 191.941 34.9262 192.047 35.1815L195.33 42.76C195.374 42.8569 195.444 42.9009 195.55 42.9009H195.743C195.849 42.9009 195.92 42.8569 195.964 42.76L199.247 35.1815C199.352 34.9262 199.458 34.7237 199.555 34.5741C199.652 34.4245 199.766 34.3012 199.898 34.2132C200.021 34.1252 200.171 34.0636 200.329 34.0284C200.497 33.9932 200.69 33.9844 200.919 33.9844H202.609C203.155 33.9844 203.525 34.1076 203.718 34.3541C203.912 34.6005 204 35.023 204 35.6216V44.6877C204 44.9166 203.877 45.031 203.639 45.031H202.028C201.799 45.031 201.685 44.9166 201.685 44.6877V36.4402C201.685 36.3345 201.641 36.2817 201.562 36.2817H201.421C201.315 36.2817 201.245 36.3257 201.218 36.4049L198.032 43.4818C197.909 43.7635 197.777 44.0099 197.645 44.2036C197.513 44.3972 197.372 44.5557 197.222 44.6877C197.073 44.8109 196.897 44.9078 196.703 44.9606C196.509 45.0134 196.28 45.0398 196.016 45.0398H195.259C194.995 45.0398 194.766 45.0134 194.573 44.9606C194.379 44.9078 194.203 44.8197 194.053 44.6877C193.904 44.5645 193.754 44.3972 193.631 44.2036C193.499 44.0099 193.367 43.7723 193.244 43.4818L190.057 36.4049C190.022 36.3169 189.961 36.2817 189.855 36.2817H189.714C189.626 36.2817 189.591 36.3345 189.591 36.4402V44.6877C189.591 44.9166 189.476 45.031 189.248 45.031H187.637C187.39 45.031 187.276 44.9166 187.276 44.6877V35.6216C187.276 35.023 187.373 34.6005 187.558 34.3541C187.751 34.1076 188.121 33.9844 188.675 33.9844H190.357Z" fill="#9D9DA6"/>
</g>
<rect x="0.5" y="0.5" width="239" height="79" stroke="#2E2E33"/>
<defs>
<clipPath id="clip0_33149_130467">
<rect width="169" height="43.0334" fill="white" transform="translate(35 18)"/>
</clipPath>
</defs>
</svg>
