<svg width="240" height="80" viewBox="0 0 240 80" fill="none" xmlns="http://www.w3.org/2000/svg">
<rect x="0.5" y="0.5" width="239" height="79" fill="#17171A"/>
<path d="M167.636 43.1204H164.636C164.403 43.1145 164.183 43.0211 164.019 42.8592C163.854 42.6974 163.759 42.4796 163.753 42.2508V41.5552C163.759 41.3264 163.854 41.1086 164.019 40.9468C164.183 40.785 164.403 40.6915 164.636 40.6856H167.2C167.434 40.6856 167.659 40.594 167.824 40.4309C167.99 40.2679 168.083 40.0467 168.083 39.8161C168.083 39.5855 167.99 39.3642 167.824 39.2012C167.659 39.0381 167.434 38.9465 167.2 38.9465H164.612C164.38 38.9406 164.159 38.8471 163.995 38.6853C163.83 38.5235 163.736 38.3057 163.73 38.0769V37.3813C163.736 37.1525 163.83 36.9347 163.995 36.7729C164.159 36.6111 164.38 36.5176 164.612 36.5117H167.553C167.787 36.5117 168.011 36.4201 168.177 36.257C168.343 36.0939 168.436 35.8728 168.436 35.6422C168.436 35.4115 168.343 35.1903 168.177 35.0273C168.011 34.8642 167.787 34.7726 167.553 34.7726H164.024C163.886 34.7698 163.752 34.8148 163.644 34.8995C163.537 34.9842 163.463 35.1034 163.436 35.2363L161.553 43.99V44.1639C161.586 44.3671 161.695 44.5509 161.859 44.6795C162.021 44.808 162.227 44.8722 162.436 44.8595H167.612C167.846 44.8595 168.07 44.7679 168.236 44.6049C168.401 44.4418 168.494 44.2206 168.494 43.99C168.494 43.7593 168.401 43.5382 168.236 43.3751C168.07 43.212 167.846 43.1204 167.612 43.1204H167.636Z" fill="#9D9DA6"/>
<path d="M102.341 34.8301H101.165C100.992 34.8323 100.822 34.8823 100.677 34.9746C100.531 35.0668 100.415 35.1975 100.341 35.3518L97.7531 41.4968C97.7531 41.5121 97.7466 41.5269 97.736 41.5378C97.7248 41.5487 97.7101 41.5547 97.6943 41.5547C97.6354 41.5547 97.6354 41.5547 97.6354 41.4968L95.0472 35.3518C94.9843 35.195 94.8831 35.0557 94.7531 34.946C94.5178 34.7721 94.2237 35.004 94.1648 35.2939L92.2237 44.1634C92.2084 44.2638 92.229 44.3664 92.2825 44.4533C92.3531 44.5934 92.4619 44.7113 92.5972 44.7933C92.7325 44.8753 92.8884 44.9181 93.0472 44.9171H93.4001C93.6284 44.9054 93.8431 44.8094 94.0025 44.6482C94.1619 44.487 94.2531 44.2724 94.259 44.0475V38.3663C94.259 38.351 94.2654 38.3362 94.276 38.3254C94.2872 38.3145 94.3019 38.3084 94.3178 38.3084C94.3337 38.3084 94.3484 38.3145 94.3595 38.3254C94.3701 38.3362 94.3766 38.351 94.3766 38.3663L96.7884 44.3374C96.8525 44.4987 96.9666 44.6359 97.1143 44.7296C97.2625 44.8233 97.4366 44.8686 97.6119 44.8591H97.8472C98.0201 44.8569 98.1896 44.8068 98.3348 44.7146C98.4807 44.6224 98.5966 44.4917 98.6707 44.3374L101.082 38.4243C101.082 38.409 101.089 38.3942 101.1 38.3833C101.111 38.3724 101.125 38.3663 101.141 38.3663C101.157 38.3663 101.172 38.3724 101.183 38.3833C101.194 38.3942 101.2 38.409 101.2 38.4243V44.0475C101.206 44.2763 101.301 44.4941 101.465 44.6559C101.63 44.8177 101.85 44.9112 102.082 44.9171H102.435C102.668 44.9112 102.888 44.8177 103.052 44.6559C103.217 44.4941 103.312 44.2763 103.318 44.0475V35.6997C103.277 35.4678 103.16 35.2561 102.982 35.0984C102.805 34.9407 102.58 34.8462 102.341 34.8301Z" fill="#9D9DA6"/>
<path d="M129.283 39.5261H126.694C126.476 39.5261 126.267 39.6115 126.112 39.7638C125.957 39.9159 125.871 40.1223 125.871 40.3376C125.871 40.5529 125.957 40.7593 126.112 40.9115C126.267 41.0637 126.476 41.1492 126.694 41.1492H127.165C127.636 41.1492 128.106 41.555 127.871 42.0188C127.518 42.7724 126.812 43.1782 125.694 43.1782C124.047 43.1782 123.047 41.9608 123.047 39.8739C123.047 37.7869 124.106 36.5695 125.694 36.5695C126.063 36.5508 126.43 36.6263 126.76 36.7889C127.09 36.9514 127.371 37.1954 127.577 37.4971C127.669 37.6661 127.804 37.8085 127.969 37.9102C128.134 38.0118 128.323 38.0693 128.518 38.0768H129.047C129.166 38.0863 129.286 38.0671 129.396 38.0209C129.506 37.9746 129.602 37.9028 129.677 37.8115C129.753 37.7201 129.804 37.6121 129.828 37.4967C129.851 37.3813 129.846 37.2621 129.812 37.1492C129.445 36.3892 128.859 35.7528 128.126 35.3196C127.393 34.8866 126.548 34.6761 125.694 34.7144C122.989 34.7144 120.93 36.6275 120.93 39.8739C120.93 43.1202 122.871 45.0333 125.753 45.0333C128.341 45.0333 130.165 43.4101 130.165 40.8014V40.3956C130.167 40.2808 130.146 40.1666 130.103 40.0601C130.059 39.9535 129.994 39.8566 129.912 39.7755C129.83 39.6942 129.731 39.6302 129.623 39.5874C129.515 39.5445 129.399 39.5236 129.283 39.5261Z" fill="#9D9DA6"/>
<path d="M113.988 35.4098C113.928 35.2416 113.816 35.0957 113.669 34.992C113.522 34.8883 113.346 34.8318 113.165 34.8301H111.635C111.454 34.8318 111.278 34.8883 111.13 34.992C110.983 35.0957 110.872 35.2416 110.812 35.4098L107.87 43.7577C107.826 43.8881 107.814 44.027 107.834 44.1631C107.854 44.2993 107.906 44.4288 107.986 44.5415C108.066 44.6543 108.172 44.7469 108.295 44.8121C108.418 44.8773 108.555 44.9133 108.694 44.9171H109.165C109.346 44.9154 109.522 44.8588 109.669 44.7551C109.816 44.6514 109.928 44.5055 109.988 44.3374L110.341 43.2359C110.402 43.0677 110.513 42.9218 110.66 42.8181C110.808 42.7144 110.983 42.6579 111.165 42.6562H113.576C113.758 42.6579 113.933 42.7144 114.081 42.8181C114.228 42.9218 114.339 43.0677 114.4 43.2359L114.753 44.3374C114.813 44.5055 114.925 44.6514 115.072 44.7551C115.219 44.8588 115.395 44.9154 115.576 44.9171H116.047C116.186 44.9133 116.323 44.8773 116.446 44.8121C116.569 44.7469 116.675 44.6543 116.755 44.5415C116.835 44.4288 116.887 44.2993 116.907 44.1631C116.927 44.027 116.915 43.8881 116.87 43.7577L113.988 35.4098ZM112.494 40.9171H112.318C112.178 40.9133 112.041 40.8773 111.918 40.8121C111.796 40.7469 111.69 40.6543 111.61 40.5415C111.53 40.4288 111.478 40.2993 111.458 40.1631C111.438 40.027 111.45 39.8881 111.494 39.7577L112.376 37.091C112.376 37.0756 112.383 37.0608 112.393 37.05C112.405 37.0391 112.419 37.033 112.435 37.033C112.451 37.033 112.466 37.0391 112.477 37.05C112.488 37.0608 112.494 37.0756 112.494 37.091L113.376 39.7577C113.408 39.8922 113.41 40.032 113.381 40.1673C113.353 40.3025 113.294 40.4299 113.21 40.5404C113.126 40.651 113.018 40.742 112.895 40.8071C112.77 40.8721 112.634 40.9097 112.494 40.9171Z" fill="#9D9DA6"/>
<path d="M136.106 34.8301H135.694C135.462 34.836 135.241 34.9295 135.077 35.0913C134.913 35.2531 134.818 35.4709 134.812 35.6997V44.0475C134.818 44.2763 134.913 44.4941 135.077 44.6559C135.241 44.8177 135.462 44.9112 135.694 44.9171H136.106C136.338 44.9112 136.559 44.8177 136.723 44.6559C136.888 44.4941 136.983 44.2763 136.988 44.0475V35.6997C136.973 35.474 136.876 35.2614 136.713 35.1014C136.551 34.9415 136.335 34.8451 136.106 34.8301Z" fill="#9D9DA6"/>
<path d="M146.4 36.5693C146.797 36.5585 147.189 36.649 147.54 36.8318C147.89 37.0147 148.187 37.2837 148.4 37.6128C148.476 37.8147 148.613 37.9891 148.791 38.1133C148.97 38.2374 149.182 38.3055 149.4 38.3084H149.812C149.931 38.318 150.051 38.2988 150.16 38.2525C150.27 38.2063 150.367 38.1344 150.442 38.0431C150.517 37.9518 150.569 37.8438 150.593 37.7284C150.616 37.613 150.611 37.4937 150.577 37.3809C149.988 35.6418 148.4 34.6562 146.341 34.6562C143.635 34.6562 141.577 36.5113 141.577 39.8157C141.577 43.12 143.577 44.9751 146.341 44.9751C148.518 44.9751 149.988 43.8157 150.518 42.3664C150.552 42.2535 150.557 42.1342 150.534 42.0189C150.51 41.9035 150.458 41.7955 150.383 41.7042C150.308 41.6128 150.211 41.541 150.101 41.4947C149.992 41.4485 149.872 41.4293 149.753 41.4388H149.283C149.068 41.4575 148.863 41.5317 148.687 41.6538C148.512 41.776 148.372 41.9419 148.283 42.1345C148.087 42.4665 147.802 42.7392 147.46 42.9231C147.117 43.1071 146.731 43.1952 146.341 43.178C144.812 43.178 143.753 42.0185 143.753 39.8737C143.753 37.7287 144.812 36.5693 146.4 36.5693Z" fill="#9D9DA6"/>
<path d="M176.871 34.8301H174.106C173.874 34.836 173.653 34.9295 173.489 35.0913C173.324 35.2531 173.23 35.4709 173.224 35.6997V44.0475C173.23 44.2763 173.324 44.4941 173.489 44.6559C173.653 44.8177 173.874 44.9112 174.106 44.9171H176.871C179.988 44.9171 181.871 43.004 181.871 39.8736C181.871 36.7431 179.93 34.8301 176.871 34.8301ZM176.753 43.062H176.282C176.05 43.0561 175.83 42.9626 175.665 42.8008C175.501 42.639 175.406 42.4212 175.4 42.1924V37.4968C175.406 37.268 175.501 37.0502 175.665 36.8884C175.83 36.7265 176.05 36.6331 176.282 36.6272H176.753C178.694 36.6272 179.694 37.6127 179.694 39.8156C179.694 42.0185 178.694 43.062 176.753 43.062Z" fill="#9D9DA6"/>
<path d="M192.459 43.1203H189.459C189.226 43.1144 189.006 43.0209 188.842 42.8591C188.677 42.6973 188.582 42.4795 188.576 42.2507V41.555C188.582 41.3263 188.677 41.1085 188.842 40.9467C189.006 40.7849 189.226 40.6913 189.459 40.6855H192.047C192.281 40.6855 192.505 40.5939 192.671 40.4308C192.836 40.2678 192.929 40.0466 192.929 39.8159C192.929 39.5853 192.836 39.3641 192.671 39.201C192.505 39.038 192.281 38.9463 192.047 38.9463H189.459C189.226 38.9405 189.006 38.847 188.842 38.6852C188.677 38.5233 188.582 38.3056 188.576 38.0768V37.3812C188.582 37.1524 188.677 36.9346 188.842 36.7728C189.006 36.6109 189.226 36.5175 189.459 36.5116H192.4C192.634 36.5116 192.858 36.42 193.024 36.2569C193.189 36.0938 193.282 35.8726 193.282 35.642C193.282 35.4114 193.189 35.1902 193.024 35.0272C192.858 34.864 192.634 34.7725 192.4 34.7725H187.282C187.05 34.7783 186.829 34.8718 186.665 35.0336C186.5 35.1955 186.406 35.4132 186.4 35.642V43.9899C186.406 44.2186 186.5 44.4364 186.665 44.5982C186.829 44.76 187.05 44.8535 187.282 44.8594H192.459C192.691 44.8535 192.912 44.76 193.076 44.5982C193.24 44.4364 193.335 44.2186 193.341 43.9899C193.343 43.875 193.322 43.7609 193.279 43.6543C193.235 43.5477 193.17 43.4509 193.088 43.3697C193.006 43.2885 192.908 43.2245 192.799 43.1816C192.691 43.1388 192.575 43.1179 192.459 43.1203Z" fill="#9D9DA6"/>
<path d="M205.753 34.8301H205.341C205.109 34.836 204.888 34.9295 204.724 35.0913C204.56 35.2531 204.465 35.4709 204.459 35.6997V41.091C204.459 41.149 204.459 41.149 204.4 41.149H204.341L200.224 35.2359C200.144 35.1254 200.038 35.036 199.915 34.9754C199.792 34.9147 199.655 34.8847 199.518 34.8881H198.965C198.733 34.894 198.512 34.9874 198.348 35.1493C198.183 35.3111 198.088 35.5288 198.083 35.7577V44.1055C198.088 44.3343 198.183 44.552 198.348 44.7138C198.512 44.8757 198.733 44.9691 198.965 44.975H199.377C199.609 44.9691 199.83 44.8757 199.994 44.7138C200.158 44.552 200.253 44.3343 200.259 44.1055V38.6562C200.259 38.6408 200.265 38.6261 200.276 38.6152C200.287 38.6043 200.302 38.5982 200.318 38.5982H200.377L204.553 44.5113C204.633 44.6217 204.739 44.7112 204.862 44.7718C204.985 44.8325 205.121 44.8624 205.259 44.8591H205.788C206.021 44.8532 206.241 44.7597 206.405 44.5979C206.57 44.4361 206.665 44.2183 206.671 43.9895V35.6417C206.631 35.4253 206.519 35.228 206.353 35.0811C206.187 34.9341 205.976 34.8458 205.753 34.8301Z" fill="#9D9DA6"/>
<path d="M66.8294 32.9925L69.5529 36.1925C69.8647 36.5519 70.1412 36.8476 70.2529 37.0157C71.0674 37.8251 71.5241 38.9191 71.5235 40.0591C71.447 41.4041 70.5706 42.32 69.7588 43.2997L67.8529 45.5374L66.8588 46.6969C66.8231 46.7368 66.8002 46.7862 66.7926 46.839C66.7851 46.8917 66.7935 46.9454 66.8167 46.9935C66.8398 47.0416 66.8767 47.082 66.9229 47.1096C66.9691 47.1372 67.0224 47.1509 67.0764 47.149H77.0117C78.5294 47.149 80.4412 48.4244 80.3294 50.3606C80.3263 51.2406 79.9701 52.0838 79.3387 52.706C78.7073 53.3283 77.8518 53.6793 76.9588 53.6823H61.4C60.3764 53.6823 57.6235 53.7925 56.8529 51.4447C56.689 50.954 56.6666 50.4283 56.7882 49.9258C57.0122 49.1829 57.3666 48.4844 57.8353 47.862C58.6176 46.7026 59.4647 45.5432 60.3 44.4186C61.3764 42.9461 62.4823 41.52 63.5706 40.0186C63.6092 39.9697 63.6302 39.9095 63.6302 39.8476C63.6302 39.7856 63.6092 39.7254 63.5706 39.6766L59.6176 35.0389C59.5919 35.0053 59.5585 34.978 59.5202 34.9592C59.482 34.9404 59.4398 34.9307 59.397 34.9307C59.3543 34.9307 59.3121 34.9404 59.2739 34.9592C59.2356 34.978 59.2022 35.0053 59.1764 35.0389C58.1176 36.4476 53.4823 42.6853 52.4941 43.949C51.5059 45.2128 49.0706 45.2823 47.7235 43.949L41.5411 37.8331C41.5017 37.794 41.4513 37.7674 41.3964 37.7566C41.3416 37.7458 41.2847 37.7513 41.233 37.7724C41.1813 37.7936 41.1371 37.8293 41.1061 37.8752C41.0751 37.9211 41.0587 37.975 41.0588 38.0301V49.7925C41.0733 50.6272 40.8226 51.4454 40.3415 52.1326C39.8605 52.8197 39.1734 53.3414 38.3764 53.6244C37.8672 53.799 37.323 53.8512 36.7891 53.7765C36.2553 53.7018 35.7474 53.5024 35.3076 53.1949C34.8679 52.8875 34.509 52.4809 34.2611 52.009C34.0132 51.5371 33.8833 51.0137 33.8823 50.4823V29.3345C33.9178 28.5724 34.196 27.8407 34.6776 27.2433C35.1591 26.646 35.8194 26.2134 36.5647 26.007C37.204 25.8391 37.8769 25.8408 38.5153 26.0119C39.1537 26.1829 39.7349 26.5172 40.2 26.9809L49.7059 36.3606C49.7343 36.3891 49.7687 36.4111 49.8068 36.425C49.8448 36.4389 49.8855 36.4444 49.9259 36.441C49.9663 36.4377 50.0055 36.4257 50.0407 36.4058C50.0759 36.3859 50.1061 36.3586 50.1294 36.3258L56.8823 27.1142C57.1944 26.7403 57.5856 26.4381 58.0287 26.2288C58.4717 26.0195 58.9558 25.9082 59.447 25.9026H77.0117C77.4924 25.9034 77.9674 26.0053 78.4049 26.2016C78.8424 26.3979 79.2324 26.6839 79.5487 27.0406C79.865 27.3973 80.1003 27.8165 80.239 28.2701C80.3777 28.7237 80.4166 29.2012 80.3529 29.6707C80.2291 30.4853 79.8098 31.228 79.1727 31.761C78.5355 32.294 77.7239 32.5812 76.8882 32.5693H67.0529C67.0035 32.5705 66.9553 32.5847 66.9133 32.6105C66.8714 32.6363 66.8372 32.6727 66.8144 32.7159C66.7916 32.7591 66.7809 32.8076 66.7836 32.8562C66.7862 32.9049 66.802 32.9519 66.8294 32.9925Z" fill="#9D9DA6"/>
<rect x="0.5" y="0.5" width="239" height="79" stroke="#2E2E33"/>
</svg>
