<svg width="240" height="80" viewBox="0 0 240 80" fill="none" xmlns="http://www.w3.org/2000/svg">
<rect x="0.5" y="0.5" width="239" height="79" fill="#17171A"/>
<g clip-path="url(#clip0_33149_131343)">
<path fill-rule="evenodd" clip-rule="evenodd" d="M35.9995 55.6758L65.4765 31.1299C65.8376 30.8151 66.1301 30.4295 66.336 29.9969C66.5418 29.5644 66.6567 29.0942 66.6733 28.6154C66.69 28.1367 66.608 27.6596 66.4326 27.2138C66.2572 26.768 65.9922 26.363 65.6538 26.024C65.3146 25.6849 64.9093 25.4192 64.4631 25.2434C64.0168 25.0676 63.5392 24.9855 63.0599 25.0021C62.5806 25.0187 62.1097 25.1338 61.6768 25.34C61.2438 25.5463 60.8578 25.8395 60.543 26.2012L35.9995 55.6758ZM50.2195 29.5311L37.808 38.8388L47.1166 26.4285C47.3069 26.1747 47.5496 25.9648 47.8281 25.8129C48.1066 25.661 48.4145 25.5707 48.7309 25.548C49.0474 25.5253 49.3649 25.5708 49.6623 25.6814C49.9596 25.792 50.2298 25.9652 50.4544 26.1891C50.6794 26.4135 50.8535 26.6836 50.9649 26.9812C51.0764 27.2788 51.1225 27.5968 51.1002 27.9138C51.078 28.2307 50.9878 28.5392 50.8358 28.8182C50.6839 29.0973 50.4736 29.3404 50.2195 29.5311ZM65.2464 44.5595L52.835 53.8672L62.1436 41.4569C62.334 41.2032 62.5767 40.9933 62.8552 40.8413C63.1336 40.6895 63.4415 40.5991 63.7579 40.5764C64.0743 40.5537 64.3919 40.5992 64.6892 40.7098C64.9866 40.8204 65.2567 40.9936 65.4813 41.2175C65.7064 41.4419 65.8806 41.7121 65.992 42.0096C66.1034 42.3072 66.1495 42.6252 66.1272 42.9422C66.1049 43.2591 66.0147 43.5676 65.8627 43.8467C65.7107 44.1257 65.5006 44.3688 65.2464 44.5595Z" fill="#9D9DA6"/>
<path fill-rule="evenodd" clip-rule="evenodd" d="M83.1092 40.3375C83.1092 36.2862 86.553 32.7781 91.3259 32.7781C93.692 32.7781 95.8055 33.6415 97.3088 34.9983C97.3986 35.0794 97.537 35.0764 97.6206 34.9888L100.495 31.977C100.578 31.8895 100.575 31.7506 100.486 31.6686C98.1122 29.4814 94.8541 28.1768 91.3259 28.1768C84.2635 28.1768 78.5078 33.5003 78.5078 40.3375C78.5078 47.1747 84.2635 52.4983 91.3259 52.4983C94.4659 52.4983 97.5693 51.4453 99.8681 49.6397L100.664 49.0147C100.717 48.9732 100.748 48.9097 100.748 48.8424V47.8304V45.8153V45.5802V40.3375V38.5846C100.748 38.4636 100.65 38.3655 100.529 38.3655H94.707C94.6468 38.3655 94.5892 38.3904 94.5478 38.4342L90.8249 42.3782C90.693 42.518 90.792 42.7478 90.9842 42.7478H95.9273C96.0483 42.7478 96.1464 42.8458 96.1464 42.9669V45.5802V45.8153V46.4914C96.1464 46.5693 96.1052 46.6414 96.0374 46.6797C94.7022 47.4337 93.0384 47.8969 91.3259 47.8969C86.553 47.8969 83.1092 44.3888 83.1092 40.3375ZM161.331 28.7246H156.175C155.995 28.7246 155.892 28.9302 155.999 29.0747L164.403 40.3487C164.463 40.4271 164.461 40.5349 164.402 40.6126L156.007 51.5985C155.897 51.7427 156 51.9506 156.181 51.9506H161.763C161.833 51.9506 161.898 51.918 161.939 51.8624L167.288 44.6882C167.376 44.5707 167.551 44.5707 167.639 44.6882L172.987 51.8624C173.029 51.918 173.093 51.9506 173.162 51.9506H178.744C178.926 51.9506 179.029 51.7427 178.918 51.5985L170.524 40.6126C170.465 40.5349 170.464 40.4271 170.522 40.3487L178.927 29.0747C179.035 28.9302 178.932 28.7246 178.751 28.7246H173.595C173.526 28.7246 173.463 28.7565 173.421 28.8107L167.637 36.3791C167.55 36.494 167.377 36.494 167.289 36.3791L161.506 28.8107C161.464 28.7565 161.399 28.7246 161.331 28.7246ZM120.654 28.7244H115.68C115.594 28.7244 115.515 28.7755 115.48 28.8547L105.376 51.6424C105.312 51.7874 105.418 51.9504 105.576 51.9504H110.354C110.442 51.9504 110.521 51.8985 110.555 51.8182L112.487 47.3491H123.848L125.779 51.8182C125.814 51.8985 125.893 51.9504 125.98 51.9504H130.758C130.917 51.9504 131.023 51.7874 130.958 51.6424L120.854 28.8547C120.819 28.7755 120.741 28.7244 120.654 28.7244ZM122.049 43.186H114.285L117.966 34.6678C118.042 34.4916 118.292 34.4916 118.368 34.6678L122.049 43.186ZM136.455 28.7245C136.334 28.7245 136.236 28.8226 136.236 28.9437V51.7314C136.236 51.8525 136.334 51.9505 136.455 51.9505H140.071H141.276H149.277C149.344 51.9505 149.407 51.9198 149.449 51.8671L152.389 48.1422C152.503 47.9986 152.4 47.7874 152.217 47.7874H141.495V28.9437C141.495 28.8226 141.397 28.7245 141.276 28.7245H136.455ZM189.488 33.1068C189.488 32.9858 189.587 32.8877 189.708 32.8877H203.293C203.413 32.8877 203.512 32.7896 203.512 32.6686V28.9437C203.512 28.8226 203.413 28.7245 203.293 28.7245H184.449C184.447 28.7245 184.444 28.7246 184.442 28.7246C184.325 28.7246 184.23 28.8197 184.23 28.9369V51.7315C184.23 51.8526 184.328 51.9506 184.449 51.9506H189.488V51.9505H203.731C203.851 51.9505 203.95 51.8525 203.95 51.7314V48.0065C203.95 47.8854 203.851 47.7874 203.731 47.7874H189.708C189.587 47.7874 189.488 47.6893 189.488 47.5682V42.5287C189.488 42.4076 189.587 42.3095 189.708 42.3095H202.416C202.537 42.3095 202.635 42.2115 202.635 42.0904V38.3655C202.635 38.2444 202.537 38.1464 202.416 38.1464H189.708C189.587 38.1464 189.488 38.0483 189.488 37.9273V33.1068Z" fill="#9D9DA6"/>
</g>
<rect x="0.5" y="0.5" width="239" height="79" stroke="#2E2E33"/>
<defs>
<clipPath id="clip0_33149_131343">
<rect width="167.95" height="30.6758" fill="white" transform="translate(36 25)"/>
</clipPath>
</defs>
</svg>
