<svg width="630" height="520" viewBox="0 0 630 520" fill="none" xmlns="http://www.w3.org/2000/svg">
<path d="M461.621 74.1769C458.931 70.4175 454.593 68.187 449.971 68.187H439.879L316.822 270.848L82.5401 265.959L79.1945 275.052C77.5736 279.457 78.2138 284.377 80.9081 288.221L196.378 452.949C204.421 464.423 217.553 471.255 231.566 471.255H431.559C452.422 471.255 471.77 460.362 482.589 442.524L584.077 275.206C590.022 265.404 589.552 253.003 582.883 243.68L461.621 74.1769Z" fill="white" stroke="black" stroke-miterlimit="10" stroke-linejoin="round"/>
<mask id="mask0_31277_127893" style="mask-type:alpha" maskUnits="userSpaceOnUse" x="77" y="67" width="512" height="405">
<path d="M461.622 74.1769C458.932 70.4175 454.594 68.187 449.972 68.187H439.88L316.823 270.848L82.5411 265.959L79.1954 275.052C77.5746 279.457 78.2148 284.377 80.909 288.221L196.379 452.949C204.422 464.423 217.554 471.255 231.567 471.255L431.56 471.255C452.423 471.255 471.771 460.362 482.59 442.524L584.078 275.206C590.023 265.404 589.553 253.003 582.884 243.68L461.622 74.1769Z" fill="white" stroke="black" stroke-miterlimit="10" stroke-linejoin="round"/>
</mask>
<g mask="url(#mask0_31277_127893)">
<rect x="288.71" y="356.982" width="167.637" height="156.2" transform="rotate(19.5926 288.71 356.982)" fill="#A878FF"/>
<rect x="235.907" y="352.076" width="162.823" height="156.2" transform="rotate(19.5926 235.907 352.076)" fill="#36FFFF"/>
<rect x="211.435" y="364.557" width="21.391" height="156.2" transform="rotate(19.5926 211.435 364.557)" fill="black"/>
</g>
<path d="M461.621 74.1769C458.931 70.4175 454.593 68.187 449.971 68.187H439.879L316.822 270.848L82.5401 265.959L79.1945 275.052C77.5736 279.457 78.2138 284.377 80.9081 288.221L196.378 452.949C204.421 464.423 217.553 471.255 231.566 471.255H431.559C452.422 471.255 471.77 460.362 482.589 442.524L584.077 275.206C590.022 265.404 589.552 253.003 582.883 243.68L461.621 74.1769Z" stroke="black" stroke-miterlimit="10" stroke-linejoin="round"/>
<path d="M451.928 76.919C445.978 68.5305 433.388 68.9599 428.024 77.7344L316.823 259.611L98.7116 259.611C87.0823 259.611 80.3 272.737 87.0282 282.222L204.58 447.945C209.952 455.518 218.661 460.018 227.946 460.018H435.558C450.109 460.018 463.612 452.447 471.202 440.033L571.665 275.724C577.642 265.949 577.22 253.551 570.59 244.205L451.928 76.919Z" fill="black" stroke="black" stroke-miterlimit="10" stroke-linejoin="round"/>
<path d="M448.961 95.6905C444.995 90.0933 436.596 90.3797 433.02 96.234L339.728 248.968C335.749 255.482 336.031 263.739 340.444 269.966L449.398 423.711C453.364 429.308 461.763 429.022 465.338 423.167L558.631 270.438C562.609 263.924 562.328 255.667 557.915 249.439L448.961 95.6905Z" fill="#36FFFF"/>
<path d="M498.067 261.391C496.449 259.115 493.026 259.251 491.593 261.649L478.417 283.705C476.843 286.34 476.975 289.656 478.754 292.157L501.94 324.757C503.559 327.033 506.982 326.897 508.414 324.499L521.59 302.446C523.164 299.811 523.032 296.495 521.253 293.993L498.067 261.391Z" fill="#A878FF" stroke="black" stroke-miterlimit="10" stroke-linejoin="round"/>
<path d="M522.738 218.958C521.12 216.682 517.697 216.818 516.264 219.216L503.088 241.271C501.514 243.906 501.646 247.223 503.425 249.724L526.611 282.324C528.23 284.6 531.653 284.464 533.085 282.066L546.261 260.013C547.835 257.378 547.703 254.062 545.924 251.56L522.738 218.958Z" fill="#36FFFF" stroke="black" stroke-miterlimit="10" stroke-linejoin="round"/>
<path d="M473.397 302.837C471.779 300.562 468.355 300.698 466.923 303.095L453.747 325.151C452.173 327.786 452.305 331.103 454.084 333.604L477.27 366.204C478.889 368.48 482.312 368.343 483.744 365.946L496.92 343.893C498.494 341.258 498.362 337.941 496.583 335.44L473.397 302.837Z" stroke="black" stroke-miterlimit="10" stroke-linejoin="round"/>
<path d="M448.726 344.284C447.107 342.009 443.684 342.145 442.252 344.542L429.076 366.598C427.501 369.233 427.634 372.55 429.413 375.051L452.599 407.651C454.217 409.927 457.64 409.79 459.073 407.393L472.249 385.34C473.823 382.705 473.691 379.388 471.912 376.887L448.726 344.284Z" stroke="black" stroke-miterlimit="10" stroke-linejoin="round"/>
<path d="M448.962 95.6801C444.994 90.0865 436.599 90.3748 433.024 96.2275L333.171 259.703L410.281 368.399L517.688 192.562L448.962 95.6801Z" fill="#A878FF"/>
<path d="M481.285 222.705L473.841 235.689L479.185 243.715L486.629 230.731L481.285 222.705Z" fill="#36FFFF"/>
<path d="M494.53 182.252L475.667 214.68L481.012 222.705L499.874 190.278L494.53 182.252Z" fill="#36FFFF"/>
<path d="M454.446 258.009C454.446 258.009 456.632 263.936 457.159 265.365C461.685 277.643 445.446 294.931 420.893 303.979C396.339 313.031 372.762 310.417 368.236 298.139C367.647 296.537 365.524 290.783 365.524 290.783L454.446 258.009Z" fill="#A878FF" stroke="black" stroke-linejoin="round"/>
<path fill-rule="evenodd" clip-rule="evenodd" d="M408.313 307.643L434.757 265.265L454.443 258.009C454.443 258.009 456.629 263.936 457.155 265.365C461.681 277.643 445.442 294.931 420.89 303.979C416.637 305.547 412.413 306.765 408.313 307.643Z" fill="black"/>
<path d="M401.872 252.633C426.424 243.585 450 246.199 454.526 258.477C459.052 270.754 442.813 288.042 418.261 297.09C393.706 306.142 370.13 303.528 365.604 291.25C361.075 278.977 377.31 261.686 401.872 252.633Z" fill="white" stroke="black"/>
<g style="mix-blend-mode:multiply">
<path fill-rule="evenodd" clip-rule="evenodd" d="M413.157 298.811L386.094 260.211C390.786 257.345 396.1 254.761 401.874 252.633C426.426 243.585 450.003 246.199 454.529 258.477C459.054 270.754 442.816 288.042 418.263 297.09C416.554 297.72 414.85 298.294 413.157 298.811Z" fill="#A878FF"/>
</g>
<path fill-rule="evenodd" clip-rule="evenodd" d="M423.898 247.52C417.009 248.142 409.487 249.826 401.872 252.633C379.438 260.901 363.951 276.042 364.886 287.956C373.38 286.92 383.066 283.844 392.65 278.759C408.935 270.12 420.582 257.981 423.898 247.52Z" fill="black"/>
<path d="M401.872 252.633L401.699 252.164L401.699 252.164L401.872 252.633ZM423.898 247.52L424.375 247.671L424.602 246.954L423.853 247.022L423.898 247.52ZM364.886 287.956L364.388 287.995L364.428 288.515L364.946 288.452L364.886 287.956ZM392.65 278.759L392.415 278.317L392.415 278.317L392.65 278.759ZM402.044 253.102C409.622 250.31 417.101 248.636 423.943 248.018L423.853 247.022C416.918 247.648 409.353 249.343 401.699 252.164L402.044 253.102ZM365.384 287.916C364.934 282.183 368.443 275.558 374.962 269.288C381.464 263.035 390.881 257.217 402.044 253.102L401.699 252.164C390.428 256.318 380.886 262.204 374.269 268.567C367.67 274.913 363.902 281.815 364.388 287.995L365.384 287.916ZM392.415 278.317C382.878 283.378 373.25 286.433 364.825 287.459L364.946 288.452C373.509 287.408 383.254 284.311 392.884 279.201L392.415 278.317ZM423.421 247.369C420.161 257.653 408.644 269.708 392.415 278.317L392.884 279.201C409.225 270.531 421.002 258.309 424.375 247.671L423.421 247.369Z" fill="black"/>
<path d="M400.641 195.947C400.641 195.947 406.412 199.592 407.802 200.471C419.752 208.022 417.199 233.519 402.098 257.42C386.995 281.325 365.063 294.579 353.113 287.028C351.551 286.045 345.952 282.504 345.952 282.504L400.641 195.947Z" fill="black" stroke="black" stroke-linejoin="round"/>
<path fill-rule="evenodd" clip-rule="evenodd" d="M390.556 272.356C377.253 286.399 362.26 292.807 353.113 287.028C351.552 286.045 345.953 282.503 345.953 282.503L362.66 256.06L390.556 272.356Z" fill="#A878FF"/>
<path d="M390.556 272.356L390.919 272.7L391.353 272.243L390.808 271.925L390.556 272.356ZM353.113 287.028L353.381 286.605L353.38 286.605L353.113 287.028ZM345.953 282.503L345.53 282.236L345.263 282.659L345.685 282.926L345.953 282.503ZM362.66 256.06L362.912 255.628L362.495 255.385L362.238 255.793L362.66 256.06ZM390.193 272.013C383.575 278.998 376.559 284.061 370.089 286.662C363.613 289.265 357.764 289.375 353.381 286.605L352.846 287.451C357.609 290.46 363.829 290.256 370.462 287.589C377.102 284.92 384.233 279.757 390.919 272.7L390.193 272.013ZM353.38 286.605C352.599 286.114 350.81 284.983 349.214 283.974C348.417 283.47 347.668 282.997 347.119 282.65C346.844 282.476 346.62 282.334 346.463 282.235C346.385 282.186 346.325 282.147 346.283 282.121C346.262 282.108 346.247 282.098 346.236 282.091C346.231 282.088 346.227 282.085 346.224 282.083C346.223 282.083 346.222 282.082 346.221 282.081C346.221 282.081 346.22 282.081 346.22 282.081C346.22 282.081 346.22 282.081 346.22 282.081C346.22 282.081 346.22 282.081 345.953 282.503C345.685 282.926 345.685 282.926 345.685 282.926C345.685 282.926 345.685 282.926 345.686 282.926C345.686 282.926 345.686 282.926 345.686 282.927C345.687 282.927 345.688 282.928 345.689 282.929C345.692 282.93 345.696 282.933 345.701 282.936C345.712 282.943 345.728 282.953 345.749 282.966C345.79 282.992 345.851 283.031 345.929 283.08C346.085 283.179 346.31 283.321 346.585 283.495C347.134 283.842 347.883 284.315 348.68 284.82C350.275 285.828 352.066 286.959 352.847 287.451L353.38 286.605ZM346.375 282.77L363.083 256.327L362.238 255.793L345.53 282.236L346.375 282.77ZM362.408 256.492L390.304 272.788L390.808 271.925L362.912 255.628L362.408 256.492Z" fill="black"/>
<path d="M351.276 225.072C366.378 201.172 388.309 187.917 400.259 195.468C412.209 203.019 409.656 228.516 394.555 252.417C379.452 276.322 357.52 289.576 345.57 282.025C333.62 274.475 336.174 248.972 351.276 225.072Z" fill="white" stroke="black"/>
<path fill-rule="evenodd" clip-rule="evenodd" d="M380.674 196.446C370.733 201.264 359.892 211.436 351.276 225.073C338.989 244.518 335.008 265.025 340.387 276.06C350.328 271.242 361.169 261.069 369.786 247.429C382.073 227.984 386.053 207.48 380.674 196.446Z" fill="black"/>
<path d="M351.276 225.073L350.853 224.805L351.276 225.073ZM380.674 196.446L381.123 196.227L380.904 195.779L380.456 195.996L380.674 196.446ZM340.387 276.06L339.937 276.279L340.156 276.728L340.605 276.51L340.387 276.06ZM369.786 247.429L369.363 247.162L369.363 247.162L369.786 247.429ZM351.698 225.34C360.28 211.758 371.057 201.663 380.892 196.896L380.456 195.996C370.409 200.866 359.505 211.113 350.853 224.805L351.698 225.34ZM340.836 275.841C338.215 270.465 337.848 262.707 339.696 253.822C341.541 244.951 345.583 235.019 351.698 225.34L350.853 224.805C344.682 234.572 340.589 244.616 338.717 253.618C336.847 262.607 337.179 270.62 339.937 276.279L340.836 275.841ZM369.363 247.162C360.781 260.747 350.004 270.843 340.169 275.61L340.605 276.51C350.652 271.64 361.556 261.391 370.209 247.696L369.363 247.162ZM380.224 196.666C382.845 202.041 383.213 209.798 381.365 218.682C379.52 227.551 375.479 237.483 369.363 247.162L370.209 247.696C376.38 237.93 380.472 227.887 382.344 218.885C384.214 209.897 383.882 201.885 381.123 196.227L380.224 196.666Z" fill="black"/>
<path d="M340.072 171.848C340.072 171.848 346.849 172.635 348.487 172.822C362.529 174.445 371.28 198.531 368.028 226.618C364.776 254.705 350.756 276.152 336.715 274.529C334.881 274.317 328.3 273.555 328.3 273.555L340.072 171.848Z" fill="#A878FF" stroke="black" stroke-linejoin="round"/>
<g style="mix-blend-mode:multiply">
<path fill-rule="evenodd" clip-rule="evenodd" d="M368.535 209.336L335.735 209.336L340.074 171.849C340.074 171.849 346.851 172.635 348.489 172.822C359.529 174.098 367.299 189.261 368.535 209.336Z" fill="black"/>
</g>
<path d="M307.992 219.455C311.243 191.373 325.264 169.921 339.305 171.545C353.346 173.168 362.098 197.254 358.846 225.341C355.594 253.428 341.573 274.88 327.532 273.257C313.486 271.628 304.74 247.542 307.992 219.455Z" fill="white" stroke="black"/>
<path d="M168.074 324.135C168.074 324.135 164.129 329.958 163.178 331.368C155.007 343.434 128.815 339.968 104.677 323.625C80.5391 307.277 67.5961 284.246 75.7678 272.18C76.8345 270.604 80.6636 264.947 80.6636 264.947L168.074 324.135Z" fill="black" stroke="black" stroke-linejoin="round"/>
<path fill-rule="evenodd" clip-rule="evenodd" d="M163.179 331.368C164.13 329.958 168.075 324.135 168.075 324.135L144.206 307.973L127.029 335.001C143.269 340.628 157.53 339.709 163.179 331.368Z" fill="#36FFFF"/>
<path d="M168.075 324.135L168.489 324.416L168.769 324.002L168.355 323.721L168.075 324.135ZM163.179 331.368L163.593 331.648L163.594 331.648L163.179 331.368ZM144.206 307.973L144.486 307.559L144.06 307.27L143.784 307.704L144.206 307.973ZM127.029 335.001L126.607 334.733L126.268 335.266L126.865 335.473L127.029 335.001ZM168.075 324.135C167.661 323.855 167.661 323.855 167.661 323.855C167.661 323.855 167.661 323.855 167.661 323.855C167.661 323.855 167.661 323.855 167.66 323.856C167.66 323.856 167.659 323.858 167.658 323.859C167.656 323.862 167.653 323.866 167.65 323.871C167.642 323.883 167.631 323.899 167.616 323.92C167.587 323.963 167.545 324.027 167.49 324.108C167.38 324.27 167.222 324.503 167.03 324.787C166.645 325.355 166.122 326.127 165.57 326.943C164.465 328.574 163.24 330.383 162.765 331.089L163.594 331.648C164.069 330.943 165.292 329.135 166.398 327.503C166.95 326.687 167.473 325.915 167.858 325.347C168.05 325.063 168.208 324.831 168.318 324.669C168.372 324.588 168.415 324.524 168.444 324.481C168.459 324.46 168.47 324.443 168.478 324.432C168.481 324.427 168.484 324.423 168.486 324.42C168.487 324.418 168.488 324.417 168.488 324.417C168.488 324.416 168.489 324.416 168.489 324.416C168.489 324.416 168.489 324.416 168.489 324.416C168.489 324.416 168.489 324.416 168.075 324.135ZM143.926 308.387L167.795 324.549L168.355 323.721L144.486 307.559L143.926 308.387ZM127.451 335.269L144.628 308.241L143.784 307.704L126.607 334.733L127.451 335.269ZM162.765 331.088C160.054 335.091 155.243 337.364 149.031 337.925C142.82 338.485 135.268 337.326 127.192 334.528L126.865 335.473C135.03 338.302 142.729 339.498 149.121 338.921C155.511 338.344 160.656 335.986 163.593 331.648L162.765 331.088Z" fill="black"/>
<path d="M138.878 272.425C163.01 288.768 175.953 311.799 167.781 323.871C159.61 335.937 133.418 332.471 109.28 316.128C85.1424 299.779 72.1994 276.748 80.3711 264.682C88.5481 252.616 114.74 256.082 138.878 272.425Z" fill="white" stroke="black"/>
<path fill-rule="evenodd" clip-rule="evenodd" d="M95.8191 257.534C107.639 256.941 123.665 262.127 138.875 272.425C157.984 285.367 170.077 302.501 170.226 315.067C158.408 315.658 142.385 310.473 127.176 300.175C108.064 287.231 95.9702 270.097 95.8191 257.534Z" fill="black"/>
<path d="M95.8191 257.534L95.794 257.034L95.3133 257.058L95.3191 257.54L95.8191 257.534ZM138.875 272.425L139.155 272.011L139.155 272.011L138.875 272.425ZM170.226 315.067L170.251 315.567L170.732 315.543L170.726 315.061L170.226 315.067ZM127.176 300.175L126.896 300.589L126.896 300.59L127.176 300.175ZM95.8441 258.033C107.52 257.448 123.439 262.578 138.594 272.839L139.155 272.011C123.89 261.675 107.758 256.435 95.794 257.034L95.8441 258.033ZM138.594 272.839C148.107 279.281 155.863 286.761 161.256 294.181C166.656 301.61 169.653 308.935 169.726 315.073L170.726 315.061C170.65 308.633 167.527 301.108 162.065 293.593C156.596 286.068 148.752 278.51 139.155 272.011L138.594 272.839ZM170.201 314.568C158.527 315.152 142.61 310.021 127.456 299.761L126.896 300.59C142.159 310.924 158.29 316.165 170.251 315.567L170.201 314.568ZM127.456 299.761C117.942 293.318 110.185 285.837 104.792 278.418C99.3913 270.988 96.3929 263.664 96.319 257.528L95.3191 257.54C95.3964 263.966 98.5204 271.491 103.983 279.006C109.452 286.53 117.298 294.089 126.896 300.589L127.456 299.761Z" fill="black"/>
<path d="M186.629 305.434C186.629 305.434 181.218 309.932 179.912 311.016C168.707 320.33 144.514 309.714 125.881 287.299C107.242 264.879 101.227 239.153 112.432 229.839C113.897 228.625 119.15 224.257 119.15 224.257L186.629 305.434Z" fill="black" stroke="black" stroke-linejoin="round"/>
<path fill-rule="evenodd" clip-rule="evenodd" d="M179.912 311.017C181.218 309.933 186.629 305.435 186.629 305.435L140.361 249.775L112.626 266.735C115.822 273.532 120.282 280.565 125.88 287.3C144.513 309.715 168.707 320.331 179.912 311.017Z" fill="#36FFFF"/>
<path d="M174.359 247.237C192.992 269.652 199.012 295.377 187.802 304.696C176.597 314.01 152.404 303.394 133.771 280.979C115.132 258.559 109.118 232.833 120.322 223.519C131.532 214.2 155.726 224.816 174.359 247.237Z" fill="white" stroke="black"/>
<path fill-rule="evenodd" clip-rule="evenodd" d="M170.8 307.221C169.86 291.865 159.905 278.702 149.267 264.636C139.476 251.691 129.107 237.981 124.653 221.092C136.997 216.785 157.859 227.382 174.36 247.237C192.993 269.652 199.013 295.378 187.803 304.697C183.622 308.172 177.634 308.872 170.8 307.221Z" fill="black"/>
<path d="M200.366 344.034C194.85 357.552 158.242 382.56 158.242 382.56L203.915 446.959C203.915 446.959 329.593 444.325 359.275 437.56C373.953 434.214 385.692 419.098 391.172 414.074C388.432 388.041 391.104 360.619 377.471 357.44C359.098 353.159 325.997 346.764 318.457 336.241C310.917 325.717 309.875 306.744 308.399 295.13L196.355 283.393C202.732 309.705 199.737 323.7 200.366 344.034Z" fill="white" stroke="black" stroke-miterlimit="10" stroke-linecap="round" stroke-linejoin="round"/>
<g style="mix-blend-mode:multiply">
<path d="M193.867 432.342L203.915 446.958C203.915 446.958 329.593 444.324 359.276 437.559C378.841 434.626 405.797 401.97 381.125 416.814C356.452 431.658 350.524 414.073 305.308 428.689C260.092 443.304 193.867 432.342 193.867 432.342Z" fill="#A878FF"/>
</g>
<path d="M314.596 257.994C317.669 257.348 325.552 252.78 326.423 242.066C327.001 234.975 337.519 218.03 335.188 207.759C332.744 197.005 320.922 193.567 311.146 203.264" fill="white"/>
<path d="M314.596 257.994C317.669 257.348 325.552 252.78 326.423 242.066C327.001 234.975 337.519 218.03 335.188 207.759C332.744 197.005 320.922 193.567 311.146 203.264" stroke="black" stroke-miterlimit="10" stroke-linecap="round" stroke-linejoin="round"/>
<path d="M317.243 236.593L313.072 239.605C313.072 239.605 316.382 236.201 313.072 229.557C309.575 216.77 313.386 210.917 315.088 208.793C327.687 202.61 328.601 213.091 328.601 213.091L323.303 213.989C321.513 214.293 320.05 215.586 319.528 217.325L318.358 221.223C317.967 222.528 318.745 223.895 320.067 224.225L320.533 224.341C321.73 224.64 322.502 225.801 322.315 227.02L322.052 228.729C321.567 231.889 319.834 234.721 317.243 236.593Z" fill="black"/>
<path d="M322.212 239.73C322.212 239.73 330.182 225.807 329.059 214.941C327.935 204.075 319.599 206.877 319.599 206.877" stroke="black" stroke-linecap="round"/>
<path d="M314.148 191.951C315.204 207.756 316.952 267.245 314.367 279.269C311.243 293.804 302.799 311.879 285.499 323.301C265.239 336.673 229.222 320.453 208.939 302.176C189.173 284.36 169.561 232.297 169.561 232.297V181.107L242.517 136.3L287.353 145.104L314.148 191.951Z" fill="white"/>
<path d="M294.854 169.185C294.854 169.185 311.246 246.912 302.791 284.575C296.852 303.47 284.887 315.188 266.093 318.357C247.608 321.475 228.724 310.002 209.963 289.421C197.788 276.061 169.561 220.594 169.561 220.594L169.561 160.942L270.087 136.3L294.854 169.185Z" fill="white" stroke="black" stroke-miterlimit="10" stroke-linecap="round" stroke-linejoin="round"/>
<path d="M314.147 191.951C315.204 207.756 316.951 267.245 314.367 279.269C311.243 293.804 302.798 311.879 285.499 323.301C265.238 336.673 235.859 330.156 215.913 310.21C195.967 290.264 188.663 273.971 188.663 273.971" stroke="black" stroke-miterlimit="10" stroke-linecap="round" stroke-linejoin="round"/>
<path d="M297.578 229.019C304.928 283.497 288.329 303.058 272.029 308.089C251.384 314.461 237.307 306.8 225.777 295.386C212.239 281.977 204.247 265.578 196.829 251.08C192.224 242.085 172.566 188.037 228.828 171.015C287.535 153.252 295.916 216.683 297.578 229.019Z" fill="black"/>
<g style="mix-blend-mode:multiply">
<path d="M200.463 325.06C200.463 325.06 211.567 366.647 233.603 360.18C252.357 354.68 267.898 355.385 274.708 343.738C276.69 340.348 279.732 332.777 282.472 325.06C266.487 326.382 259.636 322.729 255.069 318.618L251.415 304.003L229.035 198.956C229.035 198.956 203.915 193.932 216.704 175.206C229.492 156.48 247.304 150.086 247.304 150.086L229.035 145.062L175.142 182.97L172.401 237.777L167.377 236.864C167.377 236.864 183.338 263.378 187.016 270.662C193.965 284.423 199.032 290.548 197.521 288.474C201.632 308.113 200.463 325.06 200.463 325.06Z" fill="#A878FF"/>
</g>
<path d="M159.155 236.408L150.752 226.407C147.878 222.986 146.717 218.443 147.599 214.062L151.03 197.019L148.106 186.376C146.906 182.006 147.79 177.327 150.503 173.697L163.79 155.914L166.168 148.13C168.593 140.194 175.273 134.295 183.448 132.869L206.974 128.765L217.571 119.39C222.721 114.832 229.705 112.943 236.452 114.281L282.701 123.454C289.628 124.828 295.477 129.44 298.427 135.857L309.18 159.24L316.671 166.993C319.09 169.496 320.54 172.778 320.764 176.252L322.103 197.019L315.361 228.18L310.866 204.301L305.064 198.731C303.907 197.62 303.146 196.162 302.896 194.579L301.056 182.923L292.051 177.069C288.188 174.559 285.21 170.9 283.535 166.608L280.661 159.24L250.909 158.996C248.051 158.972 245.261 158.115 242.883 156.529L234.656 151.043L207.112 167.899L205.934 173.294C204.597 179.42 200.713 184.687 195.254 187.772L178.31 197.351C176.582 198.327 175.874 200.453 176.67 202.271L180.317 210.595C181.715 213.786 181.933 217.37 180.932 220.707L178.269 229.584L189.787 258.239L171.944 238.235L159.155 236.408Z" fill="white" stroke="black" stroke-miterlimit="10" stroke-linecap="round" stroke-linejoin="round"/>
<g style="mix-blend-mode:multiply">
<path d="M159.155 236.408L150.752 226.407C147.877 222.986 146.717 218.443 147.599 214.062L151.03 197.019L149.186 190.306C147.426 183.902 150.185 177.114 155.913 173.752L165.093 168.365L176.182 149.136C177.512 146.83 179.744 145.184 182.34 144.595L197.656 141.117C198.904 140.833 199.986 140.061 200.66 138.972L206.973 128.765L221.537 121.746C225.812 119.685 230.637 119.061 235.296 119.964L269.425 126.586C271.965 127.079 272.016 130.695 269.49 131.259L259.432 133.505C256.452 134.17 255.618 138.02 258.055 139.859L265.018 145.111C269.32 148.357 275.455 147.402 278.566 143.001L279.439 141.766C280.136 140.78 281.46 140.47 282.522 141.043L295.625 148.113C298.746 149.797 300.165 153.512 298.96 156.848L296.167 164.585C295.441 166.598 296.631 168.796 298.715 169.286L311.26 172.242C313.791 172.838 315.8 174.76 316.508 177.262L322.103 197.019L315.361 228.18L310.866 204.301L305.063 198.731C303.907 197.62 303.145 196.162 302.896 194.579L301.056 182.923L292.051 177.069C288.188 174.558 285.21 170.9 283.535 166.608L280.661 159.24L250.909 158.996C248.05 158.972 245.261 158.115 242.883 156.529L234.656 151.043L207.111 167.899L205.934 173.294C204.597 179.42 200.712 184.687 195.254 187.772L178.31 197.351C176.582 198.327 175.874 200.453 176.67 202.271L180.317 210.595C181.715 213.786 181.933 217.37 180.932 220.707L178.268 229.584L189.786 258.239L171.944 238.235L159.155 236.408Z" fill="#A878FF"/>
</g>
<path d="M211.94 310.721C228.633 327.925 227.102 353.455 248.217 366.575" stroke="black" stroke-miterlimit="10" stroke-linecap="round" stroke-linejoin="round"/>
<path d="M365.546 64.5231C365.546 82.209 351.209 96.5463 333.523 96.5463C315.837 96.5463 301.5 82.209 301.5 64.5231C301.5 46.8373 315.837 32.5 333.523 32.5C351.209 32.5 365.546 46.8373 365.546 64.5231Z" fill="white" stroke="black"/>
<g style="mix-blend-mode:multiply">
<path d="M333.523 97.0467C351.485 97.0467 366.046 82.4856 366.046 64.5236C349.629 64.5236 350.468 87.5768 330.525 87.5768C310.582 87.5768 301 76.2878 301 64.5236C301 82.4856 315.561 97.0467 333.523 97.0467Z" fill="#A878FF"/>
</g>
<path d="M83.632 146.658C74.9988 153.096 73.2194 165.314 79.6576 173.947C86.0958 182.58 98.3136 184.36 106.947 177.921C115.58 171.483 117.359 159.265 110.921 150.632C104.483 141.999 92.2652 140.22 83.632 146.658Z" fill="white"/>
<g style="mix-blend-mode:multiply">
<path d="M83.6317 146.657C74.9985 153.096 73.2191 165.313 79.6573 173.947C87.5479 168.062 78.8817 157.283 88.4671 150.134C98.0525 142.986 106.704 144.977 110.921 150.632C104.483 141.999 92.2649 140.219 83.6317 146.657Z" fill="#36FFFF"/>
</g>
<path d="M268.651 382.56C260.525 382.56 255.931 377.118 253.105 372.039C250.278 366.96 266.884 378.207 274.658 372.765C282.431 367.323 276.778 382.56 268.651 382.56Z" fill="#A878FF"/>
<path d="M523.626 160.134L519.058 153.802L422.106 153.802C414.952 153.802 408.244 150.328 404.116 144.485L381.235 112.1C377.799 107.237 381.277 100.521 387.231 100.521L480.486 100.521L524.539 155.11L523.626 160.134Z" fill="black" stroke="black" stroke-miterlimit="10" stroke-linejoin="round"/>
<path d="M517.231 149.93C512.546 149.93 450.044 149.93 423.899 149.93C416.746 149.93 410.071 146.456 405.943 140.613L383.062 108.228C379.626 103.365 383.104 96.6492 389.058 96.6492L476.916 96.6492C483.16 96.6492 488.997 99.684 492.569 104.805C501.961 118.267 519.909 143.995 522.255 147.346C525.452 151.913 524.539 155.11 524.539 155.11C524.539 155.11 523.169 149.93 517.231 149.93Z" fill="white" stroke="black" stroke-miterlimit="10" stroke-linejoin="round"/>
<path d="M171.487 238.234C168.747 236.407 161.439 233.667 155.501 236.864C149.564 240.061 146.862 243.121 146.824 249.196C146.722 265.123 167.274 270.3 173.314 277.97C177.066 282.734 180.884 284.75 184.732 284.638C187.763 284.549 190.814 283.139 193.866 280.71" fill="#A878FF"/>
<path d="M171.487 238.234C168.747 236.407 161.439 233.667 155.501 236.864C149.564 240.061 146.862 243.121 146.824 249.196C146.722 265.123 167.274 270.3 173.314 277.97C177.066 282.734 180.884 284.75 184.732 284.638C187.763 284.549 190.814 283.139 193.866 280.71" stroke="black" stroke-miterlimit="10" stroke-linecap="round" stroke-linejoin="round"/>
<path d="M174.726 266.838L179.709 267.921C179.709 267.921 176.512 266.094 178.339 259.244C176.969 246.912 173.315 243.258 169.204 241.888C154.133 239.604 151.849 249.196 151.849 249.196L162.489 247.295C163.853 247.052 165.256 247.413 166.333 248.285L171.13 252.168C172.532 253.303 172.217 255.523 170.554 256.223L167.873 257.352C166.615 257.882 166.067 259.363 166.677 260.583C168.275 263.779 171.235 266.079 174.726 266.838Z" fill="black"/>
<path d="M173.772 272.032C173.772 272.032 156.873 264.724 152.763 254.676C148.652 244.628 160.07 241.888 160.07 241.888C160.07 241.888 173.671 238.691 176.513 249.652C179.354 260.614 176.889 260.614 177.883 264.724C179.048 269.544 185.647 269.748 185.647 269.748" stroke="black" stroke-linecap="round"/>
<path d="M205.742 367.488C205.742 367.488 200.261 356.069 200.261 344.195" stroke="black" stroke-linecap="round"/>
<path d="M436.155 121.401C440.189 127.775 437.344 132.942 429.801 132.942C422.258 132.942 412.872 127.775 408.838 121.401C404.804 115.027 407.649 109.86 415.192 109.86C422.735 109.86 432.121 115.027 436.155 121.401Z" fill="white" stroke="black"/>
<circle cx="5.63686" cy="5.63686" r="5.63686" transform="matrix(1 0 0.534795 0.844982 413.845 116.638)" fill="#A878FF"/>
<path d="M219.444 126.793L204.372 129.076" stroke="black" stroke-linecap="round"/>
<path d="M150.936 196.672L153.676 207.633" stroke="black" stroke-linecap="round"/>
<path d="M167.18 431.898C169.513 430.834 171.1 428.603 171.339 426.049L175.084 386.063C175.321 383.526 174.193 381.054 172.122 379.571L139.465 356.194C137.382 354.703 134.66 354.438 132.328 355.5L95.5918 372.233C93.2557 373.297 91.6677 375.53 91.4294 378.086L87.7018 418.066C87.4657 420.599 88.5903 423.066 90.6565 424.55L123.273 447.962C125.358 449.459 128.085 449.726 130.421 448.661L167.18 431.898Z" fill="white"/>
<path d="M167.18 431.898C169.513 430.834 171.1 428.603 171.339 426.049L175.084 386.063C175.321 383.526 174.193 381.054 172.122 379.571L139.465 356.194C137.382 354.703 134.66 354.438 132.328 355.5L95.5918 372.233C93.2557 373.297 91.6677 375.53 91.4294 378.086L87.7018 418.066C87.4657 420.599 88.5903 423.066 90.6565 424.55L123.273 447.962C125.358 449.459 128.085 449.726 130.421 448.661L167.18 431.898Z" stroke="black" stroke-miterlimit="10" stroke-linejoin="round"/>
<path d="M135.234 403.363C133.862 402.374 133.115 400.732 133.272 399.047L136.603 363.251C136.774 361.413 138.878 360.456 140.376 361.536L169.463 382.5C170.836 383.489 171.582 385.131 171.426 386.816L168.094 422.608C167.923 424.446 165.819 425.403 164.322 424.323L135.234 403.363Z" fill="#36FFFF"/>
<path d="M131.408 441.552L104.068 422.039L127.568 411.335L132.856 415.11L117.068 422.302L122.629 426.271L136.082 420.144L141.37 423.919L127.917 430.046L139.12 438.04L131.408 441.552Z" fill="black"/>
<path d="M145.07 381.669L167.122 397.407L166.31 405.849L144.257 390.111L143.247 400.601L137.959 396.826L140.798 367.399L146.085 371.174L145.07 381.669Z" fill="black"/>
<path d="M126.233 364.684L123.117 397.91L115.831 401.229L108.924 389.338L106.597 384.013L106.467 384.071L104.373 406.451L98.0976 409.306L101.208 376.08L108.494 372.761L115.406 384.652L117.723 389.983L117.863 389.918L119.957 367.538L126.233 364.684Z" fill="black"/>
<path d="M240.455 130.447L231.584 138.304C228.02 141.46 228.471 147.151 232.487 149.708L234.517 150.999" stroke="black" stroke-linecap="round" stroke-linejoin="round"/>
<path d="M160.536 169.228L163.99 155.412" stroke="black" stroke-linecap="round" stroke-linejoin="round"/>
<path d="M294.805 152.369L291.01 156.749C289.65 158.318 287.675 159.22 285.598 159.22H280.647" stroke="black" stroke-linecap="round" stroke-linejoin="round"/>
<rect x="259.751" y="195.812" width="8.22108" height="8.22108" transform="rotate(-16.5182 259.751 195.812)" stroke="#36FFFF" stroke-linejoin="round"/>
<path d="M203.46 199.063L219.15 194.392L221.487 202.274L205.797 206.945L203.46 199.063Z" fill="#A878FF" stroke="#A878FF" stroke-linejoin="round"/>
<rect x="233.529" y="282.114" width="8.22108" height="8.22108" transform="rotate(-16.5182 233.529 282.114)" fill="#A878FF" stroke="#A878FF" stroke-linejoin="round"/>
<rect x="244.565" y="288.071" width="8.22108" height="8.22108" transform="rotate(-16.5182 244.565 288.071)" fill="#36FFFF" stroke="#36FFFF" stroke-linejoin="round"/>
<path fill-rule="evenodd" clip-rule="evenodd" d="M253.002 205.102L245.127 207.438L243.821 203.114L235.926 205.58L237.251 209.774L229.376 212.109L230.544 216.047L222.668 218.382L223.836 222.32L219.406 223.634L221.741 231.509L217.804 232.677L220.139 240.552L216.202 241.72L218.537 249.595L222.475 248.428L224.81 256.303L228.748 255.135L231.084 263.011L235.513 261.697L236.681 265.635L244.557 263.299L245.724 267.237L253.6 264.901L254.622 268.347L262.497 266.011L261.475 262.566L269.351 260.23L268.183 256.293L276.058 253.957L274.89 250.019L278.828 248.852L276.493 240.976L280.43 239.808L278.095 231.933L282.032 230.765L279.697 222.89L275.759 224.057L273.424 216.182L269.486 217.35L267.151 209.474L263.213 210.642L262.045 206.705L254.17 209.04L253.002 205.102Z" fill="#36FFFF" stroke="#36FFFF" stroke-linejoin="round"/>
<path fill-rule="evenodd" clip-rule="evenodd" d="M258.402 223.314L252.987 224.92L255.323 232.795L260.737 231.189L258.402 223.314ZM234.775 230.321L240.189 228.715L242.525 236.591L237.11 238.196L234.775 230.321ZM256.51 245.831L256.51 245.831L248.635 248.166L248.635 248.166L244.698 249.333L243.968 246.873L240.03 248.041L241.344 252.471L245.281 251.303L246.011 253.763L249.948 252.596L249.949 252.596L257.823 250.261L257.823 250.261L261.761 249.093L260.447 244.663L256.51 245.831ZM238.717 243.611L240.031 248.041L236.093 249.208L234.779 244.778L238.717 243.611ZM267.595 239.866L266.281 235.436L262.343 236.603L263.657 241.033L267.595 239.866ZM263.657 241.034L264.971 245.464L261.033 246.632L259.719 242.202L263.657 241.034Z" fill="black"/>
<path fill-rule="evenodd" clip-rule="evenodd" d="M502.189 293.648C502.129 293.785 501.809 294.48 501.023 295.927C500.398 297.079 499.924 297.856 499.756 298.127C497.173 302.35 494.713 304.768 493.926 303.684C493.138 302.6 494.287 298.377 496.536 293.694L499.102 297.226C499.277 296.959 499.772 296.184 500.397 295.033C501.148 293.65 501.474 292.892 501.533 292.753L498.968 289.223C501.547 285.013 504.005 282.603 504.79 283.683C505.575 284.764 504.431 288.98 502.186 293.653L502.189 293.648ZM498.706 288.852L496.409 285.691L499.775 279.494L496.274 274.674L487.11 291.549L490.611 296.368L493.976 290.173L496.271 293.332C493.732 298.638 492.521 303.59 493.535 304.985C494.548 306.38 497.451 303.757 500.383 298.99L507.741 309.119L510.173 304.641L502.812 294.509C505.345 289.212 506.554 284.269 505.542 282.876C504.528 281.481 501.631 284.097 498.706 288.852Z" fill="black"/>
<path d="M478.348 323.808L464.574 319.873L468.229 341.318L476.58 337.357L478.348 323.808Z" fill="black"/>
<path d="M469.337 342.93L483.11 346.865L479.455 325.42L477.774 339.094L469.337 342.93Z" fill="black"/>
<path d="M524.996 249.258C524.011 250.229 523.337 249.681 522.985 249.262C522.233 248.368 521.854 246.974 522.161 246.089C522.491 245.137 523.427 245.193 524.193 246.116C524.259 246.194 524.336 246.2 524.371 246.134L525.212 244.553C525.251 244.479 525.226 244.342 525.155 244.251C523.804 242.524 522.187 241.989 521.137 242.796L519.719 240.88C519.65 240.787 519.563 240.771 519.525 240.844L518.685 242.423C518.647 242.495 518.671 242.629 518.739 242.722L520.158 244.638C519.821 246.481 520.466 249.034 521.841 250.893C523.368 252.955 525.058 253.335 526.48 251.933C527.466 250.963 528.14 251.511 528.492 251.93C529.244 252.824 529.622 254.218 529.314 255.101C528.984 256.053 528.048 255.997 527.282 255.074C527.216 254.996 527.139 254.99 527.104 255.056L526.263 256.637C526.224 256.711 526.249 256.848 526.32 256.939C527.671 258.666 529.288 259.201 530.338 258.394L531.761 260.316C531.829 260.408 531.916 260.424 531.954 260.352L532.793 258.774C532.832 258.702 532.807 258.568 532.739 258.476L531.317 256.553C531.653 254.71 531.008 252.157 529.633 250.299C528.107 248.234 526.417 247.855 524.996 249.258Z" fill="black"/>
<path d="M532.576 263.665C532.52 263.59 532.451 263.564 532.406 263.602C529.488 265.993 524.866 264.41 521.101 259.324C517.337 254.237 515.601 247.226 516.601 242.245C516.617 242.169 516.59 242.064 516.534 241.989L515.006 239.925C514.927 239.817 514.825 239.815 514.799 239.923C513.332 245.98 515.42 254.813 520.122 261.166C524.824 267.519 530.631 269.355 534.14 266.056C534.203 265.998 534.185 265.839 534.105 265.731L532.576 263.665Z" fill="black"/>
<path d="M517.375 235.465L518.904 237.531C518.96 237.606 519.029 237.632 519.074 237.594C521.991 235.201 526.613 236.784 530.378 241.87C534.142 246.957 535.878 253.968 534.878 258.949C534.862 259.025 534.889 259.13 534.945 259.205L536.474 261.271C536.554 261.379 536.655 261.381 536.681 261.273C538.147 255.214 536.059 246.381 531.357 240.028C526.655 233.675 520.847 231.839 517.339 235.138C517.278 235.196 517.295 235.357 517.375 235.465Z" fill="black"/>
<path d="M453.981 369.098C453.706 367.546 453.147 366.1 452.378 364.951C451.401 363.506 450.159 362.628 448.901 362.492C447.643 362.355 446.462 362.971 445.593 364.216L443.622 361.259L442.118 363.804L444.081 366.75L443.303 368.054L441.341 365.109L439.838 367.655L441.792 370.587L440.079 373.457L442.419 376.968L443.733 374.764L452.007 387.179L450.692 389.383L453.042 392.91L454.755 390.04L456.714 392.981L458.226 390.447L456.266 387.506L457.044 386.203L459.004 389.143L460.515 386.61L458.556 383.669L459.184 382.616C460.98 379.605 460.802 374.895 458.539 371.498C457.913 370.561 457.171 369.852 456.376 369.434C455.581 369.016 454.759 368.9 453.981 369.098ZM457.285 376.922C457.331 377.748 457.169 378.527 456.834 379.089L453.916 383.979L450.953 379.533L453.87 374.642C454.194 374.085 454.663 373.784 455.174 373.804C455.685 373.824 456.197 374.164 456.598 374.749C456.794 375.04 456.955 375.382 457.073 375.755C457.191 376.128 457.263 376.525 457.285 376.922ZM450.673 372.541L448.605 376.009L445.642 371.564L447.711 368.096C448.037 367.55 448.505 367.261 449.013 367.292C449.521 367.323 450.027 367.671 450.42 368.261C450.813 368.85 451.06 369.632 451.108 370.435C451.155 371.237 450.999 371.995 450.673 372.541Z" fill="black"/>
</svg>
