<svg width="240" height="80" viewBox="0 0 240 80" fill="none" xmlns="http://www.w3.org/2000/svg">
<rect x="0.5" y="0.5" width="239" height="79" fill="#17171A"/>
<path fill-rule="evenodd" clip-rule="evenodd" d="M56.8195 41.1385L65.6618 50.2917C65.7679 50.4001 65.8526 50.529 65.9105 50.6712C65.9685 50.8133 65.9989 50.9659 66 51.1202C66.001 51.2745 65.9727 51.4275 65.9165 51.5705C65.8605 51.7135 65.7777 51.8436 65.673 51.9535L65.0242 52.6227C64.8418 52.8206 64.6009 52.9497 64.3397 52.9897C64.1672 53.0135 63.9916 52.9957 63.8269 52.9377C63.6622 52.8796 63.5126 52.7829 63.39 52.6551L52.5923 41.4778C52.4044 41.2837 52.2556 41.0534 52.1539 40.7998C52.0523 40.5461 52 40.2742 52 39.9996C52 39.725 52.0523 39.4531 52.1539 39.1994C52.2556 38.9458 52.4044 38.7153 52.5923 38.5213L63.39 27.3441C63.4951 27.235 63.6201 27.1485 63.7576 27.0894C63.8951 27.0304 64.0426 27 64.1914 27C64.3403 27 64.4877 27.0304 64.6252 27.0894C64.7628 27.1485 64.8877 27.235 64.993 27.3441L65.6618 28.048C65.7671 28.1569 65.8507 28.2862 65.9078 28.4286C65.9649 28.5709 65.9942 28.7235 65.9942 28.8777C65.9942 29.0318 65.9649 29.1844 65.9078 29.3268C65.8507 29.4691 65.7671 29.5985 65.6618 29.7074L56.8195 38.8629C56.5295 39.1655 56.3667 39.5745 56.3667 40.0008C56.3667 40.4269 56.5295 40.8359 56.8195 41.1385ZM45.1802 38.8726L36.3412 29.717C36.234 29.6085 36.1486 29.4791 36.09 29.3362C36.0314 29.1933 36.0008 29.0398 36 28.8846C35.9992 28.7294 36.0281 28.5755 36.0852 28.4319C36.1422 28.2884 36.2262 28.158 36.3323 28.0483L36.9786 27.3767C37.1627 27.1802 37.4037 27.0513 37.6651 27.0098C37.8375 26.9866 38.0128 27.0048 38.1773 27.0628C38.3419 27.1208 38.4915 27.2171 38.6145 27.3444L49.4079 38.5218C49.5957 38.7158 49.7445 38.9462 49.8462 39.1999C49.9477 39.4536 50 39.7255 50 40.0001C50 40.2747 49.9477 40.5465 49.8462 40.8003C49.7445 41.0539 49.5957 41.2843 49.4079 41.4784L38.6145 52.6558C38.5091 52.7648 38.3841 52.8514 38.2464 52.9106C38.1087 52.9696 37.9612 53 37.8121 53C37.6631 53 37.5156 52.9696 37.3779 52.9106C37.2403 52.8514 37.1152 52.7648 37.0098 52.6558L36.3412 51.9634C36.2358 51.8543 36.1522 51.7247 36.0952 51.5822C36.0381 51.4396 36.0088 51.2867 36.0088 51.1324C36.0088 50.9781 36.0381 50.8254 36.0952 50.6828C36.1522 50.5403 36.2358 50.4107 36.3412 50.3016L45.1802 41.1483C45.4701 40.8456 45.6327 40.4367 45.6327 40.0104C45.6327 39.5842 45.4701 39.1752 45.1802 38.8726Z" fill="#9D9DA6"/>
<path fill-rule="evenodd" clip-rule="evenodd" d="M111.302 38.269C110.64 37.8364 109.864 37.6108 109.072 37.621C108.427 37.6107 107.79 37.7683 107.224 38.0784C106.863 38.2696 106.54 38.5254 106.271 38.833V33.2373H104.174V46.9601H106.271V45.963C106.537 46.2646 106.853 46.5182 107.205 46.7123C107.781 47.0118 108.423 47.1625 109.072 47.1508C109.861 47.1615 110.636 46.9429 111.302 46.5217C111.971 46.1072 112.517 45.5215 112.884 44.8255C113.283 44.0816 113.486 43.2487 113.475 42.4049C113.489 41.5608 113.286 40.7271 112.884 39.9844C112.522 39.2802 111.975 38.6875 111.302 38.269ZM110.978 43.8344C110.771 44.2432 110.455 44.5864 110.064 44.8255C109.659 45.0616 109.198 45.1814 108.729 45.1721C108.255 45.18 107.788 45.0603 107.376 44.8255C106.985 44.5869 106.668 44.2436 106.461 43.8344C106.238 43.3847 106.127 42.8878 106.137 42.3859C106.127 41.884 106.238 41.387 106.461 40.9373C106.665 40.5309 106.983 40.1931 107.376 39.9653C107.784 39.7198 108.253 39.5942 108.729 39.6032C109.2 39.5927 109.663 39.7184 110.064 39.9653C110.456 40.1936 110.774 40.5313 110.978 40.9373C111.215 41.383 111.334 41.8815 111.325 42.3859C111.334 42.8903 111.215 43.3887 110.978 43.8344ZM88.5575 45.0546C89.3707 45.0546 90.0568 44.9339 90.616 44.6925C91.1643 44.4536 91.6566 44.1023 92.061 43.6615L93.5477 45.1482C92.933 45.774 92.2012 46.2727 91.3939 46.6157C90.568 46.9715 89.6215 47.1494 88.554 47.1494C87.6336 47.158 86.7207 46.983 85.8684 46.6348C85.0643 46.2905 84.3367 45.7897 83.728 45.1614C83.1195 44.5331 82.6419 43.79 82.3234 42.9753C81.9901 42.1195 81.8219 41.2082 81.8278 40.2897C81.8209 39.3766 81.9898 38.4707 82.3251 37.6214C82.6419 36.8032 83.1211 36.0576 83.7338 35.4296C84.3596 34.7856 85.1101 34.2761 85.9395 33.932C86.7689 33.5879 87.6598 33.4165 88.5575 33.4283C89.6381 33.4277 90.5715 33.6068 91.3576 33.9654C92.1391 34.3156 92.85 34.8053 93.4558 35.4105L91.9693 36.8971C91.566 36.4587 91.0715 36.1139 90.5207 35.887C89.9627 35.6456 89.3084 35.5248 88.5575 35.5248C87.9369 35.5182 87.3213 35.6361 86.7469 35.8714C86.2057 36.0954 85.7183 36.432 85.3174 36.859C84.9143 37.294 84.6037 37.8062 84.4043 38.3647C84.1828 38.982 84.0731 39.6339 84.0803 40.2897C84.0729 40.9443 84.1821 41.595 84.4026 42.2113C84.6053 42.7742 84.916 43.2923 85.3174 43.7361C85.7224 44.1544 86.209 44.4853 86.7469 44.7081C87.3213 44.9434 87.9369 45.0612 88.5575 45.0546ZM95.8859 37.8114L98.2293 43.7718L100.708 37.8114H103.033L98.783 47.0553L97.0866 50.7718H94.7614L97.058 46.04L93.5797 37.8114H95.8859ZM119.362 37.6193C120.216 37.6187 120.966 37.8156 121.614 38.2101C122.266 38.5972 122.798 39.1566 123.151 39.8267C123.541 40.5458 123.738 41.3533 123.723 42.171C123.723 42.3307 123.71 42.4899 123.685 42.6475C123.67 42.8204 123.644 42.9922 123.609 43.1621H116.785C116.839 43.3941 116.923 43.6182 117.033 43.8292C117.253 44.2523 117.591 44.6031 118.005 44.8394C118.451 45.0757 118.949 45.195 119.454 45.1859C119.899 45.1916 120.341 45.1073 120.753 44.9381C121.149 44.7813 121.501 44.5331 121.782 44.2138L123.117 45.5671C122.678 46.0839 122.123 46.4888 121.497 46.7487C120.857 47.0166 120.17 47.1528 119.476 47.149C118.612 47.1624 117.759 46.9536 116.999 46.5425C116.265 46.1278 115.659 45.522 115.243 44.7897C114.826 44.0576 114.616 43.2262 114.635 42.3841C114.625 41.7589 114.741 41.1382 114.974 40.5581C115.208 39.9781 115.555 39.4507 115.996 39.0068C116.436 38.5629 116.961 38.2115 117.539 37.9732C118.117 37.7349 118.737 37.6146 119.362 37.6193ZM117.938 39.8874C117.545 40.1156 117.227 40.4535 117.023 40.8595L117.021 40.8611C116.924 41.0467 116.849 41.2433 116.799 41.4468H121.667C121.618 41.1959 121.537 40.9524 121.426 40.7226C121.247 40.3543 120.961 40.0486 120.606 39.8458C120.264 39.6425 119.838 39.5408 119.329 39.5408C118.843 39.53 118.362 39.6496 117.938 39.8874ZM131.129 37.8692C130.738 37.6994 130.316 37.6149 129.89 37.6215C128.85 37.6215 128.069 37.9836 127.546 38.7078C127.537 38.7192 127.53 38.731 127.522 38.7428L127.507 38.7642V37.8112H125.411V46.9606H127.507V41.8718C127.507 41.084 127.698 40.5064 128.079 40.139C128.46 39.7717 128.943 39.5875 129.528 39.5863C129.768 39.5818 130.007 39.6205 130.233 39.7007C130.445 39.7825 130.634 39.9131 130.786 40.0819L132.162 38.6697C131.881 38.3297 131.528 38.0563 131.129 37.8692ZM139.854 45.0546C140.668 45.0546 141.354 44.9339 141.913 44.6925C142.462 44.4537 142.955 44.1024 143.36 43.6615L144.846 45.1482C144.232 45.7738 143.5 46.2725 142.693 46.6157C141.867 46.9715 140.92 47.1494 139.853 47.1494C138.932 47.158 138.019 46.983 137.167 46.6348C136.363 46.2905 135.635 45.7896 135.027 45.1614C134.418 44.5331 133.941 43.79 133.622 42.9753C133.289 42.1194 133.121 41.2082 133.126 40.2897C133.119 39.3767 133.287 38.4708 133.622 37.6214C133.939 36.803 134.419 36.0574 135.032 35.4295C135.658 34.7858 136.408 34.2764 137.237 33.9323C138.066 33.5882 138.957 33.4167 139.854 33.4283C140.934 33.4277 141.868 33.6068 142.656 33.9654C143.437 34.3158 144.147 34.8054 144.753 35.4105L143.266 36.8971C142.863 36.4586 142.368 36.1138 141.818 35.887C141.26 35.6455 140.605 35.5248 139.854 35.5248C139.234 35.5182 138.618 35.636 138.044 35.8714C137.503 36.0953 137.015 36.432 136.614 36.859C136.211 37.2938 135.899 37.806 135.699 38.3647C135.478 38.982 135.368 39.6339 135.375 40.2897C135.369 40.9443 135.478 41.595 135.699 42.2112C135.902 42.7742 136.213 43.2923 136.614 43.736C137.019 44.1544 137.506 44.4853 138.044 44.7081C138.618 44.9434 139.234 45.0612 139.854 45.0546ZM152.89 38.2505C152.148 37.8265 151.305 37.6093 150.451 37.6216C149.6 37.6111 148.762 37.8353 148.03 38.2696C147.318 38.6782 146.721 39.2621 146.297 39.9659C145.873 40.6947 145.655 41.5256 145.667 42.3691C145.656 43.2178 145.873 44.0537 146.296 44.7897C146.718 45.504 147.314 46.0999 148.028 46.5224C148.573 46.8439 149.176 47.0541 149.802 47.1409C150.429 47.2278 151.066 47.1895 151.678 47.0285C152.289 46.8673 152.863 46.5865 153.365 46.2022C153.867 45.8179 154.288 45.3378 154.604 44.7897C155.038 44.0577 155.263 43.2203 155.254 42.3691C155.265 41.5239 155.041 40.6921 154.606 39.9676C154.197 39.2529 153.605 38.6602 152.89 38.2505ZM152.757 43.7951C152.547 44.2079 152.222 44.5518 151.823 44.7862C151.405 45.0223 150.931 45.142 150.451 45.1328C149.971 45.1391 149.498 45.0196 149.078 44.7862C148.685 44.5447 148.362 44.2027 148.144 43.7951C147.923 43.3518 147.811 42.8613 147.82 42.3656C147.81 41.8759 147.921 41.3913 148.144 40.9553C148.363 40.5586 148.686 40.2292 149.078 40.0022C149.494 39.7582 149.969 39.6329 150.451 39.6402C150.933 39.6298 151.409 39.7553 151.823 40.0022C152.215 40.2295 152.538 40.5588 152.757 40.9553C152.993 41.3873 153.113 41.8733 153.103 42.3656C153.111 42.8644 152.992 43.357 152.757 43.7968V43.7951ZM161.819 37.6215C162.469 37.6107 163.106 37.7968 163.649 38.1552C164.178 38.4919 164.612 38.9584 164.91 39.5102C165.206 40.0328 165.361 40.6232 165.36 41.2238V46.9607H163.264V41.6812C163.264 41.0719 163.068 40.5699 162.677 40.1755C162.295 39.7816 161.8 39.5847 161.19 39.5847C160.811 39.5781 160.437 39.67 160.104 39.8515C159.791 40.0247 159.533 40.2823 159.36 40.5948C159.179 40.9277 159.087 41.3021 159.093 41.6812V46.9607H156.997V37.8121H159.093V38.8474C159.344 38.5457 159.648 38.2918 159.989 38.098C160.545 37.7777 161.177 37.6131 161.819 37.6215ZM174.146 38.1552C173.604 37.7968 172.966 37.6107 172.316 37.6215C171.675 37.6131 171.043 37.7777 170.487 38.098C170.145 38.2916 169.84 38.5455 169.588 38.8474V37.8121H167.491V46.9607H169.588V41.6812C169.582 41.3021 169.674 40.9277 169.855 40.5948C170.028 40.2823 170.286 40.0247 170.598 39.8515C170.931 39.67 171.306 39.5781 171.685 39.5847C172.295 39.5847 172.79 39.7816 173.171 40.1755C173.566 40.5694 173.763 41.0714 173.763 41.6812V46.9607H175.858V41.2238C175.857 40.6221 175.7 40.031 175.402 39.5084C175.104 38.958 174.673 38.4923 174.146 38.1552ZM182.125 37.6193C182.978 37.6187 183.73 37.8156 184.377 38.2101C185.028 38.5977 185.56 39.157 185.915 39.8267C186.304 40.5458 186.501 41.3533 186.486 42.171C186.486 42.3305 186.473 42.4899 186.448 42.6475C186.432 42.8204 186.406 42.9921 186.371 43.1621H179.548C179.602 43.3941 179.685 43.6182 179.796 43.8292C180.017 44.2523 180.354 44.6031 180.768 44.8394C181.214 45.0757 181.712 45.1951 182.216 45.1859C182.662 45.1914 183.104 45.1072 183.516 44.9381C183.912 44.7808 184.264 44.5327 184.546 44.2138L185.88 45.5671C185.44 46.0835 184.885 46.4885 184.26 46.7487C183.62 47.0164 182.933 47.1525 182.24 47.149C181.375 47.1625 180.523 46.9537 179.762 46.5425C179.029 46.1278 178.422 45.522 178.006 44.7897C177.59 44.0576 177.379 43.2262 177.399 42.3841C177.388 41.7589 177.504 41.1382 177.738 40.5581C177.971 39.9781 178.318 39.4507 178.758 39.0068C179.199 38.5629 179.723 38.2115 180.302 37.9732C180.88 37.7349 181.5 37.6146 182.125 37.6193ZM180.701 39.8874C180.308 40.1151 179.99 40.4531 179.785 40.8595L179.784 40.8611C179.687 41.0465 179.613 41.2432 179.563 41.4468H184.429C184.381 41.1959 184.3 40.9523 184.189 40.7226C184.01 40.3544 183.724 40.0489 183.37 39.8458C183.025 39.6425 182.6 39.5408 182.092 39.5408C181.605 39.5298 181.126 39.6495 180.701 39.8874ZM190.994 40.0035C191.417 39.7577 191.898 39.6324 192.386 39.6414C192.805 39.6361 193.221 39.7206 193.606 39.8891C193.984 40.039 194.318 40.2815 194.578 40.5944L195.95 39.203C195.521 38.6956 194.977 38.2961 194.365 38.0369C193.744 37.7546 193.066 37.6115 192.384 37.6176C191.523 37.6068 190.674 37.8238 189.924 38.2465C189.21 38.6557 188.619 39.2478 188.209 39.9619C187.784 40.6967 187.566 41.5335 187.58 42.3824C187.57 43.231 187.787 44.0669 188.209 44.803C188.619 45.5171 189.21 46.1092 189.924 46.5184C190.6 46.8885 191.35 47.1014 192.119 47.1409C192.888 47.1806 193.655 47.0459 194.365 46.747C194.975 46.477 195.515 46.0731 195.947 45.5653L194.576 44.1741C194.313 44.4885 193.979 44.7367 193.603 44.8983C193.216 45.0543 192.801 45.132 192.384 45.127C191.898 45.1349 191.418 45.0154 190.991 44.7805C190.601 44.5427 190.28 44.2079 190.058 43.8085C189.836 43.3651 189.725 42.8746 189.734 42.379C189.721 41.8831 189.833 41.3918 190.058 40.9495C190.279 40.5551 190.603 40.228 190.994 40.0035ZM200.8 37.8119H202.992V39.7179H200.8V46.9605H198.703V39.7179H196.511V37.8119H198.703V34H200.8V37.8119Z" fill="#9D9DA6"/>
<rect x="0.5" y="0.5" width="239" height="79" stroke="#2E2E33"/>
</svg>
