<svg width="240" height="80" viewBox="0 0 240 80" fill="none" xmlns="http://www.w3.org/2000/svg">
<rect x="0.5" y="0.5" width="239" height="79" fill="#17171A"/>
<g clip-path="url(#clip0_33149_130765)">
<path d="M53.8451 39.8982C53.8451 45.9438 48.731 51.3206 42.4226 51.3206C36.1141 51.3206 31.4761 45.9438 31.4761 39.8982C31.4761 33.8526 36.1141 28.9517 42.4226 28.9517C48.731 28.9517 53.8451 33.8526 53.8451 39.8982Z" fill="#707076"/>
<path d="M76.4934 28.6543C78.4466 27.9459 80.767 27.8374 82.8058 28.3382C85.7356 29.0581 87.4206 31.0395 88.0488 33.8869C88.8897 37.6983 88.2929 42.8328 84.2728 44.7348C82.1745 45.7281 79.3105 45.7887 77.1423 45.1647C72.4691 43.8188 71.4319 38.8909 72.058 34.6757C72.4555 32.0015 73.8494 29.6142 76.4934 28.6543ZM79.492 28.6721C75.3415 28.8442 72.9281 31.3588 72.5797 35.4603C72.178 40.1972 73.6909 44.2862 78.914 44.8705C83.0134 45.3296 86.5849 43.8156 87.4613 39.4512C87.8119 37.7067 87.8251 35.9587 87.501 34.2072C86.7237 30.0076 83.4788 28.5062 79.492 28.6721Z" fill="#9D9DA6"/>
<path d="M169.43 28.0523C173.309 28.1806 176.036 29.9366 176.925 33.8096C177.893 38.0249 177.031 43.729 172.114 45.1344C170.102 45.7093 167.814 45.7198 165.809 45.0938C163.039 44.2277 161.418 41.8645 160.968 39.0411C160.622 36.8657 160.728 34.4857 161.555 32.4595C162.924 29.1071 166.009 27.9396 169.43 28.0523ZM169.942 28.694C165.495 28.431 162.039 30.2538 161.526 35.0158C161.021 39.7172 162.283 44.2225 167.694 44.86C168.852 44.9964 169.962 44.9678 171.022 44.7745C175.461 43.9648 176.857 40.1534 176.619 36.0821C176.375 31.8794 174.441 28.9611 169.942 28.694Z" fill="#9D9DA6"/>
<path d="M184.194 28.4424C186.434 27.8007 189.342 27.8675 191.442 28.8931C195.601 30.9225 196.045 36.7258 194.869 40.5789C193.558 44.8797 189.099 46.1099 185.113 45.368C182.462 44.8756 180.513 43.3846 179.577 40.7803C178.774 38.5475 178.764 35.8222 179.326 33.5633C179.961 31.0164 181.673 29.1634 184.194 28.4424ZM193.213 31.1114C191.438 28.8879 188.652 28.481 185.967 28.7293C182.503 29.0496 180.264 31.1865 179.742 34.6004C179.094 38.8313 180.053 43.7185 184.98 44.7034C189.345 45.5767 193.564 44.2089 194.532 39.401C195.048 36.8384 194.915 33.244 193.213 31.1114Z" fill="#9D9DA6"/>
<path d="M97.4106 32.4605C95.4533 33.0479 95.1371 35.7064 95.2279 37.3758C95.3333 39.3061 95.8988 41.1101 98.1629 41.2666C99.5663 41.3626 100.917 40.9129 102.233 40.3714C102.551 40.2399 102.914 40.2253 102.914 40.676C102.914 41.8509 102.916 43.025 102.919 44.1985C102.919 44.4249 102.84 44.5772 102.618 44.6669C100.357 45.5816 98.0854 45.8056 95.8018 45.3389C91.9945 44.5595 90.3929 41.5493 90.0861 37.9466C89.915 35.9401 90.2249 33.6979 91.2067 31.9158C93.6514 27.4773 99.319 27.2853 103.437 29.2479C103.469 29.2632 103.493 29.2865 103.509 29.3178C103.583 29.4587 103.622 29.5912 103.56 29.7508C103.12 30.893 102.68 32.0348 102.24 33.1762C102.229 33.2075 102.209 33.2329 102.182 33.2524C102.049 33.3491 101.928 33.3717 101.819 33.3202C100.522 32.7067 98.7921 32.0463 97.4106 32.4605ZM94.7459 35.1472C95.0025 33.7459 95.7684 32.3353 97.1675 31.8856C98.6439 31.4109 100.4 32.0066 101.747 32.6159C101.778 32.6299 101.799 32.6212 101.812 32.5899L102.909 29.7425C102.922 29.7112 102.912 29.6886 102.881 29.6747C101.084 28.8678 99.223 28.5555 97.2969 28.7377C91.863 29.2521 90.1091 34.1341 90.8165 38.8741C91.3684 42.5718 93.6127 44.7202 97.3835 44.9205C99.039 45.0081 100.656 44.7608 102.234 44.1786C102.27 44.1654 102.288 44.1393 102.288 44.1004V41.0673C102.288 41.027 102.27 41.0141 102.232 41.0287C100.423 41.7476 98.3372 42.3726 96.5384 41.4398C94.4819 40.3735 94.3911 37.0889 94.7459 35.1472Z" fill="#9D9DA6"/>
<path d="M67.1615 38.0122C68.6452 40.2234 70.1184 42.4427 71.5812 44.67C71.8337 45.055 71.6522 45.3179 71.2254 45.3179C69.6513 45.3207 68.0765 45.321 66.501 45.3189C66.4245 45.3189 66.3372 45.296 66.2391 45.2501C66.2057 45.2341 66.18 45.2104 66.1619 45.1791L62.8304 39.4207C62.8221 39.4062 62.8101 39.3941 62.7957 39.3856C62.7812 39.3772 62.7647 39.3727 62.748 39.3727H62.2513C62.2152 39.3727 62.1971 39.3905 62.1971 39.4259C62.1964 41.2783 62.1964 43.1299 62.1971 44.9809C62.1971 45.2302 61.9519 45.3179 61.7234 45.3179C60.3336 45.3207 58.9438 45.321 57.5541 45.3189C57.2765 45.3189 57.1628 45.0685 57.1628 44.8077C57.1621 39.4399 57.1611 34.072 57.1597 28.7042C57.1597 28.4121 57.3085 28.2667 57.6062 28.2681C60.3983 28.2785 62.1634 28.2851 62.9014 28.2879C65.6256 28.2983 69.075 29.0287 69.6541 32.259C70.0951 34.7179 69.2694 36.6113 67.1771 37.9391C67.1465 37.9586 67.1413 37.983 67.1615 38.0122ZM66.4791 37.695C66.4951 37.6407 66.5278 37.6007 66.5772 37.575C68.5919 36.5337 69.4746 34.5429 69.0333 32.3289C68.4605 29.4554 65.3168 28.9087 62.8774 28.916C61.1892 28.9209 59.5118 28.9178 57.8452 28.9066C57.8076 28.9066 57.7888 28.9254 57.7888 28.963V44.6418C57.7888 44.6556 57.7943 44.6689 57.8041 44.6787C57.8139 44.6885 57.8272 44.6939 57.841 44.6939H61.5178C61.5526 44.6939 61.57 44.6766 61.57 44.6418C61.5721 42.8388 61.5725 41.0362 61.5711 39.234C61.5711 38.5589 62.3411 38.7342 62.9201 38.754C63.0673 38.7582 63.1956 38.826 63.2759 38.9648C64.3687 40.8609 65.4646 42.7571 66.5636 44.6533C66.5789 44.6804 66.6026 44.6939 66.6346 44.6939H70.806C70.8116 44.6939 70.817 44.6923 70.8218 44.6895C70.8265 44.6866 70.8304 44.6825 70.8331 44.6776C70.8358 44.6727 70.8371 44.6672 70.8369 44.6616C70.8367 44.6561 70.835 44.6507 70.8321 44.646C69.4159 42.5098 67.9937 40.3806 66.5657 38.2584C66.4495 38.0852 66.4207 37.8974 66.4791 37.695Z" fill="#9D9DA6"/>
<path d="M110.579 34.5292C110.586 34.4923 110.6 34.4582 110.621 34.4269C111.999 32.4125 113.362 30.4064 114.711 28.4087C114.737 28.3715 114.771 28.341 114.81 28.3199C114.85 28.2988 114.895 28.2877 114.94 28.2877C116.55 28.2856 118.159 28.2856 119.765 28.2877C119.895 28.2877 119.982 28.366 120.028 28.5225C120.103 28.777 119.993 28.8699 119.862 29.0567C118.264 31.3535 116.662 33.6479 115.056 35.9398C115.037 35.9676 115.035 35.9962 115.051 36.0254C116.655 38.8974 118.256 41.7733 119.856 44.6531C120.093 45.0798 119.954 45.3156 119.477 45.3166C117.889 45.3215 116.3 45.3215 114.711 45.3166C114.5 45.3166 114.415 45.109 114.327 44.94C113.349 43.041 112.374 41.1407 111.403 39.239C111.389 39.2105 111.368 39.2045 111.341 39.2212L110.578 39.6762C110.547 39.6949 110.531 39.7224 110.531 39.7586C110.531 41.4454 110.531 43.1301 110.531 44.8127C110.531 45.0589 110.423 45.3166 110.16 45.3177C108.728 45.3212 107.295 45.3215 105.862 45.3187C105.581 45.3177 105.471 45.0715 105.471 44.8085C105.47 39.4164 105.471 34.0242 105.472 28.632C105.472 28.3545 105.7 28.2908 105.945 28.2898C107.344 28.2849 108.742 28.2853 110.14 28.2908C110.397 28.2922 110.525 28.4213 110.525 28.6779C110.529 30.6297 110.531 32.5812 110.531 34.5323C110.531 34.5379 110.534 34.5417 110.539 34.5438C110.549 34.5473 110.558 34.548 110.566 34.5459C110.573 34.5438 110.577 34.5382 110.579 34.5292ZM110.311 35.9231C110.042 35.9315 109.907 35.7854 109.906 35.4849C109.906 33.307 109.905 31.1323 109.905 28.9607C109.905 28.9287 109.889 28.9127 109.857 28.9127H106.149C106.114 28.9127 106.097 28.9301 106.097 28.9648V44.6416C106.097 44.6764 106.114 44.6937 106.149 44.6937H109.853C109.867 44.6937 109.881 44.6881 109.891 44.6782C109.901 44.6682 109.906 44.6546 109.906 44.6405C109.904 42.9656 109.905 41.2903 109.907 39.6146C109.907 39.2327 110.988 38.7256 111.299 38.5503C111.521 38.4251 111.681 38.4575 111.778 38.6474C112.808 40.6486 113.834 42.6477 114.856 44.6447C114.873 44.6774 114.9 44.6937 114.937 44.6937H119.11C119.116 44.6936 119.123 44.6918 119.128 44.6886C119.134 44.6853 119.138 44.6807 119.142 44.6752C119.145 44.6696 119.147 44.6633 119.147 44.6569C119.147 44.6505 119.145 44.6441 119.142 44.6384C117.591 41.845 116.038 39.0557 114.486 36.2706C114.288 35.9158 114.422 35.7729 114.626 35.4828C116.146 33.307 117.665 31.1306 119.181 28.9534C119.2 28.9262 119.194 28.9127 119.16 28.9127H115.17C115.133 28.9127 115.104 28.928 115.083 28.9586L110.39 35.8793C110.371 35.9078 110.345 35.9224 110.311 35.9231Z" fill="#9D9DA6"/>
<path d="M126.052 38.7162V41.0116C126.052 41.0478 126.07 41.0659 126.106 41.0659C127.726 41.0701 129.34 41.0711 130.947 41.069C131.243 41.069 131.318 41.3507 131.319 41.6126C131.321 42.681 131.322 43.748 131.321 44.8137C131.32 45.0537 131.2 45.3176 130.949 45.3176C127.769 45.3204 124.589 45.3208 121.409 45.3187C121.131 45.3187 121.017 45.0683 121.017 44.8074C121.017 39.4306 121.017 34.054 121.018 28.6779C121.018 28.4115 121.157 28.2786 121.435 28.2793C124.609 28.2835 127.782 28.2859 130.956 28.2866C131.24 28.2866 131.317 28.5454 131.318 28.7999C131.322 29.86 131.323 30.9204 131.321 31.9812C131.32 32.2212 131.2 32.4841 130.948 32.4841C129.335 32.4855 127.72 32.4862 126.105 32.4862C126.069 32.4862 126.052 32.5039 126.052 32.5394V34.3601C126.052 34.3956 126.07 34.4137 126.106 34.4144C127.594 34.4192 129.078 34.4199 130.557 34.4164C130.853 34.4164 130.924 34.7002 130.925 34.9621C130.931 36.0166 130.932 37.0715 130.928 38.1267C130.927 38.4126 130.823 38.6494 130.512 38.6463C129.047 38.6289 127.581 38.631 126.115 38.6525C126.073 38.6532 126.052 38.6745 126.052 38.7162ZM125.516 38.1434C125.535 38.1051 125.564 38.0729 125.6 38.0504C125.637 38.0279 125.678 38.016 125.721 38.0161H130.251C130.286 38.0161 130.303 37.9987 130.303 37.9639V35.0957C130.303 35.0609 130.286 35.0435 130.25 35.0435C128.792 35.0414 127.334 35.0411 125.875 35.0425C125.654 35.0425 125.432 34.8776 125.43 34.67C125.424 33.9021 125.423 33.1338 125.428 32.3652C125.429 32.1158 125.516 31.857 125.793 31.8581C127.404 31.865 129.02 31.8643 130.642 31.856C130.677 31.856 130.695 31.8386 130.695 31.8038V28.9648C130.695 28.93 130.677 28.9126 130.643 28.9126H121.683C121.657 28.9126 121.643 28.9258 121.643 28.9523V44.6415C121.643 44.6554 121.649 44.6686 121.659 44.6784C121.669 44.6882 121.682 44.6937 121.696 44.6937H130.643C130.677 44.6937 130.695 44.6763 130.695 44.6415V41.7482C130.695 41.7128 130.677 41.695 130.643 41.695C129.072 41.6929 127.501 41.6926 125.931 41.694C125.695 41.695 125.426 41.5771 125.426 41.3288C125.426 40.3626 125.426 39.3965 125.426 38.4303C125.426 38.3208 125.47 38.2394 125.516 38.1434Z" fill="#9D9DA6"/>
<path d="M141.337 32.577C141.344 32.5839 141.351 32.5909 141.358 32.5979C141.362 32.6013 141.363 32.6055 141.363 32.6104C141.363 36.7248 141.363 40.8395 141.363 44.9546C141.363 45.2571 141.051 45.3135 140.787 45.3156C138.805 45.3281 137.443 45.3277 136.702 45.3145C136.396 45.3093 136.303 45.0912 136.303 44.8074C136.303 40.7431 136.303 36.6792 136.303 32.6156C136.303 32.5808 136.286 32.5634 136.251 32.5634C135.079 32.5662 133.907 32.5652 132.735 32.5603C132.403 32.5592 132.344 32.2723 132.342 31.9823C132.335 30.8658 132.335 29.7494 132.343 28.633C132.346 28.3753 132.6 28.2866 132.836 28.2866C136.888 28.2866 140.939 28.2866 144.989 28.2866C145.235 28.2866 145.323 28.5683 145.324 28.7927C145.331 29.9258 145.331 31.0592 145.324 32.193C145.323 32.433 145.176 32.554 144.885 32.5561C143.704 32.5624 142.524 32.5645 141.344 32.5624C141.329 32.5624 141.327 32.5672 141.337 32.577ZM136.582 31.9405C136.774 31.9405 136.928 32.0908 136.928 32.2838C136.929 36.4072 136.93 40.5272 136.929 44.6436C136.929 44.6569 136.934 44.6696 136.944 44.679C136.953 44.6884 136.966 44.6937 136.979 44.6937H140.687C140.701 44.6937 140.713 44.6884 140.723 44.679C140.732 44.6696 140.737 44.6569 140.737 44.6436C140.737 40.5724 140.737 36.5043 140.738 32.4393C140.738 32.2055 140.792 31.9499 141.056 31.9426C141.553 31.9294 142.75 31.9304 144.648 31.9457C144.686 31.9457 144.704 31.9273 144.704 31.8904L144.701 28.9648C144.701 28.93 144.684 28.9126 144.65 28.9126H133.016C132.982 28.9126 132.964 28.93 132.964 28.9648L132.963 31.8769C132.963 31.9179 132.984 31.9384 133.025 31.9384C134.216 31.9384 135.401 31.9391 136.582 31.9405Z" fill="#9D9DA6"/>
<path d="M152.032 39.9634C152.032 41.6015 152.031 43.2392 152.031 44.8766C152.031 45.1716 151.883 45.319 151.588 45.319C150.189 45.3204 148.789 45.3204 147.389 45.319C147.108 45.319 146.997 45.0718 146.997 44.8088C146.997 39.4167 146.997 34.0245 146.998 28.6323C146.998 28.3548 147.227 28.2901 147.472 28.2901C149.305 28.2845 151.138 28.2817 152.971 28.2817C155.871 28.2817 158.632 29.2928 159.305 32.4093C159.501 33.3122 159.51 34.246 159.332 35.2108C158.838 37.9048 157.153 39.2622 154.524 39.7735C153.695 39.9352 152.9 39.8768 152.091 39.9018C152.052 39.9032 152.032 39.9237 152.032 39.9634ZM151.406 39.6681C151.406 39.4114 151.578 39.2768 151.823 39.2821C152.587 39.2988 153.35 39.2685 154.11 39.1913C157.45 38.8532 158.957 36.5828 158.793 33.3411C158.621 29.9386 155.84 28.9046 152.92 28.9119C151.169 28.9161 149.421 28.9158 147.677 28.9109C147.641 28.9109 147.623 28.9286 147.623 28.9641V44.6419C147.623 44.6557 147.629 44.669 147.639 44.6788C147.649 44.6886 147.662 44.694 147.676 44.694H151.352C151.387 44.694 151.405 44.6767 151.405 44.6419C151.407 42.9808 151.407 41.3229 151.406 39.6681Z" fill="#9D9DA6"/>
<path d="M209 41.4657V45.0132C208.942 45.217 208.826 45.3189 208.655 45.3189C205.135 45.3203 201.616 45.3203 198.097 45.3189C197.816 45.3189 197.705 45.0706 197.705 44.8087C197.705 39.4165 197.705 34.0244 197.706 28.6322C197.706 28.3557 197.934 28.29 198.179 28.2889C199.578 28.2861 200.976 28.2854 202.375 28.2868C202.634 28.2879 202.739 28.5581 202.739 28.7991C202.74 32.8801 202.74 36.9642 202.74 41.0515C202.74 41.0628 202.744 41.0737 202.752 41.0817C202.76 41.0898 202.77 41.0943 202.781 41.0943C204.683 41.095 206.588 41.0946 208.495 41.0932C208.783 41.0932 208.936 41.1882 209 41.4657ZM202.288 41.6525C202.162 41.5064 202.113 41.3749 202.113 41.1694C202.114 37.1037 202.114 33.0359 202.114 28.9661C202.114 28.9306 202.096 28.9129 202.06 28.9129H198.384C198.349 28.9129 198.331 28.9302 198.331 28.965V44.6418C198.331 44.6556 198.337 44.6689 198.347 44.6786C198.357 44.6884 198.37 44.6939 198.384 44.6939H208.322C208.357 44.6939 208.374 44.6765 208.374 44.6418V41.7725C208.374 41.7586 208.368 41.7454 208.359 41.7356C208.349 41.7258 208.336 41.7203 208.322 41.7203H202.436C202.408 41.7203 202.38 41.7142 202.355 41.7025C202.329 41.6908 202.306 41.6737 202.288 41.6525Z" fill="#9D9DA6"/>
<path d="M54.5594 40.1093C54.5594 41.6542 54.2551 43.1839 53.6639 44.6112C53.0727 46.0385 52.2062 47.3353 51.1138 48.4277C50.0214 49.5201 48.7245 50.3867 47.2972 50.9779C45.87 51.5691 44.3402 51.8734 42.7953 51.8734C39.6753 51.8734 36.6831 50.6339 34.4769 48.4277C32.2707 46.2215 31.0313 43.2293 31.0312 40.1093C31.0312 36.9893 32.2707 33.997 34.4769 31.7908C36.6831 29.5846 39.6753 28.3452 42.7953 28.3452C44.3402 28.3452 45.87 28.6495 47.2972 29.2407C48.7245 29.8319 50.0214 30.6984 51.1138 31.7908C52.2062 32.8832 53.0727 34.1801 53.6639 35.6074C54.2551 37.0347 54.5594 38.5644 54.5594 40.1093ZM34.1082 33.7645C31.2744 37.7116 31.3401 42.8377 34.2908 46.7066C34.3582 46.8575 34.4612 46.9618 34.5996 47.0196C34.6316 47.2046 34.7345 47.3336 34.9084 47.4067C34.9794 47.5625 35.1025 47.6508 35.2778 47.6717C35.2409 47.879 35.3279 47.992 35.5386 48.0108C35.6305 48.1589 35.7532 48.2539 35.9069 48.2956C36.4641 48.8458 37.158 49.3233 37.9885 49.7282C40.5601 50.9837 43.1967 51.2098 45.8983 50.4064C48.9589 49.4409 51.1688 47.5388 52.5279 44.7001C55.2063 39.1035 52.4497 32.2193 46.6224 30.0532C42.041 28.3515 37.014 29.8205 34.1082 33.7645Z" fill="#9D9DA6"/>
<path d="M80.4299 28.887C81.3063 28.9203 82.0102 28.9982 82.5417 29.1207C85.1762 29.7258 86.7757 31.607 87.2703 34.2123C88.0653 38.4036 87.2692 43.6006 82.2015 44.5345C79.5774 45.0186 76.487 44.7181 74.5838 42.6668C73.0052 40.964 72.6776 38.5455 72.7412 36.3179C72.88 31.5142 75.4738 28.6971 80.4299 28.887ZM83.2439 40.3057C84.1287 38.4871 84.09 35.9089 83.5318 34.0016C82.9955 32.1642 81.3981 31.2679 79.542 31.5371C78.0426 31.7552 77.0566 32.7548 76.6769 34.2113C76.0081 36.7707 75.9893 41.4043 79.4741 42.0022C80.9255 42.2516 82.5813 41.6673 83.2439 40.3057Z" fill="#9D9DA6"/>
<path d="M169.456 28.8866C170.228 28.9207 170.876 28.9986 171.4 29.1203C174.437 29.8267 175.97 32.0585 176.328 35.0665C176.569 37.099 176.443 39.5635 175.5 41.3664C173.843 44.5404 170.213 45.1205 167.006 44.5414C162.397 43.7099 161.285 39.3767 161.7 35.3274C162.152 30.9055 164.969 28.6894 169.456 28.8866ZM172.221 40.1269C173.023 38.2749 172.994 35.6842 172.358 33.7853C171.748 31.9708 169.93 31.1747 168.126 31.5952C165.053 32.312 164.953 36.4897 165.442 38.8769C165.742 40.3398 166.48 41.4937 167.986 41.9163C169.613 42.3733 171.524 41.7358 172.221 40.1269Z" fill="#9D9DA6"/>
<path d="M185.707 28.9629C189.021 28.5695 192.457 29.2936 193.875 32.6763C194.637 34.4907 194.702 36.7423 194.446 38.6966C193.83 43.4074 190.352 45.1029 185.978 44.6626C181.454 44.2066 179.7 40.8595 179.778 36.6046C179.85 32.7024 181.421 29.4731 185.707 28.9629ZM189.684 41.1172C191.291 39.5479 191.164 35.9097 190.565 33.9429C189.976 32.0085 188.167 31.1623 186.255 31.5995C184.772 31.9386 183.957 33.1176 183.643 34.4938C183.131 36.7381 183.119 40.993 185.962 41.8549C187.242 42.2419 188.716 42.0614 189.684 41.1172Z" fill="#9D9DA6"/>
<path d="M96.6161 31.8886C94.0348 33.2168 93.8762 38.0936 95.1064 40.2816C96.5201 42.795 99.7087 42.288 102.004 41.3291C102.055 41.3082 102.08 41.3253 102.08 41.3802V43.9375C102.08 43.9772 102.062 44.0043 102.024 44.0189C100.443 44.6387 98.6549 44.8255 96.9865 44.6731C93.6456 44.3674 91.5432 42.338 91.0383 38.9825C90.6334 36.2917 90.911 33.0916 92.885 31.007C95.3756 28.3777 99.5094 28.4538 102.635 29.7862C102.643 29.7893 102.649 29.7951 102.652 29.8025C102.656 29.8099 102.656 29.8183 102.653 29.8259L101.691 32.3091C101.677 32.3453 101.653 32.3554 101.617 32.3394C100.154 31.6706 98.1363 31.1061 96.6161 31.8886Z" fill="#9D9DA6"/>
<path d="M63.4425 38.8312C63.2567 38.5088 62.6036 38.5098 62.2895 38.5255C61.6854 38.5568 61.363 38.5923 61.363 39.2705C61.363 40.9906 61.3623 42.7112 61.3609 44.432C61.3609 44.4675 61.3435 44.4853 61.3087 44.4853H58.0492C58.0354 44.4853 58.0221 44.4798 58.0124 44.47C58.0026 44.4602 57.9971 44.4469 57.9971 44.4331V29.1758C57.9971 29.1431 58.0134 29.1264 58.0461 29.1257C59.6675 29.1181 61.2851 29.1153 62.8989 29.1174C66.0248 29.1215 69.2301 30.022 68.9035 33.9232C68.7783 35.4152 67.9404 36.4951 66.703 37.2703C66.2763 37.5395 66.0592 37.84 66.3681 38.3053C67.7231 40.3483 69.0798 42.3929 70.4383 44.4394C70.4413 44.4437 70.443 44.4488 70.4433 44.4541C70.4435 44.4593 70.4423 44.4646 70.4397 44.4693C70.4372 44.474 70.4333 44.478 70.4287 44.4808C70.424 44.4836 70.4187 44.4851 70.4132 44.4853H66.7625C66.7291 44.4853 66.7037 44.4707 66.6863 44.4414C65.6033 42.571 64.522 40.7009 63.4425 38.8312ZM63.9673 31.6361C63.3892 31.4952 62.3678 31.3429 61.796 31.5025C61.515 31.5804 61.3717 31.8041 61.3661 32.1734C61.3564 32.7897 61.356 33.8529 61.3651 35.363C61.3703 36.2207 61.7 36.1956 62.4711 36.2269C63.6083 36.2749 64.8114 35.9264 65.2798 34.8403C65.8193 33.5862 65.4478 31.9981 63.9673 31.6361Z" fill="#9D9DA6"/>
<path d="M114.451 35.362C114.208 35.7105 114.069 35.9494 114.292 36.349C115.786 39.0361 117.282 41.7283 118.78 44.4258C118.803 44.4655 118.791 44.4853 118.745 44.4853H115.065C115.028 44.4853 115.001 44.469 114.984 44.4363C113.983 42.4657 112.975 40.502 111.961 38.5454C111.794 38.223 111.409 38.2459 111.109 38.4097C110.453 38.7676 109.699 39.0618 109.699 39.7536C109.697 41.3131 109.697 42.8726 109.697 44.4321C109.697 44.4676 109.679 44.4853 109.642 44.4853H106.384C106.332 44.4853 106.306 44.4592 106.306 44.407V29.1738C106.306 29.139 106.323 29.1216 106.358 29.1216H109.643C109.678 29.1216 109.696 29.1393 109.696 29.1748C109.697 31.3033 109.698 33.4307 109.698 35.5571C109.698 36.1665 110.4 36.3324 110.741 35.7762C111.014 35.3311 111.299 34.8932 111.595 34.4626C112.803 32.6986 114.006 30.9318 115.205 29.1623C115.223 29.1351 115.249 29.1216 115.281 29.1216H118.747C118.787 29.1216 118.796 29.1379 118.773 29.1706C117.332 31.2351 115.891 33.2989 114.451 35.362Z" fill="#9D9DA6"/>
<path d="M125.942 31.6528C125.52 31.6528 125.224 31.8114 125.22 32.282C125.214 32.9887 125.214 33.6944 125.22 34.399C125.225 34.9812 125.389 35.2504 125.985 35.2514C127.336 35.2535 128.687 35.2528 130.037 35.2493C130.076 35.2486 130.095 35.2678 130.095 35.3067V37.7545C130.095 37.7893 130.077 37.8066 130.042 37.8066C128.632 37.808 127.224 37.8087 125.816 37.8087C125.284 37.8087 125.219 38.2303 125.218 38.6873C125.217 39.5428 125.217 40.3974 125.218 41.2508C125.219 41.6654 125.436 41.8748 125.869 41.8789C127.392 41.8929 128.914 41.9026 130.437 41.9082C130.47 41.9082 130.486 41.9249 130.486 41.9582V44.4206C130.486 44.4637 130.464 44.4853 130.42 44.4853H121.904C121.89 44.4853 121.877 44.4798 121.867 44.47C121.858 44.4602 121.852 44.447 121.852 44.4331V29.1738C121.852 29.139 121.869 29.1216 121.904 29.1216H130.434C130.469 29.1216 130.486 29.139 130.486 29.1738V31.5954C130.486 31.6316 130.468 31.6497 130.432 31.6497C128.931 31.6539 127.435 31.6549 125.942 31.6528Z" fill="#9D9DA6"/>
<path d="M137.137 32.3832C137.137 31.8667 136.815 31.7165 136.355 31.7217C135.309 31.7335 134.266 31.7352 133.226 31.7269C133.19 31.7262 133.172 31.7085 133.172 31.6737V29.1738C133.172 29.139 133.19 29.1216 133.225 29.1216H144.441C144.455 29.1216 144.468 29.1271 144.478 29.1369C144.487 29.1466 144.493 29.1599 144.493 29.1738V31.6779C144.493 31.7168 144.474 31.7363 144.435 31.7363C143.339 31.7245 142.246 31.7224 141.154 31.73C140.635 31.7332 140.529 32.0639 140.529 32.5313C140.529 36.4983 140.528 40.4652 140.528 44.4321C140.528 44.4676 140.51 44.4853 140.474 44.4853H137.195C137.158 44.4853 137.139 44.4672 137.139 44.431C137.134 40.412 137.134 36.396 137.137 32.3832Z" fill="#9D9DA6"/>
<path d="M151.875 39.0524C151.556 39.0409 151.2 39.2548 151.199 39.6148C151.196 41.223 151.196 42.8343 151.198 44.4487C151.198 44.4584 151.194 44.4677 151.187 44.4746C151.18 44.4814 151.171 44.4853 151.161 44.4853H147.884C147.87 44.4853 147.857 44.4798 147.847 44.47C147.838 44.4602 147.832 44.4469 147.832 44.4331V29.1748C147.832 29.1414 147.849 29.1247 147.882 29.1247C149.608 29.117 151.33 29.1181 153.048 29.1278C155.429 29.1414 157.857 29.854 158.468 32.4384C158.895 34.2414 158.521 36.5441 157.017 37.8337C155.586 39.0608 153.651 39.116 151.875 39.0524ZM155.155 33.5309C154.918 31.7832 153.513 31.6517 152.031 31.6736C151.53 31.681 151.207 31.8114 151.203 32.3581C151.195 33.4627 151.194 34.5676 151.2 35.6729C151.202 36.0757 151.29 36.4137 151.726 36.4648C153.005 36.614 154.405 36.2843 154.964 34.9613C155.159 34.4988 155.223 34.0219 155.155 33.5309Z" fill="#9D9DA6"/>
<path d="M201.913 41.2498C201.913 41.6369 202.157 41.9269 202.536 41.928C204.398 41.9294 206.262 41.9297 208.129 41.929C208.138 41.929 208.148 41.9328 208.154 41.9394C208.161 41.9461 208.165 41.9551 208.165 41.9645V44.4196C208.165 44.4634 208.144 44.4853 208.1 44.4853H198.592C198.578 44.4853 198.565 44.4798 198.555 44.47C198.546 44.4602 198.54 44.447 198.54 44.4331V29.1738C198.54 29.139 198.557 29.1216 198.592 29.1216H201.848C201.883 29.1216 201.901 29.1393 201.901 29.1748C201.907 33.2029 201.911 37.2279 201.913 41.2498Z" fill="#9D9DA6"/>
<path d="M64.5245 32.1152C65.4406 32.6849 65.4563 34.0674 65.0097 34.9083C64.4452 35.9715 62.9501 36.1374 61.8911 35.9882C61.626 35.9507 61.577 35.6919 61.5749 35.4446C61.561 33.8121 61.5624 32.6849 61.5791 32.063C61.5937 31.5132 62.6068 31.6707 62.9772 31.6749C63.549 31.6826 64.0648 31.8293 64.5245 32.1152ZM64.6664 33.4142C64.5245 32.2686 63.093 32.2655 62.2427 32.3114C62.2121 32.3128 62.1968 32.3288 62.1968 32.3594V35.3027C62.1968 35.3403 62.2155 35.3608 62.2531 35.3643C63.6074 35.4801 64.8741 35.0909 64.6664 33.4142Z" fill="#9D9DA6"/>
<path d="M83.2208 33.7405C83.9637 35.653 84.0659 39.8432 82.2108 41.2111C81.399 41.809 80.268 41.9696 79.2852 41.7443C77.815 41.4073 77.0575 40.3075 76.7644 38.8948C76.3825 37.0574 76.3481 33.8292 77.935 32.4593C78.9367 31.5953 80.5456 31.4879 81.7027 32.0263C82.3962 32.349 82.9022 32.9204 83.2208 33.7405ZM83.0799 36.4679C83.0549 34.9456 82.7544 32.9538 81.0307 32.4311C80.2106 32.1828 79.1287 32.3226 78.4442 32.8484C77.0649 33.9095 77.0586 36.6526 77.2527 38.1801C77.4509 39.7378 78.1489 41.0859 79.8945 41.2142C82.7846 41.426 83.1143 38.6277 83.0799 36.4679Z" fill="#9D9DA6"/>
<path d="M172.586 37.1815C172.527 38.7925 172.244 40.6997 170.636 41.4875C169.354 42.1156 167.461 41.932 166.517 40.7728C165.427 39.4362 165.33 37.2295 165.518 35.5632C165.703 33.9345 166.295 32.2901 168.02 31.8352C168.953 31.589 169.812 31.6526 170.597 32.0262C172.393 32.8828 172.653 35.3806 172.586 37.1815ZM171.974 36.328C171.921 34.6669 171.509 32.5625 169.458 32.3423C166.366 32.0116 165.931 35.1657 166.086 37.3995C166.191 38.9271 166.535 40.7665 168.309 41.1369C171.584 41.8203 172.049 38.6902 171.974 36.328Z" fill="#9D9DA6"/>
<path d="M190.741 37.1817C190.652 39.6357 189.915 41.9895 186.913 41.8309C184.922 41.7256 184.032 40.2607 183.735 38.4358C183.435 36.6015 183.484 33.2346 185.418 32.1609C186.635 31.4859 188.249 31.5266 189.344 32.4134C190.606 33.437 190.797 35.6281 190.741 37.1817ZM190.13 36.3282C190.084 34.6504 189.655 32.6378 187.711 32.3581C184.259 31.8636 184.055 35.6896 184.301 38.0414C184.445 39.4218 184.968 40.821 186.465 41.135C189.747 41.8247 190.194 38.6873 190.13 36.3282Z" fill="#9D9DA6"/>
<path d="M152.18 31.8902C153.444 31.8767 154.726 31.9685 154.937 33.5106C155.219 35.5765 153.498 36.4863 151.736 36.2526C151.493 36.2202 151.409 36.0011 151.409 35.7674C151.404 34.6301 151.404 33.4925 151.406 32.3545C151.409 31.8297 151.811 31.8934 152.18 31.8902ZM154.35 33.8278C154.301 32.4098 153.144 32.5017 152.106 32.51C152.056 32.51 152.031 32.535 152.031 32.5851V35.564C152.031 35.6036 152.051 35.6255 152.091 35.6297C153.3 35.7507 154.398 35.2103 154.35 33.8278Z" fill="#9D9DA6"/>
<path d="M47.4591 37.2301C46.8133 38.8766 45.7574 40.1328 44.4657 41.3087C44.2581 41.4986 44.2216 41.7177 44.1986 41.9775L44.1423 42.2164C44.088 42.6192 44.0431 42.9176 43.7259 43.2108C43.3726 43.537 43.0018 43.8615 42.6137 44.1842L42.0858 42.6578C42.0734 42.6219 42.0491 42.5914 42.0168 42.5713C41.9845 42.5512 41.9463 42.5427 41.9084 42.5472C41.626 42.582 41.3488 42.5607 41.0768 42.4835C41.0365 42.4717 41.0017 42.4808 40.9725 42.5107L40.4737 43.0219C40.4605 43.0354 40.4426 43.0433 40.4238 43.0439C40.4049 43.0445 40.3865 43.0377 40.3725 43.0251L39.8999 42.6046C39.891 42.5967 39.8838 42.5872 39.8786 42.5765C39.8734 42.5659 39.8704 42.5543 39.8697 42.5424C39.869 42.5306 39.8707 42.5188 39.8746 42.5076C39.8785 42.4964 39.8847 42.4861 39.8926 42.4773L40.359 41.9545C40.3917 41.9191 40.3972 41.8794 40.3757 41.8356C40.2491 41.5859 40.183 41.3209 40.1774 41.0406C40.1767 41.0072 40.1604 40.9853 40.1284 40.9748L38.6009 40.4667C38.5966 40.4651 38.5928 40.4625 38.5898 40.4591C38.5867 40.4557 38.5845 40.4517 38.5834 40.4473C38.5823 40.4429 38.5822 40.4382 38.5833 40.4338C38.5843 40.4294 38.5864 40.4253 38.5894 40.4218L39.7403 39.1489C39.7653 39.1204 39.7959 39.1013 39.8321 39.0915L40.3162 38.9559L41.2928 38.7232C41.3283 38.7149 41.3575 38.6968 41.3804 38.669C42.22 37.6617 43.205 36.8305 44.3353 36.1753C45.3359 35.6223 46.4805 35.2039 47.6553 35.2999C47.6943 35.3034 47.7148 35.3246 47.7169 35.3635C47.7489 36.009 47.663 36.6312 47.4591 37.2301ZM44.93 38.9204C44.93 38.6647 44.8284 38.4195 44.6476 38.2387C44.4668 38.0579 44.2216 37.9563 43.9659 37.9563C43.7102 37.9563 43.465 38.0579 43.2842 38.2387C43.1034 38.4195 43.0018 38.6647 43.0018 38.9204C43.0018 39.1761 43.1034 39.4213 43.2842 39.6021C43.465 39.7829 43.7102 39.8845 43.9659 39.8845C44.2216 39.8845 44.4668 39.7829 44.6476 39.6021C44.8284 39.4213 44.93 39.1761 44.93 38.9204Z" fill="#9D9DA6"/>
<path d="M35.2776 47.6715C35.1023 47.6506 34.9792 47.5623 34.9082 47.4064L39.4448 43.1609C39.4789 43.1289 39.5112 43.1307 39.5418 43.1662L39.7369 43.3947C39.7717 43.435 39.7696 43.4736 39.7307 43.5105L35.2776 47.6715Z" fill="#9D9DA6"/>
<path d="M34.5999 47.0198C34.4614 46.962 34.3585 46.8577 34.291 46.7067L37.9021 43.3492C37.9362 43.3179 37.9703 43.3179 38.0044 43.3492L38.2266 43.5568C38.2607 43.5881 38.2607 43.6194 38.2266 43.6507L34.5999 47.0198Z" fill="#9D9DA6"/>
<path d="M35.9069 48.2957C35.7532 48.254 35.6304 48.159 35.5386 48.0109L39.2165 44.573C39.2464 44.5451 39.277 44.5441 39.3083 44.5698L39.5076 44.7305C39.5197 44.7404 39.5297 44.7528 39.5367 44.7669C39.5437 44.781 39.5476 44.7963 39.5482 44.812C39.5488 44.8277 39.546 44.8434 39.5401 44.8579C39.5342 44.8725 39.5252 44.8856 39.5138 44.8964L35.9069 48.2957Z" fill="#9D9DA6"/>
<path d="M68.3737 48.4246C66.7105 47.4115 66.0532 48.9995 66.3464 50.3538C66.5905 51.4838 67.6996 51.3284 68.503 51.0226C68.542 51.008 68.5615 51.0216 68.5615 51.0633V51.7655C68.5615 51.8003 68.5455 51.824 68.5135 51.8365C63.9967 53.5904 64.3118 45.6117 68.6867 47.616C68.7221 47.6327 68.7329 47.6591 68.719 47.6953L68.4456 48.4006C68.4317 48.4375 68.4077 48.4455 68.3737 48.4246Z" fill="#9D9DA6"/>
<path d="M97.0518 48.3261C96.8682 48.6715 97.0205 48.902 97.3471 49.0711C98.1807 49.4999 99.0728 49.8651 98.9278 50.9147C98.7421 52.2586 96.9642 52.2116 96.0168 51.7953C95.9896 51.7835 95.9761 51.7626 95.9761 51.7327V50.9544C95.9761 50.9008 96.0004 50.8848 96.0491 50.9064C96.455 51.0858 97.7905 51.5971 97.9794 50.8865C98.2214 49.9778 95.6338 50.0644 96.0752 48.2405C96.36 47.0636 98.0472 47.2222 98.8641 47.6281C98.9017 47.6469 98.9125 47.6757 98.8965 47.7147L98.6263 48.3595C98.6116 48.395 98.5873 48.404 98.5532 48.3866C98.2559 48.2353 97.2626 47.9307 97.0518 48.3261Z" fill="#9D9DA6"/>
<path d="M146.521 48.2229C146.223 48.4169 146.287 48.8645 146.609 49.0252C147.467 49.453 148.497 49.8766 148.264 50.9742C147.992 52.2618 146.312 52.218 145.371 51.7964C145.342 51.7839 145.328 51.762 145.328 51.7307V50.9534C145.328 50.8991 145.353 50.8831 145.402 50.9054C145.857 51.1078 146.975 51.5345 147.296 50.9774C147.593 50.4599 146.668 50.0863 146.214 49.8704C145.364 49.4655 145.031 48.227 145.83 47.6292C146.48 47.143 147.522 47.287 148.227 47.6313C148.257 47.6459 148.265 47.6685 148.253 47.6991L147.976 48.3616C147.963 48.3922 147.941 48.4002 147.912 48.3856C147.576 48.2229 146.859 48.0027 146.521 48.2229Z" fill="#9D9DA6"/>
<path d="M171.191 50.2241H170.461C170.417 50.2241 170.395 50.2022 170.395 50.1584V49.4938C170.395 49.4416 170.421 49.4155 170.474 49.4155H172.143C172.178 49.4155 172.195 49.4329 172.195 49.4677V51.7422C172.195 51.7749 172.18 51.7962 172.148 51.8059C170.644 52.2858 168.875 52.2504 168.535 50.3619C168.097 47.9298 170.021 46.7059 172.141 47.5823C172.174 47.5955 172.183 47.6185 172.17 47.6512L171.896 48.3273C171.879 48.3676 171.851 48.3784 171.812 48.3596C170.193 47.5948 169.177 48.7749 169.523 50.3306C169.715 51.1945 170.458 51.3468 171.212 51.1851C171.241 51.1788 171.256 51.1611 171.256 51.1319V50.2899C171.256 50.246 171.235 50.2241 171.191 50.2241Z" fill="#9D9DA6"/>
<path d="M184.128 51.8511C182.902 51.3117 182.789 49.7018 183.145 48.6094C183.503 47.5117 184.642 47.132 185.719 47.3688C187.294 47.7162 187.577 49.5192 187.109 50.8213C186.672 52.0369 185.184 52.3154 184.128 51.8511ZM183.982 49.707C183.981 50.356 184.166 51.1114 184.922 51.2209C186.79 51.4901 186.601 48.2338 185.385 48.1367C184.258 48.0459 183.982 48.7888 183.982 49.707Z" fill="#9D9DA6"/>
<path d="M193.422 52.0239C191.886 51.7297 191.505 50.1823 191.821 48.8385C192.168 47.3631 193.845 46.9583 195.065 47.5687C196.159 48.1164 196.224 49.8735 195.86 50.8574C195.501 51.8298 194.39 52.2096 193.422 52.0239ZM193.412 48.2354C192.425 48.6809 192.405 51.2487 193.924 51.2267C195.711 51.2007 195.349 47.3621 193.412 48.2354Z" fill="#9D9DA6"/>
<path d="M199.934 48.4246C197.55 46.9576 197.124 51.1645 198.918 51.2323C199.301 51.2462 199.677 51.1784 200.045 51.0289C200.054 51.0249 200.064 51.0234 200.075 51.0244C200.085 51.0254 200.095 51.0288 200.103 51.0345C200.112 51.0402 200.119 51.0479 200.124 51.0569C200.129 51.0659 200.131 51.076 200.131 51.0863V51.7624C200.131 51.8041 200.112 51.8323 200.073 51.8469C198.74 52.3456 197.217 52.0535 196.925 50.4331C196.533 48.2597 198.009 46.5444 200.255 47.6181C200.294 47.6355 200.305 47.6636 200.289 47.7026L200.014 48.3975C199.998 48.4385 199.972 48.4476 199.934 48.4246Z" fill="#9D9DA6"/>
<path d="M200.836 49.937C200.789 48.8759 201.014 47.8346 202.119 47.4412C203.321 47.0145 204.748 47.4924 205.056 48.8581C205.425 50.49 204.746 52.2126 202.771 52.0582C201.555 51.9622 200.89 51.1776 200.836 49.937ZM202.128 48.5138C201.578 49.2265 201.644 51.0962 202.866 51.236C204.239 51.3936 204.264 49.6396 203.984 48.8008C203.713 47.9911 202.594 47.9108 202.128 48.5138Z" fill="#9D9DA6"/>
<path d="M85.6154 51.8603L87.1595 47.3978C87.1693 47.3692 87.1895 47.355 87.2201 47.355H88.3C88.3306 47.355 88.3511 47.3696 88.3615 47.3988L89.9266 51.9051C89.9488 51.9671 89.9269 51.998 89.8608 51.998H88.9635C88.9343 51.998 88.9152 51.9837 88.9062 51.9552L88.6109 50.9505C88.6011 50.9185 88.5799 50.9025 88.5472 50.9025H86.9978C86.9547 50.9025 86.9269 50.923 86.9144 50.964L86.6233 51.9448C86.6128 51.9803 86.5892 51.998 86.5523 51.998H84.5835C84.5473 51.998 84.5198 51.9827 84.501 51.9521L83.4764 50.2796C83.4535 50.2427 83.4204 50.2243 83.3773 50.2243H82.986C82.9513 50.2243 82.9339 50.2417 82.9339 50.2764V51.9458C82.9339 51.9806 82.9165 51.998 82.8817 51.998H82.047C81.9948 51.998 81.9688 51.9719 81.9688 51.9198V47.4551C81.9688 47.4078 81.9924 47.3838 82.0397 47.3832C82.6657 47.3727 83.7185 47.2757 84.3821 47.5741C85.4432 48.052 85.2919 49.4626 84.3132 49.9592C84.2764 49.978 84.2694 50.0045 84.2923 50.0385L85.5079 51.8738C85.5141 51.8832 85.5229 51.8906 85.5331 51.8953C85.5433 51.9 85.5547 51.9017 85.5658 51.9003C85.577 51.8989 85.5875 51.8944 85.5963 51.8873C85.605 51.8803 85.6116 51.8709 85.6154 51.8603ZM87.2002 50.025C87.1986 50.0303 87.1982 50.036 87.1992 50.0415C87.2002 50.047 87.2024 50.0522 87.2058 50.0567C87.2091 50.0612 87.2135 50.0648 87.2185 50.0673C87.2235 50.0697 87.2291 50.071 87.2347 50.0709L88.3104 50.0657C88.3159 50.0656 88.3213 50.0642 88.3262 50.0617C88.3311 50.0592 88.3353 50.0555 88.3386 50.0511C88.3418 50.0466 88.344 50.0415 88.3449 50.036C88.3458 50.0306 88.3454 50.025 88.3438 50.0198L87.797 48.221C87.795 48.2133 87.7905 48.2066 87.7842 48.2018C87.7779 48.197 87.7701 48.1944 87.7622 48.1946C87.7543 48.1947 87.7466 48.1974 87.7405 48.2024C87.7343 48.2074 87.73 48.2143 87.7282 48.222L87.2002 50.025ZM82.9328 48.221L82.9266 49.4063C82.9266 49.4157 82.9303 49.4247 82.937 49.4313C82.9436 49.438 82.9526 49.4417 82.962 49.4417L83.3721 49.4438C83.5732 49.4449 83.7665 49.3857 83.9093 49.2793C84.0522 49.1728 84.1329 49.0278 84.1338 48.8762V48.7635C84.1342 48.6884 84.115 48.614 84.0773 48.5444C84.0395 48.4748 83.984 48.4115 83.9139 48.358C83.8437 48.3045 83.7603 48.2619 83.6684 48.2327C83.5765 48.2035 83.478 48.1881 83.3784 48.1876L82.9683 48.1855C82.9589 48.1855 82.9499 48.1892 82.9432 48.1959C82.9366 48.2026 82.9328 48.2116 82.9328 48.221Z" fill="#9D9DA6"/>
<path d="M153.594 50.9379L153.291 51.9625C153.288 51.9727 153.282 51.9817 153.274 51.9881C153.265 51.9945 153.255 51.998 153.244 51.998L152.308 51.997C152.301 51.9969 152.293 51.995 152.286 51.9914C152.279 51.9878 152.273 51.9826 152.269 51.9763C152.264 51.97 152.261 51.9627 152.26 51.9551C152.259 51.9474 152.26 51.9396 152.262 51.9323L153.836 47.3884C153.839 47.3787 153.845 47.3703 153.853 47.3644C153.862 47.3584 153.871 47.3551 153.882 47.355H154.985C154.995 47.3551 155.005 47.3584 155.013 47.3644C155.021 47.3703 155.027 47.3787 155.03 47.3884L156.608 51.9333C156.61 51.9406 156.611 51.9485 156.61 51.9561C156.609 51.9638 156.606 51.971 156.602 51.9774C156.597 51.9837 156.591 51.9888 156.584 51.9924C156.577 51.996 156.57 51.9979 156.562 51.998H155.63C155.62 51.998 155.609 51.9945 155.601 51.9881C155.592 51.9817 155.586 51.9727 155.583 51.9625L155.278 50.9379C155.275 50.9277 155.269 50.9188 155.26 50.9124C155.252 50.906 155.241 50.9025 155.231 50.9025H153.641C153.63 50.9025 153.62 50.906 153.611 50.9124C153.603 50.9188 153.597 50.9277 153.594 50.9379ZM153.871 50.025C153.87 50.0301 153.87 50.0355 153.871 50.0408C153.872 50.046 153.874 50.051 153.877 50.0552C153.88 50.0595 153.884 50.0629 153.889 50.0653C153.894 50.0676 153.899 50.0688 153.905 50.0688L154.985 50.0657C154.99 50.0656 154.995 50.0643 155 50.0618C155.005 50.0593 155.009 50.0557 155.012 50.0514C155.015 50.047 155.017 50.042 155.018 50.0367C155.019 50.0314 155.018 50.0259 155.017 50.0208L154.471 48.2304C154.469 48.223 154.465 48.2164 154.459 48.2118C154.453 48.2072 154.445 48.2047 154.437 48.2049C154.43 48.205 154.422 48.2077 154.416 48.2125C154.41 48.2173 154.406 48.2239 154.404 48.2314L153.871 50.025Z" fill="#9D9DA6"/>
<path d="M57.2324 47.4414C57.2324 47.4249 57.2389 47.4092 57.2504 47.3975C57.2619 47.3858 57.2776 47.379 57.294 47.3788L58.8225 47.3735C59.1071 47.3725 59.3892 47.4252 59.6525 47.5285C59.9158 47.6318 60.1552 47.7837 60.3572 47.9755C60.5591 48.1673 60.7195 48.3954 60.8293 48.6465C60.939 48.8977 60.996 49.1672 60.9969 49.4394L60.999 49.9069C61.0009 50.4567 60.7744 50.9847 60.3693 51.3749C59.9643 51.765 59.4139 51.9853 58.8392 51.9874L57.3107 51.9926C57.2941 51.9926 57.2781 51.986 57.2664 51.9742C57.2547 51.9625 57.2481 51.9466 57.2481 51.93L57.2324 47.4414ZM58.2048 48.2208L58.1944 51.1401C58.1944 51.1515 58.1989 51.1624 58.2069 51.1704C58.215 51.1784 58.2258 51.1829 58.2372 51.1829L58.7745 51.185C59.0999 51.1861 59.4124 51.0526 59.6433 50.8138C59.8742 50.5751 60.0046 50.2508 60.0057 49.9121L60.0078 49.4613C60.0084 49.2936 59.9772 49.1274 59.9161 48.9723C59.8549 48.8171 59.765 48.676 59.6514 48.557C59.5379 48.438 59.4029 48.3435 59.2542 48.2788C59.1056 48.2142 58.9461 48.1806 58.785 48.1801L58.2476 48.178C58.2363 48.178 58.2254 48.1825 58.2174 48.1905C58.2094 48.1985 58.2048 48.2094 58.2048 48.2208Z" fill="#9D9DA6"/>
<path d="M62.9012 48.237V49.1583C62.9012 49.171 62.9062 49.1832 62.9152 49.1922C62.9242 49.2012 62.9364 49.2063 62.9492 49.2063H64.3921C64.4049 49.2063 64.4171 49.2113 64.4261 49.2203C64.4351 49.2293 64.4401 49.2415 64.4401 49.2543V49.9408C64.4401 49.9535 64.4351 49.9658 64.4261 49.9748C64.4171 49.9838 64.4049 49.9888 64.3921 49.9888H62.9492C62.9364 49.9888 62.9242 49.9939 62.9152 50.0029C62.9062 50.0119 62.9012 50.0241 62.9012 50.0368V51.1407C62.9012 51.1534 62.9062 51.1656 62.9152 51.1746C62.9242 51.1836 62.9364 51.1887 62.9492 51.1887H64.4965C64.5092 51.1887 64.5214 51.1938 64.5304 51.2028C64.5394 51.2118 64.5445 51.224 64.5445 51.2367V51.9493C64.5445 51.9556 64.5432 51.9619 64.5408 51.9677C64.5384 51.9735 64.5349 51.9788 64.5304 51.9833C64.526 51.9877 64.5207 51.9912 64.5148 51.9937C64.509 51.9961 64.5028 51.9973 64.4965 51.9973H61.984C61.9777 51.9973 61.9715 51.9961 61.9657 51.9937C61.9598 51.9912 61.9545 51.9877 61.9501 51.9833C61.9456 51.9788 61.9421 51.9735 61.9397 51.9677C61.9373 51.9619 61.936 51.9556 61.936 51.9493V47.4284C61.936 47.4156 61.9411 47.4034 61.9501 47.3944C61.9591 47.3854 61.9713 47.3804 61.984 47.3804H64.4965C64.5092 47.3804 64.5214 47.3854 64.5304 47.3944C64.5394 47.4034 64.5445 47.4156 64.5445 47.4284V48.141C64.5445 48.1537 64.5394 48.1659 64.5304 48.1749C64.5214 48.1839 64.5092 48.189 64.4965 48.189H62.9492C62.9364 48.189 62.9242 48.194 62.9152 48.203C62.9062 48.212 62.9012 48.2243 62.9012 48.237Z" fill="#9D9DA6"/>
<path d="M70.5179 48.2265V49.1687C70.5179 49.1787 70.5218 49.1882 70.5289 49.1953C70.5359 49.2023 70.5455 49.2063 70.5554 49.2063H72.0193C72.0242 49.2063 72.0291 49.2073 72.0337 49.2091C72.0382 49.211 72.0423 49.2138 72.0458 49.2173C72.0493 49.2208 72.0521 49.2249 72.054 49.2295C72.0559 49.234 72.0568 49.2389 72.0568 49.2438V49.9513C72.0568 49.9612 72.0529 49.9708 72.0458 49.9778C72.0388 49.9849 72.0292 49.9888 72.0193 49.9888H70.5554C70.5455 49.9888 70.5359 49.9928 70.5289 49.9998C70.5218 50.0069 70.5179 50.0164 70.5179 50.0264V51.1511C70.5179 51.1611 70.5218 51.1706 70.5289 51.1777C70.5359 51.1847 70.5455 51.1887 70.5554 51.1887H72.1236C72.1336 51.1887 72.1431 51.1927 72.1502 51.1997C72.1572 51.2067 72.1612 51.2163 72.1612 51.2263V51.9597C72.1612 51.9647 72.1602 51.9696 72.1583 51.9741C72.1564 51.9787 72.1537 51.9828 72.1502 51.9863C72.1467 51.9898 72.1425 51.9926 72.138 51.9945C72.1334 51.9963 72.1285 51.9973 72.1236 51.9973H69.5903C69.5854 51.9973 69.5805 51.9963 69.5759 51.9945C69.5714 51.9926 69.5672 51.9898 69.5637 51.9863C69.5602 51.9828 69.5575 51.9787 69.5556 51.9741C69.5537 51.9696 69.5527 51.9647 69.5527 51.9597V47.4179C69.5527 47.413 69.5537 47.4081 69.5556 47.4036C69.5575 47.399 69.5602 47.3949 69.5637 47.3914C69.5672 47.3879 69.5714 47.3851 69.5759 47.3832C69.5805 47.3813 69.5854 47.3804 69.5903 47.3804H72.1236C72.1285 47.3804 72.1334 47.3813 72.138 47.3832C72.1425 47.3851 72.1467 47.3879 72.1502 47.3914C72.1537 47.3949 72.1564 47.399 72.1583 47.4036C72.1602 47.4081 72.1612 47.413 72.1612 47.4179V48.1514C72.1612 48.1564 72.1602 48.1612 72.1583 48.1658C72.1564 48.1704 72.1537 48.1745 72.1502 48.178C72.1467 48.1815 72.1425 48.1842 72.138 48.1861C72.1334 48.188 72.1285 48.189 72.1236 48.189H70.5554C70.5455 48.189 70.5359 48.1929 70.5289 48.2C70.5218 48.207 70.5179 48.2166 70.5179 48.2265Z" fill="#9D9DA6"/>
<path d="M73.9504 48.5458C73.9494 48.5432 73.9474 48.5411 73.9448 48.5399C73.9423 48.5387 73.9394 48.5385 73.9367 48.5392C73.934 48.54 73.9317 48.5417 73.9302 48.5441C73.9287 48.5465 73.9281 48.5493 73.9285 48.5521L73.9734 51.9378C73.9741 51.9775 73.9546 51.9973 73.915 51.9973H73.1523C73.1175 51.9973 73.1001 51.9799 73.1001 51.9451V47.4231C73.1001 47.4121 73.1045 47.4015 73.1123 47.3936C73.1201 47.3858 73.1308 47.3814 73.1418 47.3814L74.2468 47.3804C74.267 47.3804 74.2869 47.3857 74.3043 47.3958C74.3217 47.4059 74.3361 47.4204 74.3459 47.4378L76.2584 50.7964C76.2601 50.7994 76.2628 50.8018 76.2661 50.8031C76.2693 50.8044 76.2729 50.8046 76.2763 50.8036C76.2796 50.8027 76.2826 50.8006 76.2846 50.7978C76.2867 50.795 76.2877 50.7915 76.2876 50.788L76.2427 47.4398C76.2427 47.4002 76.2622 47.3804 76.3012 47.3804H77.0388C77.091 47.3804 77.1171 47.4065 77.1171 47.4586V51.9451C77.1171 51.9799 77.0997 51.9973 77.0649 51.9973H75.9631C75.9256 51.9973 75.8974 51.981 75.8786 51.9483L73.9504 48.5458Z" fill="#9D9DA6"/>
<path d="M80.0646 48.238V51.9483C80.0646 51.9613 80.0595 51.9738 80.0503 51.9829C80.0411 51.9921 80.0286 51.9973 80.0156 51.9973H79.1485C79.1355 51.9973 79.1231 51.9921 79.1139 51.9829C79.1047 51.9738 79.0995 51.9613 79.0995 51.9483V48.2391C79.0995 48.2261 79.0943 48.2136 79.0851 48.2044C79.0759 48.1952 79.0635 48.19 79.0505 48.19L77.9226 48.189C77.9096 48.189 77.8971 48.1838 77.8879 48.1746C77.8787 48.1654 77.8735 48.153 77.8735 48.1399V47.4294C77.8735 47.4164 77.8787 47.4039 77.8879 47.3947C77.8971 47.3855 77.9096 47.3804 77.9226 47.3804H81.2416C81.2546 47.3804 81.267 47.3855 81.2762 47.3947C81.2854 47.4039 81.2906 47.4164 81.2906 47.4294V48.1399C81.2906 48.153 81.2854 48.1654 81.2762 48.1746C81.267 48.1838 81.2546 48.189 81.2416 48.189H80.1137C80.1007 48.189 80.0882 48.1942 80.079 48.2034C80.0698 48.2125 80.0646 48.225 80.0646 48.238Z" fill="#9D9DA6"/>
<path d="M91.5323 51.1887H93.2988C93.3101 51.1887 93.321 51.1932 93.329 51.2012C93.337 51.2092 93.3415 51.2201 93.3415 51.2315V51.9545C93.3415 51.9659 93.337 51.9768 93.329 51.9848C93.321 51.9928 93.3101 51.9973 93.2988 51.9973H90.5672C90.5558 51.9973 90.545 51.9928 90.5369 51.9848C90.5289 51.9768 90.5244 51.9659 90.5244 51.9545V47.4231C90.5244 47.4118 90.5289 47.4009 90.5369 47.3929C90.545 47.3849 90.5558 47.3804 90.5672 47.3804H91.4468C91.4581 47.3804 91.469 47.3849 91.477 47.3929C91.485 47.4009 91.4895 47.4118 91.4895 47.4231V51.1459C91.4895 51.1573 91.494 51.1681 91.5021 51.1762C91.5101 51.1842 91.521 51.1887 91.5323 51.1887Z" fill="#9D9DA6"/>
<path d="M95.096 47.3804H94.2216C94.1968 47.3804 94.1768 47.4005 94.1768 47.4252V51.9514C94.1768 51.9762 94.1968 51.9963 94.2216 51.9963H95.096C95.1208 51.9963 95.1408 51.9762 95.1408 51.9514V47.4252C95.1408 47.4005 95.1208 47.3804 95.096 47.3804Z" fill="#9D9DA6"/>
<path d="M100.776 48.237V49.1583C100.776 49.171 100.781 49.1832 100.79 49.1922C100.799 49.2012 100.811 49.2063 100.824 49.2063H102.267C102.279 49.2063 102.292 49.2113 102.301 49.2203C102.31 49.2293 102.315 49.2415 102.315 49.2543V49.9408C102.315 49.9535 102.31 49.9658 102.301 49.9748C102.292 49.9838 102.279 49.9888 102.267 49.9888H100.824C100.811 49.9888 100.799 49.9939 100.79 50.0029C100.781 50.0119 100.776 50.0241 100.776 50.0368V51.1407C100.776 51.1534 100.781 51.1656 100.79 51.1746C100.799 51.1836 100.811 51.1887 100.824 51.1887H102.371C102.384 51.1887 102.396 51.1938 102.405 51.2028C102.414 51.2118 102.419 51.224 102.419 51.2367V51.9493C102.419 51.9556 102.418 51.9619 102.415 51.9677C102.413 51.9735 102.409 51.9788 102.405 51.9833C102.4 51.9877 102.395 51.9912 102.389 51.9937C102.384 51.9961 102.377 51.9973 102.371 51.9973H99.8585C99.8522 51.9973 99.846 51.9961 99.8402 51.9937C99.8343 51.9912 99.8291 51.9877 99.8246 51.9833C99.8201 51.9788 99.8166 51.9735 99.8142 51.9677C99.8118 51.9619 99.8105 51.9556 99.8105 51.9493V47.4284C99.8105 47.4156 99.8156 47.4034 99.8246 47.3944C99.8336 47.3854 99.8458 47.3804 99.8585 47.3804H102.371C102.384 47.3804 102.396 47.3854 102.405 47.3944C102.414 47.4034 102.419 47.4156 102.419 47.4284V48.141C102.419 48.1537 102.414 48.1659 102.405 48.1749C102.396 48.1839 102.384 48.189 102.371 48.189H100.824C100.811 48.189 100.799 48.194 100.79 48.203C100.781 48.212 100.776 48.2243 100.776 48.237Z" fill="#9D9DA6"/>
<path d="M103.349 47.4028C103.349 47.3964 103.351 47.3903 103.356 47.3858C103.36 47.3813 103.366 47.3788 103.373 47.3788L104.94 47.3735C105.224 47.3725 105.506 47.4252 105.77 47.5285C106.033 47.6318 106.272 47.7837 106.474 47.9755C106.676 48.1673 106.837 48.3954 106.947 48.6465C107.056 48.8977 107.113 49.1672 107.114 49.4394L107.116 49.9069C107.118 50.4567 106.892 50.9847 106.487 51.3749C106.082 51.765 105.531 51.9853 104.956 51.9874L103.389 51.9926C103.383 51.9926 103.377 51.99 103.372 51.9855C103.368 51.981 103.365 51.9749 103.365 51.9686L103.349 47.4028ZM104.318 48.2229L104.314 51.1422C104.314 51.1478 104.315 51.1534 104.317 51.1587C104.319 51.1639 104.322 51.1687 104.326 51.1728C104.329 51.1769 104.334 51.1801 104.339 51.1824C104.344 51.1847 104.35 51.1859 104.355 51.186H104.891C105.217 51.1869 105.53 51.0532 105.761 50.8145C105.992 50.5758 106.122 50.2515 106.123 49.9131V49.4603C106.123 49.2927 106.092 49.1267 106.031 48.9717C105.969 48.8168 105.879 48.6758 105.765 48.5571C105.651 48.4383 105.516 48.3439 105.367 48.2794C105.218 48.2149 105.058 48.1815 104.897 48.1811H104.362C104.356 48.181 104.351 48.182 104.345 48.184C104.34 48.186 104.335 48.189 104.331 48.1929C104.327 48.1968 104.324 48.2014 104.322 48.2066C104.319 48.2117 104.318 48.2172 104.318 48.2229Z" fill="#9D9DA6"/>
<path d="M110.688 48.237V49.1583C110.688 49.171 110.693 49.1832 110.702 49.1922C110.711 49.2012 110.723 49.2063 110.736 49.2063H112.179C112.191 49.2063 112.204 49.2113 112.213 49.2203C112.222 49.2293 112.227 49.2415 112.227 49.2543V49.9408C112.227 49.9535 112.222 49.9658 112.213 49.9748C112.204 49.9838 112.191 49.9888 112.179 49.9888H110.736C110.723 49.9888 110.711 49.9939 110.702 50.0029C110.693 50.0119 110.688 50.0241 110.688 50.0368V51.1407C110.688 51.1534 110.693 51.1656 110.702 51.1746C110.711 51.1836 110.723 51.1887 110.736 51.1887H112.283C112.296 51.1887 112.308 51.1938 112.317 51.2028C112.326 51.2118 112.331 51.224 112.331 51.2367V51.9493C112.331 51.9556 112.33 51.9619 112.327 51.9677C112.325 51.9735 112.321 51.9788 112.317 51.9833C112.313 51.9877 112.307 51.9912 112.301 51.9937C112.296 51.9961 112.289 51.9973 112.283 51.9973H109.771C109.764 51.9973 109.758 51.9961 109.752 51.9937C109.746 51.9912 109.741 51.9877 109.737 51.9833C109.732 51.9788 109.729 51.9735 109.726 51.9677C109.724 51.9619 109.723 51.9556 109.723 51.9493V47.4284C109.723 47.4156 109.728 47.4034 109.737 47.3944C109.746 47.3854 109.758 47.3804 109.771 47.3804H112.283C112.296 47.3804 112.308 47.3854 112.317 47.3944C112.326 47.4034 112.331 47.4156 112.331 47.4284V48.141C112.331 48.1537 112.326 48.1659 112.317 48.1749C112.308 48.1839 112.296 48.189 112.283 48.189H110.736C110.723 48.189 110.711 48.194 110.702 48.203C110.693 48.212 110.688 48.2243 110.688 48.237Z" fill="#9D9DA6"/>
<path d="M115.018 48.238V51.9483C115.018 51.9613 115.013 51.9738 115.003 51.9829C114.994 51.9921 114.982 51.9973 114.969 51.9973H114.102C114.089 51.9973 114.076 51.9921 114.067 51.9829C114.058 51.9738 114.053 51.9613 114.053 51.9483V48.238C114.053 48.225 114.047 48.2125 114.038 48.2034C114.029 48.1942 114.017 48.189 114.004 48.189H112.876C112.863 48.189 112.85 48.1838 112.841 48.1746C112.832 48.1654 112.827 48.153 112.827 48.1399V47.4294C112.827 47.4164 112.832 47.4039 112.841 47.3947C112.85 47.3855 112.863 47.3804 112.876 47.3804H116.195C116.208 47.3804 116.22 47.3855 116.229 47.3947C116.239 47.4039 116.244 47.4164 116.244 47.4294V48.1399C116.244 48.153 116.239 48.1654 116.229 48.1746C116.22 48.1838 116.208 48.189 116.195 48.189H115.067C115.054 48.189 115.041 48.1942 115.032 48.2034C115.023 48.2125 115.018 48.225 115.018 48.238Z" fill="#9D9DA6"/>
<path d="M119.687 49.1437V47.4169C119.687 47.4121 119.688 47.4073 119.69 47.4029C119.691 47.3985 119.694 47.3945 119.698 47.3911C119.701 47.3877 119.705 47.385 119.709 47.3832C119.714 47.3813 119.719 47.3804 119.723 47.3804H120.615C120.625 47.3804 120.634 47.3842 120.641 47.3911C120.648 47.3979 120.652 47.4072 120.652 47.4169V51.9608C120.652 51.9705 120.648 51.9798 120.641 51.9866C120.634 51.9935 120.625 51.9973 120.615 51.9973H119.723C119.719 51.9973 119.714 51.9964 119.709 51.9945C119.705 51.9927 119.701 51.99 119.698 51.9866C119.694 51.9832 119.691 51.9792 119.69 51.9748C119.688 51.9703 119.687 51.9656 119.687 51.9608V50.0514C119.687 50.0417 119.683 50.0324 119.676 50.0256C119.669 50.0187 119.66 50.0149 119.65 50.0149H117.924C117.914 50.0149 117.905 50.0187 117.898 50.0256C117.891 50.0324 117.887 50.0417 117.887 50.0514V51.9608C117.887 51.9705 117.883 51.9798 117.876 51.9866C117.869 51.9935 117.86 51.9973 117.85 51.9973H116.958C116.949 51.9973 116.939 51.9935 116.933 51.9866C116.926 51.9798 116.922 51.9705 116.922 51.9608V47.4169C116.922 47.4072 116.926 47.3979 116.933 47.3911C116.939 47.3842 116.949 47.3804 116.958 47.3804H117.85C117.86 47.3804 117.869 47.3842 117.876 47.3911C117.883 47.3979 117.887 47.4072 117.887 47.4169V49.1437C117.887 49.1534 117.891 49.1627 117.898 49.1695C117.905 49.1763 117.914 49.1802 117.924 49.1802H119.65C119.66 49.1802 119.669 49.1763 119.676 49.1695C119.683 49.1627 119.687 49.1534 119.687 49.1437Z" fill="#9D9DA6"/>
<path d="M122.791 48.237V49.1583C122.791 49.171 122.796 49.1832 122.805 49.1922C122.814 49.2012 122.826 49.2063 122.839 49.2063H124.282C124.295 49.2063 124.307 49.2113 124.316 49.2203C124.325 49.2293 124.33 49.2415 124.33 49.2543V49.9408C124.33 49.9535 124.325 49.9658 124.316 49.9748C124.307 49.9838 124.295 49.9888 124.282 49.9888H122.839C122.826 49.9888 122.814 49.9939 122.805 50.0029C122.796 50.0119 122.791 50.0241 122.791 50.0368V51.1407C122.791 51.1534 122.796 51.1656 122.805 51.1746C122.814 51.1836 122.826 51.1887 122.839 51.1887H124.386C124.399 51.1887 124.411 51.1938 124.42 51.2028C124.429 51.2118 124.434 51.224 124.434 51.2367V51.9493C124.434 51.9556 124.433 51.9619 124.43 51.9677C124.428 51.9735 124.425 51.9788 124.42 51.9833C124.416 51.9877 124.41 51.9912 124.404 51.9937C124.399 51.9961 124.392 51.9973 124.386 51.9973H121.874C121.867 51.9973 121.861 51.9961 121.855 51.9937C121.849 51.9912 121.844 51.9877 121.84 51.9833C121.835 51.9788 121.832 51.9735 121.829 51.9677C121.827 51.9619 121.826 51.9556 121.826 51.9493V47.4284C121.826 47.4156 121.831 47.4034 121.84 47.3944C121.849 47.3854 121.861 47.3804 121.874 47.3804H124.386C124.399 47.3804 124.411 47.3854 124.42 47.3944C124.429 47.4034 124.434 47.4156 124.434 47.4284V48.141C124.434 48.1537 124.429 48.1659 124.42 48.1749C124.411 48.1839 124.399 48.189 124.386 48.189H122.839C122.826 48.189 122.814 48.194 122.805 48.203C122.796 48.212 122.791 48.2243 122.791 48.237Z" fill="#9D9DA6"/>
<path d="M127.701 50.0456L128.949 51.9268C128.981 51.9741 128.969 51.9978 128.912 51.9978H128C127.955 51.9978 127.921 51.9787 127.897 51.9404L126.882 50.2794C126.859 50.2425 126.826 50.2241 126.783 50.2241H126.391C126.356 50.2241 126.339 50.2414 126.339 50.2762V51.9456C126.339 51.9804 126.321 51.9978 126.286 51.9978H125.452C125.4 51.9978 125.374 51.9717 125.374 51.9195V47.457C125.374 47.4125 125.396 47.3896 125.44 47.3882C126.419 47.36 128.287 47.1252 128.485 48.4868C128.579 49.1393 128.324 49.6342 127.719 49.9716C127.686 49.9896 127.68 50.0143 127.701 50.0456ZM126.333 48.2218V49.4008C126.333 49.4108 126.337 49.4203 126.344 49.4274C126.351 49.4344 126.361 49.4384 126.371 49.4384H126.784C126.985 49.4384 127.177 49.3782 127.318 49.2709C127.46 49.1637 127.54 49.0183 127.54 48.8666V48.756C127.54 48.6044 127.46 48.4589 127.318 48.3517C127.177 48.2445 126.985 48.1843 126.784 48.1843H126.371C126.361 48.1843 126.351 48.1882 126.344 48.1953C126.337 48.2023 126.333 48.2119 126.333 48.2218Z" fill="#9D9DA6"/>
<path d="M130.512 48.237V49.1583C130.512 49.1646 130.513 49.1708 130.516 49.1767C130.518 49.1825 130.522 49.1878 130.526 49.1922C130.531 49.1967 130.536 49.2002 130.542 49.2026C130.547 49.205 130.554 49.2063 130.56 49.2063H132.003C132.016 49.2063 132.028 49.2113 132.037 49.2203C132.046 49.2293 132.051 49.2415 132.051 49.2543V49.9408C132.051 49.9535 132.046 49.9658 132.037 49.9748C132.028 49.9838 132.016 49.9888 132.003 49.9888H130.56C130.554 49.9888 130.547 49.9901 130.542 49.9925C130.536 49.9949 130.531 49.9984 130.526 50.0029C130.522 50.0073 130.518 50.0126 130.516 50.0184C130.513 50.0243 130.512 50.0305 130.512 50.0368V51.1407C130.512 51.147 130.513 51.1532 130.516 51.1591C130.518 51.1649 130.522 51.1702 130.526 51.1746C130.531 51.1791 130.536 51.1826 130.542 51.185C130.547 51.1875 130.554 51.1887 130.56 51.1887H132.107C132.114 51.1887 132.12 51.1899 132.126 51.1923C132.132 51.1948 132.137 51.1983 132.141 51.2028C132.146 51.2072 132.149 51.2125 132.152 51.2183C132.154 51.2241 132.155 51.2304 132.155 51.2367V51.9493C132.155 51.9556 132.154 51.9619 132.152 51.9677C132.149 51.9735 132.146 51.9788 132.141 51.9833C132.137 51.9877 132.132 51.9912 132.126 51.9937C132.12 51.9961 132.114 51.9973 132.107 51.9973H129.595C129.589 51.9973 129.582 51.9961 129.577 51.9937C129.571 51.9912 129.565 51.9877 129.561 51.9833C129.556 51.9788 129.553 51.9735 129.551 51.9677C129.548 51.9619 129.547 51.9556 129.547 51.9493V47.4284C129.547 47.4156 129.552 47.4034 129.561 47.3944C129.57 47.3854 129.582 47.3804 129.595 47.3804H132.107C132.114 47.3804 132.12 47.3816 132.126 47.384C132.132 47.3864 132.137 47.39 132.141 47.3944C132.146 47.3989 132.149 47.4042 132.152 47.41C132.154 47.4158 132.155 47.4221 132.155 47.4284V48.141C132.155 48.1473 132.154 48.1535 132.152 48.1594C132.149 48.1652 132.146 48.1705 132.141 48.1749C132.137 48.1794 132.132 48.1829 132.126 48.1853C132.12 48.1877 132.114 48.189 132.107 48.189H130.56C130.554 48.189 130.547 48.1902 130.542 48.1926C130.536 48.1951 130.531 48.1986 130.526 48.203C130.522 48.2075 130.518 48.2128 130.516 48.2186C130.513 48.2244 130.512 48.2307 130.512 48.237Z" fill="#9D9DA6"/>
<path d="M134.138 50.4312C134.137 51.5007 135.903 51.5789 135.921 50.3717C135.936 49.3937 135.941 48.4147 135.938 47.4346C135.938 47.3985 135.956 47.3804 135.991 47.3804H136.846C136.882 47.3804 136.9 47.3985 136.9 47.4346C136.907 48.3841 136.906 49.3304 136.899 50.2737C136.888 51.6123 135.979 52.1236 134.743 52.0286C133.494 51.9326 133.17 51.1678 133.172 50.0431C133.173 49.1785 133.174 48.3152 133.173 47.4534C133.173 47.4047 133.197 47.3804 133.245 47.3804H134.066C134.113 47.3804 134.137 47.404 134.137 47.4513C134.138 48.4481 134.139 49.4414 134.138 50.4312Z" fill="#9D9DA6"/>
<path d="M138.825 48.453L138.872 51.9253C138.872 51.9733 138.848 51.9973 138.8 51.9973H138.05C138.015 51.9973 137.998 51.9799 137.998 51.9451V47.4231C137.998 47.412 138.002 47.4013 138.01 47.3933C138.018 47.3853 138.029 47.3806 138.04 47.3804H139.241C139.285 47.3804 139.314 47.4019 139.327 47.4451L140.338 50.762C140.376 50.8851 140.414 50.8854 140.453 50.763L141.526 47.4336C141.537 47.3981 141.561 47.3804 141.599 47.3804H142.771C142.824 47.3804 142.85 47.4065 142.85 47.4586V51.9451C142.85 51.9799 142.832 51.9973 142.798 51.9973H142.025C141.98 51.9973 141.957 51.9744 141.957 51.9284L141.976 48.5051C141.977 48.4203 141.964 48.4182 141.938 48.4989L140.821 51.941C140.809 51.9785 140.783 51.9973 140.743 51.9973H139.991C139.944 51.9973 139.914 51.9751 139.9 51.9305L138.848 48.4498C138.832 48.397 138.825 48.398 138.825 48.453Z" fill="#9D9DA6"/>
<path d="M150.91 48.238V51.9483C150.91 51.9613 150.905 51.9738 150.896 51.9829C150.887 51.9921 150.874 51.9973 150.861 51.9973H149.994C149.981 51.9973 149.969 51.9921 149.96 51.9829C149.95 51.9738 149.945 51.9613 149.945 51.9483V48.238C149.945 48.225 149.94 48.2125 149.931 48.2034C149.922 48.1942 149.909 48.189 149.896 48.189H148.768C148.755 48.189 148.743 48.1838 148.734 48.1746C148.724 48.1654 148.719 48.153 148.719 48.1399V47.4294C148.719 47.4164 148.724 47.4039 148.734 47.3947C148.743 47.3855 148.755 47.3804 148.768 47.3804H152.087C152.1 47.3804 152.113 47.3855 152.122 47.3947C152.131 47.4039 152.136 47.4164 152.136 47.4294V48.1399C152.136 48.153 152.131 48.1654 152.122 48.1746C152.113 48.1838 152.1 48.189 152.087 48.189H150.959C150.946 48.189 150.934 48.1942 150.925 48.2034C150.915 48.2125 150.91 48.225 150.91 48.238Z" fill="#9D9DA6"/>
<path d="M158.178 49.4358L159.72 47.4263C159.744 47.3957 159.775 47.3804 159.813 47.3804H160.77C160.776 47.3803 160.782 47.3819 160.787 47.3851C160.792 47.3882 160.797 47.3928 160.799 47.3983C160.802 47.4037 160.803 47.4098 160.803 47.4159C160.802 47.422 160.8 47.4277 160.796 47.4325L159.282 49.3826C159.261 49.4097 159.26 49.4379 159.278 49.4671L160.807 51.9295C160.835 51.9747 160.823 51.9973 160.77 51.9973H159.807C159.771 51.9973 159.744 51.982 159.725 51.9514L158.592 50.0921C158.575 50.0643 158.553 50.0598 158.528 50.0785L158.206 50.3123C158.176 50.3345 158.161 50.3641 158.161 50.4009V51.9191C158.161 51.9712 158.135 51.9973 158.083 51.9973H157.248C157.214 51.9973 157.196 51.9799 157.196 51.9451V47.4325C157.196 47.3978 157.214 47.3804 157.248 47.3804H158.096C158.14 47.3804 158.161 47.4023 158.161 47.4461V49.4306C158.162 49.4325 158.162 49.4343 158.163 49.4358C158.165 49.4373 158.166 49.4384 158.168 49.4389C158.17 49.4395 158.172 49.4395 158.174 49.4389C158.175 49.4384 158.177 49.4373 158.178 49.4358Z" fill="#9D9DA6"/>
<path d="M162.407 47.3804H161.507C161.49 47.3804 161.475 47.3949 161.475 47.4127V51.9639C161.475 51.9818 161.49 51.9963 161.507 51.9963H162.407C162.425 51.9963 162.439 51.9818 162.439 51.9639V47.4127C162.439 47.3949 162.425 47.3804 162.407 47.3804Z" fill="#9D9DA6"/>
<path d="M164.389 48.5521L164.434 51.9253C164.435 51.9733 164.411 51.9973 164.363 51.9973H163.639C163.587 51.9973 163.561 51.9712 163.561 51.9191V47.4586C163.561 47.4065 163.587 47.3804 163.639 47.3804H164.732C164.745 47.3804 164.758 47.3839 164.77 47.3907C164.781 47.3975 164.791 47.4073 164.797 47.419L166.727 50.8058C166.728 50.8082 166.73 50.8102 166.732 50.8113C166.734 50.8125 166.737 50.8128 166.74 50.8122C166.742 50.8116 166.745 50.8101 166.746 50.8079C166.748 50.8058 166.749 50.8032 166.749 50.8006L166.705 47.4524C166.704 47.4044 166.728 47.3804 166.776 47.3804H167.513C167.556 47.3804 167.578 47.4023 167.578 47.4461V51.9451C167.578 51.9799 167.561 51.9973 167.526 51.9973H166.433C166.414 51.9973 166.394 51.9921 166.377 51.9822C166.36 51.9723 166.346 51.9581 166.336 51.941L164.41 48.5458C164.396 48.5208 164.389 48.5229 164.389 48.5521Z" fill="#9D9DA6"/>
<path d="M175.899 50.4293V51.9453C175.899 51.9591 175.894 51.9724 175.884 51.9822C175.874 51.992 175.861 51.9975 175.847 51.9975H174.986C174.951 51.9975 174.934 51.9801 174.934 51.9453V47.4316C174.934 47.4199 174.939 47.4087 174.947 47.4003C174.955 47.3919 174.965 47.3871 174.977 47.3868C176.192 47.3503 178.431 47.1228 178.04 49.1814C177.845 50.2039 176.964 50.3437 175.967 50.3604C175.922 50.3611 175.899 50.3841 175.899 50.4293ZM175.895 48.2361L175.893 49.4986C175.893 49.5119 175.898 49.5246 175.908 49.534C175.917 49.5434 175.93 49.5487 175.943 49.5487L176.423 49.5497C176.512 49.5498 176.6 49.5331 176.682 49.5004C176.764 49.4677 176.838 49.4197 176.901 49.3591C176.964 49.2986 177.014 49.2267 177.048 49.1475C177.082 49.0683 177.1 48.9834 177.1 48.8976V48.8412C177.1 48.668 177.029 48.5018 176.903 48.3791C176.776 48.2564 176.604 48.1873 176.425 48.187L175.945 48.186C175.932 48.186 175.919 48.1913 175.91 48.2007C175.9 48.2101 175.895 48.2228 175.895 48.2361Z" fill="#9D9DA6"/>
<path d="M181.329 50.0432L182.595 51.9505C182.598 51.9548 182.6 51.9599 182.6 51.9652C182.6 51.9705 182.599 51.9757 182.597 51.9804C182.594 51.9851 182.59 51.9891 182.586 51.9919C182.581 51.9947 182.576 51.9963 182.57 51.9964L181.618 51.9974C181.581 51.9974 181.554 51.9821 181.535 51.9515L180.511 50.279C180.488 50.2421 180.455 50.2237 180.411 50.2237H180.02C179.985 50.2237 179.968 50.2411 179.968 50.2759V51.9453C179.968 51.9801 179.951 51.9974 179.916 51.9974H179.068C179.024 51.9974 179.003 51.9755 179.003 51.9317V47.4598C179.003 47.4215 179.022 47.401 179.059 47.3982C180.072 47.3179 182.215 47.1447 182.134 48.7765C182.107 49.3274 181.837 49.7187 181.351 49.9608C181.312 49.9802 181.304 50.0077 181.329 50.0432ZM179.966 48.2215L179.964 49.4005C179.964 49.4104 179.968 49.42 179.975 49.427C179.982 49.4341 179.991 49.438 180.001 49.438L180.417 49.4391C180.515 49.4393 180.613 49.4246 180.704 49.3958C180.796 49.3671 180.878 49.3248 180.948 49.2715C181.018 49.2182 181.074 49.1549 181.112 49.0852C181.149 49.0155 181.169 48.9407 181.169 48.8652V48.7609C181.169 48.6085 181.09 48.4622 180.95 48.3542C180.809 48.2462 180.618 48.1853 180.419 48.1849L180.004 48.1839C179.994 48.1839 179.984 48.1879 179.977 48.1949C179.97 48.2019 179.966 48.2115 179.966 48.2215Z" fill="#9D9DA6"/>
<path d="M190.037 48.2318V51.9545C190.037 51.9659 190.032 51.9768 190.024 51.9848C190.016 51.9928 190.005 51.9973 189.994 51.9973H189.114C189.109 51.9973 189.103 51.9962 189.098 51.9941C189.093 51.9919 189.088 51.9888 189.084 51.9848C189.08 51.9808 189.077 51.9761 189.075 51.9709C189.073 51.9657 189.072 51.9601 189.072 51.9545V48.2318C189.072 48.2204 189.067 48.2095 189.059 48.2015C189.051 48.1935 189.04 48.189 189.029 48.189H187.888C187.877 48.189 187.866 48.1845 187.858 48.1765C187.85 48.1684 187.846 48.1576 187.846 48.1462V47.4231C187.846 47.4118 187.85 47.4009 187.858 47.3929C187.866 47.3849 187.877 47.3804 187.888 47.3804H191.22C191.231 47.3804 191.242 47.3849 191.25 47.3929C191.258 47.4009 191.263 47.4118 191.263 47.4231V48.1462C191.263 48.1576 191.258 48.1684 191.25 48.1765C191.242 48.1845 191.231 48.189 191.22 48.189H190.08C190.068 48.189 190.057 48.1935 190.049 48.2015C190.041 48.2095 190.037 48.2204 190.037 48.2318Z" fill="#9D9DA6"/>
<path d="M207.139 51.1887H208.905C208.911 51.1887 208.916 51.1898 208.922 51.192C208.927 51.1941 208.931 51.1973 208.935 51.2012C208.939 51.2052 208.943 51.2099 208.945 51.2151C208.947 51.2203 208.948 51.2259 208.948 51.2315V51.9545C208.948 51.9601 208.947 51.9657 208.945 51.9709C208.943 51.9761 208.939 51.9808 208.935 51.9848C208.931 51.9888 208.927 51.9919 208.922 51.9941C208.916 51.9962 208.911 51.9973 208.905 51.9973H206.174C206.162 51.9973 206.151 51.9928 206.143 51.9848C206.135 51.9768 206.131 51.9659 206.131 51.9545V47.4231C206.131 47.4118 206.135 47.4009 206.143 47.3929C206.151 47.3849 206.162 47.3804 206.174 47.3804H207.053C207.065 47.3804 207.075 47.3849 207.083 47.3929C207.091 47.4009 207.096 47.4118 207.096 47.4231V51.1459C207.096 51.1573 207.1 51.1681 207.109 51.1762C207.117 51.1842 207.127 51.1887 207.139 51.1887Z" fill="#9D9DA6"/>
</g>
<rect x="0.5" y="0.5" width="239" height="79" stroke="#2E2E33"/>
<defs>
<clipPath id="clip0_33149_130765">
<rect width="178" height="24.102" fill="white" transform="translate(31 28)"/>
</clipPath>
</defs>
</svg>
