<svg width="240" height="120" viewBox="0 0 240 120" fill="none" xmlns="http://www.w3.org/2000/svg">
<rect x="0.5" y="0.5" width="239" height="119" fill="#17171A"/>
<g clip-path="url(#clip0_33124_128248)">
<path d="M52.5741 70C50.3486 70 48.5252 69.4815 47.1039 68.4444C45.7013 67.3889 45 65.8889 45 63.9444C45 63.537 45.0468 63.037 45.1403 62.4444C45.3834 61.1111 45.7294 59.5093 46.1782 57.6389C47.4499 52.5463 50.732 50 56.0245 50C57.4645 50 58.7549 50.2407 59.8957 50.7222C61.0365 51.1852 61.9341 51.8889 62.5887 52.8333C63.2432 53.7593 63.5705 54.8704 63.5705 56.1667C63.5705 56.5556 63.5238 57.0463 63.4303 57.6389C63.1497 59.287 62.8131 60.8889 62.4204 62.4444C61.7658 64.9815 60.6344 66.8796 59.0261 68.1389C57.4177 69.3796 55.2671 70 52.5741 70ZM52.9668 66C54.0141 66 54.9024 65.6944 55.6318 65.0833C56.3798 64.4722 56.9128 63.537 57.2307 62.2778C57.6609 60.537 57.9881 59.0185 58.2126 57.7222C58.2874 57.3333 58.3248 56.9352 58.3248 56.5278C58.3248 54.8426 57.4364 54 55.6598 54C54.6125 54 53.7149 54.3056 52.9668 54.9167C52.2375 55.5278 51.7138 56.463 51.3959 57.7222C51.0593 58.963 50.7226 60.4815 50.386 62.2778C50.3112 62.6481 50.2738 63.037 50.2738 63.4444C50.2738 65.1481 51.1715 66 52.9668 66Z" fill="#9D9DA6"/>
<path d="M66.417 69.7223C66.2112 69.7223 66.0523 69.6575 65.9401 69.5279C65.8466 69.3797 65.8185 69.2131 65.8559 69.0279L69.7271 50.9723C69.7645 50.7686 69.8674 50.6019 70.0357 50.4723C70.204 50.3426 70.3817 50.2778 70.5687 50.2778H78.0305C80.1064 50.2778 81.7708 50.7038 83.0238 51.5556C84.2955 52.4075 84.9314 53.6389 84.9314 55.2501C84.9314 55.713 84.8753 56.1945 84.7631 56.6945C84.2955 58.8241 83.3511 60.3982 81.9298 61.4168C80.5272 62.4353 78.6009 62.9445 76.151 62.9445H72.364L71.0736 69.0279C71.0362 69.2316 70.9333 69.3982 70.765 69.5279C70.5967 69.6575 70.4191 69.7223 70.232 69.7223H66.417ZM76.3474 59.1112C77.1329 59.1112 77.8155 58.8982 78.3952 58.4723C78.9937 58.0464 79.3864 57.4352 79.5734 56.6389C79.6295 56.3241 79.6576 56.0464 79.6576 55.8056C79.6576 55.2686 79.4986 54.8612 79.1807 54.5834C78.8628 54.2871 78.3204 54.1389 77.5537 54.1389H74.1874L73.1214 59.1112H76.3474Z" fill="#9D9DA6"/>
<path d="M91.2519 69.7223C91.0462 69.7223 90.8872 69.6575 90.775 69.5279C90.6628 69.3797 90.6254 69.2131 90.6628 69.0279L93.7766 54.6389H88.7833C88.5776 54.6389 88.4186 54.5741 88.3064 54.4445C88.2129 54.2964 88.1849 54.1297 88.2223 53.9445L88.8675 50.9723C88.9049 50.7686 89.0077 50.6019 89.176 50.4723C89.3443 50.3426 89.522 50.2778 89.709 50.2778H104.801C105.007 50.2778 105.166 50.3426 105.278 50.4723C105.353 50.5834 105.39 50.6945 105.39 50.8056C105.39 50.8612 105.381 50.9167 105.362 50.9723L104.717 53.9445C104.68 54.1482 104.577 54.3149 104.408 54.4445C104.259 54.5741 104.081 54.6389 103.875 54.6389H98.9101L95.7963 69.0279C95.7589 69.2316 95.6561 69.3982 95.4878 69.5279C95.3194 69.6575 95.1418 69.7223 94.9548 69.7223H91.2519Z" fill="#9D9DA6"/>
<path d="M106.106 69.7223C105.9 69.7223 105.741 69.6575 105.629 69.5279C105.517 69.3797 105.479 69.2131 105.517 69.0279L109.416 50.9723C109.453 50.7686 109.556 50.6019 109.725 50.4723C109.893 50.3426 110.071 50.2778 110.258 50.2778H114.045C114.25 50.2778 114.409 50.3426 114.522 50.4723C114.596 50.5834 114.634 50.6945 114.634 50.8056C114.634 50.8612 114.624 50.9167 114.606 50.9723L110.734 69.0279C110.697 69.2316 110.594 69.3982 110.426 69.5279C110.258 69.6575 110.08 69.7223 109.893 69.7223H106.106Z" fill="#9D9DA6"/>
<path d="M116.787 69.7223C116.582 69.7223 116.423 69.6575 116.31 69.5279C116.198 69.3982 116.161 69.2316 116.198 69.0279L120.069 50.9723C120.107 50.7686 120.21 50.6019 120.378 50.4723C120.546 50.3426 120.733 50.2778 120.939 50.2778H123.969C124.417 50.2778 124.707 50.4815 124.838 50.8889L127.896 59.6389L134.713 50.8889C134.806 50.7408 134.937 50.6019 135.105 50.4723C135.292 50.3426 135.517 50.2778 135.779 50.2778H138.836C139.042 50.2778 139.201 50.3426 139.313 50.4723C139.388 50.5834 139.425 50.6945 139.425 50.8056C139.425 50.8612 139.416 50.9167 139.397 50.9723L135.526 69.0279C135.489 69.2316 135.386 69.3982 135.217 69.5279C135.049 69.6575 134.872 69.7223 134.684 69.7223H131.29C131.084 69.7223 130.926 69.6575 130.813 69.5279C130.72 69.3797 130.692 69.2131 130.729 69.0279L132.917 58.7778L128.625 64.4168C128.438 64.6205 128.261 64.7779 128.092 64.889C127.924 65.0001 127.728 65.0557 127.503 65.0557H126.044C125.652 65.0557 125.381 64.8427 125.231 64.4168L123.239 58.5278L120.995 69.0279C120.958 69.2316 120.855 69.3982 120.686 69.5279C120.518 69.6575 120.34 69.7223 120.153 69.7223H116.787Z" fill="#9D9DA6"/>
<path d="M141.548 69.7223C141.343 69.7223 141.184 69.6575 141.072 69.5279C140.959 69.3797 140.922 69.2131 140.959 69.0279L144.859 50.9723C144.896 50.7686 144.999 50.6019 145.167 50.4723C145.335 50.3426 145.513 50.2778 145.7 50.2778H149.487C149.693 50.2778 149.852 50.3426 149.964 50.4723C150.039 50.5834 150.076 50.6945 150.076 50.8056C150.076 50.8612 150.067 50.9167 150.048 50.9723L146.177 69.0279C146.14 69.2316 146.037 69.3982 145.868 69.5279C145.7 69.6575 145.522 69.7223 145.335 69.7223H141.548Z" fill="#9D9DA6"/>
<path d="M159.159 70C157.513 70 156.101 69.7778 154.923 69.3333C153.763 68.8889 152.884 68.2963 152.286 67.5556C151.706 66.8148 151.416 65.9907 151.416 65.0833C151.416 64.9352 151.435 64.713 151.472 64.4167C151.51 64.25 151.585 64.1111 151.697 64C151.828 63.8889 151.977 63.8333 152.146 63.8333H155.736C155.961 63.8333 156.129 63.8704 156.241 63.9444C156.372 64.0185 156.503 64.1481 156.634 64.3333C156.765 64.8148 157.064 65.213 157.532 65.5278C158.018 65.8426 158.682 66 159.523 66C160.589 66 161.45 65.8333 162.104 65.5C162.759 65.1667 163.152 64.713 163.282 64.1389C163.301 64.0648 163.31 63.9537 163.31 63.8056C163.31 63.3426 163.021 62.9815 162.441 62.7222C161.861 62.4444 160.795 62.1204 159.243 61.75C157.429 61.3611 156.054 60.7778 155.119 60C154.184 59.2037 153.717 58.1667 153.717 56.8889C153.717 56.4444 153.773 55.9907 153.885 55.5278C154.259 53.8056 155.185 52.4537 156.662 51.4722C158.158 50.4907 160.084 50 162.441 50C163.862 50 165.125 50.25 166.228 50.75C167.331 51.25 168.182 51.8889 168.781 52.6667C169.398 53.4259 169.706 54.1852 169.706 54.9444C169.706 55.1667 169.697 55.3241 169.678 55.4167C169.641 55.5833 169.557 55.7222 169.426 55.8333C169.314 55.9445 169.173 56 169.005 56H165.246C164.835 56 164.554 55.8426 164.405 55.5278C164.386 55.1019 164.161 54.7407 163.731 54.4444C163.301 54.1481 162.74 54 162.048 54C161.225 54 160.543 54.1481 160 54.4444C159.477 54.7407 159.149 55.1759 159.019 55.75C159 55.8426 158.99 55.963 158.99 56.1111C158.99 56.5556 159.252 56.9259 159.776 57.2222C160.318 57.5 161.263 57.787 162.609 58.0833C164.704 58.4907 166.228 59.0741 167.182 59.8333C168.154 60.5926 168.64 61.6019 168.64 62.8611C168.64 63.287 168.584 63.75 168.472 64.25C168.061 66.1389 167.06 67.5741 165.47 68.5556C163.9 69.5185 161.796 70 159.159 70Z" fill="#9D9DA6"/>
<path d="M172.362 69.7223C172.156 69.7223 171.997 69.6575 171.885 69.5279C171.773 69.3982 171.735 69.2316 171.773 69.0279L175.644 50.9723C175.681 50.7686 175.784 50.6019 175.953 50.4723C176.121 50.3426 176.308 50.2778 176.514 50.2778H179.543C179.992 50.2778 180.282 50.4815 180.413 50.8889L183.471 59.6389L190.287 50.8889C190.381 50.7408 190.512 50.6019 190.68 50.4723C190.867 50.3426 191.091 50.2778 191.353 50.2778H194.411C194.617 50.2778 194.776 50.3426 194.888 50.4723C194.963 50.5834 195 50.6945 195 50.8056C195 50.8612 194.991 50.9167 194.972 50.9723L191.101 69.0279C191.063 69.2316 190.96 69.3982 190.792 69.5279C190.624 69.6575 190.446 69.7223 190.259 69.7223H186.865C186.659 69.7223 186.5 69.6575 186.388 69.5279C186.294 69.3797 186.266 69.2131 186.304 69.0279L188.492 58.7778L184.2 64.4168C184.013 64.6205 183.835 64.7779 183.667 64.889C183.499 65.0001 183.302 65.0557 183.078 65.0557H181.619C181.226 65.0557 180.955 64.8427 180.806 64.4168L178.814 58.5278L176.57 69.0279C176.532 69.2316 176.429 69.3982 176.261 69.5279C176.093 69.6575 175.915 69.7223 175.728 69.7223H172.362Z" fill="#9D9DA6"/>
</g>
<rect x="0.5" y="0.5" width="239" height="119" stroke="#2E2E33"/>
<defs>
<clipPath id="clip0_33124_128248">
<rect width="150" height="20" fill="white" transform="translate(45 50)"/>
</clipPath>
</defs>
</svg>
