<svg width="240" height="120" viewBox="0 0 240 120" fill="none" xmlns="http://www.w3.org/2000/svg">
<rect x="0.5" y="0.5" width="239" height="119" fill="#17171A"/>
<path d="M132.31 54.9198C132.159 53.6422 131.545 52.6504 130.469 51.9445C129.394 51.2384 128.074 50.8854 126.511 50.8854C125.368 50.8854 124.368 51.0703 123.51 51.4401C122.661 51.81 121.997 52.3185 121.518 52.9656C121.048 53.6128 120.812 54.3483 120.812 55.1719C120.812 55.8611 120.976 56.4537 121.304 56.9495C121.64 57.437 122.069 57.8447 122.59 58.1725C123.111 58.4919 123.657 58.7566 124.229 58.9667C124.8 59.1684 125.326 59.3323 125.805 59.4584L128.427 60.1645C129.1 60.3409 129.848 60.5847 130.671 60.8957C131.503 61.2066 132.298 61.6311 133.054 62.169C133.819 62.6985 134.449 63.3792 134.945 64.2114C135.441 65.0434 135.689 66.0646 135.689 67.2749C135.689 68.6702 135.323 69.9309 134.592 71.0572C133.869 72.1835 132.81 73.0786 131.415 73.7426C130.028 74.4066 128.343 74.7385 126.36 74.7385C124.51 74.7385 122.909 74.4401 121.556 73.8434C120.211 73.2466 119.152 72.4146 118.379 71.3472C117.614 70.2798 117.181 69.04 117.081 67.6279H120.308C120.392 68.6029 120.72 69.4098 121.291 70.0486C121.871 70.6789 122.602 71.1496 123.485 71.4606C124.376 71.7631 125.334 71.9145 126.36 71.9145C127.553 71.9145 128.625 71.7212 129.574 71.3345C130.524 70.9395 131.276 70.3932 131.831 69.6955C132.386 68.9896 132.663 68.1659 132.663 67.2245C132.663 66.3673 132.424 65.6696 131.945 65.1317C131.466 64.5938 130.835 64.1567 130.054 63.8205C129.272 63.4843 128.427 63.1902 127.519 62.938L124.342 62.0304C122.325 61.4504 120.728 60.6225 119.552 59.5467C118.375 58.4709 117.786 57.063 117.786 55.3232C117.786 53.8776 118.177 52.6169 118.959 51.541C119.749 50.4568 120.808 49.6163 122.136 49.0195C123.472 48.4144 124.964 48.1118 126.612 48.1118C128.276 48.1118 129.755 48.4102 131.049 49.0069C132.344 49.5953 133.369 50.4021 134.126 51.4275C134.891 52.453 135.294 53.6171 135.336 54.9198H132.31Z" fill="#9D9DA6"/>
<path d="M150.5 66.367V54.9194H153.475V74.2843H150.5V71.0064H150.298C149.844 71.9898 149.138 72.8261 148.18 73.5152C147.222 74.196 146.012 74.5365 144.549 74.5365C143.339 74.5365 142.263 74.2718 141.322 73.7423C140.381 73.2044 139.641 72.3974 139.103 71.3216C138.565 70.2374 138.296 68.8716 138.296 67.2241V54.9194H141.271V67.0224C141.271 68.4346 141.666 69.5607 142.457 70.4013C143.255 71.2418 144.272 71.662 145.508 71.662C146.247 71.662 146.999 71.4729 147.764 71.0947C148.538 70.7164 149.185 70.1366 149.706 69.3549C150.235 68.5732 150.5 67.5773 150.5 66.367Z" fill="#9D9DA6"/>
<path d="M156.795 74.2844V54.9195H159.77V74.2844H156.795ZM158.308 51.6921C157.728 51.6921 157.227 51.4945 156.807 51.0995C156.395 50.7045 156.189 50.2296 156.189 49.6749C156.189 49.1202 156.395 48.6453 156.807 48.2502C157.227 47.8552 157.728 47.6577 158.308 47.6577C158.887 47.6577 159.383 47.8552 159.795 48.2502C160.215 48.6453 160.425 49.1202 160.425 49.6749C160.425 50.2296 160.215 50.7045 159.795 51.0995C159.383 51.4945 158.887 51.6921 158.308 51.6921Z" fill="#9D9DA6"/>
<path fill-rule="evenodd" clip-rule="evenodd" d="M132.109 55.1377L132.086 54.9419C131.943 53.7294 131.365 52.7961 130.344 52.126C129.312 51.4484 128.037 51.1034 126.507 51.1034C125.388 51.1034 124.419 51.2844 123.595 51.6398C122.777 51.9962 122.146 52.4819 121.694 53.0929C121.252 53.7008 121.031 54.39 121.031 55.168C121.031 55.8199 121.185 56.3677 121.484 56.8214C121.802 57.2821 122.208 57.6682 122.703 57.98C123.211 58.2912 123.744 58.5493 124.301 58.754C124.867 58.9539 125.386 59.1158 125.858 59.2399L128.48 59.9459C128.48 59.9459 128.48 59.9459 128.48 59.9459C129.161 60.1248 129.917 60.3712 130.746 60.684C131.596 61.0019 132.407 61.4353 133.178 61.9834C133.969 62.5316 134.621 63.236 135.132 64.0939C135.653 64.9678 135.907 66.0306 135.907 67.271C135.907 68.707 135.53 70.0099 134.775 71.1734C134.027 72.3393 132.934 73.2599 131.507 73.9387C130.083 74.6206 128.363 74.9565 126.356 74.9565C124.483 74.9565 122.85 74.6544 121.463 74.0425C120.087 73.4319 118.995 72.5761 118.196 71.4733C117.405 70.37 116.959 69.0894 116.856 67.6399L116.839 67.4022H120.508L120.525 67.605C120.606 68.5386 120.918 69.2978 121.452 69.8956C122.005 70.4959 122.704 70.9471 123.554 71.247C124.42 71.5408 125.353 71.6886 126.356 71.6886C127.525 71.6886 128.567 71.4994 129.486 71.1256C130.406 70.7428 131.126 70.2175 131.654 69.5538C132.176 68.8891 132.438 68.1146 132.438 67.2207C132.438 66.4068 132.212 65.7652 131.775 65.2753C131.321 64.7657 130.719 64.3462 129.962 64.0205C129.191 63.6887 128.355 63.3977 127.456 63.1479L127.455 63.1475L124.278 62.2397C122.238 61.6531 120.607 60.8116 119.398 59.7065C118.171 58.5845 117.561 57.115 117.561 55.3192C117.561 53.8311 117.964 52.5237 118.776 51.4066C119.591 50.2887 120.681 49.4245 122.041 48.8133C123.41 48.1937 124.933 47.886 126.608 47.886C128.299 47.886 129.81 48.1892 131.138 48.8012C132.462 49.4033 133.519 50.2326 134.3 51.2914C135.093 52.3539 135.511 53.5617 135.554 54.9087L135.561 55.1377H132.109ZM134.122 51.4236C133.366 50.3982 132.34 49.5913 131.046 49.003C129.752 48.4062 128.272 48.1079 126.608 48.1079C124.961 48.1079 123.469 48.4105 122.132 49.0156C120.804 49.6123 119.746 50.4528 118.955 51.5371C118.174 52.6129 117.783 53.8737 117.783 55.3192C117.783 57.059 118.371 58.4669 119.548 59.5427C120.725 60.6185 122.322 61.4464 124.339 62.0264L127.516 62.9341C128.424 63.1862 129.268 63.4805 130.05 63.8167C130.832 64.1529 131.462 64.5898 131.941 65.1277C132.42 65.6657 132.66 66.3633 132.66 67.2207C132.66 68.162 132.382 68.9856 131.828 69.6917C131.273 70.3892 130.521 70.9355 129.571 71.3306C128.621 71.7172 127.549 71.9105 126.356 71.9105C125.331 71.9105 124.372 71.7593 123.481 71.4567C122.599 71.1456 121.868 70.675 121.288 70.0447C120.716 69.4058 120.388 68.599 120.304 67.6241H117.077C117.082 67.6985 117.088 67.7724 117.096 67.8459C117.224 69.1663 117.651 70.332 118.375 71.3432C119.149 72.4106 120.208 73.2427 121.553 73.8394C122.906 74.4362 124.507 74.7346 126.356 74.7346C128.34 74.7346 130.025 74.4026 131.411 73.7386C132.807 73.0746 133.866 72.1795 134.589 71.0532C135.32 69.927 135.685 68.6662 135.685 67.271C135.685 66.0607 135.437 65.0395 134.941 64.2075C134.446 63.3753 133.815 62.6945 133.05 62.165C132.294 61.6271 131.5 61.2026 130.668 60.8917C129.844 60.5807 129.096 60.3369 128.424 60.1605L125.801 59.4544C125.322 59.3284 124.797 59.1645 124.225 58.9627C123.654 58.7526 123.107 58.4879 122.586 58.1685C122.065 57.8407 121.637 57.433 121.3 56.9456C120.973 56.4498 120.809 55.8571 120.809 55.168C120.809 54.3443 121.044 53.6089 121.515 52.9616C121.994 52.3146 122.658 51.8061 123.507 51.4362C124.364 51.0664 125.364 50.8815 126.507 50.8815C128.071 50.8815 129.39 51.2345 130.466 51.9405C131.542 52.6465 132.155 53.6383 132.307 54.9158H135.332C135.33 54.8414 135.326 54.7674 135.322 54.694C135.243 53.4806 134.843 52.3905 134.122 51.4236ZM150.274 54.694H153.694V74.5026H150.274V71.5305C149.807 72.3649 149.149 73.0852 148.306 73.6917C147.302 74.4051 146.043 74.7548 144.546 74.7548C143.302 74.7548 142.188 74.4824 141.209 73.932L141.208 73.9313C140.225 73.3693 139.456 72.5278 138.901 71.4172C138.343 70.2933 138.07 68.8905 138.07 67.2207V54.694H141.49V67.0189C141.49 68.3875 141.871 69.4546 142.614 70.2451C143.368 71.0382 144.325 71.4364 145.504 71.4364C146.205 71.4364 146.923 71.2576 147.662 70.8921C148.397 70.5328 149.016 69.9802 149.517 69.2282L149.518 69.2268C150.017 68.491 150.274 67.5417 150.274 66.3633V54.694ZM142.453 70.3976C141.663 69.5572 141.268 68.4309 141.268 67.0189V54.9158H138.292V67.2207C138.292 68.8679 138.561 70.2337 139.099 71.3179C139.637 72.3939 140.377 73.2007 141.318 73.7386C142.26 74.2681 143.335 74.5328 144.546 74.5328C146.008 74.5328 147.218 74.1924 148.177 73.5116C149.121 72.8326 149.82 72.0107 150.274 71.0461C150.281 71.0316 150.288 71.0172 150.295 71.0028H150.496V74.2807H153.472V54.9158H150.496V66.3633C150.496 67.5736 150.232 68.5695 149.702 69.3512C149.181 70.1329 148.534 70.7128 147.76 71.091C146.996 71.4693 146.243 71.6584 145.504 71.6584C144.268 71.6584 143.251 71.2382 142.453 70.3976ZM156.569 74.5026V54.694H159.988V74.5026H156.569ZM156.652 51.2575L156.65 51.256C156.196 50.8204 155.964 50.2883 155.964 49.6712C155.964 49.0541 156.196 48.5219 156.65 48.0864L156.652 48.0849C157.113 47.6509 157.668 47.4321 158.304 47.4321C158.94 47.4321 159.491 47.6508 159.944 48.0857C160.407 48.5207 160.644 49.053 160.644 49.6712C160.644 50.2894 160.407 50.8217 159.944 51.2567C159.491 51.6916 158.94 51.9103 158.304 51.9103C157.668 51.9103 157.113 51.6914 156.652 51.2575ZM159.792 51.0958C160.212 50.7008 160.422 50.2259 160.422 49.6712C160.422 49.1165 160.212 48.6416 159.792 48.2465C159.38 47.8515 158.884 47.654 158.304 47.654C157.724 47.654 157.224 47.8515 156.804 48.2465C156.392 48.6416 156.186 49.1165 156.186 49.6712C156.186 50.2259 156.392 50.7008 156.804 51.0958C157.224 51.4908 157.724 51.6884 158.304 51.6884C158.884 51.6884 159.38 51.4908 159.792 51.0958ZM156.791 74.2807H159.766V54.9158H156.791V74.2807Z" fill="#9D9DA6"/>
<path fill-rule="evenodd" clip-rule="evenodd" d="M104.809 55.8606L104.808 55.8624C106.555 58.0531 107.599 60.8277 107.599 63.8456C107.599 66.9083 106.524 69.7206 104.729 71.9261L104.575 72.116L104.534 71.8747C104.499 71.6694 104.458 71.4622 104.411 71.2533C103.513 67.308 100.587 63.9249 95.7719 61.1856C92.5203 59.3409 90.659 57.1196 90.1704 54.5959C89.8548 52.9639 90.0894 51.3246 90.5429 49.9206C90.9961 48.517 91.6705 47.3411 92.2433 46.6331L94.1168 44.3422C94.4453 43.9405 95.0601 43.9405 95.3885 44.3422L104.809 55.8606ZM107.771 53.5722L95.2167 38.2198C94.977 37.9267 94.5282 37.9267 94.2885 38.2198L81.7335 53.5715L81.693 53.623C79.3826 56.4899 78 60.1333 78 64.0994C78 73.3363 85.5002 80.8246 94.7526 80.8246C104.005 80.8246 111.505 73.3363 111.505 64.0994C111.505 60.1333 110.123 56.4899 107.812 53.623L107.771 53.5722ZM84.7375 55.8111L85.861 54.4373L85.8949 54.6907C85.9218 54.8916 85.9544 55.0935 85.9931 55.2962C86.7197 59.1085 89.3153 62.2873 93.6549 64.7492C97.4271 66.8962 99.6235 69.3649 100.256 72.0725C100.52 73.2025 100.567 74.3142 100.453 75.2862L100.446 75.3465L100.392 75.373C98.689 76.2047 96.7751 76.6716 94.7522 76.6716C87.6573 76.6716 81.9055 70.9294 81.9055 63.8456C81.9055 60.8042 82.9658 58.0096 84.7375 55.8111Z" fill="#9D9DA6"/>
<rect x="0.5" y="0.5" width="239" height="119" stroke="#2E2E33"/>
</svg>
