<svg width="240" height="120" viewBox="0 0 240 120" fill="none" xmlns="http://www.w3.org/2000/svg">
<rect x="0.5" y="0.5" width="239" height="119" fill="#17171A"/>
<path d="M167.282 63.1204H164.282C164.05 63.1145 163.829 63.0211 163.665 62.8592C163.501 62.6974 163.406 62.4796 163.4 62.2508V61.5552C163.406 61.3264 163.501 61.1086 163.665 60.9468C163.829 60.785 164.05 60.6915 164.282 60.6856H166.847C167.081 60.6856 167.305 60.594 167.471 60.4309C167.636 60.2679 167.729 60.0467 167.729 59.8161C167.729 59.5855 167.636 59.3642 167.471 59.2012C167.305 59.0381 167.081 58.9465 166.847 58.9465H164.259C164.026 58.9406 163.806 58.8471 163.642 58.6853C163.477 58.5235 163.382 58.3057 163.376 58.0769V57.3813C163.382 57.1525 163.477 56.9347 163.642 56.7729C163.806 56.6111 164.026 56.5176 164.259 56.5117H167.2C167.434 56.5117 167.658 56.4201 167.824 56.257C167.989 56.0939 168.082 55.8728 168.082 55.6422C168.082 55.4115 167.989 55.1903 167.824 55.0273C167.658 54.8642 167.434 54.7726 167.2 54.7726H163.671C163.533 54.7698 163.399 54.8148 163.291 54.8995C163.183 54.9842 163.11 55.1034 163.082 55.2363L161.2 63.99V64.1639C161.233 64.3671 161.342 64.5509 161.505 64.6795C161.668 64.808 161.874 64.8722 162.082 64.8595H167.259C167.493 64.8595 167.717 64.7679 167.883 64.6049C168.048 64.4418 168.141 64.2206 168.141 63.99C168.141 63.7593 168.048 63.5382 167.883 63.3751C167.717 63.212 167.493 63.1204 167.259 63.1204H167.282Z" fill="#9D9DA6"/>
<path d="M101.988 54.8301H100.812C100.639 54.8323 100.469 54.8823 100.324 54.9746C100.178 55.0668 100.062 55.1975 99.9883 55.3518L97.4001 61.4968C97.4001 61.5121 97.3936 61.5269 97.383 61.5378C97.3718 61.5487 97.3571 61.5547 97.3412 61.5547C97.2824 61.5547 97.2824 61.5547 97.2824 61.4968L94.6942 55.3518C94.6312 55.195 94.5301 55.0557 94.4001 54.946C94.1648 54.7721 93.8706 55.004 93.8118 55.2939L91.8706 64.1634C91.8553 64.2638 91.8759 64.3664 91.9295 64.4533C92.0001 64.5934 92.1089 64.7113 92.2442 64.7933C92.3795 64.8753 92.5353 64.9181 92.6942 64.9171H93.0471C93.2753 64.9054 93.4901 64.8094 93.6495 64.6482C93.8089 64.487 93.9001 64.2724 93.9059 64.0475V58.3663C93.9059 58.351 93.9124 58.3362 93.923 58.3254C93.9342 58.3145 93.9489 58.3084 93.9648 58.3084C93.9806 58.3084 93.9953 58.3145 94.0065 58.3254C94.0171 58.3362 94.0236 58.351 94.0236 58.3663L96.4353 64.3374C96.4995 64.4987 96.6136 64.6359 96.7612 64.7296C96.9095 64.8233 97.0836 64.8686 97.2589 64.8591H97.4942C97.6671 64.8569 97.8365 64.8068 97.9818 64.7146C98.1277 64.6224 98.2436 64.4917 98.3177 64.3374L100.729 58.4243C100.729 58.409 100.736 58.3942 100.747 58.3833C100.758 58.3724 100.772 58.3663 100.788 58.3663C100.804 58.3663 100.819 58.3724 100.83 58.3833C100.841 58.3942 100.847 58.409 100.847 58.4243V64.0475C100.853 64.2763 100.948 64.4941 101.112 64.6559C101.277 64.8177 101.497 64.9112 101.729 64.9171H102.082C102.315 64.9112 102.535 64.8177 102.699 64.6559C102.864 64.4941 102.959 64.2763 102.965 64.0475V55.6997C102.924 55.4678 102.807 55.2561 102.629 55.0984C102.452 54.9407 102.227 54.8462 101.988 54.8301Z" fill="#9D9DA6"/>
<path d="M128.929 59.5261H126.341C126.123 59.5261 125.913 59.6115 125.759 59.7638C125.604 59.9159 125.518 60.1223 125.518 60.3376C125.518 60.5529 125.604 60.7593 125.759 60.9115C125.913 61.0637 126.123 61.1492 126.341 61.1492H126.812C127.282 61.1492 127.753 61.555 127.518 62.0188C127.165 62.7724 126.459 63.1782 125.341 63.1782C123.694 63.1782 122.694 61.9608 122.694 59.8739C122.694 57.7869 123.753 56.5695 125.341 56.5695C125.709 56.5508 126.076 56.6263 126.406 56.7889C126.736 56.9514 127.018 57.1954 127.223 57.4971C127.315 57.6661 127.451 57.8085 127.616 57.9102C127.781 58.0118 127.97 58.0693 128.165 58.0768H128.694C128.813 58.0863 128.933 58.0671 129.042 58.0209C129.152 57.9746 129.249 57.9028 129.324 57.8115C129.399 57.7201 129.451 57.6121 129.475 57.4967C129.498 57.3813 129.492 57.2621 129.459 57.1492C129.092 56.3892 128.505 55.7528 127.773 55.3196C127.04 54.8866 126.195 54.6761 125.341 54.7144C122.635 54.7144 120.576 56.6275 120.576 59.8739C120.576 63.1202 122.518 65.0333 125.4 65.0333C127.988 65.0333 129.812 63.4101 129.812 60.8014V60.3956C129.814 60.2808 129.793 60.1666 129.749 60.0601C129.706 59.9535 129.641 59.8566 129.559 59.7755C129.476 59.6942 129.378 59.6302 129.27 59.5874C129.162 59.5445 129.046 59.5236 128.929 59.5261Z" fill="#9D9DA6"/>
<path d="M113.635 55.4098C113.575 55.2416 113.464 55.0957 113.317 54.992C113.169 54.8883 112.993 54.8318 112.812 54.8301H111.282C111.101 54.8318 110.925 54.8883 110.778 54.992C110.631 55.0957 110.519 55.2416 110.459 55.4098L107.518 63.7577C107.474 63.8881 107.461 64.027 107.481 64.1631C107.501 64.2993 107.554 64.4288 107.634 64.5415C107.714 64.6543 107.819 64.7469 107.942 64.8121C108.065 64.8773 108.202 64.9133 108.341 64.9171H108.812C108.993 64.9154 109.169 64.8588 109.317 64.7551C109.464 64.6514 109.575 64.5055 109.635 64.3374L109.988 63.2359C110.049 63.0677 110.16 62.9218 110.307 62.8181C110.455 62.7144 110.631 62.6579 110.812 62.6562H113.224C113.405 62.6579 113.581 62.7144 113.728 62.8181C113.875 62.9218 113.987 63.0677 114.047 63.2359L114.4 64.3374C114.461 64.5055 114.572 64.6514 114.719 64.7551C114.867 64.8588 115.042 64.9154 115.224 64.9171H115.694C115.834 64.9133 115.971 64.8773 116.093 64.8121C116.216 64.7469 116.322 64.6543 116.402 64.5415C116.482 64.4288 116.534 64.2993 116.554 64.1631C116.574 64.027 116.562 63.8881 116.518 63.7577L113.635 55.4098ZM112.141 60.9171H111.965C111.825 60.9133 111.688 60.8773 111.565 60.8121C111.443 60.7469 111.337 60.6543 111.257 60.5415C111.177 60.4288 111.125 60.2993 111.105 60.1631C111.085 60.027 111.097 59.8881 111.141 59.7577L112.024 57.091C112.024 57.0756 112.03 57.0608 112.041 57.05C112.052 57.0391 112.067 57.033 112.082 57.033C112.098 57.033 112.113 57.0391 112.124 57.05C112.135 57.0608 112.141 57.0756 112.141 57.091L113.024 59.7577C113.055 59.8922 113.057 60.032 113.028 60.1673C113 60.3025 112.941 60.4299 112.857 60.5404C112.773 60.651 112.665 60.742 112.542 60.8071C112.418 60.8721 112.281 60.9097 112.141 60.9171Z" fill="#9D9DA6"/>
<path d="M135.753 54.8301H135.341C135.109 54.836 134.888 54.9295 134.724 55.0913C134.56 55.2531 134.465 55.4709 134.459 55.6997V64.0475C134.465 64.2763 134.56 64.4941 134.724 64.6559C134.888 64.8177 135.109 64.9112 135.341 64.9171H135.753C135.985 64.9112 136.206 64.8177 136.37 64.6559C136.535 64.4941 136.63 64.2763 136.635 64.0475V55.6997C136.62 55.474 136.523 55.2614 136.36 55.1014C136.198 54.9415 135.982 54.8451 135.753 54.8301Z" fill="#9D9DA6"/>
<path d="M146.047 56.5693C146.444 56.5585 146.836 56.649 147.187 56.8318C147.537 57.0147 147.834 57.2837 148.047 57.6128C148.123 57.8147 148.26 57.9891 148.438 58.1133C148.617 58.2374 148.829 58.3055 149.047 58.3084H149.459C149.578 58.318 149.698 58.2988 149.807 58.2525C149.917 58.2063 150.014 58.1344 150.089 58.0431C150.164 57.9518 150.216 57.8438 150.24 57.7284C150.263 57.613 150.258 57.4937 150.224 57.3809C149.635 55.6418 148.047 54.6562 145.988 54.6562C143.282 54.6562 141.224 56.5113 141.224 59.8157C141.224 63.12 143.224 64.9751 145.988 64.9751C148.165 64.9751 149.635 63.8157 150.165 62.3664C150.199 62.2535 150.204 62.1342 150.181 62.0189C150.157 61.9035 150.105 61.7955 150.03 61.7042C149.955 61.6128 149.858 61.541 149.748 61.4947C149.639 61.4485 149.519 61.4293 149.4 61.4388H148.93C148.715 61.4575 148.51 61.5317 148.334 61.6538C148.159 61.776 148.019 61.9419 147.93 62.1345C147.734 62.4665 147.449 62.7392 147.107 62.9231C146.764 63.1071 146.378 63.1952 145.988 63.178C144.459 63.178 143.4 62.0185 143.4 59.8737C143.4 57.7287 144.459 56.5693 146.047 56.5693Z" fill="#9D9DA6"/>
<path d="M176.518 54.8301H173.753C173.521 54.836 173.3 54.9295 173.136 55.0913C172.971 55.2531 172.876 55.4709 172.871 55.6997V64.0475C172.876 64.2763 172.971 64.4941 173.136 64.6559C173.3 64.8177 173.521 64.9112 173.753 64.9171H176.518C179.635 64.9171 181.518 63.004 181.518 59.8736C181.518 56.7431 179.576 54.8301 176.518 54.8301ZM176.4 63.062H175.929C175.697 63.0561 175.476 62.9626 175.312 62.8008C175.148 62.639 175.053 62.4212 175.047 62.1924V57.4968C175.053 57.268 175.148 57.0502 175.312 56.8884C175.476 56.7265 175.697 56.6331 175.929 56.6272H176.4C178.341 56.6272 179.341 57.6127 179.341 59.8156C179.341 62.0185 178.341 63.062 176.4 63.062Z" fill="#9D9DA6"/>
<path d="M192.106 63.1203H189.106C188.874 63.1144 188.653 63.0209 188.489 62.8591C188.324 62.6973 188.229 62.4795 188.224 62.2507V61.555C188.229 61.3263 188.324 61.1085 188.489 60.9467C188.653 60.7849 188.874 60.6913 189.106 60.6855H191.694C191.928 60.6855 192.152 60.5939 192.318 60.4308C192.484 60.2678 192.577 60.0466 192.577 59.8159C192.577 59.5853 192.484 59.3641 192.318 59.201C192.152 59.038 191.928 58.9463 191.694 58.9463H189.106C188.874 58.9405 188.653 58.847 188.489 58.6852C188.324 58.5233 188.229 58.3056 188.224 58.0768V57.3812C188.229 57.1524 188.324 56.9346 188.489 56.7728C188.653 56.6109 188.874 56.5175 189.106 56.5116H192.047C192.281 56.5116 192.505 56.42 192.671 56.2569C192.837 56.0938 192.929 55.8726 192.929 55.642C192.929 55.4114 192.837 55.1902 192.671 55.0272C192.505 54.864 192.281 54.7725 192.047 54.7725H186.929C186.697 54.7783 186.477 54.8718 186.312 55.0336C186.148 55.1955 186.053 55.4132 186.047 55.642V63.9899C186.053 64.2186 186.148 64.4364 186.312 64.5982C186.477 64.76 186.697 64.8535 186.929 64.8594H192.106C192.338 64.8535 192.559 64.76 192.723 64.5982C192.888 64.4364 192.982 64.2186 192.988 63.9899C192.991 63.875 192.969 63.7609 192.926 63.6543C192.882 63.5477 192.818 63.4509 192.735 63.3697C192.653 63.2885 192.555 63.2245 192.447 63.1816C192.338 63.1388 192.222 63.1179 192.106 63.1203Z" fill="#9D9DA6"/>
<path d="M205.4 54.8301H204.988C204.756 54.836 204.535 54.9295 204.371 55.0913C204.207 55.2531 204.112 55.4709 204.106 55.6997V61.091C204.106 61.149 204.106 61.149 204.047 61.149H203.988L199.871 55.2359C199.791 55.1254 199.685 55.036 199.562 54.9754C199.439 54.9147 199.302 54.8847 199.165 54.8881H198.612C198.379 54.894 198.159 54.9874 197.995 55.1493C197.83 55.3111 197.735 55.5288 197.729 55.7577V64.1055C197.735 64.3343 197.83 64.552 197.995 64.7138C198.159 64.8757 198.379 64.9691 198.612 64.975H199.024C199.256 64.9691 199.477 64.8757 199.641 64.7138C199.805 64.552 199.9 64.3343 199.906 64.1055V58.6562C199.906 58.6408 199.912 58.6261 199.923 58.6152C199.934 58.6043 199.949 58.5982 199.965 58.5982H200.024L204.2 64.5113C204.28 64.6217 204.386 64.7112 204.509 64.7718C204.632 64.8325 204.768 64.8624 204.906 64.8591H205.435C205.668 64.8532 205.888 64.7597 206.052 64.5979C206.217 64.4361 206.312 64.2183 206.318 63.9895V55.6417C206.278 55.4253 206.166 55.228 206 55.0811C205.834 54.9341 205.623 54.8458 205.4 54.8301Z" fill="#9D9DA6"/>
<path d="M66.4764 52.9925L69.1999 56.1925C69.5117 56.5519 69.7881 56.8476 69.8999 57.0157C70.7144 57.8251 71.1711 58.9191 71.1705 60.0591C71.094 61.4041 70.2175 62.32 69.4058 63.2997L67.4999 65.5374L66.5058 66.6969C66.4701 66.7368 66.4471 66.7862 66.4396 66.839C66.4321 66.8917 66.4405 66.9454 66.4637 66.9935C66.4868 67.0416 66.5237 67.082 66.5699 67.1096C66.6161 67.1372 66.6694 67.1509 66.7234 67.149H76.6587C78.1764 67.149 80.0881 68.4244 79.9764 70.3606C79.9732 71.2406 79.6171 72.0838 78.9857 72.706C78.3543 73.3283 77.4988 73.6793 76.6058 73.6823H61.0469C60.0234 73.6823 57.2705 73.7925 56.4999 71.4447C56.336 70.954 56.3136 70.4283 56.4352 69.9258C56.6592 69.1829 57.0135 68.4844 57.4822 67.862C58.2646 66.7026 59.1117 65.5432 59.9469 64.4186C61.0234 62.9461 62.1293 61.52 63.2175 60.0186C63.2562 59.9697 63.2772 59.9095 63.2772 59.8476C63.2772 59.7856 63.2562 59.7254 63.2175 59.6766L59.2646 55.0389C59.2388 55.0053 59.2055 54.978 59.1672 54.9592C59.1289 54.9404 59.0868 54.9307 59.044 54.9307C59.0012 54.9307 58.9591 54.9404 58.9208 54.9592C58.8825 54.978 58.8492 55.0053 58.8234 55.0389C57.7646 56.4476 53.1293 62.6853 52.1411 63.949C51.1528 65.2128 48.7175 65.2823 47.3705 63.949L41.1881 57.8331C41.1487 57.794 41.0982 57.7674 41.0434 57.7566C40.9885 57.7458 40.9317 57.7513 40.88 57.7724C40.8283 57.7936 40.7841 57.8293 40.7531 57.8752C40.7221 57.9211 40.7057 57.975 40.7058 58.0301V69.7925C40.7203 70.6272 40.4695 71.4454 39.9885 72.1326C39.5075 72.8197 38.8204 73.3414 38.0234 73.6244C37.5142 73.799 36.97 73.8512 36.4361 73.7765C35.9023 73.7018 35.3944 73.5024 34.9546 73.1949C34.5148 72.8875 34.156 72.4809 33.9081 72.009C33.6602 71.5371 33.5303 71.0137 33.5293 70.4823V49.3345C33.5648 48.5724 33.843 47.8407 34.3245 47.2433C34.8061 46.646 35.4664 46.2134 36.2117 46.007C36.8509 45.8391 37.5239 45.8408 38.1623 46.0119C38.8007 46.1829 39.3819 46.5172 39.8469 46.9809L49.3528 56.3606C49.3813 56.3891 49.4157 56.4111 49.4538 56.425C49.4918 56.4389 49.5325 56.4444 49.5729 56.441C49.6133 56.4377 49.6525 56.4257 49.6877 56.4058C49.7228 56.3859 49.7531 56.3586 49.7764 56.3258L56.5293 47.1142C56.8414 46.7403 57.2326 46.4381 57.6757 46.2288C58.1187 46.0195 58.6028 45.9082 59.094 45.9026H76.6587C77.1394 45.9034 77.6144 46.0053 78.0519 46.2016C78.4894 46.3979 78.8794 46.6839 79.1956 47.0406C79.5119 47.3973 79.7473 47.8165 79.886 48.2701C80.0247 48.7237 80.0635 49.2012 79.9999 49.6707C79.8761 50.4853 79.4568 51.228 78.8197 51.761C78.1825 52.294 77.3708 52.5812 76.5352 52.5693H66.6999C66.6505 52.5705 66.6023 52.5847 66.5603 52.6105C66.5184 52.6363 66.4842 52.6727 66.4614 52.7159C66.4385 52.7591 66.4279 52.8076 66.4305 52.8562C66.4332 52.9049 66.449 52.9519 66.4764 52.9925Z" fill="#9D9DA6"/>
<rect x="0.5" y="0.5" width="239" height="119" stroke="#2E2E33"/>
</svg>
