<svg width="240" height="120" viewBox="0 0 240 120" fill="none" xmlns="http://www.w3.org/2000/svg">
<rect x="0.5" y="0.5" width="239" height="119" fill="#17171A"/>
<path d="M91.5498 74.2846V53.3128H94.6701L94.9673 55.0055H95.1159C96.0074 53.8461 97.5224 53.0156 99.6318 53.0156C103.492 53.0156 106.583 56.165 106.583 60.827C106.583 65.4889 103.495 68.6383 99.6318 68.6383C97.5516 68.6383 96.0975 67.7759 95.3255 66.7969H95.1768V74.2819H91.5525L91.5498 74.2846ZM102.956 60.8296C102.956 58.0967 101.203 56.3747 99.0639 56.3747C96.9254 56.3747 95.1716 58.0967 95.1716 60.8296C95.1716 63.5626 96.9254 65.2846 99.0639 65.2846C101.203 65.2846 102.956 63.5626 102.956 60.8296Z" fill="#9D9DA6"/>
<path d="M108.424 60.8309C108.424 56.2857 111.69 53.0195 116.057 53.0195C120.425 53.0195 123.691 56.2857 123.691 60.8309C123.691 65.376 120.425 68.6423 116.057 68.6423C111.69 68.6423 108.424 65.3442 108.424 60.8309ZM120.037 60.8309C120.037 58.1564 118.254 56.376 116.057 56.376C113.86 56.376 112.048 58.1591 112.048 60.8309C112.048 63.5028 113.86 65.2566 116.057 65.2566C118.254 65.2566 120.037 63.5054 120.037 60.8309Z" fill="#9D9DA6"/>
<path d="M126.315 68.3441V47.5527H129.94V68.3466H126.315V68.3441Z" fill="#9D9DA6"/>
<path d="M143.395 53.313H147.256L140.721 71.5811C140.068 73.3932 139.176 74.2847 136.828 74.2847H133.323V70.9283H136.295C136.831 70.9283 137.126 70.6604 137.306 70.2146L137.661 69.2355L131.543 53.313H135.404L139.296 63.7406H139.89L143.395 53.313Z" fill="#9D9DA6"/>
<path d="M147.949 69.0866H151.632C151.781 70.0658 152.76 71.4031 155.079 71.4031C157.246 71.4031 158.674 70.0366 158.674 67.9564V65.8471H158.525C157.724 66.7093 156.238 67.4815 154.336 67.4815C150.475 67.4815 147.503 64.5097 147.503 60.2326C147.503 55.9555 150.475 53.0156 154.336 53.0156C156.326 53.0156 157.782 53.8169 158.703 54.9472H158.852L159.149 53.3128H162.298V67.9564C162.298 71.9363 159.624 74.5817 155.079 74.5817C150 74.5817 148.04 71.2544 147.949 69.0866ZM158.674 60.2353C158.674 57.8897 157.01 56.2553 154.901 56.2553C152.792 56.2553 151.157 57.8897 151.157 60.2353C151.157 62.5808 152.821 64.2445 154.901 64.2445C156.981 64.2445 158.674 62.6099 158.674 60.2353Z" fill="#9D9DA6"/>
<path d="M164.817 60.8309C164.817 56.2857 168.084 53.0195 172.451 53.0195C176.818 53.0195 180.085 56.2857 180.085 60.8309C180.085 65.376 176.818 68.6423 172.451 68.6423C168.084 68.6423 164.817 65.3442 164.817 60.8309ZM176.431 60.8309C176.431 58.1564 174.648 56.376 172.451 56.376C170.254 56.376 168.442 58.1591 168.442 60.8309C168.442 63.5028 170.254 65.2566 172.451 65.2566C174.648 65.2566 176.431 63.5054 176.431 60.8309Z" fill="#9D9DA6"/>
<path d="M182.607 68.3438V53.3128H185.725L186.022 54.7376H186.171C186.765 54.0557 188.251 53.0156 190.507 53.0156C193.952 53.0156 196.447 55.5097 196.447 59.3119V68.3411H192.823V59.7869C192.823 57.8552 191.456 56.4596 189.586 56.4596C187.715 56.4596 186.229 57.9163 186.229 59.7869V68.3411H182.604L182.607 68.3438Z" fill="#9D9DA6"/>
<path d="M70.4539 66.5902L79.3636 61.4455C79.836 61.1722 80.1278 60.6653 80.1278 60.1214V49.8319C80.1278 49.288 79.836 48.7812 79.3636 48.5079L70.4539 43.3631C69.9816 43.0899 69.3952 43.0925 68.9256 43.3631L60.0157 48.5079C59.5435 48.7812 59.2516 49.288 59.2516 49.8319V68.2193L53.0031 71.8252L46.7545 68.2193V61.0051L53.0031 57.3992L57.1237 59.7791V54.9395L53.7672 53C53.5363 52.8673 53.2711 52.7957 53.0031 52.7957C52.735 52.7957 52.4698 52.8673 52.239 53L43.3291 58.1447C42.8568 58.418 42.5649 58.9249 42.5649 59.4688V69.7583C42.5649 70.3022 42.8568 70.8089 43.3291 71.0822L52.239 76.2271C52.7112 76.4977 53.295 76.4977 53.7672 76.2271L62.677 71.0822C63.1494 70.8089 63.4411 70.3022 63.4411 69.7583V51.3682L63.5526 51.3045L69.6871 47.7623L75.9356 51.3682V58.5826L69.6871 62.1884L65.5717 59.8136V64.6534L68.9229 66.5876C69.3952 66.8582 69.9816 66.8582 70.4512 66.5876L70.4539 66.5902Z" fill="#9D9DA6"/>
<rect x="0.5" y="0.5" width="239" height="119" stroke="#2E2E33"/>
</svg>
