<svg width="240" height="80" viewBox="0 0 240 80" fill="none" xmlns="http://www.w3.org/2000/svg">
<rect x="0.5" y="0.5" width="239" height="79" fill="#17171A"/>
<g clip-path="url(#clip0_33149_130960)">
<path d="M55.1753 44.413C55.1753 43.3829 56.0104 42.5479 57.0404 42.5479H57.7865C58.8166 42.5479 59.6517 43.3829 59.6517 44.413V45.1591C59.6517 46.1892 58.8166 47.0242 57.7865 47.0242H57.0404C56.0104 47.0242 55.1753 46.1892 55.1753 45.1591V44.413Z" fill="#9D9DA6"/>
<path d="M57.0404 35.8335C56.0104 35.8335 55.1753 36.6686 55.1753 37.6986V38.4447C55.1753 39.4748 56.0104 40.3099 57.0404 40.3099H57.7865C58.8166 40.3099 59.6517 39.4748 59.6517 38.4447V37.6986C59.6517 36.6686 58.8166 35.8335 57.7865 35.8335H57.0404Z" fill="#9D9DA6"/>
<path fill-rule="evenodd" clip-rule="evenodd" d="M48.4607 28C44.3402 28 41 31.3402 41 35.4607V44.7865C41 48.9069 44.3402 52.2471 48.4607 52.2471H57.7865C61.9069 52.2471 65.2471 48.9069 65.2471 44.7865V35.4607C65.2471 31.3402 61.9069 28 57.7865 28H48.4607ZM57.7865 30.9843H48.4607C45.9884 30.9843 43.9843 32.9884 43.9843 35.4607V44.7865C43.9843 47.2587 45.9884 49.2628 48.4607 49.2628H57.7865C60.2587 49.2628 62.2628 47.2587 62.2628 44.7865V35.4607C62.2628 32.9884 60.2587 30.9843 57.7865 30.9843Z" fill="#9D9DA6"/>
<path d="M88.8575 46.2186C89.3656 45.4039 89.6262 44.4596 89.6075 43.5C89.6075 42.6126 89.4111 41.8464 89.0228 41.2198C88.6024 40.5597 88.0317 40.0081 87.3573 39.6101C86.4783 39.0957 85.5488 38.6727 84.5834 38.3477C84.5118 38.3246 84.4482 38.3016 84.3939 38.2808L84.2517 38.23C83.6183 38.0142 83.1445 37.84 82.8394 37.7119C82.5604 37.603 82.3023 37.4469 82.0766 37.2503C81.9778 37.1641 81.8987 37.0576 81.8449 36.9382C81.7911 36.8187 81.7636 36.689 81.7645 36.558C81.7585 36.3632 81.7996 36.1699 81.8843 35.9943C81.969 35.8188 82.0948 35.6662 82.2511 35.5495C82.5597 35.3117 83.0023 35.1906 83.5652 35.1906C84.2594 35.1968 84.9448 35.3461 85.5785 35.6291C86.1292 35.8646 86.6421 36.18 87.1007 36.5649L89.314 33.8717C88.5462 33.1881 87.6686 32.6385 86.7181 32.2458C85.6564 31.8275 84.5228 31.6209 83.3814 31.6377C82.1101 31.6377 81.041 31.8615 80.2088 32.3035C79.3767 32.7454 78.7676 33.3282 78.3839 34.0424C77.9942 34.7706 77.7935 35.5847 77.8002 36.4103C77.8002 37.8619 78.2625 38.9755 79.1663 39.722C80.1679 40.5242 81.3213 41.1164 82.5573 41.4633C83.1929 41.6401 83.8148 41.8626 84.4182 42.1291C84.8666 42.3426 85.166 42.5561 85.3324 42.78C85.5038 43.014 85.5935 43.2978 85.5878 43.5877C85.5926 43.8029 85.542 44.0158 85.4408 44.2059C85.3396 44.396 85.1912 44.557 85.0099 44.6735C84.6412 44.9274 84.1119 45.0508 83.3918 45.0508C81.9552 45.0508 80.5648 44.4358 79.2588 43.2219L76.7646 45.8101C77.6187 46.7025 78.6396 47.4191 79.7697 47.9195C80.9477 48.4301 82.2196 48.6896 83.5039 48.6811C84.7244 48.6811 85.8155 48.4641 86.732 48.0349C87.6006 47.646 88.3385 47.0154 88.8575 46.2186Z" fill="#9D9DA6"/>
<path d="M142.221 44.4868L140.395 43.0259C139.801 43.8102 138.977 44.39 138.037 44.6849C137.098 44.9798 136.089 44.9751 135.152 44.6715C134.216 44.3678 133.397 43.7802 132.81 42.9904C132.223 42.2007 131.898 41.248 131.878 40.2649C131.859 39.2817 132.147 38.317 132.702 37.5048C133.257 36.6925 134.052 36.0732 134.976 35.7329C135.9 35.3926 136.907 35.3482 137.858 35.606C138.808 35.8636 139.655 36.4107 140.279 37.1709L143.251 34.795C142.132 33.4189 140.613 32.4243 138.903 31.9492C137.193 31.4742 135.377 31.5421 133.707 32.1436C132.037 32.7452 130.596 33.8505 129.584 35.3063C128.572 36.7622 128.038 38.4964 128.058 40.2686C128.077 42.0407 128.648 43.7629 129.692 45.1965C130.736 46.63 132.2 47.7038 133.882 48.269C135.565 48.8341 137.382 48.8626 139.081 48.3505C140.781 47.8384 142.278 46.8112 143.367 45.4111L142.221 44.4868Z" fill="#9D9DA6"/>
<path fill-rule="evenodd" clip-rule="evenodd" d="M107.487 37.1006C107.487 38.2291 107.256 39.2341 106.794 40.088C106.337 40.9337 105.642 41.6261 104.793 42.0786C103.917 42.5517 102.864 42.7917 101.663 42.7917H98.7946V48.0709H94.835V31.6367H101.608C102.785 31.6367 103.83 31.8756 104.715 32.3452C105.568 32.7882 106.277 33.4631 106.762 34.2919C107.251 35.1466 107.501 36.1165 107.487 37.1006ZM102.436 38.9849C102.767 38.8088 103.045 38.5454 103.237 38.2233C103.433 37.8947 103.535 37.5186 103.531 37.1363C103.536 36.772 103.433 36.4144 103.233 36.1093C103.034 35.8116 102.758 35.5725 102.436 35.417C102.089 35.2506 101.708 35.1669 101.323 35.1723H98.7946V39.2572H101.312C101.703 39.2615 102.089 39.1679 102.436 38.9849Z" fill="#9D9DA6"/>
<path d="M152.409 41.3827H158.593V38.1345H152.409V35.1723H160.315V31.6367H148.449V48.0709H160.494V44.5353H152.409V41.3827Z" fill="#9D9DA6"/>
<path d="M172.373 31.6367H176.333V48.0709H172.373V31.6367Z" fill="#9D9DA6"/>
<path fill-rule="evenodd" clip-rule="evenodd" d="M196.107 44.0337C196.859 42.7675 197.255 41.3225 197.254 39.8505C197.253 38.3786 196.855 36.9342 196.102 35.6689C195.336 34.4235 194.252 33.4039 192.961 32.7149C191.613 31.9928 190.105 31.6221 188.576 31.6372H182.421V48.0713H188.612C190.136 48.0862 191.638 47.7154 192.979 46.9936C194.267 46.3034 195.348 45.2815 196.107 44.0337ZM192.656 42.1724C192.281 42.8447 191.726 43.399 191.053 43.7729C190.35 44.161 189.559 44.3598 188.755 44.3499H186.382V35.3643H188.744C189.549 35.3535 190.343 35.5523 191.047 35.9413C191.721 36.3166 192.278 36.8705 192.656 37.5418C193.048 38.2472 193.247 39.0431 193.234 39.8496C193.247 40.6609 193.048 41.4616 192.656 42.1724Z" fill="#9D9DA6"/>
<path fill-rule="evenodd" clip-rule="evenodd" d="M115.307 31.6367H118.837L125.15 48.094H121.087L120.191 45.4665V45.4584H113.915V45.4665L113.019 48.094H108.958L115.307 31.6367ZM117.06 36.2466L117.004 36.4139L115.099 41.9966H119.016L117.118 36.4139L117.06 36.2466Z" fill="#9D9DA6"/>
</g>
<rect x="0.5" y="0.5" width="239" height="79" stroke="#2E2E33"/>
<defs>
<clipPath id="clip0_33149_130960">
<rect width="157" height="24.2471" fill="white" transform="translate(41 28)"/>
</clipPath>
</defs>
</svg>
