<svg width="240" height="120" viewBox="0 0 240 120" fill="none" xmlns="http://www.w3.org/2000/svg">
<rect x="0.5" y="0.5" width="239" height="119" fill="#17171A"/>
<g clip-path="url(#clip0_33124_128348)">
<path d="M165.091 43.1128L142.05 76.1239H149.124L172.285 43.1128H165.091Z" fill="#9D9DA6"/>
<path d="M149.861 43.1128L156.64 52.8401L153.103 58.1458L142.639 43.1128H149.861Z" fill="#9D9DA6"/>
<path d="M165.778 76.1268L158.262 65.3679L161.799 60.2095L172.853 76.1268H165.778Z" fill="#9D9DA6"/>
<path fill-rule="evenodd" clip-rule="evenodd" d="M133.796 43.1128H139.986V76.1239H133.796V74.8909C132.008 75.8665 129.956 76.4213 127.773 76.4213C120.843 76.4213 115.226 70.829 115.226 63.9306C115.226 57.0322 120.843 51.4399 127.773 51.4399C129.956 51.4399 132.008 51.9947 133.796 52.9703V43.1128ZM127.707 70.9392C131.632 70.9392 134.814 67.7719 134.814 63.8648C134.814 59.9578 131.632 56.7904 127.707 56.7904C123.782 56.7904 120.601 59.9578 120.601 63.8648C120.601 67.7719 123.782 70.9392 127.707 70.9392Z" fill="#9D9DA6"/>
<path d="M115.842 43.1128L92.8237 76.1239H100.04L123.036 43.1128H115.842Z" fill="#9D9DA6"/>
<path d="M100.046 43.1128L107.267 53.1348L103.288 58.7354L92.5291 43.1128H100.046Z" fill="#9D9DA6"/>
<path fill-rule="evenodd" clip-rule="evenodd" d="M84.5702 43.1128H90.7603V76.1239H84.5702V74.8909C82.7824 75.8665 80.73 76.4213 78.5474 76.4213C71.6176 76.4213 66 70.829 66 63.9306C66 57.0322 71.6176 51.4399 78.5474 51.4399C80.73 51.4399 82.7824 51.9947 84.5702 52.9703V43.1128ZM78.4813 70.9392C82.4061 70.9392 85.5878 67.7719 85.5878 63.8648C85.5878 59.9578 82.4061 56.7904 78.4813 56.7904C74.5565 56.7904 71.3748 59.9578 71.3748 63.8648C71.3748 67.7719 74.5565 70.9392 78.4813 70.9392Z" fill="#9D9DA6"/>
</g>
<rect x="0.5" y="0.5" width="239" height="119" stroke="#2E2E33"/>
<defs>
<clipPath id="clip0_33124_128348">
<rect width="107" height="33.3085" fill="white" transform="translate(66 43.1128)"/>
</clipPath>
</defs>
</svg>
