<svg width="240" height="80" viewBox="0 0 240 80" fill="none" xmlns="http://www.w3.org/2000/svg">
<rect x="0.5" y="0.5" width="239" height="79" fill="#17171A"/>
<path fill-rule="evenodd" clip-rule="evenodd" d="M28.043 39.937C28.043 51.462 37.3856 60.8045 48.9106 60.8045C60.4355 60.8045 69.7788 51.462 69.7788 39.937C69.7788 28.412 60.4355 19.0693 48.9106 19.0693C37.3856 19.0693 28.043 28.412 28.043 39.937Z" fill="#707076"/>
<path fill-rule="evenodd" clip-rule="evenodd" d="M39.7061 35.0207L40.2212 33.4293C40.3259 33.1056 40.5814 32.8537 40.9062 32.7544L42.5055 32.2626C42.7268 32.195 42.7286 31.8827 42.5091 31.8115L40.917 31.2964C40.5939 31.1917 40.342 30.9362 40.2421 30.6113L39.7509 29.0121C39.6833 28.7913 39.371 28.7889 39.2998 29.0091L38.7847 30.6006C38.68 30.9236 38.4245 31.1755 38.0996 31.2754L36.5004 31.7666C36.279 31.8348 36.2766 32.1465 36.4968 32.2177L38.0889 32.7329C38.4119 32.8376 38.6638 33.0936 38.7637 33.4185L39.255 35.0172C39.3225 35.2385 39.6349 35.2409 39.7061 35.0207Z" fill="#9D9DA6"/>
<path fill-rule="evenodd" clip-rule="evenodd" d="M64.9839 34.0942C64.3248 33.3569 63.2957 32.9418 62.2954 32.7716C61.2871 32.6081 60.2297 32.6233 59.2344 32.8001C57.2202 33.1408 55.3905 33.9748 53.7945 35.0036C52.9657 35.5086 52.259 36.0928 51.5268 36.6878C51.174 36.9888 50.8523 37.3092 50.5173 37.6251L49.602 38.5358C48.6074 39.5755 47.627 40.5224 46.6785 41.3073C45.7262 42.0885 44.8358 42.6819 43.9584 43.0963C43.0815 43.5128 42.1432 43.7577 40.9202 43.7969C39.7079 43.8397 38.2737 43.6209 36.7396 43.2598C35.1972 42.9002 33.5775 42.3877 31.7676 41.9468C32.3991 43.6988 33.3501 45.2471 34.5711 46.6623C35.8064 48.053 37.3489 49.3207 39.3305 50.1543C41.2834 51.0065 43.7377 51.3124 46.0324 50.8509C48.3333 50.4079 50.3524 49.3431 51.9845 48.1119C53.6208 46.868 54.9446 45.4511 56.0606 43.9779C56.3686 43.5709 56.5316 43.3431 56.7545 43.025L57.3708 42.1122C57.799 41.5476 58.1889 40.9048 58.6128 40.3454C59.4439 39.1738 60.263 38.0036 61.215 36.9255C61.6942 36.3787 62.1995 35.8556 62.7959 35.353C63.0936 35.1076 63.4148 34.8675 63.7709 34.6512C64.1323 34.4179 64.514 34.2353 64.9839 34.0942Z" fill="#59595E"/>
<path fill-rule="evenodd" clip-rule="evenodd" d="M64.9839 34.0943C64.2757 32.3071 62.9589 30.8026 61.1917 29.6925C59.4349 28.5945 56.9952 28.0342 54.5777 28.5118C53.3832 28.7428 52.226 29.1876 51.2106 29.7798C50.1997 30.3697 49.2939 31.0798 48.5097 31.8415C48.1182 32.2237 47.7629 32.6224 47.4099 33.0233L46.4949 34.1898L45.0817 36.0676C43.2801 38.4837 41.3401 41.3151 38.1563 42.1541C35.0308 42.9777 33.6752 42.2483 31.7676 41.9469C32.1164 42.8475 32.5484 43.722 33.1342 44.4913C33.709 45.2763 34.388 46.0135 35.2321 46.6453C35.6587 46.9488 36.109 47.2484 36.6093 47.5025C37.1072 47.7479 37.6441 47.964 38.2173 48.1267C39.3574 48.4392 40.6409 48.5485 41.8837 48.3805C43.127 48.2147 44.3154 47.8205 45.3542 47.2973C46.4007 46.779 47.3123 46.1477 48.1262 45.4815C49.7443 44.1377 51.0029 42.653 52.066 41.1522C52.6007 40.4019 53.0861 39.6374 53.5351 38.8727L54.0634 37.9622C54.225 37.6961 54.3884 37.4283 54.5544 37.179C55.2238 36.1771 55.8786 35.3737 56.674 34.7707C57.4582 34.1521 58.5505 33.6951 60.0099 33.5889C61.4633 33.4814 63.1412 33.6799 64.9839 34.0943Z" fill="#9D9DA6"/>
<path fill-rule="evenodd" clip-rule="evenodd" d="M57.1206 48.9438C57.1206 50.2563 58.1854 51.3211 59.498 51.3211C60.8108 51.3211 61.874 50.2563 61.874 48.9438C61.874 47.6312 60.8108 46.5664 59.498 46.5664C58.1854 46.5664 57.1206 47.6312 57.1206 48.9438Z" fill="#59595E"/>
<path d="M210.422 34.1016V31.7011C210.422 31.606 210.344 31.5288 210.249 31.5288H196.572C196.477 31.5288 196.399 31.606 196.399 31.7011V34.1016H201.958V49.6312H204.863V34.1016H210.422Z" fill="#9D9DA6"/>
<path d="M182.105 31.5288C182.009 31.5288 181.932 31.6059 181.932 31.7011V49.4587C181.932 49.5538 182.009 49.6312 182.105 49.6312H193.615C193.71 49.6312 193.787 49.5538 193.787 49.4587V47.0837H184.836V41.3946H192.231V38.8983H184.836V34.0761H193.15V31.7011C193.15 31.606 193.072 31.5288 192.977 31.5288H182.105Z" fill="#9D9DA6"/>
<path d="M175.43 49.5258L175.492 49.6312H177.723C177.819 49.6312 177.896 49.5538 177.896 49.4587V31.7011C177.896 31.606 177.819 31.5288 177.723 31.5288H175.043V44.0656C174.577 43.3245 174.037 42.5088 173.421 41.6185C172.638 40.4599 171.794 39.2846 170.892 38.0925C170.006 36.8835 169.104 35.7169 168.184 34.5926C167.28 33.4506 166.427 32.4517 165.623 31.5967L165.559 31.5288H163.46C163.364 31.5288 163.287 31.6059 163.287 31.7011V49.4587C163.287 49.5538 163.364 49.6312 163.46 49.6312H166.14V36.2008C166.507 36.6338 166.897 37.1135 167.311 37.6403C167.87 38.352 168.447 39.115 169.041 39.9291L169.041 39.93L169.042 39.9308C169.635 40.7275 170.228 41.5582 170.822 42.4231L170.823 42.4242L170.824 42.4254C171.434 43.2906 172.019 44.1473 172.579 44.9953L172.58 44.9961L172.58 44.997C173.14 45.8274 173.656 46.6322 174.131 47.4112L174.131 47.4125L174.132 47.4141C174.624 48.1947 175.057 48.8987 175.43 49.5258Z" fill="#9D9DA6"/>
<path d="M159.779 31.8893L159.845 31.8172C159.946 31.7066 159.867 31.5288 159.718 31.5288H156.538L156.473 31.6036C156.051 32.0932 155.527 32.6685 154.899 33.3299C154.288 33.9751 153.634 34.6544 152.938 35.3677C152.242 36.0808 151.537 36.7939 150.824 37.507C150.254 38.0638 149.722 38.577 149.227 39.0466V31.5288H146.495C146.4 31.5288 146.323 31.6059 146.323 31.7011V49.4587C146.323 49.5538 146.4 49.6312 146.495 49.6312H149.227V41.4188C149.827 41.8114 150.44 42.2709 151.066 42.7975L151.067 42.7983L151.068 42.799C151.827 43.4228 152.569 44.106 153.295 44.8487L153.297 44.8505L153.298 44.8522C154.04 45.5775 154.74 46.3449 155.398 47.1545L155.399 47.1553L155.4 47.1563C156.057 47.949 156.639 48.7407 157.143 49.5316L157.207 49.6312H160.306C160.439 49.6312 160.522 49.4877 160.456 49.3728L160.419 49.3084C159.954 48.4987 159.37 47.649 158.668 46.7588C157.984 45.8699 157.249 44.9985 156.463 44.1443C155.678 43.29 154.874 42.4867 154.054 41.7344C153.31 41.053 152.6 40.4679 151.923 39.98C152.499 39.418 153.109 38.8145 153.754 38.1695C154.469 37.4549 155.183 36.7318 155.898 36.0003C156.63 35.2516 157.327 34.5284 157.991 33.8307L157.992 33.8297L157.993 33.8288C158.656 33.1144 159.252 32.4679 159.779 31.8893Z" fill="#9D9DA6"/>
<path fill-rule="evenodd" clip-rule="evenodd" d="M129.837 31.3935C129.742 31.3935 129.665 31.4706 129.665 31.5658V49.4698C129.665 49.5652 129.742 49.6423 129.837 49.6423H132.298V43.0595H135.893C136.297 43.5437 136.692 44.0504 137.077 44.5795L137.078 44.5815L137.08 44.5835C137.709 45.4085 138.29 46.2691 138.824 47.1656L138.825 47.1664L138.825 47.1675C139.308 47.9607 139.73 48.7442 140.091 49.5179L140.149 49.6423H143.061C143.186 49.6423 143.269 49.5137 143.217 49.4001C142.882 48.6663 142.519 47.9475 142.116 47.2475C141.569 46.2691 140.968 45.3003 140.314 44.3413C139.94 43.7933 139.558 43.2609 139.169 42.7442C140.255 42.4121 141.114 41.8115 141.736 40.9398L141.737 40.9392C142.483 39.8842 142.853 38.6435 142.853 37.2264C142.853 36.2526 142.683 35.3616 142.341 34.5565C141.997 33.7396 141.479 33.0622 140.79 32.5278C140.105 31.9905 139.262 31.6487 138.268 31.4953C138.037 31.4526 137.797 31.4271 137.551 31.4184C137.31 31.4018 137.099 31.3934 136.921 31.3934C136.166 31.3934 135.41 31.3933 134.655 31.3932C133.049 31.393 131.443 31.3929 129.837 31.3935ZM140.17 37.2264C140.17 37.6967 140.092 38.1596 139.934 38.6157C139.78 39.0538 139.535 39.4379 139.195 39.7698C138.874 40.084 138.449 40.3069 137.912 40.4316C137.741 40.4702 137.558 40.4977 137.361 40.5134L137.361 40.5135L137.361 40.5135C137.167 40.5296 136.996 40.5375 136.846 40.5375H132.298V33.9153H136.846C136.996 33.9153 137.167 33.9232 137.361 33.9393L137.365 33.9397L137.37 33.9399C137.561 33.9476 137.739 33.9743 137.903 34.0191L137.909 34.0206L137.914 34.0218C138.45 34.1382 138.873 34.3602 139.194 34.6813L139.194 34.6822L139.195 34.683C139.534 35.0144 139.78 35.4023 139.934 35.8489V35.8495L139.934 35.85C140.091 36.2974 140.17 36.7559 140.17 37.2264Z" fill="#9D9DA6"/>
<path fill-rule="evenodd" clip-rule="evenodd" d="M123.203 47.2411L123.203 47.2419L123.204 47.2427C123.459 47.9755 123.732 48.7251 124.021 49.4917L124.074 49.6312H126.987C127.107 49.6312 127.19 49.5123 127.149 49.3998C126.513 47.6513 125.87 45.905 125.215 44.1637C124.62 42.5645 124.033 41.0501 123.454 39.6205C122.892 38.1908 122.331 36.8289 121.769 35.5347C121.205 34.2195 120.612 32.9172 119.994 31.6266C119.965 31.5668 119.905 31.5288 119.839 31.5288H117.515C117.449 31.5288 117.388 31.5668 117.36 31.6266C116.741 32.9172 116.148 34.2195 115.585 35.5348C115.023 36.8285 114.453 38.19 113.874 39.6194L113.874 39.6204L113.874 39.6214C113.312 41.0506 112.733 42.5647 112.138 44.1636C111.483 45.905 110.84 47.6513 110.204 49.3998C110.163 49.5123 110.246 49.6312 110.366 49.6312H113.155L113.155 49.6309H113.209L113.273 49.5622C113.946 48.84 114.698 48.131 115.53 47.4358L115.531 47.4353L115.531 47.4345C116.366 46.7218 117.236 46.0609 118.142 45.4515L118.144 45.4502L118.146 45.4486C119.038 44.8182 119.937 44.2524 120.84 43.7512L120.841 43.7506L120.842 43.75C121.168 43.5648 121.488 43.3923 121.804 43.2323L122.413 44.9738L122.414 44.9751C122.685 45.7391 122.948 46.4944 123.203 47.2411ZM120.069 38.6544L120.069 38.6558L120.07 38.6573C120.315 39.2785 120.561 39.9101 120.806 40.5522C120.788 40.5602 120.769 40.5686 120.75 40.5773C119.887 40.9706 118.958 41.4791 117.966 42.1015C117.016 42.6975 116.073 43.3449 115.138 44.0438L115.534 42.9131C116.058 41.4434 116.582 40.0243 117.105 38.6558C117.587 37.4216 118.089 36.2345 118.61 35.0945C119.116 36.2341 119.602 37.4207 120.069 38.6544Z" fill="#9D9DA6"/>
<path d="M110.915 34.1016V31.7011C110.915 31.606 110.838 31.5288 110.743 31.5288H97.0653C96.9702 31.5288 96.8931 31.606 96.8931 31.7011V34.1016H102.452V49.4587C102.452 49.5538 102.529 49.6312 102.624 49.6312H105.184C105.279 49.6312 105.356 49.5538 105.356 49.4587V34.1016H110.915Z" fill="#9D9DA6"/>
<path d="M84.3429 49.4109L84.3421 49.4107C83.2887 48.9616 82.4125 48.3205 81.7178 47.4869L81.717 47.4858L81.7162 47.485C81.0286 46.6408 80.5819 45.6455 80.3745 44.5043C80.3642 44.4472 80.3772 44.3884 80.4107 44.3411C80.4443 44.2937 80.4955 44.262 80.5528 44.253L82.8697 43.8878C82.9793 43.8706 83.0842 43.9394 83.1117 44.0469C83.3933 45.1409 83.9728 45.9899 84.8514 46.6054C85.7432 47.2156 86.7947 47.5238 88.0151 47.5238C88.8068 47.5238 89.5142 47.4015 90.1405 47.1609C90.7739 46.9121 91.2658 46.5631 91.6247 46.1183C91.9779 45.6809 92.1562 45.1628 92.1562 44.5539C92.1562 44.1759 92.0891 43.8664 91.9647 43.6178C91.9636 43.6155 91.9626 43.6133 91.9615 43.611C91.8405 43.3461 91.6715 43.1248 91.4536 42.9445C91.4515 42.9428 91.4493 42.9411 91.4475 42.9393C91.2288 42.744 90.9776 42.5789 90.6931 42.4445C90.402 42.307 90.0985 42.1937 89.7823 42.1045L89.7794 42.1037L85.1581 40.7311C84.6435 40.5768 84.1461 40.3838 83.6659 40.1523L83.6645 40.1516L83.663 40.1509C83.1753 39.907 82.7384 39.6058 82.3533 39.247L82.3522 39.2459L82.3515 39.2453C81.961 38.8726 81.6515 38.4296 81.4224 37.9185L81.4219 37.9172C81.1889 37.3889 81.0761 36.7746 81.0761 36.0802C81.0761 34.967 81.3638 34.0057 81.9489 33.208L81.9492 33.2077C82.5366 32.4096 83.3288 31.8032 84.3178 31.3868C85.3057 30.9709 86.4138 30.7695 87.639 30.7781C88.8805 30.7867 89.9973 31.0094 90.9852 31.4511C91.9808 31.8841 92.8066 32.5092 93.4585 33.3263C94.1204 34.1452 94.5618 35.1223 94.7861 36.2523C94.7975 36.3092 94.7853 36.3682 94.7525 36.4161C94.7198 36.4639 94.6691 36.4965 94.612 36.5065L92.2323 36.922C92.1758 36.9318 92.1179 36.9188 92.0712 36.8858C92.0241 36.8527 91.9924 36.8024 91.9829 36.7459C91.8627 36.0409 91.5959 35.4428 91.1855 34.9457L91.1831 34.9428C90.7773 34.4336 90.2686 34.0434 89.6531 33.7717L89.651 33.7707C89.0342 33.4904 88.3548 33.3448 87.6099 33.3368H87.6096C86.8956 33.3287 86.2575 33.4423 85.6916 33.6733C85.1242 33.9051 84.6815 34.2248 84.355 34.6291L84.3537 34.6307C84.0333 35.0196 83.874 35.4663 83.874 35.9795C83.874 36.4891 84.0193 36.8822 84.2943 37.1793C84.5909 37.4915 84.9557 37.7435 85.3921 37.9342C85.8546 38.124 86.3034 38.2804 86.739 38.4037L86.7401 38.404L90.1888 39.3983C90.5909 39.5096 91.0499 39.6628 91.5656 39.8571C92.1052 40.0574 92.6256 40.3396 93.1264 40.7022C93.6421 41.0669 94.0655 41.5539 94.3981 42.1577C94.7399 42.7695 94.9036 43.5303 94.9036 44.428C94.9036 45.3302 94.7214 46.1413 94.351 46.8555C93.9918 47.5653 93.4873 48.1615 92.8401 48.6425L92.8385 48.6436C92.195 49.1132 91.4499 49.4677 90.6062 49.7089C89.7619 49.9585 88.8601 50.0827 87.9018 50.0827C86.5929 50.0827 85.4053 49.8603 84.3429 49.4109Z" fill="#9D9DA6"/>
<rect x="0.5" y="0.5" width="239" height="79" stroke="#2E2E33"/>
</svg>
