<svg width="240" height="80" viewBox="0 0 240 80" fill="none" xmlns="http://www.w3.org/2000/svg">
<rect x="0.5" y="0.5" width="239" height="79" fill="#17171A"/>
<path d="M132.31 34.9198C132.159 33.6422 131.545 32.6504 130.469 31.9445C129.394 31.2384 128.074 30.8854 126.511 30.8854C125.368 30.8854 124.368 31.0703 123.51 31.4401C122.661 31.81 121.997 32.3185 121.518 32.9656C121.048 33.6128 120.812 34.3483 120.812 35.1719C120.812 35.8611 120.976 36.4537 121.304 36.9495C121.64 37.437 122.069 37.8447 122.59 38.1725C123.111 38.4919 123.657 38.7566 124.229 38.9667C124.8 39.1684 125.326 39.3323 125.805 39.4584L128.427 40.1645C129.1 40.3409 129.848 40.5847 130.671 40.8957C131.503 41.2066 132.298 41.6311 133.054 42.169C133.819 42.6985 134.449 43.3792 134.945 44.2114C135.441 45.0434 135.689 46.0646 135.689 47.2749C135.689 48.6702 135.323 49.9309 134.592 51.0572C133.869 52.1835 132.81 53.0786 131.415 53.7426C130.028 54.4066 128.343 54.7385 126.36 54.7385C124.51 54.7385 122.909 54.4401 121.556 53.8434C120.211 53.2466 119.152 52.4146 118.379 51.3472C117.614 50.2798 117.181 49.04 117.081 47.6279H120.308C120.392 48.6029 120.72 49.4098 121.291 50.0486C121.871 50.6789 122.602 51.1496 123.485 51.4606C124.376 51.7631 125.334 51.9145 126.36 51.9145C127.553 51.9145 128.625 51.7212 129.574 51.3345C130.524 50.9395 131.276 50.3932 131.831 49.6955C132.386 48.9896 132.663 48.1659 132.663 47.2245C132.663 46.3673 132.424 45.6696 131.945 45.1317C131.466 44.5938 130.835 44.1567 130.054 43.8205C129.272 43.4843 128.427 43.1902 127.519 42.938L124.342 42.0304C122.325 41.4504 120.728 40.6225 119.552 39.5467C118.375 38.4709 117.786 37.063 117.786 35.3232C117.786 33.8776 118.177 32.6169 118.959 31.541C119.749 30.4568 120.808 29.6163 122.136 29.0195C123.472 28.4144 124.964 28.1118 126.612 28.1118C128.276 28.1118 129.755 28.4102 131.049 29.0069C132.344 29.5953 133.369 30.4021 134.126 31.4275C134.891 32.453 135.294 33.6171 135.336 34.9198H132.31Z" fill="#9D9DA6"/>
<path d="M150.5 46.367V34.9194H153.476V54.2843H150.5V51.0064H150.299C149.845 51.9898 149.139 52.8261 148.181 53.5152C147.222 54.196 146.012 54.5365 144.55 54.5365C143.339 54.5365 142.263 54.2718 141.322 53.7423C140.381 53.2044 139.641 52.3974 139.103 51.3216C138.565 50.2374 138.296 48.8716 138.296 47.2241V34.9194H141.272V47.0224C141.272 48.4346 141.667 49.5607 142.457 50.4013C143.255 51.2418 144.272 51.662 145.508 51.662C146.247 51.662 147 51.4729 147.764 51.0947C148.538 50.7164 149.185 50.1366 149.706 49.3549C150.235 48.5732 150.5 47.5773 150.5 46.367Z" fill="#9D9DA6"/>
<path d="M156.795 54.2844V34.9195H159.77V54.2844H156.795ZM158.308 31.6921C157.728 31.6921 157.227 31.4945 156.807 31.0995C156.395 30.7045 156.189 30.2296 156.189 29.6749C156.189 29.1202 156.395 28.6453 156.807 28.2502C157.227 27.8552 157.728 27.6577 158.308 27.6577C158.887 27.6577 159.383 27.8552 159.795 28.2502C160.215 28.6453 160.425 29.1202 160.425 29.6749C160.425 30.2296 160.215 30.7045 159.795 31.0995C159.383 31.4945 158.887 31.6921 158.308 31.6921Z" fill="#9D9DA6"/>
<path fill-rule="evenodd" clip-rule="evenodd" d="M132.11 35.1377L132.087 34.9419C131.943 33.7294 131.365 32.7961 130.344 32.126C129.312 31.4484 128.037 31.1034 126.507 31.1034C125.388 31.1034 124.419 31.2844 123.595 31.6398C122.777 31.9962 122.146 32.4819 121.694 33.0929C121.252 33.7008 121.031 34.39 121.031 35.168C121.031 35.8199 121.185 36.3677 121.484 36.8214C121.803 37.2821 122.208 37.6682 122.704 37.98C123.212 38.2912 123.744 38.5493 124.301 38.754C124.867 38.9539 125.386 39.1158 125.858 39.2399L128.48 39.9459C128.48 39.9459 128.48 39.9459 128.48 39.9459C129.161 40.1248 129.917 40.3712 130.746 40.684C131.596 41.0019 132.407 41.4353 133.178 41.9834C133.97 42.5316 134.621 43.236 135.132 44.0939C135.653 44.9678 135.907 46.0306 135.907 47.271C135.907 48.707 135.531 50.0099 134.775 51.1734C134.027 52.3393 132.934 53.2599 131.508 53.9387C130.083 54.6206 128.364 54.9565 126.356 54.9565C124.484 54.9565 122.851 54.6544 121.463 54.0425C120.087 53.4319 118.995 52.5761 118.196 51.4733C117.406 50.37 116.959 49.0894 116.856 47.6399L116.839 47.4022H120.508L120.526 47.605C120.606 48.5386 120.918 49.2978 121.452 49.8956C122.005 50.4959 122.704 50.9471 123.554 51.247C124.42 51.5408 125.353 51.6886 126.356 51.6886C127.525 51.6886 128.567 51.4994 129.486 51.1256C130.406 50.7428 131.126 50.2175 131.654 49.5538C132.176 48.8891 132.438 48.1146 132.438 47.2207C132.438 46.4068 132.212 45.7652 131.775 45.2753C131.322 44.7657 130.72 44.3462 129.962 44.0205C129.191 43.6887 128.356 43.3977 127.457 43.1479L127.455 43.1475L124.278 42.2397C122.238 41.6531 120.607 40.8116 119.398 39.7065C118.171 38.5845 117.561 37.115 117.561 35.3192C117.561 33.8311 117.964 32.5237 118.776 31.4066C119.591 30.2887 120.681 29.4245 122.042 28.8133C123.41 28.1937 124.933 27.886 126.608 27.886C128.299 27.886 129.811 28.1892 131.138 28.8012C132.463 29.4033 133.519 30.2326 134.301 31.2914C135.093 32.3539 135.511 33.5617 135.554 34.9087L135.562 35.1377H132.11ZM134.122 31.4236C133.366 30.3982 132.34 29.5913 131.046 29.003C129.752 28.4062 128.273 28.1079 126.608 28.1079C124.961 28.1079 123.469 28.4105 122.133 29.0156C120.805 29.6123 119.746 30.4528 118.956 31.5371C118.174 32.6129 117.783 33.8737 117.783 35.3192C117.783 37.059 118.371 38.4669 119.548 39.5427C120.725 40.6185 122.322 41.4464 124.339 42.0264L127.516 42.9341C128.424 43.1862 129.268 43.4805 130.05 43.8167C130.832 44.1529 131.462 44.5898 131.941 45.1277C132.42 45.6657 132.66 46.3633 132.66 47.2207C132.66 48.162 132.382 48.9856 131.828 49.6917C131.273 50.3892 130.521 50.9355 129.571 51.3306C128.621 51.7172 127.55 51.9105 126.356 51.9105C125.331 51.9105 124.373 51.7593 123.482 51.4567C122.599 51.1456 121.868 50.675 121.288 50.0447C120.717 49.4058 120.389 48.599 120.305 47.6241H117.077C117.083 47.6985 117.089 47.7724 117.096 47.8459C117.225 49.1663 117.651 50.332 118.376 51.3432C119.149 52.4106 120.208 53.2427 121.553 53.8394C122.906 54.4362 124.507 54.7346 126.356 54.7346C128.34 54.7346 130.025 54.4026 131.412 53.7386C132.807 53.0746 133.866 52.1795 134.589 51.0532C135.32 49.927 135.686 48.6662 135.686 47.271C135.686 46.0607 135.438 45.0395 134.942 44.2075C134.446 43.3753 133.815 42.6945 133.051 42.165C132.294 41.6271 131.5 41.2026 130.668 40.8917C129.844 40.5807 129.096 40.3369 128.424 40.1605L125.801 39.4544C125.322 39.3284 124.797 39.1645 124.226 38.9627C123.654 38.7526 123.108 38.4879 122.587 38.1685C122.065 37.8407 121.637 37.433 121.301 36.9456C120.973 36.4498 120.809 35.8571 120.809 35.168C120.809 34.3443 121.044 33.6089 121.515 32.9616C121.994 32.3146 122.658 31.8061 123.507 31.4362C124.364 31.0664 125.364 30.8815 126.507 30.8815C128.071 30.8815 129.39 31.2345 130.466 31.9405C131.542 32.6465 132.156 33.6383 132.307 34.9158H135.333C135.33 34.8414 135.327 34.7674 135.322 34.694C135.243 33.4806 134.843 32.3905 134.122 31.4236ZM150.275 34.694H153.694V54.5026H150.275V51.5305C149.807 52.3649 149.15 53.0852 148.306 53.6917C147.302 54.4051 146.043 54.7548 144.546 54.7548C143.302 54.7548 142.188 54.4824 141.21 53.932L141.208 53.9313C140.225 53.3693 139.456 52.5278 138.901 51.4172C138.343 50.2933 138.071 48.8905 138.071 47.2207V34.694H141.49V47.0189C141.49 48.3875 141.872 49.4546 142.614 50.2451C143.368 51.0382 144.325 51.4364 145.504 51.4364C146.205 51.4364 146.923 51.2576 147.662 50.8921C148.397 50.5328 149.016 49.9802 149.518 49.2282L149.519 49.2268C150.017 48.491 150.275 47.5417 150.275 46.3633V34.694ZM142.453 50.3976C141.663 49.5572 141.268 48.4309 141.268 47.0189V34.9158H138.293V47.2207C138.293 48.8679 138.562 50.2337 139.1 51.3179C139.637 52.3939 140.377 53.2007 141.318 53.7386C142.26 54.2681 143.336 54.5328 144.546 54.5328C146.008 54.5328 147.219 54.1924 148.177 53.5116C149.121 52.8326 149.82 52.0107 150.275 51.0461C150.281 51.0316 150.288 51.0172 150.295 51.0028H150.497V54.2807H153.472V34.9158H150.497V46.3633C150.497 47.5736 150.232 48.5695 149.702 49.3512C149.181 50.1329 148.534 50.7128 147.761 51.091C146.996 51.4693 146.244 51.6584 145.504 51.6584C144.269 51.6584 143.251 51.2382 142.453 50.3976ZM156.569 54.5026V34.694H159.988V54.5026H156.569ZM156.652 31.2575L156.65 31.256C156.196 30.8204 155.964 30.2883 155.964 29.6712C155.964 29.0541 156.196 28.5219 156.65 28.0864L156.652 28.0849C157.114 27.6509 157.668 27.4321 158.304 27.4321C158.94 27.4321 159.491 27.6508 159.945 28.0857C160.407 28.5207 160.644 29.053 160.644 29.6712C160.644 30.2894 160.407 30.8217 159.945 31.2567C159.491 31.6916 158.94 31.9103 158.304 31.9103C157.668 31.9103 157.114 31.6914 156.652 31.2575ZM159.792 31.0958C160.212 30.7008 160.422 30.2259 160.422 29.6712C160.422 29.1165 160.212 28.6416 159.792 28.2465C159.38 27.8515 158.884 27.654 158.304 27.654C157.724 27.654 157.224 27.8515 156.804 28.2465C156.392 28.6416 156.186 29.1165 156.186 29.6712C156.186 30.2259 156.392 30.7008 156.804 31.0958C157.224 31.4908 157.724 31.6884 158.304 31.6884C158.884 31.6884 159.38 31.4908 159.792 31.0958ZM156.791 54.2807H159.767V34.9158H156.791V54.2807Z" fill="#9D9DA6"/>
<path fill-rule="evenodd" clip-rule="evenodd" d="M104.809 35.8606L104.808 35.8624C106.555 38.0531 107.599 40.8277 107.599 43.8456C107.599 46.9083 106.524 49.7206 104.729 51.9261L104.575 52.116L104.534 51.8747C104.499 51.6694 104.458 51.4622 104.411 51.2533C103.513 47.308 100.587 43.9249 95.7719 41.1856C92.5203 39.3409 90.659 37.1196 90.1704 34.5959C89.8548 32.9639 90.0894 31.3246 90.5429 29.9206C90.9961 28.517 91.6705 27.3411 92.2433 26.6331L94.1168 24.3422C94.4453 23.9405 95.0601 23.9405 95.3885 24.3422L104.809 35.8606ZM107.771 33.5722L95.2167 18.2198C94.977 17.9267 94.5282 17.9267 94.2885 18.2198L81.7335 33.5715L81.693 33.623C79.3826 36.4899 78 40.1333 78 44.0994C78 53.3363 85.5002 60.8246 94.7526 60.8246C104.005 60.8246 111.505 53.3363 111.505 44.0994C111.505 40.1333 110.123 36.4899 107.812 33.623L107.771 33.5722ZM84.7375 35.8111L85.861 34.4373L85.8949 34.6907C85.9218 34.8916 85.9544 35.0935 85.9931 35.2962C86.7197 39.1085 89.3153 42.2873 93.6549 44.7492C97.4271 46.8962 99.6235 49.3649 100.256 52.0725C100.52 53.2025 100.567 54.3142 100.453 55.2862L100.446 55.3465L100.392 55.373C98.689 56.2047 96.7751 56.6716 94.7522 56.6716C87.6573 56.6716 81.9055 50.9294 81.9055 43.8456C81.9055 40.8042 82.9658 38.0096 84.7375 35.8111Z" fill="#9D9DA6"/>
<rect x="0.5" y="0.5" width="239" height="79" stroke="#2E2E33"/>
</svg>
