<svg width="240" height="120" viewBox="0 0 240 120" fill="none" xmlns="http://www.w3.org/2000/svg">
<rect x="0.5" y="0.5" width="239" height="119" fill="#17171A"/>
<path fill-rule="evenodd" clip-rule="evenodd" d="M41.6086 53.5393L45.2784 57.2091C45.2905 57.2216 45.305 57.2315 45.321 57.2383C45.337 57.2451 45.3542 57.2486 45.3716 57.2486C45.389 57.2486 45.4062 57.2451 45.4223 57.2383C45.4383 57.2315 45.4528 57.2216 45.4649 57.2091L51.8986 50.6887C51.9108 50.6762 51.9252 50.6663 51.9413 50.6595C51.9573 50.6528 51.9745 50.6493 51.9919 50.6493C52.0093 50.6493 52.0265 50.6528 52.0425 50.6595C52.0585 50.6663 52.073 50.6762 52.0851 50.6887L58.5788 57.1824C58.591 57.1949 58.6054 57.2049 58.6215 57.2116C58.6375 57.2184 58.6547 57.2219 58.6721 57.2219C58.6895 57.2219 58.7067 57.2184 58.7227 57.2116C58.7387 57.2049 58.7532 57.1949 58.7653 57.1824L62.3619 53.5626C62.3851 53.5384 62.398 53.5062 62.398 53.4727C62.398 53.4392 62.3851 53.407 62.3619 53.3828L52.1018 43.0395C52.0897 43.027 52.0752 43.0171 52.0592 43.0103C52.0431 43.0035 52.0259 43 52.0085 43C51.9911 43 51.9739 43.0035 51.9579 43.0103C51.9419 43.0171 51.9274 43.027 51.9153 43.0395L41.6086 53.3528C41.5961 53.3649 41.5862 53.3794 41.5794 53.3954C41.5726 53.4115 41.5691 53.4287 41.5691 53.4461C41.5691 53.4635 41.5726 53.4807 41.5794 53.4967C41.5862 53.5127 41.5961 53.5272 41.6086 53.5393ZM182.013 65.4511C174.737 68.4249 171.11 57.8185 177.261 54.6583C179.675 53.4161 182.349 54.4218 184.251 56.1302C184.346 56.2168 184.435 56.2112 184.517 56.1135L186.901 53.3229C186.986 53.223 186.98 53.1308 186.885 53.0465C183.854 50.378 180.481 49.5943 176.765 50.6954C167.031 53.5826 167.793 67.972 178.077 69.5139C181.604 70.0423 184.573 69.0632 186.981 66.5767C187.072 66.4835 187.072 66.3902 186.981 66.297L184.65 63.9293C184.573 63.8516 184.49 63.8449 184.404 63.9093C184.319 63.9726 184.235 64.0362 184.15 64.0998L184.149 64.1006L184.145 64.1035L184.145 64.1036C183.453 64.6251 182.762 65.1461 182.013 65.4511ZM89.4753 59.7166C93.5281 61.3884 93.921 66.5767 89.8949 68.5514C88.816 69.0798 87.6682 69.3562 86.4516 69.3806C83.2525 69.4428 80.05 69.4528 76.8442 69.4106C76.8036 69.4106 76.7646 69.3945 76.7359 69.3657C76.7072 69.337 76.691 69.298 76.691 69.2574V50.782C76.691 50.6776 76.7443 50.6243 76.8509 50.6221C79.7459 50.5932 82.6309 50.5988 85.5059 50.6388C88.0101 50.6721 90.6875 51.6111 91.4235 54.2053C92.0162 56.2877 91.3557 58.0416 89.442 59.4669C89.3044 59.569 89.3155 59.6523 89.4753 59.7166ZM80.6839 54.4318L80.6905 58.1015C80.6905 58.1439 80.7074 58.1846 80.7373 58.2146C80.7673 58.2445 80.808 58.2614 80.8504 58.2614L84.993 58.2547C85.3256 58.2541 85.6549 58.2068 85.962 58.1154C86.2691 58.024 86.548 57.8904 86.7827 57.7221C87.0174 57.5539 87.2034 57.3543 87.33 57.1348C87.4567 56.9154 87.5214 56.6803 87.5206 56.4431V56.0635C87.5189 55.5852 87.2511 55.1271 86.7759 54.7899C86.3007 54.4528 85.6571 54.264 84.9864 54.2652L80.8437 54.2719C80.8013 54.2719 80.7606 54.2887 80.7307 54.3187C80.7007 54.3487 80.6839 54.3894 80.6839 54.4318ZM80.6805 61.788L80.6872 65.6176C80.6872 65.6618 80.7047 65.7041 80.736 65.7353C80.7672 65.7666 80.8095 65.7841 80.8537 65.7841L85.9088 65.7741C86.6027 65.7729 87.2678 65.5786 87.758 65.2339C88.2482 64.8892 88.5233 64.4223 88.5229 63.9359V63.443C88.5227 63.202 88.4548 62.9633 88.323 62.7408C88.1911 62.5183 87.998 62.3162 87.7546 62.1461C87.5112 61.976 87.2223 61.8412 86.9045 61.7495C86.5866 61.6578 86.246 61.6109 85.9021 61.6115L80.847 61.6215C80.8029 61.6215 80.7605 61.639 80.7293 61.6702C80.6981 61.7015 80.6805 61.7438 80.6805 61.788ZM97.3116 50.6123H101.194C101.272 50.6123 101.334 50.6749 101.334 50.7521V69.2875C101.334 69.3648 101.272 69.4274 101.194 69.4274H97.3116C97.2343 69.4274 97.1717 69.3648 97.1717 69.2875V50.7521C97.1717 50.6749 97.2343 50.6123 97.3116 50.6123ZM110.825 57.722V69.3275C110.825 69.354 110.814 69.3794 110.795 69.3981C110.777 69.4169 110.751 69.4274 110.725 69.4274H106.928C106.915 69.4274 106.902 69.4248 106.89 69.4198C106.878 69.4148 106.867 69.4074 106.858 69.3981C106.849 69.3888 106.841 69.3778 106.836 69.3657C106.831 69.3536 106.829 69.3406 106.829 69.3275V50.7155C106.829 50.7024 106.831 50.6894 106.836 50.6773C106.841 50.6651 106.849 50.6541 106.858 50.6448C106.867 50.6356 106.878 50.6282 106.89 50.6232C106.902 50.6182 106.915 50.6156 106.928 50.6156L110.505 50.6123C110.521 50.6123 110.536 50.6159 110.55 50.6228C110.564 50.6297 110.576 50.6398 110.585 50.6522L119.137 61.8813C119.149 61.8981 119.167 61.9105 119.187 61.9168C119.207 61.923 119.228 61.9228 119.248 61.9162C119.268 61.9096 119.285 61.8968 119.298 61.8798C119.31 61.8628 119.316 61.8424 119.316 61.8214V50.7122C119.316 50.699 119.319 50.686 119.324 50.6739C119.329 50.6618 119.336 50.6508 119.346 50.6415C119.355 50.6322 119.366 50.6249 119.378 50.6199C119.39 50.6148 119.403 50.6123 119.416 50.6123H123.379C123.392 50.6123 123.405 50.6148 123.417 50.6199C123.43 50.6249 123.441 50.6322 123.45 50.6415C123.459 50.6508 123.466 50.6618 123.472 50.6739C123.477 50.686 123.479 50.699 123.479 50.7122V69.3241C123.479 69.3373 123.477 69.3503 123.472 69.3624C123.466 69.3745 123.459 69.3855 123.45 69.3948C123.441 69.4041 123.43 69.4114 123.417 69.4164C123.405 69.4215 123.392 69.424 123.379 69.424L120.012 69.4274C119.997 69.4274 119.982 69.4238 119.968 69.4168C119.954 69.4099 119.942 69.3998 119.933 69.3874L111.005 57.6621C110.992 57.6453 110.974 57.6329 110.954 57.6267C110.934 57.6204 110.913 57.6206 110.893 57.6273C110.873 57.6339 110.856 57.6466 110.844 57.6636C110.831 57.6806 110.825 57.7011 110.825 57.722ZM130.616 69.3608L132.288 65.3314C132.296 65.3118 132.31 65.295 132.328 65.2832C132.345 65.2714 132.366 65.265 132.388 65.2648H140.197C140.218 65.2653 140.239 65.2722 140.257 65.2846C140.275 65.297 140.289 65.3145 140.297 65.3347L141.895 69.3541C141.903 69.3744 141.917 69.3918 141.934 69.4042C141.952 69.4167 141.973 69.4236 141.995 69.4241L146.114 69.4341C146.132 69.4339 146.15 69.4292 146.166 69.4205C146.182 69.4118 146.195 69.3994 146.205 69.3842C146.215 69.369 146.221 69.3517 146.223 69.3337C146.224 69.3156 146.221 69.2975 146.214 69.2809L138.279 50.6789C138.27 50.6588 138.255 50.6417 138.237 50.6298C138.219 50.6179 138.197 50.6118 138.175 50.6123H134.476C134.454 50.6118 134.432 50.6179 134.414 50.6298C134.395 50.6417 134.381 50.6588 134.372 50.6789L126.44 69.2742C126.433 69.2908 126.43 69.309 126.431 69.327C126.433 69.345 126.439 69.3624 126.449 69.3775C126.459 69.3927 126.472 69.4052 126.488 69.4139C126.504 69.4226 126.522 69.4272 126.54 69.4274H130.516C130.537 69.4272 130.558 69.4208 130.576 69.4089C130.594 69.3971 130.608 69.3804 130.616 69.3608ZM133.851 61.4959C133.85 61.4775 133.852 61.4589 133.859 61.4418L136.194 55.744C136.203 55.7241 136.217 55.7072 136.236 55.6954C136.254 55.6835 136.275 55.6773 136.297 55.6773C136.319 55.6773 136.34 55.6835 136.359 55.6954C136.377 55.7072 136.391 55.7241 136.4 55.744L138.715 61.4485C138.722 61.4658 138.725 61.4847 138.723 61.5034C138.721 61.522 138.714 61.54 138.704 61.5555C138.693 61.571 138.679 61.5837 138.662 61.5923C138.646 61.6009 138.627 61.6053 138.608 61.605L133.963 61.5983C133.944 61.5981 133.926 61.5933 133.91 61.5845C133.894 61.5756 133.88 61.5629 133.87 61.5474C133.859 61.532 133.853 61.5143 133.851 61.4959ZM161.616 61.898C161.627 61.9123 161.643 61.9227 161.66 61.9278C161.678 61.933 161.697 61.9326 161.714 61.9269C161.731 61.9211 161.747 61.9101 161.758 61.8954C161.769 61.8807 161.775 61.863 161.775 61.8447V50.7788C161.775 50.6678 161.831 50.6123 161.942 50.6123H165.772C165.816 50.6123 165.858 50.6298 165.889 50.661C165.921 50.6922 165.938 50.7346 165.938 50.7788V69.2609C165.938 69.3719 165.883 69.4274 165.772 69.4274H162.778C162.667 69.4274 162.568 69.393 162.481 69.3241C162.217 69.1088 161.982 68.8657 161.775 68.5949C159.043 64.9872 156.298 61.3763 153.543 57.762C153.526 57.737 153.5 57.7185 153.471 57.709C153.442 57.6995 153.411 57.6996 153.382 57.7093C153.352 57.719 153.327 57.7377 153.31 57.7628C153.292 57.7879 153.283 57.8179 153.284 57.8486V69.2609C153.284 69.3719 153.228 69.4274 153.117 69.4274H149.454C149.41 69.4274 149.367 69.4098 149.336 69.3786C149.305 69.3474 149.287 69.305 149.287 69.2609V50.7788C149.287 50.6678 149.343 50.6123 149.454 50.6123H152.861C152.972 50.6123 153.061 50.6567 153.127 50.7455L161.616 61.898ZM204.734 69.3641V65.8675L194.767 65.7876C194.641 65.7876 194.577 65.7243 194.577 65.5978V61.9346C194.577 61.8236 194.633 61.7681 194.744 61.7681H203.152C203.319 61.7681 203.402 61.6849 203.402 61.5184V58.3148C203.402 58.1749 203.333 58.105 203.196 58.105H194.744C194.633 58.105 194.577 58.0495 194.577 57.9385V54.5251C194.577 54.4589 194.604 54.3954 194.651 54.3485C194.697 54.3017 194.761 54.2754 194.827 54.2754H204.361C204.499 54.2754 204.568 54.2054 204.568 54.0656L204.564 50.7455C204.564 50.7101 204.55 50.6762 204.525 50.6513C204.5 50.6263 204.467 50.6123 204.431 50.6123H190.581C190.47 50.6123 190.415 50.6678 190.415 50.7788V69.2675C190.415 69.3046 190.43 69.3402 190.456 69.3664C190.482 69.3927 190.518 69.4074 190.555 69.4074L204.734 69.3641ZM51.8634 56.2341L48.1836 59.9011C48.1276 59.9569 48.1274 60.0476 48.1833 60.1036L51.8973 63.8306C51.9531 63.8866 52.0438 63.8868 52.0998 63.8309L55.7796 60.164C55.8356 60.1081 55.8358 60.0175 55.7799 59.9615L52.0659 56.2345C52.0101 56.1785 51.9194 56.1783 51.8634 56.2341ZM38.8271 56.3296L42.455 59.9449C42.5123 60.002 42.5125 60.0948 42.4553 60.1521L38.8636 63.7564C38.8065 63.8138 38.7137 63.8139 38.6564 63.7568L35.0284 60.1415C34.9711 60.0844 34.971 59.9916 35.0281 59.9343L38.6198 56.33C38.677 56.2727 38.7697 56.2725 38.8271 56.3296ZM65.1288 56.2957L61.4931 59.8936C61.4408 59.9454 61.4403 60.0297 61.4921 60.082L65.0947 63.7225C65.1464 63.7748 65.2308 63.7753 65.283 63.7235L68.9188 60.1256C68.9711 60.0739 68.9716 59.9895 68.9198 59.9372L65.3172 56.2967C65.2655 56.2444 65.1811 56.244 65.1288 56.2957ZM62.2951 66.4938L58.7452 62.8906C58.731 62.8759 58.7139 62.8642 58.695 62.8562C58.6761 62.8482 58.6558 62.8441 58.6353 62.8441C58.6148 62.8441 58.5946 62.8482 58.5757 62.8562C58.5568 62.8642 58.5397 62.8759 58.5254 62.8906L52.065 69.3543C52.0508 69.369 52.0337 69.3807 52.0148 69.3887C51.9959 69.3967 51.9756 69.4008 51.9551 69.4008C51.9346 69.4008 51.9144 69.3967 51.8955 69.3887C51.8766 69.3807 51.8595 69.369 51.8452 69.3543L45.4281 62.9039C45.3994 62.8752 45.3605 62.8591 45.3199 62.8591C45.2793 62.8591 45.2404 62.8752 45.2117 62.9039L41.5619 66.4804C41.5472 66.4947 41.5355 66.5118 41.5275 66.5307C41.5195 66.5495 41.5154 66.5698 41.5154 66.5903C41.5154 66.6108 41.5195 66.6311 41.5275 66.65C41.5355 66.6689 41.5472 66.6859 41.5619 66.7002L51.8452 76.957C51.8744 76.9852 51.9136 77.0007 51.9542 77.0001C51.9947 76.9995 52.0334 76.9827 52.0617 76.9536L62.2951 66.7102C62.3238 66.6815 62.3399 66.6426 62.3399 66.602C62.3399 66.5614 62.3238 66.5225 62.2951 66.4938Z" fill="#9D9DA6"/>
<rect x="0.5" y="0.5" width="239" height="119" stroke="#2E2E33"/>
</svg>
