<svg width="240" height="120" viewBox="0 0 240 120" fill="none" xmlns="http://www.w3.org/2000/svg">
<rect x="0.5" y="0.5" width="239" height="119" fill="#17171A"/>
<path fill-rule="evenodd" clip-rule="evenodd" d="M56.8195 61.1385L65.6618 70.2917C65.7679 70.4001 65.8526 70.529 65.9105 70.6712C65.9685 70.8133 65.9989 70.9659 66 71.1202C66.001 71.2745 65.9727 71.4275 65.9165 71.5705C65.8605 71.7135 65.7777 71.8436 65.673 71.9535L65.0242 72.6227C64.8418 72.8206 64.6009 72.9497 64.3397 72.9897C64.1672 73.0135 63.9916 72.9957 63.8269 72.9377C63.6622 72.8796 63.5126 72.7829 63.39 72.6551L52.5923 61.4778C52.4044 61.2837 52.2556 61.0534 52.1539 60.7998C52.0523 60.5461 52 60.2742 52 59.9996C52 59.725 52.0523 59.4531 52.1539 59.1994C52.2556 58.9458 52.4044 58.7153 52.5923 58.5213L63.39 47.3441C63.4951 47.235 63.6201 47.1485 63.7576 47.0894C63.8951 47.0304 64.0426 47 64.1914 47C64.3403 47 64.4877 47.0304 64.6252 47.0894C64.7628 47.1485 64.8877 47.235 64.993 47.3441L65.6618 48.048C65.7671 48.1569 65.8507 48.2862 65.9078 48.4286C65.9649 48.5709 65.9942 48.7235 65.9942 48.8777C65.9942 49.0318 65.9649 49.1844 65.9078 49.3268C65.8507 49.4691 65.7671 49.5985 65.6618 49.7074L56.8195 58.8629C56.5295 59.1655 56.3667 59.5745 56.3667 60.0008C56.3667 60.4269 56.5295 60.8359 56.8195 61.1385ZM45.1802 58.8726L36.3412 49.717C36.234 49.6085 36.1486 49.4791 36.09 49.3362C36.0314 49.1933 36.0008 49.0398 36 48.8846C35.9992 48.7294 36.0281 48.5755 36.0852 48.4319C36.1422 48.2884 36.2262 48.158 36.3323 48.0483L36.9786 47.3767C37.1627 47.1802 37.4037 47.0513 37.6651 47.0098C37.8375 46.9866 38.0128 47.0048 38.1773 47.0628C38.3419 47.1208 38.4915 47.2171 38.6145 47.3444L49.4079 58.5218C49.5957 58.7158 49.7445 58.9462 49.8462 59.1999C49.9477 59.4536 50 59.7255 50 60.0001C50 60.2747 49.9477 60.5465 49.8462 60.8003C49.7445 61.0539 49.5957 61.2843 49.4079 61.4784L38.6145 72.6558C38.5091 72.7648 38.3841 72.8514 38.2464 72.9106C38.1087 72.9696 37.9612 73 37.8121 73C37.6631 73 37.5156 72.9696 37.3779 72.9106C37.2403 72.8514 37.1152 72.7648 37.0098 72.6558L36.3412 71.9634C36.2358 71.8543 36.1522 71.7247 36.0952 71.5822C36.0381 71.4396 36.0088 71.2867 36.0088 71.1324C36.0088 70.9781 36.0381 70.8254 36.0952 70.6828C36.1522 70.5403 36.2358 70.4107 36.3412 70.3016L45.1802 61.1483C45.4701 60.8456 45.6327 60.4367 45.6327 60.0104C45.6327 59.5842 45.4701 59.1752 45.1802 58.8726Z" fill="#9D9DA6"/>
<path fill-rule="evenodd" clip-rule="evenodd" d="M111.302 58.269C110.64 57.8364 109.864 57.6108 109.072 57.621C108.427 57.6107 107.79 57.7683 107.224 58.0784C106.863 58.2696 106.54 58.5254 106.271 58.833V53.2373H104.174V66.9601H106.271V65.963C106.537 66.2646 106.853 66.5182 107.205 66.7123C107.781 67.0118 108.423 67.1625 109.072 67.1508C109.861 67.1615 110.636 66.9429 111.302 66.5217C111.971 66.1072 112.517 65.5215 112.884 64.8255C113.283 64.0816 113.486 63.2487 113.475 62.4049C113.489 61.5608 113.286 60.7271 112.884 59.9844C112.522 59.2802 111.975 58.6875 111.302 58.269ZM110.978 63.8344C110.771 64.2432 110.455 64.5864 110.064 64.8255C109.659 65.0616 109.198 65.1814 108.729 65.1721C108.255 65.18 107.788 65.0603 107.376 64.8255C106.985 64.5869 106.668 64.2436 106.461 63.8344C106.238 63.3847 106.127 62.8878 106.137 62.3859C106.127 61.884 106.238 61.387 106.461 60.9373C106.665 60.5309 106.983 60.1931 107.376 59.9653C107.784 59.7198 108.253 59.5942 108.729 59.6032C109.2 59.5927 109.663 59.7184 110.064 59.9653C110.456 60.1936 110.774 60.5313 110.978 60.9373C111.215 61.383 111.334 61.8815 111.325 62.3859C111.334 62.8903 111.215 63.3887 110.978 63.8344ZM88.5575 65.0546C89.3707 65.0546 90.0568 64.9339 90.616 64.6925C91.1643 64.4536 91.6566 64.1023 92.061 63.6615L93.5477 65.1482C92.933 65.774 92.2012 66.2727 91.3939 66.6157C90.568 66.9715 89.6215 67.1494 88.554 67.1494C87.6336 67.158 86.7207 66.983 85.8684 66.6348C85.0643 66.2905 84.3367 65.7897 83.728 65.1614C83.1195 64.5331 82.6419 63.79 82.3234 62.9753C81.9901 62.1195 81.8219 61.2082 81.8278 60.2897C81.8209 59.3766 81.9898 58.4707 82.3251 57.6214C82.6419 56.8032 83.1211 56.0576 83.7338 55.4296C84.3596 54.7856 85.1101 54.2761 85.9395 53.932C86.7689 53.5879 87.6598 53.4165 88.5575 53.4283C89.6381 53.4277 90.5715 53.6068 91.3576 53.9654C92.1391 54.3156 92.85 54.8053 93.4558 55.4105L91.9693 56.8971C91.566 56.4587 91.0715 56.1139 90.5207 55.887C89.9627 55.6456 89.3084 55.5248 88.5575 55.5248C87.9369 55.5182 87.3213 55.6361 86.7469 55.8714C86.2057 56.0954 85.7183 56.432 85.3174 56.859C84.9143 57.294 84.6037 57.8062 84.4043 58.3647C84.1828 58.982 84.0731 59.6339 84.0803 60.2897C84.0729 60.9443 84.1821 61.595 84.4026 62.2113C84.6053 62.7742 84.916 63.2923 85.3174 63.7361C85.7224 64.1544 86.209 64.4853 86.7469 64.7081C87.3213 64.9434 87.9369 65.0612 88.5575 65.0546ZM95.8859 57.8114L98.2293 63.7718L100.708 57.8114H103.033L98.783 67.0553L97.0866 70.7718H94.7614L97.058 66.04L93.5797 57.8114H95.8859ZM119.362 57.6193C120.216 57.6187 120.966 57.8156 121.614 58.2101C122.266 58.5972 122.798 59.1566 123.151 59.8267C123.541 60.5458 123.738 61.3533 123.723 62.171C123.723 62.3307 123.71 62.4899 123.685 62.6475C123.67 62.8204 123.644 62.9922 123.609 63.1621H116.785C116.839 63.3941 116.923 63.6182 117.033 63.8292C117.253 64.2523 117.591 64.6031 118.005 64.8394C118.451 65.0757 118.949 65.195 119.454 65.1859C119.899 65.1916 120.341 65.1073 120.753 64.9381C121.149 64.7813 121.501 64.5331 121.782 64.2138L123.117 65.5671C122.678 66.0839 122.123 66.4888 121.497 66.7487C120.857 67.0166 120.17 67.1528 119.476 67.149C118.612 67.1624 117.759 66.9536 116.999 66.5425C116.265 66.1278 115.659 65.522 115.243 64.7897C114.826 64.0576 114.616 63.2262 114.635 62.3841C114.625 61.7589 114.741 61.1382 114.974 60.5581C115.208 59.9781 115.555 59.4507 115.996 59.0068C116.436 58.5629 116.961 58.2115 117.539 57.9732C118.117 57.7349 118.737 57.6146 119.362 57.6193ZM117.938 59.8874C117.545 60.1156 117.227 60.4535 117.023 60.8595L117.021 60.8611C116.924 61.0467 116.849 61.2433 116.799 61.4468H121.667C121.618 61.1959 121.537 60.9524 121.426 60.7226C121.247 60.3543 120.961 60.0486 120.606 59.8458C120.264 59.6425 119.838 59.5408 119.329 59.5408C118.843 59.53 118.362 59.6496 117.938 59.8874ZM131.129 57.8692C130.738 57.6994 130.316 57.6149 129.89 57.6215C128.85 57.6215 128.069 57.9836 127.546 58.7078C127.537 58.7192 127.53 58.731 127.522 58.7428L127.507 58.7642V57.8112H125.411V66.9606H127.507V61.8718C127.507 61.084 127.698 60.5064 128.079 60.139C128.46 59.7717 128.943 59.5875 129.528 59.5863C129.768 59.5818 130.007 59.6205 130.233 59.7007C130.445 59.7825 130.634 59.9131 130.786 60.0819L132.162 58.6697C131.881 58.3297 131.528 58.0563 131.129 57.8692ZM139.854 65.0546C140.668 65.0546 141.354 64.9339 141.913 64.6925C142.462 64.4537 142.955 64.1024 143.36 63.6615L144.846 65.1482C144.232 65.7738 143.5 66.2725 142.693 66.6157C141.867 66.9715 140.92 67.1494 139.853 67.1494C138.932 67.158 138.019 66.983 137.167 66.6348C136.363 66.2905 135.635 65.7896 135.027 65.1614C134.418 64.5331 133.941 63.79 133.622 62.9753C133.289 62.1194 133.121 61.2082 133.126 60.2897C133.119 59.3767 133.287 58.4708 133.622 57.6214C133.939 56.803 134.419 56.0574 135.032 55.4295C135.658 54.7858 136.408 54.2764 137.237 53.9323C138.066 53.5882 138.957 53.4167 139.854 53.4283C140.934 53.4277 141.868 53.6068 142.656 53.9654C143.437 54.3158 144.147 54.8054 144.753 55.4105L143.266 56.8971C142.863 56.4586 142.368 56.1138 141.818 55.887C141.26 55.6455 140.605 55.5248 139.854 55.5248C139.234 55.5182 138.618 55.636 138.044 55.8714C137.503 56.0953 137.015 56.432 136.614 56.859C136.211 57.2938 135.899 57.806 135.699 58.3647C135.478 58.982 135.368 59.6339 135.375 60.2897C135.369 60.9443 135.478 61.595 135.699 62.2112C135.902 62.7742 136.213 63.2923 136.614 63.736C137.019 64.1544 137.506 64.4853 138.044 64.7081C138.618 64.9434 139.234 65.0612 139.854 65.0546ZM152.89 58.2505C152.148 57.8265 151.305 57.6093 150.451 57.6216C149.6 57.6111 148.762 57.8353 148.03 58.2696C147.318 58.6782 146.721 59.2621 146.297 59.9659C145.873 60.6947 145.655 61.5256 145.667 62.3691C145.656 63.2178 145.873 64.0537 146.296 64.7897C146.718 65.504 147.314 66.0999 148.028 66.5224C148.573 66.8439 149.176 67.0541 149.802 67.1409C150.429 67.2278 151.066 67.1895 151.678 67.0285C152.289 66.8673 152.863 66.5865 153.365 66.2022C153.867 65.8179 154.288 65.3378 154.604 64.7897C155.038 64.0577 155.263 63.2203 155.254 62.3691C155.265 61.5239 155.041 60.6921 154.606 59.9676C154.197 59.2529 153.605 58.6602 152.89 58.2505ZM152.757 63.7951C152.547 64.2079 152.222 64.5518 151.823 64.7862C151.405 65.0223 150.931 65.142 150.451 65.1328C149.971 65.1391 149.498 65.0196 149.078 64.7862C148.685 64.5447 148.362 64.2027 148.144 63.7951C147.923 63.3518 147.811 62.8613 147.82 62.3656C147.81 61.8759 147.921 61.3913 148.144 60.9553C148.363 60.5586 148.686 60.2292 149.078 60.0022C149.494 59.7582 149.969 59.6329 150.451 59.6402C150.933 59.6298 151.409 59.7553 151.823 60.0022C152.215 60.2295 152.538 60.5588 152.757 60.9553C152.993 61.3873 153.113 61.8733 153.103 62.3656C153.111 62.8644 152.992 63.357 152.757 63.7968V63.7951ZM161.819 57.6215C162.469 57.6107 163.106 57.7968 163.649 58.1552C164.178 58.4919 164.612 58.9584 164.91 59.5102C165.206 60.0328 165.361 60.6232 165.36 61.2238V66.9607H163.264V61.6812C163.264 61.0719 163.068 60.5699 162.677 60.1755C162.295 59.7816 161.8 59.5847 161.19 59.5847C160.811 59.5781 160.437 59.67 160.104 59.8515C159.791 60.0247 159.533 60.2823 159.36 60.5948C159.179 60.9277 159.087 61.3021 159.093 61.6812V66.9607H156.997V57.8121H159.093V58.8474C159.344 58.5457 159.648 58.2918 159.989 58.098C160.545 57.7777 161.177 57.6131 161.819 57.6215ZM174.146 58.1552C173.604 57.7968 172.966 57.6107 172.316 57.6215C171.675 57.6131 171.043 57.7777 170.487 58.098C170.145 58.2916 169.84 58.5455 169.588 58.8474V57.8121H167.491V66.9607H169.588V61.6812C169.582 61.3021 169.674 60.9277 169.855 60.5948C170.028 60.2823 170.286 60.0247 170.598 59.8515C170.931 59.67 171.306 59.5781 171.685 59.5847C172.295 59.5847 172.79 59.7816 173.171 60.1755C173.566 60.5694 173.763 61.0714 173.763 61.6812V66.9607H175.858V61.2238C175.857 60.6221 175.7 60.031 175.402 59.5084C175.104 58.958 174.673 58.4923 174.146 58.1552ZM182.125 57.6193C182.978 57.6187 183.73 57.8156 184.377 58.2101C185.028 58.5977 185.56 59.157 185.915 59.8267C186.304 60.5458 186.501 61.3533 186.486 62.171C186.486 62.3305 186.473 62.4899 186.448 62.6475C186.432 62.8204 186.406 62.9921 186.371 63.1621H179.548C179.602 63.3941 179.685 63.6182 179.796 63.8292C180.017 64.2523 180.354 64.6031 180.768 64.8394C181.214 65.0757 181.712 65.1951 182.216 65.1859C182.662 65.1914 183.104 65.1072 183.516 64.9381C183.912 64.7808 184.264 64.5327 184.546 64.2138L185.88 65.5671C185.44 66.0835 184.885 66.4885 184.26 66.7487C183.62 67.0164 182.933 67.1525 182.24 67.149C181.375 67.1625 180.523 66.9537 179.762 66.5425C179.029 66.1278 178.422 65.522 178.006 64.7897C177.59 64.0576 177.379 63.2262 177.399 62.3841C177.388 61.7589 177.504 61.1382 177.738 60.5581C177.971 59.9781 178.318 59.4507 178.758 59.0068C179.199 58.5629 179.723 58.2115 180.302 57.9732C180.88 57.7349 181.5 57.6146 182.125 57.6193ZM180.701 59.8874C180.308 60.1151 179.99 60.4531 179.785 60.8595L179.784 60.8611C179.687 61.0465 179.613 61.2432 179.563 61.4468H184.429C184.381 61.1959 184.3 60.9523 184.189 60.7226C184.01 60.3544 183.724 60.0489 183.37 59.8458C183.025 59.6425 182.6 59.5408 182.092 59.5408C181.605 59.5298 181.126 59.6495 180.701 59.8874ZM190.994 60.0035C191.417 59.7577 191.898 59.6324 192.386 59.6414C192.805 59.6361 193.221 59.7206 193.606 59.8891C193.984 60.039 194.318 60.2815 194.578 60.5944L195.95 59.203C195.521 58.6956 194.977 58.2961 194.365 58.0369C193.744 57.7546 193.066 57.6115 192.384 57.6176C191.523 57.6068 190.674 57.8238 189.924 58.2465C189.21 58.6557 188.619 59.2478 188.209 59.9619C187.784 60.6967 187.566 61.5335 187.58 62.3824C187.57 63.231 187.787 64.0669 188.209 64.803C188.619 65.5171 189.21 66.1092 189.924 66.5184C190.6 66.8885 191.35 67.1014 192.119 67.1409C192.888 67.1806 193.655 67.0459 194.365 66.747C194.975 66.477 195.515 66.0731 195.947 65.5653L194.576 64.1741C194.313 64.4885 193.979 64.7367 193.603 64.8983C193.216 65.0543 192.801 65.132 192.384 65.127C191.898 65.1349 191.418 65.0154 190.991 64.7805C190.601 64.5427 190.28 64.2079 190.058 63.8085C189.836 63.3651 189.725 62.8746 189.734 62.379C189.721 61.8831 189.833 61.3918 190.058 60.9495C190.279 60.5551 190.603 60.228 190.994 60.0035ZM200.8 57.8119H202.992V59.7179H200.8V66.9605H198.703V59.7179H196.511V57.8119H198.703V54H200.8V57.8119Z" fill="#9D9DA6"/>
<rect x="0.5" y="0.5" width="239" height="119" stroke="#2E2E33"/>
</svg>
