<svg width="240" height="120" viewBox="0 0 240 120" fill="none" xmlns="http://www.w3.org/2000/svg">
<rect x="0.5" y="0.5" width="239" height="119" fill="#17171A"/>
<path fill-rule="evenodd" clip-rule="evenodd" d="M28.0427 59.937C28.0427 71.462 37.3853 80.8045 48.9103 80.8045C60.4353 80.8045 69.7785 71.462 69.7785 59.937C69.7785 48.412 60.4353 39.0693 48.9103 39.0693C37.3853 39.0693 28.0427 48.412 28.0427 59.937Z" fill="#707076"/>
<path fill-rule="evenodd" clip-rule="evenodd" d="M39.7063 55.0207L40.2214 53.4293C40.3261 53.1056 40.5816 52.8537 40.9065 52.7544L42.5057 52.2626C42.7271 52.195 42.7289 51.8827 42.5093 51.8115L40.9173 51.2964C40.5942 51.1917 40.3423 50.9362 40.2424 50.6113L39.7512 49.0121C39.6836 48.7913 39.3713 48.7889 39.3 49.0091L38.7849 50.6006C38.6802 50.9236 38.4248 51.1755 38.0999 51.2754L36.5006 51.7666C36.2793 51.8348 36.2769 52.1465 36.497 52.2177L38.0891 52.7329C38.4122 52.8376 38.6641 53.0936 38.764 53.4185L39.2552 55.0172C39.3228 55.2385 39.6351 55.2409 39.7063 55.0207Z" fill="#9D9DA6"/>
<path fill-rule="evenodd" clip-rule="evenodd" d="M64.9839 54.0942C64.3248 53.3569 63.2957 52.9418 62.2954 52.7716C61.2871 52.6081 60.2297 52.6233 59.2344 52.8001C57.2202 53.1408 55.3905 53.9748 53.7945 55.0036C52.9657 55.5086 52.259 56.0928 51.5268 56.6878C51.174 56.9888 50.8523 57.3092 50.5173 57.6251L49.602 58.5358C48.6074 59.5755 47.627 60.5224 46.6785 61.3073C45.7262 62.0885 44.8358 62.6819 43.9584 63.0963C43.0815 63.5128 42.1432 63.7577 40.9202 63.7969C39.7079 63.8397 38.2737 63.6209 36.7396 63.2598C35.1972 62.9002 33.5775 62.3877 31.7676 61.9468C32.3991 63.6988 33.3501 65.2471 34.5711 66.6623C35.8064 68.053 37.3489 69.3207 39.3305 70.1543C41.2834 71.0065 43.7377 71.3124 46.0324 70.8509C48.3333 70.4079 50.3524 69.3431 51.9845 68.1119C53.6208 66.868 54.9446 65.4511 56.0606 63.9779C56.3686 63.5709 56.5316 63.3431 56.7545 63.025L57.3708 62.1122C57.799 61.5476 58.1889 60.9048 58.6128 60.3454C59.4439 59.1738 60.263 58.0036 61.215 56.9255C61.6942 56.3787 62.1995 55.8556 62.7959 55.353C63.0936 55.1076 63.4148 54.8675 63.7709 54.6512C64.1323 54.4179 64.514 54.2353 64.9839 54.0942Z" fill="#59595E"/>
<path fill-rule="evenodd" clip-rule="evenodd" d="M64.9839 54.0943C64.2757 52.3071 62.9589 50.8026 61.1917 49.6925C59.4349 48.5945 56.9952 48.0342 54.5777 48.5118C53.3832 48.7428 52.226 49.1876 51.2106 49.7798C50.1997 50.3697 49.2939 51.0798 48.5097 51.8415C48.1182 52.2237 47.7629 52.6224 47.4099 53.0233L46.4949 54.1898L45.0817 56.0676C43.2801 58.4837 41.3401 61.3151 38.1563 62.1541C35.0308 62.9777 33.6752 62.2483 31.7676 61.9469C32.1164 62.8475 32.5484 63.722 33.1342 64.4913C33.709 65.2763 34.388 66.0135 35.2321 66.6453C35.6587 66.9488 36.109 67.2484 36.6093 67.5025C37.1072 67.7479 37.6441 67.964 38.2173 68.1267C39.3574 68.4392 40.6409 68.5485 41.8837 68.3805C43.127 68.2147 44.3154 67.8205 45.3542 67.2973C46.4007 66.779 47.3123 66.1477 48.1262 65.4815C49.7443 64.1377 51.0029 62.653 52.066 61.1522C52.6007 60.4019 53.0861 59.6374 53.5351 58.8727L54.0634 57.9622C54.225 57.6961 54.3884 57.4283 54.5544 57.179C55.2238 56.1771 55.8786 55.3737 56.674 54.7707C57.4582 54.1521 58.5505 53.6951 60.0099 53.5889C61.4633 53.4814 63.1412 53.6799 64.9839 54.0943Z" fill="#9D9DA6"/>
<path fill-rule="evenodd" clip-rule="evenodd" d="M57.1208 68.9438C57.1208 70.2563 58.1856 71.3211 59.4982 71.3211C60.811 71.3211 61.8742 70.2563 61.8742 68.9438C61.8742 67.6312 60.811 66.5664 59.4982 66.5664C58.1856 66.5664 57.1208 67.6312 57.1208 68.9438Z" fill="#59595E"/>
<path d="M210.422 54.1016V51.7011C210.422 51.606 210.344 51.5288 210.249 51.5288H196.572C196.477 51.5288 196.399 51.606 196.399 51.7011V54.1016H201.958V69.6312H204.863V54.1016H210.422Z" fill="#9D9DA6"/>
<path d="M182.104 51.5288C182.009 51.5288 181.932 51.6059 181.932 51.7011V69.4587C181.932 69.5538 182.009 69.6312 182.104 69.6312H193.614C193.71 69.6312 193.787 69.5538 193.787 69.4587V67.0837H184.836V61.3946H192.231V58.8983H184.836V54.0761H193.149V51.7011C193.149 51.606 193.072 51.5288 192.977 51.5288H182.104Z" fill="#9D9DA6"/>
<path d="M175.43 69.5258L175.492 69.6312H177.723C177.819 69.6312 177.896 69.5538 177.896 69.4587V51.7011C177.896 51.606 177.819 51.5288 177.723 51.5288H175.043V64.0656C174.577 63.3245 174.037 62.5088 173.421 61.6185C172.638 60.4599 171.794 59.2846 170.892 58.0925C170.006 56.8835 169.104 55.7169 168.184 54.5926C167.28 53.4506 166.427 52.4517 165.623 51.5967L165.559 51.5288H163.46C163.364 51.5288 163.287 51.6059 163.287 51.7011V69.4587C163.287 69.5538 163.364 69.6312 163.46 69.6312H166.14V56.2008C166.507 56.6338 166.897 57.1135 167.311 57.6403C167.87 58.352 168.447 59.115 169.041 59.9291L169.041 59.93L169.042 59.9308C169.635 60.7275 170.228 61.5582 170.822 62.4231L170.823 62.4242L170.824 62.4254C171.434 63.2906 172.019 64.1473 172.579 64.9953L172.58 64.9961L172.58 64.997C173.14 65.8274 173.656 66.6322 174.131 67.4112L174.131 67.4125L174.132 67.4141C174.624 68.1947 175.057 68.8987 175.43 69.5258Z" fill="#9D9DA6"/>
<path d="M159.779 51.8893L159.845 51.8172C159.946 51.7066 159.867 51.5288 159.718 51.5288H156.538L156.473 51.6036C156.051 52.0932 155.527 52.6685 154.899 53.3299C154.288 53.9751 153.634 54.6544 152.938 55.3677C152.242 56.0808 151.537 56.7939 150.824 57.507C150.254 58.0638 149.722 58.577 149.227 59.0466V51.5288H146.495C146.4 51.5288 146.323 51.6059 146.323 51.7011V69.4587C146.323 69.5538 146.4 69.6312 146.495 69.6312H149.227V61.4188C149.827 61.8114 150.44 62.2709 151.066 62.7975L151.067 62.7983L151.068 62.799C151.827 63.4228 152.569 64.106 153.295 64.8487L153.297 64.8505L153.298 64.8522C154.04 65.5775 154.74 66.3449 155.398 67.1545L155.399 67.1553L155.4 67.1563C156.057 67.949 156.639 68.7407 157.143 69.5316L157.207 69.6312H160.306C160.439 69.6312 160.522 69.4877 160.456 69.3728L160.419 69.3084C159.954 68.4987 159.37 67.649 158.668 66.7588C157.984 65.8699 157.249 64.9985 156.463 64.1443C155.678 63.29 154.874 62.4867 154.054 61.7344C153.31 61.053 152.6 60.4679 151.923 59.98C152.499 59.418 153.109 58.8145 153.754 58.1695C154.469 57.4549 155.183 56.7318 155.898 56.0003C156.63 55.2516 157.327 54.5284 157.991 53.8307L157.992 53.8297L157.993 53.8288C158.656 53.1144 159.252 52.4679 159.779 51.8893Z" fill="#9D9DA6"/>
<path fill-rule="evenodd" clip-rule="evenodd" d="M129.837 51.3935C129.742 51.3935 129.665 51.4706 129.665 51.5658V69.4698C129.665 69.5652 129.742 69.6423 129.837 69.6423H132.298V63.0595H135.893C136.297 63.5437 136.692 64.0504 137.077 64.5795L137.078 64.5815L137.08 64.5835C137.709 65.4085 138.29 66.2691 138.824 67.1656L138.825 67.1664L138.825 67.1675C139.308 67.9607 139.73 68.7442 140.091 69.5179L140.149 69.6423H143.061C143.186 69.6423 143.269 69.5137 143.217 69.4001C142.882 68.6663 142.519 67.9475 142.116 67.2475C141.569 66.2691 140.968 65.3003 140.314 64.3413C139.94 63.7933 139.558 63.2609 139.169 62.7442C140.255 62.4121 141.114 61.8115 141.736 60.9398L141.737 60.9392C142.483 59.8842 142.853 58.6435 142.853 57.2264C142.853 56.2526 142.683 55.3616 142.341 54.5565C141.997 53.7396 141.479 53.0622 140.79 52.5278C140.105 51.9905 139.262 51.6487 138.268 51.4953C138.037 51.4526 137.797 51.4271 137.551 51.4184C137.31 51.4018 137.099 51.3934 136.921 51.3934C136.166 51.3934 135.41 51.3933 134.655 51.3932C133.049 51.393 131.443 51.3929 129.837 51.3935ZM140.17 57.2264C140.17 57.6967 140.092 58.1596 139.934 58.6157C139.78 59.0538 139.535 59.4379 139.195 59.7698C138.874 60.084 138.449 60.3069 137.912 60.4316C137.741 60.4702 137.558 60.4977 137.361 60.5134L137.361 60.5135L137.361 60.5135C137.167 60.5296 136.996 60.5375 136.846 60.5375H132.298V53.9153H136.846C136.996 53.9153 137.167 53.9232 137.361 53.9393L137.365 53.9397L137.37 53.9399C137.561 53.9476 137.739 53.9743 137.903 54.0191L137.909 54.0206L137.914 54.0218C138.45 54.1382 138.873 54.3602 139.194 54.6813L139.194 54.6822L139.195 54.683C139.534 55.0144 139.78 55.4023 139.934 55.8489V55.8495L139.934 55.85C140.091 56.2974 140.17 56.7559 140.17 57.2264Z" fill="#9D9DA6"/>
<path fill-rule="evenodd" clip-rule="evenodd" d="M123.203 67.2411L123.204 67.2419L123.204 67.2427C123.459 67.9755 123.732 68.7251 124.022 69.4917L124.074 69.6312H126.988C127.107 69.6312 127.19 69.5123 127.149 69.3998C126.513 67.6513 125.871 65.905 125.215 64.1637C124.62 62.5645 124.033 61.0501 123.454 59.6205C122.893 58.1908 122.331 56.8289 121.769 55.5347C121.205 54.2195 120.612 52.9172 119.994 51.6266C119.965 51.5668 119.905 51.5288 119.839 51.5288H117.515C117.449 51.5288 117.388 51.5668 117.36 51.6266C116.742 52.9172 116.149 54.2195 115.585 55.5348C115.023 56.8285 114.453 58.19 113.875 59.6194L113.874 59.6204L113.874 59.6214C113.312 61.0506 112.734 62.5647 112.139 64.1636C111.483 65.905 110.841 67.6513 110.204 69.3998C110.163 69.5123 110.246 69.6312 110.366 69.6312H113.155L113.155 69.6309H113.21L113.274 69.5622C113.946 68.84 114.698 68.131 115.53 67.4358L115.531 67.4353L115.532 67.4345C116.366 66.7218 117.237 66.0609 118.142 65.4515L118.145 65.4502L118.146 65.4486C119.039 64.8182 119.937 64.2524 120.84 63.7512L120.842 63.7506L120.843 63.75C121.168 63.5648 121.488 63.3923 121.804 63.2323L122.413 64.9738L122.414 64.9751C122.686 65.7391 122.949 66.4944 123.203 67.2411ZM120.069 58.6544L120.07 58.6558L120.07 58.6573C120.316 59.2785 120.561 59.9101 120.806 60.5522C120.788 60.5602 120.769 60.5686 120.75 60.5773C119.887 60.9706 118.959 61.4791 117.966 62.1015C117.016 62.6975 116.073 63.3449 115.138 64.0438L115.534 62.9131C116.058 61.4434 116.582 60.0243 117.106 58.6558C117.587 57.4216 118.089 56.2345 118.61 55.0945C119.116 56.2341 119.603 57.4207 120.069 58.6544Z" fill="#9D9DA6"/>
<path d="M110.915 54.1016V51.7011C110.915 51.606 110.838 51.5288 110.743 51.5288H97.0653C96.9702 51.5288 96.8931 51.606 96.8931 51.7011V54.1016H102.452V69.4587C102.452 69.5538 102.529 69.6312 102.624 69.6312H105.184C105.279 69.6312 105.356 69.5538 105.356 69.4587V54.1016H110.915Z" fill="#9D9DA6"/>
<path d="M84.3429 69.4109L84.3421 69.4107C83.2887 68.9616 82.4125 68.3205 81.7178 67.4869L81.717 67.4858L81.7162 67.485C81.0286 66.6408 80.5819 65.6455 80.3745 64.5043C80.3642 64.4472 80.3772 64.3884 80.4107 64.3411C80.4443 64.2937 80.4955 64.262 80.5528 64.253L82.8697 63.8878C82.9793 63.8706 83.0842 63.9394 83.1117 64.0469C83.3933 65.1409 83.9728 65.9899 84.8514 66.6054C85.7432 67.2156 86.7947 67.5238 88.0151 67.5238C88.8068 67.5238 89.5142 67.4015 90.1405 67.1609C90.7739 66.9121 91.2658 66.5631 91.6247 66.1183C91.9779 65.6809 92.1562 65.1628 92.1562 64.5539C92.1562 64.1759 92.0891 63.8664 91.9647 63.6178C91.9636 63.6155 91.9626 63.6133 91.9615 63.611C91.8405 63.3461 91.6715 63.1248 91.4536 62.9445C91.4515 62.9428 91.4493 62.9411 91.4475 62.9393C91.2288 62.744 90.9776 62.5789 90.6931 62.4445C90.402 62.307 90.0985 62.1937 89.7823 62.1045L89.7794 62.1037L85.1581 60.7311C84.6435 60.5768 84.1461 60.3838 83.6659 60.1523L83.6645 60.1516L83.663 60.1509C83.1753 59.907 82.7384 59.6058 82.3533 59.247L82.3522 59.2459L82.3515 59.2453C81.961 58.8726 81.6515 58.4296 81.4224 57.9185L81.4219 57.9172C81.1889 57.3889 81.0761 56.7746 81.0761 56.0802C81.0761 54.967 81.3638 54.0057 81.9489 53.208L81.9492 53.2077C82.5366 52.4096 83.3288 51.8032 84.3178 51.3868C85.3057 50.9709 86.4138 50.7695 87.639 50.7781C88.8805 50.7867 89.9973 51.0094 90.9852 51.4511C91.9808 51.8841 92.8066 52.5092 93.4585 53.3263C94.1204 54.1452 94.5618 55.1223 94.7861 56.2523C94.7975 56.3092 94.7853 56.3682 94.7525 56.4161C94.7198 56.4639 94.6691 56.4965 94.612 56.5065L92.2323 56.922C92.1758 56.9318 92.1179 56.9188 92.0712 56.8858C92.0241 56.8527 91.9924 56.8024 91.9829 56.7459C91.8627 56.0409 91.5959 55.4428 91.1855 54.9457L91.1831 54.9428C90.7773 54.4336 90.2686 54.0434 89.6531 53.7717L89.651 53.7707C89.0342 53.4904 88.3548 53.3448 87.6099 53.3368H87.6096C86.8956 53.3287 86.2575 53.4423 85.6916 53.6733C85.1242 53.9051 84.6815 54.2248 84.355 54.6291L84.3537 54.6307C84.0333 55.0196 83.874 55.4663 83.874 55.9795C83.874 56.4891 84.0193 56.8822 84.2943 57.1793C84.5909 57.4915 84.9557 57.7435 85.3921 57.9342C85.8546 58.124 86.3034 58.2804 86.739 58.4037L86.7401 58.404L90.1888 59.3983C90.5909 59.5096 91.0499 59.6628 91.5656 59.8571C92.1052 60.0574 92.6256 60.3396 93.1264 60.7022C93.6421 61.0669 94.0655 61.5539 94.3981 62.1577C94.7399 62.7695 94.9036 63.5303 94.9036 64.428C94.9036 65.3302 94.7214 66.1413 94.351 66.8555C93.9918 67.5653 93.4873 68.1615 92.8401 68.6425L92.8385 68.6436C92.195 69.1132 91.4499 69.4677 90.6062 69.7089C89.7619 69.9585 88.8601 70.0827 87.9018 70.0827C86.5929 70.0827 85.4053 69.8603 84.3429 69.4109Z" fill="#9D9DA6"/>
<rect x="0.5" y="0.5" width="239" height="119" stroke="#2E2E33"/>
</svg>
