<svg width="240" height="80" viewBox="0 0 240 80" fill="none" xmlns="http://www.w3.org/2000/svg">
<rect x="0.5" y="0.5" width="239" height="79" fill="#17171A"/>
<path d="M91.5498 54.2846V33.3128H94.6701L94.9673 35.0055H95.1159C96.0074 33.8461 97.5224 33.0156 99.6318 33.0156C103.492 33.0156 106.583 36.165 106.583 40.827C106.583 45.4889 103.495 48.6383 99.6318 48.6383C97.5516 48.6383 96.0975 47.7759 95.3255 46.7969H95.1768V54.2819H91.5525L91.5498 54.2846ZM102.956 40.8296C102.956 38.0967 101.203 36.3747 99.0639 36.3747C96.9254 36.3747 95.1716 38.0967 95.1716 40.8296C95.1716 43.5626 96.9254 45.2846 99.0639 45.2846C101.203 45.2846 102.956 43.5626 102.956 40.8296Z" fill="#9D9DA6"/>
<path d="M108.424 40.8309C108.424 36.2857 111.69 33.0195 116.057 33.0195C120.425 33.0195 123.691 36.2857 123.691 40.8309C123.691 45.376 120.425 48.6423 116.057 48.6423C111.69 48.6423 108.424 45.3442 108.424 40.8309ZM120.037 40.8309C120.037 38.1564 118.254 36.376 116.057 36.376C113.86 36.376 112.048 38.1591 112.048 40.8309C112.048 43.5028 113.86 45.2566 116.057 45.2566C118.254 45.2566 120.037 43.5054 120.037 40.8309Z" fill="#9D9DA6"/>
<path d="M126.315 48.3441V27.5527H129.94V48.3466H126.315V48.3441Z" fill="#9D9DA6"/>
<path d="M143.395 33.313H147.256L140.721 51.5811C140.068 53.3932 139.176 54.2847 136.828 54.2847H133.323V50.9283H136.295C136.831 50.9283 137.126 50.6604 137.306 50.2146L137.661 49.2355L131.543 33.313H135.404L139.296 43.7406H139.89L143.395 33.313Z" fill="#9D9DA6"/>
<path d="M147.949 49.0866H151.632C151.781 50.0658 152.76 51.4031 155.079 51.4031C157.246 51.4031 158.674 50.0366 158.674 47.9564V45.8471H158.525C157.724 46.7093 156.238 47.4815 154.336 47.4815C150.475 47.4815 147.503 44.5097 147.503 40.2326C147.503 35.9555 150.475 33.0156 154.336 33.0156C156.326 33.0156 157.782 33.8169 158.703 34.9472H158.852L159.149 33.3128H162.298V47.9564C162.298 51.9363 159.624 54.5817 155.079 54.5817C150 54.5817 148.04 51.2544 147.949 49.0866ZM158.674 40.2353C158.674 37.8897 157.01 36.2553 154.901 36.2553C152.792 36.2553 151.157 37.8897 151.157 40.2353C151.157 42.5808 152.821 44.2445 154.901 44.2445C156.981 44.2445 158.674 42.6099 158.674 40.2353Z" fill="#9D9DA6"/>
<path d="M164.817 40.8309C164.817 36.2857 168.084 33.0195 172.451 33.0195C176.818 33.0195 180.085 36.2857 180.085 40.8309C180.085 45.376 176.818 48.6423 172.451 48.6423C168.084 48.6423 164.817 45.3442 164.817 40.8309ZM176.431 40.8309C176.431 38.1564 174.648 36.376 172.451 36.376C170.254 36.376 168.442 38.1591 168.442 40.8309C168.442 43.5028 170.254 45.2566 172.451 45.2566C174.648 45.2566 176.431 43.5054 176.431 40.8309Z" fill="#9D9DA6"/>
<path d="M182.607 48.3438V33.3128H185.725L186.022 34.7376H186.171C186.765 34.0557 188.251 33.0156 190.507 33.0156C193.952 33.0156 196.447 35.5097 196.447 39.3119V48.3411H192.823V39.7869C192.823 37.8552 191.456 36.4596 189.586 36.4596C187.715 36.4596 186.229 37.9163 186.229 39.7869V48.3411H182.604L182.607 48.3438Z" fill="#9D9DA6"/>
<path d="M70.4539 46.5902L79.3636 41.4455C79.836 41.1722 80.1278 40.6653 80.1278 40.1214V29.8319C80.1278 29.288 79.836 28.7812 79.3636 28.5079L70.4539 23.3631C69.9816 23.0899 69.3952 23.0925 68.9256 23.3631L60.0157 28.5079C59.5435 28.7812 59.2516 29.288 59.2516 29.8319V48.2193L53.0031 51.8252L46.7545 48.2193V41.0051L53.0031 37.3992L57.1237 39.7791V34.9395L53.7672 33C53.5363 32.8673 53.2711 32.7957 53.0031 32.7957C52.735 32.7957 52.4698 32.8673 52.239 33L43.3291 38.1447C42.8568 38.418 42.5649 38.9249 42.5649 39.4688V49.7583C42.5649 50.3022 42.8568 50.8089 43.3291 51.0822L52.239 56.2271C52.7112 56.4977 53.295 56.4977 53.7672 56.2271L62.677 51.0822C63.1494 50.8089 63.4411 50.3022 63.4411 49.7583V31.3682L63.5526 31.3045L69.6871 27.7623L75.9356 31.3682V38.5826L69.6871 42.1884L65.5717 39.8136V44.6534L68.9229 46.5876C69.3952 46.8582 69.9816 46.8582 70.4512 46.5876L70.4539 46.5902Z" fill="#9D9DA6"/>
<rect x="0.5" y="0.5" width="239" height="79" stroke="#2E2E33"/>
</svg>
