<svg width="335" height="272" viewBox="0 0 335 272" fill="none" xmlns="http://www.w3.org/2000/svg">
<path d="M166.667 184.828L165.54 187.093C163.661 190.868 156.013 190.88 148.46 187.121C140.907 183.361 136.306 177.252 138.185 173.478L139.312 171.212L166.667 184.828Z" fill="white" stroke="white" stroke-width="0.5" stroke-linejoin="round"/>
<path d="M156.347 171.291C163.94 175.07 168.563 181.214 166.674 185.009C164.785 188.803 157.096 188.819 149.503 185.04C141.91 181.261 137.285 175.12 139.176 171.322C141.066 167.524 148.754 167.511 156.347 171.291Z" fill="#17171A" stroke="white" stroke-width="0.5" stroke-linejoin="round"/>
<path d="M217.777 226.004C216.606 219.378 207.966 215.913 202.348 213.912C195.383 211.613 188.162 210.156 180.844 209.573C165.857 208.16 149.75 208.984 135.476 213.996C130.096 215.88 122.696 218.94 120.608 224.776C120.124 226.71 119.969 228.711 120.15 230.696V242.742C120.15 235.897 128.959 231.945 134.356 229.943C141.298 227.472 148.53 225.889 155.877 225.235C170.932 223.654 187.005 224.411 201.449 229.153C205.276 230.305 208.913 232.004 212.244 234.198C215.044 236.149 217.896 239.059 217.896 242.607V232.277C218.026 230.186 217.986 228.088 217.777 226.004Z" fill="#17171A" stroke="white" stroke-width="0.5" stroke-linejoin="round"/>
<path d="M226.569 228.445C226.016 236.76 217.212 242.092 210.337 245.194C202.036 248.93 192.91 250.922 183.875 251.963C174.58 253.036 165.194 253.1 155.885 252.151C146.831 251.355 137.942 249.272 129.493 245.967C124.985 244.242 120.816 241.757 117.171 238.623C114.036 235.789 111.413 232.023 111.413 227.722V239.367C111.515 242.622 112.774 245.737 114.97 248.168C120.699 254.858 129.835 258.366 138.156 260.675C147.186 263.083 156.482 264.384 165.835 264.55C175.318 264.83 184.801 264.002 194.086 262.082C202.749 260.269 211.815 257.405 218.93 252.003C222.066 249.625 224.961 246.553 226.146 242.697C226.524 241.198 226.684 239.653 226.619 238.109V227.722C226.619 227.95 226.589 228.197 226.569 228.445Z" fill="#36FFFF" stroke="white" stroke-width="0.5" stroke-linejoin="round"/>
<mask id="path-5-inside-1_32092_134483" fill="white">
<path fill-rule="evenodd" clip-rule="evenodd" d="M192.847 262.625V250.881C198.864 249.705 204.785 247.986 210.338 245.487C217.212 242.385 226.016 237.053 226.569 228.738C226.574 228.673 226.58 228.608 226.586 228.544C226.603 228.362 226.619 228.183 226.619 228.015V238.402C226.684 239.946 226.525 241.491 226.147 242.991C224.961 246.846 222.066 249.918 218.931 252.297C211.815 257.698 202.75 260.562 194.086 262.376C193.674 262.461 193.261 262.544 192.847 262.625Z"/>
</mask>
<path fill-rule="evenodd" clip-rule="evenodd" d="M192.847 262.625V250.881C198.864 249.705 204.785 247.986 210.338 245.487C217.212 242.385 226.016 237.053 226.569 228.738C226.574 228.673 226.58 228.608 226.586 228.544C226.603 228.362 226.619 228.183 226.619 228.015V238.402C226.684 239.946 226.525 241.491 226.147 242.991C224.961 246.846 222.066 249.918 218.931 252.297C211.815 257.698 202.75 260.562 194.086 262.376C193.674 262.461 193.261 262.544 192.847 262.625Z" fill="white"/>
<path d="M192.847 262.625H192.347V263.233L192.943 263.116L192.847 262.625ZM192.847 250.881L192.751 250.39L192.347 250.469V250.881H192.847ZM210.338 245.487L210.543 245.943L210.543 245.943L210.338 245.487ZM226.569 228.738L226.07 228.698L226.07 228.705L226.569 228.738ZM226.586 228.544L226.088 228.498V228.498L226.586 228.544ZM226.619 238.402H226.119V238.413L226.119 238.423L226.619 238.402ZM226.147 242.991L226.625 243.138L226.628 243.125L226.631 243.113L226.147 242.991ZM218.931 252.297L218.628 251.898L218.628 251.899L218.931 252.297ZM194.086 262.376L194.188 262.865L194.189 262.865L194.086 262.376ZM193.347 262.625V250.881H192.347V262.625H193.347ZM210.132 245.031C204.622 247.511 198.739 249.22 192.751 250.39L192.943 251.371C198.988 250.19 204.948 248.461 210.543 245.943L210.132 245.031ZM226.07 228.705C225.805 232.682 223.567 235.981 220.493 238.693C217.418 241.405 213.551 243.489 210.132 245.032L210.543 245.943C213.999 244.384 217.971 242.251 221.155 239.443C224.339 236.634 226.779 233.109 227.068 228.772L226.07 228.705ZM226.088 228.498C226.082 228.562 226.076 228.63 226.07 228.698L227.067 228.779C227.072 228.717 227.078 228.654 227.084 228.589L226.088 228.498ZM226.119 228.015C226.119 228.156 226.105 228.311 226.088 228.498L227.084 228.589C227.1 228.413 227.119 228.21 227.119 228.015H226.119ZM227.119 238.402V228.015H226.119V238.402H227.119ZM226.631 243.113C227.021 241.567 227.185 239.973 227.119 238.381L226.119 238.423C226.182 239.919 226.028 241.416 225.662 242.869L226.631 243.113ZM219.233 252.695C222.405 250.289 225.394 247.137 226.625 243.138L225.669 242.844C224.527 246.555 221.727 249.548 218.628 251.898L219.233 252.695ZM194.189 262.865C202.876 261.046 212.029 258.164 219.233 252.695L218.628 251.899C211.601 257.233 202.623 260.078 193.984 261.886L194.189 262.865ZM192.943 263.116C193.358 263.035 193.773 262.951 194.188 262.865L193.985 261.886C193.574 261.971 193.163 262.054 192.751 262.135L192.943 263.116Z" fill="white" mask="url(#path-5-inside-1_32092_134483)"/>
<path fill-rule="evenodd" clip-rule="evenodd" d="M226.633 228.172C226.633 214.204 200.841 202.89 169.018 202.89C137.205 202.89 111.413 214.224 111.413 228.192C111.413 242.16 137.195 253.455 169.018 253.455C200.841 253.455 226.633 242.141 226.633 228.172ZM217.17 228.172C217.17 218.456 195.615 210.585 169.019 210.585C142.431 210.585 120.875 218.469 120.875 228.186C120.875 237.903 142.422 245.76 169.019 245.76C195.615 245.76 217.17 237.889 217.17 228.172Z" fill="#17171A" stroke="white" stroke-width="0.5" stroke-linejoin="round"/>
<path d="M253.17 151.099C251.146 139.651 236.221 133.666 226.515 130.208C214.481 126.236 202.007 123.719 189.363 122.712C163.471 120.272 135.644 121.695 110.984 130.354C101.688 133.608 88.9036 138.896 85.2969 148.978C84.4607 152.32 84.193 155.776 84.5052 159.205V180.016C84.5052 168.191 99.7237 161.363 109.048 157.905C121.042 153.635 133.537 150.901 146.23 149.77C172.239 147.039 200.008 148.346 224.961 156.54C231.573 158.529 237.856 161.466 243.61 165.256C248.449 168.627 253.375 173.653 253.375 179.784V161.936C253.6 158.324 253.532 154.7 253.17 151.099Z" fill="#17171A" stroke="white" stroke-width="0.5" stroke-linejoin="round"/>
<path d="M268.36 155.316C267.405 169.681 252.195 178.893 240.319 184.252C225.977 190.707 210.211 194.148 194.601 195.946C178.543 197.801 162.327 197.91 146.245 196.272C130.603 194.897 115.245 191.298 100.649 185.588C92.8608 182.607 85.6578 178.314 79.3612 172.9C73.9439 168.003 69.4121 161.497 69.4121 154.066V174.186C69.5885 179.808 71.7642 185.19 75.5587 189.39C85.4557 200.948 101.239 207.009 115.616 210.998C131.216 215.157 147.276 217.406 163.434 217.693C179.817 218.177 196.201 216.745 212.242 213.429C227.21 210.296 242.871 205.348 255.164 196.016C260.582 191.907 265.582 186.599 267.631 179.939C268.284 177.348 268.559 174.679 268.447 172.011V154.066C268.447 154.46 268.395 154.888 268.36 155.316Z" fill="white" stroke="white" stroke-width="0.5" stroke-linejoin="round"/>
<mask id="path-10-inside-2_32092_134483" fill="white">
<path fill-rule="evenodd" clip-rule="evenodd" d="M210.1 214.365V194.075C220.495 192.044 230.725 189.075 240.318 184.757C252.195 179.398 267.405 170.186 268.36 155.821C268.369 155.708 268.379 155.596 268.39 155.484C268.418 155.17 268.447 154.861 268.447 154.571V172.516C268.559 175.184 268.284 177.853 267.631 180.444C265.582 187.104 260.581 192.412 255.164 196.521C242.871 205.853 227.209 210.801 212.242 213.934C211.529 214.082 210.815 214.225 210.1 214.365Z"/>
</mask>
<path fill-rule="evenodd" clip-rule="evenodd" d="M210.1 214.365V194.075C220.495 192.044 230.725 189.075 240.318 184.757C252.195 179.398 267.405 170.186 268.36 155.821C268.369 155.708 268.379 155.596 268.39 155.484C268.418 155.17 268.447 154.861 268.447 154.571V172.516C268.559 175.184 268.284 177.853 267.631 180.444C265.582 187.104 260.581 192.412 255.164 196.521C242.871 205.853 227.209 210.801 212.242 213.934C211.529 214.082 210.815 214.225 210.1 214.365Z" fill="#AA78FF"/>
<path d="M210.1 214.365H209.6V214.973L210.196 214.856L210.1 214.365ZM210.1 194.075L210.004 193.584L209.6 193.663V194.075H210.1ZM240.318 184.757L240.524 185.213L240.524 185.213L240.318 184.757ZM268.36 155.821L267.862 155.78L267.861 155.788L268.36 155.821ZM268.39 155.484L268.888 155.53V155.53L268.39 155.484ZM268.447 172.516H267.947V172.527L267.947 172.537L268.447 172.516ZM267.631 180.444L268.109 180.591L268.112 180.578L268.116 180.566L267.631 180.444ZM255.164 196.521L254.862 196.123L254.862 196.123L255.164 196.521ZM212.242 213.934L212.343 214.424L212.344 214.424L212.242 213.934ZM210.6 214.365V194.075H209.6V214.365H210.6ZM240.113 184.301C230.562 188.6 220.37 191.559 210.004 193.584L210.196 194.566C220.619 192.529 230.888 189.55 240.524 185.213L240.113 184.301ZM267.861 155.788C267.396 162.79 263.455 168.571 258.104 173.291C252.752 178.011 246.032 181.63 240.113 184.301L240.524 185.213C246.481 182.525 253.304 178.858 258.765 174.041C264.227 169.224 268.369 163.217 268.859 155.854L267.861 155.788ZM267.892 155.439C267.882 155.55 267.871 155.665 267.862 155.78L268.858 155.861C268.867 155.752 268.877 155.642 268.888 155.53L267.892 155.439ZM267.947 154.571C267.947 154.834 267.921 155.12 267.892 155.439L268.888 155.53C268.916 155.221 268.947 154.888 268.947 154.571H267.947ZM268.947 172.516V154.571H267.947V172.516H268.947ZM268.116 180.566C268.78 177.928 269.06 175.211 268.946 172.495L267.947 172.537C268.057 175.156 267.787 177.777 267.146 180.321L268.116 180.566ZM255.466 196.92C260.92 192.782 266.015 187.395 268.109 180.591L267.153 180.297C265.148 186.813 260.242 192.042 254.862 196.123L255.466 196.92ZM212.344 214.424C227.336 211.285 243.084 206.318 255.466 196.92L254.862 196.123C242.657 205.387 227.082 210.317 212.139 213.445L212.344 214.424ZM210.196 214.856C210.913 214.716 211.628 214.572 212.343 214.424L212.141 213.445C211.429 213.592 210.717 213.735 210.004 213.875L210.196 214.856Z" fill="white" mask="url(#path-10-inside-2_32092_134483)"/>
<path fill-rule="evenodd" clip-rule="evenodd" d="M268.472 154.847C268.472 130.715 223.912 111.168 168.933 111.168C113.972 111.168 69.4121 130.749 69.4121 154.881C69.4121 179.013 113.954 198.525 168.933 198.525C223.912 198.525 268.472 178.979 268.472 154.847ZM252.124 154.847C252.124 138.059 214.883 124.462 168.935 124.462C123.001 124.462 85.76 138.083 85.76 154.871C85.76 171.658 122.986 185.232 168.935 185.232C214.883 185.232 252.124 171.634 252.124 154.847Z" fill="#17171A" stroke="white" stroke-width="0.5" stroke-linejoin="round"/>
<path d="M234.047 129.653L237.056 133.45C242.069 139.777 235.868 153.039 223.208 163.069C210.548 173.099 196.219 176.102 191.206 169.775L188.198 165.978L234.047 129.653Z" fill="white" stroke="white" stroke-width="0.5" stroke-linejoin="round"/>
<path d="M202.194 136.524C214.921 126.441 229.329 123.428 234.368 129.789C239.407 136.149 233.178 149.486 220.452 159.569C207.726 169.652 193.322 172.67 188.278 166.304C183.235 159.938 189.468 146.607 202.194 136.524Z" fill="#17171A" stroke="white" stroke-width="0.5" stroke-linejoin="round"/>
<path d="M225.863 141.678C226.27 142.055 226.288 142.656 225.882 143.28L219.979 151.722C219.568 152.276 218.895 152.763 218.127 153.046L205.73 156.626C205.398 156.693 205.086 156.707 204.81 156.676C204.493 156.649 204.212 156.576 204.004 156.441C203.987 156.434 203.935 156.386 203.872 156.343C203.78 156.269 203.722 156.209 203.636 156.147L201.342 154.238L199.428 152.646L215.281 142.354L218.893 142.665L202.866 153.24L205.419 155.363C205.483 155.406 205.582 155.432 205.67 155.435C205.758 155.437 205.847 155.44 205.941 155.425L210.211 154.183L209.87 149.481L213.981 146.774L214.426 152.98L215.601 152.638L215.242 145.927L218.844 143.559L219.38 150.245L224.306 143.199C224.43 142.996 224.436 142.79 224.298 142.68L218.365 137.716C218.284 137.667 218.185 137.64 218.079 137.631C217.956 137.616 217.832 137.63 217.69 137.667L205.91 141.076C205.648 141.168 205.408 141.338 205.273 141.517L200.568 148.257L209.19 142.861C210.271 142.156 211.653 142.008 212.786 142.105L212.892 142.114L214.248 142.254L198.789 152.115L197.174 150.761L197.678 150.034L203.778 141.297C204.212 140.732 204.934 140.223 205.724 139.958C205.885 139.898 206.027 139.861 206.187 139.83L217.784 136.463C218.199 136.357 218.594 136.333 218.952 136.355C219.311 136.377 219.608 136.486 219.839 136.64L225.846 141.671L225.863 141.678Z" fill="white"/>
<path d="M80.6276 126.9L77.7837 129.153C73.0453 132.907 63.1136 128.263 55.6021 118.782C48.0905 109.301 45.8416 98.5703 50.5799 94.8162L53.4238 92.5631L80.6276 126.9Z" fill="white" stroke="white" stroke-width="0.5" stroke-linejoin="round"/>
<path d="M75.4807 103.046C83.0316 112.577 85.2879 123.368 80.5247 127.141C75.7616 130.915 65.7734 126.25 58.2225 116.72C50.6716 107.189 48.411 96.402 53.1785 92.6248C57.9461 88.8476 67.9299 93.5157 75.4807 103.046Z" fill="#17171A" stroke="white" stroke-width="0.5" stroke-linejoin="round"/>
<path d="M60.6197 100.319L64.1198 112.546L70.4348 112.968L71.5935 106.746L60.6197 100.319Z" fill="white"/>
<path d="M65.4396 114.246L75.3832 119.348L72.9132 108.447L71.778 114.702L65.4396 114.246Z" fill="white"/>
<path d="M89.55 69.7662L151.753 50.9204L185.171 134.24L180.83 139.29L119.289 157.96C115.751 159.034 112.013 157.036 110.94 153.498L87.0541 74.7675L89.55 69.7662Z" fill="white"/>
<path d="M89.636 70.0008L151.534 51.2219L161.491 56.5437L184.99 134.001L121.62 153.226C118.214 154.26 114.615 152.336 113.582 148.93L89.636 70.0008Z" fill="#17171A" stroke="white" stroke-width="0.5"/>
<path d="M117.087 74.5267L116.847 74.5988L116.919 74.8382L118.008 78.4513L114.403 79.538L114.163 79.6101L114.235 79.8495L115.324 83.4626L111.719 84.5493L111.479 84.6214L111.551 84.8608L115.035 96.4183L115.107 96.6571L115.346 96.5857L161.549 82.7803L161.79 82.7083L161.717 82.4677L159.331 74.6627L159.258 74.4245L159.02 74.4964L151.569 76.7418L149.319 69.2762L149.247 69.0368L149.008 69.1089L145.402 70.1956L144.313 66.5824L144.241 66.3431L144.002 66.4152L117.087 74.5267Z" fill="#36FFFF" stroke="white" stroke-width="0.5"/>
<path d="M117.622 104.298L117.861 104.226L117.789 103.986L115.541 96.5277L118.919 95.5096L120.007 99.1192L120.079 99.3586L120.319 99.2865L135.507 94.7091L136.595 98.3187L136.667 98.5581L136.906 98.486L140.763 97.3236L141.003 97.2515L140.93 97.0121L139.843 93.4024L151.174 89.9874L151.413 89.9153L151.341 89.6759L150.253 86.0663L153.632 85.0482L163.927 119.211L160.549 120.229L155.981 105.072L155.909 104.833L155.67 104.905L148.195 107.157L147.18 103.787L154.654 101.535L154.893 101.462L154.821 101.223L152.501 93.5249L152.429 93.2856L152.19 93.3577L144.476 95.6825L144.237 95.7546L144.309 95.994L146.557 103.453L143.178 104.471L142.09 100.861L142.018 100.622L141.779 100.694L137.922 101.856L137.683 101.928L137.755 102.168L138.843 105.777L135.464 106.796L133.217 99.3368L133.144 99.0975L132.905 99.1696L125.191 101.494L124.952 101.567L125.024 101.806L127.272 109.265L123.894 110.283L122.806 106.673L122.734 106.434L122.494 106.506L118.637 107.668L118.398 107.74L118.47 107.98L119.63 111.829L119.702 112.068L119.942 111.996L123.559 110.906L129.215 129.672L125.837 130.69L121.269 115.533L121.197 115.294L120.957 115.366L117.34 116.456L114.004 105.388L117.622 104.298ZM148.673 136.665L148.601 136.425L148.362 136.498L144.744 137.588L143.729 134.217L154.821 130.875L155.836 134.245L152.219 135.335L151.98 135.407L152.052 135.647L154.3 143.105L150.921 144.123L148.673 136.665ZM143.106 133.883L139.727 134.901L138.712 131.531L142.09 130.513L143.106 133.883ZM135.494 148.773L129.838 130.007L133.216 128.988L138.872 147.755L135.494 148.773ZM136.146 110.789L128.911 112.969L127.895 109.599L135.13 107.419L136.146 110.789ZM157.852 125.24L156.836 121.87L160.215 120.852L161.23 124.222L157.852 125.24ZM157.518 125.863L158.533 129.233L155.155 130.252L154.14 126.881L157.518 125.863ZM141.786 113.81L145.164 112.792L146.18 116.162L142.801 117.18L141.786 113.81ZM152.357 122.698L141.264 126.041L140.249 122.67L151.341 119.328L152.357 122.698Z" fill="white" stroke="white" stroke-width="0.5"/>
<path d="M119.123 95.1878L149.9 85.9125L151.06 89.7615L139.519 93.2397L140.679 97.0888L136.832 98.2482L135.672 94.3991L120.283 99.0368L119.123 95.1878Z" fill="#17171A"/>
<path fill-rule="evenodd" clip-rule="evenodd" d="M123.763 110.584L127.611 109.424L128.771 113.273L136.465 110.955L135.305 107.106L139.152 105.946L137.992 102.097L141.839 100.938L142.999 104.787L146.846 103.627L148.006 107.476L155.7 105.158L160.34 120.554L156.493 121.713L157.653 125.562L153.806 126.722L154.966 130.571L143.425 134.049L142.265 130.2L138.418 131.359L139.578 135.208L143.425 134.049L144.585 137.898L148.432 136.738L150.752 144.437L139.21 147.915L133.41 128.67L129.563 129.829L123.763 110.584ZM146.479 116.334L145.319 112.485L141.472 113.644L142.632 117.493L146.479 116.334ZM152.646 122.873L151.486 119.024L139.945 122.502L141.105 126.351L152.646 122.873Z" fill="#17171A"/>
<path d="M123.763 110.584L119.916 111.743L118.756 107.894L122.603 106.735L123.763 110.584Z" fill="#17171A"/>
<path d="M208.59 46.1938L244.904 60.0523L247.699 66.5027L229.541 114.082L190.233 99.0813C188.161 98.2904 187.122 95.9691 187.913 93.8966L205.561 47.6526L208.59 46.1938Z" fill="white"/>
<path d="M206.327 45.3295L242.677 59.2017L245.573 65.9228L228.265 111.275L190.901 97.0157C188.829 96.2247 187.79 93.9035 188.58 91.831L206.327 45.3295Z" fill="#36FFFF"/>
<path d="M206.327 45.3295L242.875 59.2773L245.7 65.5893L228.265 111.275L190.901 97.0157C188.829 96.2247 187.79 93.9035 188.58 91.831L206.327 45.3295Z" stroke="black" stroke-width="0.5"/>
<path fill-rule="evenodd" clip-rule="evenodd" d="M206.117 74.4761C206.117 74.4761 202.687 73.1837 203.867 70.725C205.458 67.4077 204.138 66.4899 205.21 64.2544C206.121 62.3516 207.302 61.9167 208.779 61.766C210.254 61.6148 210.463 60.3728 213.397 60.21C216.331 60.0472 218.391 62.7683 220.508 63.3629C222.625 63.9575 223.308 66.0316 222.952 66.3369C222.599 66.6404 219.712 64.8684 217.488 67.027C215.697 68.7661 215.055 68.244 214.659 70.4722C213.899 74.737 212.639 75.573 210.706 74.8831C209.239 74.3602 206.117 74.4761 206.117 74.4761Z" fill="white" stroke="black" stroke-width="0.5" stroke-miterlimit="10" stroke-linejoin="round"/>
<path fill-rule="evenodd" clip-rule="evenodd" d="M207.244 75.9713C207.22 76.623 207.416 79.75 206.487 81.7681C205.49 83.9316 204.044 83.4299 204.052 87.0264C204.062 90.0401 205.663 91.145 207.609 91.902C210.588 93.0605 211.27 95.6002 213.719 96.7703C216.169 97.9405 220.575 99.4416 223.528 99.9811C226.949 100.606 230.313 96.1062 230.313 96.1062C230.313 96.1062 224.945 96.5405 219.713 93.3664C214.482 90.1923 213.679 87.8595 213.679 87.8595L212.905 85.9916C212.905 85.9916 209.558 84.1609 209.034 83.6067C208.509 83.0525 208.678 82.3093 209.525 81.1146C210.371 79.9199 209.482 78.7475 208.998 76.2598C208.89 75.6896 207.258 75.5597 207.244 75.9713Z" fill="white" stroke="black" stroke-width="0.5" stroke-miterlimit="10" stroke-linejoin="round"/>
<path fill-rule="evenodd" clip-rule="evenodd" d="M206.116 74.166C207.017 74.1273 209.218 74.0532 211.128 74.7212C213.908 75.697 214.266 70.3761 214.97 68.9089C215.613 67.5701 216.182 67.6907 216.822 67.0675C217.721 66.1948 217.839 65.6678 219.28 65.4307C221.056 65.1389 223.252 66.11 224.779 67.5402C226.307 68.9703 227.832 68.5784 229.02 68.6059C230.208 68.6333 232.16 69.9216 232.543 71.3512C232.927 72.7807 231.968 72.8772 232.24 74.5506C232.422 75.6663 232.115 76.2793 231.372 77.8299C230.628 79.3804 232.454 82.0616 231.82 83.5012C231.119 85.0943 230.429 84.5653 229.905 85.6621C229.379 86.7582 231.781 88.2148 231.067 91.6763C230.761 93.1577 226.804 92.6526 222.643 92.1871C220.302 91.9253 212.182 87.1177 212.627 85.764C213.029 84.5332 213.38 84.9829 213.404 83.5562C213.426 82.132 212.619 81.6964 212.673 80.1256C212.706 79.1488 213.595 77.9008 211.343 76.8464C209.091 75.792 207.244 76.1409 206.324 75.9353C205.96 75.8578 205.214 74.2048 206.116 74.166Z" fill="white" stroke="black" stroke-width="0.5" stroke-miterlimit="10" stroke-linejoin="round"/>
<path d="M221.376 67.3461C219.308 67.5835 218.481 68.8603 217.954 69.959C217.289 71.3454 218.099 72.9401 218.492 74.0551C219.006 75.5172 221.735 75.4792 222.842 74.7248C223.951 73.971 223.706 72.3577 224.556 70.4556C225.015 69.4253 224.047 67.0431 221.376 67.3461Z" fill="black" stroke="black" stroke-width="0.5" stroke-miterlimit="10"/>
<mask id="mask0_32092_134483" style="mask-type:luminance" maskUnits="userSpaceOnUse" x="224" y="79" width="6" height="8">
<path d="M226.152 86.3903C225.376 85.4992 224.015 83.1417 224.692 81.729C225.619 79.798 227.037 79.7683 228.18 80.1467C229.119 80.4581 230.491 81.2023 229.811 82.2497C229.132 83.2971 228.581 83.6201 228.834 85.3899C229.085 87.1567 226.927 87.2814 226.152 86.3903Z" fill="white"/>
</mask>
<g mask="url(#mask0_32092_134483)">
<path fill-rule="evenodd" clip-rule="evenodd" d="M228.489 79.6801C228.489 79.6801 229.108 81.7116 228.29 82.6657C227.472 83.6174 227.474 84.398 227.63 85.6937C227.784 86.9887 226.386 87.737 226.386 87.737L222.804 83.4648L224.866 79.349L228.489 79.6801Z" fill="black" stroke="black" stroke-width="0.5" stroke-miterlimit="10" stroke-linejoin="round"/>
</g>
<path d="M226.15 86.3902C225.374 85.4991 224.013 83.1415 224.69 81.7289C225.617 79.7979 227.035 79.7682 228.178 80.1466C229.117 80.458 230.489 81.2022 229.809 82.2496C229.13 83.2969 228.579 83.62 228.832 85.3898C229.083 87.1566 226.925 87.2813 226.15 86.3902Z" fill="black" stroke="black" stroke-width="0.5" stroke-miterlimit="10"/>
<path d="M227.078 71.4305C226.701 73.4132 226.447 74.2711 226.36 75.3118C226.181 77.4372 227.881 77.7839 228.712 78.1136C229.542 78.4433 230.232 78.421 230.612 77.0887C230.992 75.7589 230.115 75.3565 230.283 74.2907C230.45 73.2248 231.294 72.1786 230.054 71.0998C228.811 70.0203 227.514 69.1402 227.078 71.4305Z" fill="black" stroke="black" stroke-width="0.5" stroke-miterlimit="10"/>
<path fill-rule="evenodd" clip-rule="evenodd" d="M220.917 89.7761C220.597 90.535 220.12 93.92 220.525 94.077C220.931 94.234 222.786 92.3645 223.027 90.8775C223.27 89.3912 221.236 89.0196 220.917 89.7761Z" fill="white" stroke="black" stroke-width="0.5" stroke-miterlimit="10" stroke-linejoin="round"/>
<path fill-rule="evenodd" clip-rule="evenodd" d="M231.235 91.5608C232.038 91.9476 232.075 92.6436 231.9 93.2897C231.726 93.9465 229.419 93.3257 229.417 93.3307L229.285 91.7719C229.288 91.77 229.98 90.9576 231.235 91.5608Z" fill="white" stroke="black" stroke-width="0.5" stroke-miterlimit="10" stroke-linejoin="round"/>
<path fill-rule="evenodd" clip-rule="evenodd" d="M219.204 88.913C218.826 89.0423 218.332 89.8696 218.198 90.2782C217.934 91.0829 219.738 91.7033 219.986 91.1368C220.073 90.9375 220.546 89.9798 220.35 89.4624C220.181 89.0208 219.536 88.7987 219.204 88.913Z" fill="white" stroke="black" stroke-width="0.5" stroke-miterlimit="10" stroke-linejoin="round"/>
<path fill-rule="evenodd" clip-rule="evenodd" d="M218.056 88.185C217.717 87.9753 216.994 88.7721 216.724 89.1306C216.37 89.5989 217.916 90.4983 218.088 90.1367C218.26 89.7775 218.395 88.3972 218.056 88.185Z" fill="white" stroke="black" stroke-width="0.5" stroke-miterlimit="10" stroke-linejoin="round"/>
<path fill-rule="evenodd" clip-rule="evenodd" d="M216.447 87.3254C216.108 87.1157 215.519 87.7996 215.253 88.1619C214.99 88.5249 216.475 89.2815 216.65 88.9205C216.823 88.5588 216.786 87.5351 216.447 87.3254Z" fill="white" stroke="black" stroke-width="0.5" stroke-miterlimit="10" stroke-linejoin="round"/>
<path fill-rule="evenodd" clip-rule="evenodd" d="M215.032 85.8984C214.693 85.6887 213.679 86.5195 213.416 86.8824C213.152 87.2454 214.89 88.2086 215.064 87.8501C215.24 87.4891 215.374 86.1087 215.032 85.8984Z" fill="white" stroke="black" stroke-width="0.5" stroke-miterlimit="10" stroke-linejoin="round"/>
<path fill-rule="evenodd" clip-rule="evenodd" d="M218.149 91.7673C217.765 92.4887 217.527 93.2921 217.947 93.7642C218.957 94.9002 219.942 94.5813 220.208 93.266C220.576 91.4832 218.519 91.0766 218.149 91.7673Z" fill="white" stroke="black" stroke-width="0.5" stroke-miterlimit="10" stroke-linejoin="round"/>
<path fill-rule="evenodd" clip-rule="evenodd" d="M216.247 90.2353C215.818 90.9298 215.652 91.7351 216.044 92.2323C216.839 93.2399 217.692 92.3585 217.883 91.8816C218.398 90.615 216.551 89.7414 216.247 90.2353Z" fill="white" stroke="black" stroke-width="0.5" stroke-miterlimit="10" stroke-linejoin="round"/>
<path fill-rule="evenodd" clip-rule="evenodd" d="M208.995 76.2982C208.733 76.8077 209.659 78.3009 209.62 80.0565C209.591 81.3378 208.414 82.3197 208.694 83.2174C208.999 84.2015 212.639 86.0013 212.948 85.847C213.258 85.6927 213.896 84.5682 213.978 83.545C214.091 82.1515 212.757 81.0784 212.678 80.2733C212.602 79.4663 213.2 78.7874 212.789 77.8967C212.378 77.0141 209.258 75.7886 208.995 76.2982Z" fill="black" stroke="black" stroke-width="0.5" stroke-miterlimit="10" stroke-linejoin="round"/>
<path fill-rule="evenodd" clip-rule="evenodd" d="M229.221 94.1133C229.752 93.8756 231.784 93.9351 231.779 94.2853C231.774 94.7634 230.694 96.182 230.037 96.2657C229.226 96.3696 228.529 96.6645 228.291 95.8676C228.054 95.0708 228.689 94.3505 229.221 94.1133Z" fill="white" stroke="black" stroke-width="0.5" stroke-miterlimit="10" stroke-linejoin="round"/>
<path fill-rule="evenodd" clip-rule="evenodd" d="M214.698 88.8783C214.269 89.5728 214.339 90.4769 214.565 90.733C215.099 91.3373 215.852 90.3325 216.114 89.8918C216.435 89.3409 215.003 88.3819 214.698 88.8783Z" fill="white" stroke="black" stroke-width="0.5" stroke-miterlimit="10" stroke-linejoin="round"/>
<path fill-rule="evenodd" clip-rule="evenodd" d="M213.269 87.56C212.904 88.1348 212.793 88.794 213.008 89.0207C213.521 89.5561 214.306 88.9692 214.527 88.6062C214.802 88.1474 213.53 87.1514 213.269 87.56Z" fill="white" stroke="black" stroke-width="0.5" stroke-miterlimit="10" stroke-linejoin="round"/>
<path fill-rule="evenodd" clip-rule="evenodd" d="M229.456 91.2333C230.26 91.62 230.372 92.7052 230.201 93.3494C230.026 94.0061 227.748 92.9586 227.747 92.9636L226.981 91.6277C226.978 91.6295 228.201 90.6326 229.456 91.2333Z" fill="white" stroke="black" stroke-width="0.5" stroke-miterlimit="10" stroke-linejoin="round"/>
<path fill-rule="evenodd" clip-rule="evenodd" d="M228.03 90.7257C228.833 91.1124 228.952 92.5534 228.779 93.197C228.604 93.8537 226.15 92.8101 226.146 92.8145L225.551 91.1219C225.552 91.1194 226.775 90.1225 228.03 90.7257Z" fill="white" stroke="black" stroke-width="0.5" stroke-miterlimit="10" stroke-linejoin="round"/>
<path fill-rule="evenodd" clip-rule="evenodd" d="M226.389 90.2892C227.192 90.676 226.898 92.3653 226.752 93.0158C226.606 93.6662 224.081 92.3495 224.081 92.3495L223.802 90.5439C223.805 90.5446 225.136 89.6891 226.389 90.2892Z" fill="white" stroke="black" stroke-width="0.5" stroke-miterlimit="10" stroke-linejoin="round"/>
<path fill-rule="evenodd" clip-rule="evenodd" d="M229.22 94.114C229.75 93.8762 230.966 93.9851 230.962 94.3328C230.957 94.8109 230.437 95.7542 230.036 96.2638C229.53 96.9045 228.528 96.6626 228.291 95.8657C228.052 95.0714 228.687 94.3511 229.22 94.114Z" fill="white" stroke="black" stroke-width="0.5" stroke-miterlimit="10" stroke-linejoin="round"/>
<path fill-rule="evenodd" clip-rule="evenodd" d="M227.724 93.7454C228.254 93.5076 229.821 93.7547 229.717 94.1733C229.54 94.8934 228.986 96.0253 228.585 96.5349C228.079 97.1755 226.68 96.4778 226.442 95.6834C226.207 94.8872 227.193 93.9831 227.724 93.7454Z" fill="white" stroke="black" stroke-width="0.5" stroke-miterlimit="10" stroke-linejoin="round"/>
<path fill-rule="evenodd" clip-rule="evenodd" d="M224.769 93.1197C224.418 93.8524 224.37 96.1995 224.825 96.4912C225.929 97.1979 227.619 94.5177 227.94 93.8496C228.032 93.6516 225.022 92.5945 224.769 93.1197Z" fill="white" stroke="black" stroke-width="0.5" stroke-miterlimit="10" stroke-linejoin="round"/>
<path fill-rule="evenodd" clip-rule="evenodd" d="M221.028 95.1341C221.413 94.0374 223.413 90.1697 223.8 90.3675C224.188 90.5653 224.913 94.2289 224.077 96.3979C223.533 97.8011 220.672 96.1425 221.028 95.1341Z" fill="white" stroke="black" stroke-width="0.5" stroke-miterlimit="10" stroke-linejoin="round"/>
<path d="M256.04 97.5338C256.04 97.5338 255.408 98.628 254.426 100.329C251.763 104.942 256.421 112.617 264.832 117.474C273.244 122.33 282.22 122.526 284.883 117.913L286.497 115.118L256.04 97.5338Z" fill="#17171A" stroke="white" stroke-width="0.5"/>
<g style="mix-blend-mode:multiply">
<path fill-rule="evenodd" clip-rule="evenodd" d="M274.921 121.079L276.348 118.608L265.999 103.286L286.496 115.12L284.882 117.915C283.303 120.65 279.505 121.694 274.921 121.079Z" fill="white"/>
<path d="M274.921 121.079L274.705 120.954L274.518 121.278L274.888 121.327L274.921 121.079ZM276.348 118.608L276.565 118.733L276.643 118.598L276.555 118.468L276.348 118.608ZM265.999 103.286L266.124 103.069L265.791 103.426L265.999 103.286ZM286.496 115.12L286.712 115.245L286.837 115.028L286.621 114.903L286.496 115.12ZM284.882 117.915L284.665 117.79L284.882 117.915ZM275.138 121.204L276.565 118.733L276.132 118.483L274.705 120.954L275.138 121.204ZM276.555 118.468L266.206 103.146L265.791 103.426L276.141 118.748L276.555 118.468ZM286.621 114.903L266.124 103.069L265.874 103.502L286.371 115.336L286.621 114.903ZM285.099 118.04L286.712 115.245L286.279 114.995L284.665 117.79L285.099 118.04ZM274.888 121.327C279.501 121.946 283.441 120.911 285.099 118.04L284.665 117.79C283.165 120.388 279.509 121.443 274.954 120.832L274.888 121.327Z" fill="white"/>
</g>
<path d="M266.246 115.024C274.656 119.88 283.633 120.077 286.297 115.464C288.96 110.851 284.301 103.175 275.891 98.3189C267.48 93.4631 258.503 93.2663 255.84 97.8793C253.176 102.492 257.835 110.168 266.246 115.024Z" fill="#17171A" stroke="white" stroke-width="0.5"/>
<path d="M280.279 108.93C280.331 109.029 280.36 109.123 280.351 109.211L280.106 112.479C280.09 112.648 279.942 112.756 279.722 112.753L275.53 112.718C275.31 112.715 275.042 112.607 274.832 112.431L270.888 109.122C270.786 109.035 270.701 108.934 270.649 108.835C270.597 108.736 270.568 108.642 270.571 108.551L270.663 107.32L272.634 107.34L272.523 108.849L275.29 111.171L278.229 111.195L278.407 108.901L275.689 106.624L275.632 106.591L268.145 106.515C267.919 106.509 267.657 106.405 267.446 106.229L263.503 102.919C263.401 102.833 263.316 102.732 263.26 102.639C263.205 102.547 263.179 102.446 263.189 102.358L263.433 99.0905C263.449 98.921 263.598 98.8135 263.818 98.8162L268.01 98.8517C268.229 98.8543 268.497 98.9622 268.708 99.1382L272.651 102.448C272.753 102.534 272.835 102.625 272.89 102.734C272.944 102.843 272.971 102.927 272.965 103.009L272.87 104.246L270.899 104.225L271.021 102.715L268.253 100.392L265.308 100.364L265.136 102.662L267.897 104.981L275.399 105.048C275.618 105.05 275.886 105.158 276.097 105.334L280.034 108.64C280.136 108.726 280.221 108.828 280.276 108.92L280.279 108.93Z" fill="white"/>
</svg>
