<svg width="335" height="272" viewBox="0 0 335 272" fill="none" xmlns="http://www.w3.org/2000/svg">
<mask id="mask0_32092_134399" style="mask-type:luminance" maskUnits="userSpaceOnUse" x="81" y="105" width="213" height="156">
<path d="M158.663 124.598C215.254 96.4996 273.552 100.179 289.594 132.488C305.636 164.797 273.309 213.426 216.719 241.524C160.128 269.622 101.793 265.961 85.7697 233.69C69.7465 201.419 102.035 152.715 158.663 124.598Z" fill="white"/>
</mask>
<g mask="url(#mask0_32092_134399)">
<path d="M113.407 155.61C160.402 162.127 199.554 229.719 199.554 229.719" stroke="white" stroke-width="0.5" stroke-linecap="round" stroke-linejoin="round"/>
<path d="M209.815 107.742C188.495 148.215 218.865 220.131 218.865 220.131" stroke="white" stroke-width="0.5" stroke-linecap="round" stroke-linejoin="round"/>
<path d="M82.1455 209.963C147.815 196.835 191.286 246.682 191.286 246.682" stroke="white" stroke-width="0.5" stroke-linecap="round" stroke-linejoin="round"/>
<path d="M94.3018 257.127C146.64 231.14 195.735 252.588 195.735 252.588" stroke="white" stroke-width="0.5" stroke-linecap="round" stroke-linejoin="round"/>
<path d="M302.408 153.799C250.07 179.786 237.481 231.861 237.481 231.861" stroke="white" stroke-width="0.5" stroke-linecap="round" stroke-linejoin="round"/>
<path d="M272.32 115.538C222.197 159.903 235.601 224.679 235.601 224.679" stroke="white" stroke-width="0.5" stroke-linecap="round" stroke-linejoin="round"/>
<path d="M182.279 173.116C218.942 154.912 256.292 155.521 265.693 174.453C275.093 193.386 253.001 223.509 216.338 241.713C179.674 259.916 142.379 259.323 132.962 240.357C123.544 221.39 145.84 191.208 182.279 173.116Z" stroke="white" stroke-width="0.5" stroke-linejoin="round"/>
<path d="M195.277 198.639C219 186.86 243.194 187.305 249.308 199.619C255.422 211.933 241.153 231.475 217.43 243.254C193.706 255.033 169.548 254.598 163.423 242.262C157.298 229.926 171.7 210.345 195.277 198.639Z" stroke="white" stroke-width="0.5" stroke-linejoin="round"/>
<path d="M169.739 147.361C217.186 123.803 266.131 125.817 279.047 151.83C291.962 177.843 263.982 218.053 216.536 241.611C169.089 265.169 120.217 263.177 107.277 237.117C94.338 211.056 122.584 170.774 169.739 147.361Z" stroke="white" stroke-width="0.5" stroke-linejoin="round"/>
<path d="M206.553 221.677C219.884 215.058 233.719 215.771 237.467 223.319C241.215 230.867 233.42 242.321 220.089 248.94C206.758 255.559 192.942 254.789 189.213 247.278C185.484 239.768 193.259 228.277 206.553 221.677Z" fill="white" stroke="white" stroke-width="0.5" stroke-linejoin="round"/>
</g>
<path d="M158.74 124.558C215.03 96.6088 273.655 99.9954 289.633 132.176C305.611 164.356 272.854 213.069 216.564 241.018C160.274 268.967 101.611 265.598 85.6519 233.456C69.6927 201.313 102.412 152.525 158.74 124.558Z" stroke="white" stroke-width="0.5" stroke-linejoin="round"/>
<path d="M104.271 127.632C106.687 126.696 175.203 100.155 175.203 100.155L238.685 149.278L145.792 185.262L102.842 130.191C102.842 130.191 102.401 128.357 104.271 127.632Z" fill="white" stroke="white" stroke-width="0.5"/>
<path d="M159.461 107.156C159.614 103.072 162.182 99.4703 165.993 97.994L244.548 67.564C247.944 66.2485 251.589 68.8006 251.514 72.4418L250.299 131.592C250.086 141.964 243.631 151.182 233.957 154.929L152.69 186.41L156.774 178.907L159.461 107.156Z" fill="#17171A" stroke="white" stroke-width="0.5"/>
<path d="M169.382 109.161C169.428 106.927 170.818 104.941 172.902 104.134L193.072 96.3205C194.902 95.6119 196.865 96.9867 196.824 98.9481L195.892 144.023C195.846 146.257 194.456 148.243 192.372 149.05L172.202 156.863C170.372 157.572 168.409 156.197 168.45 154.236L169.382 109.161Z" fill="#36FFFF" stroke="white" stroke-width="0.5"/>
<path fill-rule="evenodd" clip-rule="evenodd" d="M196.703 104.779L187.086 125.377L178.66 120.777L168.727 140.807L169.381 109.161C169.427 106.926 170.818 104.941 172.902 104.134L193.072 96.3204C194.901 95.6118 196.864 96.9867 196.824 98.948L196.703 104.779Z" fill="#A878FF"/>
<path d="M196.703 104.779L196.93 104.885L196.952 104.837L196.953 104.784L196.703 104.779ZM187.086 125.377L186.966 125.597L187.199 125.724L187.312 125.483L187.086 125.377ZM178.66 120.777L178.78 120.557L178.552 120.433L178.436 120.666L178.66 120.777ZM168.727 140.807L168.477 140.802L168.951 140.918L168.727 140.807ZM169.381 109.161L169.631 109.166L169.381 109.161ZM172.902 104.134L172.992 104.367L172.902 104.134ZM193.072 96.3204L193.162 96.5536L193.072 96.3204ZM196.824 98.948L197.074 98.9532L196.824 98.948ZM196.477 104.673L186.859 125.271L187.312 125.483L196.93 104.885L196.477 104.673ZM187.205 125.158L178.78 120.557L178.54 120.996L186.966 125.597L187.205 125.158ZM178.436 120.666L168.503 140.696L168.951 140.918L178.884 120.888L178.436 120.666ZM168.977 140.812L169.631 109.166L169.131 109.156L168.477 140.802L168.977 140.812ZM169.631 109.166C169.675 107.033 171.003 105.137 172.992 104.367L172.811 103.901C170.633 104.744 169.179 106.82 169.131 109.156L169.631 109.166ZM172.992 104.367L193.162 96.5536L192.981 96.0873L172.811 103.901L172.992 104.367ZM193.162 96.5536C194.825 95.9092 196.611 97.1594 196.574 98.9429L197.074 98.9532C197.118 96.814 194.977 95.3144 192.981 96.0873L193.162 96.5536ZM196.574 98.9429L196.453 104.774L196.953 104.784L197.074 98.9532L196.574 98.9429Z" fill="white"/>
<path fill-rule="evenodd" clip-rule="evenodd" d="M169.019 155.974C169.728 156.891 170.994 157.331 172.201 156.863L192.371 149.05C194.455 148.243 195.846 146.257 195.892 144.023L196.824 98.9482C196.851 97.6448 195.993 96.6003 194.877 96.2543C195.243 96.7267 195.46 97.3257 195.447 97.9925L194.515 143.067C194.468 145.302 193.078 147.287 190.994 148.094L170.824 155.908C170.21 156.145 169.582 156.149 169.019 155.974Z" fill="white"/>
<path d="M172.201 156.863L172.111 156.63L172.201 156.863ZM169.019 155.974L169.093 155.735L168.336 155.501L168.821 156.127L169.019 155.974ZM192.371 149.05L192.461 149.283L192.371 149.05ZM195.892 144.023L195.642 144.018L195.892 144.023ZM196.824 98.9482L197.074 98.9534L196.824 98.9482ZM194.877 96.2543L194.951 96.0155L194.195 95.781L194.679 96.4073L194.877 96.2543ZM195.447 97.9925L195.696 97.9977L195.696 97.9977L195.447 97.9925ZM194.515 143.067L194.265 143.062L194.515 143.067ZM190.994 148.094L191.084 148.328L190.994 148.094ZM170.824 155.908L170.734 155.675L170.824 155.908ZM172.111 156.63C171.014 157.055 169.863 156.657 169.216 155.821L168.821 156.127C169.593 157.125 170.974 157.607 172.291 157.097L172.111 156.63ZM192.281 148.817L172.111 156.63L172.291 157.097L192.461 149.283L192.281 148.817ZM195.642 144.018C195.598 146.151 194.27 148.046 192.281 148.817L192.461 149.283C194.64 148.439 196.094 146.364 196.142 144.028L195.642 144.018ZM196.574 98.9431L195.642 144.018L196.142 144.028L197.074 98.9534L196.574 98.9431ZM194.803 96.4931C195.82 96.8085 196.598 97.7588 196.574 98.9431L197.074 98.9534C197.103 97.5307 196.166 96.3922 194.951 96.0155L194.803 96.4931ZM194.679 96.4073C195.011 96.8362 195.209 97.3798 195.197 97.9873L195.696 97.9977C195.711 97.2717 195.474 96.6173 195.075 96.1014L194.679 96.4073ZM195.197 97.9873L194.265 143.062L194.765 143.072L195.696 97.9977L195.197 97.9873ZM194.265 143.062C194.221 145.195 192.893 147.091 190.904 147.861L191.084 148.328C193.263 147.484 194.716 145.408 194.765 143.072L194.265 143.062ZM190.904 147.861L170.734 155.675L170.914 156.141L191.084 148.328L190.904 147.861ZM170.734 155.675C170.175 155.891 169.604 155.894 169.093 155.735L168.945 156.213C169.56 156.404 170.246 156.4 170.914 156.141L170.734 155.675Z" fill="white"/>
<path d="M143.235 183.854L104.057 135.643C102.731 134.012 102.231 131.86 102.702 129.811L102.98 128.598C102.966 129.914 103.804 130.764 104.558 131.657C105.197 132.412 135.31 169.634 144.567 181.077C146.167 183.054 148.854 183.765 151.225 182.846C153.438 181.989 154.914 179.881 154.962 177.508L156.426 105.64C156.51 101.49 159.092 97.8022 162.963 96.303L243.334 65.1696C245.024 64.5147 246.903 64.5388 248.576 65.2368L249.766 65.7333L166.167 98.1172C162.3 99.6151 159.719 103.298 159.63 107.444L158.108 178.751C158.035 182.143 155.924 185.157 152.76 186.382C149.373 187.694 145.526 186.673 143.235 183.854Z" fill="#17171A" stroke="white" stroke-width="0.5" stroke-linejoin="round"/>
<path d="M247.91 64.9856L248.723 65.3161C250.52 66.0469 251.681 67.81 251.642 69.7496L250.16 142.885L246.438 140.264L247.91 64.9856Z" fill="#36FFFF"/>
<path fill-rule="evenodd" clip-rule="evenodd" d="M161.951 101.171L158.704 99.4013C159.804 98.045 161.256 96.9646 162.955 96.3063L206.085 79.5991L209.362 81.3851L166.167 98.1175C164.485 98.769 163.047 99.834 161.951 101.171Z" fill="white"/>
<path d="M202.932 65.0999C201.629 63.8798 200.983 62.1125 201.193 60.3394L216.039 56.0839C218.606 55.3481 221.37 55.9989 223.339 57.8023L237.262 70.553L217.102 78.3622L202.932 65.0999Z" fill="#A878FF" stroke="white" stroke-width="0.5"/>
<path d="M206.877 66.6456C203.101 63.1073 204.318 56.8393 209.143 54.97L211.361 54.1108C216.403 52.1579 222.115 53.2694 226.058 56.9687C230.691 61.3155 236.267 66.541 237.134 67.326C238.656 68.7026 238.072 70.2396 238.072 70.2396L217.216 78.3184C217.216 78.3184 217.844 76.8954 216.249 75.4163C215.451 74.6761 211.062 70.5666 206.877 66.6456Z" fill="#17171A" stroke="white" stroke-width="0.5"/>
<ellipse cx="5.71409" cy="5.28252" rx="5.71409" ry="5.28252" transform="matrix(0.932482 -0.361216 0.700394 0.713757 207.079 58.9153)" fill="#17171A" stroke="white" stroke-width="0.5"/>
<ellipse cx="2.20699" cy="2.0403" rx="2.20699" ry="2.0403" transform="matrix(0.932482 -0.361216 0.700394 0.713757 212.619 59.9626)" fill="white" stroke="white" stroke-width="0.5"/>
<path d="M239.588 193.997L213.924 224.955C213.924 224.955 211.93 223.155 210.949 222.292C204.714 216.807 205.401 205.417 212.484 196.851C219.567 188.286 230.364 185.788 236.599 191.273C238.268 192.742 239.588 193.997 239.588 193.997Z" fill="#36FFFF" stroke="white" stroke-width="0.5"/>
<path fill-rule="evenodd" clip-rule="evenodd" d="M216.126 193.221L228.914 206.873L213.924 224.955C213.924 224.955 211.929 223.155 210.949 222.292C204.714 216.807 205.401 205.417 212.484 196.851C213.615 195.484 214.84 194.272 216.126 193.221Z" fill="white"/>
<ellipse cx="15.0363" cy="20.125" rx="15.0363" ry="20.125" transform="matrix(0.750818 0.66051 -0.637259 0.77065 227.976 183.74)" fill="#17171A" stroke="white" stroke-width="0.5"/>
<ellipse cx="15.0363" cy="20.125" rx="15.0363" ry="20.125" transform="matrix(0.750818 0.66051 -0.637259 0.77065 227.976 183.74)" stroke="white" stroke-width="0.5"/>
<path d="M232.213 210.385L230.946 201.367L222.476 208.668L225.984 212.609L232.213 210.385Z" fill="white"/>
<path d="M222.019 209.705L223.286 218.724L231.756 211.422L225.491 213.727L222.019 209.705Z" fill="white"/>
<path d="M133.738 208.663L156.689 218.843C156.689 218.843 155.945 220.347 155.593 221.082C153.352 225.758 146.391 227.274 140.044 224.468C133.696 221.662 130.367 215.597 132.607 210.921C133.208 209.668 133.738 208.663 133.738 208.663Z" fill="#36FFFF" stroke="white" stroke-width="0.5"/>
<path fill-rule="evenodd" clip-rule="evenodd" d="M137.246 222.894L143.284 212.897L156.69 218.843C156.69 218.843 155.946 220.347 155.593 221.082C153.353 225.758 146.391 227.274 140.044 224.468C139.031 224.02 138.095 223.489 137.246 222.894Z" fill="white"/>
<ellipse cx="9.38838" cy="12.5657" rx="9.38838" ry="12.5657" transform="matrix(0.432096 -0.901828 0.91461 0.404337 129.541 217.379)" fill="#17171A" stroke="white" stroke-width="0.5"/>
<ellipse cx="9.38838" cy="12.5657" rx="9.38838" ry="12.5657" transform="matrix(0.432096 -0.901828 0.91461 0.404337 129.541 217.379)" stroke="white" stroke-width="0.5"/>
<path d="M141.214 90.0848C162.739 90.0848 180.189 72.6351 180.189 51.1098C180.189 29.5846 162.739 12.1349 141.214 12.1349C119.689 12.1349 102.239 29.5846 102.239 51.1098C102.239 72.6351 119.689 90.0848 141.214 90.0848Z" fill="#17171A" stroke="white" stroke-width="0.5"/>
<path d="M141.214 90.0849C162.739 90.0849 180.189 72.6353 180.189 51.11C160.515 51.11 161.521 78.7364 137.621 78.7364C113.722 78.7364 102.239 65.208 102.239 51.11C102.239 72.6353 119.689 90.0849 141.214 90.0849Z" fill="#36FFFF"/>
<path fill-rule="evenodd" clip-rule="evenodd" d="M129.166 50.0091L138.814 52.5798L130.786 38.5943L144.849 30.4948L148.662 28.3539L138.648 25.6857L122.474 35.1246C121.658 35.6001 121.382 36.6479 121.858 37.464L129.166 50.0091ZM137.905 40.5199L137.831 40.5002L137.905 40.5189L137.905 40.5199ZM137.905 40.5199L145.932 54.5044L131.869 62.6039L128.056 64.7447L138.07 67.413L154.244 57.9749C155.06 57.4994 155.336 56.4516 154.861 55.6355L147.552 43.0904L137.905 40.5199Z" fill="white"/>
<path d="M101.966 118.565L80.4788 128.572L88.742 138.332L106.787 126.35L115.663 130.91L114.603 143.391C114.538 144.156 114.727 144.92 115.142 145.566C116.762 148.085 120.598 147.515 121.413 144.632L125.377 130.626C125.949 128.607 125.204 126.445 123.51 125.206L116.354 119.975C112.173 116.919 106.66 116.379 101.966 118.565Z" fill="#A878FF" stroke="white" stroke-width="0.5" stroke-linejoin="round"/>
<path d="M102.801 118.014L80.0957 129.632L91.7632 137.136L110.884 125.635L122.268 129.833L125.673 143.289C125.869 144.061 126.301 144.752 126.908 145.267C129.414 147.39 133.254 145.572 133.2 142.288L132.955 127.265C132.922 125.222 131.722 123.38 129.868 122.523L119.388 117.681C114.102 115.238 107.985 115.361 102.801 118.014Z" fill="#17171A" stroke="white" stroke-width="0.5" stroke-linejoin="round"/>
<path d="M106.313 112.736L80.7047 129.9L90.3553 140.518L105.522 127.264C109.612 123.691 114.964 121.909 120.379 122.318L124.289 122.613C125.763 122.725 127.169 123.273 128.329 124.189L138.473 132.197C139.661 133.134 141.278 133.315 142.643 132.664C145.03 131.526 145.658 128.416 143.9 126.441L133.186 114.402C132.229 113.326 130.939 112.603 129.523 112.348L118.061 110.281C113.975 109.544 109.762 110.424 106.313 112.736Z" fill="#17171A" stroke="white" stroke-width="0.5" stroke-linejoin="round"/>
<path d="M117.687 97.5103L117.553 97.299L117.518 97.3212L117.492 97.3535C114.815 100.678 112.437 103.004 109.96 105.426C108.748 106.611 107.513 107.819 106.208 109.178L106.167 109.221L106.15 109.277C104.44 114.757 100.343 122.772 96.8787 128.79C95.9505 130.402 96.259 132.001 97.2027 133.678C98.021 135.132 99.3421 136.691 100.815 138.429C101.027 138.679 101.242 138.933 101.459 139.191C104.93 143.309 109.018 148.52 109.91 156.006C111.701 171.015 102.984 181.617 96.9045 187.047L96.8699 187.078L96.8487 187.119C94.6599 191.379 93.6894 193.25 92.721 195.117L92.7182 195.122C91.7506 196.988 90.7839 198.851 88.6055 203.091C87.4452 205.349 84.581 206.533 80.7721 206.535C76.9778 206.536 72.3222 205.359 67.7132 202.991C63.1061 200.624 59.2131 197.33 56.7799 194.047C55.5633 192.405 54.7183 190.775 54.3262 189.272C53.9343 187.77 53.9981 186.411 54.5748 185.289C55.6248 183.245 56.6617 182.107 57.8366 180.818C58.0128 180.625 58.192 180.428 58.3749 180.224C59.783 178.656 61.373 176.706 63.3322 172.79L63.3323 172.79L63.3359 172.782L63.1086 172.678C63.3359 172.782 63.3359 172.782 63.336 172.782L63.3364 172.781L63.3378 172.778L63.3435 172.766L63.3658 172.717C63.3854 172.674 63.4146 172.61 63.4528 172.525C63.5292 172.357 63.6416 172.107 63.7857 171.784C64.0739 171.139 64.4891 170.199 64.9971 169.022C66.0131 166.667 67.4006 163.364 68.887 159.566C71.8583 151.974 75.2303 142.393 76.8146 134.47C77.4878 131.103 78.6465 129.142 79.9554 127.588C80.5218 126.916 81.1163 126.32 81.7215 125.714C81.8206 125.614 81.9201 125.514 82.0198 125.414C82.7249 124.704 83.4359 123.965 84.102 123.076C89.0652 116.459 91.9399 111.386 93.8265 108.057C94.5045 106.86 95.055 105.889 95.5289 105.152C96.9978 102.868 98.202 101.878 99.2385 101.027C99.4655 100.84 99.6844 100.66 99.8963 100.475L99.8964 100.475L99.9022 100.469L111.275 89.8591C111.428 89.7261 111.594 89.6095 111.771 89.5114C111.771 89.511 111.772 89.5106 111.773 89.5102L126.872 81.5458L126.877 81.5433C128.123 80.8534 129.086 80.8237 129.763 81.1485C130.443 81.4748 130.909 82.194 131.085 83.159C131.436 85.0919 130.587 87.8776 128.192 89.779C125.736 91.7278 123.077 93.6079 121.03 95.0015C120.007 95.6981 119.137 96.2727 118.524 96.6731C118.217 96.8733 117.974 97.0299 117.808 97.1364C117.765 97.1643 117.726 97.1887 117.694 97.2096C117.664 97.2286 117.639 97.2447 117.618 97.2577L117.57 97.2887L117.557 97.2965L117.554 97.2984L117.554 97.2989L117.553 97.299L117.687 97.5103Z" fill="#17171A" stroke="white" stroke-width="0.5"/>
<path d="M76.4251 164.735C76.4251 164.735 70.6469 150.717 88.4171 137.539C101.051 128.17 112.685 117.301 118.355 111.8C120.394 109.821 123.639 109.757 125.72 111.691C127.666 113.5 127.951 116.478 126.382 118.622L108.057 143.667C112.199 161.318 94.4256 176.626 94.4256 176.626L76.4251 164.735Z" fill="#17171A"/>
<path d="M94.4255 176.627C94.4255 176.627 112.199 161.319 108.057 143.668L126.382 118.623C127.951 116.479 127.666 113.501 125.72 111.692V111.692C123.639 109.758 120.394 109.822 118.355 111.801C112.685 117.302 101.051 128.171 88.417 137.54" stroke="white" stroke-width="0.5" stroke-linecap="round" stroke-linejoin="round"/>
<g style="mix-blend-mode:lighten">
<path d="M101.384 145.151C100.629 138.603 125.778 120.684 126.662 113.451C131.666 113.861 133.869 127.948 141.025 132.863C140.344 134.364 137.397 131.186 132.957 128.071C129.62 131.1 132.408 142.716 127.719 145.478C125.826 146.351 123.821 137.186 122.213 129.824C122.213 129.824 120.53 128.813 119.163 128.997C117.111 130.069 112.65 138.069 108.138 143.625C108.873 149.094 110.188 155.367 110.248 155.868C112.052 170.997 103.174 181.783 97.0705 187.234C92.6926 195.754 93.1877 194.719 88.8272 203.206C86.3767 207.975 72.3798 207.819 63.255 199.766C68.3751 194.129 74.1602 186.547 79.7531 178.681C93.5066 176.832 102.609 155.784 101.384 145.151Z" fill="#A878FF"/>
</g>
<path d="M31.377 144.591C31.377 144.591 32.6411 143.083 34.6062 140.739C39.9352 134.382 53.6507 137.103 65.2431 146.821C76.8355 156.539 81.9095 169.569 76.5805 175.926L73.3513 179.778L31.377 144.591Z" fill="#A878FF" stroke="white" stroke-width="0.5"/>
<g style="mix-blend-mode:multiply">
<path fill-rule="evenodd" clip-rule="evenodd" d="M75.9006 159.664L73.045 163.07L45.1074 156.099L73.3531 179.778L76.5824 175.925C79.7416 172.157 79.2446 166.043 75.9006 159.664Z" fill="white"/>
<path d="M75.9006 159.664L75.709 159.503L75.9487 159.217L76.122 159.548L75.9006 159.664ZM73.045 163.07L73.2366 163.231L73.1362 163.351L72.9845 163.313L73.045 163.07ZM45.1074 156.099L44.9468 156.291L45.1679 155.857L45.1074 156.099ZM73.3531 179.778L73.5447 179.938L73.3841 180.13L73.1925 179.969L73.3531 179.778ZM76.5824 175.925L76.3908 175.765L76.5824 175.925ZM76.0922 159.824L73.2366 163.231L72.8534 162.91L75.709 159.503L76.0922 159.824ZM72.9845 163.313L45.0469 156.342L45.1679 155.857L73.1055 162.828L72.9845 163.313ZM73.1925 179.969L44.9468 156.291L45.268 155.908L73.5137 179.586L73.1925 179.969ZM76.7739 176.086L73.5447 179.938L73.1615 179.617L76.3908 175.765L76.7739 176.086ZM76.122 159.548C79.4798 165.953 80.0345 172.197 76.7739 176.086L76.3908 175.765C79.4488 172.117 79.0093 166.132 75.6792 159.78L76.122 159.548Z" fill="white"/>
</g>
<path d="M62.4166 150.199C74.0075 159.916 79.0834 172.946 73.754 179.304C68.4246 185.661 54.7079 182.938 43.117 173.221C31.5262 163.505 26.4502 150.474 31.7796 144.117C37.1091 137.759 50.8257 140.482 62.4166 150.199Z" fill="#17171A" stroke="white" stroke-width="0.5"/>
<g clip-path="url(#clip0_32092_134399)">
<path d="M54.9713 157.916C54.5819 156.911 53.9145 155.967 53.0384 155.202C50.7514 153.199 47.6609 152.923 45.99 154.514L43.7583 152.552L42.378 154.139L44.6008 156.094L43.886 156.907L41.6645 154.953L40.2842 156.541L42.4968 158.486L40.9231 160.276L43.5718 162.605L44.7808 161.23L54.1488 169.469L52.9398 170.844L55.6012 173.184L57.1749 171.395L59.3938 173.346L60.783 171.767L58.5641 169.815L59.2789 169.003L61.4978 170.954L62.887 169.374L60.6681 167.423C60.6681 167.423 60.6887 167.4 61.2464 166.765C62.8974 164.888 62.3978 161.859 59.8333 159.603C58.3859 158.33 56.5693 157.714 54.9713 157.916ZM58.9046 163.048C59.0101 163.579 58.8918 164.073 58.585 164.425L55.9027 167.475L52.5475 164.524L55.2298 161.474C55.869 160.752 57.1299 160.823 58.0511 161.63C58.4936 162.019 58.8015 162.525 58.9046 163.048ZM51.7901 160.024L49.8886 162.186L46.5334 159.235L48.4349 157.073C49.0741 156.351 50.335 156.422 51.2562 157.229C52.1824 158.04 52.4216 159.3 51.7901 160.024Z" fill="white"/>
</g>
<defs>
<clipPath id="clip0_32092_134399">
<rect width="12.9933" height="25.4737" fill="white" transform="translate(39.6924 158.575) rotate(-48.6702)"/>
</clipPath>
</defs>
</svg>
