<svg width="240" height="120" viewBox="0 0 240 120" fill="none" xmlns="http://www.w3.org/2000/svg">
<rect x="0.5" y="0.5" width="239" height="119" fill="#17171A"/>
<path d="M62.8524 70.9185C59.5116 72.3648 56.0139 72.3761 52.6116 71.1721C49.1528 69.9493 46.3958 66.9575 45.2156 63.4761C44.3305 60.866 44.5502 58.3476 45.3952 55.7601C46.3569 52.816 48.2438 50.4808 50.977 49.0835C54.0403 47.5167 57.6221 47.1413 60.909 48.2574C61.268 48.3792 61.7777 48.4394 62.0527 48.2511C63.4956 47.2626 64.9394 46.2767 66.384 45.2932C66.6284 45.1267 66.8364 44.9702 67.008 44.8237C67.1151 44.7325 67.108 44.6513 66.9867 44.5801C64.1179 42.884 60.9692 41.9587 57.6673 42.0014C53.2682 42.0579 49.3147 43.3134 45.8785 46.0729C42.6219 48.6884 40.4993 51.9581 39.5108 55.8818C38.0281 61.7687 39.8284 68.1979 44.1937 72.4201C48.1241 76.2216 52.8673 77.9805 58.4231 77.6968C61.1852 77.5562 64.0087 76.7401 66.3652 75.3779C66.5347 75.2813 66.5121 75.0101 66.4016 74.8544C65.527 73.6216 64.649 72.3883 63.7676 71.1546C63.5375 70.8332 63.2324 70.7545 62.8524 70.9185Z" fill="#9D9DA6"/>
<path d="M73.1622 50.6201C72.1127 48.9667 70.6827 47.4099 69.259 46.2361C69.2213 46.2059 69.1803 46.1997 69.136 46.2172C68.6898 46.3905 68.2676 46.6114 67.8692 46.8801C64.0392 49.4614 60.2134 52.0493 56.3917 54.6439C55.8519 55.0105 55.3623 55.4349 55.8494 56.1316C56.8219 57.5244 57.8071 58.9096 58.8047 60.2872C58.829 60.3215 58.8617 60.3446 58.9027 60.3563C59.1102 60.4149 59.3073 60.381 59.494 60.2546C64.0321 57.2013 68.561 54.1338 73.0806 51.052C73.2455 50.939 73.2727 50.7951 73.1622 50.6201Z" fill="#9D9DA6"/>
<path d="M103.661 64.7325C99.2722 68.7036 91.1933 67.5925 90.2429 60.8971C90.1098 59.958 90.1441 59.0545 90.3458 58.1865C91.6289 52.6763 97.915 51.4409 102.293 53.9858C102.76 54.2569 103.244 54.6863 103.704 55.0454C103.743 55.0763 103.777 55.0717 103.806 55.0316L106.809 50.8546C106.831 50.8237 106.828 50.7965 106.797 50.773C104.369 48.8421 101.943 47.6507 98.8127 47.4071C95.2434 47.1284 91.4896 47.9947 88.6547 50.1189C81.5187 55.4672 82.4577 66.45 90.204 70.6094C91.7348 71.4313 93.4435 71.9732 95.33 72.2352C99.6329 72.8336 103.43 71.7682 106.721 69.0388C106.735 69.0271 106.737 69.0137 106.726 68.9986L103.742 64.7426C103.718 64.7091 103.691 64.7058 103.661 64.7325Z" fill="#9D9DA6"/>
<path d="M126.079 62.3564C126.064 67.7624 118.554 68.6789 117.181 63.7098C117.027 63.1486 116.986 62.4631 116.986 61.8793C116.988 57.2357 116.988 52.5905 116.986 47.9436C116.986 47.9018 116.964 47.8809 116.922 47.8809H111.497C111.455 47.8809 111.434 47.9018 111.434 47.9436C111.429 52.4734 111.429 57.0031 111.435 61.5328C111.436 62.9753 111.509 64.1379 111.872 65.3632C113.085 69.451 116.632 71.9506 120.849 72.1126C122.533 72.1766 124.127 72.0322 125.677 71.3945C129.195 69.9482 131.554 66.7555 131.627 62.7707C131.717 57.8267 131.68 52.8789 131.674 47.9386C131.674 47.9233 131.668 47.9086 131.657 47.8978C131.646 47.8869 131.631 47.8809 131.615 47.8809H126.179C126.117 47.8809 126.085 47.9122 126.085 47.975C126.094 52.7734 126.092 57.5672 126.079 62.3564Z" fill="#9D9DA6"/>
<path d="M169.718 59.7764C169.714 59.7836 169.709 59.7897 169.702 59.794C169.696 59.7983 169.688 59.8006 169.68 59.8006C169.672 59.8006 169.664 59.7983 169.658 59.794C169.651 59.7897 169.646 59.7836 169.642 59.7764L164.234 47.9047C164.23 47.8976 164.225 47.8915 164.218 47.8873C164.212 47.8831 164.204 47.8808 164.196 47.8809H158.103C158.096 47.881 158.09 47.8829 158.084 47.8864C158.078 47.8898 158.073 47.8947 158.069 47.9005C158.066 47.9064 158.063 47.913 158.063 47.9199C158.063 47.9268 158.064 47.9336 158.067 47.9399L169.644 72.0712C169.647 72.0784 169.652 72.0845 169.659 72.0888C169.666 72.093 169.673 72.0953 169.681 72.0953C169.689 72.0953 169.697 72.093 169.704 72.0888C169.71 72.0845 169.716 72.0784 169.719 72.0712L181.298 47.9399C181.301 47.9336 181.302 47.9268 181.302 47.9199C181.301 47.913 181.299 47.9064 181.296 47.9005C181.292 47.8947 181.287 47.8898 181.281 47.8864C181.275 47.8829 181.268 47.881 181.262 47.8809H175.165C175.157 47.8808 175.149 47.8831 175.143 47.8873C175.136 47.8915 175.131 47.8976 175.127 47.9047L169.718 59.7764Z" fill="#9D9DA6"/>
<path d="M191.293 66.5559C191.281 66.5559 191.269 66.5511 191.261 66.5427C191.252 66.5342 191.248 66.5227 191.248 66.5107V62.5522C191.248 62.5463 191.249 62.5404 191.251 62.5349C191.253 62.5294 191.257 62.5245 191.261 62.5203C191.265 62.5161 191.27 62.5127 191.275 62.5105C191.281 62.5082 191.287 62.507 191.293 62.507H198.861C198.873 62.507 198.884 62.5023 198.893 62.4938C198.901 62.4853 198.906 62.4738 198.906 62.4618V57.342C198.906 57.3301 198.901 57.3186 198.893 57.3101C198.884 57.3016 198.873 57.2968 198.861 57.2968H191.319C191.307 57.2968 191.296 57.2921 191.287 57.2836C191.279 57.2751 191.274 57.2636 191.274 57.2516L191.248 53.2618C191.248 53.2498 191.252 53.2383 191.261 53.2298C191.269 53.2213 191.281 53.2166 191.293 53.2166H200.923C200.929 53.2166 200.935 53.2154 200.941 53.2131C200.946 53.2109 200.951 53.2075 200.955 53.2033C200.96 53.1992 200.963 53.1942 200.965 53.1887C200.967 53.1832 200.969 53.1773 200.969 53.1714L201 47.9261C201 47.9201 200.999 47.9142 200.997 47.9088C200.994 47.9033 200.991 47.8983 200.987 47.8941C200.983 47.8899 200.978 47.8866 200.972 47.8843C200.967 47.882 200.961 47.8809 200.955 47.8809H185.737C185.725 47.8809 185.714 47.8856 185.705 47.8941C185.697 47.9026 185.692 47.9141 185.692 47.9261V71.8464C185.692 71.8584 185.697 71.8699 185.705 71.8784C185.714 71.8869 185.725 71.8916 185.737 71.8916H200.935C200.947 71.8916 200.958 71.8869 200.967 71.8784C200.975 71.8699 200.98 71.8584 200.98 71.8464L200.986 66.6011C200.986 66.5891 200.981 66.5776 200.973 66.5691C200.965 66.5607 200.953 66.5559 200.941 66.5559H191.293Z" fill="#9D9DA6"/>
<path d="M68.6124 64.5083C69.9365 63.6387 72.1578 62.1305 75.2764 59.9836C75.5024 59.828 75.7158 59.6271 75.7108 59.3685C75.6647 57.4074 75.2764 55.4167 74.5457 53.3962C74.4821 53.2213 74.395 53.092 74.2846 53.0083C74.2293 52.9664 74.1728 52.9648 74.1151 53.0033C69.8624 55.8624 65.6457 58.7169 61.465 61.5668C60.9791 61.8982 60.3163 62.3502 60.7707 63.0131C61.3566 63.8685 62.3405 65.2298 63.7223 67.0971C63.9609 67.4185 64.2643 67.4474 64.6325 67.1837C65.3364 66.6799 66.6631 65.7881 68.6124 64.5083Z" fill="#9D9DA6"/>
<path d="M70.3539 72.3613C73.1293 69.6621 74.8196 66.3694 75.4247 62.4833C75.4314 62.4398 75.4164 62.4302 75.3795 62.4544C71.131 65.2608 67.9016 67.4508 65.6911 69.0243C65.4501 69.1963 65.5292 69.5328 65.6861 69.7625C66.5817 71.0774 67.5132 72.4007 68.4808 73.7323C68.5087 73.7712 68.5509 73.7975 68.5982 73.8055C68.6454 73.8134 68.6939 73.8025 68.7331 73.775C69.3119 73.3745 69.7601 72.9376 70.3539 72.3613Z" fill="#9D9DA6"/>
<path fill-rule="evenodd" clip-rule="evenodd" d="M151.705 71.8314L144.086 62.1229C144.083 62.1192 144.078 62.1165 144.073 62.1152C144.069 62.1139 144.064 62.1141 144.059 62.1157C144.054 62.1173 144.05 62.1203 144.047 62.1243C144.044 62.1283 144.042 62.133 144.042 62.138V71.8289C144.042 71.8708 144.021 71.8917 143.979 71.8917H138.518C138.476 71.8917 138.455 71.8708 138.455 71.8289V47.9412C138.455 47.9249 138.461 47.9092 138.473 47.8977C138.484 47.8862 138.499 47.8797 138.515 47.8797C141.578 47.8822 144.644 47.8818 147.714 47.8784C151.15 47.8747 154.338 50.2625 154.976 53.7201C155.6 57.1136 153.669 60.4645 150.417 61.6747C150.407 61.6783 150.399 61.6841 150.392 61.6916C150.385 61.6992 150.38 61.7083 150.377 61.7182C150.374 61.7281 150.374 61.7386 150.376 61.7487C150.378 61.7588 150.382 61.7683 150.388 61.7764L158.318 71.8151C158.359 71.8662 158.347 71.8917 158.281 71.8917H151.83C151.778 71.8917 151.737 71.8716 151.705 71.8314ZM144.045 57.5507L144.037 52.8473C144.037 52.8424 144.038 52.8375 144.04 52.8329C144.042 52.8283 144.045 52.8242 144.048 52.8207C144.052 52.8172 144.056 52.8144 144.06 52.8125C144.065 52.8106 144.07 52.8097 144.075 52.8097L147.209 52.8046C147.868 52.8036 148.5 53.052 148.967 53.4954C149.434 53.9388 149.697 54.5407 149.698 55.1689V55.2091C149.699 55.5203 149.635 55.8286 149.511 56.1164C149.387 56.4042 149.204 56.6658 148.973 56.8863C148.743 57.1067 148.469 57.2818 148.167 57.4014C147.866 57.521 147.543 57.5829 147.216 57.5834L144.082 57.5884C144.072 57.5884 144.063 57.5844 144.056 57.5774C144.049 57.5703 144.045 57.5607 144.045 57.5507Z" fill="#9D9DA6"/>
<rect x="0.5" y="0.5" width="239" height="119" stroke="#2E2E33"/>
</svg>
