<svg width="335" height="272" viewBox="0 0 335 272" fill="none" xmlns="http://www.w3.org/2000/svg">
<path d="M71.1689 95.2968L70.9609 95.1838L78.0808 82.0774C92.0164 56.4244 144.932 58.2357 196.262 86.1198C247.591 114.004 277.912 157.409 263.976 183.062L259.424 191.442C266.618 165.156 237.109 125.682 189.396 99.7624C138.504 72.1156 85.959 70.2143 71.1689 95.2968Z" fill="#A878FF" stroke="white" stroke-width="0.5" stroke-linejoin="round"/>
<path d="M261.414 181.227C274.38 157.358 244.931 115.128 195.122 88.0704C145.313 61.0124 94.0066 59.3727 81.0402 83.2415" stroke="white" stroke-width="0.5"/>
<circle cx="102.47" cy="54.5349" r="27.77" fill="#17171A" stroke="white" stroke-width="0.5"/>
<path fill-rule="evenodd" clip-rule="evenodd" d="M108.94 68.6364C108.502 69.6948 108.021 70.6483 107.494 71.4571L110.507 71.5946C110.86 70.8915 111.292 69.8873 111.754 68.6172C116.814 68.363 120.887 66.8157 121.073 62.6659C121.095 62.1622 121.17 60.1053 119.387 59.6839C122.082 58.3962 124.781 50.5971 118.123 50.2773L115.636 50.1416L115.435 50.1368C115.519 48.859 115.573 47.5429 115.591 46.1926L112.892 46.1868C112.854 47.2597 112.78 48.572 112.66 50.0371C111.905 50 111.143 49.9534 110.371 49.8939C110.506 48.6163 110.61 47.3164 110.675 46.0031L107.642 45.4992C107.514 46.6211 107.337 48.0104 107.115 49.5664C105.023 49.3039 102.832 48.9242 100.487 48.3701L99.6051 52.1018L103.704 53.0706C103.247 55.8261 102.077 61.9229 101.058 64.2659L97.204 63.355L96.3943 66.7809C98.3248 67.2623 100.686 67.7502 103.174 68.1076C102.844 69.0835 102.501 69.9711 102.145 70.7399C102.935 70.8839 104.656 71.1459 105.226 71.042C105.509 70.3803 105.848 69.5112 106.216 68.4663C107.128 68.549 108.04 68.6078 108.94 68.6364ZM109.321 57.8207C109.321 57.8207 109.948 54.9391 110.039 53.9551C110.99 54.0817 112.041 54.0867 113.055 54.0915C115.67 54.104 118.033 54.1152 117.76 56.215C117.412 58.8975 113.692 58.4024 109.5 57.8445L109.321 57.8207ZM108.451 61.4716C108.361 62.4556 107.556 65.2598 107.556 65.2598C107.797 65.2864 108.036 65.3131 108.272 65.3395C112.656 65.8302 116.144 66.2206 116.479 63.6391C116.721 61.7737 115.297 61.7527 112.704 61.7144C111.516 61.6969 110.082 61.6757 108.451 61.4716Z" fill="white"/>
<path d="M111.667 37.0416C88.1763 45.9285 85.8961 53.7832 88.1789 71.887C88.2726 72.63 87.5337 73.1705 86.9146 72.7493C79.7849 67.8989 72.6278 50.8966 83.885 38.8207C98.939 22.6719 118.92 33.3465 111.667 37.0416Z" fill="#A878FF"/>
<path d="M102.781 218.642C79.0787 201.598 87.2621 152.587 121.388 105.13C155.514 57.6724 198.885 34.6523 222.587 51.6961C197.408 41.2643 156.398 63.3898 124.677 107.503C90.8412 154.557 79.7523 200.821 102.781 218.642Z" fill="white" stroke="white" stroke-width="0.5" stroke-linejoin="round"/>
<path d="M120.953 105.296C154.045 59.2756 200.619 36.1725 222.672 52.0309L224.725 49.5975C216.981 41.6352 170.255 34.2714 118.965 103.862C68.9346 171.744 87.5736 211.525 100.892 221.22L102.832 218.687C80.7789 202.829 85.1037 155.15 120.953 105.296Z" fill="#17171A" stroke="white" stroke-width="0.5"/>
<path d="M210.044 206.572L195.331 215.117C197.403 213.913 199.314 212.596 201.049 211.15C209.417 204.26 213.898 194.574 213.947 181.564L228.659 173.02C228.627 186.03 224.13 195.715 215.762 202.605C214.011 204.051 212.099 205.368 210.044 206.572Z" fill="white" stroke="white" stroke-width="0.5" stroke-linejoin="round"/>
<path d="M114.477 73.0836L129.19 64.5388L179.045 74.2079L164.333 82.7688L114.477 73.0836Z" fill="#17171A" stroke="white" stroke-width="0.5" stroke-linejoin="round"/>
<path d="M214.091 130.6L228.804 122.039L228.659 173.035L213.947 181.58L214.091 130.6Z" fill="white" stroke="white" stroke-width="0.5" stroke-linejoin="round"/>
<path d="M164.332 82.7688L179.045 74.2079L228.804 122.04L214.091 130.601L164.332 82.7688Z" fill="#36363D" stroke="white" stroke-width="0.5" stroke-linejoin="round"/>
<path d="M164.332 82.7688L214.091 130.601L213.947 181.581C213.915 194.591 209.417 204.276 201.049 211.166C192.456 218.233 180.024 222.393 163.931 223.968C147.901 203.842 135.533 185.371 127.005 168.426C119.215 152.926 114.862 138.937 114.364 126.537L114.316 124.08L114.46 73.0997L164.316 82.7849L164.332 82.7688Z" fill="#17171A" stroke="white" stroke-width="0.5" stroke-linejoin="round"/>
<path d="M192.327 208.741L185.533 212.693C187.396 211.6 189.114 210.412 190.705 209.111C198.27 202.879 202.333 194.125 202.365 182.368L209.16 178.417C209.127 190.174 205.064 198.928 197.499 205.16C195.925 206.461 194.19 207.649 192.327 208.741Z" fill="white" stroke="white" stroke-width="0.5" stroke-linejoin="round"/>
<path d="M112.436 84.3106L119.23 80.3594L164.315 89.097L157.521 93.0481L112.436 84.3106Z" fill="#17171A" stroke="white" stroke-width="0.5" stroke-linejoin="round"/>
<path d="M202.494 136.286L209.272 132.351L209.144 178.432L202.35 182.384L202.494 136.286Z" fill="white" stroke="white" stroke-width="0.5" stroke-linejoin="round"/>
<path d="M157.521 93.048L164.316 89.0968L209.272 132.351L202.494 136.286L157.521 93.048Z" fill="#36363D" stroke="white" stroke-width="0.5" stroke-linejoin="round"/>
<path d="M157.521 93.0483L202.494 136.287L202.365 182.368C202.333 194.125 198.27 202.878 190.704 209.11C182.947 215.487 171.72 219.245 157.168 220.675C142.68 202.477 131.501 185.789 123.791 170.466C116.756 156.46 112.805 143.803 112.371 132.592L112.323 130.376L112.452 84.2947L157.537 93.0483H157.521Z" fill="#17171A" stroke="white" stroke-width="0.5" stroke-linejoin="round"/>
<path d="M137.347 124.129C137.347 124.129 139.176 123.074 142.832 120.963C146.489 118.852 149.475 117.061 150.537 117.641C151.599 118.221 160.479 124.034 160.479 124.034L149.025 130.713L137.347 124.129Z" fill="#36363D" stroke="white" stroke-width="0.5" stroke-miterlimit="10" stroke-linejoin="round"/>
<path d="M153.045 165.979L147.168 161.726L134.295 137.661L142.982 132.579L158.639 161.465C158.639 161.465 159.014 162.467 158.253 162.907C157.491 163.347 153.045 165.979 153.045 165.979Z" fill="#36363D" stroke="white" stroke-width="0.5" stroke-miterlimit="10" stroke-linejoin="round"/>
<path d="M145.657 120.928C144.927 120.508 143.887 120.325 142.902 120.894L129.108 128.857C126.976 130.089 127.293 132.75 128.348 134.578L142.422 158.954C143.002 160.002 143.568 160.737 144.615 161.345L152.607 165.938C153.264 166.372 153.935 165.424 153.474 164.625L138.806 138.163C138.471 137.558 138.678 136.795 139.275 136.444L155.314 126.999L145.657 120.928Z" fill="#36FFFF" stroke="white" stroke-width="0.5" stroke-miterlimit="10" stroke-linejoin="round"/>
<path d="M155.726 138.05C156.202 137.775 156.653 137.478 157.452 137.873C158.25 138.268 162.052 140.475 163.693 141.559C165.441 142.713 166.407 143.445 167.199 144.816C167.991 146.187 180.428 167.728 181.625 169.802C182.822 171.876 182.549 173.736 181.122 174.561C178.267 176.21 174.543 178.426 174.543 178.426L150.975 140.859C150.975 140.859 155.25 138.325 155.726 138.05Z" fill="#36363D" stroke="white" stroke-width="0.5" stroke-miterlimit="10" stroke-linejoin="round"/>
<path d="M152.002 140.881C151.065 140.335 150.254 141.345 150.666 142.059L165.313 167.955C165.819 168.85 165.527 169.986 164.652 170.527L148.926 180.238L158.362 185.938C159.094 186.358 160.094 186.767 161.439 185.99L174.846 178.25C176.75 177.151 177.318 174.791 176.087 172.658L162.189 148.586C161.398 147.215 160.87 146.301 159.885 145.65L152.002 140.881Z" fill="#36FFFF" stroke="white" stroke-width="0.5" stroke-miterlimit="10" stroke-linejoin="round"/>
<circle cx="89.3485" cy="176.307" r="21.37" fill="#17171A" stroke="white" stroke-width="0.5"/>
<path fill-rule="evenodd" clip-rule="evenodd" d="M79.0604 165.128C74.0728 169.392 73.1245 177.153 77.0141 182.283C77.1262 182.545 77.1575 182.949 77.0359 183.161L76.4687 184.149C76.3877 184.291 76.3471 184.361 76.2422 184.391C76.0158 184.633 75.6771 184.613 75.5004 184.31C72.6228 180.775 71.5953 176.001 72.7047 171.319C74.6212 163.398 82.0626 158.369 89.3969 160.091C89.5018 160.061 89.6306 160.141 89.695 160.182C89.9123 160.414 89.9195 160.707 89.7574 160.989L89.1902 161.978C88.9876 162.331 88.7373 162.462 88.3986 162.441C85.1501 161.843 81.7282 162.769 79.0604 165.128ZM95.7403 164.456C95.9667 164.214 96.3054 164.235 96.482 164.537C99.2952 168.032 100.387 172.847 99.2372 177.599C97.3207 185.52 89.8793 190.549 82.545 188.827C82.4401 188.857 82.3114 188.777 82.2469 188.736C82.0297 188.504 82.0224 188.211 82.1845 187.929L82.7517 186.94C82.9543 186.587 83.2046 186.456 83.5433 186.477C86.7918 187.075 90.2137 186.149 92.8815 183.79C97.8691 179.526 98.8174 171.765 94.9278 166.635C94.8157 166.373 94.7845 165.969 94.9465 165.687L95.5137 164.698C95.5948 164.557 95.6353 164.486 95.7403 164.456ZM86.8507 173.38C89.3533 175.431 90.2198 177.127 88.8018 179.598C87.7079 181.505 85.569 182.179 83.434 181.319L82.4617 183.014C82.1947 183.326 81.8799 183.417 81.6222 183.255L80.6561 182.649C80.3746 182.376 80.3029 182.043 80.4649 181.761L81.4373 180.066C79.5144 178.379 79.2131 176.461 79.9683 174.534L80.0089 174.464C80.171 174.181 80.4857 174.091 80.7433 174.252L81.8383 174.94C82.0316 175.061 82.1437 175.323 82.046 175.646C81.6315 176.827 81.7655 177.967 83.4402 179.018C84.6639 179.786 86.0114 179.576 86.6596 178.446C87.3079 177.316 86.9713 176.529 85.3703 175.044C82.8678 172.993 82.1062 171.266 83.4432 168.936C84.4561 167.171 86.49 166.527 88.5844 167.457L89.5162 165.833C89.7833 165.52 90.0981 165.43 90.3558 165.592L91.3219 166.198C91.6034 166.471 91.675 166.804 91.513 167.086L90.5406 168.781C91.941 169.852 92.4116 171.78 91.778 173.495L91.7374 173.566C91.5755 173.848 91.2607 173.939 91.003 173.777L89.9725 173.13C89.7793 173.009 89.6671 172.746 89.7242 172.494C90.0099 171.233 89.6088 170.405 88.4494 169.677C87.1613 168.869 86.1526 169.1 85.5854 170.088C85.0181 171.077 85.0805 171.884 86.8507 173.38Z" fill="white"/>
<path d="M89.3485 197.427C101.013 197.427 110.469 188.182 110.469 176.777C99.8076 176.777 100.352 191.414 87.4015 191.414C74.4508 191.414 68.2285 184.247 68.2285 176.777C68.2285 188.182 77.6843 197.427 89.3485 197.427Z" fill="#36363D"/>
<path d="M147.75 175.453C197.559 202.511 248.448 205.096 261.414 181.228C262.437 181.5 264.449 182.142 264.321 182.527C260.808 193.064 225.073 227.715 144.95 182.527C71.4995 141.102 70.4128 96.3253 78.1921 81.8041L81.0406 83.242C68.0742 107.111 97.9409 148.395 147.75 175.453Z" fill="#36363D" stroke="white" stroke-width="0.5"/>
<path d="M78.3536 81.7818L78.1455 81.6688L71.0257 94.7751C57.09 120.428 87.4377 163.848 138.801 191.751C190.165 219.653 243.108 221.48 257.043 195.827L261.596 187.447C243.456 207.787 194.254 204.503 146.51 178.566C95.5833 150.901 65.3623 107.841 78.3536 81.7818Z" fill="#17171A" stroke="white" stroke-width="0.5" stroke-linejoin="round"/>
<path d="M202.922 164.453C236.173 118.546 244.719 67.991 222.72 52.057L224.741 49.5586C235.723 55.6434 261.914 93.6037 206.778 167.236C156.233 234.735 114.488 230.949 101.091 221.363L102.884 218.724C124.883 234.658 169.671 210.36 202.922 164.453Z" fill="#36FFFF" stroke="white" stroke-width="0.5"/>
<path d="M101.089 221.201L100.95 221.393L103.915 223.532C127.558 240.657 174.253 215.368 208.542 168.028C242.831 120.688 250.832 71.6068 229.307 53.0258C247.141 73.6354 237.722 122.08 205.849 166.085C171.853 213.021 125.257 237.442 101.089 221.201Z" fill="#17171A" stroke="white" stroke-width="0.5" stroke-linejoin="round"/>
<circle cx="259.195" cy="140.218" r="24.57" fill="#36FFFF" stroke="white" stroke-width="0.5"/>
<path d="M273.651 123.323C282.987 132.018 275.996 139.01 268.526 143.247C264.766 145.38 261.359 148.097 258.716 151.518C255.644 155.497 251.863 159.283 248.966 157.795C230.887 148.511 236.55 131.844 242.393 124.638C247.292 118.595 262.55 112.984 273.651 123.323Z" fill="#17171A"/>
<path d="M245.515 130.411C249.64 127.742 256.972 123.954 260.122 122.393C259.382 124.439 258.603 134.096 258.306 138.668C255.661 139.026 251.31 138.844 249.465 138.708C247.416 135.801 245.978 131.966 245.515 130.411Z" fill="white"/>
<path d="M244.317 148.391C243.697 144.95 244.053 136.287 244.309 132.386C244.439 133.314 247.081 138.298 248.387 140.674C249.205 140.981 254.608 140.827 257.208 140.711C253.631 142.525 247.124 146.587 244.317 148.391Z" fill="white"/>
</svg>
