<svg width="240" height="120" viewBox="0 0 240 120" fill="none" xmlns="http://www.w3.org/2000/svg">
<rect x="0.5" y="0.5" width="239" height="119" fill="#17171A"/>
<g clip-path="url(#clip0_33124_128262)">
<path d="M151.705 55.2949H149.198C149.054 55.2948 148.911 55.2638 148.779 55.204C148.647 55.1442 148.53 55.057 148.434 54.9482L147.418 53.8001C147.342 53.716 147.25 53.6487 147.147 53.6026C147.044 53.5565 146.933 53.5327 146.82 53.5327C146.707 53.5327 146.596 53.5565 146.493 53.6026C146.39 53.6487 146.298 53.716 146.223 53.8001L145.351 54.7841C145.21 54.9443 145.038 55.0726 144.844 55.1607C144.65 55.2488 144.439 55.2945 144.226 55.2949H130.505C130.11 56.4287 129.859 57.6081 129.76 58.8048H142.713C142.825 58.8047 142.936 58.7817 143.039 58.7374C143.142 58.6931 143.235 58.6284 143.312 58.5471L144.521 57.2865C144.596 57.2093 144.686 57.148 144.785 57.1061C144.884 57.0642 144.99 57.0427 145.098 57.0428H145.145C145.258 57.0434 145.369 57.0674 145.473 57.1133C145.576 57.1593 145.669 57.2263 145.745 57.3099L146.761 58.458C146.857 58.5671 146.974 58.6545 147.106 58.7143C147.238 58.7741 147.381 58.805 147.525 58.8048H158.092C157.996 57.6078 157.745 56.4281 157.347 55.2949H151.724H151.705Z" fill="#9D9DA6"/>
<path d="M137.595 66.1857C137.708 66.185 137.818 66.1619 137.921 66.1176C138.024 66.0733 138.118 66.0089 138.195 65.928L139.4 64.6674C139.475 64.5909 139.565 64.5299 139.663 64.4881C139.762 64.4463 139.869 64.4244 139.976 64.4238H140.028C140.141 64.4243 140.252 64.4483 140.356 64.4943C140.459 64.5402 140.551 64.6072 140.627 64.6909L141.64 65.839C141.735 65.9473 141.853 66.0342 141.984 66.094C142.116 66.1537 142.259 66.185 142.403 66.1857H156.729C157.275 65.0636 157.669 63.8738 157.9 62.6477H144.147C144.003 62.6472 143.861 62.6165 143.731 62.5575C143.6 62.4986 143.483 62.4128 143.387 62.3056L142.371 61.1575C142.296 61.0723 142.203 61.004 142.1 60.9572C141.996 60.9103 141.884 60.886 141.771 60.8857C141.658 60.8854 141.546 60.9095 141.443 60.9565C141.341 61.0034 141.249 61.072 141.176 61.1575L140.304 62.1416C140.162 62.301 139.988 62.4285 139.794 62.5158C139.599 62.603 139.388 62.648 139.175 62.6477H129.952C130.182 63.8768 130.574 65.0698 131.119 66.1951L137.595 66.1857Z" fill="#9D9DA6"/>
<path d="M147.759 51.4574C147.872 51.4573 147.984 51.4345 148.088 51.3902C148.192 51.3459 148.286 51.2811 148.364 51.1997L149.568 49.9438C149.642 49.8655 149.732 49.8031 149.831 49.7605C149.93 49.7178 150.037 49.6956 150.145 49.6954H150.196C150.309 49.6951 150.421 49.7192 150.523 49.7661C150.626 49.8131 150.718 49.8817 150.791 49.9672L151.808 51.1153C151.905 51.2223 152.022 51.3081 152.154 51.367C152.285 51.4259 152.428 51.4567 152.572 51.4574H155.295C153.97 49.6938 152.253 48.2625 150.28 47.2767C148.307 46.291 146.132 45.7778 143.926 45.7778C141.72 45.7778 139.545 46.291 137.572 47.2767C135.599 48.2625 133.882 49.6938 132.558 51.4574H147.759Z" fill="#9D9DA6"/>
<path d="M142.286 69.7H138.561C138.417 69.6998 138.274 69.6687 138.143 69.6089C138.013 69.5491 137.896 69.4619 137.802 69.3532L136.789 68.2051C136.714 68.1209 136.621 68.0535 136.518 68.0074C136.415 67.9613 136.303 67.9375 136.189 67.9375C136.076 67.9375 135.964 67.9613 135.861 68.0074C135.758 68.0535 135.665 68.1209 135.59 68.2051L134.713 69.2079C134.573 69.3683 134.4 69.4968 134.206 69.5849C134.012 69.673 133.802 69.7186 133.589 69.7187H133.532C134.862 71.1453 136.472 72.2829 138.26 73.0608C140.049 73.8386 141.978 74.24 143.929 74.24C145.879 74.24 147.808 73.8386 149.597 73.0608C151.385 72.2829 152.995 71.1453 154.325 69.7187L142.286 69.7Z" fill="#9D9DA6"/>
<path d="M81.0575 73.3038L78.1662 66.2747H65.2372L62.3459 73.3038H59L71.6806 46.7148L84.4034 73.3038H81.0575ZM66.3291 63.6083H77.0368L71.6525 52.2726L66.3291 63.6083Z" fill="#9D9DA6"/>
<path d="M89.0239 73.3038V46.7148H96.428C102.215 46.7148 105.257 49.3625 105.257 54.3626C105.257 59.1705 102.028 61.9541 96.3905 61.9541H92.1449V73.3038H89.0239ZM92.1449 59.1705H95.6782C100.149 59.1705 102.112 57.7085 102.112 54.3626C102.112 50.9042 100.121 49.475 95.6876 49.475H92.1449V59.1705Z" fill="#9D9DA6"/>
<path d="M116.587 49.5496H107.417V46.6958H128.874V49.5496H119.704V73.3035H116.587V49.5496Z" fill="#9D9DA6"/>
<path d="M162.488 68.4536L165.173 66.6307L165.379 67.0618C167.034 70.0703 168.838 71.2793 171.579 71.2793C174.625 71.2793 176.767 69.1752 176.767 66.6166C176.767 64.2127 175.562 62.5959 170.754 60.6044C165.229 58.3128 163.35 55.9464 163.35 52.563C163.35 48.8797 166.246 46.0024 171.242 46.0024C174.925 46.0024 177.441 47.577 178.871 50.1356L176.692 51.6398L176.054 51.4852C174.925 49.7232 173.533 48.7063 171.167 48.7063C168.275 48.7063 166.584 50.323 166.584 52.5021C166.584 54.5312 167.671 55.698 172.371 57.8396C178.496 60.6184 180 62.9099 180 66.5932C180 70.6139 176.542 74.0347 171.617 74.0347C167.483 74.0347 164.63 72.4555 162.488 68.4723" fill="#9D9DA6"/>
</g>
<rect x="0.5" y="0.5" width="239" height="119" stroke="#2E2E33"/>
<defs>
<clipPath id="clip0_33124_128262">
<rect width="121" height="44" fill="white" transform="translate(59 38)"/>
</clipPath>
</defs>
</svg>
