<svg width="240" height="120" viewBox="0 0 240 120" fill="none" xmlns="http://www.w3.org/2000/svg">
<rect x="0.5" y="0.5" width="239" height="119" fill="#17171A"/>
<g clip-path="url(#clip0_33124_128376)">
<path d="M48.8448 59.8982C48.8448 65.9438 43.7308 71.3206 37.4224 71.3206C31.1139 71.3206 26.4758 65.9438 26.4758 59.8982C26.4758 53.8526 31.1139 48.9517 37.4224 48.9517C43.7308 48.9517 48.8448 53.8526 48.8448 59.8982Z" fill="#707076"/>
<path d="M71.4934 48.6543C73.4466 47.9459 75.767 47.8374 77.8058 48.3382C80.7356 49.0581 82.4206 51.0395 83.0488 53.8869C83.8897 57.6983 83.2929 62.8328 79.2728 64.7348C77.1745 65.7281 74.3105 65.7887 72.1423 65.1647C67.4691 63.8188 66.4319 58.8909 67.058 54.6757C67.4555 52.0015 68.8494 49.6142 71.4934 48.6543ZM74.492 48.6721C70.3415 48.8442 67.9281 51.3588 67.5797 55.4603C67.178 60.1972 68.6909 64.2862 73.914 64.8705C78.0134 65.3296 81.5849 63.8156 82.4613 59.4512C82.8119 57.7067 82.8251 55.9587 82.501 54.2072C81.7237 50.0076 78.4788 48.5062 74.492 48.6721Z" fill="#9D9DA6"/>
<path d="M164.43 48.0523C168.309 48.1806 171.036 49.9366 171.925 53.8096C172.893 58.0249 172.031 63.729 167.114 65.1344C165.102 65.7093 162.814 65.7198 160.809 65.0938C158.039 64.2277 156.418 61.8645 155.968 59.0411C155.622 56.8657 155.728 54.4857 156.555 52.4595C157.924 49.1071 161.009 47.9396 164.43 48.0523ZM164.942 48.694C160.495 48.431 157.039 50.2538 156.526 55.0158C156.021 59.7172 157.283 64.2225 162.694 64.86C163.852 64.9964 164.962 64.9678 166.022 64.7745C170.461 63.9648 171.857 60.1534 171.619 56.0821C171.375 51.8794 169.441 48.9611 164.942 48.694Z" fill="#9D9DA6"/>
<path d="M179.194 48.4424C181.434 47.8007 184.342 47.8675 186.442 48.8931C190.601 50.9225 191.045 56.7258 189.869 60.5789C188.558 64.8797 184.099 66.1099 180.113 65.368C177.462 64.8756 175.513 63.3846 174.577 60.7803C173.774 58.5475 173.764 55.8222 174.326 53.5633C174.961 51.0164 176.673 49.1634 179.194 48.4424ZM188.213 51.1114C186.438 48.8879 183.652 48.481 180.967 48.7293C177.503 49.0496 175.264 51.1865 174.742 54.6004C174.094 58.8313 175.053 63.7185 179.98 64.7034C184.345 65.5767 188.564 64.2089 189.532 59.401C190.048 56.8384 189.915 53.244 188.213 51.1114Z" fill="#9D9DA6"/>
<path d="M92.4106 52.4605C90.4533 53.0479 90.1371 55.7064 90.2279 57.3758C90.3333 59.3061 90.8988 61.1101 93.1629 61.2666C94.5663 61.3626 95.9174 60.9129 97.2331 60.3714C97.5514 60.2399 97.9144 60.2253 97.9144 60.676C97.9144 61.8509 97.9158 63.025 97.9186 64.1985C97.9186 64.4249 97.8404 64.5772 97.6181 64.6669C95.3575 65.5816 93.0854 65.8056 90.8018 65.3389C86.9945 64.5595 85.3929 61.5493 85.0861 57.9466C84.915 55.9401 85.2249 53.6979 86.2067 51.9158C88.6514 47.4773 94.319 47.2853 98.4372 49.2479C98.4692 49.2632 98.4932 49.2865 98.5092 49.3178C98.5833 49.4587 98.6219 49.5912 98.5603 49.7508C98.12 50.893 97.68 52.0348 97.2404 53.1762C97.2286 53.2075 97.2091 53.2329 97.182 53.2524C97.0491 53.3491 96.9281 53.3717 96.8189 53.3202C95.522 52.7067 93.7921 52.0463 92.4106 52.4605ZM89.7459 55.1472C90.0025 53.7459 90.7684 52.3353 92.1675 51.8856C93.6439 51.4109 95.3999 52.0066 96.7469 52.6159C96.7775 52.6299 96.7991 52.6212 96.8116 52.5899L97.9092 49.7425C97.9218 49.7112 97.9124 49.6886 97.8811 49.6747C96.0844 48.8678 94.223 48.5555 92.2969 48.7377C86.863 49.2521 85.1091 54.1341 85.8165 58.8741C86.3684 62.5718 88.6127 64.7202 92.3835 64.9205C94.039 65.0081 95.6559 64.7608 97.2342 64.1786C97.2703 64.1654 97.2884 64.1393 97.2884 64.1004V61.0673C97.2884 61.027 97.2696 61.0141 97.2321 61.0287C95.4229 61.7476 93.3372 62.3726 91.5384 61.4398C89.4819 60.3735 89.3911 57.0889 89.7459 55.1472Z" fill="#9D9DA6"/>
<path d="M62.1612 58.0122C63.6449 60.2234 65.1182 62.4427 66.581 64.67C66.8335 65.055 66.6519 65.3179 66.2252 65.3179C64.6511 65.3207 63.0763 65.321 61.5008 65.3189C61.4243 65.3189 61.337 65.296 61.2389 65.2501C61.2055 65.2341 61.1798 65.2104 61.1617 65.1791L57.8302 59.4207C57.8219 59.4062 57.8099 59.3941 57.7954 59.3856C57.7809 59.3772 57.7645 59.3727 57.7477 59.3727H57.2511C57.2149 59.3727 57.1968 59.3905 57.1968 59.4259C57.1961 61.2783 57.1961 63.1299 57.1968 64.9809C57.1968 65.2302 56.9517 65.3179 56.7232 65.3179C55.3334 65.3207 53.9436 65.321 52.5538 65.3189C52.2763 65.3189 52.1626 65.0685 52.1626 64.8077C52.1619 59.4399 52.1608 54.072 52.1594 48.7042C52.1594 48.4121 52.3083 48.2667 52.606 48.2681C55.3981 48.2785 57.1631 48.2851 57.9011 48.2879C60.6254 48.2983 64.0748 49.0287 64.6539 52.259C65.0949 54.7179 64.2692 56.6113 62.1769 57.9391C62.1463 57.9586 62.1411 57.983 62.1612 58.0122ZM61.4789 57.695C61.4949 57.6407 61.5276 57.6007 61.5769 57.575C63.5917 56.5337 64.4744 54.5429 64.033 52.3289C63.4602 49.4554 60.3165 48.9087 57.8771 48.916C56.1889 48.9209 54.5115 48.9178 52.8449 48.9066C52.8074 48.9066 52.7886 48.9254 52.7886 48.963V64.6418C52.7886 64.6556 52.7941 64.6689 52.8039 64.6787C52.8136 64.6885 52.8269 64.6939 52.8407 64.6939H56.5176C56.5524 64.6939 56.5698 64.6766 56.5698 64.6418C56.5719 62.8388 56.5722 61.0362 56.5708 59.234C56.5708 58.5589 57.3408 58.7342 57.9199 58.754C58.067 58.7582 58.1954 58.826 58.2757 58.9648C59.3685 60.8609 60.4644 62.7571 61.5634 64.6533C61.5787 64.6804 61.6023 64.6939 61.6343 64.6939H65.8057C65.8113 64.6939 65.8168 64.6923 65.8215 64.6895C65.8263 64.6866 65.8302 64.6825 65.8329 64.6776C65.8355 64.6727 65.8368 64.6672 65.8366 64.6616C65.8365 64.6561 65.8348 64.6507 65.8318 64.646C64.4156 62.5098 62.9935 60.3806 61.5655 58.2584C61.4493 58.0852 61.4204 57.8974 61.4789 57.695Z" fill="#9D9DA6"/>
<path d="M105.579 54.5292C105.586 54.4923 105.6 54.4582 105.621 54.4269C106.999 52.4125 108.362 50.4064 109.711 48.4087C109.737 48.3715 109.771 48.341 109.81 48.3199C109.85 48.2988 109.895 48.2877 109.94 48.2877C111.55 48.2856 113.159 48.2856 114.765 48.2877C114.895 48.2877 114.982 48.366 115.028 48.5225C115.103 48.777 114.993 48.8699 114.862 49.0567C113.264 51.3535 111.662 53.6479 110.056 55.9398C110.037 55.9676 110.035 55.9962 110.051 56.0254C111.655 58.8974 113.256 61.7733 114.856 64.6531C115.093 65.0798 114.954 65.3156 114.477 65.3166C112.889 65.3215 111.3 65.3215 109.711 65.3166C109.5 65.3166 109.415 65.109 109.327 64.94C108.349 63.041 107.374 61.1407 106.403 59.239C106.389 59.2105 106.368 59.2045 106.341 59.2212L105.578 59.6762C105.547 59.6949 105.531 59.7224 105.531 59.7586C105.531 61.4454 105.531 63.1301 105.531 64.8127C105.531 65.0589 105.423 65.3166 105.16 65.3177C103.728 65.3212 102.295 65.3215 100.862 65.3187C100.581 65.3177 100.471 65.0715 100.471 64.8085C100.47 59.4164 100.471 54.0242 100.472 48.632C100.472 48.3545 100.7 48.2908 100.945 48.2898C102.344 48.2849 103.742 48.2853 105.14 48.2908C105.397 48.2922 105.525 48.4213 105.525 48.6779C105.529 50.6297 105.531 52.5812 105.531 54.5323C105.531 54.5379 105.534 54.5417 105.539 54.5438C105.549 54.5473 105.558 54.548 105.566 54.5459C105.573 54.5438 105.577 54.5382 105.579 54.5292ZM105.311 55.9231C105.042 55.9315 104.907 55.7854 104.906 55.4849C104.906 53.307 104.905 51.1323 104.905 48.9607C104.905 48.9287 104.889 48.9127 104.857 48.9127H101.149C101.114 48.9127 101.097 48.9301 101.097 48.9648V64.6416C101.097 64.6764 101.114 64.6937 101.149 64.6937H104.853C104.867 64.6937 104.881 64.6881 104.891 64.6782C104.901 64.6682 104.906 64.6546 104.906 64.6405C104.904 62.9656 104.905 61.2903 104.907 59.6146C104.907 59.2327 105.988 58.7256 106.299 58.5503C106.521 58.4251 106.681 58.4575 106.778 58.6474C107.808 60.6486 108.834 62.6477 109.856 64.6447C109.873 64.6774 109.9 64.6937 109.937 64.6937H114.11C114.116 64.6936 114.123 64.6918 114.128 64.6886C114.134 64.6853 114.138 64.6807 114.142 64.6752C114.145 64.6696 114.147 64.6633 114.147 64.6569C114.147 64.6505 114.145 64.6441 114.142 64.6384C112.591 61.845 111.038 59.0557 109.486 56.2706C109.288 55.9158 109.422 55.7729 109.626 55.4828C111.146 53.307 112.665 51.1306 114.181 48.9534C114.2 48.9262 114.194 48.9127 114.16 48.9127H110.17C110.133 48.9127 110.104 48.928 110.083 48.9586L105.39 55.8793C105.371 55.9078 105.345 55.9224 105.311 55.9231Z" fill="#9D9DA6"/>
<path d="M121.051 58.7162V61.0116C121.051 61.0478 121.07 61.0659 121.106 61.0659C122.726 61.0701 124.34 61.0711 125.947 61.069C126.242 61.069 126.317 61.3507 126.318 61.6126C126.321 62.681 126.322 63.748 126.321 64.8137C126.319 65.0537 126.2 65.3176 125.949 65.3176C122.769 65.3204 119.589 65.3208 116.408 65.3187C116.131 65.3187 116.017 65.0683 116.017 64.8074C116.016 59.4306 116.017 54.054 116.018 48.6779C116.018 48.4115 116.157 48.2786 116.435 48.2793C119.608 48.2835 122.782 48.2859 125.955 48.2866C126.24 48.2866 126.316 48.5454 126.317 48.7999C126.322 49.86 126.323 50.9204 126.321 51.9812C126.319 52.2212 126.2 52.4841 125.948 52.4841C124.334 52.4855 122.72 52.4862 121.105 52.4862C121.069 52.4862 121.051 52.5039 121.051 52.5394V54.3601C121.051 54.3956 121.07 54.4137 121.106 54.4144C122.594 54.4192 124.077 54.4199 125.557 54.4164C125.853 54.4164 125.924 54.7002 125.925 54.9621C125.931 56.0166 125.932 57.0715 125.928 58.1267C125.927 58.4126 125.823 58.6494 125.512 58.6463C124.046 58.6289 122.581 58.631 121.115 58.6525C121.073 58.6532 121.051 58.6745 121.051 58.7162ZM120.516 58.1434C120.535 58.1051 120.564 58.0729 120.6 58.0504C120.636 58.0279 120.678 58.016 120.721 58.0161H125.251C125.286 58.0161 125.303 57.9987 125.303 57.9639V55.0957C125.303 55.0609 125.286 55.0435 125.25 55.0435C123.792 55.0414 122.334 55.0411 120.875 55.0425C120.654 55.0425 120.432 54.8776 120.43 54.67C120.423 53.9021 120.423 53.1338 120.428 52.3652C120.429 52.1158 120.516 51.857 120.793 51.8581C122.404 51.865 124.02 51.8643 125.641 51.856C125.677 51.856 125.695 51.8386 125.695 51.8038V48.9648C125.695 48.93 125.677 48.9126 125.642 48.9126H116.683C116.656 48.9126 116.643 48.9258 116.643 48.9523V64.6415C116.643 64.6554 116.649 64.6686 116.658 64.6784C116.668 64.6882 116.682 64.6937 116.695 64.6937H125.642C125.677 64.6937 125.695 64.6763 125.695 64.6415V61.7482C125.695 61.7128 125.677 61.695 125.642 61.695C124.072 61.6929 122.501 61.6926 120.93 61.694C120.695 61.695 120.425 61.5771 120.425 61.3288C120.425 60.3626 120.425 59.3965 120.425 58.4303C120.425 58.3208 120.469 58.2394 120.516 58.1434Z" fill="#9D9DA6"/>
<path d="M136.337 52.577C136.344 52.5839 136.351 52.5909 136.358 52.5979C136.361 52.6013 136.363 52.6055 136.363 52.6104C136.363 56.7248 136.363 60.8395 136.363 64.9546C136.363 65.2571 136.051 65.3135 135.787 65.3156C133.805 65.3281 132.443 65.3277 131.701 65.3145C131.396 65.3093 131.303 65.0912 131.303 64.8074C131.303 60.7431 131.303 56.6792 131.303 52.6156C131.303 52.5808 131.285 52.5634 131.251 52.5634C130.079 52.5662 128.907 52.5652 127.734 52.5603C127.403 52.5592 127.344 52.2723 127.342 51.9823C127.335 50.8658 127.335 49.7494 127.343 48.633C127.345 48.3753 127.6 48.2866 127.836 48.2866C131.887 48.2866 135.939 48.2866 139.989 48.2866C140.235 48.2866 140.323 48.5683 140.324 48.7927C140.331 49.9258 140.331 51.0592 140.324 52.193C140.322 52.433 140.176 52.554 139.885 52.5561C138.704 52.5624 137.524 52.5645 136.343 52.5624C136.329 52.5624 136.327 52.5672 136.337 52.577ZM131.581 51.9405C131.773 51.9405 131.928 52.0908 131.928 52.2838C131.929 56.4072 131.93 60.5272 131.929 64.6436C131.929 64.6569 131.934 64.6696 131.944 64.679C131.953 64.6884 131.966 64.6937 131.979 64.6937H135.687C135.7 64.6937 135.713 64.6884 135.722 64.679C135.732 64.6696 135.737 64.6569 135.737 64.6436C135.736 60.5724 135.737 56.5043 135.738 52.4393C135.738 52.2055 135.791 51.9499 136.055 51.9426C136.553 51.9294 137.75 51.9304 139.648 51.9457C139.685 51.9457 139.704 51.9273 139.704 51.8904L139.701 48.9648C139.701 48.93 139.684 48.9126 139.65 48.9126H128.016C127.981 48.9126 127.964 48.93 127.964 48.9648L127.963 51.8769C127.963 51.9179 127.983 51.9384 128.025 51.9384C129.215 51.9384 130.401 51.9391 131.581 51.9405Z" fill="#9D9DA6"/>
<path d="M147.032 59.9634C147.032 61.6015 147.031 63.2392 147.031 64.8766C147.031 65.1716 146.883 65.319 146.588 65.319C145.189 65.3204 143.789 65.3204 142.389 65.319C142.108 65.319 141.997 65.0718 141.997 64.8088C141.997 59.4167 141.997 54.0245 141.998 48.6323C141.998 48.3548 142.227 48.2901 142.472 48.2901C144.305 48.2845 146.138 48.2817 147.971 48.2817C150.871 48.2817 153.632 49.2928 154.305 52.4093C154.501 53.3122 154.51 54.246 154.332 55.2108C153.838 57.9048 152.153 59.2622 149.524 59.7735C148.695 59.9352 147.9 59.8768 147.091 59.9018C147.052 59.9032 147.032 59.9237 147.032 59.9634ZM146.406 59.6681C146.406 59.4114 146.578 59.2768 146.823 59.2821C147.587 59.2988 148.35 59.2685 149.11 59.1913C152.45 58.8532 153.957 56.5828 153.793 53.3411C153.621 49.9386 150.84 48.9046 147.92 48.9119C146.169 48.9161 144.421 48.9158 142.677 48.9109C142.641 48.9109 142.623 48.9286 142.623 48.9641V64.6419C142.623 64.6557 142.629 64.669 142.639 64.6788C142.649 64.6886 142.662 64.694 142.676 64.694H146.352C146.387 64.694 146.405 64.6767 146.405 64.6419C146.407 62.9808 146.407 61.3229 146.406 59.6681Z" fill="#9D9DA6"/>
<path d="M204 61.4657V65.0132C203.942 65.217 203.826 65.3189 203.655 65.3189C200.135 65.3203 196.616 65.3203 193.097 65.3189C192.816 65.3189 192.705 65.0706 192.705 64.8087C192.705 59.4165 192.705 54.0244 192.706 48.6322C192.706 48.3557 192.934 48.29 193.179 48.2889C194.578 48.2861 195.976 48.2854 197.375 48.2868C197.634 48.2879 197.739 48.5581 197.739 48.7991C197.74 52.8801 197.74 56.9642 197.74 61.0515C197.74 61.0628 197.744 61.0737 197.752 61.0817C197.76 61.0898 197.77 61.0943 197.781 61.0943C199.683 61.095 201.588 61.0946 203.495 61.0932C203.783 61.0932 203.936 61.1882 204 61.4657ZM197.288 61.6525C197.162 61.5064 197.113 61.3749 197.113 61.1694C197.114 57.1037 197.114 53.0359 197.114 48.9661C197.114 48.9306 197.096 48.9129 197.06 48.9129H193.384C193.349 48.9129 193.331 48.9302 193.331 48.965V64.6418C193.331 64.6556 193.337 64.6689 193.347 64.6786C193.357 64.6884 193.37 64.6939 193.384 64.6939H203.322C203.357 64.6939 203.374 64.6765 203.374 64.6418V61.7725C203.374 61.7586 203.368 61.7454 203.359 61.7356C203.349 61.7258 203.336 61.7203 203.322 61.7203H197.436C197.408 61.7203 197.38 61.7142 197.355 61.7025C197.329 61.6908 197.306 61.6737 197.288 61.6525Z" fill="#9D9DA6"/>
<path d="M49.5596 60.1093C49.5596 61.6542 49.2553 63.1839 48.6641 64.6112C48.0729 66.0385 47.2064 67.3353 46.114 68.4277C45.0216 69.5201 43.7248 70.3867 42.2975 70.9779C40.8702 71.5691 39.3404 71.8734 37.7956 71.8734C34.6755 71.8734 31.6833 70.6339 29.4771 68.4277C27.2709 66.2215 26.0315 63.2293 26.0315 60.1093C26.0315 56.9893 27.2709 53.997 29.4771 51.7908C31.6833 49.5846 34.6755 48.3452 37.7956 48.3452C39.3404 48.3452 40.8702 48.6495 42.2975 49.2407C43.7248 49.8319 45.0216 50.6984 46.114 51.7908C47.2064 52.8832 48.0729 54.1801 48.6641 55.6074C49.2553 57.0347 49.5596 58.5644 49.5596 60.1093ZM29.1084 53.7645C26.2746 57.7116 26.3403 62.8377 29.291 66.7066C29.3585 66.8575 29.4614 66.9618 29.5998 67.0196C29.6318 67.2046 29.7348 67.3336 29.9087 67.4067C29.9796 67.5625 30.1027 67.6508 30.278 67.6717C30.2412 67.879 30.3281 67.992 30.5389 68.0108C30.6307 68.1589 30.7535 68.2539 30.9072 68.2956C31.4644 68.8458 32.1582 69.3233 32.9887 69.7282C35.5603 70.9837 38.1969 71.2098 40.8986 70.4064C43.9591 69.4409 46.169 67.5388 47.5282 64.7001C50.2065 59.1035 47.4499 52.2193 41.6227 50.0532C37.0412 48.3515 32.0142 49.8205 29.1084 53.7645Z" fill="#9D9DA6"/>
<path d="M75.4301 48.887C76.3066 48.9203 77.0105 48.9982 77.5419 49.1207C80.1764 49.7258 81.7759 51.607 82.2705 54.2123C83.0656 58.4036 82.2695 63.6006 77.2018 64.5345C74.5777 65.0186 71.4872 64.7181 69.5841 62.6668C68.0055 60.964 67.6778 58.5455 67.7415 56.3179C67.8803 51.5142 70.4741 48.6971 75.4301 48.887ZM78.2441 60.3057C79.1289 58.4871 79.0903 55.9089 78.5321 54.0016C77.9958 52.1642 76.3984 51.2679 74.5422 51.5371C73.0429 51.7552 72.0569 52.7548 71.6771 54.2113C71.0083 56.7707 70.9895 61.4043 74.4744 62.0022C75.9257 62.2516 77.5816 61.6673 78.2441 60.3057Z" fill="#9D9DA6"/>
<path d="M164.456 48.8866C165.228 48.9207 165.876 48.9986 166.4 49.1203C169.437 49.8267 170.97 52.0585 171.328 55.0665C171.569 57.099 171.443 59.5635 170.5 61.3664C168.843 64.5404 165.213 65.1205 162.006 64.5414C157.397 63.7099 156.285 59.3767 156.7 55.3274C157.152 50.9055 159.969 48.6894 164.456 48.8866ZM167.221 60.1269C168.023 58.2749 167.994 55.6842 167.358 53.7853C166.748 51.9708 164.93 51.1747 163.126 51.5952C160.053 52.312 159.953 56.4897 160.442 58.8769C160.742 60.3398 161.48 61.4937 162.986 61.9163C164.613 62.3733 166.524 61.7358 167.221 60.1269Z" fill="#9D9DA6"/>
<path d="M180.707 48.9629C184.02 48.5695 187.457 49.2936 188.875 52.6763C189.637 54.4907 189.702 56.7423 189.446 58.6966C188.829 63.4074 185.352 65.1029 180.978 64.6626C176.454 64.2066 174.7 60.8595 174.778 56.6046C174.85 52.7024 176.42 49.4731 180.707 48.9629ZM184.684 61.1172C186.291 59.5479 186.163 55.9097 185.565 53.9429C184.976 52.0085 183.167 51.1623 181.254 51.5995C179.772 51.9386 178.957 53.1176 178.643 54.4938C178.13 56.7381 178.119 60.993 180.962 61.8549C182.241 62.2419 183.716 62.0614 184.684 61.1172Z" fill="#9D9DA6"/>
<path d="M91.6159 51.8886C89.0346 53.2168 88.876 58.0936 90.1061 60.2816C91.5199 62.795 94.7085 62.288 97.0039 61.3291C97.0547 61.3082 97.0801 61.3253 97.0801 61.3802V63.9375C97.0801 63.9772 97.0613 64.0043 97.0237 64.0189C95.443 64.6387 93.6547 64.8255 91.9863 64.6731C88.6454 64.3674 86.543 62.338 86.038 58.9825C85.6332 56.2917 85.9107 53.0916 87.8848 51.007C90.3753 48.3777 94.5092 48.4538 97.6351 49.7862C97.6426 49.7893 97.6487 49.7951 97.652 49.8025C97.6553 49.8099 97.6556 49.8183 97.6529 49.8259L96.6909 52.3091C96.677 52.3453 96.6523 52.3554 96.6168 52.3394C95.154 51.6706 93.1361 51.1061 91.6159 51.8886Z" fill="#9D9DA6"/>
<path d="M58.4427 58.8312C58.257 58.5088 57.6038 58.5098 57.2898 58.5255C56.6857 58.5568 56.3632 58.5923 56.3632 59.2705C56.3632 60.9906 56.3626 62.7112 56.3612 64.432C56.3612 64.4675 56.3438 64.4853 56.309 64.4853H53.0495C53.0356 64.4853 53.0224 64.4798 53.0126 64.47C53.0028 64.4602 52.9973 64.4469 52.9973 64.4331V49.1758C52.9973 49.1431 53.0137 49.1264 53.0464 49.1257C54.6678 49.1181 56.2853 49.1153 57.8991 49.1174C61.0251 49.1215 64.2303 50.022 63.9037 53.9232C63.7785 55.4152 62.9407 56.4951 61.7032 57.2703C61.2765 57.5395 61.0595 57.84 61.3683 58.3053C62.7233 60.3483 64.0801 62.3929 65.4385 64.4394C65.4415 64.4437 65.4432 64.4488 65.4435 64.4541C65.4437 64.4593 65.4425 64.4646 65.44 64.4693C65.4374 64.474 65.4336 64.478 65.4289 64.4808C65.4243 64.4836 65.4189 64.4851 65.4135 64.4853H61.7627C61.7293 64.4853 61.7039 64.4707 61.6866 64.4414C60.6035 62.571 59.5222 60.7009 58.4427 58.8312ZM58.9675 51.6361C58.3895 51.4952 57.368 51.3429 56.7962 51.5025C56.5152 51.5804 56.3719 51.8041 56.3664 52.1734C56.3566 52.7897 56.3563 53.8529 56.3653 55.363C56.3706 56.2207 56.7003 56.1956 57.4713 56.2269C58.6086 56.2749 59.8116 55.9264 60.2801 54.8403C60.8195 53.5862 60.4481 51.9981 58.9675 51.6361Z" fill="#9D9DA6"/>
<path d="M109.451 55.362C109.208 55.7105 109.069 55.9494 109.292 56.349C110.786 59.0361 112.282 61.7283 113.78 64.4258C113.803 64.4655 113.791 64.4853 113.745 64.4853H110.065C110.028 64.4853 110.001 64.469 109.984 64.4363C108.983 62.4657 107.975 60.502 106.961 58.5454C106.794 58.223 106.409 58.2459 106.109 58.4097C105.453 58.7676 104.699 59.0618 104.699 59.7536C104.697 61.3131 104.697 62.8726 104.697 64.4321C104.697 64.4676 104.679 64.4853 104.642 64.4853H101.384C101.332 64.4853 101.306 64.4592 101.306 64.407V49.1738C101.306 49.139 101.323 49.1216 101.358 49.1216H104.643C104.678 49.1216 104.696 49.1393 104.696 49.1748C104.697 51.3033 104.698 53.4307 104.698 55.5571C104.698 56.1665 105.4 56.3324 105.741 55.7762C106.014 55.3311 106.299 54.8932 106.595 54.4626C107.803 52.6986 109.006 50.9318 110.205 49.1623C110.223 49.1351 110.249 49.1216 110.281 49.1216H113.747C113.787 49.1216 113.796 49.1379 113.773 49.1706C112.332 51.2351 110.891 53.2989 109.451 55.362Z" fill="#9D9DA6"/>
<path d="M120.942 51.6528C120.52 51.6528 120.224 51.8114 120.22 52.282C120.214 52.9887 120.214 53.6944 120.22 54.399C120.225 54.9812 120.389 55.2504 120.985 55.2514C122.336 55.2535 123.687 55.2528 125.037 55.2493C125.076 55.2486 125.095 55.2678 125.095 55.3067V57.7545C125.095 57.7893 125.077 57.8066 125.042 57.8066C123.632 57.808 122.224 57.8087 120.816 57.8087C120.284 57.8087 120.219 58.2303 120.218 58.6873C120.217 59.5428 120.217 60.3974 120.218 61.2508C120.219 61.6654 120.436 61.8748 120.869 61.8789C122.392 61.8929 123.914 61.9026 125.437 61.9082C125.47 61.9082 125.486 61.9249 125.486 61.9582V64.4206C125.486 64.4637 125.464 64.4853 125.42 64.4853H116.904C116.89 64.4853 116.877 64.4798 116.867 64.47C116.858 64.4602 116.852 64.447 116.852 64.4331V49.1738C116.852 49.139 116.869 49.1216 116.904 49.1216H125.434C125.469 49.1216 125.486 49.139 125.486 49.1738V51.5954C125.486 51.6316 125.468 51.6497 125.432 51.6497C123.931 51.6539 122.435 51.6549 120.942 51.6528Z" fill="#9D9DA6"/>
<path d="M132.137 52.3832C132.137 51.8667 131.815 51.7165 131.355 51.7217C130.309 51.7335 129.266 51.7352 128.226 51.7269C128.19 51.7262 128.173 51.7085 128.173 51.6737V49.1738C128.173 49.139 128.19 49.1216 128.225 49.1216H139.441C139.455 49.1216 139.468 49.1271 139.478 49.1369C139.488 49.1466 139.493 49.1599 139.493 49.1738V51.6779C139.493 51.7168 139.474 51.7363 139.435 51.7363C138.339 51.7245 137.246 51.7224 136.154 51.73C135.635 51.7332 135.529 52.0639 135.529 52.5313C135.529 56.4983 135.528 60.4652 135.528 64.4321C135.528 64.4676 135.51 64.4853 135.474 64.4853H132.195C132.158 64.4853 132.14 64.4672 132.14 64.431C132.135 60.412 132.134 56.396 132.137 52.3832Z" fill="#9D9DA6"/>
<path d="M146.875 59.0524C146.556 59.0409 146.2 59.2548 146.199 59.6148C146.196 61.223 146.196 62.8343 146.198 64.4487C146.198 64.4584 146.194 64.4677 146.187 64.4746C146.18 64.4814 146.171 64.4853 146.161 64.4853H142.884C142.87 64.4853 142.857 64.4798 142.847 64.47C142.838 64.4602 142.832 64.4469 142.832 64.4331V49.1748C142.832 49.1414 142.849 49.1247 142.882 49.1247C144.608 49.117 146.33 49.1181 148.048 49.1278C150.429 49.1414 152.857 49.854 153.468 52.4384C153.895 54.2414 153.521 56.5441 152.017 57.8337C150.586 59.0608 148.651 59.116 146.875 59.0524ZM150.155 53.5309C149.918 51.7832 148.513 51.6517 147.031 51.6736C146.53 51.681 146.207 51.8114 146.203 52.3581C146.195 53.4627 146.194 54.5676 146.2 55.6729C146.202 56.0757 146.29 56.4137 146.726 56.4648C148.005 56.614 149.405 56.2843 149.964 54.9613C150.159 54.4988 150.223 54.0219 150.155 53.5309Z" fill="#9D9DA6"/>
<path d="M196.913 61.2498C196.913 61.6369 197.157 61.9269 197.536 61.928C199.398 61.9294 201.262 61.9297 203.129 61.929C203.138 61.929 203.148 61.9328 203.154 61.9394C203.161 61.9461 203.165 61.9551 203.165 61.9645V64.4196C203.165 64.4634 203.144 64.4853 203.1 64.4853H193.592C193.578 64.4853 193.565 64.4798 193.555 64.47C193.546 64.4602 193.54 64.447 193.54 64.4331V49.1738C193.54 49.139 193.557 49.1216 193.592 49.1216H196.848C196.883 49.1216 196.901 49.1393 196.901 49.1748C196.907 53.2029 196.911 57.2279 196.913 61.2498Z" fill="#9D9DA6"/>
<path d="M59.5248 52.1152C60.4409 52.6849 60.4565 54.0674 60.01 54.9083C59.4455 55.9715 57.9503 56.1374 56.8913 55.9882C56.6263 55.9507 56.5772 55.6919 56.5752 55.4446C56.5612 53.8121 56.5626 52.6849 56.5793 52.063C56.5939 51.5132 57.6071 51.6707 57.9775 51.6749C58.5492 51.6826 59.065 51.8293 59.5248 52.1152ZM59.6667 53.4142C59.5248 52.2686 58.0933 52.2655 57.2429 52.3114C57.2123 52.3128 57.197 52.3288 57.197 52.3594V55.3027C57.197 55.3403 57.2158 55.3608 57.2534 55.3643C58.6077 55.4801 59.8743 55.0909 59.6667 53.4142Z" fill="#9D9DA6"/>
<path d="M78.2208 53.7405C78.9637 55.653 79.0659 59.8432 77.2108 61.2111C76.399 61.809 75.268 61.9696 74.2852 61.7443C72.815 61.4073 72.0575 60.3075 71.7644 58.8948C71.3825 57.0574 71.3481 53.8292 72.935 52.4593C73.9367 51.5953 75.5456 51.4879 76.7027 52.0263C77.3962 52.349 77.9022 52.9204 78.2208 53.7405ZM78.0799 56.4679C78.0549 54.9456 77.7544 52.9538 76.0307 52.4311C75.2106 52.1828 74.1287 52.3226 73.4442 52.8484C72.0649 53.9095 72.0586 56.6526 72.2527 58.1801C72.4509 59.7378 73.1489 61.0859 74.8945 61.2142C77.7846 61.426 78.1143 58.6277 78.0799 56.4679Z" fill="#9D9DA6"/>
<path d="M167.586 57.1815C167.527 58.7925 167.244 60.6997 165.636 61.4875C164.354 62.1156 162.461 61.932 161.517 60.7728C160.427 59.4362 160.33 57.2295 160.518 55.5632C160.703 53.9345 161.295 52.2901 163.02 51.8352C163.953 51.589 164.812 51.6526 165.597 52.0262C167.393 52.8828 167.653 55.3806 167.586 57.1815ZM166.974 56.328C166.921 54.6669 166.509 52.5625 164.458 52.3423C161.366 52.0116 160.931 55.1657 161.086 57.3995C161.191 58.9271 161.535 60.7665 163.309 61.1369C166.584 61.8203 167.049 58.6902 166.974 56.328Z" fill="#9D9DA6"/>
<path d="M185.741 57.1817C185.652 59.6357 184.915 61.9895 181.913 61.8309C179.922 61.7256 179.032 60.2607 178.735 58.4358C178.435 56.6015 178.484 53.2346 180.418 52.1609C181.635 51.4859 183.249 51.5266 184.344 52.4134C185.606 53.437 185.797 55.6281 185.741 57.1817ZM185.13 56.3282C185.084 54.6504 184.655 52.6378 182.711 52.3581C179.259 51.8636 179.055 55.6896 179.301 58.0414C179.445 59.4218 179.968 60.821 181.465 61.135C184.747 61.8247 185.194 58.6873 185.13 56.3282Z" fill="#9D9DA6"/>
<path d="M147.18 51.8902C148.444 51.8767 149.727 51.9685 149.937 53.5106C150.219 55.5765 148.499 56.4863 146.736 56.2526C146.493 56.2202 146.409 56.0011 146.409 55.7674C146.405 54.6301 146.404 53.4925 146.407 52.3545C146.409 51.8297 146.812 51.8934 147.18 51.8902ZM149.35 53.8278C149.301 52.4098 148.144 52.5017 147.106 52.51C147.056 52.51 147.032 52.535 147.032 52.5851V55.564C147.032 55.6036 147.051 55.6255 147.091 55.6297C148.3 55.7507 149.398 55.2103 149.35 53.8278Z" fill="#9D9DA6"/>
<path d="M42.4594 57.2301C41.8135 58.8766 40.7576 60.1328 39.4659 61.3087C39.2583 61.4986 39.2218 61.7177 39.1988 61.9775L39.1425 62.2164C39.0882 62.6192 39.0434 62.9176 38.7262 63.2108C38.3728 63.537 38.0021 63.8615 37.614 64.1842L37.086 62.6578C37.0737 62.6219 37.0493 62.5914 37.017 62.5713C36.9848 62.5512 36.9465 62.5427 36.9086 62.5472C36.6262 62.582 36.349 62.5607 36.0771 62.4835C36.0367 62.4717 36.0019 62.4808 35.9727 62.5107L35.474 63.0219C35.4608 63.0354 35.4429 63.0433 35.424 63.0439C35.4051 63.0445 35.3868 63.0377 35.3728 63.0251L34.9001 62.6046C34.8912 62.5967 34.884 62.5872 34.8788 62.5765C34.8736 62.5659 34.8706 62.5543 34.8699 62.5424C34.8693 62.5306 34.8709 62.5188 34.8749 62.5076C34.8788 62.4964 34.8849 62.4861 34.8928 62.4773L35.3592 61.9545C35.3919 61.9191 35.3975 61.8794 35.3759 61.8356C35.2493 61.5859 35.1832 61.3209 35.1777 61.0406C35.177 61.0072 35.1606 60.9853 35.1286 60.9748L33.6011 60.4667C33.5969 60.4651 33.593 60.4625 33.59 60.4591C33.587 60.4557 33.5848 60.4517 33.5836 60.4473C33.5825 60.4429 33.5825 60.4382 33.5835 60.4338C33.5846 60.4294 33.5867 60.4253 33.5897 60.4218L34.7405 59.1489C34.7655 59.1204 34.7961 59.1013 34.8323 59.0915L35.3164 58.9559L36.293 58.7232C36.3285 58.7149 36.3577 58.6968 36.3807 58.669C37.2203 57.6617 38.2052 56.8305 39.3355 56.1753C40.3361 55.6223 41.4807 55.2039 42.6555 55.2999C42.6945 55.3034 42.715 55.3246 42.7171 55.3635C42.7491 56.009 42.6632 56.6312 42.4594 57.2301ZM39.9302 58.9204C39.9302 58.6647 39.8287 58.4195 39.6479 58.2387C39.4671 58.0579 39.2219 57.9563 38.9662 57.9563C38.7105 57.9563 38.4653 58.0579 38.2845 58.2387C38.1037 58.4195 38.0021 58.6647 38.0021 58.9204C38.0021 59.1761 38.1037 59.4213 38.2845 59.6021C38.4653 59.7829 38.7105 59.8845 38.9662 59.8845C39.2219 59.8845 39.4671 59.7829 39.6479 59.6021C39.8287 59.4213 39.9302 59.1761 39.9302 58.9204Z" fill="#9D9DA6"/>
<path d="M30.2778 67.6715C30.1025 67.6506 29.9794 67.5623 29.9084 67.4064L34.445 63.1609C34.4791 63.1289 34.5115 63.1307 34.5421 63.1662L34.7372 63.3947C34.772 63.435 34.7699 63.4736 34.7309 63.5105L30.2778 67.6715Z" fill="#9D9DA6"/>
<path d="M29.5996 67.0198C29.4612 66.962 29.3582 66.8577 29.2908 66.7067L32.9019 63.3492C32.936 63.3179 32.9701 63.3179 33.0041 63.3492L33.2264 63.5568C33.2605 63.5881 33.2605 63.6194 33.2264 63.6507L29.5996 67.0198Z" fill="#9D9DA6"/>
<path d="M30.9069 68.2957C30.7532 68.254 30.6304 68.159 30.5386 68.0109L34.2165 64.573C34.2464 64.5451 34.277 64.5441 34.3083 64.5698L34.5076 64.7305C34.5197 64.7404 34.5297 64.7528 34.5367 64.7669C34.5437 64.781 34.5476 64.7963 34.5482 64.812C34.5488 64.8277 34.546 64.8434 34.5401 64.8579C34.5342 64.8725 34.5252 64.8856 34.5138 64.8964L30.9069 68.2957Z" fill="#9D9DA6"/>
<path d="M63.3737 68.4246C61.7105 67.4115 61.0532 68.9995 61.3464 70.3538C61.5905 71.4838 62.6996 71.3284 63.503 71.0226C63.542 71.008 63.5615 71.0216 63.5615 71.0633V71.7655C63.5615 71.8003 63.5455 71.824 63.5135 71.8365C58.9967 73.5904 59.3118 65.6117 63.6867 67.616C63.7221 67.6327 63.7329 67.6591 63.719 67.6953L63.4456 68.4006C63.4317 68.4375 63.4077 68.4455 63.3737 68.4246Z" fill="#9D9DA6"/>
<path d="M92.0518 68.3261C91.8682 68.6715 92.0205 68.902 92.3471 69.0711C93.1807 69.4999 94.0728 69.8651 93.9278 70.9147C93.7421 72.2586 91.9642 72.2116 91.0168 71.7953C90.9896 71.7835 90.9761 71.7626 90.9761 71.7327V70.9544C90.9761 70.9008 91.0004 70.8848 91.0491 70.9064C91.455 71.0858 92.7905 71.5971 92.9794 70.8865C93.2214 69.9778 90.6338 70.0644 91.0752 68.2405C91.36 67.0636 93.0472 67.2222 93.8641 67.6281C93.9017 67.6469 93.9125 67.6757 93.8965 67.7147L93.6263 68.3595C93.6116 68.395 93.5873 68.404 93.5532 68.3866C93.2559 68.2353 92.2626 67.9307 92.0518 68.3261Z" fill="#9D9DA6"/>
<path d="M141.521 68.2229C141.223 68.4169 141.287 68.8645 141.609 69.0252C142.467 69.453 143.497 69.8766 143.264 70.9742C142.992 72.2618 141.312 72.218 140.371 71.7964C140.342 71.7839 140.328 71.762 140.328 71.7307V70.9534C140.328 70.8991 140.353 70.8831 140.402 70.9054C140.857 71.1078 141.975 71.5345 142.296 70.9774C142.593 70.4599 141.668 70.0863 141.214 69.8704C140.364 69.4655 140.031 68.227 140.83 67.6292C141.48 67.143 142.522 67.287 143.227 67.6313C143.257 67.6459 143.265 67.6685 143.253 67.6991L142.976 68.3616C142.963 68.3922 142.941 68.4002 142.912 68.3856C142.576 68.2229 141.859 68.0027 141.521 68.2229Z" fill="#9D9DA6"/>
<path d="M166.191 70.2241H165.461C165.417 70.2241 165.395 70.2022 165.395 70.1584V69.4938C165.395 69.4416 165.421 69.4155 165.473 69.4155H167.143C167.178 69.4155 167.195 69.4329 167.195 69.4677V71.7422C167.195 71.7749 167.179 71.7962 167.148 71.8059C165.643 72.2858 163.875 72.2504 163.535 70.3619C163.097 67.9298 165.021 66.7059 167.141 67.5823C167.173 67.5955 167.183 67.6185 167.17 67.6512L166.895 68.3273C166.879 68.3676 166.851 68.3784 166.812 68.3596C165.193 67.5948 164.176 68.7749 164.523 70.3306C164.715 71.1945 165.458 71.3468 166.212 71.1851C166.241 71.1788 166.256 71.1611 166.256 71.1319V70.2899C166.256 70.246 166.234 70.2241 166.191 70.2241Z" fill="#9D9DA6"/>
<path d="M179.128 71.8511C177.902 71.3117 177.788 69.7018 178.145 68.6094C178.503 67.5117 179.641 67.132 180.719 67.3688C182.294 67.7162 182.576 69.5192 182.109 70.8213C181.672 72.0369 180.184 72.3154 179.128 71.8511ZM178.982 69.707C178.981 70.356 179.166 71.1114 179.922 71.2209C181.79 71.4901 181.601 68.2338 180.385 68.1367C179.257 68.0459 178.982 68.7888 178.982 69.707Z" fill="#9D9DA6"/>
<path d="M188.421 72.0239C186.885 71.7297 186.505 70.1823 186.821 68.8385C187.168 67.3631 188.845 66.9583 190.065 67.5687C191.159 68.1164 191.224 69.8735 190.86 70.8574C190.501 71.8298 189.39 72.2096 188.421 72.0239ZM188.412 68.2354C187.425 68.6809 187.405 71.2487 188.924 71.2267C190.71 71.2007 190.348 67.3621 188.412 68.2354Z" fill="#9D9DA6"/>
<path d="M194.934 68.4246C192.55 66.9576 192.124 71.1645 193.918 71.2323C194.301 71.2462 194.677 71.1784 195.045 71.0289C195.054 71.0249 195.065 71.0234 195.075 71.0244C195.085 71.0254 195.095 71.0288 195.103 71.0345C195.112 71.0402 195.119 71.0479 195.124 71.0569C195.129 71.0659 195.131 71.076 195.131 71.0863V71.7624C195.131 71.8041 195.112 71.8323 195.073 71.8469C193.741 72.3456 192.217 72.0535 191.925 70.4331C191.533 68.2597 193.009 66.5444 195.256 67.6181C195.294 67.6355 195.305 67.6636 195.289 67.7026L195.015 68.3975C194.999 68.4385 194.972 68.4476 194.934 68.4246Z" fill="#9D9DA6"/>
<path d="M195.836 69.937C195.789 68.8759 196.014 67.8346 197.119 67.4412C198.321 67.0145 199.748 67.4924 200.056 68.8581C200.424 70.49 199.746 72.2126 197.771 72.0582C196.554 71.9622 195.89 71.1776 195.836 69.937ZM197.127 68.5138C196.577 69.2265 196.644 71.0962 197.866 71.236C199.239 71.3936 199.264 69.6396 198.983 68.8008C198.713 67.9911 197.594 67.9108 197.127 68.5138Z" fill="#9D9DA6"/>
<path d="M80.6154 71.8603L82.1595 67.3978C82.1693 67.3692 82.1895 67.355 82.2201 67.355H83.3C83.3306 67.355 83.3511 67.3696 83.3615 67.3988L84.9266 71.9051C84.9488 71.9671 84.9269 71.998 84.8608 71.998H83.9635C83.9343 71.998 83.9152 71.9837 83.9062 71.9552L83.6109 70.9505C83.6011 70.9185 83.5799 70.9025 83.5472 70.9025H81.9978C81.9547 70.9025 81.9269 70.923 81.9144 70.964L81.6233 71.9448C81.6128 71.9803 81.5892 71.998 81.5523 71.998H79.5835C79.5473 71.998 79.5198 71.9827 79.501 71.9521L78.4764 70.2796C78.4535 70.2427 78.4204 70.2243 78.3773 70.2243H77.986C77.9513 70.2243 77.9339 70.2417 77.9339 70.2764V71.9458C77.9339 71.9806 77.9165 71.998 77.8817 71.998H77.047C76.9948 71.998 76.9688 71.9719 76.9688 71.9198V67.4551C76.9688 67.4078 76.9924 67.3838 77.0397 67.3832C77.6657 67.3727 78.7185 67.2757 79.3821 67.5741C80.4432 68.052 80.2919 69.4626 79.3132 69.9592C79.2764 69.978 79.2694 70.0045 79.2923 70.0385L80.5079 71.8738C80.5141 71.8832 80.5229 71.8906 80.5331 71.8953C80.5433 71.9 80.5547 71.9017 80.5658 71.9003C80.577 71.8989 80.5875 71.8944 80.5963 71.8873C80.605 71.8803 80.6116 71.8709 80.6154 71.8603ZM82.2002 70.025C82.1986 70.0303 82.1982 70.036 82.1992 70.0415C82.2002 70.047 82.2024 70.0522 82.2058 70.0567C82.2091 70.0612 82.2135 70.0648 82.2185 70.0673C82.2235 70.0697 82.2291 70.071 82.2347 70.0709L83.3104 70.0657C83.3159 70.0656 83.3213 70.0642 83.3262 70.0617C83.3311 70.0592 83.3353 70.0555 83.3386 70.0511C83.3418 70.0466 83.344 70.0415 83.3449 70.036C83.3458 70.0306 83.3454 70.025 83.3438 70.0198L82.797 68.221C82.795 68.2133 82.7905 68.2066 82.7842 68.2018C82.7779 68.197 82.7701 68.1944 82.7622 68.1946C82.7543 68.1947 82.7466 68.1974 82.7405 68.2024C82.7343 68.2074 82.73 68.2143 82.7282 68.222L82.2002 70.025ZM77.9328 68.221L77.9266 69.4063C77.9266 69.4157 77.9303 69.4247 77.937 69.4313C77.9436 69.438 77.9526 69.4417 77.962 69.4417L78.3721 69.4438C78.5732 69.4449 78.7665 69.3857 78.9093 69.2793C79.0522 69.1728 79.1329 69.0278 79.1338 68.8762V68.7635C79.1342 68.6884 79.115 68.614 79.0773 68.5444C79.0395 68.4748 78.984 68.4115 78.9139 68.358C78.8437 68.3045 78.7603 68.2619 78.6684 68.2327C78.5765 68.2035 78.478 68.1881 78.3784 68.1876L77.9683 68.1855C77.9589 68.1855 77.9499 68.1892 77.9432 68.1959C77.9366 68.2026 77.9328 68.2116 77.9328 68.221Z" fill="#9D9DA6"/>
<path d="M148.594 70.9379L148.291 71.9625C148.288 71.9727 148.282 71.9817 148.274 71.9881C148.265 71.9945 148.255 71.998 148.244 71.998L147.308 71.997C147.301 71.9969 147.293 71.995 147.286 71.9914C147.279 71.9878 147.273 71.9826 147.269 71.9763C147.264 71.97 147.261 71.9627 147.26 71.9551C147.259 71.9474 147.26 71.9396 147.262 71.9323L148.836 67.3884C148.839 67.3787 148.845 67.3703 148.853 67.3644C148.862 67.3584 148.871 67.3551 148.882 67.355H149.985C149.995 67.3551 150.005 67.3584 150.013 67.3644C150.021 67.3703 150.027 67.3787 150.03 67.3884L151.608 71.9333C151.61 71.9406 151.611 71.9485 151.61 71.9561C151.609 71.9638 151.606 71.971 151.602 71.9774C151.597 71.9837 151.591 71.9888 151.584 71.9924C151.577 71.996 151.57 71.9979 151.562 71.998H150.63C150.62 71.998 150.609 71.9945 150.601 71.9881C150.592 71.9817 150.586 71.9727 150.583 71.9625L150.278 70.9379C150.275 70.9277 150.269 70.9188 150.26 70.9124C150.252 70.906 150.241 70.9025 150.231 70.9025H148.641C148.63 70.9025 148.62 70.906 148.611 70.9124C148.603 70.9188 148.597 70.9277 148.594 70.9379ZM148.871 70.025C148.87 70.0301 148.87 70.0355 148.871 70.0408C148.872 70.046 148.874 70.051 148.877 70.0552C148.88 70.0595 148.884 70.0629 148.889 70.0653C148.894 70.0676 148.899 70.0688 148.905 70.0688L149.985 70.0657C149.99 70.0656 149.995 70.0643 150 70.0618C150.005 70.0593 150.009 70.0557 150.012 70.0514C150.015 70.047 150.017 70.042 150.018 70.0367C150.019 70.0314 150.018 70.0259 150.017 70.0208L149.471 68.2304C149.469 68.223 149.465 68.2164 149.459 68.2118C149.453 68.2072 149.445 68.2047 149.437 68.2049C149.43 68.205 149.422 68.2077 149.416 68.2125C149.41 68.2173 149.406 68.2239 149.404 68.2314L148.871 70.025Z" fill="#9D9DA6"/>
<path d="M52.2324 67.4414C52.2324 67.4249 52.2389 67.4092 52.2504 67.3975C52.2619 67.3858 52.2776 67.379 52.294 67.3788L53.8225 67.3735C54.1071 67.3725 54.3892 67.4252 54.6525 67.5285C54.9158 67.6318 55.1552 67.7837 55.3572 67.9755C55.5591 68.1673 55.7195 68.3954 55.8293 68.6465C55.939 68.8977 55.996 69.1672 55.9969 69.4394L55.999 69.9069C56.0009 70.4567 55.7744 70.9847 55.3693 71.3749C54.9643 71.765 54.4139 71.9853 53.8392 71.9874L52.3107 71.9926C52.2941 71.9926 52.2781 71.986 52.2664 71.9742C52.2547 71.9625 52.2481 71.9466 52.2481 71.93L52.2324 67.4414ZM53.2048 68.2208L53.1944 71.1401C53.1944 71.1515 53.1989 71.1624 53.2069 71.1704C53.215 71.1784 53.2258 71.1829 53.2372 71.1829L53.7745 71.185C54.0999 71.1861 54.4124 71.0526 54.6433 70.8138C54.8742 70.5751 55.0046 70.2508 55.0057 69.9121L55.0078 69.4613C55.0084 69.2936 54.9772 69.1274 54.9161 68.9723C54.8549 68.8171 54.765 68.676 54.6514 68.557C54.5379 68.438 54.4029 68.3435 54.2542 68.2788C54.1056 68.2142 53.9461 68.1806 53.785 68.1801L53.2476 68.178C53.2363 68.178 53.2254 68.1825 53.2174 68.1905C53.2094 68.1985 53.2048 68.2094 53.2048 68.2208Z" fill="#9D9DA6"/>
<path d="M57.9012 68.237V69.1583C57.9012 69.171 57.9062 69.1832 57.9152 69.1922C57.9242 69.2012 57.9364 69.2063 57.9492 69.2063H59.3921C59.4049 69.2063 59.4171 69.2113 59.4261 69.2203C59.4351 69.2293 59.4401 69.2415 59.4401 69.2543V69.9408C59.4401 69.9535 59.4351 69.9658 59.4261 69.9748C59.4171 69.9838 59.4049 69.9888 59.3921 69.9888H57.9492C57.9364 69.9888 57.9242 69.9939 57.9152 70.0029C57.9062 70.0119 57.9012 70.0241 57.9012 70.0368V71.1407C57.9012 71.1534 57.9062 71.1656 57.9152 71.1746C57.9242 71.1836 57.9364 71.1887 57.9492 71.1887H59.4965C59.5092 71.1887 59.5214 71.1938 59.5304 71.2028C59.5394 71.2118 59.5445 71.224 59.5445 71.2367V71.9493C59.5445 71.9556 59.5432 71.9619 59.5408 71.9677C59.5384 71.9735 59.5349 71.9788 59.5304 71.9833C59.526 71.9877 59.5207 71.9912 59.5148 71.9937C59.509 71.9961 59.5028 71.9973 59.4965 71.9973H56.984C56.9777 71.9973 56.9715 71.9961 56.9657 71.9937C56.9598 71.9912 56.9545 71.9877 56.9501 71.9833C56.9456 71.9788 56.9421 71.9735 56.9397 71.9677C56.9373 71.9619 56.936 71.9556 56.936 71.9493V67.4284C56.936 67.4156 56.9411 67.4034 56.9501 67.3944C56.9591 67.3854 56.9713 67.3804 56.984 67.3804H59.4965C59.5092 67.3804 59.5214 67.3854 59.5304 67.3944C59.5394 67.4034 59.5445 67.4156 59.5445 67.4284V68.141C59.5445 68.1537 59.5394 68.1659 59.5304 68.1749C59.5214 68.1839 59.5092 68.189 59.4965 68.189H57.9492C57.9364 68.189 57.9242 68.194 57.9152 68.203C57.9062 68.212 57.9012 68.2243 57.9012 68.237Z" fill="#9D9DA6"/>
<path d="M65.5179 68.2265V69.1687C65.5179 69.1787 65.5218 69.1882 65.5289 69.1953C65.5359 69.2023 65.5455 69.2063 65.5554 69.2063H67.0193C67.0242 69.2063 67.0291 69.2073 67.0337 69.2091C67.0382 69.211 67.0423 69.2138 67.0458 69.2173C67.0493 69.2208 67.0521 69.2249 67.054 69.2295C67.0559 69.234 67.0568 69.2389 67.0568 69.2438V69.9513C67.0568 69.9612 67.0529 69.9708 67.0458 69.9778C67.0388 69.9849 67.0292 69.9888 67.0193 69.9888H65.5554C65.5455 69.9888 65.5359 69.9928 65.5289 69.9998C65.5218 70.0069 65.5179 70.0164 65.5179 70.0264V71.1511C65.5179 71.1611 65.5218 71.1706 65.5289 71.1777C65.5359 71.1847 65.5455 71.1887 65.5554 71.1887H67.1236C67.1336 71.1887 67.1431 71.1927 67.1502 71.1997C67.1572 71.2067 67.1612 71.2163 67.1612 71.2263V71.9597C67.1612 71.9647 67.1602 71.9696 67.1583 71.9741C67.1564 71.9787 67.1537 71.9828 67.1502 71.9863C67.1467 71.9898 67.1425 71.9926 67.138 71.9945C67.1334 71.9963 67.1285 71.9973 67.1236 71.9973H64.5903C64.5854 71.9973 64.5805 71.9963 64.5759 71.9945C64.5714 71.9926 64.5672 71.9898 64.5637 71.9863C64.5602 71.9828 64.5575 71.9787 64.5556 71.9741C64.5537 71.9696 64.5527 71.9647 64.5527 71.9597V67.4179C64.5527 67.413 64.5537 67.4081 64.5556 67.4036C64.5575 67.399 64.5602 67.3949 64.5637 67.3914C64.5672 67.3879 64.5714 67.3851 64.5759 67.3832C64.5805 67.3813 64.5854 67.3804 64.5903 67.3804H67.1236C67.1285 67.3804 67.1334 67.3813 67.138 67.3832C67.1425 67.3851 67.1467 67.3879 67.1502 67.3914C67.1537 67.3949 67.1564 67.399 67.1583 67.4036C67.1602 67.4081 67.1612 67.413 67.1612 67.4179V68.1514C67.1612 68.1564 67.1602 68.1612 67.1583 68.1658C67.1564 68.1704 67.1537 68.1745 67.1502 68.178C67.1467 68.1815 67.1425 68.1842 67.138 68.1861C67.1334 68.188 67.1285 68.189 67.1236 68.189H65.5554C65.5455 68.189 65.5359 68.1929 65.5289 68.2C65.5218 68.207 65.5179 68.2166 65.5179 68.2265Z" fill="#9D9DA6"/>
<path d="M68.9507 68.5458C68.9496 68.5432 68.9476 68.5411 68.9451 68.5399C68.9425 68.5387 68.9397 68.5385 68.937 68.5392C68.9343 68.54 68.9319 68.5417 68.9304 68.5441C68.9289 68.5465 68.9283 68.5493 68.9288 68.5521L68.9736 71.9378C68.9743 71.9775 68.9549 71.9973 68.9152 71.9973H68.1525C68.1177 71.9973 68.1003 71.9799 68.1003 71.9451V67.4231C68.1003 67.4121 68.1047 67.4015 68.1126 67.3936C68.1204 67.3858 68.131 67.3814 68.1421 67.3814L69.247 67.3804C69.2673 67.3804 69.2872 67.3857 69.3046 67.3958C69.322 67.4059 69.3363 67.4204 69.3461 67.4378L71.2586 70.7964C71.2604 70.7994 71.2631 70.8018 71.2663 70.8031C71.2696 70.8044 71.2732 70.8046 71.2765 70.8036C71.2799 70.8027 71.2828 70.8006 71.2849 70.7978C71.2869 70.795 71.288 70.7915 71.2879 70.788L71.243 67.4398C71.243 67.4002 71.2625 67.3804 71.3014 67.3804H72.0391C72.0913 67.3804 72.1173 67.4065 72.1173 67.4586V71.9451C72.1173 71.9799 72.1 71.9973 72.0652 71.9973H70.9634C70.9258 71.9973 70.8976 71.981 70.8789 71.9483L68.9507 68.5458Z" fill="#9D9DA6"/>
<path d="M75.0646 68.238V71.9483C75.0646 71.9613 75.0595 71.9738 75.0503 71.9829C75.0411 71.9921 75.0286 71.9973 75.0156 71.9973H74.1485C74.1355 71.9973 74.1231 71.9921 74.1139 71.9829C74.1047 71.9738 74.0995 71.9613 74.0995 71.9483V68.2391C74.0995 68.2261 74.0943 68.2136 74.0851 68.2044C74.0759 68.1952 74.0635 68.19 74.0505 68.19L72.9226 68.189C72.9096 68.189 72.8971 68.1838 72.8879 68.1746C72.8787 68.1654 72.8735 68.153 72.8735 68.1399V67.4294C72.8735 67.4164 72.8787 67.4039 72.8879 67.3947C72.8971 67.3855 72.9096 67.3804 72.9226 67.3804H76.2416C76.2546 67.3804 76.267 67.3855 76.2762 67.3947C76.2854 67.4039 76.2906 67.4164 76.2906 67.4294V68.1399C76.2906 68.153 76.2854 68.1654 76.2762 68.1746C76.267 68.1838 76.2546 68.189 76.2416 68.189H75.1137C75.1007 68.189 75.0882 68.1942 75.079 68.2034C75.0698 68.2125 75.0646 68.225 75.0646 68.238Z" fill="#9D9DA6"/>
<path d="M86.5323 71.1887H88.2988C88.3101 71.1887 88.321 71.1932 88.329 71.2012C88.337 71.2092 88.3415 71.2201 88.3415 71.2315V71.9545C88.3415 71.9659 88.337 71.9768 88.329 71.9848C88.321 71.9928 88.3101 71.9973 88.2988 71.9973H85.5672C85.5558 71.9973 85.545 71.9928 85.5369 71.9848C85.5289 71.9768 85.5244 71.9659 85.5244 71.9545V67.4231C85.5244 67.4118 85.5289 67.4009 85.5369 67.3929C85.545 67.3849 85.5558 67.3804 85.5672 67.3804H86.4468C86.4581 67.3804 86.469 67.3849 86.477 67.3929C86.485 67.4009 86.4895 67.4118 86.4895 67.4231V71.1459C86.4895 71.1573 86.494 71.1681 86.5021 71.1762C86.5101 71.1842 86.521 71.1887 86.5323 71.1887Z" fill="#9D9DA6"/>
<path d="M90.0957 67.3804H89.2214C89.1966 67.3804 89.1765 67.4005 89.1765 67.4252V71.9514C89.1765 71.9762 89.1966 71.9963 89.2214 71.9963H90.0957C90.1205 71.9963 90.1406 71.9762 90.1406 71.9514V67.4252C90.1406 67.4005 90.1205 67.3804 90.0957 67.3804Z" fill="#9D9DA6"/>
<path d="M95.7757 68.237V69.1583C95.7757 69.171 95.7807 69.1832 95.7897 69.1922C95.7987 69.2012 95.8109 69.2063 95.8237 69.2063H97.2667C97.2794 69.2063 97.2916 69.2113 97.3006 69.2203C97.3096 69.2293 97.3146 69.2415 97.3146 69.2543V69.9408C97.3146 69.9535 97.3096 69.9658 97.3006 69.9748C97.2916 69.9838 97.2794 69.9888 97.2667 69.9888H95.8237C95.8109 69.9888 95.7987 69.9939 95.7897 70.0029C95.7807 70.0119 95.7757 70.0241 95.7757 70.0368V71.1407C95.7757 71.1534 95.7807 71.1656 95.7897 71.1746C95.7987 71.1836 95.8109 71.1887 95.8237 71.1887H97.371C97.3837 71.1887 97.3959 71.1938 97.4049 71.2028C97.4139 71.2118 97.419 71.224 97.419 71.2367V71.9493C97.419 71.9556 97.4177 71.9619 97.4153 71.9677C97.4129 71.9735 97.4094 71.9788 97.4049 71.9833C97.4005 71.9877 97.3952 71.9912 97.3894 71.9937C97.3835 71.9961 97.3773 71.9973 97.371 71.9973H94.8585C94.8522 71.9973 94.846 71.9961 94.8402 71.9937C94.8343 71.9912 94.8291 71.9877 94.8246 71.9833C94.8201 71.9788 94.8166 71.9735 94.8142 71.9677C94.8118 71.9619 94.8105 71.9556 94.8105 71.9493V67.4284C94.8105 67.4156 94.8156 67.4034 94.8246 67.3944C94.8336 67.3854 94.8458 67.3804 94.8585 67.3804H97.371C97.3837 67.3804 97.3959 67.3854 97.4049 67.3944C97.4139 67.4034 97.419 67.4156 97.419 67.4284V68.141C97.419 68.1537 97.4139 68.1659 97.4049 68.1749C97.3959 68.1839 97.3837 68.189 97.371 68.189H95.8237C95.8109 68.189 95.7987 68.194 95.7897 68.203C95.7807 68.212 95.7757 68.2243 95.7757 68.237Z" fill="#9D9DA6"/>
<path d="M98.3486 67.4028C98.3486 67.3964 98.3512 67.3903 98.3557 67.3858C98.3602 67.3813 98.3663 67.3788 98.3726 67.3788L99.9398 67.3735C100.224 67.3725 100.506 67.4252 100.77 67.5285C101.033 67.6318 101.272 67.7837 101.474 67.9755C101.676 68.1673 101.837 68.3954 101.947 68.6465C102.056 68.8977 102.113 69.1672 102.114 69.4394L102.116 69.9069C102.118 70.4567 101.892 70.9847 101.487 71.3749C101.082 71.765 100.531 71.9853 99.9565 71.9874L98.3893 71.9926C98.383 71.9926 98.3769 71.99 98.3724 71.9855C98.3679 71.981 98.3653 71.9749 98.3653 71.9686L98.3486 67.4028ZM99.3179 68.2229L99.3138 71.1422C99.3136 71.1478 99.3146 71.1534 99.3166 71.1587C99.3186 71.1639 99.3217 71.1687 99.3255 71.1728C99.3294 71.1769 99.3341 71.1801 99.3392 71.1824C99.3443 71.1847 99.3499 71.1859 99.3555 71.186H99.8907C100.217 71.1869 100.53 71.0532 100.761 70.8145C100.992 70.5758 101.122 70.2515 101.123 69.9131V69.4603C101.123 69.2927 101.092 69.1267 101.031 68.9717C100.969 68.8168 100.879 68.6758 100.765 68.5571C100.651 68.4383 100.516 68.3439 100.367 68.2794C100.218 68.2149 100.058 68.1815 99.897 68.1811H99.3618C99.3561 68.181 99.3505 68.182 99.3453 68.184C99.3401 68.186 99.3353 68.189 99.3312 68.1929C99.3271 68.1968 99.3239 68.2014 99.3216 68.2066C99.3193 68.2117 99.3181 68.2172 99.3179 68.2229Z" fill="#9D9DA6"/>
<path d="M105.688 68.237V69.1583C105.688 69.171 105.693 69.1832 105.702 69.1922C105.711 69.2012 105.723 69.2063 105.736 69.2063H107.179C107.191 69.2063 107.204 69.2113 107.213 69.2203C107.222 69.2293 107.227 69.2415 107.227 69.2543V69.9408C107.227 69.9535 107.222 69.9658 107.213 69.9748C107.204 69.9838 107.191 69.9888 107.179 69.9888H105.736C105.723 69.9888 105.711 69.9939 105.702 70.0029C105.693 70.0119 105.688 70.0241 105.688 70.0368V71.1407C105.688 71.1534 105.693 71.1656 105.702 71.1746C105.711 71.1836 105.723 71.1887 105.736 71.1887H107.283C107.296 71.1887 107.308 71.1938 107.317 71.2028C107.326 71.2118 107.331 71.224 107.331 71.2367V71.9493C107.331 71.9556 107.33 71.9619 107.327 71.9677C107.325 71.9735 107.321 71.9788 107.317 71.9833C107.313 71.9877 107.307 71.9912 107.301 71.9937C107.296 71.9961 107.289 71.9973 107.283 71.9973H104.771C104.764 71.9973 104.758 71.9961 104.752 71.9937C104.746 71.9912 104.741 71.9877 104.737 71.9833C104.732 71.9788 104.729 71.9735 104.726 71.9677C104.724 71.9619 104.723 71.9556 104.723 71.9493V67.4284C104.723 67.4156 104.728 67.4034 104.737 67.3944C104.746 67.3854 104.758 67.3804 104.771 67.3804H107.283C107.296 67.3804 107.308 67.3854 107.317 67.3944C107.326 67.4034 107.331 67.4156 107.331 67.4284V68.141C107.331 68.1537 107.326 68.1659 107.317 68.1749C107.308 68.1839 107.296 68.189 107.283 68.189H105.736C105.723 68.189 105.711 68.194 105.702 68.203C105.693 68.212 105.688 68.2243 105.688 68.237Z" fill="#9D9DA6"/>
<path d="M110.018 68.238V71.9483C110.018 71.9613 110.013 71.9738 110.004 71.9829C109.994 71.9921 109.982 71.9973 109.969 71.9973H109.102C109.089 71.9973 109.076 71.9921 109.067 71.9829C109.058 71.9738 109.053 71.9613 109.053 71.9483V68.238C109.053 68.225 109.048 68.2125 109.039 68.2034C109.029 68.1942 109.017 68.189 109.004 68.189H107.876C107.863 68.189 107.85 68.1838 107.841 68.1746C107.832 68.1654 107.827 68.153 107.827 68.1399V67.4294C107.827 67.4164 107.832 67.4039 107.841 67.3947C107.85 67.3855 107.863 67.3804 107.876 67.3804H111.195C111.208 67.3804 111.22 67.3855 111.23 67.3947C111.239 67.4039 111.244 67.4164 111.244 67.4294V68.1399C111.244 68.153 111.239 68.1654 111.23 68.1746C111.22 68.1838 111.208 68.189 111.195 68.189H110.067C110.054 68.189 110.042 68.1942 110.032 68.2034C110.023 68.2125 110.018 68.225 110.018 68.238Z" fill="#9D9DA6"/>
<path d="M114.687 69.1437V67.4169C114.687 67.4121 114.688 67.4073 114.69 67.4029C114.691 67.3985 114.694 67.3945 114.698 67.3911C114.701 67.3877 114.705 67.385 114.709 67.3832C114.714 67.3813 114.719 67.3804 114.723 67.3804H115.615C115.625 67.3804 115.634 67.3842 115.641 67.3911C115.648 67.3979 115.652 67.4072 115.652 67.4169V71.9608C115.652 71.9705 115.648 71.9798 115.641 71.9866C115.634 71.9935 115.625 71.9973 115.615 71.9973H114.723C114.719 71.9973 114.714 71.9964 114.709 71.9945C114.705 71.9927 114.701 71.99 114.698 71.9866C114.694 71.9832 114.691 71.9792 114.69 71.9748C114.688 71.9703 114.687 71.9656 114.687 71.9608V70.0514C114.687 70.0417 114.683 70.0324 114.676 70.0256C114.669 70.0187 114.66 70.0149 114.65 70.0149H112.924C112.914 70.0149 112.905 70.0187 112.898 70.0256C112.891 70.0324 112.887 70.0417 112.887 70.0514V71.9608C112.887 71.9705 112.883 71.9798 112.876 71.9866C112.869 71.9935 112.86 71.9973 112.85 71.9973H111.958C111.949 71.9973 111.939 71.9935 111.933 71.9866C111.926 71.9798 111.922 71.9705 111.922 71.9608V67.4169C111.922 67.4072 111.926 67.3979 111.933 67.3911C111.939 67.3842 111.949 67.3804 111.958 67.3804H112.85C112.86 67.3804 112.869 67.3842 112.876 67.3911C112.883 67.3979 112.887 67.4072 112.887 67.4169V69.1437C112.887 69.1534 112.891 69.1627 112.898 69.1695C112.905 69.1763 112.914 69.1802 112.924 69.1802H114.65C114.66 69.1802 114.669 69.1763 114.676 69.1695C114.683 69.1627 114.687 69.1534 114.687 69.1437Z" fill="#9D9DA6"/>
<path d="M117.791 68.237V69.1583C117.791 69.171 117.796 69.1832 117.805 69.1922C117.814 69.2012 117.826 69.2063 117.839 69.2063H119.282C119.295 69.2063 119.307 69.2113 119.316 69.2203C119.325 69.2293 119.33 69.2415 119.33 69.2543V69.9408C119.33 69.9535 119.325 69.9658 119.316 69.9748C119.307 69.9838 119.295 69.9888 119.282 69.9888H117.839C117.826 69.9888 117.814 69.9939 117.805 70.0029C117.796 70.0119 117.791 70.0241 117.791 70.0368V71.1407C117.791 71.1534 117.796 71.1656 117.805 71.1746C117.814 71.1836 117.826 71.1887 117.839 71.1887H119.386C119.399 71.1887 119.411 71.1938 119.42 71.2028C119.429 71.2118 119.434 71.224 119.434 71.2367V71.9493C119.434 71.9556 119.433 71.9619 119.431 71.9677C119.428 71.9735 119.425 71.9788 119.42 71.9833C119.416 71.9877 119.411 71.9912 119.405 71.9937C119.399 71.9961 119.393 71.9973 119.386 71.9973H116.874C116.868 71.9973 116.861 71.9961 116.856 71.9937C116.85 71.9912 116.844 71.9877 116.84 71.9833C116.836 71.9788 116.832 71.9735 116.83 71.9677C116.827 71.9619 116.826 71.9556 116.826 71.9493V67.4284C116.826 67.4156 116.831 67.4034 116.84 67.3944C116.849 67.3854 116.861 67.3804 116.874 67.3804H119.386C119.399 67.3804 119.411 67.3854 119.42 67.3944C119.429 67.4034 119.434 67.4156 119.434 67.4284V68.141C119.434 68.1537 119.429 68.1659 119.42 68.1749C119.411 68.1839 119.399 68.189 119.386 68.189H117.839C117.826 68.189 117.814 68.194 117.805 68.203C117.796 68.212 117.791 68.2243 117.791 68.237Z" fill="#9D9DA6"/>
<path d="M122.701 70.0456L123.949 71.9268C123.981 71.9741 123.969 71.9978 123.912 71.9978H123C122.955 71.9978 122.921 71.9787 122.897 71.9404L121.882 70.2794C121.859 70.2425 121.826 70.2241 121.783 70.2241H121.391C121.356 70.2241 121.339 70.2414 121.339 70.2762V71.9456C121.339 71.9804 121.321 71.9978 121.286 71.9978H120.452C120.4 71.9978 120.374 71.9717 120.374 71.9195V67.457C120.374 67.4125 120.396 67.3896 120.44 67.3882C121.419 67.36 123.287 67.1252 123.485 68.4868C123.579 69.1393 123.324 69.6342 122.719 69.9716C122.686 69.9896 122.68 70.0143 122.701 70.0456ZM121.333 68.2218V69.4008C121.333 69.4108 121.337 69.4203 121.344 69.4274C121.351 69.4344 121.361 69.4384 121.371 69.4384H121.784C121.985 69.4384 122.177 69.3782 122.318 69.2709C122.46 69.1637 122.54 69.0183 122.54 68.8666V68.756C122.54 68.6044 122.46 68.4589 122.318 68.3517C122.177 68.2445 121.985 68.1843 121.784 68.1843H121.371C121.361 68.1843 121.351 68.1882 121.344 68.1953C121.337 68.2023 121.333 68.2119 121.333 68.2218Z" fill="#9D9DA6"/>
<path d="M125.512 68.237V69.1583C125.512 69.1646 125.513 69.1708 125.516 69.1767C125.518 69.1825 125.522 69.1878 125.526 69.1922C125.531 69.1967 125.536 69.2002 125.542 69.2026C125.547 69.205 125.554 69.2063 125.56 69.2063H127.003C127.016 69.2063 127.028 69.2113 127.037 69.2203C127.046 69.2293 127.051 69.2415 127.051 69.2543V69.9408C127.051 69.9535 127.046 69.9658 127.037 69.9748C127.028 69.9838 127.016 69.9888 127.003 69.9888H125.56C125.554 69.9888 125.547 69.9901 125.542 69.9925C125.536 69.9949 125.531 69.9984 125.526 70.0029C125.522 70.0073 125.518 70.0126 125.516 70.0184C125.513 70.0243 125.512 70.0305 125.512 70.0368V71.1407C125.512 71.147 125.513 71.1532 125.516 71.1591C125.518 71.1649 125.522 71.1702 125.526 71.1746C125.531 71.1791 125.536 71.1826 125.542 71.185C125.547 71.1875 125.554 71.1887 125.56 71.1887H127.107C127.114 71.1887 127.12 71.1899 127.126 71.1923C127.132 71.1948 127.137 71.1983 127.141 71.2028C127.146 71.2072 127.149 71.2125 127.152 71.2183C127.154 71.2241 127.155 71.2304 127.155 71.2367V71.9493C127.155 71.9556 127.154 71.9619 127.152 71.9677C127.149 71.9735 127.146 71.9788 127.141 71.9833C127.137 71.9877 127.132 71.9912 127.126 71.9937C127.12 71.9961 127.114 71.9973 127.107 71.9973H124.595C124.589 71.9973 124.582 71.9961 124.577 71.9937C124.571 71.9912 124.565 71.9877 124.561 71.9833C124.556 71.9788 124.553 71.9735 124.551 71.9677C124.548 71.9619 124.547 71.9556 124.547 71.9493V67.4284C124.547 67.4156 124.552 67.4034 124.561 67.3944C124.57 67.3854 124.582 67.3804 124.595 67.3804H127.107C127.114 67.3804 127.12 67.3816 127.126 67.384C127.132 67.3864 127.137 67.39 127.141 67.3944C127.146 67.3989 127.149 67.4042 127.152 67.41C127.154 67.4158 127.155 67.4221 127.155 67.4284V68.141C127.155 68.1473 127.154 68.1535 127.152 68.1594C127.149 68.1652 127.146 68.1705 127.141 68.1749C127.137 68.1794 127.132 68.1829 127.126 68.1853C127.12 68.1877 127.114 68.189 127.107 68.189H125.56C125.554 68.189 125.547 68.1902 125.542 68.1926C125.536 68.1951 125.531 68.1986 125.526 68.203C125.522 68.2075 125.518 68.2128 125.516 68.2186C125.513 68.2244 125.512 68.2307 125.512 68.237Z" fill="#9D9DA6"/>
<path d="M129.138 70.4312C129.137 71.5007 130.903 71.5789 130.921 70.3717C130.936 69.3937 130.941 68.4147 130.938 67.4346C130.938 67.3985 130.955 67.3804 130.991 67.3804H131.845C131.882 67.3804 131.9 67.3985 131.9 67.4346C131.907 68.3841 131.906 69.3304 131.899 70.2737C131.888 71.6123 130.978 72.1236 129.743 72.0286C128.494 71.9326 128.17 71.1678 128.172 70.0431C128.173 69.1785 128.173 68.3152 128.173 67.4534C128.173 67.4047 128.197 67.3804 128.245 67.3804H129.066C129.113 67.3804 129.137 67.404 129.137 67.4513C129.138 68.4481 129.139 69.4414 129.138 70.4312Z" fill="#9D9DA6"/>
<path d="M133.826 68.453L133.873 71.9253C133.873 71.9733 133.849 71.9973 133.801 71.9973H133.05C133.016 71.9973 132.998 71.9799 132.998 71.9451V67.4231C132.998 67.412 133.003 67.4013 133.01 67.3933C133.018 67.3853 133.029 67.3806 133.04 67.3804H134.241C134.285 67.3804 134.314 67.4019 134.328 67.4451L135.339 70.762C135.376 70.8851 135.414 70.8854 135.453 70.763L136.526 67.4336C136.537 67.3981 136.561 67.3804 136.599 67.3804H137.772C137.824 67.3804 137.85 67.4065 137.85 67.4586V71.9451C137.85 71.9799 137.833 71.9973 137.798 71.9973H137.026C136.98 71.9973 136.957 71.9744 136.957 71.9284L136.977 68.5051C136.977 68.4203 136.965 68.4182 136.938 68.4989L135.822 71.941C135.809 71.9785 135.783 71.9973 135.743 71.9973H134.991C134.945 71.9973 134.914 71.9751 134.9 71.9305L133.849 68.4498C133.833 68.397 133.825 68.398 133.826 68.453Z" fill="#9D9DA6"/>
<path d="M145.91 68.238V71.9483C145.91 71.9613 145.905 71.9738 145.896 71.9829C145.887 71.9921 145.874 71.9973 145.861 71.9973H144.994C144.981 71.9973 144.969 71.9921 144.959 71.9829C144.95 71.9738 144.945 71.9613 144.945 71.9483V68.238C144.945 68.225 144.94 68.2125 144.931 68.2034C144.921 68.1942 144.909 68.189 144.896 68.189H143.768C143.755 68.189 143.743 68.1838 143.733 68.1746C143.724 68.1654 143.719 68.153 143.719 68.1399V67.4294C143.719 67.4164 143.724 67.4039 143.733 67.3947C143.743 67.3855 143.755 67.3804 143.768 67.3804H147.087C147.1 67.3804 147.112 67.3855 147.122 67.3947C147.131 67.4039 147.136 67.4164 147.136 67.4294V68.1399C147.136 68.153 147.131 68.1654 147.122 68.1746C147.112 68.1838 147.1 68.189 147.087 68.189H145.959C145.946 68.189 145.934 68.1942 145.924 68.2034C145.915 68.2125 145.91 68.225 145.91 68.238Z" fill="#9D9DA6"/>
<path d="M153.178 69.4358L154.72 67.4263C154.744 67.3957 154.775 67.3804 154.813 67.3804H155.77C155.776 67.3803 155.782 67.3819 155.787 67.3851C155.793 67.3882 155.797 67.3928 155.8 67.3983C155.802 67.4037 155.803 67.4098 155.803 67.4159C155.802 67.422 155.8 67.4277 155.796 67.4325L154.282 69.3826C154.261 69.4097 154.26 69.4379 154.278 69.4671L155.808 71.9295C155.835 71.9747 155.823 71.9973 155.77 71.9973H154.807C154.772 71.9973 154.744 71.982 154.726 71.9514L153.593 70.0921C153.575 70.0643 153.554 70.0598 153.528 70.0785L153.207 70.3123C153.177 70.3345 153.162 70.3641 153.162 70.4009V71.9191C153.162 71.9712 153.136 71.9973 153.083 71.9973H152.249C152.214 71.9973 152.197 71.9799 152.197 71.9451V67.4325C152.197 67.3978 152.214 67.3804 152.249 67.3804H153.096C153.14 67.3804 153.162 67.4023 153.162 67.4461V69.4306C153.162 69.4325 153.162 69.4343 153.164 69.4358C153.165 69.4373 153.166 69.4384 153.168 69.4389C153.17 69.4395 153.172 69.4395 153.174 69.4389C153.176 69.4384 153.177 69.4373 153.178 69.4358Z" fill="#9D9DA6"/>
<path d="M157.407 67.3804H156.507C156.49 67.3804 156.475 67.3949 156.475 67.4127V71.9639C156.475 71.9818 156.49 71.9963 156.507 71.9963H157.407C157.425 71.9963 157.439 71.9818 157.439 71.9639V67.4127C157.439 67.3949 157.425 67.3804 157.407 67.3804Z" fill="#9D9DA6"/>
<path d="M159.389 68.5521L159.434 71.9253C159.435 71.9733 159.411 71.9973 159.363 71.9973H158.639C158.587 71.9973 158.561 71.9712 158.561 71.9191V67.4586C158.561 67.4065 158.587 67.3804 158.639 67.3804H159.732C159.745 67.3804 159.758 67.3839 159.77 67.3907C159.781 67.3975 159.791 67.4073 159.797 67.419L161.727 70.8058C161.728 70.8082 161.73 70.8102 161.732 70.8113C161.734 70.8125 161.737 70.8128 161.74 70.8122C161.742 70.8116 161.745 70.8101 161.746 70.8079C161.748 70.8058 161.749 70.8032 161.749 70.8006L161.705 67.4524C161.704 67.4044 161.728 67.3804 161.776 67.3804H162.513C162.556 67.3804 162.578 67.4023 162.578 67.4461V71.9451C162.578 71.9799 162.561 71.9973 162.526 71.9973H161.433C161.414 71.9973 161.394 71.9921 161.377 71.9822C161.36 71.9723 161.346 71.9581 161.336 71.941L159.41 68.5458C159.396 68.5208 159.389 68.5229 159.389 68.5521Z" fill="#9D9DA6"/>
<path d="M170.899 70.4293V71.9453C170.899 71.9591 170.893 71.9724 170.884 71.9822C170.874 71.992 170.861 71.9975 170.847 71.9975H169.986C169.951 71.9975 169.934 71.9801 169.934 71.9453V67.4316C169.934 67.4199 169.938 67.4087 169.946 67.4003C169.954 67.3919 169.965 67.3871 169.977 67.3868C171.192 67.3503 173.431 67.1228 173.04 69.1814C172.845 70.2039 171.964 70.3437 170.967 70.3604C170.922 70.3611 170.899 70.3841 170.899 70.4293ZM170.895 68.2361L170.893 69.4986C170.893 69.5119 170.898 69.5246 170.907 69.534C170.917 69.5434 170.93 69.5487 170.943 69.5487L171.423 69.5497C171.512 69.5498 171.599 69.5331 171.682 69.5004C171.764 69.4677 171.838 69.4197 171.901 69.3591C171.964 69.2986 172.014 69.2267 172.048 69.1475C172.082 69.0683 172.1 68.9834 172.1 68.8976V68.8412C172.1 68.668 172.029 68.5018 171.903 68.3791C171.776 68.2564 171.604 68.1873 171.425 68.187L170.945 68.186C170.932 68.186 170.919 68.1913 170.909 68.2007C170.9 68.2101 170.895 68.2228 170.895 68.2361Z" fill="#9D9DA6"/>
<path d="M176.329 70.0432L177.595 71.9505C177.598 71.9548 177.6 71.9599 177.6 71.9652C177.6 71.9705 177.599 71.9757 177.597 71.9804C177.594 71.9851 177.59 71.9891 177.586 71.9919C177.581 71.9947 177.576 71.9963 177.57 71.9964L176.618 71.9974C176.581 71.9974 176.554 71.9821 176.535 71.9515L175.511 70.279C175.488 70.2421 175.455 70.2237 175.411 70.2237H175.02C174.985 70.2237 174.968 70.2411 174.968 70.2759V71.9453C174.968 71.9801 174.951 71.9974 174.916 71.9974H174.068C174.024 71.9974 174.003 71.9755 174.003 71.9317V67.4598C174.003 67.4215 174.022 67.401 174.059 67.3982C175.072 67.3179 177.215 67.1447 177.134 68.7765C177.107 69.3274 176.837 69.7187 176.351 69.9608C176.312 69.9802 176.304 70.0077 176.329 70.0432ZM174.966 68.2215L174.964 69.4005C174.964 69.4104 174.968 69.42 174.975 69.427C174.982 69.4341 174.991 69.438 175.001 69.438L175.417 69.4391C175.515 69.4393 175.613 69.4246 175.704 69.3958C175.796 69.3671 175.878 69.3248 175.948 69.2715C176.018 69.2182 176.074 69.1549 176.112 69.0852C176.149 69.0155 176.169 68.9407 176.169 68.8652V68.7609C176.169 68.6085 176.09 68.4622 175.95 68.3542C175.809 68.2462 175.618 68.1853 175.419 68.1849L175.004 68.1839C174.994 68.1839 174.984 68.1879 174.977 68.1949C174.97 68.2019 174.966 68.2115 174.966 68.2215Z" fill="#9D9DA6"/>
<path d="M185.037 68.2318V71.9545C185.037 71.9659 185.032 71.9768 185.024 71.9848C185.016 71.9928 185.005 71.9973 184.994 71.9973H184.114C184.109 71.9973 184.103 71.9962 184.098 71.9941C184.093 71.9919 184.088 71.9888 184.084 71.9848C184.08 71.9808 184.077 71.9761 184.075 71.9709C184.073 71.9657 184.071 71.9601 184.071 71.9545V68.2318C184.071 68.2204 184.067 68.2095 184.059 68.2015C184.051 68.1935 184.04 68.189 184.029 68.189H182.888C182.877 68.189 182.866 68.1845 182.858 68.1765C182.85 68.1684 182.845 68.1576 182.845 68.1462V67.4231C182.845 67.4118 182.85 67.4009 182.858 67.3929C182.866 67.3849 182.877 67.3804 182.888 67.3804H186.22C186.231 67.3804 186.242 67.3849 186.25 67.3929C186.258 67.4009 186.263 67.4118 186.263 67.4231V68.1462C186.263 68.1576 186.258 68.1684 186.25 68.1765C186.242 68.1845 186.231 68.189 186.22 68.189H185.079C185.068 68.189 185.057 68.1935 185.049 68.2015C185.041 68.2095 185.037 68.2204 185.037 68.2318Z" fill="#9D9DA6"/>
<path d="M202.139 71.1887H203.905C203.911 71.1887 203.916 71.1898 203.921 71.192C203.927 71.1941 203.931 71.1973 203.935 71.2012C203.939 71.2052 203.942 71.2099 203.944 71.2151C203.947 71.2203 203.948 71.2259 203.948 71.2315V71.9545C203.948 71.9601 203.947 71.9657 203.944 71.9709C203.942 71.9761 203.939 71.9808 203.935 71.9848C203.931 71.9888 203.927 71.9919 203.921 71.9941C203.916 71.9962 203.911 71.9973 203.905 71.9973H201.173C201.162 71.9973 201.151 71.9928 201.143 71.9848C201.135 71.9768 201.131 71.9659 201.131 71.9545V67.4231C201.131 67.4118 201.135 67.4009 201.143 67.3929C201.151 67.3849 201.162 67.3804 201.173 67.3804H202.053C202.064 67.3804 202.075 67.3849 202.083 67.3929C202.091 67.4009 202.096 67.4118 202.096 67.4231V71.1459C202.096 71.1573 202.1 71.1681 202.108 71.1762C202.116 71.1842 202.127 71.1887 202.139 71.1887Z" fill="#9D9DA6"/>
</g>
<rect x="0.5" y="0.5" width="239" height="119" stroke="#2E2E33"/>
<defs>
<clipPath id="clip0_33124_128376">
<rect width="178" height="24.102" fill="white" transform="translate(26 48)"/>
</clipPath>
</defs>
</svg>
