<svg width="240" height="80" viewBox="0 0 240 80" fill="none" xmlns="http://www.w3.org/2000/svg">
<rect x="0.5" y="0.5" width="239" height="79" fill="#17171A"/>
<path d="M62.8524 50.9185C59.5116 52.3648 56.0139 52.3761 52.6116 51.1721C49.1528 49.9493 46.3958 46.9575 45.2156 43.4761C44.3305 40.866 44.5502 38.3476 45.3952 35.7601C46.3569 32.816 48.2438 30.4808 50.977 29.0835C54.0403 27.5167 57.6221 27.1413 60.909 28.2574C61.268 28.3792 61.7777 28.4394 62.0527 28.2511C63.4956 27.2626 64.9394 26.2767 66.384 25.2932C66.6284 25.1267 66.8364 24.9702 67.008 24.8237C67.1151 24.7325 67.108 24.6513 66.9867 24.5801C64.1179 22.884 60.9692 21.9587 57.6673 22.0014C53.2682 22.0579 49.3147 23.3134 45.8785 26.0729C42.6219 28.6884 40.4993 31.9581 39.5108 35.8818C38.0281 41.7687 39.8284 48.1979 44.1937 52.4201C48.1241 56.2216 52.8673 57.9805 58.4231 57.6968C61.1852 57.5562 64.0087 56.7401 66.3652 55.3779C66.5347 55.2813 66.5121 55.0101 66.4016 54.8544C65.527 53.6216 64.649 52.3883 63.7676 51.1546C63.5375 50.8332 63.2324 50.7545 62.8524 50.9185Z" fill="#9D9DA6"/>
<path d="M73.1622 30.6201C72.1127 28.9667 70.6827 27.4099 69.259 26.2361C69.2213 26.2059 69.1803 26.1997 69.136 26.2172C68.6898 26.3905 68.2676 26.6114 67.8692 26.8801C64.0392 29.4614 60.2134 32.0493 56.3917 34.6439C55.8519 35.0105 55.3623 35.4349 55.8494 36.1316C56.8219 37.5244 57.8071 38.9096 58.8047 40.2872C58.829 40.3215 58.8617 40.3446 58.9027 40.3563C59.1102 40.4149 59.3073 40.381 59.494 40.2546C64.0321 37.2013 68.561 34.1338 73.0806 31.052C73.2455 30.939 73.2727 30.7951 73.1622 30.6201Z" fill="#9D9DA6"/>
<path d="M103.661 44.7325C99.2722 48.7036 91.1933 47.5925 90.2429 40.8971C90.1098 39.958 90.1441 39.0545 90.3458 38.1865C91.6289 32.6763 97.915 31.4409 102.293 33.9858C102.76 34.2569 103.244 34.6863 103.704 35.0454C103.743 35.0763 103.777 35.0717 103.806 35.0316L106.809 30.8546C106.831 30.8237 106.828 30.7965 106.797 30.773C104.369 28.8421 101.943 27.6507 98.8127 27.4071C95.2434 27.1284 91.4896 27.9947 88.6547 30.1189C81.5187 35.4672 82.4577 46.45 90.204 50.6094C91.7348 51.4313 93.4435 51.9732 95.33 52.2352C99.6329 52.8336 103.43 51.7682 106.721 49.0388C106.735 49.0271 106.737 49.0137 106.726 48.9986L103.742 44.7426C103.718 44.7091 103.691 44.7058 103.661 44.7325Z" fill="#9D9DA6"/>
<path d="M126.079 42.3564C126.064 47.7624 118.553 48.6789 117.181 43.7098C117.027 43.1486 116.985 42.4631 116.985 41.8793C116.988 37.2357 116.988 32.5905 116.985 27.9436C116.985 27.9018 116.964 27.8809 116.921 27.8809H111.496C111.455 27.8809 111.434 27.9018 111.434 27.9436C111.429 32.4734 111.429 37.0031 111.435 41.5328C111.436 42.9753 111.509 44.1379 111.872 45.3632C113.085 49.451 116.631 51.9506 120.848 52.1126C122.533 52.1766 124.126 52.0322 125.677 51.3945C129.195 49.9482 131.554 46.7555 131.627 42.7707C131.717 37.8267 131.679 32.8789 131.674 27.9386C131.674 27.9233 131.668 27.9086 131.657 27.8978C131.646 27.8869 131.631 27.8809 131.615 27.8809H126.179C126.116 27.8809 126.085 27.9122 126.085 27.975C126.094 32.7734 126.092 37.5672 126.079 42.3564Z" fill="#9D9DA6"/>
<path d="M169.718 39.7764C169.714 39.7836 169.709 39.7897 169.702 39.794C169.696 39.7983 169.688 39.8006 169.68 39.8006C169.672 39.8006 169.664 39.7983 169.658 39.794C169.651 39.7897 169.646 39.7836 169.642 39.7764L164.234 27.9047C164.23 27.8976 164.225 27.8915 164.218 27.8873C164.212 27.8831 164.204 27.8808 164.196 27.8809H158.103C158.096 27.881 158.09 27.8829 158.084 27.8864C158.078 27.8898 158.073 27.8947 158.069 27.9005C158.066 27.9064 158.063 27.913 158.063 27.9199C158.063 27.9268 158.064 27.9336 158.067 27.9399L169.644 52.0712C169.647 52.0784 169.652 52.0845 169.659 52.0888C169.666 52.093 169.673 52.0953 169.681 52.0953C169.689 52.0953 169.697 52.093 169.704 52.0888C169.71 52.0845 169.716 52.0784 169.719 52.0712L181.298 27.9399C181.301 27.9336 181.302 27.9268 181.302 27.9199C181.301 27.913 181.299 27.9064 181.296 27.9005C181.292 27.8947 181.287 27.8898 181.281 27.8864C181.275 27.8829 181.268 27.881 181.262 27.8809H175.165C175.157 27.8808 175.149 27.8831 175.143 27.8873C175.136 27.8915 175.131 27.8976 175.127 27.9047L169.718 39.7764Z" fill="#9D9DA6"/>
<path d="M191.293 46.5559C191.281 46.5559 191.269 46.5511 191.261 46.5427C191.252 46.5342 191.247 46.5227 191.247 46.5107V42.5522C191.247 42.5463 191.248 42.5404 191.251 42.5349C191.253 42.5294 191.256 42.5245 191.261 42.5203C191.265 42.5161 191.27 42.5127 191.275 42.5105C191.281 42.5082 191.287 42.507 191.293 42.507H198.86C198.872 42.507 198.884 42.5023 198.892 42.4938C198.901 42.4853 198.906 42.4738 198.906 42.4618V37.342C198.906 37.3301 198.901 37.3186 198.892 37.3101C198.884 37.3016 198.872 37.2968 198.86 37.2968H191.319C191.307 37.2968 191.295 37.2921 191.287 37.2836C191.278 37.2751 191.274 37.2636 191.274 37.2516L191.247 33.2618C191.247 33.2498 191.252 33.2383 191.261 33.2298C191.269 33.2213 191.281 33.2166 191.293 33.2166H200.923C200.929 33.2166 200.935 33.2154 200.94 33.2131C200.946 33.2109 200.951 33.2075 200.955 33.2033C200.959 33.1992 200.963 33.1942 200.965 33.1887C200.967 33.1832 200.968 33.1773 200.968 33.1714L201 27.9261C201 27.9201 200.999 27.9142 200.996 27.9088C200.994 27.9033 200.991 27.8983 200.987 27.8941C200.982 27.8899 200.977 27.8866 200.972 27.8843C200.966 27.882 200.961 27.8809 200.955 27.8809H185.737C185.725 27.8809 185.714 27.8856 185.705 27.8941C185.697 27.9026 185.692 27.9141 185.692 27.9261V51.8464C185.692 51.8584 185.697 51.8699 185.705 51.8784C185.714 51.8869 185.725 51.8916 185.737 51.8916H200.934C200.946 51.8916 200.958 51.8869 200.966 51.8784C200.975 51.8699 200.98 51.8584 200.98 51.8464L200.986 46.6011C200.986 46.5891 200.981 46.5776 200.973 46.5691C200.964 46.5607 200.953 46.5559 200.941 46.5559H191.293Z" fill="#9D9DA6"/>
<path d="M68.6124 44.5083C69.9365 43.6387 72.1578 42.1305 75.2764 39.9836C75.5024 39.828 75.7158 39.6271 75.7108 39.3685C75.6647 37.4074 75.2764 35.4167 74.5457 33.3962C74.4821 33.2213 74.395 33.092 74.2846 33.0083C74.2293 32.9664 74.1728 32.9648 74.1151 33.0033C69.8624 35.8624 65.6457 38.7169 61.465 41.5668C60.9791 41.8982 60.3163 42.3502 60.7707 43.0131C61.3566 43.8685 62.3405 45.2298 63.7223 47.0971C63.9609 47.4185 64.2643 47.4474 64.6325 47.1837C65.3364 46.6799 66.6631 45.7881 68.6124 44.5083Z" fill="#9D9DA6"/>
<path d="M70.3539 52.3613C73.1293 49.6621 74.8196 46.3694 75.4247 42.4833C75.4314 42.4398 75.4164 42.4302 75.3795 42.4544C71.131 45.2608 67.9016 47.4508 65.6911 49.0243C65.4501 49.1963 65.5292 49.5328 65.6861 49.7625C66.5817 51.0774 67.5132 52.4007 68.4808 53.7323C68.5087 53.7712 68.5509 53.7975 68.5982 53.8055C68.6454 53.8134 68.6939 53.8025 68.7331 53.775C69.3119 53.3745 69.7601 52.9376 70.3539 52.3613Z" fill="#9D9DA6"/>
<path fill-rule="evenodd" clip-rule="evenodd" d="M151.705 51.8314L144.086 42.1229C144.083 42.1192 144.078 42.1165 144.073 42.1152C144.069 42.1139 144.064 42.1141 144.059 42.1157C144.054 42.1173 144.05 42.1203 144.047 42.1243C144.044 42.1283 144.042 42.133 144.042 42.138V51.8289C144.042 51.8708 144.021 51.8917 143.979 51.8917H138.518C138.476 51.8917 138.455 51.8708 138.455 51.8289V27.9412C138.455 27.9249 138.461 27.9092 138.473 27.8977C138.484 27.8862 138.499 27.8797 138.515 27.8797C141.578 27.8822 144.644 27.8818 147.714 27.8784C151.15 27.8747 154.338 30.2625 154.976 33.7201C155.6 37.1136 153.669 40.4645 150.417 41.6747C150.407 41.6783 150.399 41.6841 150.392 41.6916C150.385 41.6992 150.38 41.7083 150.377 41.7182C150.374 41.7281 150.374 41.7386 150.376 41.7487C150.378 41.7588 150.382 41.7683 150.388 41.7764L158.318 51.8151C158.359 51.8662 158.347 51.8917 158.281 51.8917H151.83C151.778 51.8917 151.737 51.8716 151.705 51.8314ZM144.045 37.5507L144.037 32.8473C144.037 32.8424 144.038 32.8375 144.04 32.8329C144.042 32.8283 144.045 32.8242 144.048 32.8207C144.052 32.8172 144.056 32.8144 144.06 32.8125C144.065 32.8106 144.07 32.8097 144.075 32.8097L147.209 32.8046C147.868 32.8036 148.5 33.052 148.967 33.4954C149.434 33.9388 149.697 34.5407 149.698 35.1689V35.2091C149.699 35.5203 149.635 35.8286 149.511 36.1164C149.387 36.4042 149.204 36.6658 148.973 36.8863C148.743 37.1067 148.469 37.2818 148.167 37.4014C147.866 37.521 147.543 37.5829 147.216 37.5834L144.082 37.5884C144.072 37.5884 144.063 37.5844 144.056 37.5774C144.049 37.5703 144.045 37.5607 144.045 37.5507Z" fill="#9D9DA6"/>
<rect x="0.5" y="0.5" width="239" height="79" stroke="#2E2E33"/>
</svg>
