<svg width="240" height="80" viewBox="0 0 240 80" fill="none" xmlns="http://www.w3.org/2000/svg">
<rect x="0.5" y="0.5" width="239" height="79" fill="#17171A"/>
<g clip-path="url(#clip0_33149_130544)">
<path d="M52.5741 50C50.3486 50 48.5252 49.4815 47.1039 48.4444C45.7013 47.3889 45 45.8889 45 43.9444C45 43.537 45.0468 43.037 45.1403 42.4444C45.3834 41.1111 45.7294 39.5093 46.1782 37.6389C47.4499 32.5463 50.732 30 56.0245 30C57.4645 30 58.7549 30.2407 59.8957 30.7222C61.0365 31.1852 61.9341 31.8889 62.5887 32.8333C63.2432 33.7593 63.5705 34.8704 63.5705 36.1667C63.5705 36.5556 63.5238 37.0463 63.4303 37.6389C63.1497 39.287 62.8131 40.8889 62.4204 42.4444C61.7658 44.9815 60.6344 46.8796 59.0261 48.1389C57.4177 49.3796 55.2671 50 52.5741 50ZM52.9668 46C54.0141 46 54.9024 45.6944 55.6318 45.0833C56.3798 44.4722 56.9128 43.537 57.2307 42.2778C57.6609 40.537 57.9881 39.0185 58.2126 37.7222C58.2874 37.3333 58.3248 36.9352 58.3248 36.5278C58.3248 34.8426 57.4364 34 55.6598 34C54.6125 34 53.7149 34.3056 52.9668 34.9167C52.2375 35.5278 51.7138 36.463 51.3959 37.7222C51.0593 38.963 50.7226 40.4815 50.386 42.2778C50.3112 42.6481 50.2738 43.037 50.2738 43.4444C50.2738 45.1481 51.1715 46 52.9668 46Z" fill="#9D9DA6"/>
<path d="M66.417 49.7223C66.2112 49.7223 66.0523 49.6575 65.9401 49.5279C65.8466 49.3797 65.8185 49.2131 65.8559 49.0279L69.7271 30.9723C69.7645 30.7686 69.8674 30.6019 70.0357 30.4723C70.204 30.3426 70.3817 30.2778 70.5687 30.2778H78.0305C80.1064 30.2778 81.7708 30.7038 83.0238 31.5556C84.2955 32.4075 84.9314 33.6389 84.9314 35.2501C84.9314 35.713 84.8753 36.1945 84.7631 36.6945C84.2955 38.8241 83.3511 40.3982 81.9298 41.4168C80.5272 42.4353 78.6009 42.9445 76.151 42.9445H72.364L71.0736 49.0279C71.0362 49.2316 70.9333 49.3982 70.765 49.5279C70.5967 49.6575 70.4191 49.7223 70.232 49.7223H66.417ZM76.3474 39.1112C77.1329 39.1112 77.8155 38.8982 78.3952 38.4723C78.9937 38.0464 79.3864 37.4352 79.5734 36.6389C79.6295 36.3241 79.6576 36.0464 79.6576 35.8056C79.6576 35.2686 79.4986 34.8612 79.1807 34.5834C78.8628 34.2871 78.3204 34.1389 77.5537 34.1389H74.1874L73.1214 39.1112H76.3474Z" fill="#9D9DA6"/>
<path d="M91.2517 49.7223C91.046 49.7223 90.887 49.6575 90.7748 49.5279C90.6626 49.3797 90.6252 49.2131 90.6626 49.0279L93.7764 34.6389H88.7831C88.5774 34.6389 88.4184 34.5741 88.3062 34.4445C88.2127 34.2964 88.1847 34.1297 88.2221 33.9445L88.8673 30.9723C88.9047 30.7686 89.0075 30.6019 89.1758 30.4723C89.3441 30.3426 89.5218 30.2778 89.7088 30.2778H104.801C105.007 30.2778 105.165 30.3426 105.278 30.4723C105.353 30.5834 105.39 30.6945 105.39 30.8056C105.39 30.8612 105.381 30.9167 105.362 30.9723L104.717 33.9445C104.679 34.1482 104.576 34.3149 104.408 34.4445C104.258 34.5741 104.081 34.6389 103.875 34.6389H98.9099L95.7961 49.0279C95.7587 49.2316 95.6559 49.3982 95.4876 49.5279C95.3192 49.6575 95.1416 49.7223 94.9546 49.7223H91.2517Z" fill="#9D9DA6"/>
<path d="M106.106 49.7223C105.9 49.7223 105.741 49.6575 105.629 49.5279C105.516 49.3797 105.479 49.2131 105.516 49.0279L109.416 30.9723C109.453 30.7686 109.556 30.6019 109.724 30.4723C109.893 30.3426 110.07 30.2778 110.257 30.2778H114.044C114.25 30.2778 114.409 30.3426 114.521 30.4723C114.596 30.5834 114.633 30.6945 114.633 30.8056C114.633 30.8612 114.624 30.9167 114.605 30.9723L110.734 49.0279C110.697 49.2316 110.594 49.3982 110.426 49.5279C110.257 49.6575 110.08 49.7223 109.893 49.7223H106.106Z" fill="#9D9DA6"/>
<path d="M116.787 49.7223C116.582 49.7223 116.423 49.6575 116.31 49.5279C116.198 49.3982 116.161 49.2316 116.198 49.0279L120.069 30.9723C120.107 30.7686 120.21 30.6019 120.378 30.4723C120.546 30.3426 120.733 30.2778 120.939 30.2778H123.969C124.417 30.2778 124.707 30.4815 124.838 30.8889L127.896 39.6389L134.713 30.8889C134.806 30.7408 134.937 30.6019 135.105 30.4723C135.292 30.3426 135.517 30.2778 135.779 30.2778H138.836C139.042 30.2778 139.201 30.3426 139.313 30.4723C139.388 30.5834 139.425 30.6945 139.425 30.8056C139.425 30.8612 139.416 30.9167 139.397 30.9723L135.526 49.0279C135.489 49.2316 135.386 49.3982 135.217 49.5279C135.049 49.6575 134.872 49.7223 134.684 49.7223H131.29C131.084 49.7223 130.926 49.6575 130.813 49.5279C130.72 49.3797 130.692 49.2131 130.729 49.0279L132.917 38.7778L128.625 44.4168C128.438 44.6205 128.261 44.7779 128.092 44.889C127.924 45.0001 127.728 45.0557 127.503 45.0557H126.044C125.652 45.0557 125.381 44.8427 125.231 44.4168L123.239 38.5278L120.995 49.0279C120.958 49.2316 120.855 49.3982 120.686 49.5279C120.518 49.6575 120.34 49.7223 120.153 49.7223H116.787Z" fill="#9D9DA6"/>
<path d="M141.548 49.7223C141.343 49.7223 141.184 49.6575 141.072 49.5279C140.959 49.3797 140.922 49.2131 140.959 49.0279L144.859 30.9723C144.896 30.7686 144.999 30.6019 145.167 30.4723C145.335 30.3426 145.513 30.2778 145.7 30.2778H149.487C149.693 30.2778 149.852 30.3426 149.964 30.4723C150.039 30.5834 150.076 30.6945 150.076 30.8056C150.076 30.8612 150.067 30.9167 150.048 30.9723L146.177 49.0279C146.14 49.2316 146.037 49.3982 145.868 49.5279C145.7 49.6575 145.522 49.7223 145.335 49.7223H141.548Z" fill="#9D9DA6"/>
<path d="M159.159 50C157.513 50 156.101 49.7778 154.923 49.3333C153.763 48.8889 152.884 48.2963 152.286 47.5556C151.706 46.8148 151.416 45.9907 151.416 45.0833C151.416 44.9352 151.435 44.713 151.472 44.4167C151.51 44.25 151.585 44.1111 151.697 44C151.828 43.8889 151.977 43.8333 152.146 43.8333H155.736C155.961 43.8333 156.129 43.8704 156.241 43.9444C156.372 44.0185 156.503 44.1481 156.634 44.3333C156.765 44.8148 157.064 45.213 157.532 45.5278C158.018 45.8426 158.682 46 159.523 46C160.589 46 161.45 45.8333 162.104 45.5C162.759 45.1667 163.152 44.713 163.282 44.1389C163.301 44.0648 163.31 43.9537 163.31 43.8056C163.31 43.3426 163.021 42.9815 162.441 42.7222C161.861 42.4444 160.795 42.1204 159.243 41.75C157.429 41.3611 156.054 40.7778 155.119 40C154.184 39.2037 153.717 38.1667 153.717 36.8889C153.717 36.4444 153.773 35.9907 153.885 35.5278C154.259 33.8056 155.185 32.4537 156.662 31.4722C158.158 30.4907 160.084 30 162.441 30C163.862 30 165.125 30.25 166.228 30.75C167.331 31.25 168.182 31.8889 168.781 32.6667C169.398 33.4259 169.706 34.1852 169.706 34.9444C169.706 35.1667 169.697 35.3241 169.678 35.4167C169.641 35.5833 169.557 35.7222 169.426 35.8333C169.314 35.9445 169.173 36 169.005 36H165.246C164.835 36 164.554 35.8426 164.405 35.5278C164.386 35.1019 164.161 34.7407 163.731 34.4444C163.301 34.1481 162.74 34 162.048 34C161.225 34 160.543 34.1481 160 34.4444C159.477 34.7407 159.149 35.1759 159.019 35.75C159 35.8426 158.99 35.963 158.99 36.1111C158.99 36.5556 159.252 36.9259 159.776 37.2222C160.318 37.5 161.263 37.787 162.609 38.0833C164.704 38.4907 166.228 39.0741 167.182 39.8333C168.154 40.5926 168.64 41.6019 168.64 42.8611C168.64 43.287 168.584 43.75 168.472 44.25C168.061 46.1389 167.06 47.5741 165.47 48.5556C163.9 49.5185 161.796 50 159.159 50Z" fill="#9D9DA6"/>
<path d="M172.362 49.7223C172.156 49.7223 171.997 49.6575 171.885 49.5279C171.773 49.3982 171.735 49.2316 171.773 49.0279L175.644 30.9723C175.681 30.7686 175.784 30.6019 175.953 30.4723C176.121 30.3426 176.308 30.2778 176.514 30.2778H179.543C179.992 30.2778 180.282 30.4815 180.413 30.8889L183.471 39.6389L190.287 30.8889C190.381 30.7408 190.512 30.6019 190.68 30.4723C190.867 30.3426 191.091 30.2778 191.353 30.2778H194.411C194.617 30.2778 194.776 30.3426 194.888 30.4723C194.963 30.5834 195 30.6945 195 30.8056C195 30.8612 194.991 30.9167 194.972 30.9723L191.101 49.0279C191.063 49.2316 190.96 49.3982 190.792 49.5279C190.624 49.6575 190.446 49.7223 190.259 49.7223H186.865C186.659 49.7223 186.5 49.6575 186.388 49.5279C186.294 49.3797 186.266 49.2131 186.304 49.0279L188.492 38.7778L184.2 44.4168C184.013 44.6205 183.835 44.7779 183.667 44.889C183.499 45.0001 183.302 45.0557 183.078 45.0557H181.619C181.226 45.0557 180.955 44.8427 180.806 44.4168L178.814 38.5278L176.57 49.0279C176.532 49.2316 176.429 49.3982 176.261 49.5279C176.093 49.6575 175.915 49.7223 175.728 49.7223H172.362Z" fill="#9D9DA6"/>
</g>
<rect x="0.5" y="0.5" width="239" height="79" stroke="#2E2E33"/>
<defs>
<clipPath id="clip0_33149_130544">
<rect width="150" height="20" fill="white" transform="translate(45 30)"/>
</clipPath>
</defs>
</svg>
