<svg width="240" height="80" viewBox="0 0 240 80" fill="none" xmlns="http://www.w3.org/2000/svg">
<rect x="0.5" y="0.5" width="239" height="79" fill="#17171A"/>
<path d="M93.5835 31.6597H96.9077V45.9262H105.08V49.1121H93.5835V31.6597Z" fill="#9D9DA6"/>
<path d="M119.611 31.6597H122.936V49.1121H119.611V31.6597Z" fill="#9D9DA6"/>
<path d="M138.849 31.6597H144.39C145.535 31.6597 146.624 31.8997 147.658 32.3799C148.693 32.8416 149.607 33.4695 150.401 34.2636C151.195 35.0578 151.823 35.9812 152.285 37.0338C152.746 38.0865 152.977 39.2038 152.977 40.3858C152.977 41.5679 152.746 42.6852 152.285 43.7378C151.823 44.7904 151.195 45.7138 150.401 46.5078C149.607 47.3022 148.693 47.9393 147.658 48.4195C146.624 48.8812 145.535 49.1121 144.39 49.1121H138.849V31.6597ZM144.39 45.9262C145.073 45.9262 145.728 45.7786 146.356 45.483C147.003 45.1874 147.566 44.7904 148.046 44.2916C148.545 43.7933 148.933 43.2113 149.21 42.5465C149.505 41.8631 149.653 41.143 149.653 40.3858C149.653 39.6286 149.505 38.9176 149.21 38.2527C148.933 37.5694 148.545 36.9785 148.046 36.4798C147.566 35.9812 147.003 35.5841 146.356 35.2886C145.728 34.9931 145.073 34.8454 144.39 34.8454H142.173V45.9262H144.39Z" fill="#9D9DA6"/>
<path d="M175.414 49.2503C174.268 49.2503 173.179 49.0287 172.145 48.5855C171.129 48.1237 170.233 47.4959 169.458 46.7019C168.7 45.8891 168.091 44.9471 167.629 43.876C167.186 42.8049 166.964 41.6413 166.964 40.3857C166.964 39.1483 167.186 37.994 167.629 36.9229C168.091 35.8333 168.7 34.8914 169.458 34.0973C170.233 33.2847 171.129 32.6568 172.145 32.2136C173.179 31.7519 174.268 31.521 175.414 31.521C176.559 31.521 177.639 31.7519 178.655 32.2136C179.689 32.6568 180.585 33.2847 181.342 34.0973C182.118 34.8914 182.727 35.8333 183.17 36.9229C183.632 37.994 183.863 39.1483 183.863 40.3857C183.863 41.6413 183.632 42.8049 183.17 43.876C182.727 44.9471 182.118 45.8891 181.342 46.7019C180.585 47.4959 179.689 48.1237 178.655 48.5855C177.639 49.0287 176.559 49.2503 175.414 49.2503ZM175.414 46.0644C176.097 46.0644 176.752 45.9261 177.38 45.6489C178.008 45.3722 178.553 44.9841 179.015 44.4854C179.477 43.9685 179.846 43.3684 180.123 42.6851C180.4 41.9832 180.538 41.2167 180.538 40.3857C180.538 39.5546 180.4 38.7974 180.123 38.1141C179.846 37.4123 179.477 36.8121 179.015 36.3135C178.553 35.7963 178.008 35.3993 177.38 35.1223C176.752 34.8452 176.097 34.7067 175.414 34.7067C174.712 34.7067 174.047 34.8452 173.419 35.1223C172.81 35.3993 172.274 35.7963 171.812 36.3135C171.35 36.8121 170.981 37.4123 170.704 38.1141C170.427 38.7974 170.289 39.5546 170.289 40.3857C170.289 41.2167 170.427 41.9832 170.704 42.6851C170.981 43.3684 171.35 43.9685 171.812 44.4854C172.274 44.9841 172.81 45.3722 173.419 45.6489C174.047 45.9261 174.712 46.0644 175.414 46.0644Z" fill="#9D9DA6"/>
<path fill-rule="evenodd" clip-rule="evenodd" d="M67.3855 24.5835L75.0163 36.528L67.3851 40.9752L59.7549 36.5278L67.3855 24.5835ZM62.0908 35.963L67.3855 27.6751L72.6802 35.9631L67.3851 39.0489L62.0908 35.963Z" fill="#9D9DA6"/>
<path d="M67.3741 43.6008L58.5223 38.4415L58.2806 38.8199C55.5543 43.0874 56.1631 48.6764 59.7445 52.2573C63.9589 56.4707 70.7917 56.4707 75.0062 52.2573C78.5875 48.6764 79.1961 43.0874 76.47 38.8199L76.228 38.4414L67.3745 43.6012L67.3741 43.6008Z" fill="#9D9DA6"/>
<rect x="0.5" y="0.5" width="239" height="79" stroke="#2E2E33"/>
</svg>
