<svg width="240" height="120" viewBox="0 0 240 120" fill="none" xmlns="http://www.w3.org/2000/svg">
<rect x="0.5" y="0.5" width="239" height="119" fill="#17171A"/>
<path d="M61.4545 46.5483L31.7605 41.0864L47.3817 80.404L69.1508 53.8722L61.4545 46.5483ZM60.9776 48.9591L65.5182 53.2776L53.0984 55.5251L60.9776 48.9591ZM50.3936 55.0808L37.3008 44.2159L58.704 48.1555L50.3936 55.0808ZM49.4658 56.9951L47.336 74.6482L35.8242 45.6794L49.4658 56.9951ZM51.4389 57.9294L65.1916 55.4402L49.4136 74.6612L51.4389 57.9294Z" fill="#9D9DA6"/>
<path d="M85.9222 53.0288H83.5571V70.6884H85.9222V53.0288Z" fill="#9D9DA6"/>
<path d="M81.7215 51.0103H79.3499V54.7343H81.7215V51.0103Z" fill="#9D9DA6"/>
<path d="M81.721 56.7793H79.3494V61.2808H81.721V56.7793Z" fill="#9D9DA6"/>
<path d="M79.3364 70.695H81.7146V63.541H79.3495L79.3364 70.695Z" fill="#9D9DA6"/>
<path d="M97.5057 59.3731V57.8574H92.475V54.5907H95.0818V56.0607H97.5057V52.99H92.475V51.0039H90.11V52.99H87.4966V54.5907H90.11V59.4515H94.631L91.6976 64.0118L90.1426 62.2674H87.366L90.5281 65.8215L87.3986 70.6954H90.2014L92.168 67.6639L94.8532 70.6954H97.6298L93.3309 65.8542L97.5057 59.3731Z" fill="#9D9DA6"/>
<path d="M106.28 66.6512L107.286 65.2662H104.797V56.8708H106.587V55.2767H104.797V51.0039H102.412V55.2767H100.635V56.8708H102.412L102.406 66.6512H106.28Z" fill="#9D9DA6"/>
<path d="M107.371 60.3529H110.03L108.41 65.8409L103.693 70.6691H106.672L110.631 66.6249L112.473 60.3529H113.558L112.356 66.1937L108.566 70.6691H111.435L114.629 66.8732L115.969 60.3529H116.42V69.284H114.91V70.6691H118.798V58.7588H107.371V60.3529Z" fill="#9D9DA6"/>
<path d="M107.528 57.6026H110.723L117.452 52.3367V51.0039H107.371V52.598H113.911L107.528 57.6026Z" fill="#9D9DA6"/>
<path d="M133.302 56.8706H131.204V70.5971H133.302V56.8706Z" fill="#9D9DA6"/>
<path d="M142.717 51.0693H125.58V53.1665H142.717V51.0693Z" fill="#9D9DA6"/>
<path d="M137.098 56.8706H135.001V70.5971H137.098V56.8706Z" fill="#9D9DA6"/>
<path d="M195.173 70.6168H197.296V62.3522L195.173 59.9937V70.6168Z" fill="#9D9DA6"/>
<path d="M206.344 51.0694V66.39L191.331 49.7104V70.6171H193.454V55.2834L208.468 71.963V51.0694H206.344Z" fill="#9D9DA6"/>
<path d="M177.604 51.0566C172.214 51.0566 167.831 55.4405 167.831 60.8305C167.831 66.2205 172.214 70.6044 177.604 70.6044C182.994 70.6044 187.378 66.2205 187.378 60.8305C187.378 55.4405 182.994 51.0566 177.604 51.0566ZM177.604 68.5006C173.377 68.5006 169.934 65.0576 169.934 60.8305C169.934 56.6034 173.377 53.1604 177.604 53.1604C181.831 53.1604 185.275 56.6034 185.275 60.8305C185.275 65.0576 181.831 68.5006 177.604 68.5006Z" fill="#9D9DA6"/>
<path d="M177.605 59.4258C176.827 59.4258 176.2 60.0595 176.2 60.8304C176.2 61.6014 176.834 62.2351 177.605 62.2351C178.376 62.2351 179.01 61.6014 179.01 60.8304C179.01 60.0595 178.382 59.4258 177.605 59.4258Z" fill="#9D9DA6"/>
<path d="M164.145 57.0604C164.145 53.7545 161.473 51.0693 158.194 51.0693H147.009V70.6171H149.093V53.1927H158.187C160.291 53.1927 162.009 54.9305 162.009 57.0604C162.009 59.1837 160.317 60.9151 158.233 60.9347L150.811 60.9281V70.6105H152.895V63.0515H157.789L161.787 70.6105H164.217L160.049 62.7444C162.466 61.9539 164.145 59.628 164.145 57.0604Z" fill="#9D9DA6"/>
<rect x="0.5" y="0.5" width="239" height="119" stroke="#2E2E33"/>
</svg>
