<svg width="240" height="80" viewBox="0 0 240 80" fill="none" xmlns="http://www.w3.org/2000/svg">
<rect x="0.5" y="0.5" width="239" height="79" fill="#17171A"/>
<g clip-path="url(#clip0_33149_130443)">
<mask id="mask0_33149_130443" style="mask-type:luminance" maskUnits="userSpaceOnUse" x="34" y="27" width="173" height="26">
<path d="M34 27H206.146V52.582H34V27Z" fill="white"/>
</mask>
<g mask="url(#mask0_33149_130443)">
<path d="M62.9211 47.1699L58.1991 52.233C58.097 52.343 57.9733 52.4308 57.8358 52.4908C57.6982 52.5509 57.5498 52.582 57.3997 52.5821H35.0154C34.9087 52.5821 34.8042 52.5509 34.7149 52.4924C34.6256 52.4339 34.5553 52.3506 34.5126 52.2527C34.4699 52.1549 34.4567 52.0467 34.4745 51.9414C34.4924 51.8362 34.5405 51.7384 34.6131 51.6601L39.3297 46.597C39.4319 46.487 39.5556 46.3993 39.6931 46.3392C39.8306 46.2791 39.9791 46.2481 40.1292 46.2479H62.5134C62.6212 46.2457 62.7271 46.2754 62.8181 46.3332C62.909 46.3911 62.9807 46.4746 63.0243 46.5731C63.0679 46.6717 63.0813 46.781 63.063 46.8871C63.0446 46.9933 62.9953 47.0917 62.9211 47.1699ZM58.1991 36.9718C58.0966 36.8623 57.9728 36.7749 57.8354 36.7149C57.6979 36.6548 57.5497 36.6235 57.3997 36.6227H35.0154C34.9087 36.6227 34.8042 36.6539 34.7149 36.7124C34.6256 36.7709 34.5553 36.8542 34.5126 36.9521C34.4699 37.0499 34.4567 37.1581 34.4745 37.2633C34.4924 37.3686 34.5405 37.4664 34.6131 37.5447L39.3297 42.6105C39.4323 42.7199 39.556 42.8074 39.6935 42.8674C39.8309 42.9274 39.9792 42.9588 40.1292 42.9595H62.5134C62.6199 42.959 62.724 42.9274 62.8129 42.8687C62.9018 42.81 62.9717 42.7267 63.0141 42.629C63.0565 42.5312 63.0695 42.4232 63.0516 42.3182C63.0336 42.2132 62.9855 42.1157 62.9131 42.0375L58.1991 36.9718ZM35.0154 33.3343H57.3997C57.5498 33.3342 57.6982 33.3031 57.8358 33.2431C57.9733 33.183 58.097 33.0952 58.1991 32.9852L62.9211 27.9221C62.9765 27.8636 63.0182 27.7936 63.0434 27.7171C63.0685 27.6406 63.0764 27.5594 63.0666 27.4795C63.0567 27.3995 63.0293 27.3228 62.9864 27.2546C62.9434 27.1865 62.8859 27.1287 62.818 27.0854C62.7271 27.0276 62.6211 26.9979 62.5134 27.0001H40.1292C39.9791 27.0003 39.8306 27.0314 39.6931 27.0914C39.5556 27.1515 39.4319 27.2392 39.3297 27.3492L34.6131 32.4123C34.5405 32.4906 34.4924 32.5884 34.4745 32.6937C34.4567 32.7989 34.4699 32.9071 34.5126 33.0049C34.5553 33.1028 34.6256 33.1861 34.7149 33.2446C34.8042 33.3031 34.9087 33.3343 35.0154 33.3343Z" fill="#9D9DA6"/>
<path d="M90.2106 37.8188H78.235V33.8749H93.323V29.931H78.195C77.6781 29.9281 77.1657 30.0271 76.6871 30.2223C76.2085 30.4174 75.773 30.705 75.4055 31.0685C75.038 31.432 74.7458 31.8644 74.5454 32.3409C74.345 32.8174 74.2405 33.3287 74.2378 33.8455V37.8427C74.2398 38.3601 74.3438 38.8719 74.5439 39.349C74.7439 39.8261 75.0361 40.2591 75.4036 40.6232C75.7712 40.9873 76.2069 41.2753 76.6859 41.4708C77.1648 41.6664 77.6777 41.7655 78.195 41.7626H90.1866V45.7065H74.5229V49.6504H90.2106C90.989 49.6548 91.7513 49.4281 92.4009 48.9991C93.0506 48.5701 93.5583 47.9581 93.86 47.2404C94.0604 46.764 94.165 46.2527 94.1678 45.7358V41.7387C94.1657 41.2213 94.0617 40.7095 93.8616 40.2324C93.6616 39.7553 93.3694 39.3223 93.0019 38.9583C92.6343 38.5942 92.1986 38.3061 91.7197 38.1106C91.2407 37.9151 90.7279 37.8159 90.2106 37.8188ZM113.41 29.931H101.389C100.61 29.9248 99.8455 30.1503 99.1941 30.5789C98.5426 31.0076 98.0332 31.62 97.7303 32.3386C97.5291 32.8157 97.4242 33.3278 97.4215 33.8455V45.7358C97.4241 46.2536 97.5291 46.7658 97.7303 47.2431C98.0331 47.9617 98.5426 48.5741 99.194 49.0027C99.8455 49.4313 100.61 49.6568 101.389 49.6504H113.41C113.927 49.6533 114.44 49.5543 114.918 49.3591C115.397 49.164 115.832 48.8764 116.2 48.5129C116.567 48.1494 116.859 47.717 117.06 47.2405C117.26 46.764 117.365 46.2527 117.367 45.7358V33.8455C117.365 33.3287 117.26 32.8174 117.06 32.3409C116.859 31.8645 116.567 31.4322 116.199 31.0688C115.832 30.7052 115.397 30.4175 114.918 30.2223C114.439 30.027 113.927 29.9281 113.41 29.931ZM113.381 45.7065H101.419V33.8749H113.376L113.381 45.7065ZM155.514 29.931H143.789C143.272 29.9281 142.76 30.0271 142.281 30.2223C141.802 30.4174 141.367 30.705 140.999 31.0685C140.632 31.432 140.34 31.8644 140.139 32.3409C139.939 32.8174 139.834 33.3287 139.832 33.8455V49.6504H143.829V43.1723H155.501V49.6504H159.498V33.8455C159.495 33.3264 159.39 32.8129 159.188 32.3346C158.986 31.8563 158.691 31.4227 158.321 31.0589C157.951 30.695 157.512 30.408 157.03 30.2144C156.548 30.0208 156.033 29.9245 155.514 29.931ZM155.485 39.2284H143.813V33.8749H155.485V39.2284ZM202.188 29.931H190.463C189.946 29.9281 189.433 30.0271 188.955 30.2223C188.476 30.4174 188.041 30.705 187.673 31.0685C187.306 31.432 187.013 31.8644 186.813 32.3409C186.613 32.8174 186.508 33.3287 186.505 33.8455V49.6504H190.503V43.1723H202.148V49.6504H206.145V33.8455C206.142 33.3287 206.038 32.8174 205.837 32.3409C205.637 31.8645 205.345 31.4322 204.977 31.0688C204.235 30.3347 203.232 29.9254 202.188 29.931ZM202.148 39.2284H190.476V33.8749H202.148V39.2284ZM178.964 45.7065H177.365L171.649 31.5831C171.453 31.0958 171.116 30.6782 170.681 30.3838C170.246 30.0894 169.733 29.9317 169.208 29.931H165.661C165.142 29.9282 164.634 30.0795 164.201 30.3658C163.768 30.6521 163.429 31.0604 163.228 31.5392C163.095 31.8569 163.025 32.1978 163.023 32.5425V49.6504H167.02V33.8749H168.619L174.333 47.9983C174.532 48.4847 174.871 48.9007 175.308 49.1931C175.745 49.4855 176.259 49.641 176.784 49.6398H180.331C180.676 49.6416 181.018 49.5755 181.337 49.4452C181.656 49.3149 181.946 49.1229 182.191 48.8803C182.686 48.3905 182.966 47.7244 182.969 47.0283V29.931H178.964V45.7065ZM124.895 29.931H120.898V45.7358C120.901 46.2538 121.006 46.7662 121.207 47.2435C121.408 47.7209 121.702 48.1537 122.071 48.5174C122.44 48.881 122.877 49.1683 123.357 49.3627C123.837 49.5571 124.351 49.6549 124.869 49.6504H136.86V45.7065H124.895V29.931Z" fill="#9D9DA6"/>
</g>
</g>
<rect x="0.5" y="0.5" width="239" height="79" stroke="#2E2E33"/>
<defs>
<clipPath id="clip0_33149_130443">
<rect width="172.146" height="25.582" fill="white" transform="translate(34 27)"/>
</clipPath>
</defs>
</svg>
