<svg width="240" height="120" viewBox="0 0 240 120" fill="none" xmlns="http://www.w3.org/2000/svg">
<rect x="0.5" y="0.5" width="239" height="119" fill="#17171A"/>
<g clip-path="url(#clip0_33124_128206)">
<path d="M58.2605 63.2777L56.1744 68.9902C56.1128 69.1487 56.1128 69.3247 56.1744 69.4832L59.7568 79.3151L63.9026 76.9209L58.9294 63.2777C58.815 62.9608 58.3749 62.9608 58.2605 63.2777Z" fill="#9D9DA6"/>
<path d="M62.4326 53.6654C62.3182 53.3485 61.8781 53.3485 61.7637 53.6654L59.6776 59.3779C59.6159 59.5364 59.6159 59.7124 59.6776 59.8709L65.5485 75.9699L69.6943 73.5757L62.4326 53.6654Z" fill="#9D9DA6"/>
<path d="M55.0653 41.1578C55.1709 41.1578 55.2678 41.1842 55.3646 41.237L71.1731 50.3647C71.358 50.4704 71.4724 50.664 71.4724 50.8753V69.1308C71.4724 69.342 71.358 69.5357 71.1731 69.6413L55.3646 78.7779C55.2766 78.8307 55.1709 78.8571 55.0653 78.8571C54.9597 78.8571 54.8629 78.8307 54.766 78.7779L38.9663 69.6501C38.7815 69.5445 38.667 69.3508 38.667 69.1396V50.8753C38.667 50.664 38.7815 50.4704 38.9663 50.3647L54.7748 41.237C54.8629 41.1842 54.9685 41.1578 55.0653 41.1578ZM55.0653 38.4907C54.502 38.4907 53.9386 38.6404 53.4369 38.9308L37.6284 48.0586C36.6249 48.6395 36 49.7134 36 50.8753V69.1308C36 70.2927 36.6249 71.3753 37.6284 71.9562L53.4369 81.084C53.9386 81.3745 54.502 81.5241 55.0653 81.5241C55.6286 81.5241 56.192 81.3745 56.6937 81.084L72.5022 71.9562C73.5145 71.3753 74.1306 70.3015 74.1306 69.1308V50.8753C74.1306 49.7134 73.5057 48.6307 72.5022 48.0498L56.7025 38.9308C56.192 38.6404 55.6286 38.4907 55.0653 38.4907Z" fill="#9D9DA6"/>
<path d="M44.6172 75.9878L46.0695 72.0093L48.9918 74.4387L46.2632 76.9384L44.6172 75.9878Z" fill="#17171A"/>
<path d="M53.7359 49.5723H49.731C49.4317 49.5723 49.1588 49.7571 49.062 50.0388L40.4712 73.5931L44.617 75.9873L54.0792 50.0476C54.1584 49.8187 53.9912 49.5723 53.7359 49.5723Z" fill="#9D9DA6"/>
<path d="M60.7512 49.5723H56.7462C56.4469 49.5723 56.1741 49.7571 56.0773 50.0388L46.2629 76.9379L50.4087 79.3321L61.0856 50.0564C61.1737 49.8187 60.9976 49.5723 60.7512 49.5723Z" fill="#9D9DA6"/>
<path d="M91.1978 54.4751C91.5939 54.4751 91.9372 54.5543 92.2101 54.7216C92.4829 54.8888 92.7558 55.2057 93.0199 55.681L98.2483 65.1696C98.3011 65.2753 98.3099 65.3633 98.2835 65.4337C98.2571 65.5041 98.1779 65.5393 98.0547 65.5393H96.0478C95.8717 65.5393 95.7485 65.4689 95.6869 65.3369L94.569 63.3036H87.1489L86.0574 65.3369C85.987 65.4777 85.8638 65.5393 85.6965 65.5393H83.6456C83.5048 65.5393 83.4256 65.5041 83.3992 65.4337C83.3728 65.3633 83.3816 65.2753 83.4344 65.1696L88.6188 55.681C88.8829 55.2057 89.1381 54.8888 89.3934 54.7216C89.6487 54.5543 89.9391 54.4751 90.2736 54.4751H91.1978ZM88.1259 61.4551H93.5656L91.057 56.8253C91.013 56.7548 90.9602 56.7108 90.881 56.7108H90.7841C90.7137 56.7108 90.6521 56.746 90.6081 56.8253L88.1259 61.4551Z" fill="#9D9DA6"/>
<path d="M109.735 54.4751C110.95 54.4751 111.812 54.748 112.341 55.2937C112.869 55.8394 113.133 56.6492 113.133 57.7231V58.6209C113.133 59.5275 112.948 60.2405 112.578 60.7686C112.209 61.2967 111.61 61.6312 110.774 61.7808L113.476 65.1256C113.529 65.1784 113.546 65.2576 113.52 65.3633C113.502 65.4689 113.414 65.5217 113.265 65.5217H111.232C111.091 65.5217 111.003 65.5041 110.95 65.4777C110.897 65.4425 110.844 65.3897 110.791 65.3193L108.292 62.0361H103.186V65.1784C103.186 65.4073 103.072 65.5217 102.843 65.5217H101.136C100.889 65.5217 100.775 65.4073 100.775 65.1784V54.9504C100.775 54.6335 100.933 54.4751 101.25 54.4751H109.735ZM103.195 60.1172H109.242C109.779 60.1172 110.158 60.0028 110.378 59.774C110.598 59.5451 110.712 59.193 110.712 58.7177V58.0575C110.712 57.5822 110.598 57.2301 110.378 57.0013C110.158 56.7724 109.779 56.658 109.242 56.658H103.398C103.257 56.658 103.195 56.7196 103.195 56.8517V60.1172Z" fill="#9D9DA6"/>
<path d="M126.344 54.4751C127.427 54.4751 128.202 54.6951 128.659 55.1265C129.117 55.5578 129.346 56.2091 129.346 57.0805V57.8375C129.346 58.7177 129.012 59.3867 128.334 59.8444C129.056 60.2669 129.425 60.9446 129.425 61.8777V62.7931C129.425 63.2156 129.381 63.5941 129.284 63.9285C129.188 64.263 129.038 64.5535 128.818 64.7911C128.598 65.0288 128.316 65.2136 127.955 65.3369C127.594 65.4601 127.154 65.5305 126.626 65.5305H117.243C116.926 65.5305 116.768 65.3721 116.768 65.0552V54.9504C116.768 54.6335 116.926 54.4751 117.243 54.4751H126.344ZM119.188 59.0698H125.667C126.195 59.0698 126.547 58.9906 126.741 58.8321C126.934 58.6737 127.022 58.4448 127.022 58.1368V57.5998C127.022 57.2742 126.934 57.0365 126.749 56.8781C126.565 56.7284 126.265 56.6492 125.86 56.6492H119.4C119.259 56.6492 119.197 56.7196 119.197 56.8517V59.0698H119.188ZM119.188 60.795V63.1451C119.188 63.286 119.259 63.3476 119.391 63.3476H125.869C126.292 63.3476 126.591 63.2684 126.767 63.1187C126.943 62.9691 127.04 62.7226 127.04 62.3882V61.7896C127.04 61.464 126.943 61.2175 126.749 61.0503C126.556 60.883 126.195 60.795 125.667 60.795H119.188Z" fill="#9D9DA6"/>
<path d="M135.314 54.4751C135.543 54.4751 135.657 54.5895 135.657 54.8184V65.1784C135.657 65.4073 135.543 65.5217 135.314 65.5217H133.606C133.36 65.5217 133.245 65.4073 133.245 65.1784V54.8272C133.245 54.5983 133.369 54.4839 133.606 54.4839L135.314 54.4751Z" fill="#9D9DA6"/>
<path d="M151.862 54.4751C152.108 54.4751 152.223 54.5895 152.223 54.8184V56.3675C152.223 56.614 152.099 56.7284 151.862 56.7284H146.906V65.1784C146.906 65.4073 146.792 65.5217 146.563 65.5217H144.838C144.609 65.5217 144.494 65.4073 144.494 65.1784V56.7284H139.539C139.292 56.7284 139.178 56.6052 139.178 56.3675V54.8184C139.178 54.5895 139.301 54.4751 139.539 54.4751H151.862Z" fill="#9D9DA6"/>
<path d="M164.352 54.4751C165.567 54.4751 166.429 54.748 166.958 55.2937C167.486 55.8394 167.75 56.6492 167.75 57.7231V58.6209C167.75 59.5275 167.565 60.2405 167.195 60.7686C166.826 61.2967 166.227 61.6312 165.391 61.7808L168.093 65.1256C168.146 65.1784 168.163 65.2576 168.137 65.3633C168.119 65.4689 168.031 65.5217 167.882 65.5217H165.848C165.708 65.5217 165.62 65.5041 165.567 65.4777C165.514 65.4425 165.461 65.3897 165.408 65.3193L162.909 62.0361H157.803V65.1784C157.803 65.4073 157.689 65.5217 157.46 65.5217H155.752C155.506 65.5217 155.392 65.4073 155.392 65.1784V54.9504C155.392 54.6335 155.55 54.4751 155.867 54.4751H164.352ZM157.821 60.1172H163.868C164.405 60.1172 164.783 60.0028 165.003 59.774C165.224 59.5451 165.338 59.193 165.338 58.7177V58.0575C165.338 57.5822 165.224 57.2301 165.003 57.0013C164.783 56.7724 164.405 56.658 163.868 56.658H158.023C157.883 56.658 157.821 56.7196 157.821 56.8517V60.1172Z" fill="#9D9DA6"/>
<path d="M173.233 54.4751C173.462 54.4751 173.577 54.5895 173.577 54.8184V61.1207C173.577 61.5432 173.612 61.8953 173.682 62.1681C173.753 62.4498 173.867 62.6698 174.026 62.8283C174.184 62.9955 174.395 63.1099 174.668 63.1716C174.941 63.242 175.276 63.2772 175.689 63.2772H180.064C180.478 63.2772 180.812 63.242 181.085 63.1716C181.358 63.1011 181.569 62.9867 181.728 62.8283C181.886 62.661 182 62.441 182.062 62.1681C182.124 61.8865 182.159 61.5432 182.159 61.1207V54.8184C182.159 54.5895 182.273 54.4751 182.502 54.4751H184.227C184.456 54.4751 184.571 54.5895 184.571 54.8184V61.3583C184.571 62.1153 184.491 62.7579 184.333 63.2948C184.174 63.8229 183.919 64.2542 183.567 64.5887C183.215 64.9232 182.757 65.1608 182.194 65.3105C181.631 65.4601 180.953 65.5305 180.152 65.5305H175.601C174.8 65.5305 174.123 65.4601 173.568 65.3105C173.013 65.1608 172.556 64.9232 172.204 64.5887C171.852 64.2542 171.596 63.8229 171.429 63.2948C171.262 62.7667 171.183 62.1153 171.183 61.3583V54.8184C171.183 54.5895 171.306 54.4751 171.544 54.4751H173.233Z" fill="#9D9DA6"/>
<path d="M191.357 54.4751C191.586 54.4751 191.788 54.4927 191.955 54.5191C192.123 54.5543 192.272 54.6071 192.396 54.704C192.519 54.792 192.633 54.9152 192.739 55.0648C192.836 55.2145 192.941 55.4169 193.047 55.6722L196.33 63.2508C196.374 63.3476 196.444 63.3916 196.55 63.3916H196.744C196.849 63.3916 196.92 63.3476 196.964 63.2508L200.247 55.6722C200.353 55.4169 200.458 55.2145 200.555 55.0648C200.652 54.9152 200.766 54.792 200.898 54.704C201.022 54.6159 201.171 54.5543 201.33 54.5191C201.497 54.4839 201.69 54.4751 201.919 54.4751H203.609C204.155 54.4751 204.525 54.5983 204.718 54.8448C204.912 55.0912 205 55.5137 205 56.1123V65.1784C205 65.4073 204.877 65.5217 204.639 65.5217H203.028C202.8 65.5217 202.685 65.4073 202.685 65.1784V56.9309C202.685 56.8253 202.641 56.7724 202.562 56.7724H202.421C202.315 56.7724 202.245 56.8165 202.219 56.8957L199.032 63.9725C198.909 64.2542 198.777 64.5007 198.645 64.6943C198.513 64.888 198.372 65.0464 198.222 65.1784C198.073 65.3017 197.897 65.3985 197.703 65.4513C197.51 65.5041 197.281 65.5305 197.017 65.5305H196.26C195.996 65.5305 195.767 65.5041 195.573 65.4513C195.379 65.3985 195.203 65.3105 195.054 65.1784C194.904 65.0552 194.754 64.888 194.631 64.6943C194.499 64.5007 194.367 64.263 194.244 63.9725L191.058 56.8957C191.022 56.8076 190.961 56.7724 190.855 56.7724H190.714C190.626 56.7724 190.591 56.8253 190.591 56.9309V65.1784C190.591 65.4073 190.477 65.5217 190.248 65.5217H188.637C188.391 65.5217 188.276 65.4073 188.276 65.1784V56.1123C188.276 55.5137 188.373 55.0912 188.558 54.8448C188.751 54.5983 189.121 54.4751 189.676 54.4751H191.357Z" fill="#9D9DA6"/>
</g>
<rect x="0.5" y="0.5" width="239" height="119" stroke="#2E2E33"/>
<defs>
<clipPath id="clip0_33124_128206">
<rect width="169" height="43.0334" fill="white" transform="translate(36 38.4907)"/>
</clipPath>
</defs>
</svg>
