<svg width="240" height="120" viewBox="0 0 240 120" fill="none" xmlns="http://www.w3.org/2000/svg">
<rect x="0.5" y="0.5" width="239" height="119" fill="#17171A"/>
<g clip-path="url(#clip0_33124_128324)">
<path fill-rule="evenodd" clip-rule="evenodd" d="M36.0493 75.5982L65.5263 51.0523C65.8874 50.7375 66.1799 50.3518 66.3858 49.9193C66.5916 49.4867 66.7065 49.0165 66.7231 48.5378C66.7398 48.059 66.6578 47.582 66.4824 47.1362C66.307 46.6904 66.042 46.2854 65.7036 45.9463C65.3644 45.6072 64.9591 45.3415 64.5129 45.1657C64.0666 44.99 63.589 44.9078 63.1097 44.9245C62.6304 44.9411 62.1595 45.0561 61.7266 45.2624C61.2936 45.4687 60.9076 45.7618 60.5928 46.1236L36.0493 75.5982ZM50.2693 49.4534L37.8578 58.7612L47.1664 46.3508C47.3567 46.0971 47.5994 45.8872 47.8779 45.7353C48.1564 45.5834 48.4643 45.493 48.7807 45.4703C49.0972 45.4477 49.4147 45.4932 49.7121 45.6038C50.0094 45.7144 50.2796 45.8875 50.5042 46.1115C50.7292 46.3359 50.9033 46.606 51.0147 46.9035C51.1262 47.2011 51.1723 47.5192 51.15 47.8361C51.1278 48.1531 51.0376 48.4616 50.8856 48.7406C50.7337 49.0197 50.5234 49.2627 50.2693 49.4534ZM65.2963 64.4819L52.8848 73.7896L62.1934 61.3793C62.3838 61.1255 62.6265 60.9156 62.905 60.7637C63.1835 60.6118 63.4913 60.5214 63.8077 60.4988C64.1241 60.4761 64.4417 60.5216 64.739 60.6322C65.0364 60.7427 65.3066 60.916 65.5311 61.1399C65.7562 61.3643 65.9304 61.6344 66.0418 61.932C66.1532 62.2295 66.1993 62.5476 66.177 62.8645C66.1547 63.1815 66.0645 63.49 65.9125 63.769C65.7605 64.0481 65.5504 64.2912 65.2963 64.4819Z" fill="#9D9DA6"/>
<path fill-rule="evenodd" clip-rule="evenodd" d="M83.159 60.2599C83.159 56.2086 86.6028 52.7005 91.3757 52.7005C93.7418 52.7005 95.8553 53.5639 97.3586 54.9207C97.4484 55.0018 97.5868 54.9987 97.6704 54.9112L100.544 51.8994C100.628 51.8118 100.625 51.673 100.536 51.591C98.162 49.4038 94.9039 48.0991 91.3757 48.0991C84.3133 48.0991 78.5576 53.4227 78.5576 60.2599C78.5576 67.0971 84.3133 72.4207 91.3757 72.4207C94.5157 72.4207 97.6191 71.3677 99.9179 69.5621L100.714 68.9371C100.767 68.8956 100.798 68.832 100.798 68.7648V67.7528V65.7377V65.5026V60.2599V58.507C100.798 58.3859 100.7 58.2879 100.578 58.2879H94.7568C94.6966 58.2879 94.639 58.3127 94.5976 58.3566L90.8747 62.3006C90.7428 62.4404 90.8419 62.6701 91.034 62.6701H95.9771C96.0981 62.6701 96.1962 62.7682 96.1962 62.8892V65.5026V65.7377V66.4138C96.1962 66.4917 96.155 66.5638 96.0872 66.6021C94.752 67.3561 93.0882 67.8193 91.3757 67.8193C86.6028 67.8193 83.159 64.3112 83.159 60.2599ZM161.381 48.647H156.224C156.045 48.647 155.942 48.8526 156.049 48.9971L164.453 60.2711C164.512 60.3495 164.511 60.4573 164.452 60.535L156.057 71.5209C155.947 71.665 156.05 71.873 156.231 71.873H161.813C161.883 71.873 161.948 71.8403 161.989 71.7848L167.338 64.6106C167.425 64.493 167.601 64.493 167.688 64.6106L173.037 71.7848C173.079 71.8403 173.143 71.873 173.212 71.873H178.794C178.976 71.873 179.079 71.665 178.968 71.5209L170.574 60.535C170.515 60.4573 170.514 60.3495 170.572 60.2711L178.977 48.9971C179.084 48.8526 178.981 48.647 178.801 48.647H173.645C173.576 48.647 173.512 48.6788 173.471 48.7331L167.687 56.3015C167.6 56.4163 167.427 56.4163 167.339 56.3015L161.555 48.7331C161.514 48.6788 161.449 48.647 161.381 48.647ZM120.704 48.6468H115.73C115.644 48.6468 115.565 48.6979 115.53 48.7771L105.426 71.5648C105.362 71.7097 105.468 71.8728 105.626 71.8728H110.404C110.491 71.8728 110.571 71.8208 110.605 71.7405L112.536 67.2715H123.898L125.829 71.7405C125.864 71.8208 125.943 71.8728 126.03 71.8728H130.808C130.966 71.8728 131.072 71.7097 131.008 71.5648L120.904 48.7771C120.869 48.6979 120.791 48.6468 120.704 48.6468ZM122.099 63.1084H114.335L118.016 54.5902C118.092 54.4139 118.342 54.4139 118.418 54.5902L122.099 63.1084ZM136.505 48.6469C136.384 48.6469 136.286 48.745 136.286 48.866V71.6538C136.286 71.7748 136.384 71.8729 136.505 71.8729H140.121H141.326H149.327C149.394 71.8729 149.457 71.8422 149.499 71.7895L152.439 68.0646C152.553 67.9209 152.45 67.7097 152.267 67.7097H141.545V48.866C141.545 48.745 141.447 48.6469 141.326 48.6469H136.505ZM189.538 53.0292C189.538 52.9081 189.637 52.81 189.757 52.81H203.342C203.463 52.81 203.562 52.712 203.562 52.5909V48.866C203.562 48.745 203.463 48.6469 203.342 48.6469H184.499C184.496 48.6469 184.494 48.6469 184.492 48.647C184.375 48.647 184.28 48.742 184.28 48.8592V71.6539C184.28 71.7749 184.378 71.873 184.499 71.873H189.538V71.8729H203.781C203.901 71.8729 204 71.7748 204 71.6538V67.9288C204 67.8078 203.901 67.7097 203.781 67.7097H189.757C189.637 67.7097 189.538 67.6117 189.538 67.4906V62.451C189.538 62.33 189.637 62.2319 189.757 62.2319H202.466C202.586 62.2319 202.685 62.1338 202.685 62.0128V58.2879C202.685 58.1668 202.586 58.0688 202.466 58.0688H189.757C189.637 58.0688 189.538 57.9707 189.538 57.8496V53.0292Z" fill="#9D9DA6"/>
</g>
<rect x="0.5" y="0.5" width="239" height="119" stroke="#2E2E33"/>
<defs>
<clipPath id="clip0_33124_128324">
<rect width="167.95" height="30.6758" fill="white" transform="translate(36.0498 44.9224)"/>
</clipPath>
</defs>
</svg>
