<svg width="240" height="80" viewBox="0 0 240 80" fill="none" xmlns="http://www.w3.org/2000/svg">
<rect x="0.5" y="0.5" width="239" height="79" fill="#17171A"/>
<g clip-path="url(#clip0_33149_131382)">
<path d="M165.091 23L142.049 56.0111H149.124L172.285 23H165.091Z" fill="#9D9DA6"/>
<path d="M149.861 23L156.641 32.7273L153.103 38.033L142.639 23H149.861Z" fill="#9D9DA6"/>
<path d="M165.778 56.014L158.262 45.2551L161.799 40.0967L172.853 56.014H165.778Z" fill="#9D9DA6"/>
<path fill-rule="evenodd" clip-rule="evenodd" d="M133.796 23H139.986V56.0111H133.796V54.7781C132.009 55.7538 129.956 56.3085 127.773 56.3085C120.844 56.3085 115.226 50.7162 115.226 43.8178C115.226 36.9194 120.844 31.3271 127.773 31.3271C129.956 31.3271 132.009 31.8819 133.796 32.8575V23ZM127.707 50.8264C131.632 50.8264 134.814 47.6591 134.814 43.752C134.814 39.845 131.632 36.6776 127.707 36.6776C123.783 36.6776 120.601 39.845 120.601 43.752C120.601 47.6591 123.783 50.8264 127.707 50.8264Z" fill="#9D9DA6"/>
<path d="M115.842 23L92.8237 56.0111H100.04L123.036 23H115.842Z" fill="#9D9DA6"/>
<path d="M100.045 23L107.267 33.022L103.288 38.6226L92.5288 23H100.045Z" fill="#9D9DA6"/>
<path fill-rule="evenodd" clip-rule="evenodd" d="M84.5702 23H90.7603V56.0111H84.5702V54.7781C82.7824 55.7538 80.73 56.3085 78.5474 56.3085C71.6176 56.3085 66 50.7162 66 43.8178C66 36.9194 71.6176 31.3271 78.5474 31.3271C80.73 31.3271 82.7824 31.8819 84.5702 32.8575V23ZM78.4813 50.8264C82.4061 50.8264 85.5878 47.6591 85.5878 43.752C85.5878 39.845 82.4061 36.6776 78.4813 36.6776C74.5565 36.6776 71.3748 39.845 71.3748 43.752C71.3748 47.6591 74.5565 50.8264 78.4813 50.8264Z" fill="#9D9DA6"/>
</g>
<rect x="0.5" y="0.5" width="239" height="79" stroke="#2E2E33"/>
<defs>
<clipPath id="clip0_33149_131382">
<rect width="107" height="33.3085" fill="white" transform="translate(66 23)"/>
</clipPath>
</defs>
</svg>
