<svg width="240" height="120" viewBox="0 0 240 120" fill="none" xmlns="http://www.w3.org/2000/svg">
<rect x="0.5" y="0.5" width="239" height="119" fill="#17171A"/>
<path d="M90.752 70.0398C88.9375 70.0398 87.244 69.6366 85.7118 68.8301C84.2199 68.0237 83.0102 66.8947 82.0828 65.4028C81.1957 63.9109 80.7522 62.2577 80.7522 60.4432C80.7522 58.6287 81.1957 56.9755 82.0828 55.5239C82.9699 54.0723 84.1796 52.9433 85.7118 52.0966C87.244 51.2901 88.8972 50.8869 90.752 50.8869C92.5665 50.8869 94.26 51.2901 95.7519 52.0966C97.2842 52.903 98.4938 54.032 99.3406 55.5239C100.228 56.9755 100.671 58.6287 100.671 60.4432C100.671 62.2577 100.228 63.9109 99.3406 65.4028C98.4535 66.8544 97.2438 67.9834 95.7519 68.8301C94.26 69.6366 92.5665 70.0398 90.752 70.0398ZM90.752 65.8866C92.2842 65.8866 93.5342 65.4028 94.4616 64.3947C95.389 63.3867 95.8729 62.0964 95.8729 60.4432C95.8729 58.79 95.389 57.4594 94.4616 56.4916C93.5342 55.4836 92.3246 54.9997 90.752 54.9997C89.1795 54.9997 87.9295 55.4836 87.0021 56.4513C86.0747 57.4191 85.6311 58.7497 85.6311 60.4029C85.6311 62.0561 86.0747 63.3867 87.0021 64.3544C87.9295 65.4028 89.1795 65.8866 90.752 65.8866ZM108.01 57.0965C108.453 56.411 109.098 55.8465 109.905 55.403C110.711 54.9594 111.679 54.7578 112.768 54.7578C114.018 54.7578 115.187 55.0804 116.235 55.6852C117.284 56.29 118.09 57.1771 118.655 58.3465C119.26 59.5158 119.582 60.8464 119.582 62.3786C119.582 63.9109 119.26 65.2415 118.655 66.4108C118.05 67.5802 117.243 68.4672 116.235 69.1124C115.187 69.7172 114.058 70.0398 112.768 70.0398C111.719 70.0398 110.752 69.8382 109.905 69.3946C109.098 68.9511 108.453 68.4269 108.01 67.7415V74.2736H103.292V54.9997H108.01V57.0965ZM114.744 62.3786C114.744 61.2496 114.421 60.3625 113.735 59.7174C113.09 59.0722 112.284 58.7497 111.316 58.7497C110.389 58.7497 109.582 59.0722 108.897 59.7174C108.252 60.3625 107.929 61.29 107.929 62.419C107.929 63.548 108.252 64.4351 108.897 65.1205C109.542 65.7657 110.348 66.0883 111.316 66.0883C112.244 66.0883 113.05 65.7657 113.735 65.1205C114.421 64.4351 114.744 63.548 114.744 62.3786ZM136.558 62.177C136.558 62.6206 136.517 63.0641 136.477 63.5077H125.792C125.872 64.4351 126.155 65.1609 126.719 65.6447C127.284 66.1286 127.929 66.3705 128.735 66.3705C129.905 66.3705 130.751 65.8866 131.195 64.9189H136.235C135.993 65.8866 135.509 66.7737 134.824 67.5398C134.179 68.306 133.332 68.9511 132.324 69.3946C131.316 69.8382 130.187 70.0801 128.937 70.0801C127.445 70.0801 126.074 69.7575 124.905 69.1527C123.735 68.5479 122.808 67.6608 122.163 66.4915C121.518 65.3221 121.155 63.9915 121.155 62.4593C121.155 60.9271 121.477 59.5561 122.122 58.4271C122.768 57.2578 123.695 56.3707 124.864 55.7659C126.034 55.161 127.405 54.8385 128.937 54.8385C130.429 54.8385 131.759 55.1207 132.929 55.7255C134.098 56.3304 134.985 57.1771 135.63 58.3061C136.235 59.3948 136.558 60.6851 136.558 62.177ZM131.719 60.9674C131.719 60.2013 131.437 59.5561 130.872 59.1126C130.308 58.669 129.622 58.4271 128.816 58.4271C128.009 58.4271 127.364 58.669 126.8 59.1126C126.276 59.5561 125.953 60.2013 125.792 61.0077H131.719V60.9674ZM148.453 54.8385C150.267 54.8385 151.678 55.403 152.767 56.532C153.856 57.661 154.38 59.1932 154.38 61.169V69.8382H149.703V61.7738C149.703 60.7658 149.42 59.9997 148.896 59.4755C148.372 58.911 147.646 58.669 146.759 58.669C145.872 58.669 145.146 58.9513 144.622 59.4755C144.098 60.04 143.816 60.8061 143.816 61.7738V69.8382H139.098V54.9997H143.816V56.9755C144.299 56.3304 144.945 55.8062 145.751 55.4433C146.517 55.0401 147.445 54.8385 148.453 54.8385ZM164.662 70.0398C163.251 70.0398 161.96 69.7979 160.831 69.3543C159.702 68.9108 158.815 68.2656 158.13 67.3786C157.485 66.4915 157.122 65.4431 157.082 64.2334H162.122C162.202 64.9189 162.444 65.4431 162.888 65.8463C163.291 66.2092 163.856 66.3705 164.541 66.3705C165.227 66.3705 165.791 66.2092 166.194 65.927C166.597 65.6044 166.799 65.1609 166.799 64.6367C166.799 64.1931 166.638 63.7899 166.315 63.5077C165.993 63.2254 165.589 62.9431 165.146 62.7819C164.702 62.5803 164.017 62.3786 163.17 62.0964C161.92 61.7335 160.912 61.3706 160.106 60.9674C159.299 60.6045 158.614 60.04 158.049 59.3142C157.485 58.5884 157.202 57.6207 157.202 56.4513C157.202 54.7175 157.848 53.3465 159.178 52.3788C160.469 51.3708 162.202 50.8869 164.299 50.8869C166.436 50.8869 168.17 51.3708 169.46 52.3788C170.751 53.3465 171.476 54.7175 171.557 56.4916H166.436C166.396 55.8868 166.154 55.403 165.751 55.0804C165.307 54.7175 164.783 54.5562 164.138 54.5562C163.573 54.5562 163.089 54.7175 162.767 54.9997C162.404 55.282 162.243 55.6852 162.243 56.2497C162.243 56.8545 162.525 57.3384 163.13 57.661C163.735 57.9836 164.622 58.3465 165.872 58.7497C167.122 59.1529 168.13 59.5561 168.896 59.919C169.702 60.2819 170.388 60.8464 170.952 61.5319C171.517 62.2577 171.799 63.1448 171.799 64.2738C171.799 65.3221 171.517 66.2899 170.952 67.1769C170.388 68.064 169.581 68.7495 168.533 69.2737C167.404 69.7979 166.154 70.0398 164.662 70.0398ZM189.178 62.177C189.178 62.6206 189.137 63.0641 189.097 63.5077H178.412C178.492 64.4351 178.775 65.1609 179.339 65.6447C179.904 66.1286 180.549 66.3705 181.355 66.3705C182.525 66.3705 183.371 65.8866 183.815 64.9189H188.855C188.613 65.8866 188.129 66.7737 187.444 67.5398C186.799 68.306 185.952 68.9511 184.944 69.3946C183.936 69.8382 182.807 70.0801 181.557 70.0801C180.065 70.0801 178.694 69.7575 177.525 69.1527C176.355 68.5479 175.428 67.6608 174.783 66.4915C174.138 65.3221 173.775 63.9915 173.775 62.4593C173.775 60.9271 174.097 59.5561 174.742 58.4271C175.388 57.2578 176.315 56.3707 177.484 55.7659C178.654 55.161 180.025 54.8385 181.557 54.8385C183.049 54.8385 184.379 55.1207 185.549 55.7255C186.718 56.3304 187.605 57.1771 188.25 58.3061C188.855 59.3948 189.178 60.6851 189.178 62.177ZM184.339 60.9674C184.339 60.2013 184.057 59.5561 183.492 59.1126C182.928 58.669 182.242 58.4271 181.436 58.4271C180.629 58.4271 179.984 58.669 179.42 59.1126C178.896 59.5561 178.573 60.2013 178.412 61.0077H184.339V60.9674ZM190.75 62.3786C190.75 60.8464 191.033 59.5158 191.637 58.3465C192.242 57.1771 193.049 56.29 194.097 55.6852C195.145 55.0804 196.274 54.7578 197.565 54.7578C198.653 54.7578 199.581 54.9594 200.428 55.403C201.274 55.8465 201.879 56.3707 202.323 57.0965V54.9997H207V69.8382H202.282V67.7415C201.839 68.4269 201.194 68.9914 200.347 69.435C199.54 69.8785 198.573 70.0801 197.484 70.0801C196.234 70.0801 195.105 69.7575 194.057 69.1527C193.008 68.5076 192.202 67.6205 191.597 66.4512C191.033 65.2818 190.75 63.9109 190.75 62.3786ZM202.282 62.419C202.282 61.29 201.96 60.4029 201.274 59.7174C200.629 59.0722 199.823 58.7497 198.895 58.7497C197.968 58.7497 197.161 59.0722 196.476 59.7174C195.831 60.3625 195.508 61.2496 195.508 62.3786C195.508 63.5077 195.831 64.4351 196.476 65.0802C197.121 65.7254 197.928 66.0479 198.895 66.0479C199.823 66.0479 200.629 65.7254 201.274 65.0802C201.96 64.4351 202.282 63.548 202.282 62.419ZM52.164 40C48.1721 40 44.2609 41.1693 40.9545 43.387C37.6481 45.6047 35.0675 48.7498 33.5353 52.4595C32.003 56.1288 31.5998 60.2013 32.4063 64.1125C33.1724 68.0237 35.1078 71.6124 37.9304 74.4349C40.7529 77.2574 44.3415 79.1929 48.2528 79.959C52.164 80.7251 56.2365 80.3219 59.9058 78.83C63.5751 77.3381 66.7202 74.6768 68.9379 71.3704C71.1556 68.064 72.3249 64.1528 72.3249 60.1609C72.3249 54.7981 70.1879 49.6773 66.4379 45.887C62.6477 42.1371 57.5268 40 52.164 40ZM41.9625 60.8464L42.0432 60.7254L47.285 52.4998C47.285 52.4595 47.3254 52.4595 47.3657 52.4191C47.406 52.4191 47.4463 52.3788 47.4463 52.4191C47.4866 52.4191 47.527 52.4191 47.527 52.4595C47.5673 52.4595 47.5673 52.4998 47.6076 52.5401C48.4947 54.5159 49.2608 56.9352 48.8979 58.4674C48.656 59.2739 48.2931 59.9997 47.8495 60.7254C47.8092 60.8464 47.7286 60.9674 47.6479 61.048C47.6479 61.0883 47.6076 61.0883 47.5673 61.0883C47.527 61.0883 47.527 61.1287 47.4866 61.1287H42.0432C42.0029 61.1287 42.0029 61.0883 41.9625 61.048C41.9625 61.0077 41.9222 61.0077 41.9222 60.9674C41.9222 60.8867 41.9222 60.8464 41.9625 60.8464ZM65.3089 63.6689C65.3089 63.7093 65.3089 63.7496 65.2686 63.7899C65.2686 63.8302 65.2283 63.8302 65.1879 63.8706C64.7847 64.0318 63.4138 64.677 62.809 65.4834C61.317 67.5398 60.188 70.4833 57.6881 70.4833H47.2044C46.3173 70.4833 45.4302 70.3221 44.6238 69.9592C43.8173 69.6366 43.0512 69.1124 42.4464 68.5076C41.8013 67.8624 41.3174 67.1366 40.9948 66.3302C40.6722 65.5238 40.4706 64.6367 40.4706 63.7496V63.6286C40.4706 63.5883 40.4706 63.548 40.511 63.5077C40.5513 63.4673 40.5916 63.4673 40.6319 63.4673H46.5996C46.6399 63.4673 46.6399 63.5077 46.6802 63.5077C46.6802 63.548 46.7205 63.548 46.7205 63.5883V63.6689C46.6802 64.0722 46.7608 64.4351 46.9221 64.798C47.0834 65.1609 47.3657 65.4431 47.6882 65.6447C48.0108 65.8463 48.3737 65.9673 48.7769 65.9673H51.6801V63.7093H48.8173C48.7769 63.7093 48.7366 63.7093 48.7366 63.6689C48.6963 63.6689 48.6963 63.6286 48.656 63.5883C48.656 63.548 48.6157 63.5077 48.6157 63.5077C48.6157 63.4673 48.6157 63.427 48.656 63.427C48.6963 63.3867 48.7366 63.3464 48.7769 63.2657C49.0592 62.8625 49.4221 62.298 49.8253 61.6125C50.1076 61.1287 50.3495 60.6448 50.5511 60.1609C50.5914 60.0803 50.6317 59.9593 50.6721 59.8787C50.7124 59.798 50.793 59.5964 50.8334 59.4351C50.8737 59.2739 50.914 59.1932 50.9543 59.0722C51.035 58.6287 51.1156 58.1852 51.0753 57.7416C51.0753 57.54 51.0753 57.3787 51.035 57.1771C50.9946 57.0158 50.9946 56.7739 50.9946 56.5723C50.9543 56.3707 50.9543 56.2094 50.914 56.0481C50.8737 55.7659 50.8334 55.5239 50.7527 55.2417L50.7124 55.161C50.6721 54.9997 50.6317 54.7981 50.5511 54.6368C50.3898 54.0723 50.1882 53.5482 49.9866 53.024L49.7447 52.4191C49.6237 52.1369 49.5027 51.8546 49.3818 51.6127C49.3414 51.4917 49.2608 51.4111 49.2205 51.2901C49.1802 51.1692 49.0995 51.0482 49.0592 50.9272C49.0189 50.8063 48.9785 50.7659 48.9382 50.6853L48.6157 50.0401V49.9595C48.6157 49.9192 48.6157 49.9192 48.656 49.9192L48.6963 49.8789H48.7769L51.035 50.4837L51.3172 50.5643L51.6398 50.645L51.7608 50.6853V49.3547C51.7608 49.1127 51.8414 48.9111 51.9624 48.7095C52.0833 48.5079 52.2446 48.387 52.4866 48.266C52.6882 48.1853 52.9301 48.145 53.1317 48.1853C53.3736 48.2257 53.5752 48.3466 53.7365 48.5079C53.9381 48.7095 54.0591 49.0321 54.0591 49.3144V51.2498L54.301 51.3304L54.3414 51.3708L54.5833 51.5724C54.6639 51.653 54.7446 51.7337 54.8655 51.8143C55.0672 51.9756 55.3091 52.2175 55.6317 52.4595C55.7123 52.5401 55.7929 52.5804 55.8333 52.6611C56.1962 52.9836 56.5994 53.3869 56.9623 53.8304C57.0832 53.9514 57.1639 54.0723 57.2849 54.1933C57.4058 54.3143 57.5268 54.4756 57.6074 54.5965C57.6881 54.7175 57.8897 54.9594 58.0106 55.1207L58.1719 55.403C58.3332 55.6449 58.4542 55.8868 58.6155 56.1288C58.6558 56.2497 58.7364 56.3707 58.7768 56.4916C58.9381 56.8142 59.0187 57.1368 59.0993 57.4997C59.1397 57.5803 59.1397 57.661 59.1397 57.7013C59.18 57.8223 59.18 57.9029 59.18 58.0239C59.2203 58.3868 59.18 58.7094 59.1397 59.0722C59.0993 59.2335 59.059 59.3545 59.0187 59.5158C58.9784 59.6771 58.9381 59.798 58.8574 59.9593C58.7364 60.2416 58.5752 60.5238 58.4139 60.8061C58.3735 60.8867 58.2929 61.0077 58.2123 61.1287C58.1316 61.2093 58.051 61.3303 58.0106 61.4512C57.93 61.5319 57.809 61.6932 57.7284 61.8141C57.6478 61.9351 57.5671 62.0561 57.4461 62.177C57.3252 62.3383 57.1639 62.4996 57.0429 62.6206C56.922 62.7415 56.8816 62.8222 56.801 62.9028L56.5187 63.1851C56.4381 63.2657 56.2768 63.427 56.1558 63.5077L55.9139 63.7093C55.8736 63.7496 55.8333 63.7496 55.7929 63.7496H54.0188V66.0076H56.1962C56.68 66.0076 57.1639 65.8463 57.5268 65.5237C58.0107 65.1205 58.4542 64.6367 58.8977 64.1931C58.9381 64.1528 58.9381 64.1528 58.9784 64.1528L65.1073 62.3786H65.1879C65.2283 62.3786 65.2283 62.3786 65.2686 62.419C65.3089 62.419 65.3089 62.4593 65.3089 62.4996V63.6689Z" fill="#9D9DA6"/>
<rect x="0.5" y="0.5" width="239" height="119" stroke="#2E2E33"/>
</svg>
