<svg width="758" height="520" viewBox="0 0 758 520" fill="none" xmlns="http://www.w3.org/2000/svg">
<mask id="path-1-inside-1_32635_134446" fill="white">
<path d="M313.982 210.657H528.16L747.265 428.283C761.518 442.44 761.591 465.466 747.41 479.695L466.421 762H245.789L312.491 697.176L557.393 453.907L315.6 210.639"/>
</mask>
<path d="M528.16 210.657L528.865 209.948L528.572 209.657H528.16V210.657ZM747.265 428.283L747.97 427.574V427.574L747.265 428.283ZM747.41 479.695L746.702 478.99L746.701 478.99L747.41 479.695ZM466.421 762V763H466.837L467.13 762.706L466.421 762ZM245.789 762L245.092 761.283L243.325 763H245.789V762ZM312.491 697.176L313.188 697.893L313.196 697.885L312.491 697.176ZM557.393 453.907L558.098 454.617L558.808 453.912L558.103 453.203L557.393 453.907ZM313.982 211.657H528.16V209.657H313.982V211.657ZM527.455 211.367L746.56 428.993L747.97 427.574L528.865 209.948L527.455 211.367ZM746.56 428.993C760.421 442.76 760.491 465.152 746.702 478.99L748.119 480.401C762.69 465.779 762.615 442.12 747.97 427.574L746.56 428.993ZM746.701 478.99L465.712 761.295L467.13 762.706L748.119 480.401L746.701 478.99ZM466.421 761H245.789V763H466.421V761ZM246.486 762.717L313.188 697.893L311.794 696.459L245.092 761.283L246.486 762.717ZM313.196 697.885L558.098 454.617L556.689 453.198L311.787 696.466L313.196 697.885ZM558.103 453.203L316.309 209.934L314.891 211.344L556.684 454.612L558.103 453.203Z" fill="#2E2E33" mask="url(#path-1-inside-1_32635_134446)"/>
<mask id="path-3-inside-2_32635_134446" fill="white">
<path d="M402.018 453.361H187.84L-31.2646 235.735C-45.5177 221.578 -45.5904 198.552 -31.41 184.323L249.579 -98H470.211L403.509 -33.1757L158.607 210.092L400.4 453.361"/>
</mask>
<path d="M187.84 453.361L187.135 454.07L187.428 454.361H187.84V453.361ZM-31.2646 235.735L-31.9693 236.445H-31.9693L-31.2646 235.735ZM-31.41 184.323L-30.7017 185.029L-30.7012 185.028L-31.41 184.323ZM249.579 -98V-99H249.164L248.871 -98.7054L249.579 -98ZM470.211 -98L470.908 -97.2829L472.675 -99H470.211V-98ZM403.509 -33.1757L402.812 -33.8929L402.804 -33.8852L403.509 -33.1757ZM158.607 210.092L157.902 209.383L157.192 210.088L157.898 210.797L158.607 210.092ZM402.018 452.361H187.84V454.361H402.018V452.361ZM188.545 452.651L-30.5599 235.026L-31.9693 236.445L187.135 454.07L188.545 452.651ZM-30.5599 235.026C-44.4212 221.258 -44.4913 198.866 -30.7017 185.029L-32.1184 183.617C-46.6895 198.239 -46.6142 221.898 -31.9693 236.445L-30.5599 235.026ZM-30.7012 185.028L250.288 -97.2946L248.871 -98.7054L-32.1188 183.617L-30.7012 185.028ZM249.579 -97H470.211V-99H249.579V-97ZM469.514 -98.7171L402.812 -33.8929L404.206 -32.4586L470.908 -97.2829L469.514 -98.7171ZM402.804 -33.8852L157.902 209.383L159.312 210.802L404.214 -32.4663L402.804 -33.8852ZM157.898 210.797L399.691 454.066L401.109 452.656L159.316 209.388L157.898 210.797Z" fill="#2E2E33" mask="url(#path-3-inside-2_32635_134446)"/>
</svg>
