<svg width="335" height="272" viewBox="0 0 335 272" fill="none" xmlns="http://www.w3.org/2000/svg">
<mask id="mask0_32092_134238" style="mask-type:luminance" maskUnits="userSpaceOnUse" x="67" y="137" width="207" height="119">
<path d="M170.612 137.422C227.778 137.422 273.541 163.861 273.541 196.498C273.541 229.135 227.778 255.536 170.612 255.536C113.447 255.536 67.6465 229.097 67.6465 196.498C67.6465 163.899 113.409 137.422 170.612 137.422Z" fill="white"/>
</mask>
<g mask="url(#mask0_32092_134238)">
<path d="M121.46 144.346C156.922 168.537 161.453 239.065 161.453 239.065" stroke="white" stroke-width="0.5" stroke-linecap="round" stroke-linejoin="round"/>
<path d="M218.847 144.346C185.286 168.565 180.96 239.065 180.96 239.065" stroke="white" stroke-width="0.5" stroke-linecap="round" stroke-linejoin="round"/>
<path d="M74.2568 175.814C132.756 191.598 147.927 249.485 147.927 249.485" stroke="white" stroke-width="0.5" stroke-linecap="round" stroke-linejoin="round"/>
<path d="M65.1299 218.927C118 218.927 149.155 256.062 149.155 256.062" stroke="white" stroke-width="0.5" stroke-linecap="round" stroke-linejoin="round"/>
<path d="M275.35 218.927C222.48 218.927 191.325 256.062 191.325 256.062" stroke="white" stroke-width="0.5" stroke-linecap="round" stroke-linejoin="round"/>
<path d="M266.362 175.814C207.893 191.598 192.692 249.485 192.692 249.485" stroke="white" stroke-width="0.5" stroke-linecap="round" stroke-linejoin="round"/>
<path d="M170.228 186.242C207.264 186.242 237.287 201.763 237.287 220.888C237.287 240.013 207.264 255.535 170.228 255.535C133.193 255.535 103.208 240.048 103.208 220.888C103.208 201.729 133.42 186.242 170.228 186.242Z" stroke="white" stroke-width="0.5" stroke-linejoin="round"/>
<path d="M170.493 212.157C194.457 212.157 213.883 222.252 213.883 234.691C213.883 247.13 194.457 257.225 170.493 257.225C146.528 257.225 127.126 247.152 127.126 234.691C127.126 222.229 146.675 212.157 170.493 212.157Z" stroke="white" stroke-width="0.5" stroke-linejoin="round"/>
<path d="M170.429 160.329C218.358 160.329 257.211 181.655 257.211 207.932C257.211 234.21 218.358 255.536 170.429 255.536C122.501 255.536 83.6973 234.257 83.6973 207.932C83.6973 181.608 122.795 160.329 170.429 160.329Z" stroke="white" stroke-width="0.5" stroke-linejoin="round"/>
<path d="M170.361 235.366C183.827 235.366 194.752 241.511 194.752 249.136C194.752 256.76 183.827 262.906 170.361 262.906C156.894 262.906 146.008 256.722 146.008 249.136C146.008 241.549 156.932 235.366 170.361 235.366Z" fill="white" stroke="white" stroke-width="0.5" stroke-linejoin="round"/>
</g>
<path d="M170.692 137.422C227.553 137.422 273.7 163.755 273.7 196.262C273.7 228.769 227.553 255.064 170.692 255.064C113.83 255.064 67.6465 228.731 67.6465 196.262C67.6465 163.793 113.792 137.422 170.692 137.422Z" stroke="white" stroke-width="0.5" stroke-linejoin="round"/>
<path d="M199.995 184.372C206.882 180.372 213.77 176.371 220.657 172.371C212.685 177.309 200.991 182.028 192.873 186.732C191.276 187.67 194.47 188.593 192.873 189.531C195.643 187.816 197.225 186.102 199.995 184.372Z" fill="white" stroke="white" stroke-width="0.5" stroke-miterlimit="10" stroke-linecap="round" stroke-linejoin="round"/>
<path d="M218.901 71.514C218.901 71.514 215.863 69.7596 209.785 66.2514C203.708 62.7432 198.745 59.766 196.981 60.7303C195.216 61.6946 180.458 71.3557 180.458 71.3557L199.494 82.4565L218.901 71.514Z" fill="#17171A" stroke="white" stroke-width="0.5" stroke-miterlimit="10" stroke-linejoin="round"/>
<path d="M192.812 141.068L202.58 133.999L223.975 94.0041L209.536 85.5578L183.515 133.565C183.515 133.565 182.891 135.23 184.157 135.962C185.423 136.693 192.812 141.068 192.812 141.068Z" fill="white" stroke="white" stroke-width="0.5" stroke-miterlimit="10" stroke-linejoin="round"/>
<path d="M205.09 66.1936C206.303 65.4961 208.032 65.1918 209.67 66.1366L232.594 79.3717C236.139 81.4185 235.611 85.8411 233.857 88.879L210.466 129.393C209.503 131.135 208.563 132.356 206.822 133.366L193.539 141C192.448 141.72 191.332 140.145 192.098 138.818L216.534 94.7338C217.06 93.7855 216.734 92.591 215.8 92.0408L189.04 76.2828L205.09 66.1936Z" fill="#36FFFF" stroke="black" stroke-width="0.5" stroke-miterlimit="10" stroke-linejoin="round"/>
<path d="M117.639 80.7377L111.197 74.7711L110.791 163.513C110.791 172.281 112.388 176.476 119.279 180.67C126.171 184.864 211.026 233.763 211.026 233.763C218.724 238.147 225.131 234.596 225.161 225.784V160.02C225.331 155.119 224.124 150.269 221.676 146.016C219.228 141.763 217.749 137.274 213.418 134.948L117.639 80.7377Z" fill="#17171A" stroke="white" stroke-width="0.5" stroke-linejoin="round"/>
<path fill-rule="evenodd" clip-rule="evenodd" d="M118.337 72.8265C119.877 71.5629 122.027 71.3751 123.757 72.3639C136.918 79.8889 192.21 111.548 221.108 128.817C230.554 134.37 235.684 144.766 235.686 155.721C235.686 155.721 235.686 217.047 235.686 220.684C235.686 224.322 235.282 225.939 234.069 226.747C232.856 227.556 227.602 230.789 227.602 230.789C227.602 230.789 230.027 228.768 230.027 224.322C230.027 219.876 230.027 155.722 230.027 155.722C230.026 147.033 225.315 138.788 217.821 134.386L217.799 134.373C188.951 117.11 132.335 84.607 118.665 76.7699C117.205 75.9329 117.036 73.8939 118.337 72.8265Z" fill="#17171A" stroke="white" stroke-width="0.5" stroke-linecap="square" stroke-linejoin="round"/>
<ellipse cx="3.95373" cy="7.90747" rx="3.95373" ry="7.90747" transform="matrix(0.866025 0.5 0.00820295 0.999966 187.459 165.253)" fill="white" stroke="white" stroke-width="0.5" stroke-linejoin="round"/>
<ellipse cx="2.79855" cy="5.59711" rx="2.79855" ry="5.59711" transform="matrix(0.866025 0.5 0.00820295 0.999966 189.333 168.141)" fill="#17171A" stroke="white" stroke-width="0.5" stroke-linejoin="round"/>
<path d="M235.684 225.873C238.328 224.271 239.726 222.647 239.726 216.943V154.574C239.726 142.388 233.256 131.119 222.733 124.975L127.717 69.4991C123.079 66.7914 117.262 67.1709 113.016 70.4584C110.247 72.6019 110.527 76.8664 113.552 78.6298L207.962 133.662C218.498 139.803 224.977 151.079 224.977 163.274V225.873C224.977 230.271 223.314 233.365 220.804 234.832C220.804 234.832 233.039 227.474 235.684 225.873Z" fill="#17171A" stroke="white" stroke-width="0.5" stroke-linejoin="round"/>
<ellipse cx="15.9391" cy="31.8783" rx="15.9391" ry="31.8783" transform="matrix(0.866025 0.5 0.00820295 0.999966 171.449 132.666)" fill="#A878FF" stroke="white" stroke-width="0.5" stroke-linejoin="round"/>
<ellipse cx="11.9377" cy="23.8753" rx="11.9377" ry="23.8753" transform="matrix(0.866025 0.5 0.00820295 0.999966 178.125 141.467)" fill="white" stroke="white" stroke-width="0.5" stroke-linejoin="round"/>
<path fill-rule="evenodd" clip-rule="evenodd" d="M118.324 72.8361C119.869 71.5691 122.038 71.397 123.763 72.4047L218.7 127.868C229.218 134.014 235.685 145.261 235.685 157.443C235.685 181.169 235.685 218.224 235.685 220.684C235.685 224.322 235.281 226.561 234.068 227.369C232.855 228.177 227.601 231.411 227.601 231.411C227.601 231.411 230.026 228.768 230.026 224.322C230.026 221.32 230.026 184.054 230.026 160.163C230.026 147.853 223.425 136.508 212.731 130.41L118.656 76.7571C117.201 75.9277 117.03 73.898 118.324 72.8361Z" fill="white" stroke="white" stroke-width="0.5" stroke-linecap="square" stroke-linejoin="round"/>
<path d="M242.886 193.615C242.886 194.64 242.367 195.596 241.508 196.156L233.23 201.546C230.039 203.624 225.952 203.732 222.656 201.826L190.229 183.077C186.361 180.841 184.036 176.66 184.177 172.194L184.538 160.801C184.635 157.736 187.983 155.897 190.622 157.459L221.194 175.552C224.355 177.423 228.283 177.431 231.452 175.573L240.35 170.357V167.431L241.949 168.448C242.532 168.819 242.886 169.462 242.886 170.153V193.615Z" fill="white" stroke="white" stroke-width="0.5" stroke-linejoin="round"/>
<path d="M240.534 196.738L231.516 202.459C228.335 204.477 224.296 204.559 221.037 202.671L186.353 182.585C183.863 181.143 182.33 178.484 182.33 175.606V162.597C182.33 159.491 185.695 157.551 188.383 159.108L221.427 178.247C224.479 180.014 228.23 180.064 231.327 178.377L240.534 173.363V196.738Z" fill="#17171A" stroke="white" stroke-width="0.5" stroke-linejoin="round"/>
<ellipse cx="2.98028" cy="5.96056" rx="2.98028" ry="5.96056" transform="matrix(0.866025 0.5 0.00820295 0.999966 186.27 165.081)" fill="white" stroke="white" stroke-width="0.5" stroke-linejoin="round"/>
<path d="M284.306 149.337L286.85 151.307C291.088 154.59 289.199 164.127 282.632 172.608C276.064 181.089 267.303 185.304 263.064 182.022L260.521 180.052L284.306 149.337Z" fill="#17171A" stroke="white" stroke-width="0.5" stroke-linejoin="round"/>
<path d="M264.86 158.835C271.462 150.309 280.273 146.075 284.534 149.374C288.795 152.674 286.9 162.264 280.298 170.789C273.696 179.315 264.889 183.552 260.624 180.25C256.359 176.947 258.258 167.36 264.86 158.835Z" fill="#36FFFF"/>
<path d="M264.86 158.835C271.462 150.309 280.273 146.075 284.534 149.374C288.795 152.674 286.9 162.264 280.298 170.789C273.696 179.315 264.889 183.552 260.624 180.25C256.359 176.947 258.258 167.36 264.86 158.835Z" stroke="white" stroke-width="0.5" stroke-linejoin="round"/>
<path d="M87.4003 123.436L85.3803 124.961C82.8745 126.853 76.6329 122.804 71.4379 115.922C66.2428 109.04 64.0602 101.927 66.566 100.036L68.5859 98.5113L87.4003 123.436Z" fill="#17171A" stroke="white" stroke-width="0.5" stroke-linejoin="round"/>
<path d="M82.5844 107.518C87.8066 114.436 90.0362 121.559 87.5681 123.422C85.1 125.285 78.8581 121.191 73.6359 114.272C68.4136 107.354 66.184 100.231 68.6552 98.3659C71.1265 96.5005 77.3621 100.599 82.5844 107.518Z" fill="#A878FF"/>
<path d="M82.5844 107.518C87.8066 114.436 90.0362 121.559 87.5681 123.422C85.1 125.285 78.8581 121.191 73.6359 114.272C68.4136 107.354 66.184 100.231 68.6552 98.3659C71.1265 96.5005 77.3621 100.599 82.5844 107.518Z" stroke="white" stroke-width="0.5" stroke-linejoin="round"/>
<path d="M103.058 58.9002L92.2428 65.3667L82.9561 54.1861L93.7716 47.7196L103.058 58.9002Z" fill="#36FFFF"/>
<path d="M261.898 138.897L255.43 127.693L261.778 113.496L268.246 124.7L261.898 138.897Z" fill="#A878FF"/>
<path d="M130.422 226.406L142.782 222.584L152.188 231.923L139.828 235.745L130.422 226.406Z" fill="#36FFFF"/>
<path d="M146.42 118.074C157.249 118.786 166.605 110.585 167.318 99.7559C168.03 88.9267 159.829 79.5703 149 78.8579C138.17 78.1455 128.814 86.3467 128.102 97.176C127.389 108.005 135.59 117.362 146.42 118.074Z" fill="#A878FF" stroke="white" stroke-width="0.5" stroke-linejoin="round"/>
<path d="M144.691 100.434C145.625 100.085 145.963 98.6858 145.447 97.3094C144.931 95.933 143.757 95.1004 142.823 95.4498C141.89 95.7993 141.552 97.1984 142.067 98.5748C142.583 99.9512 143.758 100.784 144.691 100.434Z" fill="white"/>
<path d="M152.352 97.5716C153.285 97.2222 153.624 95.8232 153.108 94.4468C152.592 93.0704 151.417 92.2378 150.484 92.5872C149.551 92.9366 149.212 94.3358 149.728 95.7122C150.244 97.0886 151.419 97.9211 152.352 97.5716Z" fill="white"/>
<path d="M158.556 95.5989C159.586 98.4364 159.465 101.577 158.222 104.33C156.978 107.083 154.713 109.222 151.924 110.278C149.136 111.333 146.053 111.218 143.353 109.958C140.653 108.698 138.558 106.396 137.528 103.559" stroke="white" stroke-width="0.5" stroke-linecap="round" stroke-linejoin="round"/>
<path d="M112.862 130.923C112.071 130.466 111.32 129.973 109.993 130.629C108.666 131.285 102.348 134.953 99.62 136.754C96.715 138.672 95.1088 139.889 93.7931 142.168C92.4774 144.447 71.8077 180.248 69.818 183.695C67.8284 187.141 68.281 190.233 70.6531 191.604C75.3979 194.344 81.5869 198.027 81.5869 198.027L120.757 135.592C120.757 135.592 113.653 131.38 112.862 130.923Z" fill="#A878FF" stroke="white" stroke-width="0.5" stroke-miterlimit="10" stroke-linejoin="round"/>
<path fill-rule="evenodd" clip-rule="evenodd" d="M89.5318 185.191L74.2695 175.984C79.7005 166.577 88.4538 151.416 92.1374 145.036L93.7927 142.169C95.1084 139.89 96.7146 138.672 99.6196 136.755C99.9261 136.552 100.274 136.322 100.652 136.072C103.636 134.098 108.49 130.887 109.668 130.305C110.944 129.674 111.687 130.105 112.445 130.545C112.476 130.563 112.506 130.581 112.537 130.598C113.328 131.055 120.432 135.267 120.432 135.267L89.5318 185.191Z" fill="#17171A"/>
<path d="M89.5318 185.191L89.4027 185.405L89.6143 185.532L89.7444 185.322L89.5318 185.191ZM74.2695 175.984L74.053 175.859L73.9304 176.071L74.1404 176.198L74.2695 175.984ZM92.1374 145.036L92.3539 145.161H92.3539L92.1374 145.036ZM93.7927 142.169L94.0092 142.294V142.294L93.7927 142.169ZM99.6196 136.755L99.4818 136.546L99.6196 136.755ZM100.652 136.072L100.79 136.281L100.652 136.072ZM109.668 130.305L109.779 130.529V130.529L109.668 130.305ZM112.445 130.545L112.571 130.329L112.571 130.329L112.445 130.545ZM112.537 130.598L112.662 130.382V130.382L112.537 130.598ZM120.432 135.267L120.644 135.399L120.779 135.182L120.559 135.052L120.432 135.267ZM89.6609 184.977L74.3986 175.77L74.1404 176.198L89.4027 185.405L89.6609 184.977ZM91.9209 144.911C88.2373 151.291 79.4839 166.452 74.053 175.859L74.486 176.109C79.917 166.702 88.6704 151.541 92.3539 145.161L91.9209 144.911ZM93.5762 142.044L91.9209 144.911L92.3539 145.161L94.0092 142.294L93.5762 142.044ZM99.4818 136.546C96.5739 138.466 94.9234 139.71 93.5762 142.044L94.0092 142.294C95.2934 140.069 96.8554 138.879 99.7573 136.963L99.4818 136.546ZM100.514 135.864C100.136 136.114 99.7883 136.344 99.4818 136.546L99.7573 136.963C100.064 136.761 100.412 136.531 100.79 136.281L100.514 135.864ZM109.557 130.08C108.952 130.38 107.429 131.338 105.701 132.457C103.966 133.58 102.005 134.877 100.514 135.864L100.79 136.281C102.282 135.294 104.24 133.998 105.973 132.877C107.713 131.75 109.206 130.812 109.779 130.529L109.557 130.08ZM112.571 130.329C112.198 130.112 111.786 129.871 111.298 129.778C110.797 129.682 110.237 129.744 109.557 130.08L109.779 130.529C110.375 130.234 110.824 130.196 111.204 130.269C111.595 130.344 111.935 130.538 112.32 130.762L112.571 130.329ZM112.662 130.382C112.632 130.364 112.601 130.347 112.571 130.329L112.32 130.762C112.35 130.779 112.381 130.797 112.412 130.815L112.662 130.382ZM120.432 135.267C120.559 135.052 120.559 135.052 120.559 135.052C120.559 135.052 120.559 135.052 120.559 135.052C120.559 135.052 120.559 135.052 120.558 135.051C120.557 135.051 120.556 135.05 120.554 135.049C120.551 135.047 120.546 135.044 120.539 135.04C120.526 135.032 120.506 135.02 120.479 135.005C120.427 134.974 120.35 134.928 120.253 134.87C120.057 134.754 119.776 134.588 119.437 134.387C118.759 133.985 117.846 133.444 116.908 132.889C115.034 131.779 113.059 130.611 112.662 130.382L112.412 130.815C112.806 131.042 114.778 132.209 116.654 133.319C117.591 133.874 118.504 134.415 119.182 134.817C119.521 135.018 119.802 135.184 119.998 135.3C120.096 135.358 120.172 135.404 120.224 135.435C120.251 135.45 120.271 135.462 120.284 135.47C120.291 135.474 120.296 135.477 120.299 135.479C120.301 135.48 120.302 135.481 120.303 135.481C120.304 135.482 120.304 135.482 120.304 135.482C120.304 135.482 120.304 135.482 120.304 135.482C120.304 135.482 120.304 135.482 120.432 135.267ZM89.7444 185.322L120.644 135.399L120.219 135.136L89.3192 185.059L89.7444 185.322Z" fill="white"/>
<path d="M119.049 135.628C120.608 134.721 121.955 136.399 121.27 137.585L96.8411 180.777C96.0475 182.18 96.5046 183.96 97.8762 184.807L124.162 201.038L108.479 210.513C107.262 211.211 105.601 211.89 103.365 210.599L81.0828 197.734C77.9191 195.909 76.9741 191.986 79.021 188.44L102.119 148.434C103.434 146.155 104.311 144.636 105.948 143.555L119.049 135.628Z" fill="#36FFFF" stroke="black" stroke-width="0.5" stroke-miterlimit="10" stroke-linejoin="round"/>
</svg>
