<svg width="30" height="30" viewBox="0 0 30 30" fill="none" xmlns="http://www.w3.org/2000/svg">
<g clip-path="url(#clip0_4686_3381)">
<path d="M12.2838 27.2038C6.6875 25.9638 2.5 20.9713 2.5 15C2.5 12.7225 3.10875 10.5875 4.17375 8.74751L9.5275 18.0213C10.129 19.1114 11.0424 19.997 12.1507 20.5645C13.2589 21.132 14.5114 21.3555 15.7475 21.2063L12.285 27.2038H12.2838ZM15 27.5L20.3588 18.2188C20.9437 17.2471 21.2519 16.1341 21.25 15C21.252 13.6474 20.8132 12.3309 20 11.25H26.9275C27.3 12.4338 27.5 13.6938 27.5 15C27.5 21.9038 21.9038 27.5 15 27.5ZM18.215 16.9313C17.8791 17.4912 17.4028 17.9537 16.8332 18.2729C16.2637 18.5922 15.6206 18.7571 14.9677 18.7515C14.3147 18.7458 13.6746 18.5696 13.1107 18.2405C12.5468 17.9114 12.0786 17.4407 11.7525 16.875L11.7163 16.8125C11.3997 16.2389 11.239 15.5924 11.25 14.9373C11.2611 14.2822 11.4436 13.6415 11.7794 13.0789C12.1151 12.5163 12.5924 12.0515 13.1637 11.7308C13.7349 11.4101 14.3803 11.2446 15.0354 11.2509C15.6905 11.2571 16.3326 11.4349 16.8976 11.7665C17.4626 12.0981 17.9309 12.572 18.2558 13.1409C18.5808 13.7098 18.751 14.3539 18.7495 15.0091C18.748 15.6642 18.575 16.3076 18.2475 16.875L18.215 16.9313ZM5.79 6.54876C6.95967 5.27112 8.38275 4.25124 9.96848 3.55414C11.5542 2.85705 13.2678 2.49804 15 2.50001C17.1947 2.49912 19.3509 3.0763 21.2516 4.17347C23.1524 5.27065 24.7306 6.84911 25.8275 8.75001H15C13.7755 8.74985 12.578 9.1093 11.556 9.78373C10.534 10.4582 9.73261 11.4179 9.25125 12.5438L5.79 6.54876Z" fill="#00C2B7"/>
</g>
<defs>
<clipPath id="clip0_4686_3381">
<rect width="30" height="30" fill="white"/>
</clipPath>
</defs>
</svg>
