<svg width="240" height="120" viewBox="0 0 240 120" fill="none" xmlns="http://www.w3.org/2000/svg">
<rect x="0.5" y="0.5" width="239" height="119" fill="#17171A"/>
<g clip-path="url(#clip0_33144_129096)">
<path d="M55.1753 64.7221C55.1753 63.692 56.0104 62.8569 57.0404 62.8569H57.7865C58.8166 62.8569 59.6517 63.692 59.6517 64.7221V65.4682C59.6517 66.4982 58.8166 67.3333 57.7865 67.3333H57.0404C56.0104 67.3333 55.1753 66.4982 55.1753 65.4682V64.7221Z" fill="#9D9DA6"/>
<path d="M57.0404 56.1426C56.0104 56.1426 55.1753 56.9776 55.1753 58.0077V58.7538C55.1753 59.7839 56.0104 60.619 57.0404 60.619H57.7865C58.8166 60.619 59.6517 59.7839 59.6517 58.7538V58.0077C59.6517 56.9776 58.8166 56.1426 57.7865 56.1426H57.0404Z" fill="#9D9DA6"/>
<path fill-rule="evenodd" clip-rule="evenodd" d="M48.4607 48.3091C44.3402 48.3091 41 51.6493 41 55.7697V65.0955C41 69.216 44.3402 72.5562 48.4607 72.5562H57.7865C61.9069 72.5562 65.2471 69.216 65.2471 65.0955V55.7697C65.2471 51.6493 61.9069 48.3091 57.7865 48.3091H48.4607ZM57.7865 51.2933H48.4607C45.9884 51.2933 43.9843 53.2975 43.9843 55.7697V65.0955C43.9843 67.5678 45.9884 69.5719 48.4607 69.5719H57.7865C60.2587 69.5719 62.2628 67.5678 62.2628 65.0955V55.7697C62.2628 53.2975 60.2587 51.2933 57.7865 51.2933Z" fill="#9D9DA6"/>
<path d="M88.8575 66.5277C89.3656 65.713 89.6262 64.7686 89.6075 63.8091C89.6075 62.9217 89.4111 62.1555 89.0228 61.5289C88.6024 60.8688 88.0317 60.3172 87.3573 59.9192C86.4783 59.4048 85.5488 58.9818 84.5834 58.6568C84.5118 58.6337 84.4482 58.6107 84.3939 58.5899L84.2517 58.5391C83.6183 58.3233 83.1445 58.1491 82.8394 58.021C82.5604 57.9121 82.3023 57.7559 82.0766 57.5594C81.9778 57.4732 81.8987 57.3667 81.8449 57.2472C81.7911 57.1278 81.7636 56.9981 81.7645 56.867C81.7585 56.6723 81.7996 56.479 81.8843 56.3034C81.969 56.1279 82.0948 55.9752 82.2511 55.8586C82.5597 55.6208 83.0023 55.4997 83.5652 55.4997C84.2594 55.5059 84.9448 55.6552 85.5785 55.9381C86.1292 56.1737 86.6421 56.489 87.1007 56.874L89.314 54.1807C88.5462 53.4972 87.6686 52.9476 86.7181 52.5549C85.6564 52.1366 84.5228 51.93 83.3814 51.9467C82.1101 51.9467 81.041 52.1706 80.2088 52.6126C79.3767 53.0545 78.7676 53.6372 78.3839 54.3515C77.9942 55.0797 77.7935 55.8938 77.8002 56.7194C77.8002 58.171 78.2625 59.2845 79.1663 60.0311C80.1679 60.8333 81.3213 61.4255 82.5573 61.7724C83.1929 61.9492 83.8148 62.1717 84.4182 62.4382C84.8666 62.6517 85.166 62.8652 85.3324 63.089C85.5038 63.3231 85.5935 63.6068 85.5878 63.8968C85.5926 64.112 85.542 64.3249 85.4408 64.515C85.3396 64.7051 85.1912 64.8661 85.0099 64.9826C84.6412 65.2365 84.1119 65.3599 83.3918 65.3599C81.9552 65.3599 80.5648 64.7449 79.2588 63.5309L76.7646 66.1192C77.6187 67.0116 78.6396 67.7282 79.7697 68.2286C80.9477 68.7392 82.2196 68.9987 83.5039 68.9902C84.7244 68.9902 85.8155 68.7732 86.732 68.344C87.6006 67.9551 88.3385 67.3245 88.8575 66.5277Z" fill="#9D9DA6"/>
<path d="M142.221 64.7958L140.395 63.335C139.801 64.1192 138.977 64.6991 138.037 64.994C137.098 65.2889 136.09 65.2842 135.153 64.9806C134.216 64.6769 133.397 64.0893 132.81 63.2995C132.224 62.5098 131.898 61.5571 131.879 60.5739C131.859 59.5908 132.147 58.6261 132.702 57.8138C133.257 57.0016 134.052 56.3823 134.976 56.042C135.9 55.7017 136.907 55.6573 137.858 55.915C138.808 56.1727 139.655 56.7197 140.28 57.48L143.251 55.1041C142.133 53.7279 140.613 52.7334 138.903 52.2583C137.193 51.7832 135.377 51.8512 133.707 52.4527C132.037 53.0542 130.597 54.1596 129.584 55.6154C128.572 57.0713 128.038 58.8055 128.058 60.5776C128.077 62.3497 128.648 64.072 129.692 65.5056C130.736 66.9391 132.201 68.0128 133.883 68.578C135.565 69.1432 137.382 69.1717 139.081 68.6596C140.781 68.1475 142.278 67.1202 143.367 65.7201L142.221 64.7958Z" fill="#9D9DA6"/>
<path fill-rule="evenodd" clip-rule="evenodd" d="M107.487 57.4096C107.487 58.5382 107.256 59.5432 106.794 60.3971C106.337 61.2427 105.642 61.9352 104.793 62.3876C103.917 62.8608 102.864 63.1007 101.663 63.1007H98.7946V68.3799H94.835V51.9458H101.608C102.785 51.9458 103.83 52.1847 104.715 52.6543C105.568 53.0973 106.277 53.7721 106.762 54.601C107.251 55.4557 107.501 56.4256 107.487 57.4096ZM102.436 59.2939C102.767 59.1179 103.045 58.8545 103.237 58.5324C103.433 58.2037 103.535 57.8277 103.531 57.4454C103.536 57.081 103.433 56.7235 103.233 56.4184C103.034 56.1207 102.758 55.8816 102.436 55.726C102.089 55.5597 101.708 55.4759 101.323 55.4814H98.7946V59.5663H101.312C101.703 59.5706 102.089 59.477 102.436 59.2939Z" fill="#9D9DA6"/>
<path d="M152.409 61.6918H158.593V58.4435H152.409V55.4814H160.315V51.9458H148.449V68.3799H160.494V64.8444H152.409V61.6918Z" fill="#9D9DA6"/>
<path d="M172.373 51.9458H176.333V68.3799H172.373V51.9458Z" fill="#9D9DA6"/>
<path fill-rule="evenodd" clip-rule="evenodd" d="M196.107 64.3428C196.859 63.0766 197.255 61.6315 197.254 60.1596C197.253 58.6877 196.855 57.2432 196.102 55.978C195.336 54.7326 194.252 53.713 192.961 53.024C191.613 52.3019 190.105 51.9312 188.576 51.9462H182.421V68.3804H188.612C190.136 68.3953 191.638 68.0245 192.979 67.3026C194.267 66.6125 195.348 65.5906 196.107 64.3428ZM192.656 62.4815C192.281 63.1538 191.726 63.7081 191.053 64.082C190.35 64.47 189.559 64.6689 188.755 64.659H186.382V55.6734H188.744C189.549 55.6626 190.343 55.8614 191.047 56.2504C191.721 56.6257 192.278 57.1796 192.656 57.8509C193.048 58.5563 193.247 59.3521 193.234 60.1587C193.247 60.97 193.048 61.7707 192.656 62.4815Z" fill="#9D9DA6"/>
<path fill-rule="evenodd" clip-rule="evenodd" d="M115.307 51.9458H118.837L125.149 68.403H121.087L120.19 65.7756V65.7675H113.915V65.7756L113.019 68.403H108.957L115.307 51.9458ZM117.06 56.5557L117.004 56.723L115.099 62.3057H119.016L117.118 56.723L117.06 56.5557Z" fill="#9D9DA6"/>
</g>
<rect x="0.5" y="0.5" width="239" height="119" stroke="#2E2E33"/>
<defs>
<clipPath id="clip0_33144_129096">
<rect width="157" height="24.2471" fill="white" transform="translate(41 48.3091)"/>
</clipPath>
</defs>
</svg>
