<svg width="240" height="120" viewBox="0 0 240 120" fill="none" xmlns="http://www.w3.org/2000/svg">
<rect x="0.5" y="0.5" width="239" height="119" fill="#17171A"/>
<g clip-path="url(#clip0_33124_128220)">
<path fill-rule="evenodd" clip-rule="evenodd" d="M96.1286 60.119L81.0582 44.9785V56.0727L66.093 67.1739L81.0582 67.1809V75.2666L96.1286 60.119Z" fill="#9D9DA6"/>
<path fill-rule="evenodd" clip-rule="evenodd" d="M43 60.1192L58.0704 75.2667V64.2848L72.9304 53.1766L58.0774 53.1696V44.9717L43 60.1192Z" fill="#9D9DA6"/>
<path d="M119.334 69.0397H107.77V65.7016L114.39 58.2751H107.938V54.9932H119.215V58.1629L112.398 65.7297H119.334V69.0397Z" fill="#9D9DA6"/>
<path d="M135.113 54.9931L129.516 60.9048L135.225 69.0396H130.596L126.901 63.6749L125.337 65.3299V69.0396H121.557V48.373H125.337V60.2246L130.169 55.0001H135.113V54.9931Z" fill="#9D9DA6"/>
<path d="M151.551 53.6252L148.03 54.7122C147.897 53.9899 147.539 53.3307 146.95 52.7416C146.361 52.1526 145.499 51.858 144.362 51.858C143.437 51.858 142.679 52.1175 142.09 52.6294C141.501 53.1273 141.207 53.7234 141.207 54.4247C141.207 55.6589 141.936 56.4233 143.395 56.7108L146.207 57.2508C147.988 57.5945 149.37 58.3098 150.358 59.3897C151.347 60.4767 151.838 61.753 151.838 63.2187C151.838 64.8947 151.179 66.3604 149.846 67.6157C148.542 68.8499 146.775 69.474 144.559 69.474C143.29 69.474 142.146 69.2847 141.123 68.906C140.099 68.5273 139.278 68.0224 138.654 67.3913C138.03 66.7461 137.539 66.0659 137.174 65.3646C136.831 64.6423 136.627 63.8989 136.55 63.1345L140.19 62.1668C140.281 63.2537 140.702 64.1584 141.438 64.8807C142.196 65.603 143.247 65.9677 144.594 65.9677C145.618 65.9677 146.41 65.7363 146.978 65.2804C147.567 64.8246 147.862 64.2215 147.862 63.4852C147.862 62.8961 147.644 62.3912 147.21 61.9704C146.796 61.5356 146.193 61.2411 145.421 61.0868L142.609 60.5188C140.982 60.1751 139.692 59.5019 138.745 58.4921C137.799 57.4823 137.329 56.227 137.329 54.7262C137.329 52.938 138.009 51.4303 139.376 50.217C140.758 48.9968 142.413 48.3867 144.348 48.3867C145.506 48.3867 146.536 48.548 147.448 48.8706C148.36 49.1932 149.089 49.635 149.636 50.182C150.183 50.715 150.611 51.269 150.912 51.837C151.2 52.398 151.417 52.9941 151.551 53.6252Z" fill="#9D9DA6"/>
<path d="M158.198 74.5798H154.194L157.49 67.2725L151.55 54.9932H155.786L159.51 63.2121L162.946 54.9932H166.978L158.198 74.5798Z" fill="#9D9DA6"/>
<path d="M172.196 60.9611V69.0398H168.416V54.9933H172.084V56.7324C172.483 56.0452 173.051 55.5262 173.788 55.1616C174.524 54.7969 175.303 54.6216 176.116 54.6216C177.764 54.6216 179.012 55.1475 179.868 56.1924C180.737 57.2233 181.172 58.5557 181.172 60.1897V69.0398H177.392V60.8489C177.392 60.0144 177.175 59.3341 176.74 58.8222C176.326 58.3103 175.681 58.0508 174.805 58.0508C174.012 58.0508 173.374 58.3243 172.904 58.8783C172.434 59.4323 172.196 60.1266 172.196 60.9611Z" fill="#9D9DA6"/>
<path d="M190.436 58.0782C189.433 58.0782 188.592 58.4288 187.905 59.1371C187.224 59.8384 186.881 60.7991 186.881 62.0193C186.881 63.2395 187.224 64.2073 187.905 64.9296C188.606 65.6309 189.454 65.9885 190.464 65.9885C191.355 65.9885 192.063 65.7571 192.596 65.3013C193.129 64.8244 193.487 64.2634 193.676 63.6182L197 64.7332C196.656 66.0306 195.92 67.1386 194.784 68.0713C193.648 69.004 192.21 69.4669 190.464 69.4669C188.381 69.4669 186.628 68.7656 185.205 67.356C183.802 65.9254 183.101 64.1512 183.101 62.0193C183.101 59.8664 183.795 58.0922 185.177 56.6826C186.579 55.2731 188.304 54.5718 190.345 54.5718C192.126 54.5718 193.585 55.0346 194.721 55.9673C195.857 56.879 196.586 57.994 196.909 59.3054L193.529 60.4485C193.08 58.8636 192.049 58.0782 190.436 58.0782Z" fill="#9D9DA6"/>
</g>
<rect x="0.5" y="0.5" width="239" height="119" stroke="#2E2E33"/>
<defs>
<clipPath id="clip0_33124_128220">
<rect width="154" height="30.3652" fill="white" transform="translate(43 44.9717)"/>
</clipPath>
</defs>
</svg>
