<svg width="240" height="120" viewBox="0 0 240 120" fill="none" xmlns="http://www.w3.org/2000/svg">
<rect x="0.5" y="0.5" width="239" height="119" fill="#17171A"/>
<g clip-path="url(#clip0_33124_128418)">
<path d="M54.958 48.9551C59.33 49.4483 63.4616 51.5449 66.3659 54.9045C66.3837 54.9253 66.3832 54.9458 66.3644 54.966C66.356 54.9759 66.3448 54.9866 66.331 54.9979" stroke="#A1C6E5" stroke-width="0.148327"/>
<path d="M66.3312 54.9978C65.0259 53.9239 63.6084 53.022 62.0787 52.2923C62.0717 52.2888 62.0639 52.2875 62.0562 52.2885C62.0485 52.2894 62.0413 52.2926 62.0354 52.2977C62.0295 52.3028 62.0253 52.3095 62.0232 52.317C62.0212 52.3245 62.0214 52.3324 62.0238 52.3397C62.1088 52.6062 62.2339 52.8534 62.3991 53.0814C62.4049 53.0894 62.4078 53.0991 62.4074 53.1089C62.407 53.1188 62.4032 53.1282 62.3968 53.1357C62.3904 53.1431 62.3816 53.1482 62.3719 53.1501C62.3622 53.1519 62.3522 53.1505 62.3434 53.1459C60.6278 52.2648 58.7922 51.7563 56.8368 51.6204C56.77 51.6154 56.7389 51.6357 56.7433 51.6812C56.7444 51.6927 56.7492 51.7035 56.7569 51.7121C56.7647 51.7206 56.775 51.7264 56.7864 51.7286C58.1005 51.959 59.3403 52.3786 60.5057 52.9872C61.0166 53.2542 61.6055 53.6458 62.1573 53.9751" stroke="#9096A7" stroke-width="0.148327"/>
<path d="M62.1573 53.9751C62.6564 54.406 63.1941 54.8525 63.6235 55.2974C65.7738 57.5214 66.9638 60.2189 67.1937 63.3902C67.1946 63.3996 67.1987 63.4084 67.2054 63.415C67.212 63.4217 67.2209 63.4257 67.2302 63.4265C67.2396 63.4273 67.249 63.4248 67.2567 63.4194C67.2644 63.4139 67.2699 63.406 67.2724 63.3968C69.3067 55.5844 65.4791 47.5103 58.3008 44.0127" stroke="#A1C6E5" stroke-width="0.148327"/>
<path d="M58.3006 44.0128C58.3871 43.5925 58.4801 43.1732 58.5795 42.7549C58.7456 42.0556 58.7449 41.1018 58.8509 40.1637C58.8534 40.1424 58.847 40.1305 58.8316 40.1281C58.8133 40.1251 58.8017 40.1328 58.7968 40.1511C58.2865 42.0096 57.403 43.6672 56.1462 45.1237C56.1409 45.1301 56.1378 45.138 56.1373 45.1463C56.1369 45.1546 56.1391 45.1627 56.1437 45.1697C56.1483 45.1766 56.155 45.1818 56.1627 45.1846C56.1705 45.1874 56.179 45.1877 56.187 45.1853L57.2401 44.856C57.2472 44.8537 57.2548 44.8538 57.2619 44.8563C57.269 44.8587 57.275 44.8633 57.2793 44.8695C57.2835 44.8756 57.2857 44.8829 57.2854 44.8904C57.2852 44.8978 57.2825 44.905 57.2779 44.9109C56.0053 46.5847 54.6295 47.8403 52.6686 48.6591C52.6434 48.6695 52.6214 48.6843 52.6026 48.7036L52.5062 48.7993C52.4854 48.8205 52.4709 48.8453 52.4625 48.8734C52.2375 49.626 51.8499 50.2813 51.2996 50.8395C51.2922 50.8471 51.2869 50.8563 51.2839 50.8664C51.2809 50.8765 51.2804 50.8871 51.2825 50.8974C51.2899 50.9349 51.3087 50.9478 51.3389 50.9359C52.6308 50.4321 53.8372 49.7718 54.9581 48.955" stroke="#9096A7" stroke-width="0.148327"/>
<path d="M58.3006 44.0127C58.0578 44.6945 57.8823 45.1509 57.774 45.3818C57.1206 46.7842 56.1506 47.973 54.958 48.955" stroke="#315C8C" stroke-width="0.148327"/>
<path d="M62.1572 53.9751C63.7092 54.0938 65.1752 54.5086 66.5551 55.2196C66.5843 55.2349 66.5934 55.227 66.5826 55.1958C66.545 55.0856 66.4612 55.0196 66.3312 54.9978" stroke="#315C8C" stroke-width="0.148327"/>
<path d="M34.052 59.5161C34.2399 64.4628 36.1521 68.5688 39.7886 71.834C39.8486 71.8874 39.9384 71.9296 40.0036 71.9941" stroke="#9096A7" stroke-width="0.148327"/>
<path d="M40.0039 71.9941C40.4207 72.3763 40.925 72.7667 41.5168 73.1652C44.9744 75.4947 48.9354 76.3817 53.0523 75.9523C55.8927 75.6556 58.6842 74.6269 60.677 72.5133" stroke="#969CBC" stroke-width="0.148327"/>
<path d="M60.6768 72.5131C60.8968 72.3055 61.0966 72.08 61.2761 71.8368C62.7445 69.8507 63.3957 67.5219 63.1828 65.0656C62.6058 58.3976 57.1466 53.7319 50.532 53.6956C50.1676 53.6936 49.7958 53.702 49.4166 53.7208C49.4117 53.721 49.4071 53.7227 49.4034 53.7258C49.3997 53.7289 49.3972 53.7331 49.3961 53.7378C49.395 53.7426 49.3955 53.7476 49.3974 53.7522C49.3994 53.7567 49.4027 53.7605 49.4069 53.7631C50.0002 54.1062 50.5733 54.4686 51.126 54.8503" stroke="#9096A7" stroke-width="0.148327"/>
<path d="M51.1262 54.8501C51.549 55.2748 51.9257 55.7203 52.2565 56.1865C52.2606 56.1922 52.263 56.199 52.2631 56.206C52.2633 56.213 52.2613 56.2199 52.2574 56.2257C52.2535 56.2316 52.2479 56.2361 52.2414 56.2386C52.2349 56.2411 52.2277 56.2416 52.2209 56.2399L51.5141 56.082" stroke="#969CBC" stroke-width="0.148327"/>
<path d="M51.5139 56.0823C47.6693 55.0766 43.399 55.4281 40.075 57.7517" stroke="#9096A7" stroke-width="0.148327"/>
<path d="M40.0751 57.752C39.9021 57.8222 39.7733 57.9154 39.6887 58.0316" stroke="#969CBC" stroke-width="0.148327"/>
<path d="M39.6884 58.0314L38.8741 58.6922C38.8683 58.697 38.8613 58.7002 38.8538 58.7016C38.8464 58.7029 38.8387 58.7023 38.8314 58.6999C38.8242 58.6975 38.8177 58.6932 38.8124 58.6876C38.8072 58.682 38.8034 58.6752 38.8014 58.6677C38.3394 56.8522 38.3609 55.1969 39.4674 53.6127C39.9399 52.9371 40.5836 52.3853 41.2459 51.8758C41.2573 51.8669 41.2713 51.8617 41.2858 51.8611C41.3003 51.8605 41.3146 51.8644 41.3268 51.8724C41.339 51.8803 41.3484 51.8918 41.3537 51.9053C41.359 51.9188 41.3599 51.9337 41.3564 51.9478C41.2236 52.4899 41.0353 53.2901 41.7821 53.4347C42.4288 53.5601 43.2676 53.0521 43.7808 52.7005C44.1457 52.4513 44.4631 52.1198 44.782 51.7994C44.7983 51.783 44.8198 51.7727 44.8428 51.7704C44.8658 51.7681 44.8889 51.7739 44.9081 51.7868C45.3194 52.0652 45.7669 52.13 46.2504 51.9811C46.2552 51.9798 46.2594 51.9769 46.2623 51.9729C46.2652 51.9689 46.2666 51.964 46.2663 51.9589C46.2661 51.9539 46.2642 51.9491 46.2609 51.9452C46.2576 51.9413 46.2531 51.9385 46.2482 51.9374C45.3167 51.745 44.8982 51.2103 44.9926 50.3332C45.0779 49.5411 45.8707 48.8181 46.5642 48.557C48.4412 47.8495 50.9405 46.8572 51.9084 45.0528C51.9796 44.9198 52.0523 44.919 52.1264 45.0505C52.4478 45.6206 52.633 46.2339 52.6819 46.8905C52.6822 46.8951 52.6837 46.8994 52.6862 46.9032C52.6887 46.9069 52.6922 46.91 52.6962 46.912C52.7002 46.914 52.7048 46.915 52.7093 46.9147C52.7138 46.9145 52.7182 46.913 52.722 46.9106C54.2413 45.9375 55.5822 44.7618 56.7446 43.3833C56.7673 43.3566 56.7621 43.3374 56.729 43.3255C46.1244 39.5743 34.8863 46.7763 34.1128 58.0381C34.0876 58.4054 34.0673 58.8981 34.052 59.5162" stroke="#A1C6E5" stroke-width="0.148327"/>
<path d="M39.6887 58.0315C40.6936 59.3375 42.1524 59.9724 43.7751 60.1074C43.8013 60.1098 43.8068 60.1002 43.7915 60.0784C43.5341 59.7098 43.2716 59.3739 43.4154 58.9207C43.6795 58.0894 45.225 57.8083 45.9518 57.746C47.5038 57.6135 49.0262 57.7813 50.5188 58.2496C51.3176 58.5002 51.9153 58.7643 52.3833 59.3865" stroke="#3763A1" stroke-width="0.148327"/>
<path d="M52.383 59.3862C53.6001 60.9637 53.5504 62.9698 52.3548 64.528C50.6409 66.7633 47.5987 67.8698 44.8443 67.8142C41.2147 67.74 38.2994 65.8392 36.1427 63.0173C35.335 61.9604 34.7402 60.7939 34.1788 59.5931C34.1487 59.5279 34.1064 59.5022 34.052 59.516" stroke="#315C8C" stroke-width="0.148327"/>
<path d="M40.0039 71.9942H40.0707C40.0949 71.9942 40.1166 72.0014 40.1359 72.0157C41.5529 73.0802 43.1457 73.7645 44.9143 74.0686C45.1761 74.1138 45.4112 74.1034 45.6752 74.1487C46.0549 74.2132 46.4769 74.0856 46.8685 74.0908C47.2092 74.0953 47.5466 74.0646 47.8808 73.9988C50.618 73.4619 52.9198 72.1668 54.7862 70.1134C56.1456 68.6175 56.9043 66.5217 56.294 64.5237C56.292 64.5175 56.2884 64.5119 56.2837 64.5074C56.2789 64.5029 56.2731 64.4998 56.2669 64.4982C56.2606 64.4966 56.254 64.4967 56.2479 64.4985C56.2417 64.5002 56.2361 64.5035 56.2317 64.5081C55.7659 64.9714 55.2512 65.3711 54.6876 65.7073C54.6838 65.7096 54.6795 65.7108 54.6752 65.7106C54.6708 65.7105 54.6666 65.709 54.663 65.7065C54.6595 65.704 54.6567 65.7005 54.6552 65.6964C54.6536 65.6923 54.6533 65.6879 54.6542 65.6836L54.9508 64.3079C54.9534 64.297 54.9523 64.2857 54.9479 64.2754C54.9435 64.2652 54.9359 64.2567 54.9263 64.2511C54.9166 64.2456 54.9054 64.2433 54.8944 64.2445C54.8833 64.2458 54.8729 64.2506 54.8648 64.2582C54.4772 64.6068 54.0512 64.8992 53.587 65.1355C53.578 65.1401 53.5679 65.1417 53.558 65.1402C53.5481 65.1386 53.5389 65.1339 53.5317 65.1268C53.5246 65.1198 53.5198 65.1106 53.518 65.1006C53.5162 65.0906 53.5175 65.0802 53.5217 65.071C54.4473 63.1242 53.9808 60.9104 52.4945 59.3775C52.4604 59.3426 52.3996 59.3211 52.3833 59.3864" stroke="#263363" stroke-width="0.148327"/>
<path d="M40.075 57.7515L40.1068 57.7774C40.1266 57.7937 40.1479 57.796 40.1706 57.7841C41.5837 57.0246 43.0872 56.5587 44.6813 56.3861C44.9334 56.3594 45.2538 56.3639 45.5416 56.332C45.811 56.3018 46.0246 56.2892 46.1823 56.2941C48.295 56.3629 50.3404 56.7782 52.3186 57.5401C52.3327 57.5453 52.3481 57.5462 52.3627 57.5425C52.3773 57.5388 52.3905 57.5307 52.4004 57.5193C52.4103 57.508 52.4165 57.4939 52.4182 57.4789C52.4199 57.4639 52.417 57.4488 52.4098 57.4355C52.1582 56.9722 51.8596 56.5211 51.5139 56.082" stroke="#263363" stroke-width="0.148327"/>
<path d="M60.677 72.5129C60.6444 72.4654 60.6427 72.4219 60.6718 72.3824C64.2762 67.4142 62.1877 60.7639 57.6689 57.2916C55.7699 55.832 53.5889 55.0182 51.1262 54.8501" stroke="#263363" stroke-width="0.148327"/>
<path d="M49.4011 49.2104C48.9051 49.3588 48.2985 49.6099 47.5811 49.964C47.0867 50.2072 46.8036 50.576 46.7319 51.0705C46.7052 51.2537 46.8187 51.3812 47.0019 51.2685" stroke="#A1C6E5" stroke-width="0.148327"/>
<path d="M47.002 51.2679C48.8434 51.3739 50.3334 50.3868 50.7962 48.5683C50.7993 48.5554 50.7985 48.5418 50.7938 48.5293C50.7892 48.5168 50.7809 48.506 50.7701 48.4982C50.7592 48.4905 50.7463 48.4862 50.733 48.4859C50.7196 48.4855 50.7065 48.4892 50.6953 48.4964C50.2968 48.7579 49.8654 48.9957 49.4011 49.2098" stroke="#9096A7" stroke-width="0.148327"/>
<path d="M47.002 51.2685C48.1181 50.9043 49.0926 50.4579 49.4011 49.2104" stroke="#315C8C" stroke-width="0.148327"/>
<path d="M40.1038 55.3971C40.3581 55.1842 41.2207 54.5531 41.3838 55.1939C41.3907 55.2196 41.4011 55.2211 41.415 55.1983C41.4659 55.1128 41.4951 55.0203 41.5025 54.9209" stroke="#A1C6E5" stroke-width="0.148327"/>
<path d="M41.5026 54.9209C41.593 54.7459 41.6207 54.5582 41.5856 54.358C41.4855 53.7936 40.8336 54.0895 40.5666 54.355C40.2507 54.669 40.049 55.047 39.9614 55.489C39.9545 55.5251 39.9684 55.5367 40.003 55.5238C40.0539 55.5046 40.0875 55.4623 40.1038 55.397" stroke="#9096A7" stroke-width="0.148327"/>
<path d="M41.5025 54.9211C41.4461 54.8178 41.4209 54.705 41.4268 54.5829C41.4278 54.5644 41.4251 54.5459 41.4188 54.5284C41.4125 54.511 41.4028 54.495 41.3902 54.4813C41.3776 54.4677 41.3624 54.4568 41.3456 54.4491C41.3287 54.4415 41.3104 54.4373 41.2919 54.4368C41.1465 54.4331 41.0041 54.4153 40.8706 54.4865C40.5003 54.6862 40.2447 54.9898 40.1038 55.3972" stroke="#315C8C" stroke-width="0.148327"/>
<path d="M67.1965 63.4704L67.1757 63.7018C67.1713 63.7571 67.1834 63.7611 67.212 63.7136C67.259 63.635 67.2682 63.5522 67.2395 63.4652C67.2167 63.3979 67.2024 63.3997 67.1965 63.4704Z" stroke="#A1C6E5" stroke-width="0.148327"/>
<path d="M71.8288 59.1964C71.8288 64.6495 69.6626 69.8793 65.8066 73.7353C61.9506 77.5913 56.7208 79.7575 51.2677 79.7575C45.8145 79.7575 40.5847 77.5913 36.7288 73.7353C32.8728 69.8793 30.7065 64.6495 30.7065 59.1964C30.7065 53.7432 32.8728 48.5134 36.7288 44.6575C40.5847 40.8015 45.8145 38.6353 51.2677 38.6353C56.7208 38.6353 61.9506 40.8015 65.8066 44.6575C69.6626 48.5134 71.8288 53.7432 71.8288 59.1964ZM54.9581 48.9551C59.33 49.4483 63.4617 51.5449 66.3659 54.9045C66.3837 54.9253 66.3832 54.9458 66.3644 54.9661C66.356 54.976 66.3449 54.9866 66.3311 54.998C65.0258 53.9241 63.6083 53.0223 62.0785 52.2925C62.0716 52.289 62.0638 52.2877 62.0561 52.2887C62.0484 52.2896 62.0411 52.2929 62.0353 52.2979C62.0294 52.303 62.0252 52.3097 62.0231 52.3172C62.021 52.3247 62.0212 52.3326 62.0236 52.34C62.1087 52.6064 62.2338 52.8537 62.3989 53.0816C62.4047 53.0896 62.4076 53.0993 62.4072 53.1091C62.4068 53.119 62.4031 53.1284 62.3966 53.1359C62.3902 53.1434 62.3814 53.1484 62.3717 53.1503C62.3621 53.1521 62.352 53.1507 62.3433 53.1461C60.6276 52.265 58.7921 51.7565 56.8366 51.6206C56.7699 51.6156 56.7387 51.6359 56.7432 51.6814C56.7442 51.6929 56.749 51.7037 56.7568 51.7123C56.7645 51.7208 56.7749 51.7267 56.7862 51.7288C58.1004 51.9592 59.3401 52.3788 60.5055 52.9874C61.0165 53.2544 61.6053 53.646 62.1571 53.9753C62.6562 54.4062 63.1939 54.8526 63.6233 55.2976C65.7736 57.5215 66.9637 60.2191 67.1936 63.3903C67.1944 63.3997 67.1985 63.4085 67.2052 63.4152C67.2119 63.4218 67.2207 63.4259 67.2301 63.4267C67.2395 63.4275 67.2488 63.425 67.2565 63.4195C67.2642 63.4141 67.2698 63.4061 67.2722 63.397C69.3065 55.5846 65.4789 47.5104 58.3006 44.0129C58.3871 43.5926 58.4801 43.1733 58.5795 42.755C58.7456 42.0557 58.7449 41.1019 58.8509 40.1638C58.8534 40.1425 58.847 40.1306 58.8316 40.1282C58.8133 40.1252 58.8017 40.1329 58.7968 40.1512C58.2865 42.0097 57.403 43.6673 56.1462 45.1238C56.1409 45.1302 56.1378 45.1381 56.1373 45.1464C56.1369 45.1547 56.1391 45.1629 56.1437 45.1698C56.1483 45.1767 56.1549 45.1819 56.1627 45.1847C56.1705 45.1875 56.179 45.1878 56.187 45.1854L57.2401 44.8561C57.2472 44.8539 57.2548 44.8539 57.2619 44.8564C57.2689 44.8588 57.275 44.8634 57.2793 44.8696C57.2835 44.8757 57.2857 44.883 57.2854 44.8905C57.2852 44.898 57.2825 44.9051 57.2779 44.911C56.0052 46.5849 54.6295 47.8404 52.6686 48.6592C52.6434 48.6696 52.6214 48.6844 52.6026 48.7037L52.5062 48.7994C52.4854 48.8206 52.4709 48.8454 52.4625 48.8735C52.2375 49.6261 51.8499 50.2814 51.2996 50.8396C51.2922 50.8472 51.2869 50.8565 51.2839 50.8665C51.2809 50.8766 51.2804 50.8872 51.2825 50.8975C51.2899 50.935 51.3087 50.9479 51.3389 50.936C52.6308 50.4322 53.8372 49.7719 54.9581 48.9551ZM34.0521 59.516C34.2399 64.4627 36.1521 68.5687 39.7886 71.8339C39.8487 71.8873 39.9384 71.9295 40.0037 71.9941C40.4205 72.3763 40.9248 72.7666 41.5166 73.1651C44.9741 75.4946 48.9352 76.3816 53.0521 75.9522C55.8925 75.6555 58.684 74.6269 60.6768 72.5132C60.8968 72.3055 61.0966 72.0801 61.2761 71.8368C62.7445 69.8507 63.3957 67.522 63.1828 65.0657C62.6058 58.3976 57.1466 53.732 50.532 53.6957C50.1676 53.6937 49.7958 53.7021 49.4165 53.7209C49.4117 53.721 49.4071 53.7228 49.4034 53.7259C49.3997 53.7289 49.3971 53.7331 49.3961 53.7379C49.395 53.7427 49.3955 53.7477 49.3974 53.7522C49.3994 53.7568 49.4027 53.7606 49.4069 53.7632C50.0002 54.1063 50.5733 54.4687 51.126 54.8504C51.5488 55.2751 51.9255 55.7206 52.2563 56.1868C52.2604 56.1925 52.2628 56.1993 52.2629 56.2063C52.2631 56.2133 52.2611 56.2202 52.2572 56.226C52.2533 56.2319 52.2477 56.2364 52.2412 56.2389C52.2347 56.2414 52.2275 56.2419 52.2207 56.2402L51.5139 56.0823C47.6693 55.0766 43.3989 55.4281 40.0749 57.7517C39.9018 57.8219 39.773 57.9151 39.6885 58.0313L38.8742 58.6921C38.8683 58.6969 38.8613 58.7001 38.8539 58.7014C38.8464 58.7028 38.8387 58.7022 38.8315 58.6998C38.8243 58.6973 38.8177 58.6931 38.8125 58.6875C38.8072 58.6819 38.8035 58.675 38.8015 58.6676C38.3395 56.8521 38.361 55.1967 39.4675 53.6126C39.9399 52.937 40.5837 52.3852 41.2459 51.8757C41.2574 51.8668 41.2713 51.8616 41.2858 51.861C41.3004 51.8604 41.3147 51.8643 41.3269 51.8722C41.339 51.8801 41.3484 51.8917 41.3537 51.9052C41.359 51.9187 41.36 51.9335 41.3564 51.9476C41.2237 52.4898 41.0353 53.29 41.7821 53.4346C42.4289 53.5599 43.2676 53.0519 43.7809 52.7004C44.1457 52.4512 44.4632 52.1197 44.7821 51.7993C44.7983 51.7829 44.8198 51.7726 44.8428 51.7703C44.8658 51.768 44.8889 51.7738 44.9081 51.7867C45.3195 52.0651 45.767 52.1298 46.2505 51.981C46.2553 51.9797 46.2595 51.9768 46.2624 51.9728C46.2652 51.9687 46.2667 51.9638 46.2664 51.9588C46.2662 51.9538 46.2642 51.949 46.261 51.9451C46.2577 51.9411 46.2532 51.9384 46.2483 51.9372C45.3168 51.7449 44.8983 51.2102 44.9927 50.3331C45.078 49.541 45.8708 48.8179 46.5642 48.5569C48.4413 47.8493 50.9406 46.857 51.9084 45.0526C51.9796 44.9196 52.0523 44.9189 52.1265 45.0504C52.4479 45.6205 52.633 46.2338 52.682 46.8904C52.6823 46.8949 52.6838 46.8993 52.6863 46.9031C52.6888 46.9068 52.6922 46.9099 52.6963 46.9119C52.7003 46.9139 52.7048 46.9148 52.7093 46.9146C52.7139 46.9143 52.7182 46.9129 52.722 46.9104C54.2414 45.9374 55.5823 44.7617 56.7447 43.3832C56.7674 43.3565 56.7622 43.3372 56.7291 43.3254C46.1244 39.5742 34.8864 46.7762 34.1129 58.0379C34.0877 58.4053 34.0674 58.898 34.0521 59.516ZM49.401 49.2102C48.9051 49.3586 48.2984 49.6097 47.581 49.9638C47.0866 50.207 46.8035 50.5758 46.7318 51.0703C46.7051 51.2535 46.8186 51.381 47.0018 51.2683C48.8433 51.3743 50.3332 50.3872 50.796 48.5687C50.7991 48.5558 50.7983 48.5422 50.7937 48.5297C50.789 48.5172 50.7807 48.5064 50.7699 48.4987C50.759 48.4909 50.7461 48.4866 50.7328 48.4863C50.7195 48.4859 50.7064 48.4896 50.6951 48.4968C50.2966 48.7583 49.8652 48.9962 49.401 49.2102ZM40.1038 55.397C40.3582 55.1841 41.2207 54.553 41.3839 55.1938C41.3908 55.2195 41.4012 55.221 41.415 55.1982C41.466 55.1127 41.4951 55.0202 41.5025 54.9209C41.593 54.7458 41.6207 54.5582 41.5856 54.3579C41.4855 53.7936 40.8336 54.0895 40.5666 54.355C40.2507 54.6689 40.0489 55.0469 39.9614 55.4889C39.9545 55.525 39.9683 55.5367 40.003 55.5238C40.0539 55.5045 40.0875 55.4622 40.1038 55.397ZM67.1965 63.4704L67.1758 63.7018C67.1713 63.7572 67.1834 63.7612 67.2121 63.7137C67.2591 63.6351 67.2682 63.5523 67.2396 63.4652C67.2168 63.398 67.2025 63.3997 67.1965 63.4704Z" fill="#9D9DA6"/>
<path d="M58.3006 44.0128C58.0579 44.6946 57.8823 45.1509 57.7741 45.3818C57.1207 46.7842 56.1506 47.9731 54.9581 48.955C53.8372 49.7718 52.6308 50.4321 51.3389 50.9359C51.3087 50.9478 51.2899 50.9349 51.2825 50.8974C51.2804 50.8871 51.2809 50.8765 51.2839 50.8664C51.2869 50.8563 51.2922 50.8471 51.2996 50.8395C51.8499 50.2813 52.2375 49.626 52.4625 48.8734C52.4709 48.8453 52.4854 48.8205 52.5062 48.7993L52.6026 48.7036C52.6214 48.6843 52.6434 48.6695 52.6686 48.6591C54.6295 47.8403 56.0053 46.5847 57.2779 44.9109C57.2825 44.905 57.2852 44.8978 57.2854 44.8904C57.2857 44.8829 57.2835 44.8756 57.2793 44.8695C57.275 44.8633 57.269 44.8587 57.2619 44.8563C57.2548 44.8538 57.2472 44.8537 57.2401 44.856L56.187 45.1853C56.179 45.1877 56.1705 45.1874 56.1627 45.1846C56.155 45.1818 56.1483 45.1766 56.1437 45.1697C56.1391 45.1627 56.1369 45.1546 56.1373 45.1463C56.1378 45.138 56.1409 45.1301 56.1462 45.1237C57.403 43.6672 58.2865 42.0096 58.7968 40.1511C58.8017 40.1328 58.8133 40.1251 58.8316 40.1281C58.847 40.1305 58.8534 40.1424 58.8509 40.1637C58.7449 41.1018 58.7456 42.0556 58.5795 42.7549C58.4801 43.1732 58.3871 43.5925 58.3006 44.0128Z" fill="#434348"/>
<path d="M39.6884 58.0309C40.6934 59.3369 42.1522 59.9718 43.7749 60.1068C43.8011 60.1092 43.8065 60.0996 43.7912 60.0778C43.5338 59.7092 43.2713 59.3733 43.4152 58.9201C43.6792 58.0888 45.2248 57.8077 45.9516 57.7454C47.5036 57.6129 49.0259 57.7807 50.5186 58.249C51.3173 58.4996 51.9151 58.7636 52.383 59.3859C53.6001 60.9633 53.5504 62.9695 52.3548 64.5276C50.6409 66.7629 47.5987 67.8695 44.8443 67.8138C41.2147 67.7397 38.2994 65.8389 36.1427 63.0169C35.335 61.9601 34.7402 60.7935 34.1788 59.5928C34.1487 59.5275 34.1064 59.5018 34.052 59.5157C34.0673 58.8976 34.0876 58.4049 34.1128 58.0376C34.8863 46.7758 46.1244 39.5738 56.729 43.325C56.7621 43.3369 56.7673 43.3562 56.7446 43.3828C55.5822 44.7613 54.2413 45.937 52.722 46.9101C52.7182 46.9125 52.7138 46.914 52.7093 46.9142C52.7048 46.9145 52.7002 46.9136 52.6962 46.9115C52.6922 46.9095 52.6887 46.9065 52.6862 46.9027C52.6837 46.8989 52.6822 46.8946 52.6819 46.89C52.633 46.2335 52.4478 45.6201 52.1264 45.05C52.0523 44.9185 51.9796 44.9193 51.9084 45.0523C50.9405 46.8567 48.4412 47.849 46.5642 48.5565C45.8707 48.8176 45.0779 49.5407 44.9926 50.3327C44.8982 51.2098 45.3167 51.7446 46.2482 51.9369C46.2531 51.938 46.2576 51.9408 46.2609 51.9447C46.2642 51.9486 46.2661 51.9534 46.2663 51.9585C46.2666 51.9635 46.2652 51.9684 46.2623 51.9724C46.2594 51.9764 46.2552 51.9793 46.2504 51.9806C45.7669 52.1295 45.3194 52.0647 44.9081 51.7863C44.8889 51.7734 44.8658 51.7676 44.8428 51.7699C44.8198 51.7722 44.7983 51.7825 44.782 51.7989C44.4631 52.1193 44.1457 52.4508 43.7808 52.7C43.2676 53.0516 42.4288 53.5596 41.7821 53.4342C41.0353 53.2896 41.2236 52.4894 41.3564 51.9473C41.3599 51.9332 41.359 51.9183 41.3537 51.9048C41.3484 51.8913 41.339 51.8798 41.3268 51.8719C41.3146 51.8639 41.3003 51.86 41.2858 51.8606C41.2713 51.8613 41.2573 51.8664 41.2459 51.8753C40.5836 52.3848 39.9399 52.9366 39.4674 53.6122C38.3609 55.1964 38.3394 56.8517 38.8014 58.6672C38.8034 58.6747 38.8072 58.6815 38.8124 58.6871C38.8177 58.6927 38.8242 58.697 38.8314 58.6994C38.8387 58.7018 38.8464 58.7024 38.8538 58.7011C38.8613 58.6997 38.8683 58.6965 38.8741 58.6917L39.6884 58.0309Z" fill="#707076"/>
<path d="M58.3006 44.0127C65.4789 47.5103 69.3064 55.5844 67.2721 63.3968C67.2697 63.406 67.2642 63.4139 67.2565 63.4194C67.2488 63.4248 67.2394 63.4273 67.23 63.4265C67.2206 63.4257 67.2118 63.4217 67.2052 63.415C67.1985 63.4083 67.1944 63.3996 67.1935 63.3902C66.9636 60.2189 65.7735 57.5214 63.6233 55.2974C63.1939 54.8525 62.6562 54.406 62.1571 53.9751C63.7091 54.0938 65.175 54.5086 66.555 55.2196C66.5841 55.2349 66.5933 55.227 66.5824 55.1958C66.5448 55.0856 66.461 55.0196 66.331 54.9978C66.3448 54.9864 66.356 54.9758 66.3644 54.9659C66.3832 54.9457 66.3837 54.9251 66.3659 54.9044C63.4616 51.5448 59.33 49.4481 54.958 48.955C56.1506 47.973 57.1206 46.7842 57.774 45.3818C57.8823 45.1509 58.0578 44.6945 58.3006 44.0127Z" fill="#707076"/>
<path d="M47.002 51.2679C48.1181 50.9037 49.0926 50.4573 49.4011 49.2098C49.8654 48.9957 50.2968 48.7579 50.6953 48.4964C50.7065 48.4892 50.7196 48.4855 50.733 48.4859C50.7463 48.4862 50.7592 48.4905 50.7701 48.4982C50.7809 48.506 50.7892 48.5168 50.7938 48.5293C50.7985 48.5418 50.7993 48.5554 50.7962 48.5683C50.3334 50.3868 48.8434 51.3739 47.002 51.2679Z" fill="#434348"/>
<path d="M49.4011 49.2104C49.0925 50.4579 48.118 50.9043 47.0019 51.2685C46.8187 51.3812 46.7052 51.2537 46.7319 51.0705C46.8036 50.576 47.0867 50.2072 47.5811 49.964C48.2985 49.6099 48.9051 49.3588 49.4011 49.2104Z" fill="#707076"/>
<path d="M86.5985 67.1343C87.8393 69.2531 89.3856 70.7668 91.9464 71.0234C91.9751 71.0259 91.9895 71.0415 91.9895 71.0701V71.3609C91.9895 71.393 91.9736 71.4078 91.942 71.4054C88.48 71.1502 85.36 69.6121 82.8696 67.2307C82.7801 67.1452 82.6772 67.0796 82.561 67.0342C80.0521 66.0515 78.2328 64.2664 77.6091 61.5809C77.3031 60.2623 77.2865 58.9182 77.5594 57.5486C78.3537 53.5594 82.1146 50.9206 86.1446 51.643C89.0926 52.171 91.3138 54.7237 91.9197 57.5301C92.8053 61.6291 90.6997 65.8275 86.6118 67.1002C86.6084 67.1013 86.6053 67.1031 86.6027 67.1056C86.6001 67.108 86.5981 67.111 86.5968 67.1143C86.5955 67.1175 86.595 67.121 86.5953 67.1245C86.5956 67.128 86.5967 67.1313 86.5985 67.1343ZM84.4722 66.5076C90.5277 66.8421 90.3846 57.2898 88.1315 54.1052C86.9055 52.372 84.3573 51.8937 82.5291 52.9609C79.6382 54.6481 79.6672 59.4324 80.216 62.123C80.6654 64.3264 82.0004 66.3711 84.4722 66.5076Z" fill="#9D9DA6"/>
<path d="M128.775 52.4308C129.515 52.8209 129.974 52.215 130.109 51.5586C130.113 51.5364 130.127 51.5252 130.15 51.5252H130.485C130.513 51.5252 130.528 51.5391 130.529 51.5668L130.868 56.6232C130.87 56.6485 130.859 56.6611 130.833 56.6611H130.539C130.517 56.6611 130.502 56.6504 130.496 56.6292C129.909 54.6179 128.815 52.9536 126.656 52.4597C125.614 52.2209 124.461 52.3321 123.483 52.7653C121.166 53.7902 120.428 56.2925 120.261 58.619C120.028 61.8651 120.889 65.3931 124.569 66.1726C125.782 66.4299 127.119 66.3216 128.239 65.7543C129.261 65.2366 130.176 64.165 130.821 63.2045C130.837 63.1798 130.858 63.1756 130.883 63.1919L131.18 63.3847C131.201 63.3991 131.206 63.4176 131.194 63.4404C130.167 65.3315 128.643 66.7577 126.475 67.1515C124.185 67.5668 121.752 67.0751 120.046 65.4398C116.111 61.6679 117.213 54.1492 122.409 52.0941C124.59 51.2313 126.712 51.3435 128.775 52.4308Z" fill="#9D9DA6"/>
<path d="M156.055 51.872C156.809 52.139 157.998 53.0193 158.294 51.5701C158.299 51.54 158.318 51.5249 158.348 51.5249H158.709C158.74 51.5249 158.756 51.5405 158.756 51.5716V56.7164C158.756 56.7411 158.743 56.7534 158.718 56.7534H158.362C158.334 56.7534 158.318 56.7393 158.314 56.7112C158.084 54.9943 157.478 53.5414 155.802 52.7931C154.66 52.2836 153.328 52.2465 152.333 53.0979C151.295 53.9871 151.275 55.3822 152.327 56.307C153.416 57.2622 154.934 58.0164 156.256 58.7536C157.26 59.3143 158.337 59.9239 158.98 60.7983C159.988 62.1681 160.007 64.0155 158.997 65.4031C157.656 67.2476 155.32 67.6444 153.2 67.0518C152.718 66.9173 152.24 66.7737 151.764 66.6209C151.028 66.3851 150.451 66.2575 150.345 67.2609C150.342 67.2891 150.327 67.3032 150.299 67.3032H149.967C149.93 67.3032 149.912 67.2847 149.912 67.2476V62.1488C149.912 62.1241 149.924 62.1118 149.949 62.1118H150.299C150.31 62.1118 150.321 62.1156 150.329 62.1227C150.338 62.1297 150.343 62.1395 150.345 62.1503C150.546 63.3837 150.897 64.6756 151.974 65.4766C152.968 66.2147 154.109 66.5047 155.398 66.3465C157.135 66.1337 158.36 64.4746 157.42 62.8015C156.983 62.025 156.251 61.577 155.495 61.1469C154.152 60.3815 153.244 59.855 152.771 59.5672C151.82 58.9872 150.927 58.3962 150.328 57.4684C149.325 55.9139 149.662 53.9323 150.994 52.6997C152.366 51.4322 154.329 51.2616 156.055 51.872Z" fill="#9D9DA6"/>
<path d="M190.143 61.9078H184.422C184.414 61.9078 184.407 61.9101 184.4 61.9144C184.393 61.9188 184.388 61.925 184.385 61.9323C184.069 62.6655 183.757 63.3975 183.448 64.1283C183.161 64.8069 182.527 66.0521 183.694 66.3554C184.041 66.4449 184.373 66.499 184.69 66.5178C184.717 66.5198 184.731 66.5342 184.731 66.5609V66.9139C184.731 66.9386 184.719 66.951 184.694 66.951H180.049C180.018 66.951 180.003 66.9354 180.003 66.9042V66.5579C180.003 66.5253 180.019 66.507 180.051 66.503C180.634 66.4266 181.095 66.2746 181.47 65.8029C181.85 65.3231 182.162 64.6274 182.453 63.9451C184.211 59.8251 185.966 55.7038 187.718 51.5813C187.729 51.5561 187.748 51.5435 187.775 51.5435H188.106C188.136 51.5435 188.157 51.5573 188.168 51.585C189.805 55.5176 191.444 59.4491 193.085 63.3792C193.386 64.0986 193.678 64.795 194.066 65.4744C194.493 66.2219 195.089 66.4303 195.905 66.5267C195.934 66.5302 195.948 66.5465 195.948 66.5757V66.9042C195.948 66.9354 195.933 66.951 195.901 66.951H190.062C190.031 66.951 190.015 66.9354 190.015 66.9042V66.566C190.015 66.5374 190.029 66.5225 190.058 66.5215C190.758 66.4926 191.661 66.3057 191.52 65.3772C191.48 65.1161 191.343 64.7201 191.222 64.4168C190.89 63.5871 190.547 62.7619 190.194 61.9412C190.184 61.919 190.168 61.9078 190.143 61.9078ZM184.761 61.0305C184.759 61.0342 184.758 61.0382 184.759 61.0422C184.759 61.0462 184.76 61.0501 184.763 61.0535C184.765 61.0569 184.768 61.0596 184.771 61.0616C184.775 61.0635 184.779 61.0645 184.783 61.0646L189.837 61.0824C189.841 61.0825 189.845 61.0815 189.849 61.0796C189.852 61.0778 189.856 61.075 189.858 61.0716C189.86 61.0682 189.862 61.0643 189.862 61.0602C189.862 61.0561 189.862 61.052 189.86 61.0483L187.353 55.0729C187.351 55.0684 187.348 55.0646 187.344 55.0619C187.34 55.0592 187.336 55.0578 187.331 55.0578C187.326 55.0578 187.321 55.0592 187.317 55.0619C187.313 55.0646 187.31 55.0684 187.308 55.0729L184.761 61.0305Z" fill="#9D9DA6"/>
<path d="M66.3312 54.9978C66.4612 55.0195 66.545 55.0855 66.5826 55.1958C66.5935 55.2269 66.5844 55.2348 66.5552 55.2195C65.1752 54.5085 63.7093 54.0937 62.1573 53.9751C61.6055 53.6458 61.0166 53.2542 60.5057 52.9872C59.3403 52.3786 58.1005 51.959 56.7864 51.7286C56.775 51.7264 56.7647 51.7206 56.7569 51.7121C56.7492 51.7035 56.7444 51.6927 56.7433 51.6812C56.7389 51.6357 56.77 51.6154 56.8368 51.6204C58.7922 51.7563 60.6278 52.2648 62.3434 53.1459C62.3522 53.1505 62.3622 53.1519 62.3719 53.1501C62.3816 53.1482 62.3904 53.1431 62.3968 53.1357C62.4032 53.1282 62.407 53.1188 62.4074 53.1089C62.4078 53.0991 62.4049 53.0894 62.3991 53.0814C62.2339 52.8534 62.1088 52.6062 62.0238 52.3397C62.0214 52.3324 62.0212 52.3245 62.0232 52.317C62.0253 52.3095 62.0295 52.3028 62.0354 52.2977C62.0413 52.2926 62.0485 52.2894 62.0562 52.2885C62.0639 52.2875 62.0717 52.2888 62.0787 52.2923C63.6084 53.022 65.0259 53.9239 66.3312 54.9978Z" fill="#434348"/>
<path d="M98.7452 52.3115C97.4977 52.4139 97.4072 53.4796 97.4058 54.4564C97.4023 56.6867 97.4028 58.917 97.4072 61.1474C97.4095 62.2257 97.5163 63.7246 98.0102 64.6338C99.5469 67.4632 105.006 66.5599 105.674 63.4472C105.866 62.5461 105.909 61.6836 105.911 60.6416C105.915 58.5111 105.916 56.3807 105.912 54.2502C105.912 53.7585 105.882 52.9872 105.453 52.6549C104.919 52.2403 104.41 52.2989 103.802 52.3041C103.776 52.3041 103.763 52.2913 103.763 52.2656V51.8955C103.763 51.8708 103.775 51.8584 103.8 51.8584H109.029C109.066 51.8584 109.084 51.8769 109.084 51.914V52.2633C109.084 52.291 109.07 52.3046 109.042 52.3041C108.699 52.3004 108.313 52.2693 108.005 52.3709C107.22 52.6304 106.935 53.3142 106.935 54.1063C106.934 56.3421 106.934 58.5779 106.935 60.8137C106.936 61.6013 106.867 62.4233 106.73 63.2796C106.413 65.2575 104.963 66.7126 103.003 67.1168C101.633 67.3994 99.911 67.389 98.5538 66.9722C97.2396 66.5688 96.1457 65.5453 95.6592 64.2519C95.3017 63.2989 95.2624 61.9647 95.258 60.8923C95.2501 58.7217 95.2498 56.551 95.2572 54.38C95.2587 54.0099 95.2098 53.5597 95.1252 53.2438C94.8649 52.2715 93.9594 52.2834 93.125 52.3063C93.0973 52.3073 93.0835 52.294 93.0835 52.2663V51.8955C93.0835 51.8708 93.0959 51.8584 93.1206 51.8584H99.5172C99.5543 51.8584 99.5728 51.8769 99.5728 51.914V52.2641C99.5728 52.2937 99.558 52.3081 99.5283 52.3071C99.1624 52.2972 98.9014 52.2987 98.7452 52.3115Z" fill="#9D9DA6"/>
<path d="M109.925 66.5035C111.253 66.551 112.029 66.3136 112.03 64.7948C112.033 61.2557 112.034 57.7161 112.032 54.176C112.032 53.7187 111.995 53.3661 111.923 53.1184C111.705 52.379 110.556 52.2277 109.928 52.2945C109.897 52.2974 109.882 52.2834 109.882 52.2522V51.9051C109.882 51.874 109.897 51.8584 109.928 51.8584H116.278C116.315 51.8584 116.334 51.8769 116.334 51.914V52.2463C116.334 52.2784 116.318 52.2932 116.286 52.2908C115.937 52.2661 115.594 52.2881 115.256 52.3568C114.245 52.563 114.187 53.4477 114.186 54.2873C114.184 57.7299 114.183 61.1724 114.183 64.6145C114.183 65.5601 114.281 66.2187 115.299 66.4553C115.603 66.5257 115.961 66.5079 116.293 66.505C116.32 66.505 116.334 66.5183 116.334 66.545V66.904C116.334 66.9351 116.318 66.9507 116.287 66.9507H109.937C109.9 66.9507 109.882 66.9322 109.882 66.8951V66.5458C109.882 66.5166 109.896 66.5025 109.925 66.5035Z" fill="#9D9DA6"/>
<path d="M136.647 59.5165C136.628 61.1417 136.621 62.7669 136.625 64.3921C136.627 64.8435 136.662 65.2449 136.731 65.5965C136.902 66.4612 138.045 66.5154 138.706 66.5035C138.735 66.503 138.75 66.5173 138.75 66.5465V66.9136C138.75 66.9383 138.738 66.9507 138.713 66.9507H132.4C132.369 66.9507 132.353 66.9351 132.353 66.904V66.5406C132.353 66.5065 132.37 66.4909 132.404 66.4939C133.255 66.571 134.257 66.4538 134.416 65.4504C134.468 65.1221 134.494 64.7184 134.495 64.2393C134.504 61.0641 134.506 57.8889 134.503 54.7137C134.502 54.0299 134.473 53.5352 134.416 53.2297C134.262 52.4028 133.076 52.224 132.4 52.2945C132.369 52.2979 132.353 52.2839 132.353 52.2522V51.914C132.353 51.8769 132.372 51.8584 132.409 51.8584H138.722C138.754 51.8584 138.769 51.874 138.768 51.9051L138.768 52.2574C138.768 52.2881 138.753 52.3016 138.722 52.2982C138.201 52.2453 137.735 52.3152 137.324 52.5081C136.663 52.8181 136.664 53.4626 136.657 54.107C136.641 55.7658 136.634 57.412 136.634 59.0456C136.634 59.0931 136.652 59.1007 136.687 59.0686C138.457 57.4385 140.277 55.8299 141.86 54.024C142.109 53.7399 142.478 53.1741 142.388 52.8181C142.246 52.2589 141.506 52.2937 141.088 52.3034C141.062 52.3039 141.049 52.2913 141.049 52.2656V51.8955C141.049 51.8708 141.061 51.8584 141.086 51.8584H146.527C146.559 51.8584 146.574 51.874 146.574 51.9051V52.2448C146.574 52.2735 146.56 52.2885 146.531 52.29C145.156 52.3686 143.906 53.3869 143.002 54.3125C141.64 55.7067 140.245 57.1126 138.815 58.5302C138.784 58.5608 138.784 58.5915 138.814 58.6221C140.767 60.585 142.736 62.5511 144.722 64.5204C145.749 65.5394 146.99 66.3737 148.508 66.5124C148.529 66.5144 148.539 66.5257 148.539 66.5465V66.9136C148.539 66.9383 148.527 66.9507 148.502 66.9507H141.438C141.401 66.9507 141.383 66.9322 141.383 66.8951V66.5458C141.383 66.5181 141.397 66.505 141.424 66.5065C142.404 66.5495 143.042 65.8338 142.229 65.0113C140.66 63.4242 138.812 61.5874 136.685 59.501C136.66 59.4762 136.647 59.4814 136.647 59.5165Z" fill="#9D9DA6"/>
<path d="M208 55.6264V56.4793C207.591 60.2757 203.84 60.5739 200.928 59.9027C200.92 59.9008 200.912 59.9007 200.904 59.9025C200.896 59.9042 200.888 59.9078 200.882 59.9128C200.875 59.9179 200.87 59.9244 200.866 59.9317C200.863 59.9391 200.861 59.9472 200.861 59.9553C200.862 61.4994 200.863 63.0524 200.866 64.6143C200.867 64.9396 200.901 65.2605 200.969 65.577C201.176 66.5552 202.211 66.5033 202.973 66.5062C202.999 66.5062 203.013 66.5193 203.013 66.5455V66.8948C203.013 66.9319 202.994 66.9505 202.957 66.9505H196.616C196.579 66.9505 196.56 66.9319 196.56 66.8948V66.5448C196.56 66.5156 196.575 66.5013 196.605 66.5018C198.267 66.5426 198.708 66.1436 198.71 64.4697C198.712 61.0878 198.712 57.706 198.71 54.3241C198.709 53.8791 198.657 53.4658 198.553 53.0841C198.332 52.2735 197.243 52.2824 196.597 52.2809C196.573 52.2809 196.56 52.2685 196.56 52.2438V51.8967C196.56 51.8725 196.573 51.8604 196.597 51.8604C198.414 51.8549 200.231 51.8559 202.048 51.8634C203.25 51.8685 204.533 51.9546 205.583 52.4181C206.895 52.9973 207.828 54.1847 208 55.6264ZM200.9 59.2478C202.122 59.4896 203.328 59.7076 204.376 58.8014C206.093 57.3151 205.76 53.9466 203.603 53.0507C202.699 52.6747 201.845 52.7622 200.89 52.9936C200.871 52.9985 200.862 53.0107 200.862 53.0299V59.2011C200.862 59.2273 200.875 59.2429 200.9 59.2478Z" fill="#9D9DA6"/>
<path d="M168.815 63.312L171.242 56.3013C171.25 56.2791 171.25 56.2568 171.243 56.2346C170.888 55.1641 170.609 54.3713 170.406 53.8561C170.047 52.9417 169.459 52.2683 168.417 52.3046C168.391 52.3056 168.378 52.2928 168.378 52.2661V51.9145C168.378 51.8898 168.39 51.8774 168.415 51.8774H174.2C174.225 51.8774 174.237 51.8898 174.237 51.9145V52.2646C174.237 52.2923 174.223 52.3059 174.195 52.3054C173.568 52.2942 172.856 52.3031 172.678 52.9751C172.503 53.6344 172.982 54.7728 173.233 55.4966C174.139 58.1151 175.056 60.7296 175.984 63.3402C175.997 63.3748 176.009 63.3748 176.021 63.3402C177.085 60.3009 178.13 57.2585 179.154 54.2129C179.61 52.8571 179.105 52.2483 177.717 52.312C177.684 52.3135 177.667 52.298 177.667 52.2653V51.9331C177.667 51.896 177.686 51.8774 177.723 51.8774H182.135C182.16 51.8774 182.172 51.8898 182.172 51.9145V52.2512C182.172 52.2848 182.156 52.3014 182.122 52.3009C181.081 52.2928 180.58 52.9995 180.273 53.8865C178.732 58.3413 177.192 62.7963 175.653 67.2516C175.646 67.2738 175.631 67.2849 175.607 67.2849H175.229C175.196 67.2849 175.174 67.2694 175.163 67.2382L171.787 57.723C171.786 57.7203 171.784 57.718 171.782 57.7163C171.78 57.7146 171.777 57.7137 171.774 57.7137C171.771 57.7137 171.768 57.7146 171.766 57.7163C171.764 57.718 171.762 57.7203 171.761 57.723L168.4 67.2456C168.39 67.2718 168.372 67.2849 168.344 67.2849H168.009C167.98 67.2849 167.961 67.2713 167.951 67.2441C166.438 62.9985 164.925 58.7536 163.411 54.5095C162.969 53.2688 162.738 52.2579 161.278 52.3031C161.253 52.3041 161.24 52.2918 161.24 52.2661V51.9145C161.24 51.8898 161.252 51.8774 161.277 51.8774H166.783C166.808 51.8774 166.821 51.8898 166.821 51.9145V52.2624C166.821 52.2861 166.809 52.2987 166.785 52.3002C166.376 52.3217 166.119 52.2705 165.713 52.5308C165.11 52.9165 165.42 53.7019 165.65 54.3723C166.668 57.3473 167.702 60.3272 168.75 63.312C168.772 63.3738 168.794 63.3738 168.815 63.312Z" fill="#9D9DA6"/>
<path d="M60.6768 72.5131C60.6442 72.4657 60.6425 72.4222 60.6716 72.3826C64.276 67.4144 62.1875 60.7641 57.6688 57.2918C55.7697 55.8323 53.5888 55.0184 51.126 54.8503C50.5733 54.4686 50.0002 54.1062 49.4069 53.7631C49.4027 53.7605 49.3994 53.7567 49.3974 53.7522C49.3955 53.7476 49.395 53.7426 49.3961 53.7378C49.3972 53.7331 49.3997 53.7289 49.4034 53.7258C49.4071 53.7227 49.4117 53.721 49.4166 53.7208C49.7958 53.702 50.1676 53.6936 50.532 53.6956C57.1466 53.7319 62.6058 58.3976 63.1828 65.0656C63.3957 67.5219 62.7445 69.8507 61.2761 71.8368C61.0966 72.08 60.8968 72.3055 60.6768 72.5131Z" fill="#434348"/>
<path d="M41.5026 54.9209C41.4462 54.8175 41.421 54.7048 41.4269 54.5827C41.4279 54.5642 41.4252 54.5456 41.4189 54.5282C41.4126 54.5108 41.4029 54.4947 41.3903 54.4811C41.3777 54.4675 41.3625 54.4565 41.3456 54.4489C41.3287 54.4412 41.3105 54.4371 41.2919 54.4366C41.1466 54.4329 41.0042 54.4151 40.8707 54.4863C40.5004 54.686 40.2448 54.9896 40.1038 55.397C40.0875 55.4623 40.0539 55.5046 40.003 55.5238C39.9684 55.5367 39.9545 55.5251 39.9614 55.489C40.049 55.047 40.2507 54.669 40.5666 54.355C40.8336 54.0895 41.4855 53.7936 41.5856 54.358C41.6207 54.5582 41.593 54.7459 41.5026 54.9209Z" fill="#434348"/>
<path d="M41.5025 54.9211C41.4951 55.0205 41.4659 55.1129 41.415 55.1985C41.4011 55.2212 41.3907 55.2197 41.3838 55.194C41.2207 54.5532 40.3581 55.1844 40.1038 55.3972C40.2447 54.9898 40.5003 54.6862 40.8706 54.4865C41.0041 54.4153 41.1465 54.4331 41.2919 54.4368C41.3104 54.4373 41.3287 54.4415 41.3456 54.4491C41.3624 54.4568 41.3776 54.4677 41.3902 54.4813C41.4028 54.495 41.4125 54.511 41.4188 54.5284C41.4251 54.5459 41.4278 54.5644 41.4268 54.5829C41.4209 54.705 41.4461 54.8178 41.5025 54.9211Z" fill="#707076"/>
<path d="M60.677 72.5129C58.6843 74.6266 55.8927 75.6552 53.0523 75.9519C48.9354 76.3813 44.9744 75.4943 41.5169 73.1648C40.925 72.7663 40.4207 72.376 40.0039 71.9938H40.0707C40.0949 71.9938 40.1166 72.0009 40.1359 72.0153C41.5529 73.0798 43.1457 73.764 44.9143 74.0681C45.1761 74.1134 45.4112 74.103 45.6752 74.1482C46.0549 74.2127 46.4769 74.0852 46.8685 74.0904C47.2092 74.0948 47.5466 74.0642 47.8808 73.9984C50.618 73.4615 52.9198 72.1663 54.7862 70.113C56.1456 68.6171 56.9043 66.5212 56.294 64.5233C56.292 64.517 56.2884 64.5114 56.2837 64.507C56.2789 64.5025 56.2731 64.4993 56.2669 64.4978C56.2606 64.4962 56.2541 64.4963 56.2479 64.498C56.2417 64.4998 56.2361 64.5031 56.2317 64.5077C55.7659 64.971 55.2512 65.3707 54.6876 65.7069C54.6839 65.7092 54.6795 65.7103 54.6752 65.7102C54.6708 65.71 54.6666 65.7086 54.663 65.7061C54.6595 65.7036 54.6567 65.7 54.6552 65.696C54.6536 65.6919 54.6533 65.6874 54.6542 65.6832L54.9509 64.3074C54.9534 64.2966 54.9524 64.2852 54.9479 64.275C54.9435 64.2648 54.9359 64.2563 54.9263 64.2507C54.9166 64.2451 54.9054 64.2428 54.8944 64.2441C54.8833 64.2454 54.873 64.2501 54.8648 64.2578C54.4772 64.6063 54.0513 64.8988 53.587 65.1351C53.578 65.1397 53.5679 65.1413 53.558 65.1397C53.5481 65.1382 53.5389 65.1335 53.5318 65.1264C53.5246 65.1193 53.5198 65.1101 53.518 65.1001C53.5162 65.0901 53.5175 65.0798 53.5217 65.0706C54.4473 63.1238 53.9808 60.91 52.4946 59.377C52.4604 59.3422 52.3996 59.3207 52.3833 59.3859C51.9153 58.7637 51.3176 58.4997 50.5188 58.249C49.0262 57.7808 47.5038 57.6129 45.9518 57.7454C45.225 57.8077 43.6795 58.0888 43.4154 58.9202C43.2716 59.3733 43.5341 59.7093 43.7915 60.0779C43.8068 60.0996 43.8013 60.1093 43.7751 60.1068C42.1524 59.9718 40.6936 59.337 39.6887 58.031C39.7733 57.9148 39.9021 57.8216 40.0751 57.7514L40.107 57.7773C40.1268 57.7937 40.148 57.7959 40.1708 57.784C41.5838 57.0246 43.0874 56.5586 44.6814 56.386C44.9336 56.3593 45.254 56.3638 45.5417 56.3319C45.8112 56.3017 46.0248 56.2891 46.1825 56.2941C48.2952 56.3628 50.3406 56.7781 52.3188 57.54C52.3329 57.5453 52.3483 57.5461 52.3629 57.5424C52.3775 57.5387 52.3906 57.5306 52.4005 57.5193C52.4105 57.5079 52.4167 57.4938 52.4184 57.4788C52.42 57.4639 52.4171 57.4487 52.41 57.4354C52.1583 56.9722 51.8597 56.521 51.5141 56.082L52.2209 56.2399C52.2277 56.2416 52.2349 56.2411 52.2414 56.2386C52.2479 56.2361 52.2535 56.2316 52.2574 56.2257C52.2613 56.2199 52.2633 56.213 52.2632 56.206C52.263 56.199 52.2607 56.1922 52.2565 56.1865C51.9257 55.7203 51.549 55.2748 51.1262 54.8501C53.589 55.0182 55.7699 55.832 57.669 57.2916C62.1877 60.7639 64.2762 67.4142 60.6718 72.3824C60.6427 72.4219 60.6444 72.4654 60.677 72.5129Z" fill="#59595E"/>
<path d="M51.514 56.0823C51.8596 56.5213 52.1582 56.9725 52.4098 57.4358C52.417 57.449 52.4199 57.4642 52.4182 57.4791C52.4165 57.4941 52.4103 57.5082 52.4004 57.5196C52.3905 57.5309 52.3773 57.539 52.3627 57.5427C52.3481 57.5464 52.3327 57.5456 52.3186 57.5403C50.3404 56.7784 48.295 56.3631 46.1823 56.2944C46.0246 56.2894 45.811 56.302 45.5416 56.3322C45.2538 56.3641 44.9334 56.3596 44.6813 56.3863C43.0872 56.5589 41.5837 57.0249 40.1706 57.7843C40.1479 57.7962 40.1266 57.794 40.1068 57.7776L40.075 57.7517C43.399 55.4281 47.6693 55.0766 51.514 56.0823Z" fill="#434348"/>
<path d="M40.0036 71.9942C39.9384 71.9297 39.8486 71.8874 39.7886 71.834C36.1521 68.5688 34.2399 64.4629 34.052 59.5162C34.1064 59.5023 34.1487 59.528 34.1788 59.5933C34.7402 60.794 35.335 61.9606 36.1427 63.0174C38.2994 65.8394 41.2147 67.7402 44.8443 67.8143C47.5987 67.87 50.6409 66.7634 52.3548 64.5281C53.5504 62.97 53.6001 60.9638 52.383 59.3864C52.3993 59.3211 52.4602 59.3426 52.4943 59.3775C53.9805 60.9104 54.447 63.1242 53.5214 65.071C53.5172 65.0802 53.5159 65.0906 53.5177 65.1006C53.5195 65.1106 53.5243 65.1198 53.5315 65.1268C53.5387 65.1339 53.5478 65.1386 53.5577 65.1402C53.5676 65.1417 53.5778 65.1401 53.5867 65.1355C54.051 64.8992 54.4769 64.6068 54.8645 64.2582C54.8727 64.2506 54.883 64.2458 54.8941 64.2445C54.9052 64.2433 54.9163 64.2456 54.926 64.2511C54.9356 64.2567 54.9432 64.2652 54.9476 64.2754C54.9521 64.2857 54.9531 64.297 54.9506 64.3079L54.6539 65.6836C54.653 65.6879 54.6533 65.6923 54.6549 65.6964C54.6565 65.7005 54.6592 65.704 54.6628 65.7065C54.6663 65.709 54.6705 65.7105 54.6749 65.7106C54.6793 65.7108 54.6836 65.7096 54.6873 65.7073C55.2509 65.3711 55.7656 64.9714 56.2314 64.5081C56.2358 64.5035 56.2414 64.5002 56.2476 64.4985C56.2538 64.4967 56.2603 64.4966 56.2666 64.4982C56.2729 64.4998 56.2787 64.5029 56.2834 64.5074C56.2881 64.5119 56.2917 64.5175 56.2937 64.5237C56.904 66.5217 56.1454 68.6175 54.7859 70.1134C52.9195 72.1668 50.6177 73.4619 47.8806 73.9988C47.5463 74.0646 47.2089 74.0953 46.8682 74.0908C46.4766 74.0856 46.0546 74.2132 45.6749 74.1487C45.4109 74.1034 45.1758 74.1138 44.914 74.0686C43.1455 73.7645 41.5527 73.0802 40.1356 72.0157C40.1164 72.0014 40.0946 71.9942 40.0704 71.9942H40.0036Z" fill="#434348"/>
<path d="M67.2395 63.4652C67.2682 63.5522 67.259 63.635 67.212 63.7136C67.1834 63.7611 67.1713 63.7571 67.1757 63.7018L67.1965 63.4704C67.2024 63.3997 67.2167 63.3979 67.2395 63.4652Z" fill="#428CCA"/>
</g>
<rect x="0.5" y="0.5" width="239" height="119" stroke="#2E2E33"/>
<defs>
<clipPath id="clip0_33124_128418">
<rect width="184" height="56.5869" fill="white" transform="translate(24 31)"/>
</clipPath>
</defs>
</svg>
