<svg width="240" height="80" viewBox="0 0 240 80" fill="none" xmlns="http://www.w3.org/2000/svg">
<rect x="0.5" y="0.5" width="239" height="79" fill="#17171A"/>
<g clip-path="url(#clip0_33149_130567)">
<path d="M151.705 35.2949H149.198C149.054 35.2948 148.911 35.2638 148.779 35.204C148.647 35.1442 148.53 35.057 148.434 34.9482L147.418 33.8001C147.342 33.716 147.25 33.6487 147.147 33.6026C147.044 33.5565 146.933 33.5327 146.82 33.5327C146.707 33.5327 146.596 33.5565 146.493 33.6026C146.39 33.6487 146.298 33.716 146.223 33.8001L145.351 34.7841C145.21 34.9443 145.038 35.0726 144.844 35.1607C144.65 35.2488 144.439 35.2945 144.226 35.2949H130.505C130.11 36.4287 129.859 37.6081 129.76 38.8048H142.713C142.825 38.8047 142.936 38.7817 143.039 38.7374C143.142 38.6931 143.235 38.6284 143.312 38.5471L144.521 37.2865C144.596 37.2093 144.686 37.148 144.785 37.1061C144.884 37.0642 144.99 37.0427 145.098 37.0428H145.145C145.258 37.0434 145.369 37.0674 145.473 37.1133C145.576 37.1593 145.669 37.2263 145.745 37.3099L146.761 38.458C146.857 38.5671 146.974 38.6545 147.106 38.7143C147.238 38.7741 147.381 38.805 147.525 38.8048H158.092C157.996 37.6078 157.745 36.4281 157.347 35.2949H151.724H151.705Z" fill="#9D9DA6"/>
<path d="M137.595 46.1857C137.707 46.185 137.818 46.1619 137.921 46.1176C138.024 46.0733 138.117 46.0089 138.195 45.928L139.399 44.6674C139.475 44.5909 139.564 44.5299 139.663 44.4881C139.762 44.4463 139.868 44.4244 139.976 44.4238H140.027C140.14 44.4243 140.252 44.4483 140.355 44.4943C140.459 44.5402 140.551 44.6072 140.627 44.6909L141.639 45.839C141.735 45.9473 141.853 46.0342 141.984 46.094C142.116 46.1537 142.259 46.185 142.403 46.1857H156.729C157.274 45.0636 157.668 43.8738 157.9 42.6477H144.146C144.003 42.6472 143.861 42.6165 143.73 42.5575C143.6 42.4986 143.483 42.4128 143.387 42.3056L142.37 41.1575C142.295 41.0723 142.203 41.004 142.1 40.9572C141.996 40.9103 141.884 40.886 141.771 40.8857C141.658 40.8854 141.546 40.9095 141.443 40.9565C141.34 41.0034 141.249 41.072 141.175 41.1575L140.304 42.1416C140.162 42.301 139.988 42.4285 139.793 42.5158C139.599 42.603 139.388 42.648 139.174 42.6477H129.952C130.182 43.8768 130.574 45.0698 131.119 46.1951L137.595 46.1857Z" fill="#9D9DA6"/>
<path d="M147.759 31.4574C147.872 31.4573 147.984 31.4345 148.088 31.3902C148.192 31.3459 148.286 31.2811 148.364 31.1997L149.568 29.9438C149.642 29.8655 149.732 29.8031 149.831 29.7605C149.93 29.7178 150.037 29.6956 150.145 29.6954H150.196C150.309 29.6951 150.421 29.7192 150.523 29.7661C150.626 29.8131 150.718 29.8817 150.791 29.9672L151.808 31.1153C151.905 31.2223 152.022 31.3081 152.154 31.367C152.285 31.4259 152.428 31.4567 152.572 31.4574H155.295C153.97 29.6938 152.253 28.2625 150.28 27.2767C148.307 26.291 146.132 25.7778 143.926 25.7778C141.72 25.7778 139.545 26.291 137.572 27.2767C135.599 28.2625 133.882 29.6938 132.558 31.4574H147.759Z" fill="#9D9DA6"/>
<path d="M142.286 49.7H138.561C138.417 49.6998 138.275 49.6687 138.144 49.6089C138.013 49.5491 137.896 49.4619 137.802 49.3532L136.79 48.2051C136.714 48.1209 136.621 48.0535 136.518 48.0074C136.415 47.9613 136.303 47.9375 136.19 47.9375C136.077 47.9375 135.965 47.9613 135.861 48.0074C135.758 48.0535 135.666 48.1209 135.59 48.2051L134.714 49.2079C134.573 49.3683 134.4 49.4968 134.207 49.5849C134.013 49.673 133.802 49.7186 133.589 49.7187H133.533C134.863 51.1453 136.472 52.2829 138.26 53.0608C140.049 53.8386 141.978 54.24 143.929 54.24C145.879 54.24 147.809 53.8386 149.597 53.0608C151.386 52.2829 152.995 51.1453 154.325 49.7187L142.286 49.7Z" fill="#9D9DA6"/>
<path d="M81.0575 53.3038L78.1662 46.2747H65.2372L62.3459 53.3038H59L71.6806 26.7148L84.4034 53.3038H81.0575ZM66.3291 43.6083H77.0368L71.6525 32.2726L66.3291 43.6083Z" fill="#9D9DA6"/>
<path d="M89.0239 53.3038V26.7148H96.428C102.215 26.7148 105.257 29.3625 105.257 34.3626C105.257 39.1705 102.028 41.9541 96.3905 41.9541H92.1449V53.3038H89.0239ZM92.1449 39.1705H95.6782C100.149 39.1705 102.112 37.7085 102.112 34.3626C102.112 30.9042 100.121 29.475 95.6876 29.475H92.1449V39.1705Z" fill="#9D9DA6"/>
<path d="M116.588 29.5496H107.417V26.6958H128.875V29.5496H119.704V53.3035H116.588V29.5496Z" fill="#9D9DA6"/>
<path d="M162.488 48.4536L165.173 46.6307L165.38 47.0618C167.034 50.0703 168.838 51.2793 171.579 51.2793C174.625 51.2793 176.767 49.1752 176.767 46.6166C176.767 44.2127 175.563 42.5959 170.755 40.6044C165.23 38.3128 163.351 35.9464 163.351 32.563C163.351 28.8797 166.247 26.0024 171.242 26.0024C174.925 26.0024 177.442 27.577 178.871 30.1356L176.692 31.6398L176.055 31.4852C174.925 29.7232 173.533 28.7063 171.167 28.7063C168.276 28.7063 166.584 30.323 166.584 32.5021C166.584 34.5312 167.671 35.698 172.371 37.8396C178.496 40.6184 180 42.9099 180 46.5932C180 50.6139 176.542 54.0347 171.617 54.0347C167.484 54.0347 164.63 52.4555 162.488 48.4723" fill="#9D9DA6"/>
</g>
<rect x="0.5" y="0.5" width="239" height="79" stroke="#2E2E33"/>
<defs>
<clipPath id="clip0_33149_130567">
<rect width="121" height="44" fill="white" transform="translate(59 18)"/>
</clipPath>
</defs>
</svg>
