<svg width="30" height="30" viewBox="0 0 30 30" fill="none" xmlns="http://www.w3.org/2000/svg">
<path d="M20.6181 18.2601C20.408 18.2601 20.2025 18.1978 20.0278 18.081C19.8531 17.9643 19.7169 17.7984 19.6365 17.6042C19.5561 17.4101 19.535 17.1964 19.576 16.9903C19.617 16.7842 19.7182 16.5949 19.8668 16.4463C20.0154 16.2977 20.2047 16.1965 20.4108 16.1555C20.6169 16.1145 20.8306 16.1356 21.0247 16.216C21.2188 16.2964 21.3848 16.4326 21.5015 16.6073C21.6183 16.782 21.6806 16.9875 21.6806 17.1976C21.6806 17.4794 21.5687 17.7497 21.3694 17.9489C21.1701 18.1482 20.8999 18.2601 20.6181 18.2601ZM8.8819 18.2601C8.67176 18.2601 8.46633 18.1978 8.29161 18.081C8.11688 17.9643 7.9807 17.7984 7.90028 17.6042C7.81986 17.4101 7.79882 17.1964 7.83982 16.9903C7.88081 16.7842 7.98201 16.5949 8.1306 16.4463C8.27919 16.2977 8.46851 16.1965 8.67462 16.1555C8.88072 16.1145 9.09436 16.1356 9.2885 16.216C9.48265 16.2964 9.64859 16.4326 9.76534 16.6073C9.88209 16.782 9.9444 16.9875 9.9444 17.1976C9.9444 17.4794 9.83246 17.7497 9.6332 17.9489C9.43394 18.1482 9.16369 18.2601 8.8819 18.2601ZM20.9988 11.8639L23.1212 8.18938C23.1549 8.13906 23.178 8.08234 23.189 8.02274C23.1999 7.96313 23.1985 7.90191 23.1849 7.84287C23.1712 7.78383 23.1455 7.72823 23.1095 7.6795C23.0735 7.63077 23.0278 7.58996 22.9754 7.55959C22.9229 7.52922 22.8648 7.50995 22.8046 7.50296C22.7444 7.49596 22.6834 7.50141 22.6254 7.51894C22.5674 7.53648 22.5136 7.56574 22.4674 7.60492C22.4212 7.64409 22.3834 7.69234 22.3566 7.74667L20.2077 11.4685C18.4912 10.6987 16.6312 10.3007 14.75 10.3007C12.8688 10.3007 11.0088 10.6987 9.29229 11.4685L7.14339 7.74667C7.11655 7.69234 7.07885 7.64409 7.03261 7.60492C6.98637 7.56574 6.93258 7.53648 6.87457 7.51894C6.81656 7.50141 6.75557 7.49596 6.69537 7.50296C6.63517 7.50995 6.57705 7.52922 6.52461 7.55959C6.47216 7.58996 6.42651 7.63077 6.39048 7.6795C6.35445 7.72823 6.32881 7.78383 6.31514 7.84287C6.30147 7.90191 6.30008 7.96313 6.31103 8.02274C6.32199 8.08234 6.34506 8.13906 6.37883 8.18938L8.50117 11.8639C4.8568 13.8459 2.36479 17.535 2 21.8934H27.5C27.1352 17.535 24.6428 13.8459 20.9988 11.8639Z" fill="#00C2B7"/>
</svg>
