<svg width="240" height="80" viewBox="0 0 240 80" fill="none" xmlns="http://www.w3.org/2000/svg">
<rect x="0.5" y="0.5" width="239" height="79" fill="#17171A"/>
<g clip-path="url(#clip0_33149_130879)">
<path d="M58.9585 29.9551C63.3304 30.4483 67.4621 32.5449 70.3663 35.9045C70.3841 35.9253 70.3837 35.9458 70.3649 35.966C70.3565 35.9759 70.3453 35.9866 70.3315 35.9979" stroke="#A1C6E5" stroke-width="0.148327"/>
<path d="M70.3315 35.9978C69.0262 34.9239 67.6087 34.022 66.0789 33.2923C66.072 33.2888 66.0642 33.2875 66.0565 33.2885C66.0488 33.2894 66.0415 33.2926 66.0357 33.2977C66.0298 33.3028 66.0256 33.3095 66.0235 33.317C66.0214 33.3245 66.0216 33.3324 66.024 33.3397C66.1091 33.6062 66.2342 33.8534 66.3993 34.0814C66.4051 34.0894 66.408 34.0991 66.4076 34.1089C66.4072 34.1188 66.4035 34.1282 66.397 34.1357C66.3906 34.1431 66.3818 34.1482 66.3721 34.1501C66.3625 34.1519 66.3524 34.1505 66.3437 34.1459C64.628 33.2648 62.7925 32.7563 60.837 32.6204C60.7703 32.6154 60.7391 32.6357 60.7436 32.6812C60.7447 32.6927 60.7494 32.7035 60.7572 32.7121C60.7649 32.7206 60.7753 32.7264 60.7866 32.7286C62.1008 32.959 63.3405 33.3786 64.5059 33.9872C65.0169 34.2542 65.6057 34.6458 66.1575 34.9751" stroke="#9096A7" stroke-width="0.148327"/>
<path d="M66.1573 34.9751C66.6564 35.406 67.1941 35.8525 67.6235 36.2974C69.7738 38.5214 70.9638 41.2189 71.1937 44.3902C71.1946 44.3996 71.1987 44.4084 71.2054 44.415C71.212 44.4217 71.2209 44.4257 71.2302 44.4265C71.2396 44.4273 71.249 44.4248 71.2567 44.4194C71.2644 44.4139 71.2699 44.406 71.2724 44.3968C73.3067 36.5844 69.4791 28.5103 62.3008 25.0127" stroke="#A1C6E5" stroke-width="0.148327"/>
<path d="M62.3006 25.0128C62.3871 24.5925 62.4801 24.1732 62.5795 23.7549C62.7456 23.0556 62.7449 22.1018 62.8509 21.1637C62.8534 21.1424 62.847 21.1305 62.8316 21.1281C62.8133 21.1251 62.8017 21.1328 62.7968 21.1511C62.2865 23.0096 61.403 24.6672 60.1462 26.1237C60.1409 26.1301 60.1378 26.138 60.1373 26.1463C60.1369 26.1546 60.1391 26.1627 60.1437 26.1697C60.1483 26.1766 60.155 26.1818 60.1627 26.1846C60.1705 26.1874 60.179 26.1877 60.187 26.1853L61.2401 25.856C61.2472 25.8537 61.2548 25.8538 61.2619 25.8563C61.269 25.8587 61.275 25.8633 61.2793 25.8695C61.2835 25.8756 61.2857 25.8829 61.2854 25.8904C61.2852 25.8978 61.2825 25.905 61.2779 25.9109C60.0053 27.5847 58.6295 28.8403 56.6686 29.6591C56.6434 29.6695 56.6214 29.6843 56.6026 29.7036L56.5062 29.7993C56.4854 29.8205 56.4709 29.8453 56.4625 29.8734C56.2375 30.626 55.8499 31.2813 55.2996 31.8395C55.2922 31.8471 55.2869 31.8563 55.2839 31.8664C55.2809 31.8765 55.2804 31.8871 55.2825 31.8974C55.2899 31.9349 55.3087 31.9478 55.3389 31.9359C56.6308 31.4321 57.8372 30.7718 58.9581 29.955" stroke="#9096A7" stroke-width="0.148327"/>
<path d="M62.3011 25.0127C62.0583 25.6945 61.8828 26.1509 61.7745 26.3818C61.1211 27.7842 60.151 28.973 58.9585 29.955" stroke="#315C8C" stroke-width="0.148327"/>
<path d="M66.1572 34.9751C67.7092 35.0938 69.1752 35.5086 70.5551 36.2196C70.5843 36.2349 70.5934 36.227 70.5826 36.1958C70.545 36.0856 70.4612 36.0196 70.3312 35.9978" stroke="#315C8C" stroke-width="0.148327"/>
<path d="M38.0522 40.5161C38.2401 45.4628 40.1523 49.5688 43.7888 52.834C43.8489 52.8874 43.9386 52.9296 44.0039 52.9941" stroke="#9096A7" stroke-width="0.148327"/>
<path d="M44.0039 52.9941C44.4207 53.3763 44.925 53.7667 45.5168 54.1652C48.9744 56.4947 52.9354 57.3817 57.0523 56.9523C59.8927 56.6556 62.6842 55.6269 64.677 53.5133" stroke="#969CBC" stroke-width="0.148327"/>
<path d="M64.6773 53.5131C64.8973 53.3055 65.0971 53.08 65.2766 52.8368C66.745 50.8507 67.3962 48.5219 67.1833 46.0656C66.6063 39.3976 61.1471 34.7319 54.5325 34.6956C54.1681 34.6936 53.7963 34.702 53.4171 34.7208C53.4122 34.721 53.4076 34.7227 53.4039 34.7258C53.4002 34.7289 53.3977 34.7331 53.3966 34.7378C53.3955 34.7426 53.396 34.7476 53.3979 34.7522C53.3999 34.7567 53.4032 34.7605 53.4074 34.7631C54.0007 35.1062 54.5738 35.4686 55.1265 35.8503" stroke="#9096A7" stroke-width="0.148327"/>
<path d="M55.1265 35.8501C55.5492 36.2748 55.9259 36.7203 56.2567 37.1865C56.2609 37.1922 56.2632 37.199 56.2634 37.206C56.2636 37.213 56.2616 37.2199 56.2577 37.2257C56.2538 37.2316 56.2482 37.2361 56.2416 37.2386C56.2351 37.2411 56.2279 37.2416 56.2211 37.2399L55.5143 37.082" stroke="#969CBC" stroke-width="0.148327"/>
<path d="M55.5142 37.0823C51.6696 36.0766 47.3992 36.4281 44.0752 38.7517" stroke="#9096A7" stroke-width="0.148327"/>
<path d="M44.0754 38.752C43.9023 38.8222 43.7735 38.9154 43.689 39.0316" stroke="#969CBC" stroke-width="0.148327"/>
<path d="M43.6887 39.0314L42.8744 39.6922C42.8685 39.697 42.8615 39.7002 42.8541 39.7016C42.8466 39.7029 42.8389 39.7023 42.8317 39.6999C42.8244 39.6975 42.8179 39.6932 42.8127 39.6876C42.8074 39.682 42.8037 39.6752 42.8017 39.6677C42.3396 37.8522 42.3612 36.1969 43.4677 34.6127C43.9401 33.9371 44.5838 33.3853 45.2461 32.8758C45.2576 32.8669 45.2715 32.8617 45.286 32.8611C45.3005 32.8605 45.3149 32.8644 45.327 32.8724C45.3392 32.8803 45.3486 32.8918 45.3539 32.9053C45.3592 32.9188 45.3602 32.9337 45.3566 32.9478C45.2239 33.4899 45.0355 34.2901 45.7823 34.4347C46.429 34.5601 47.2678 34.0521 47.781 33.7005C48.1459 33.4513 48.4633 33.1198 48.7822 32.7994C48.7985 32.783 48.82 32.7727 48.843 32.7704C48.866 32.7681 48.8891 32.7739 48.9083 32.7868C49.3197 33.0652 49.7671 33.13 50.2507 32.9811C50.2555 32.9798 50.2597 32.9769 50.2625 32.9729C50.2654 32.9689 50.2668 32.964 50.2666 32.9589C50.2663 32.9539 50.2644 32.9491 50.2611 32.9452C50.2578 32.9413 50.2534 32.9385 50.2485 32.9374C49.317 32.745 48.8984 32.2103 48.9929 31.3332C49.0782 30.5411 49.871 29.8181 50.5644 29.557C52.4415 28.8495 54.9408 27.8572 55.9086 26.0528C55.9798 25.9198 56.0525 25.919 56.1267 26.0505C56.448 26.6206 56.6332 27.2339 56.6822 27.8905C56.6825 27.8951 56.6839 27.8994 56.6864 27.9032C56.6889 27.9069 56.6924 27.91 56.6964 27.912C56.7005 27.914 56.705 27.915 56.7095 27.9147C56.714 27.9145 56.7184 27.913 56.7222 27.9106C58.2416 26.9375 59.5824 25.7618 60.7448 24.3833C60.7676 24.3566 60.7624 24.3374 60.7293 24.3255C50.1246 20.5743 38.8866 27.7763 38.1131 39.0381C38.0878 39.4054 38.0676 39.8981 38.0522 40.5162" stroke="#A1C6E5" stroke-width="0.148327"/>
<path d="M43.689 39.0315C44.6939 40.3375 46.1527 40.9724 47.7754 41.1074C47.8016 41.1098 47.807 41.1002 47.7917 41.0784C47.5343 40.7098 47.2718 40.3739 47.4157 39.9207C47.6797 39.0894 49.2253 38.8083 49.9521 38.746C51.5041 38.6135 53.0264 38.7813 54.5191 39.2496C55.3178 39.5002 55.9156 39.7643 56.3836 40.3865" stroke="#3763A1" stroke-width="0.148327"/>
<path d="M56.3833 40.3862C57.6003 41.9637 57.5506 43.9698 56.3551 45.528C54.6412 47.7633 51.599 48.8698 48.8445 48.8142C45.215 48.74 42.2996 46.8392 40.1429 44.0173C39.3353 42.9604 38.7405 41.7939 38.1791 40.5931C38.1489 40.5279 38.1066 40.5022 38.0522 40.516" stroke="#315C8C" stroke-width="0.148327"/>
<path d="M44.0039 52.9942H44.0707C44.0949 52.9942 44.1166 53.0014 44.1359 53.0157C45.5529 54.0802 47.1457 54.7645 48.9143 55.0686C49.1761 55.1138 49.4112 55.1034 49.6752 55.1487C50.0549 55.2132 50.4769 55.0856 50.8685 55.0908C51.2092 55.0953 51.5466 55.0646 51.8808 54.9988C54.618 54.4619 56.9198 53.1668 58.7862 51.1134C60.1456 49.6175 60.9043 47.5217 60.294 45.5237C60.292 45.5175 60.2884 45.5119 60.2837 45.5074C60.2789 45.5029 60.2731 45.4998 60.2669 45.4982C60.2606 45.4966 60.254 45.4967 60.2479 45.4985C60.2417 45.5002 60.2361 45.5035 60.2317 45.5081C59.7659 45.9714 59.2512 46.3711 58.6876 46.7073C58.6838 46.7096 58.6795 46.7108 58.6752 46.7106C58.6708 46.7105 58.6666 46.709 58.663 46.7065C58.6595 46.704 58.6567 46.7005 58.6552 46.6964C58.6536 46.6923 58.6533 46.6879 58.6542 46.6836L58.9508 45.3079C58.9534 45.297 58.9523 45.2857 58.9479 45.2754C58.9435 45.2652 58.9359 45.2567 58.9263 45.2511C58.9166 45.2456 58.9054 45.2433 58.8944 45.2445C58.8833 45.2458 58.8729 45.2506 58.8648 45.2582C58.4772 45.6068 58.0512 45.8992 57.587 46.1355C57.578 46.1401 57.5679 46.1417 57.558 46.1402C57.5481 46.1386 57.5389 46.1339 57.5317 46.1268C57.5246 46.1198 57.5198 46.1106 57.518 46.1006C57.5162 46.0906 57.5175 46.0802 57.5217 46.071C58.4473 44.1242 57.9808 41.9104 56.4945 40.3775C56.4604 40.3426 56.3996 40.3211 56.3833 40.3864" stroke="#263363" stroke-width="0.148327"/>
<path d="M44.0752 38.7515L44.1071 38.7774C44.1269 38.7937 44.1481 38.796 44.1709 38.7841C45.5839 38.0246 47.0875 37.5587 48.6815 37.3861C48.9337 37.3594 49.254 37.3639 49.5418 37.332C49.8113 37.3018 50.0249 37.2892 50.1826 37.2941C52.2952 37.3629 54.3407 37.7782 56.3189 38.5401C56.333 38.5453 56.3484 38.5462 56.363 38.5425C56.3776 38.5388 56.3907 38.5307 56.4006 38.5193C56.4105 38.508 56.4167 38.4939 56.4184 38.4789C56.4201 38.4639 56.4172 38.4488 56.4101 38.4355C56.1584 37.9722 55.8598 37.5211 55.5142 37.082" stroke="#263363" stroke-width="0.148327"/>
<path d="M64.6773 53.5129C64.6446 53.4654 64.6429 53.4219 64.6721 53.3824C68.2764 48.4142 66.188 41.7639 61.6692 38.2916C59.7701 36.832 57.5892 36.0182 55.1265 35.8501" stroke="#263363" stroke-width="0.148327"/>
<path d="M53.4015 30.2104C52.9056 30.3588 52.299 30.6099 51.5816 30.964C51.0871 31.2072 50.8041 31.576 50.7324 32.0705C50.7057 32.2537 50.8192 32.3812 51.0023 32.2685" stroke="#A1C6E5" stroke-width="0.148327"/>
<path d="M51.0024 32.2679C52.8439 32.3739 54.3339 31.3868 54.7967 29.5683C54.7998 29.5554 54.799 29.5418 54.7943 29.5293C54.7897 29.5168 54.7814 29.506 54.7705 29.4982C54.7597 29.4905 54.7468 29.4862 54.7335 29.4859C54.7201 29.4855 54.707 29.4892 54.6958 29.4964C54.2973 29.7579 53.8659 29.9957 53.4016 30.2098" stroke="#9096A7" stroke-width="0.148327"/>
<path d="M51.0024 32.2685C52.1186 31.9043 53.0931 31.4579 53.4016 30.2104" stroke="#315C8C" stroke-width="0.148327"/>
<path d="M44.104 36.3971C44.3584 36.1842 45.2209 35.5531 45.3841 36.1939C45.391 36.2196 45.4014 36.2211 45.4152 36.1983C45.4661 36.1128 45.4953 36.0203 45.5027 35.9209" stroke="#A1C6E5" stroke-width="0.148327"/>
<path d="M45.5028 35.9209C45.5933 35.7459 45.621 35.5582 45.5859 35.358C45.4858 34.7936 44.8339 35.0895 44.5669 35.355C44.2509 35.669 44.0492 36.047 43.9617 36.489C43.9548 36.5251 43.9686 36.5367 44.0032 36.5238C44.0541 36.5046 44.0878 36.4623 44.1041 36.397" stroke="#9096A7" stroke-width="0.148327"/>
<path d="M45.5027 35.9211C45.4464 35.8178 45.4211 35.705 45.4271 35.5829C45.4281 35.5644 45.4254 35.5459 45.4191 35.5284C45.4128 35.511 45.403 35.495 45.3905 35.4813C45.3779 35.4677 45.3627 35.4568 45.3458 35.4491C45.3289 35.4415 45.3106 35.4373 45.2921 35.4368C45.1467 35.4331 45.0044 35.4153 44.8709 35.4865C44.5005 35.6862 44.2449 35.9898 44.104 36.3972" stroke="#315C8C" stroke-width="0.148327"/>
<path d="M71.197 44.4704L71.1762 44.7018C71.1717 44.7571 71.1839 44.7611 71.2125 44.7136C71.2595 44.635 71.2687 44.5522 71.24 44.4652C71.2172 44.3979 71.2029 44.3997 71.197 44.4704Z" stroke="#A1C6E5" stroke-width="0.148327"/>
<path d="M75.8288 40.1964C75.8288 45.6495 73.6626 50.8793 69.8066 54.7353C65.9506 58.5913 60.7208 60.7575 55.2677 60.7575C49.8145 60.7575 44.5847 58.5913 40.7288 54.7353C36.8728 50.8793 34.7065 45.6495 34.7065 40.1964C34.7065 34.7432 36.8728 29.5134 40.7288 25.6575C44.5847 21.8015 49.8145 19.6353 55.2677 19.6353C60.7208 19.6353 65.9506 21.8015 69.8066 25.6575C73.6626 29.5134 75.8288 34.7432 75.8288 40.1964ZM58.9581 29.9551C63.33 30.4483 67.4617 32.5449 70.3659 35.9045C70.3837 35.9253 70.3832 35.9458 70.3644 35.9661C70.356 35.976 70.3449 35.9866 70.3311 35.998C69.0258 34.9241 67.6083 34.0223 66.0785 33.2925C66.0716 33.289 66.0638 33.2877 66.0561 33.2887C66.0484 33.2896 66.0411 33.2929 66.0353 33.2979C66.0294 33.303 66.0252 33.3097 66.0231 33.3172C66.021 33.3247 66.0212 33.3326 66.0236 33.34C66.1087 33.6064 66.2338 33.8537 66.3989 34.0816C66.4047 34.0896 66.4076 34.0993 66.4072 34.1091C66.4068 34.119 66.4031 34.1284 66.3966 34.1359C66.3902 34.1434 66.3814 34.1484 66.3717 34.1503C66.3621 34.1521 66.352 34.1507 66.3433 34.1461C64.6276 33.265 62.7921 32.7565 60.8366 32.6206C60.7699 32.6156 60.7387 32.6359 60.7432 32.6814C60.7442 32.6929 60.749 32.7037 60.7568 32.7123C60.7645 32.7208 60.7749 32.7267 60.7862 32.7288C62.1004 32.9592 63.3401 33.3788 64.5055 33.9874C65.0165 34.2544 65.6053 34.646 66.1571 34.9753C66.6562 35.4062 67.1939 35.8526 67.6233 36.2976C69.7736 38.5215 70.9637 41.2191 71.1936 44.3903C71.1944 44.3997 71.1985 44.4085 71.2052 44.4152C71.2119 44.4218 71.2207 44.4259 71.2301 44.4267C71.2395 44.4275 71.2488 44.425 71.2565 44.4195C71.2642 44.4141 71.2698 44.4061 71.2722 44.397C73.3065 36.5846 69.4789 28.5104 62.3006 25.0129C62.3871 24.5926 62.4801 24.1733 62.5795 23.755C62.7456 23.0557 62.7449 22.1019 62.8509 21.1638C62.8534 21.1425 62.847 21.1306 62.8316 21.1282C62.8133 21.1252 62.8017 21.1329 62.7968 21.1512C62.2865 23.0097 61.403 24.6673 60.1462 26.1238C60.1409 26.1302 60.1378 26.1381 60.1373 26.1464C60.1369 26.1547 60.1391 26.1629 60.1437 26.1698C60.1483 26.1767 60.1549 26.1819 60.1627 26.1847C60.1705 26.1875 60.179 26.1878 60.187 26.1854L61.2401 25.8561C61.2472 25.8539 61.2548 25.8539 61.2619 25.8564C61.2689 25.8588 61.275 25.8634 61.2793 25.8696C61.2835 25.8757 61.2857 25.883 61.2854 25.8905C61.2852 25.898 61.2825 25.9051 61.2779 25.911C60.0052 27.5849 58.6295 28.8404 56.6686 29.6592C56.6434 29.6696 56.6214 29.6844 56.6026 29.7037L56.5062 29.7994C56.4854 29.8206 56.4709 29.8454 56.4625 29.8735C56.2375 30.6261 55.8499 31.2814 55.2996 31.8396C55.2922 31.8472 55.2869 31.8565 55.2839 31.8665C55.2809 31.8766 55.2804 31.8872 55.2825 31.8975C55.2899 31.935 55.3087 31.9479 55.3389 31.936C56.6308 31.4322 57.8372 30.7719 58.9581 29.9551ZM38.0521 40.516C38.2399 45.4627 40.1521 49.5687 43.7886 52.8339C43.8487 52.8873 43.9384 52.9295 44.0037 52.9941C44.4205 53.3763 44.9248 53.7666 45.5166 54.1651C48.9741 56.4946 52.9352 57.3816 57.0521 56.9522C59.8925 56.6555 62.684 55.6269 64.6768 53.5132C64.8968 53.3055 65.0966 53.0801 65.2761 52.8368C66.7445 50.8507 67.3957 48.522 67.1828 46.0657C66.6058 39.3976 61.1466 34.732 54.532 34.6957C54.1676 34.6937 53.7958 34.7021 53.4165 34.7209C53.4117 34.721 53.4071 34.7228 53.4034 34.7259C53.3997 34.7289 53.3971 34.7331 53.3961 34.7379C53.395 34.7427 53.3955 34.7477 53.3974 34.7522C53.3994 34.7568 53.4027 34.7606 53.4069 34.7632C54.0002 35.1063 54.5733 35.4687 55.126 35.8504C55.5488 36.2751 55.9255 36.7206 56.2563 37.1868C56.2604 37.1925 56.2628 37.1993 56.2629 37.2063C56.2631 37.2133 56.2611 37.2202 56.2572 37.226C56.2533 37.2319 56.2477 37.2364 56.2412 37.2389C56.2347 37.2414 56.2275 37.2419 56.2207 37.2402L55.5139 37.0823C51.6693 36.0766 47.3989 36.4281 44.0749 38.7517C43.9018 38.8219 43.773 38.9151 43.6885 39.0313L42.8742 39.6921C42.8683 39.6969 42.8613 39.7001 42.8539 39.7014C42.8464 39.7028 42.8387 39.7022 42.8315 39.6998C42.8243 39.6973 42.8177 39.6931 42.8125 39.6875C42.8072 39.6819 42.8035 39.675 42.8015 39.6676C42.3395 37.8521 42.361 36.1967 43.4675 34.6126C43.9399 33.937 44.5837 33.3852 45.2459 32.8757C45.2574 32.8668 45.2713 32.8616 45.2858 32.861C45.3004 32.8604 45.3147 32.8643 45.3269 32.8722C45.339 32.8801 45.3484 32.8917 45.3537 32.9052C45.359 32.9187 45.36 32.9335 45.3564 32.9476C45.2237 33.4898 45.0353 34.29 45.7821 34.4346C46.4289 34.5599 47.2676 34.0519 47.7809 33.7004C48.1457 33.4512 48.4632 33.1197 48.7821 32.7993C48.7983 32.7829 48.8198 32.7726 48.8428 32.7703C48.8658 32.768 48.8889 32.7738 48.9081 32.7867C49.3195 33.0651 49.767 33.1298 50.2505 32.981C50.2553 32.9797 50.2595 32.9768 50.2624 32.9728C50.2652 32.9687 50.2667 32.9638 50.2664 32.9588C50.2662 32.9538 50.2642 32.949 50.261 32.9451C50.2577 32.9411 50.2532 32.9384 50.2483 32.9372C49.3168 32.7449 48.8983 32.2102 48.9927 31.3331C49.078 30.541 49.8708 29.8179 50.5642 29.5569C52.4413 28.8493 54.9406 27.857 55.9084 26.0526C55.9796 25.9196 56.0523 25.9189 56.1265 26.0504C56.4479 26.6205 56.633 27.2338 56.682 27.8904C56.6823 27.8949 56.6838 27.8993 56.6863 27.9031C56.6888 27.9068 56.6922 27.9099 56.6963 27.9119C56.7003 27.9139 56.7048 27.9148 56.7093 27.9146C56.7139 27.9143 56.7182 27.9129 56.722 27.9104C58.2414 26.9374 59.5823 25.7617 60.7447 24.3832C60.7674 24.3565 60.7622 24.3372 60.7291 24.3254C50.1244 20.5742 38.8864 27.7762 38.1129 39.0379C38.0877 39.4053 38.0674 39.898 38.0521 40.516ZM53.401 30.2102C52.9051 30.3586 52.2984 30.6097 51.581 30.9638C51.0866 31.207 50.8035 31.5758 50.7318 32.0703C50.7051 32.2535 50.8186 32.381 51.0018 32.2683C52.8433 32.3743 54.3332 31.3872 54.796 29.5687C54.7991 29.5558 54.7983 29.5422 54.7937 29.5297C54.789 29.5172 54.7807 29.5064 54.7699 29.4987C54.759 29.4909 54.7461 29.4866 54.7328 29.4863C54.7195 29.4859 54.7064 29.4896 54.6951 29.4968C54.2966 29.7583 53.8652 29.9962 53.401 30.2102ZM44.1038 36.397C44.3582 36.1841 45.2207 35.553 45.3839 36.1938C45.3908 36.2195 45.4012 36.221 45.415 36.1982C45.466 36.1127 45.4951 36.0202 45.5025 35.9209C45.593 35.7458 45.6207 35.5582 45.5856 35.3579C45.4855 34.7936 44.8336 35.0895 44.5666 35.355C44.2507 35.6689 44.0489 36.0469 43.9614 36.4889C43.9545 36.525 43.9683 36.5367 44.003 36.5238C44.0539 36.5045 44.0875 36.4622 44.1038 36.397ZM71.1965 44.4704L71.1758 44.7018C71.1713 44.7572 71.1834 44.7612 71.2121 44.7137C71.2591 44.6351 71.2682 44.5523 71.2396 44.4652C71.2168 44.398 71.2025 44.3997 71.1965 44.4704Z" fill="#9D9DA6"/>
<path d="M62.3006 25.0128C62.0579 25.6946 61.8823 26.1509 61.7741 26.3818C61.1207 27.7842 60.1506 28.9731 58.9581 29.955C57.8372 30.7718 56.6308 31.4321 55.3389 31.9359C55.3087 31.9478 55.2899 31.9349 55.2825 31.8974C55.2804 31.8871 55.2809 31.8765 55.2839 31.8664C55.2869 31.8563 55.2922 31.8471 55.2996 31.8395C55.8499 31.2813 56.2375 30.626 56.4625 29.8734C56.4709 29.8453 56.4854 29.8205 56.5062 29.7993L56.6026 29.7036C56.6214 29.6843 56.6434 29.6695 56.6686 29.6591C58.6295 28.8403 60.0053 27.5847 61.2779 25.9109C61.2825 25.905 61.2852 25.8978 61.2854 25.8904C61.2857 25.8829 61.2835 25.8756 61.2793 25.8695C61.275 25.8633 61.269 25.8587 61.2619 25.8563C61.2548 25.8538 61.2472 25.8537 61.2401 25.856L60.187 26.1853C60.179 26.1877 60.1705 26.1874 60.1627 26.1846C60.155 26.1818 60.1483 26.1766 60.1437 26.1697C60.1391 26.1627 60.1369 26.1546 60.1373 26.1463C60.1378 26.138 60.1409 26.1301 60.1462 26.1237C61.403 24.6672 62.2865 23.0096 62.7968 21.1511C62.8017 21.1328 62.8133 21.1251 62.8316 21.1281C62.847 21.1305 62.8534 21.1424 62.8509 21.1637C62.7449 22.1018 62.7456 23.0556 62.5795 23.7549C62.4801 24.1732 62.3871 24.5925 62.3006 25.0128Z" fill="#434348"/>
<path d="M43.6887 39.0309C44.6936 40.3369 46.1524 40.9718 47.7751 41.1068C47.8013 41.1092 47.8067 41.0996 47.7914 41.0778C47.5341 40.7092 47.2715 40.3733 47.4154 39.9201C47.6794 39.0888 49.225 38.8077 49.9518 38.7454C51.5038 38.6129 53.0261 38.7807 54.5188 39.249C55.3175 39.4996 55.9153 39.7636 56.3833 40.3859C57.6003 41.9633 57.5506 43.9695 56.3551 45.5276C54.6412 47.7629 51.599 48.8695 48.8445 48.8138C45.215 48.7397 42.2996 46.8389 40.1429 44.0169C39.3353 42.9601 38.7405 41.7935 38.1791 40.5928C38.1489 40.5275 38.1066 40.5018 38.0522 40.5157C38.0676 39.8976 38.0878 39.4049 38.1131 39.0376C38.8866 27.7758 50.1246 20.5738 60.7293 24.325C60.7624 24.3369 60.7676 24.3562 60.7448 24.3828C59.5824 25.7613 58.2416 26.937 56.7222 27.9101C56.7184 27.9125 56.714 27.914 56.7095 27.9142C56.705 27.9145 56.7005 27.9136 56.6964 27.9115C56.6924 27.9095 56.6889 27.9065 56.6864 27.9027C56.6839 27.8989 56.6825 27.8946 56.6822 27.89C56.6332 27.2335 56.448 26.6201 56.1267 26.05C56.0525 25.9185 55.9798 25.9193 55.9086 26.0523C54.9408 27.8567 52.4415 28.849 50.5644 29.5565C49.871 29.8176 49.0782 30.5407 48.9929 31.3327C48.8984 32.2098 49.317 32.7446 50.2485 32.9369C50.2534 32.938 50.2578 32.9408 50.2611 32.9447C50.2644 32.9486 50.2663 32.9534 50.2666 32.9585C50.2668 32.9635 50.2654 32.9684 50.2625 32.9724C50.2597 32.9764 50.2555 32.9793 50.2507 32.9806C49.7671 33.1295 49.3197 33.0647 48.9083 32.7863C48.8891 32.7734 48.866 32.7676 48.843 32.7699C48.82 32.7722 48.7985 32.7825 48.7822 32.7989C48.4633 33.1193 48.1459 33.4508 47.781 33.7C47.2678 34.0516 46.429 34.5596 45.7823 34.4342C45.0355 34.2896 45.2239 33.4894 45.3566 32.9473C45.3602 32.9332 45.3592 32.9183 45.3539 32.9048C45.3486 32.8913 45.3392 32.8798 45.327 32.8719C45.3149 32.8639 45.3005 32.86 45.286 32.8606C45.2715 32.8613 45.2576 32.8664 45.2461 32.8753C44.5838 33.3848 43.9401 33.9366 43.4677 34.6122C42.3612 36.1964 42.3396 37.8517 42.8017 39.6672C42.8037 39.6747 42.8074 39.6815 42.8127 39.6871C42.8179 39.6927 42.8244 39.697 42.8317 39.6994C42.8389 39.7018 42.8466 39.7024 42.8541 39.7011C42.8615 39.6997 42.8685 39.6965 42.8744 39.6917L43.6887 39.0309Z" fill="#707076"/>
<path d="M62.3006 25.0127C69.4789 28.5103 73.3064 36.5844 71.2721 44.3968C71.2697 44.406 71.2642 44.4139 71.2565 44.4194C71.2488 44.4248 71.2394 44.4273 71.23 44.4265C71.2206 44.4257 71.2118 44.4217 71.2052 44.415C71.1985 44.4083 71.1944 44.3996 71.1935 44.3902C70.9636 41.2189 69.7735 38.5214 67.6233 36.2974C67.1939 35.8525 66.6562 35.406 66.1571 34.9751C67.7091 35.0938 69.175 35.5086 70.555 36.2196C70.5841 36.2349 70.5933 36.227 70.5824 36.1958C70.5448 36.0856 70.461 36.0196 70.331 35.9978C70.3448 35.9864 70.356 35.9758 70.3644 35.9659C70.3832 35.9457 70.3837 35.9251 70.3659 35.9044C67.4616 32.5448 63.33 30.4481 58.958 29.955C60.1506 28.973 61.1206 27.7842 61.774 26.3818C61.8823 26.1509 62.0578 25.6945 62.3006 25.0127Z" fill="#707076"/>
<path d="M51.002 32.2679C52.1181 31.9037 53.0926 31.4573 53.4011 30.2098C53.8654 29.9957 54.2968 29.7579 54.6953 29.4964C54.7065 29.4892 54.7196 29.4855 54.733 29.4859C54.7463 29.4862 54.7592 29.4905 54.7701 29.4982C54.7809 29.506 54.7892 29.5168 54.7938 29.5293C54.7985 29.5418 54.7993 29.5554 54.7962 29.5683C54.3334 31.3868 52.8434 32.3739 51.002 32.2679Z" fill="#434348"/>
<path d="M53.4011 30.2104C53.0925 31.4579 52.118 31.9043 51.0019 32.2685C50.8187 32.3812 50.7052 32.2537 50.7319 32.0705C50.8036 31.576 51.0867 31.2072 51.5811 30.964C52.2985 30.6099 52.9051 30.3588 53.4011 30.2104Z" fill="#707076"/>
<path d="M90.5987 48.1343C91.8395 50.2531 93.3858 51.7668 95.9467 52.0234C95.9754 52.0259 95.9897 52.0415 95.9897 52.0701V52.3609C95.9897 52.393 95.9739 52.4078 95.9422 52.4054C92.4803 52.1502 89.3602 50.6121 86.8698 48.2307C86.7803 48.1452 86.6775 48.0796 86.5613 48.0342C84.0523 47.0515 82.2331 45.2664 81.6094 42.5809C81.3033 41.2623 81.2868 39.9182 81.5597 38.5486C82.354 34.5594 86.1148 31.9206 90.1449 32.643C93.0929 33.171 95.3141 35.7237 95.92 38.5301C96.8055 42.6291 94.7 46.8275 90.6121 48.1002C90.6087 48.1013 90.6056 48.1031 90.603 48.1056C90.6004 48.108 90.5983 48.111 90.5971 48.1143C90.5958 48.1175 90.5953 48.121 90.5956 48.1245C90.5958 48.128 90.5969 48.1313 90.5987 48.1343ZM88.4725 47.5076C94.5279 47.8421 94.3848 38.2898 92.1317 35.1052C90.9058 33.372 88.3575 32.8937 86.5294 33.9609C83.6385 35.6481 83.6674 40.4324 84.2162 43.123C84.6657 45.3264 86.0006 47.3711 88.4725 47.5076Z" fill="#9D9DA6"/>
<path d="M132.775 33.4308C133.515 33.8209 133.974 33.215 134.109 32.5586C134.113 32.5364 134.127 32.5252 134.151 32.5252H134.485C134.513 32.5252 134.528 32.5391 134.53 32.5668L134.868 37.6232C134.87 37.6485 134.859 37.6611 134.834 37.6611H134.539C134.517 37.6611 134.503 37.6504 134.496 37.6292C133.91 35.6179 132.816 33.9536 130.657 33.4597C129.614 33.2209 128.461 33.3321 127.483 33.7653C125.166 34.7902 124.428 37.2925 124.261 39.619C124.028 42.8651 124.889 46.3931 128.569 47.1726C129.782 47.4299 131.119 47.3216 132.239 46.7543C133.261 46.2366 134.176 45.165 134.821 44.2045C134.837 44.1798 134.858 44.1756 134.883 44.1919L135.18 44.3847C135.202 44.3991 135.206 44.4176 135.194 44.4404C134.168 46.3315 132.644 47.7577 130.475 48.1515C128.186 48.5668 125.752 48.0751 124.046 46.4398C120.111 42.6679 121.213 35.1492 126.409 33.0941C128.591 32.2313 130.713 32.3435 132.775 33.4308Z" fill="#9D9DA6"/>
<path d="M160.054 32.872C160.809 33.139 161.998 34.0193 162.293 32.5701C162.299 32.54 162.318 32.5249 162.348 32.5249H162.709C162.74 32.5249 162.755 32.5405 162.755 32.5716V37.7164C162.755 37.7411 162.743 37.7534 162.718 37.7534H162.362C162.333 37.7534 162.317 37.7393 162.313 37.7112C162.084 35.9943 161.477 34.5414 159.801 33.7931C158.66 33.2836 157.328 33.2465 156.333 34.0979C155.294 34.9871 155.274 36.3822 156.327 37.307C157.416 38.2622 158.934 39.0164 160.255 39.7536C161.259 40.3143 162.337 40.9239 162.98 41.7983C163.988 43.1681 164.006 45.0155 162.997 46.4031C161.655 48.2476 159.319 48.6444 157.2 48.0518C156.718 47.9173 156.24 47.7737 155.764 47.6209C155.028 47.3851 154.451 47.2575 154.345 48.2609C154.342 48.2891 154.327 48.3032 154.298 48.3032H153.967C153.93 48.3032 153.911 48.2847 153.911 48.2476V43.1488C153.911 43.1241 153.924 43.1118 153.948 43.1118H154.299C154.31 43.1118 154.321 43.1156 154.329 43.1227C154.338 43.1297 154.343 43.1395 154.345 43.1503C154.546 44.3837 154.897 45.6756 155.974 46.4766C156.968 47.2147 158.109 47.5047 159.398 47.3465C161.135 47.1337 162.36 45.4746 161.42 43.8015C160.983 43.025 160.251 42.577 159.494 42.1469C158.151 41.3815 157.244 40.855 156.771 40.5672C155.82 39.9872 154.927 39.3962 154.328 38.4684C153.325 36.9139 153.661 34.9323 154.994 33.6997C156.365 32.4322 158.328 32.2616 160.054 32.872Z" fill="#9D9DA6"/>
<path d="M194.143 42.9078H188.422C188.414 42.9078 188.407 42.9101 188.4 42.9144C188.393 42.9188 188.388 42.925 188.385 42.9323C188.069 43.6655 187.757 44.3975 187.448 45.1283C187.161 45.8069 186.527 47.0521 187.694 47.3554C188.041 47.4449 188.373 47.499 188.69 47.5178C188.717 47.5198 188.731 47.5342 188.731 47.5609V47.9139C188.731 47.9386 188.719 47.951 188.694 47.951H184.049C184.018 47.951 184.003 47.9354 184.003 47.9042V47.5579C184.003 47.5253 184.019 47.507 184.051 47.503C184.634 47.4266 185.095 47.2746 185.47 46.8029C185.85 46.3231 186.162 45.6274 186.453 44.9451C188.211 40.8251 189.966 36.7038 191.718 32.5813C191.729 32.5561 191.748 32.5435 191.775 32.5435H192.106C192.136 32.5435 192.157 32.5573 192.168 32.585C193.805 36.5176 195.444 40.4491 197.085 44.3792C197.386 45.0986 197.678 45.795 198.066 46.4744C198.493 47.2219 199.089 47.4303 199.905 47.5267C199.934 47.5302 199.948 47.5465 199.948 47.5757V47.9042C199.948 47.9354 199.933 47.951 199.901 47.951H194.062C194.031 47.951 194.015 47.9354 194.015 47.9042V47.566C194.015 47.5374 194.029 47.5225 194.058 47.5215C194.758 47.4926 195.661 47.3057 195.52 46.3772C195.48 46.1161 195.343 45.7201 195.222 45.4168C194.89 44.5871 194.547 43.7619 194.194 42.9412C194.184 42.919 194.168 42.9078 194.143 42.9078ZM188.761 42.0305C188.759 42.0342 188.758 42.0382 188.759 42.0422C188.759 42.0462 188.76 42.0501 188.763 42.0535C188.765 42.0569 188.768 42.0596 188.771 42.0616C188.775 42.0635 188.779 42.0645 188.783 42.0646L193.837 42.0824C193.841 42.0825 193.845 42.0815 193.849 42.0796C193.852 42.0778 193.856 42.075 193.858 42.0716C193.86 42.0682 193.862 42.0643 193.862 42.0602C193.862 42.0561 193.862 42.052 193.86 42.0483L191.353 36.0729C191.351 36.0684 191.348 36.0646 191.344 36.0619C191.34 36.0592 191.336 36.0578 191.331 36.0578C191.326 36.0578 191.321 36.0592 191.317 36.0619C191.313 36.0646 191.31 36.0684 191.308 36.0729L188.761 42.0305Z" fill="#9D9DA6"/>
<path d="M70.331 35.9978C70.461 36.0195 70.5448 36.0855 70.5824 36.1958C70.5933 36.2269 70.5841 36.2348 70.5549 36.2195C69.175 35.5085 67.709 35.0937 66.157 34.9751C65.6053 34.6458 65.0164 34.2542 64.5054 33.9872C63.3401 33.3786 62.1003 32.959 60.7861 32.7286C60.7748 32.7264 60.7644 32.7206 60.7567 32.7121C60.7489 32.7035 60.7442 32.6927 60.7431 32.6812C60.7386 32.6357 60.7698 32.6154 60.8365 32.6204C62.792 32.7563 64.6275 33.2648 66.3432 34.1459C66.3519 34.1505 66.362 34.1519 66.3717 34.1501C66.3813 34.1482 66.3901 34.1431 66.3966 34.1357C66.403 34.1282 66.4067 34.1188 66.4071 34.1089C66.4075 34.0991 66.4046 34.0894 66.3988 34.0814C66.2337 33.8534 66.1086 33.6062 66.0235 33.3397C66.0211 33.3324 66.0209 33.3245 66.023 33.317C66.0251 33.3095 66.0293 33.3028 66.0352 33.2977C66.041 33.2926 66.0483 33.2894 66.056 33.2885C66.0637 33.2875 66.0715 33.2888 66.0784 33.2923C67.6082 34.022 69.0257 34.9239 70.331 35.9978Z" fill="#434348"/>
<path d="M102.745 33.3115C101.498 33.4139 101.407 34.4796 101.406 35.4564C101.402 37.6867 101.403 39.917 101.407 42.1474C101.409 43.2257 101.516 44.7246 102.01 45.6338C103.547 48.4632 109.006 47.5599 109.674 44.4472C109.866 43.5461 109.909 42.6836 109.911 41.6416C109.915 39.5111 109.916 37.3807 109.912 35.2502C109.912 34.7585 109.882 33.9872 109.453 33.6549C108.919 33.2403 108.41 33.2989 107.802 33.3041C107.776 33.3041 107.763 33.2913 107.763 33.2656V32.8955C107.763 32.8708 107.775 32.8584 107.8 32.8584H113.029C113.066 32.8584 113.084 32.8769 113.084 32.914V33.2633C113.084 33.291 113.07 33.3046 113.042 33.3041C112.699 33.3004 112.313 33.2693 112.005 33.3709C111.22 33.6304 110.935 34.3142 110.935 35.1063C110.934 37.3421 110.934 39.5779 110.935 41.8137C110.936 42.6013 110.867 43.4233 110.73 44.2796C110.413 46.2575 108.963 47.7126 107.003 48.1168C105.633 48.3994 103.911 48.389 102.554 47.9722C101.24 47.5688 100.146 46.5453 99.6592 45.2519C99.3017 44.2989 99.2624 42.9647 99.258 41.8923C99.2501 39.7217 99.2498 37.551 99.2572 35.38C99.2587 35.0099 99.2098 34.5597 99.1252 34.2438C98.8649 33.2715 97.9594 33.2834 97.125 33.3063C97.0973 33.3073 97.0835 33.294 97.0835 33.2663V32.8955C97.0835 32.8708 97.0959 32.8584 97.1206 32.8584H103.517C103.554 32.8584 103.573 32.8769 103.573 32.914V33.2641C103.573 33.2937 103.558 33.3081 103.528 33.3071C103.162 33.2972 102.901 33.2987 102.745 33.3115Z" fill="#9D9DA6"/>
<path d="M113.925 47.5035C115.253 47.551 116.029 47.3136 116.03 45.7948C116.033 42.2557 116.034 38.7161 116.032 35.176C116.032 34.7187 115.995 34.3661 115.922 34.1184C115.705 33.379 114.555 33.2277 113.928 33.2945C113.897 33.2974 113.881 33.2834 113.881 33.2522V32.9051C113.881 32.874 113.897 32.8584 113.928 32.8584H120.278C120.315 32.8584 120.334 32.8769 120.334 32.914V33.2463C120.334 33.2784 120.318 33.2932 120.285 33.2908C119.937 33.2661 119.594 33.2881 119.256 33.3568C118.244 33.563 118.187 34.4477 118.186 35.2873C118.184 38.7299 118.183 42.1724 118.183 45.6145C118.183 46.5601 118.281 47.2187 119.299 47.4553C119.603 47.5257 119.961 47.5079 120.293 47.505C120.32 47.505 120.334 47.5183 120.334 47.545V47.904C120.334 47.9351 120.318 47.9507 120.287 47.9507H113.937C113.9 47.9507 113.881 47.9322 113.881 47.8951V47.5458C113.881 47.5166 113.896 47.5025 113.925 47.5035Z" fill="#9D9DA6"/>
<path d="M140.646 40.5165C140.628 42.1417 140.62 43.7669 140.625 45.3921C140.626 45.8435 140.662 46.2449 140.731 46.5965C140.902 47.4612 142.045 47.5154 142.706 47.5035C142.735 47.503 142.75 47.5173 142.75 47.5465V47.9136C142.75 47.9383 142.737 47.9507 142.713 47.9507H136.4C136.369 47.9507 136.353 47.9351 136.353 47.904V47.5406C136.353 47.5065 136.37 47.4909 136.404 47.4939C137.255 47.571 138.257 47.4538 138.416 46.4504C138.467 46.1221 138.494 45.7184 138.495 45.2393C138.504 42.0641 138.506 38.8889 138.502 35.7137C138.501 35.0299 138.472 34.5352 138.416 34.2297C138.261 33.4028 137.075 33.224 136.4 33.2945C136.369 33.2979 136.353 33.2839 136.353 33.2522V32.914C136.353 32.8769 136.372 32.8584 136.409 32.8584H142.722C142.753 32.8584 142.769 32.874 142.768 32.9051L142.767 33.2574C142.767 33.2881 142.752 33.3016 142.722 33.2982C142.201 33.2453 141.735 33.3152 141.323 33.5081C140.663 33.8181 140.663 34.4626 140.657 35.107C140.641 36.7658 140.633 38.412 140.634 40.0456C140.634 40.0931 140.651 40.1007 140.686 40.0686C142.457 38.4385 144.277 36.8299 145.86 35.024C146.109 34.7399 146.478 34.1741 146.387 33.8181C146.246 33.2589 145.506 33.2937 145.087 33.3034C145.062 33.3039 145.049 33.2913 145.049 33.2656V32.8955C145.049 32.8708 145.061 32.8584 145.086 32.8584H150.527C150.558 32.8584 150.574 32.874 150.574 32.9051V33.2448C150.574 33.2735 150.56 33.2885 150.531 33.29C149.156 33.3686 147.905 34.3869 147.001 35.3125C145.64 36.7067 144.244 38.1126 142.815 39.5302C142.784 39.5608 142.784 39.5915 142.814 39.6221C144.767 41.585 146.736 43.5511 148.721 45.5204C149.748 46.5394 150.99 47.3737 152.508 47.5124C152.529 47.5144 152.539 47.5257 152.539 47.5465V47.9136C152.539 47.9383 152.527 47.9507 152.502 47.9507H145.438C145.401 47.9507 145.382 47.9322 145.382 47.8951V47.5458C145.382 47.5181 145.396 47.505 145.424 47.5065C146.404 47.5495 147.042 46.8338 146.229 46.0113C144.659 44.4242 142.811 42.5874 140.685 40.501C140.66 40.4762 140.647 40.4814 140.646 40.5165Z" fill="#9D9DA6"/>
<path d="M212 36.6264V37.4793C211.592 41.2757 207.84 41.5739 204.928 40.9027C204.92 40.9008 204.912 40.9007 204.904 40.9025C204.896 40.9042 204.888 40.9078 204.882 40.9128C204.875 40.9179 204.87 40.9244 204.867 40.9317C204.863 40.9391 204.861 40.9472 204.861 40.9553C204.862 42.4994 204.864 44.0524 204.866 45.6143C204.867 45.9396 204.902 46.2605 204.969 46.577C205.176 47.5552 206.211 47.5033 206.973 47.5062C207 47.5062 207.013 47.5193 207.013 47.5455V47.8948C207.013 47.9319 206.994 47.9505 206.957 47.9505H200.616C200.579 47.9505 200.561 47.9319 200.561 47.8948V47.5448C200.561 47.5156 200.575 47.5013 200.605 47.5018C202.267 47.5426 202.708 47.1436 202.71 45.4697C202.712 42.0878 202.712 38.706 202.71 35.3241C202.709 34.8791 202.657 34.4658 202.553 34.0841C202.332 33.2735 201.243 33.2824 200.598 33.2809C200.573 33.2809 200.561 33.2685 200.561 33.2438V32.8967C200.561 32.8725 200.573 32.8604 200.598 32.8604C202.415 32.8549 204.232 32.8559 206.049 32.8634C207.25 32.8685 208.533 32.9546 209.583 33.4181C210.895 33.9973 211.828 35.1847 212 36.6264ZM204.901 40.2478C206.122 40.4896 207.329 40.7076 208.376 39.8014C210.093 38.3151 209.76 34.9466 207.603 34.0507C206.699 33.6747 205.845 33.7622 204.89 33.9936C204.871 33.9985 204.862 34.0107 204.862 34.0299V40.2011C204.862 40.2273 204.875 40.2429 204.901 40.2478Z" fill="#9D9DA6"/>
<path d="M172.815 44.312L175.242 37.3013C175.25 37.2791 175.25 37.2568 175.243 37.2346C174.888 36.1641 174.609 35.3713 174.406 34.8561C174.047 33.9417 173.459 33.2683 172.417 33.3046C172.391 33.3056 172.378 33.2928 172.378 33.2661V32.9145C172.378 32.8898 172.39 32.8774 172.415 32.8774H178.2C178.225 32.8774 178.237 32.8898 178.237 32.9145V33.2646C178.237 33.2923 178.223 33.3059 178.195 33.3054C177.568 33.2942 176.856 33.3031 176.678 33.9751C176.503 34.6344 176.982 35.7728 177.233 36.4966C178.139 39.1151 179.056 41.7296 179.984 44.3402C179.997 44.3748 180.009 44.3748 180.021 44.3402C181.085 41.3009 182.13 38.2585 183.154 35.2129C183.61 33.8571 183.105 33.2483 181.717 33.312C181.684 33.3135 181.667 33.298 181.667 33.2653V32.9331C181.667 32.896 181.686 32.8774 181.723 32.8774H186.135C186.16 32.8774 186.172 32.8898 186.172 32.9145V33.2512C186.172 33.2848 186.156 33.3014 186.122 33.3009C185.081 33.2928 184.58 33.9995 184.273 34.8865C182.732 39.3413 181.192 43.7963 179.653 48.2516C179.646 48.2738 179.631 48.2849 179.607 48.2849H179.229C179.196 48.2849 179.174 48.2694 179.163 48.2382L175.787 38.723C175.786 38.7203 175.784 38.718 175.782 38.7163C175.78 38.7146 175.777 38.7137 175.774 38.7137C175.771 38.7137 175.768 38.7146 175.766 38.7163C175.764 38.718 175.762 38.7203 175.761 38.723L172.4 48.2456C172.39 48.2718 172.372 48.2849 172.344 48.2849H172.009C171.98 48.2849 171.961 48.2713 171.951 48.2441C170.438 43.9985 168.925 39.7536 167.411 35.5095C166.969 34.2688 166.738 33.2579 165.278 33.3031C165.253 33.3041 165.24 33.2918 165.24 33.2661V32.9145C165.24 32.8898 165.252 32.8774 165.277 32.8774H170.783C170.808 32.8774 170.821 32.8898 170.821 32.9145V33.2624C170.821 33.2861 170.809 33.2987 170.785 33.3002C170.376 33.3217 170.119 33.2705 169.713 33.5308C169.11 33.9165 169.42 34.7019 169.65 35.3723C170.668 38.3473 171.702 41.3272 172.75 44.312C172.772 44.3738 172.794 44.3738 172.815 44.312Z" fill="#9D9DA6"/>
<path d="M64.6768 53.5131C64.6442 53.4657 64.6425 53.4222 64.6716 53.3826C68.276 48.4144 66.1875 41.7641 61.6688 38.2918C59.7697 36.8323 57.5888 36.0184 55.126 35.8503C54.5733 35.4686 54.0002 35.1062 53.4069 34.7631C53.4027 34.7605 53.3994 34.7567 53.3974 34.7522C53.3955 34.7476 53.395 34.7426 53.3961 34.7378C53.3972 34.7331 53.3997 34.7289 53.4034 34.7258C53.4071 34.7227 53.4117 34.721 53.4166 34.7208C53.7958 34.702 54.1676 34.6936 54.532 34.6956C61.1466 34.7319 66.6058 39.3976 67.1828 46.0656C67.3957 48.5219 66.7445 50.8507 65.2761 52.8368C65.0966 53.08 64.8968 53.3055 64.6768 53.5131Z" fill="#434348"/>
<path d="M45.5028 35.9209C45.4464 35.8175 45.4212 35.7048 45.4272 35.5827C45.4282 35.5642 45.4254 35.5456 45.4191 35.5282C45.4129 35.5108 45.4031 35.4947 45.3905 35.4811C45.378 35.4675 45.3628 35.4565 45.3459 35.4489C45.329 35.4412 45.3107 35.4371 45.2922 35.4366C45.1468 35.4329 45.0044 35.4151 44.8709 35.4863C44.5006 35.686 44.245 35.9896 44.1041 36.397C44.0878 36.4623 44.0541 36.5046 44.0032 36.5238C43.9686 36.5367 43.9548 36.5251 43.9617 36.489C44.0492 36.047 44.2509 35.669 44.5669 35.355C44.8339 35.0895 45.4858 34.7936 45.5859 35.358C45.621 35.5582 45.5933 35.7459 45.5028 35.9209Z" fill="#434348"/>
<path d="M45.5027 35.9211C45.4953 36.0205 45.4661 36.1129 45.4152 36.1985C45.4014 36.2212 45.391 36.2197 45.3841 36.194C45.2209 35.5532 44.3584 36.1844 44.104 36.3972C44.2449 35.9898 44.5005 35.6862 44.8709 35.4865C45.0044 35.4153 45.1467 35.4331 45.2921 35.4368C45.3106 35.4373 45.3289 35.4415 45.3458 35.4491C45.3627 35.4568 45.3779 35.4677 45.3905 35.4813C45.403 35.495 45.4128 35.511 45.4191 35.5284C45.4254 35.5459 45.4281 35.5644 45.4271 35.5829C45.4211 35.705 45.4464 35.8178 45.5027 35.9211Z" fill="#707076"/>
<path d="M64.6768 53.5129C62.684 55.6266 59.8925 56.6552 57.052 56.9519C52.9352 57.3813 48.9741 56.4943 45.5166 54.1648C44.9248 53.7663 44.4205 53.376 44.0037 52.9938H44.0704C44.0946 52.9938 44.1164 53.0009 44.1357 53.0153C45.5527 54.0798 47.1455 54.764 48.914 55.0681C49.1758 55.1134 49.4109 55.103 49.675 55.1482C50.0547 55.2127 50.4767 55.0852 50.8683 55.0904C51.2089 55.0948 51.5464 55.0642 51.8806 54.9984C54.6177 54.4615 56.9195 53.1663 58.786 51.113C60.1454 49.6171 60.9041 47.5212 60.2937 45.5233C60.2917 45.517 60.2882 45.5114 60.2834 45.507C60.2787 45.5025 60.2729 45.4993 60.2666 45.4978C60.2604 45.4962 60.2538 45.4963 60.2476 45.498C60.2415 45.4998 60.2359 45.5031 60.2314 45.5077C59.7657 45.971 59.251 46.3707 58.6873 46.7069C58.6836 46.7092 58.6793 46.7103 58.6749 46.7102C58.6706 46.71 58.6664 46.7086 58.6628 46.7061C58.6592 46.7036 58.6565 46.7 58.6549 46.696C58.6534 46.6919 58.653 46.6874 58.654 46.6832L58.9506 45.3074C58.9531 45.2966 58.9521 45.2852 58.9477 45.275C58.9433 45.2648 58.9357 45.2563 58.926 45.2507C58.9164 45.2451 58.9052 45.2428 58.8941 45.2441C58.8831 45.2454 58.8727 45.2501 58.8646 45.2578C58.477 45.6063 58.051 45.8988 57.5867 46.1351C57.5778 46.1397 57.5677 46.1413 57.5578 46.1397C57.5479 46.1382 57.5387 46.1335 57.5315 46.1264C57.5243 46.1193 57.5195 46.1101 57.5177 46.1001C57.5159 46.0901 57.5172 46.0798 57.5215 46.0706C58.447 44.1238 57.9806 41.91 56.4943 40.377C56.4602 40.3422 56.3994 40.3207 56.3831 40.3859C55.9151 39.7637 55.3173 39.4997 54.5186 39.249C53.0259 38.7808 51.5036 38.6129 49.9516 38.7454C49.2248 38.8077 47.6792 39.0888 47.4152 39.9202C47.2713 40.3733 47.5339 40.7093 47.7912 41.0779C47.8065 41.0996 47.8011 41.1093 47.7749 41.1068C46.1522 40.9718 44.6934 40.337 43.6885 39.031C43.773 38.9148 43.9018 38.8216 44.0749 38.7514L44.1068 38.7773C44.1265 38.7937 44.1478 38.7959 44.1705 38.784C45.5836 38.0246 47.0871 37.5586 48.6812 37.386C48.9333 37.3593 49.2537 37.3638 49.5415 37.3319C49.8109 37.3017 50.0245 37.2891 50.1822 37.2941C52.2949 37.3628 54.3404 37.7781 56.3185 38.54C56.3327 38.5453 56.3481 38.5461 56.3627 38.5424C56.3773 38.5387 56.3904 38.5306 56.4003 38.5193C56.4102 38.5079 56.4164 38.4938 56.4181 38.4788C56.4198 38.4639 56.4169 38.4487 56.4098 38.4354C56.1581 37.9722 55.8595 37.521 55.5139 37.082L56.2206 37.2399C56.2275 37.2416 56.2346 37.2411 56.2412 37.2386C56.2477 37.2361 56.2533 37.2316 56.2572 37.2257C56.2611 37.2199 56.2631 37.213 56.2629 37.206C56.2627 37.199 56.2604 37.1922 56.2562 37.1865C55.9255 36.7203 55.5487 36.2748 55.126 35.8501C57.5887 36.0182 59.7696 36.832 61.6687 38.2916C66.1875 41.7639 68.2759 48.4142 64.6716 53.3824C64.6424 53.4219 64.6442 53.4654 64.6768 53.5129Z" fill="#59595E"/>
<path d="M55.5142 37.0823C55.8598 37.5213 56.1584 37.9725 56.4101 38.4358C56.4172 38.449 56.4201 38.4642 56.4184 38.4791C56.4167 38.4941 56.4105 38.5082 56.4006 38.5196C56.3907 38.5309 56.3776 38.539 56.363 38.5427C56.3484 38.5464 56.333 38.5456 56.3189 38.5403C54.3407 37.7784 52.2952 37.3631 50.1826 37.2944C50.0248 37.2894 49.8113 37.302 49.5418 37.3322C49.254 37.3641 48.9337 37.3596 48.6815 37.3863C47.0875 37.5589 45.5839 38.0249 44.1709 38.7843C44.1481 38.7962 44.1269 38.794 44.1071 38.7776L44.0752 38.7517C47.3992 36.4281 51.6696 36.0766 55.5142 37.0823Z" fill="#434348"/>
<path d="M44.0039 52.9942C43.9386 52.9297 43.8489 52.8874 43.7888 52.834C40.1523 49.5688 38.2401 45.4629 38.0522 40.5162C38.1066 40.5023 38.1489 40.528 38.1791 40.5933C38.7405 41.794 39.3353 42.9606 40.1429 44.0174C42.2996 46.8394 45.215 48.7402 48.8445 48.8143C51.599 48.87 54.6412 47.7634 56.3551 45.5281C57.5506 43.97 57.6003 41.9638 56.3833 40.3864C56.3996 40.3211 56.4604 40.3426 56.4945 40.3775C57.9808 41.9104 58.4473 44.1242 57.5217 46.071C57.5174 46.0802 57.5161 46.0906 57.5179 46.1006C57.5197 46.1106 57.5245 46.1198 57.5317 46.1268C57.5389 46.1339 57.5481 46.1386 57.558 46.1402C57.5679 46.1417 57.578 46.1401 57.587 46.1355C58.0512 45.8992 58.4772 45.6068 58.8648 45.2582C58.8729 45.2506 58.8833 45.2458 58.8943 45.2445C58.9054 45.2433 58.9166 45.2456 58.9262 45.2511C58.9359 45.2567 58.9435 45.2652 58.9479 45.2754C58.9523 45.2857 58.9533 45.297 58.9508 45.3079L58.6542 46.6836C58.6532 46.6879 58.6536 46.6923 58.6551 46.6964C58.6567 46.7005 58.6594 46.704 58.663 46.7065C58.6666 46.709 58.6708 46.7105 58.6751 46.7106C58.6795 46.7108 58.6838 46.7096 58.6875 46.7073C59.2512 46.3711 59.7659 45.9714 60.2316 45.5081C60.2361 45.5035 60.2417 45.5002 60.2479 45.4985C60.254 45.4967 60.2606 45.4966 60.2668 45.4982C60.2731 45.4998 60.2789 45.5029 60.2836 45.5074C60.2884 45.5119 60.2919 45.5175 60.2939 45.5237C60.9043 47.5217 60.1456 49.6175 58.7862 51.1134C56.9197 53.1668 54.6179 54.4619 51.8808 54.9988C51.5466 55.0646 51.2091 55.0953 50.8685 55.0908C50.4769 55.0856 50.0549 55.2132 49.6752 55.1487C49.4112 55.1034 49.1761 55.1138 48.9143 55.0686C47.1457 54.7645 45.5529 54.0802 44.1359 53.0157C44.1166 53.0014 44.0949 52.9942 44.0706 52.9942H44.0039Z" fill="#434348"/>
<path d="M71.2395 44.4652C71.2682 44.5522 71.259 44.635 71.212 44.7136C71.1834 44.7611 71.1713 44.7571 71.1757 44.7018L71.1965 44.4704C71.2024 44.3997 71.2167 44.3979 71.2395 44.4652Z" fill="#428CCA"/>
</g>
<rect x="0.5" y="0.5" width="239" height="79" stroke="#2E2E33"/>
<defs>
<clipPath id="clip0_33149_130879">
<rect width="184" height="56.5869" fill="white" transform="translate(28 12)"/>
</clipPath>
</defs>
</svg>
